<?xml version="1.0" encoding="UTF-8" standalone="no"?>
<svg width="548" xmlns="http://www.w3.org/2000/svg" viewBox="0 0 548 265" height="265">
 <defs>
  <filter id="2-smart-contract-cover-a" height="111.2%" width="102.5%" y="-5.6%" x="-1.3%" filterUnits="objectBoundingBox">
   <feGaussianBlur stdDeviation="2.265" in="SourceGraphic"/>
  </filter>
 </defs>
 <g fill-rule="evenodd" transform="translate(4)" fill="none">
  <g opacity=".184" transform="translate(0 138)">
   <path filter="url(#2-smart-contract-cover-a)" d="m175.64 0.097569h188.49l175.64 60.656-175.63 60.656-188.51 0.01-175.63-60.666 175.63-60.659z" fill="#D7FBE8"/>
  </g>
  <g opacity=".297" transform="translate(0 91)">
   <polygon points="175.61 136.96 364.17 136.96 364.17 120.53 175.61 120.56" fill="#9CF3C5"/>
   <polygon points="175.63 136.97 0 75.426 0 60.341 175.63 120.59" fill="#B3F2D1"/>
   <path d="m188.51 60.341l175.63 60.249-175.63-60.249z" fill="#616161"/>
   <polygon points="364.14 136.97 539.77 74.905 539.77 60.341 364.14 120.59" fill="#60D3A2"/>
   <path d="m175.64 0.096906h188.49l175.64 60.244-175.63 60.249h-188.51l-175.63-60.249 175.63-60.247z" fill="#D7FBE8"/>
  </g>
  <g opacity=".596" transform="translate(0 48)">
   <polygon points="175.61 136.96 364.17 136.96 364.17 120.53 175.61 120.56" fill="#9CF3C5"/>
   <polygon points="175.63 136.97 0 75.426 0 60.341 175.63 120.59" fill="#B3F2D1"/>
   <path d="m188.51 60.341l175.63 60.249-175.63-60.249z" fill="#616161"/>
   <polygon points="364.14 136.97 539.77 74.905 539.77 60.341 364.14 120.59" fill="#60D3A2"/>
   <path d="m175.64 0.096906h188.49l175.64 60.244-175.63 60.249h-188.51l-175.63-60.249 175.63-60.247z" fill="#D7FBE8"/>
   <polygon points="130.5 71.805 146.81 66.241 146.81 55.021 130.5 60.585" fill="#60D3A2"/>
   <polygon points="130.5 71.805 119.25 67.968 119.25 56.748 130.5 60.585" fill="#9CF3C5"/>
   <polygon points="135.56 51.184 119.25 56.748 130.5 60.585 146.81 55.021" fill="#B3F2D1"/>
  </g>
  <polygon points="175.61 136.96 364.17 136.96 364.17 120.53 175.61 120.56" fill="#9CF3C5"/>
  <polygon points="175.63 136.97 0 75.426 0 60.341 175.63 120.59" fill="#B3F2D1"/>
  <path d="m188.51 60.341l175.63 60.249-175.63-60.249z" fill="#616161"/>
  <polygon points="364.14 136.97 539.77 74.905 539.77 60.341 364.14 120.59" fill="#60D3A2"/>
  <path d="m175.64 0.096906h188.49l175.64 60.244-175.63 60.249h-188.51l-175.63-60.249 175.63-60.247z" fill="#D7FBE8"/>
  <polygon points="306 33.659 322.31 28.094 322.31 16.875 306 22.439" fill="#60D3A2"/>
  <polygon points="306 33.659 267.19 20.42 267.19 9.2 306 22.439" fill="#9CF3C5"/>
  <polygon points="283.5 3.636 267.19 9.2 306 22.439 322.31 16.875" fill="#B3F2D1"/>
  <polygon points="376.88 76.293 393.19 70.729 393.19 59.509 376.88 65.073" fill="#60D3A2"/>
  <polygon points="376.88 76.293 254.25 34.466 254.25 23.247 376.88 65.073" fill="#9CF3C5"/>
  <polygon points="270.56 17.683 254.25 23.247 376.88 65.073 393.19 59.509" fill="#B3F2D1"/>
  <polygon points="352.12 86.39 368.44 80.826 368.44 69.607 352.12 75.171" fill="#60D3A2"/>
  <polygon points="352.12 86.39 218.25 40.726 218.25 29.507 352.12 75.171" fill="#9CF3C5"/>
  <polygon points="234.56 23.943 218.25 29.507 352.12 75.171 368.44 69.607" fill="#B3F2D1"/>
  <polygon points="340.88 100.98 357.19 95.412 357.19 84.192 340.88 89.756" fill="#60D3A2"/>
  <polygon points="340.88 100.98 218.25 59.149 218.25 47.93 340.88 89.756" fill="#9CF3C5"/>
  <polygon points="234.56 42.365 218.25 47.93 340.88 89.756 357.19 84.192" fill="#B3F2D1"/>
  <polygon points="300.38 105.46 316.69 99.899 316.69 88.68 300.38 94.244" fill="#60D3A2"/>
  <polygon points="300.38 105.46 147.38 53.276 147.38 42.057 300.38 94.244" fill="#9CF3C5"/>
  <polygon points="163.69 36.493 147.38 42.057 300.38 94.244 316.69 88.68" fill="#B3F2D1"/>
  <polygon points="130.5 71.805 146.81 66.241 146.81 55.021 130.5 60.585" fill="#60D3A2"/>
  <polygon points="130.5 71.805 119.25 67.968 119.25 56.748 130.5 60.585" fill="#9CF3C5"/>
  <polygon points="135.56 51.184 119.25 56.748 130.5 60.585 146.81 55.021" fill="#B3F2D1"/>
 </g>
</svg>
