<?xml version="1.0" encoding="UTF-8" standalone="no"?>
<svg width="547" xmlns="http://www.w3.org/2000/svg" viewBox="0 0 547 243" height="243">
 <defs>
  <filter id="3-replace-insurance-a" height="119.5%" width="104.4%" y="-9.8%" x="-2.2%" filterUnits="objectBoundingBox">
   <feGaussianBlur stdDeviation="2.265" in="SourceGraphic"/>
  </filter>
  <filter id="3-replace-insurance-b" height="119.5%" width="104.4%" y="-9.8%" x="-2.2%" filterUnits="objectBoundingBox">
   <feGaussianBlur stdDeviation="2.265" in="SourceGraphic"/>
  </filter>
  <linearGradient id="3-replace-insurance-c" y1="58.499%" x1="3.503%" y2="58.499%">
   <stop stop-color="#9CF3C5" offset="0"/>
   <stop stop-color="#60D3A2" offset="1"/>
  </linearGradient>
 </defs>
 <g fill-rule="evenodd" transform="translate(4)" fill="none">
  <g opacity=".596" transform="translate(0 27.9)">
   <polygon points="101.25 79.207 209.96 79.207 209.96 69.703 101.25 69.722" fill="#9CF3C5"/>
   <polygon points="101.26 79.209 0 43.619 0 34.895 101.26 69.735" fill="#B3F2D1"/>
   <path d="m108.69 34.895l101.26 34.84-101.26-34.84z" fill="#616161"/>
   <polygon points="209.94 79.209 311.2 43.317 311.2 34.895 209.94 69.735" fill="#60D3A2"/>
   <path d="m101.26 0.056041h108.68l101.26 34.839-101.25 34.839-108.69 0.005-101.26-34.844 101.26-34.84z" fill="#D7FBE8"/>
   <polygon points="75.24 41.525 84.645 38.307 84.645 31.819 75.24 35.036" fill="#60D3A2"/>
   <polygon points="75.24 41.525 68.754 39.306 68.754 32.817 75.24 35.036" fill="#9CF3C5"/>
   <polygon points="78.159 29.6 68.754 32.817 75.24 35.036 84.645 31.819" fill="#B3F2D1"/>
  </g>
  <polygon points="101.25 79.207 209.96 79.207 209.96 69.703 101.25 69.722" fill="#9CF3C5"/>
  <polygon points="101.26 79.209 0 43.619 0 34.895 101.26 69.735" fill="#B3F2D1"/>
  <path d="m108.69 34.895l101.26 34.84-101.26-34.84z" fill="#616161"/>
  <polygon points="209.94 79.209 311.2 43.317 311.2 34.895 209.94 69.735" fill="#60D3A2"/>
  <path d="m101.26 0.056041h108.68l101.26 34.839-101.25 34.839-108.69 0.005-101.26-34.844 101.26-34.84z" fill="#D7FBE8"/>
  <g transform="translate(227.67 45.418)">
   <g opacity=".184" transform="translate(0 79.805)">
    <path filter="url(#3-replace-insurance-a)" d="m101.26 0.056041h108.68l101.26 34.839-101.25 34.839-108.69 0.005-101.26-34.844 101.26-34.84z" fill="#D7FBE8"/>
   </g>
   <g opacity=".297" transform="translate(0 52.555)">
    <polygon points="101.25 79.207 209.96 79.207 209.96 69.703 101.25 69.722" fill="#9CF3C5"/>
    <polygon points="101.26 79.209 0 43.619 0 34.895 101.26 69.735" fill="#B3F2D1"/>
    <path d="m108.69 34.895l101.26 34.84-101.26-34.84z" fill="#616161"/>
    <polygon points="209.94 79.209 311.2 43.317 311.2 34.895 209.94 69.735" fill="#60D3A2"/>
    <path d="m101.26 0.056041h108.68l101.26 34.839-101.25 34.839-108.69 0.005-101.26-34.844 101.26-34.84z" fill="#D7FBE8"/>
   </g>
   <g opacity=".596" transform="translate(0 27.9)">
    <polygon points="101.25 79.207 209.96 79.207 209.96 69.703 101.25 69.722" fill="#9CF3C5"/>
    <polygon points="101.26 79.209 0 43.619 0 34.895 101.26 69.735" fill="#B3F2D1"/>
    <path d="m108.69 34.895l101.26 34.84-101.26-34.84z" fill="#616161"/>
    <polygon points="209.94 79.209 311.2 43.317 311.2 34.895 209.94 69.735" fill="#60D3A2"/>
    <path d="m101.26 0.056041h108.68l101.26 34.839-101.25 34.839-108.69 0.005-101.26-34.844 101.26-34.84z" fill="#D7FBE8"/>
    <polygon points="75.24 41.525 84.645 38.307 84.645 31.819 75.24 35.036" fill="#60D3A2"/>
    <polygon points="75.24 41.525 68.754 39.306 68.754 32.817 75.24 35.036" fill="#9CF3C5"/>
    <polygon points="78.159 29.6 68.754 32.817 75.24 35.036 84.645 31.819" fill="#B3F2D1"/>
   </g>
   <polygon points="101.25 79.207 209.96 79.207 209.96 69.703 101.25 69.722" fill="#9CF3C5"/>
   <polygon points="101.26 79.209 0 43.619 0 34.895 101.26 69.735" fill="#B3F2D1"/>
   <path d="m108.69 34.895l101.26 34.84-101.26-34.84z" fill="#616161"/>
   <polygon points="209.94 79.209 311.2 43.317 311.2 34.895 209.94 69.735" fill="#60D3A2"/>
   <path d="m101.26 0.056041h108.68l101.26 34.839-101.25 34.839-108.69 0.005-101.26-34.844 101.26-34.84z" fill="#D7FBE8"/>
  </g>
  <g transform="translate(0 88.24)">
   <g opacity=".184" transform="translate(0 79.805)">
    <path filter="url(#3-replace-insurance-b)" d="m101.26 0.056041h108.68l101.26 34.839-101.25 34.839-108.69 0.005-101.26-34.844 101.26-34.84z" fill="#D7FBE8"/>
   </g>
   <g transform="translate(0 52.555)">
    <polygon points="101.25 79.207 209.96 79.207 209.96 69.703 101.25 69.722" fill="#DEFCEC"/>
    <polygon points="101.26 79.209 0 43.619 0 34.895 101.26 69.735" fill="#E5FCF0"/>
    <path d="m108.69 34.895l101.26 34.84-101.26-34.84z" fill="#616161"/>
    <polygon points="209.94 79.209 311.2 43.317 311.2 34.895 209.94 69.735" fill="#CCF2E2"/>
    <path d="m101.26 0.056041h108.68l101.26 34.839-101.25 34.839-108.69 0.005-101.26-34.844 101.26-34.84z" fill="#F0FEF7"/>
   </g>
   <g transform="translate(0 27.9)">
    <polygon points="101.25 79.207 209.96 79.207 209.96 69.703 101.25 69.722" fill="#BEF8DA"/>
    <polygon points="101.26 79.209 0 43.619 0 34.895 101.26 69.735" fill="#CCF8E1"/>
    <path d="m108.69 34.895l101.26 34.84-101.26-34.84z" fill="#616161"/>
    <polygon points="209.94 79.209 311.2 43.317 311.2 34.895 209.94 69.735" fill="#9DE5C6"/>
    <path d="m101.26 0.056041h108.68l101.26 34.839-101.25 34.839-108.69 0.005-101.26-34.844 101.26-34.84z" fill="#E2FDEF"/>
    <polygon points="75.24 41.525 84.645 38.307 84.645 31.819 75.24 35.036" fill="#60D3A2"/>
    <polygon points="75.24 41.525 68.754 39.306 68.754 32.817 75.24 35.036" fill="#9CF3C5"/>
    <polygon points="78.159 29.6 68.754 32.817 75.24 35.036 84.645 31.819" fill="#B3F2D1"/>
   </g>
   <polygon points="101.25 79.207 209.96 79.207 209.96 69.703 101.25 69.722" fill="#9CF3C5"/>
   <polygon points="101.26 79.209 0 43.619 0 34.895 101.26 69.735" fill="#B3F2D1"/>
   <path d="m108.69 34.895l101.26 34.84-101.26-34.84z" fill="#616161"/>
   <polygon points="209.94 79.209 311.2 43.317 311.2 34.895 209.94 69.735" fill="#60D3A2"/>
   <path d="m101.26 0.056041h108.68l101.26 34.839-101.25 34.839-108.69 0.005-101.26-34.844 101.26-34.84z" fill="#D7FBE8"/>
  </g>
  <g transform="translate(96.642 13.948)">
   <path d="m0 16.229v-6.5769c0-5.3307 10.929-9.6521 24.41-9.6521s24.409 4.3214 24.409 9.6521v6.5769 0.023c0 5.331-10.928 9.652-24.409 9.652s-24.41-4.321-24.41-9.652c0-0.008 0.00002267-0.015 0.000067984-0.023z" fill="url(#3-replace-insurance-c)"/>
   <ellipse cy="9.652" cx="24.41" rx="24.41" ry="9.652" fill="#B3F2D1"/>
  </g>
  <g transform="translate(160.41 26.9)">
   <path d="m0 16.229v-6.5769c0-5.3307 10.929-9.6521 24.41-9.6521s24.409 4.3214 24.409 9.6521v6.5769 0.023c0 5.331-10.928 9.652-24.409 9.652s-24.41-4.321-24.41-9.652c0-0.008 0.00002267-0.015 0.000067984-0.023z" fill="url(#3-replace-insurance-c)"/>
   <ellipse cy="9.652" cx="24.41" rx="24.41" ry="9.652" fill="#B3F2D1"/>
  </g>
  <g transform="translate(328.78 56.79)">
   <polygon points="47.833 34.984 47.833 2.04 92.527 0.975 95.666 18.481 95.666 28.326 47.833 44.834" fill="#60D3A2"/>
   <polygon points="0 18.566 47.345 2.045 92.565 0.971 95.667 18.566 47.345 35.087" fill="#B3F2D1"/>
   <polygon points="0 18.518 47.833 34.939 47.833 44.834 0 28.382" fill="#9CF3C5"/>
  </g>
  <g transform="translate(0 88.672)">
   <polygon points="101.09 79.107 209.63 79.107 209.63 69.615 101.09 69.634" fill="#9CF3C5"/>
   <polygon points="101.1 79.109 0 43.564 0 34.851 101.1 69.647" fill="#B3F2D1"/>
   <path d="m108.51 34.851l101.11 34.796-101.11-34.796z" fill="#616161"/>
   <polygon points="209.62 79.109 310.72 43.263 310.72 34.851 209.62 69.647" fill="#60D3A2"/>
   <path d="m101.1 0.05597h108.51l101.11 34.795-101.1 34.796-108.52 0.004-101.1-34.8 101.1-34.796z" fill="#D7FBE8"/>
   <polygon points="176.15 19.44 185.54 16.227 185.54 9.746 176.15 12.96" fill="#60D3A2"/>
   <polygon points="176.15 19.44 153.8 11.794 153.8 5.314 176.15 12.96" fill="#9CF3C5"/>
   <polygon points="163.2 2.1 153.8 5.314 176.15 12.96 185.54 9.746" fill="#B3F2D1"/>
   <polygon points="216.95 44.064 226.34 40.851 226.34 34.371 216.95 37.584" fill="#60D3A2"/>
   <polygon points="216.95 44.064 146.36 19.907 146.36 13.427 216.95 37.584" fill="#9CF3C5"/>
   <polygon points="155.75 10.213 146.36 13.427 216.95 37.584 226.34 34.371" fill="#B3F2D1"/>
   <polygon points="202.7 49.896 212.09 46.683 212.09 40.203 202.7 43.416" fill="#60D3A2"/>
   <polygon points="202.7 49.896 125.64 23.522 125.64 17.042 202.7 43.416" fill="#9CF3C5"/>
   <polygon points="135.02 13.829 125.64 17.042 202.7 43.416 212.09 40.203" fill="#B3F2D1"/>
   <polygon points="196.22 58.321 205.61 55.107 205.61 48.627 196.22 51.841" fill="#60D3A2"/>
   <polygon points="196.22 58.321 125.64 34.163 125.64 27.683 196.22 51.841" fill="#9CF3C5"/>
   <polygon points="135.02 24.469 125.64 27.683 196.22 51.841 205.61 48.627" fill="#B3F2D1"/>
   <polygon points="172.91 60.913 182.3 57.699 182.3 51.219 172.91 54.433" fill="#60D3A2"/>
   <polygon points="172.91 60.913 84.836 30.771 84.836 24.291 172.91 54.433" fill="#9CF3C5"/>
   <polygon points="94.226 21.077 84.836 24.291 172.91 54.433 182.3 51.219" fill="#B3F2D1"/>
   <polygon points="75.122 41.472 84.512 38.259 84.512 31.779 75.122 34.992" fill="#60D3A2"/>
   <polygon points="75.122 41.472 68.646 39.256 68.646 32.776 75.122 34.992" fill="#9CF3C5"/>
   <polygon points="78.036 29.562 68.646 32.776 75.122 34.992 84.512 31.779" fill="#B3F2D1"/>
  </g>
 </g>
</svg>
