<svg xmlns="http://www.w3.org/2000/svg" width="547" height="243" viewBox="0 0 547 243">
  <defs>
    <filter id="3-replace-insurance-a" width="104.4%" height="119.5%" x="-2.2%" y="-9.8%" filterUnits="objectBoundingBox">
      <feGaussianBlur in="SourceGraphic" stdDeviation="2.265"/>
    </filter>
    <filter id="3-replace-insurance-b" width="104.4%" height="119.5%" x="-2.2%" y="-9.8%" filterUnits="objectBoundingBox">
      <feGaussianBlur in="SourceGraphic" stdDeviation="2.265"/>
    </filter>
    <linearGradient id="3-replace-insurance-c" x1="3.503%" y1="58.499%" y2="58.499%">
      <stop offset="0%" stop-color="#9CF3C5"/>
      <stop offset="100%" stop-color="#60D3A2"/>
    </linearGradient>
  </defs>
  <g fill="none" fill-rule="evenodd" transform="translate(4)">
    <g opacity=".596" transform="translate(0 27.9)">
      <polygon fill="#9CF3C5" points="101.248 79.207 209.963 79.207 209.963 69.703 101.248 69.722"/>
      <polygon fill="#B3F2D1" points="101.26 79.209 0 43.619 0 34.895 101.26 69.735"/>
      <path fill="#616161" d="M108.685363,34.894893 L209.945018,69.7351716 L108.685363,34.894893 Z"/>
      <polygon fill="#60D3A2" points="209.945 79.209 311.205 43.317 311.205 34.895 209.945 69.735"/>
      <path fill="#D7FBE8" d="M101.2638,0.0560406103 L209.940873,0.0560406103 L311.204673,34.894893 L209.947583,69.7342891 L101.259655,69.7391196 L0,34.894893 L101.259655,0.0546143981 Z"/>
      <polygon fill="#60D3A2" points="75.24 41.525 84.645 38.307 84.645 31.819 75.24 35.036"/>
      <polygon fill="#9CF3C5" points="75.24 41.525 68.754 39.306 68.754 32.817 75.24 35.036"/>
      <polygon fill="#B3F2D1" points="78.159 29.6 68.754 32.817 75.24 35.036 84.645 31.819"/>
    </g>
    <polygon fill="#9CF3C5" points="101.248 79.207 209.963 79.207 209.963 69.703 101.248 69.722"/>
    <polygon fill="#B3F2D1" points="101.26 79.209 0 43.619 0 34.895 101.26 69.735"/>
    <path fill="#616161" d="M108.685363,34.894893 L209.945018,69.7351716 L108.685363,34.894893 Z"/>
    <polygon fill="#60D3A2" points="209.945 79.209 311.205 43.317 311.205 34.895 209.945 69.735"/>
    <path fill="#D7FBE8" d="M101.2638,0.0560406103 L209.940873,0.0560406103 L311.204673,34.894893 L209.947583,69.7342891 L101.259655,69.7391196 L0,34.894893 L101.259655,0.0546143981 Z"/>
    <g transform="translate(227.666 45.418)">
      <g opacity=".184" transform="translate(0 79.805)">
        <path fill="#D7FBE8" d="M101.2638,0.0560406103 L209.940873,0.0560406103 L311.204673,34.894893 L209.947583,69.7342891 L101.259655,69.7391196 L0,34.894893 L101.259655,0.0546143981 Z" filter="url(#3-replace-insurance-a)"/>
      </g>
      <g opacity=".297" transform="translate(0 52.555)">
        <polygon fill="#9CF3C5" points="101.248 79.207 209.963 79.207 209.963 69.703 101.248 69.722"/>
        <polygon fill="#B3F2D1" points="101.26 79.209 0 43.619 0 34.895 101.26 69.735"/>
        <path fill="#616161" d="M108.685363,34.894893 L209.945018,69.7351716 L108.685363,34.894893 Z"/>
        <polygon fill="#60D3A2" points="209.945 79.209 311.205 43.317 311.205 34.895 209.945 69.735"/>
        <path fill="#D7FBE8" d="M101.2638,0.0560406103 L209.940873,0.0560406103 L311.204673,34.894893 L209.947583,69.7342891 L101.259655,69.7391196 L0,34.894893 L101.259655,0.0546143981 Z"/>
      </g>
      <g opacity=".596" transform="translate(0 27.9)">
        <polygon fill="#9CF3C5" points="101.248 79.207 209.963 79.207 209.963 69.703 101.248 69.722"/>
        <polygon fill="#B3F2D1" points="101.26 79.209 0 43.619 0 34.895 101.26 69.735"/>
        <path fill="#616161" d="M108.685363,34.894893 L209.945018,69.7351716 L108.685363,34.894893 Z"/>
        <polygon fill="#60D3A2" points="209.945 79.209 311.205 43.317 311.205 34.895 209.945 69.735"/>
        <path fill="#D7FBE8" d="M101.2638,0.0560406103 L209.940873,0.0560406103 L311.204673,34.894893 L209.947583,69.7342891 L101.259655,69.7391196 L0,34.894893 L101.259655,0.0546143981 Z"/>
        <polygon fill="#60D3A2" points="75.24 41.525 84.645 38.307 84.645 31.819 75.24 35.036"/>
        <polygon fill="#9CF3C5" points="75.24 41.525 68.754 39.306 68.754 32.817 75.24 35.036"/>
        <polygon fill="#B3F2D1" points="78.159 29.6 68.754 32.817 75.24 35.036 84.645 31.819"/>
      </g>
      <polygon fill="#9CF3C5" points="101.248 79.207 209.963 79.207 209.963 69.703 101.248 69.722"/>
      <polygon fill="#B3F2D1" points="101.26 79.209 0 43.619 0 34.895 101.26 69.735"/>
      <path fill="#616161" d="M108.685363,34.894893 L209.945018,69.7351716 L108.685363,34.894893 Z"/>
      <polygon fill="#60D3A2" points="209.945 79.209 311.205 43.317 311.205 34.895 209.945 69.735"/>
      <path fill="#D7FBE8" d="M101.2638,0.0560406103 L209.940873,0.0560406103 L311.204673,34.894893 L209.947583,69.7342891 L101.259655,69.7391196 L0,34.894893 L101.259655,0.0546143981 Z"/>
    </g>
    <g transform="translate(0 88.24)">
      <g opacity=".184" transform="translate(0 79.805)">
        <path fill="#D7FBE8" d="M101.2638,0.0560406103 L209.940873,0.0560406103 L311.204673,34.894893 L209.947583,69.7342891 L101.259655,69.7391196 L0,34.894893 L101.259655,0.0546143981 Z" filter="url(#3-replace-insurance-b)"/>
      </g>
      <g transform="translate(0 52.555)">
        <polygon fill="#DEFCEC" points="101.248 79.207 209.963 79.207 209.963 69.703 101.248 69.722"/>
        <polygon fill="#E5FCF0" points="101.26 79.209 0 43.619 0 34.895 101.26 69.735"/>
        <path fill="#616161" d="M108.685363,34.894893 L209.945018,69.7351716 L108.685363,34.894893 Z"/>
        <polygon fill="#CCF2E2" points="209.945 79.209 311.205 43.317 311.205 34.895 209.945 69.735"/>
        <path fill="#F0FEF7" d="M101.2638,0.0560406103 L209.940873,0.0560406103 L311.204673,34.894893 L209.947583,69.7342891 L101.259655,69.7391196 L0,34.894893 L101.259655,0.0546143981 Z"/>
      </g>
      <g transform="translate(0 27.9)">
        <polygon fill="#BEF8DA" points="101.248 79.207 209.963 79.207 209.963 69.703 101.248 69.722"/>
        <polygon fill="#CCF8E1" points="101.26 79.209 0 43.619 0 34.895 101.26 69.735"/>
        <path fill="#616161" d="M108.685363,34.894893 L209.945018,69.7351716 L108.685363,34.894893 Z"/>
        <polygon fill="#9DE5C6" points="209.945 79.209 311.205 43.317 311.205 34.895 209.945 69.735"/>
        <path fill="#E2FDEF" d="M101.2638,0.0560406103 L209.940873,0.0560406103 L311.204673,34.894893 L209.947583,69.7342891 L101.259655,69.7391196 L0,34.894893 L101.259655,0.0546143981 Z"/>
        <polygon fill="#60D3A2" points="75.24 41.525 84.645 38.307 84.645 31.819 75.24 35.036"/>
        <polygon fill="#9CF3C5" points="75.24 41.525 68.754 39.306 68.754 32.817 75.24 35.036"/>
        <polygon fill="#B3F2D1" points="78.159 29.6 68.754 32.817 75.24 35.036 84.645 31.819"/>
      </g>
      <polygon fill="#9CF3C5" points="101.248 79.207 209.963 79.207 209.963 69.703 101.248 69.722"/>
      <polygon fill="#B3F2D1" points="101.26 79.209 0 43.619 0 34.895 101.26 69.735"/>
      <path fill="#616161" d="M108.685363,34.894893 L209.945018,69.7351716 L108.685363,34.894893 Z"/>
      <polygon fill="#60D3A2" points="209.945 79.209 311.205 43.317 311.205 34.895 209.945 69.735"/>
      <path fill="#D7FBE8" d="M101.2638,0.0560406103 L209.940873,0.0560406103 L311.204673,34.894893 L209.947583,69.7342891 L101.259655,69.7391196 L0,34.894893 L101.259655,0.0546143981 Z"/>
    </g>
    <g transform="translate(96.642 13.948)">
      <path fill="url(#3-replace-insurance-c)" d="M0,16.2288685 C0,12.7821304 0,10.5898907 0,9.65214939 C0,4.32141448 10.9285475,0 24.4095941,0 C37.8906407,0 48.8191882,4.32141448 48.8191882,9.65214939 C48.8191882,10.7450621 48.8191882,12.9373018 48.8191882,16.2288685 C48.8191655,16.236556 48.8191882,16.2442318 48.8191882,16.2519097 C48.8191882,21.5826446 37.8906407,25.904059 24.4095941,25.904059 C10.9285475,25.904059 0,21.5826446 0,16.2519097 C0,16.244232 2.26697775e-05,16.2365564 6.79843078e-05,16.2288829 Z"/>
      <ellipse cx="24.41" cy="9.652" fill="#B3F2D1" rx="24.41" ry="9.652"/>
    </g>
    <g transform="translate(160.406 26.9)">
      <path fill="url(#3-replace-insurance-c)" d="M0,16.2288685 C0,12.7821304 0,10.5898907 0,9.65214939 C0,4.32141448 10.9285475,0 24.4095941,0 C37.8906407,0 48.8191882,4.32141448 48.8191882,9.65214939 C48.8191882,10.7450621 48.8191882,12.9373018 48.8191882,16.2288685 C48.8191655,16.236556 48.8191882,16.2442318 48.8191882,16.2519097 C48.8191882,21.5826446 37.8906407,25.904059 24.4095941,25.904059 C10.9285475,25.904059 0,21.5826446 0,16.2519097 C0,16.244232 2.26697775e-05,16.2365564 6.79843078e-05,16.2288829 Z"/>
      <ellipse cx="24.41" cy="9.652" fill="#B3F2D1" rx="24.41" ry="9.652"/>
    </g>
    <g transform="translate(328.782 56.79)">
      <polygon fill="#60D3A2" points="47.833 34.984 47.833 2.04 92.527 .975 95.666 18.481 95.666 28.326 47.833 44.834"/>
      <polygon fill="#B3F2D1" points="0 18.566 47.345 2.045 92.565 .971 95.667 18.566 47.345 35.087"/>
      <polygon fill="#9CF3C5" points="0 18.518 47.833 34.939 47.833 44.834 0 28.382"/>
    </g>
    <g transform="translate(0 88.672)">
      <polygon fill="#9CF3C5" points="101.089 79.107 209.634 79.107 209.634 69.615 101.089 69.634"/>
      <polygon fill="#B3F2D1" points="101.101 79.109 0 43.564 0 34.851 101.101 69.647"/>
      <path fill="#616161" d="M108.5146,34.8509732 L209.61516,69.6474007 L108.5146,34.8509732 Z"/>
      <polygon fill="#60D3A2" points="209.615 79.109 310.716 43.263 310.716 34.851 209.615 69.647"/>
      <path fill="#D7FBE8" d="M101.104698,0.0559700758 L209.611021,0.0559700758 L310.715719,34.8509732 L209.61772,69.6465193 L101.100559,69.6513438 L0,34.8509732 L101.100559,0.0545456587 Z"/>
      <polygon fill="#60D3A2" points="176.148 19.44 185.538 16.227 185.538 9.746 176.148 12.96"/>
      <polygon fill="#9CF3C5" points="176.148 19.44 153.805 11.794 153.805 5.314 176.148 12.96"/>
      <polygon fill="#B3F2D1" points="163.196 2.1 153.805 5.314 176.148 12.96 185.538 9.746"/>
      <polygon fill="#60D3A2" points="216.946 44.064 226.337 40.851 226.337 34.371 216.946 37.584"/>
      <polygon fill="#9CF3C5" points="216.946 44.064 146.358 19.907 146.358 13.427 216.946 37.584"/>
      <polygon fill="#B3F2D1" points="155.748 10.213 146.358 13.427 216.946 37.584 226.337 34.371"/>
      <polygon fill="#60D3A2" points="202.699 49.896 212.089 46.683 212.089 40.203 202.699 43.416"/>
      <polygon fill="#9CF3C5" points="202.699 49.896 125.635 23.522 125.635 17.042 202.699 43.416"/>
      <polygon fill="#B3F2D1" points="135.025 13.829 125.635 17.042 202.699 43.416 212.089 40.203"/>
      <polygon fill="#60D3A2" points="196.223 58.321 205.613 55.107 205.613 48.627 196.223 51.841"/>
      <polygon fill="#9CF3C5" points="196.223 58.321 125.635 34.163 125.635 27.683 196.223 51.841"/>
      <polygon fill="#B3F2D1" points="135.025 24.469 125.635 27.683 196.223 51.841 205.613 48.627"/>
      <polygon fill="#60D3A2" points="172.91 60.913 182.3 57.699 182.3 51.219 172.91 54.433"/>
      <polygon fill="#9CF3C5" points="172.91 60.913 84.836 30.771 84.836 24.291 172.91 54.433"/>
      <polygon fill="#B3F2D1" points="94.226 21.077 84.836 24.291 172.91 54.433 182.3 51.219"/>
      <polygon fill="#60D3A2" points="75.122 41.472 84.512 38.259 84.512 31.779 75.122 34.992"/>
      <polygon fill="#9CF3C5" points="75.122 41.472 68.646 39.256 68.646 32.776 75.122 34.992"/>
      <polygon fill="#B3F2D1" points="78.036 29.562 68.646 32.776 75.122 34.992 84.512 31.779"/>
    </g>
  </g>
</svg>
