<?xml version="1.0" encoding="UTF-8" standalone="no"?>
<svg width="39" xmlns="http://www.w3.org/2000/svg" viewBox="0 0 39 39" height="39">
 <g fill-rule="evenodd">
  <rect width="39" fill="#1EAB89" rx="2" height="39"/>
  <path fill-rule="nonzero" d="m19.813 1.8845c-1.99-1.6005-5.139-1.8713-5.273-1.8828-0.21-0.017724-0.41 0.10145-0.495 0.29381-0.007 0.01254-0.076 0.1704-0.152 0.41607 1.316 0.22162 2.934 0.66902 4.397 1.5775 0.234 0.1453 0.307 0.4537 0.161 0.6889-0.094 0.1526-0.258 0.2363-0.425 0.2363-0.09 0-0.181-0.0241-0.264-0.0753-2.515-1.5597-5.658-1.6381-6.262-1.6381s-3.748 0.0784-6.2612 1.6381c-0.2353 0.1464-0.5426 0.0732-0.689-0.161-0.1463-0.2352-0.0732-0.5426 0.161-0.6889 1.4637-0.9074 3.0799-1.3559 4.3972-1.5775-0.0774-0.24674-0.1464-0.40355-0.1516-0.41609-0.0868-0.19236-0.2854-0.31362-0.4966-0.29272-0.1328 0.010457-3.2817 0.28122-5.2994 1.9047-1.0538 0.9733-3.1604 6.6686-3.1604 11.592 0 0.087 0.023 0.172 0.065864 0.248 1.4542 2.554 5.4206 3.223 6.325 3.252h0.0156c0.16 0 0.3105-0.076 0.4046-0.206l0.9148-1.257c-2.4662-0.637-3.726-1.719-3.7992-1.783-0.207-0.183-0.2268-0.499-0.0439-0.706 0.183-0.207 0.4977-0.226 0.7047-0.045 0.0303 0.028 2.3501 1.996 6.9125 1.996 4.571 0 6.891-1.977 6.914-1.997 0.207-0.179 0.522-0.161 0.704 0.047 0.182 0.207 0.162 0.522-0.044 0.704-0.073 0.065-1.333 1.146-3.799 1.783l0.915 1.257c0.094 0.13 0.245 0.206 0.404 0.206h0.016c0.904-0.028 4.871-0.697 6.325-3.252 0.042-0.076 0.065-0.16 0.065-0.247 0-4.9239-2.107-10.619-3.187-11.616zm-11.563 9.6155c-0.966 0-1.7501-0.896-1.7501-1.9997 0-1.104 0.783-1.9999 1.7501-1.9999 0.967 0 1.7501 0.8959 1.7501 1.9999 0 1.1037-0.7831 1.9997-1.7501 1.9997zm6.5003 0c-0.966 0-1.75-0.896-1.75-1.9997 0-1.104 0.783-1.9999 1.75-1.9999 0.966 0 1.75 0.8959 1.75 1.9999 0 1.1037-0.784 1.9997-1.75 1.9997z" transform="translate(8 11)" fill="#20252E"/>
 </g>
</svg>
