<?xml version="1.0" encoding="UTF-8" standalone="no"?>
<svg width="39" xmlns="http://www.w3.org/2000/svg" viewBox="0 0 39 39" height="39">
 <path fill-rule="evenodd" d="m2 0h35c1.105-2.0291e-16 2 0.89543 2 2v35c0 1.105-0.895 2-2 2h-35c-1.1046 0-2-0.895-2-2v-35c-1.3527e-16 -1.1046 0.89543-2 2-2zm9.403 19.87c-0.035-0.001 0.385 0.888 0.397 0.888 0.916 1.635 2.683 2.652 5.663 2.934-0.425 0.317-0.936 0.919-1.007 1.615-0.535 0.34-1.61 0.452-2.446 0.193-1.172-0.363-1.621-2.643-3.375-2.319-0.38 0.071-0.305 0.317 0.024 0.526 0.535 0.34 1.038 0.766 1.426 1.671 0.299 0.696 0.925 1.939 2.908 1.939 0.786 0 1.337-0.093 1.337-0.093s0.015 1.775 0.015 2.465c0 0.796-1.093 1.021-1.093 1.403 0 0.152 0.362 0.166 0.653 0.166 0.574 0 1.77-0.471 1.77-1.298 0-0.658 0.011-2.868 0.011-3.254 0-0.845 0.461-1.113 0.461-1.113s0.057 4.512-0.11 5.117c-0.196 0.711-0.551 0.61-0.551 0.927 0 0.472 1.439 0.116 1.916-0.92 0.369-0.806 0.208-5.232 0.208-5.232l0.393-0.008s0.022 2.026 0.009 2.952c-0.014 0.959-0.08 2.173 0.5 2.745 0.38 0.375 1.615 1.035 1.615 0.432 0-0.35-0.676-0.638-0.676-1.587v-4.364c0.539 0 0.458 1.435 0.458 1.435l0.04 2.666s-0.119 0.972 1.069 1.379c0.419 0.144 1.316 0.183 1.359-0.059 0.042-0.243-1.081-0.603-1.091-1.356-0.006-0.458 0.021-0.726 0.021-2.72s-0.273-2.732-1.222-3.319c2.93-0.296 4.744-1.009 5.628-2.917 0.069 0.003 0.36-0.891 0.322-0.891 0.198-0.72 0.305-1.572 0.327-2.581-0.005-2.736-1.338-3.704-1.594-4.159 0.377-2.071-0.063-3.014-0.268-3.3375-0.755-0.264-2.627 0.6785-3.649 1.3435-1.668-0.479-5.192-0.433-6.513 0.124-2.439-1.7161-3.728-1.4533-3.728-1.4533s-0.834 1.4683-0.221 3.6173c-0.802 1.005-1.4 1.716-1.4 3.601 0 1.061 0.127 2.012 0.414 2.842z" fill="#1EAB89"/>
</svg>
