<?xml version="1.0" encoding="UTF-8"?>
<svg width="645px" height="405px" viewBox="0 0 645 405" version="1.1" xmlns="http://www.w3.org/2000/svg" xmlns:xlink="http://www.w3.org/1999/xlink">
    <!-- Generator: Sketch 51.2 (57519) - http://www.bohemiancoding.com/sketch -->
    <title>Graph 2: MCR</title>
    <desc>Created with Sketch.</desc>
    <defs>
        <rect id="path-1" x="8.64785992" y="0" width="617.70428" height="377.626459" rx="5"></rect>
        <filter x="-3.6%" y="-5.3%" width="108.1%" height="113.2%" filterUnits="objectBoundingBox" id="filter-2">
            <feOffset dx="2" dy="4" in="SourceAlpha" result="shadowOffsetOuter1"></feOffset>
            <feGaussianBlur stdDeviation="7" in="shadowOffsetOuter1" result="shadowBlurOuter1"></feGaussianBlur>
            <feColorMatrix values="0 0 0 0 0.792156863   0 0 0 0 0.823529412   0 0 0 0 0.878431373  0 0 0 0.7 0" type="matrix" in="shadowBlurOuter1" result="shadowMatrixOuter1"></feColorMatrix>
            <feOffset dx="1" dy="1" in="SourceAlpha" result="shadowOffsetOuter2"></feOffset>
            <feGaussianBlur stdDeviation="1" in="shadowOffsetOuter2" result="shadowBlurOuter2"></feGaussianBlur>
            <feColorMatrix values="0 0 0 0 0.784313725   0 0 0 0 0.823529412   0 0 0 0 0.882352941  0 0 0 1 0" type="matrix" in="shadowBlurOuter2" result="shadowMatrixOuter2"></feColorMatrix>
            <feMerge>
                <feMergeNode in="shadowMatrixOuter1"></feMergeNode>
                <feMergeNode in="shadowMatrixOuter2"></feMergeNode>
            </feMerge>
        </filter>
        <linearGradient x1="0%" y1="100%" x2="100%" y2="100%" id="linearGradient-3">
            <stop stop-color="#1EAB89" stop-opacity="0" offset="0%"></stop>
            <stop stop-color="#1EAB89" stop-opacity="0.2" offset="100%"></stop>
        </linearGradient>
        <rect id="path-4" x="228.5324" y="282.272673" width="14.8249027" height="14.8249027"></rect>
        <filter x="-283.3%" y="-269.8%" width="734.1%" height="734.1%" filterUnits="objectBoundingBox" id="filter-5">
            <feOffset dx="4" dy="6" in="SourceAlpha" result="shadowOffsetOuter1"></feOffset>
            <feGaussianBlur stdDeviation="14" in="shadowOffsetOuter1" result="shadowBlurOuter1"></feGaussianBlur>
            <feColorMatrix values="0 0 0 0 0   0 0 0 0 0   0 0 0 0 0  0 0 0 0.5 0" type="matrix" in="shadowBlurOuter1" result="shadowMatrixOuter1"></feColorMatrix>
            <feOffset dx="1" dy="1" in="SourceAlpha" result="shadowOffsetOuter2"></feOffset>
            <feGaussianBlur stdDeviation="1" in="shadowOffsetOuter2" result="shadowBlurOuter2"></feGaussianBlur>
            <feColorMatrix values="0 0 0 0 0   0 0 0 0 0   0 0 0 0 0  0 0 0 0.5 0" type="matrix" in="shadowBlurOuter2" result="shadowMatrixOuter2"></feColorMatrix>
            <feMerge>
                <feMergeNode in="shadowMatrixOuter1"></feMergeNode>
                <feMergeNode in="shadowMatrixOuter2"></feMergeNode>
            </feMerge>
        </filter>
        <circle id="path-6" cx="8.64785992" cy="297.733463" r="8.64785992"></circle>
        <filter x="-14.5%" y="-14.5%" width="140.5%" height="140.5%" filterUnits="objectBoundingBox" id="filter-7">
            <feOffset dx="1" dy="1" in="SourceAlpha" result="shadowOffsetOuter1"></feOffset>
            <feGaussianBlur stdDeviation="1" in="shadowOffsetOuter1" result="shadowBlurOuter1"></feGaussianBlur>
            <feColorMatrix values="0 0 0 0 0   0 0 0 0 0   0 0 0 0 0  0 0 0 0.5 0" type="matrix" in="shadowBlurOuter1"></feColorMatrix>
        </filter>
        <circle id="path-8" cx="626.35214" cy="8.64785992" r="8.64785992"></circle>
        <filter x="-14.5%" y="-14.5%" width="140.5%" height="140.5%" filterUnits="objectBoundingBox" id="filter-9">
            <feOffset dx="1" dy="1" in="SourceAlpha" result="shadowOffsetOuter1"></feOffset>
            <feGaussianBlur stdDeviation="1" in="shadowOffsetOuter1" result="shadowBlurOuter1"></feGaussianBlur>
            <feColorMatrix values="0 0 0 0 0   0 0 0 0 0   0 0 0 0 0  0 0 0 0.5 0" type="matrix" in="shadowBlurOuter1"></feColorMatrix>
        </filter>
    </defs>
    <g id="Page-2" stroke="none" stroke-width="1" fill="none" fill-rule="evenodd">
        <g id="Token-Model-Page---Outline-Text-for-svg-output" transform="translate(-637.000000, -2264.000000)">
            <g id="Graph-2:-MCR" transform="translate(640.000000, 2274.000000)">
                <g id="Rectangle">
                    <use fill="black" fill-opacity="1" filter="url(#filter-2)" xlink:href="#path-1"></use>
                    <use fill="#FFFFFF" fill-rule="evenodd" xlink:href="#path-1"></use>
                </g>
                <path d="M9.2655642,314.002918 L626.969844,314.002918" id="Line-Copy-4" stroke="#E5E5E5" stroke-width="0.61770428" stroke-linecap="square"></path>
                <path d="M9.2655642,250.997082 L626.969844,250.997082" id="Line-Copy-3" stroke="#E5E5E5" stroke-width="0.61770428" stroke-linecap="square"></path>
                <path d="M9.2655642,187.991245 L626.969844,187.991245" id="Line-Copy-2" stroke="#E5E5E5" stroke-width="0.61770428" stroke-linecap="square"></path>
                <path d="M8.33900778,124.985409 L626.969844,124.985409" id="Line-Copy" stroke="#E5E5E5" stroke-width="0.61770428" stroke-linecap="square"></path>
                <path d="M8.33900778,61.979572 L626.969844,61.979572" id="Line" stroke="#E5E5E5" stroke-width="0.61770428" stroke-linecap="square"></path>
                <rect id="Rectangle-8" fill="#FFFFFF" x="153" y="278" width="178" height="67"></rect>
                <g id="Group-2" transform="translate(0.000000, 49.007782)">
                    <g id="Group" transform="translate(8.647860, 0.617704)">
                        <path d="M0.61770428,298.042315 C87.3741345,296.520922 148.938661,294.667809 185.311284,292.482977 C237.906846,289.323664 285.070455,286.478969 323.677043,279.202335 C511.459144,239.875162 609.262322,150.925746 617.086576,12.3540856 L618.302338,322.981403 C618.313146,325.742806 616.083349,327.990127 613.321946,328.000934 C613.315423,328.00096 613.3089,328.000973 613.302377,328.000973 L5.61770428,328.000973 C2.85628053,328.000973 0.61770428,325.762397 0.61770428,323.000973 L0.61770428,298.042315 Z" id="Path-2" fill="url(#linearGradient-3)"></path>
                        <path d="M1.59872116e-14,295.825356 L236.580739,289.394455 C481.191634,266.9512 607.61511,170.612978 615.851167,0.379789375 L617.70428,0.379789375 L617.70428,24.4053958 C597.85472,182.515693 470.813539,271.771938 236.580739,292.174125 L2.84217094e-14,299.210866 L1.62723739e-14,295.825356 Z" id="Combined-Shape" fill="#1EAB89"></path>
                        <g id="Rectangle-2" transform="translate(235.944852, 289.685124) rotate(-315.000000) translate(-235.944852, -289.685124) ">
                            <use fill="black" fill-opacity="1" filter="url(#filter-5)" xlink:href="#path-4"></use>
                            <use fill="#1EAB89" fill-rule="evenodd" xlink:href="#path-4"></use>
                        </g>
                        <rect id="Rectangle-2" fill="#58CD9E" transform="translate(235.949397, 289.689670) rotate(-315.000000) translate(-235.949397, -289.689670) " x="232.027995" y="285.768267" width="7.8428054" height="7.8428054"></rect>
                    </g>
                    <g id="Oval">
                        <use fill="black" fill-opacity="1" filter="url(#filter-7)" xlink:href="#path-6"></use>
                        <use fill="#1EAB89" fill-rule="evenodd" xlink:href="#path-6"></use>
                    </g>
                    <g id="Oval">
                        <use fill="black" fill-opacity="1" filter="url(#filter-9)" xlink:href="#path-8"></use>
                        <use fill="#1EAB89" fill-rule="evenodd" xlink:href="#path-8"></use>
                    </g>
                    <circle id="Oval-2" fill="#58CD9E" cx="8.64785992" cy="297.733463" r="4.94163424"></circle>
                    <path d="M626.841479,4.67297479 L630.550827,10.0309226 C630.939198,10.5919021 630.79927,11.3615023 630.238291,11.7498728 C630.031684,11.8929082 629.786372,11.9695381 629.535084,11.9695381 L623.13213,11.9695381 C622.449833,11.9695381 621.896722,11.4164268 621.896722,10.7341295 C621.896722,10.4828419 621.973352,10.2375293 622.116387,10.0309226 L625.825735,4.67297479 C626.019921,4.39248503 626.404721,4.32252138 626.685211,4.51670659 C626.74627,4.55897868 626.799207,4.61191511 626.841479,4.67297479 Z" id="Triangle" fill="#58CD9E" transform="translate(626.333607, 7.954460) rotate(3.000000) translate(-626.333607, -7.954460) "></path>
                </g>
                <path d="M187.061226,297.824 L187.103226,294.884 L186.991226,294.884 L185.031226,299.91 L183.071226,294.884 L182.959226,294.884 L183.001226,297.824 L183.001226,302.5 L181.615226,302.5 L181.615226,292.728 L183.533226,292.728 L185.031226,296.606 L185.129226,296.606 L186.641226,292.728 L188.447226,292.728 L188.447226,302.5 L187.061226,302.5 L187.061226,297.824 Z M193.879226,293.96 C193.487224,293.96 193.214226,293.880667 193.060226,293.722 C192.906225,293.563333 192.829226,293.367334 192.829226,293.134 L192.829226,292.84 C192.829226,292.606666 192.906225,292.410667 193.060226,292.252 C193.214226,292.093333 193.482557,292.014 193.865226,292.014 C194.257228,292.014 194.530225,292.093333 194.684226,292.252 C194.838226,292.410667 194.915226,292.606666 194.915226,292.84 L194.915226,293.134 C194.915226,293.367334 194.838226,293.563333 194.684226,293.722 C194.530225,293.880667 194.261894,293.96 193.879226,293.96 Z M190.645226,301.268 L193.109226,301.268 L193.109226,296.508 L190.645226,296.508 L190.645226,295.276 L194.635226,295.276 L194.635226,301.268 L196.945226,301.268 L196.945226,302.5 L190.645226,302.5 L190.645226,301.268 Z M198.807226,302.5 L198.807226,295.276 L200.333226,295.276 L200.333226,296.508 L200.403226,296.508 C200.477893,296.321332 200.573558,296.141668 200.690226,295.969 C200.806893,295.796332 200.949225,295.647001 201.117226,295.521 C201.285227,295.394999 201.481225,295.294667 201.705226,295.22 C201.929227,295.145333 202.190558,295.108 202.489226,295.108 C203.217229,295.108 203.805223,295.345998 204.253226,295.822 C204.701228,296.298002 204.925226,296.974662 204.925226,297.852 L204.925226,302.5 L203.399226,302.5 L203.399226,298.076 C203.399226,296.927994 202.899897,296.354 201.901226,296.354 C201.705225,296.354 201.513893,296.379666 201.327226,296.431 C201.140558,296.482334 200.97256,296.559333 200.823226,296.662 C200.673892,296.764667 200.554893,296.895333 200.466226,297.054 C200.377559,297.212667 200.333226,297.394666 200.333226,297.6 L200.333226,302.5 L198.807226,302.5 Z M210.679226,293.96 C210.287224,293.96 210.014226,293.880667 209.860226,293.722 C209.706225,293.563333 209.629226,293.367334 209.629226,293.134 L209.629226,292.84 C209.629226,292.606666 209.706225,292.410667 209.860226,292.252 C210.014226,292.093333 210.282557,292.014 210.665226,292.014 C211.057228,292.014 211.330225,292.093333 211.484226,292.252 C211.638226,292.410667 211.715226,292.606666 211.715226,292.84 L211.715226,293.134 C211.715226,293.367334 211.638226,293.563333 211.484226,293.722 C211.330225,293.880667 211.061894,293.96 210.679226,293.96 Z M207.445226,301.268 L209.909226,301.268 L209.909226,296.508 L207.445226,296.508 L207.445226,295.276 L211.435226,295.276 L211.435226,301.268 L213.745226,301.268 L213.745226,302.5 L207.445226,302.5 L207.445226,301.268 Z M215.047226,302.5 L215.047226,295.276 L216.349226,295.276 L216.349226,296.214 L216.419226,296.214 C216.531226,295.905998 216.692225,295.644668 216.902226,295.43 C217.112227,295.215332 217.413224,295.108 217.805226,295.108 C218.187894,295.108 218.484225,295.212999 218.694226,295.423 C218.904227,295.633001 219.037225,295.919998 219.093226,296.284 L219.149226,296.284 C219.279893,295.957332 219.461891,295.679668 219.695226,295.451 C219.92856,295.222332 220.264557,295.108 220.703226,295.108 C221.263228,295.108 221.652891,295.303998 221.872226,295.696 C222.09156,296.088002 222.201226,296.661996 222.201226,297.418 L222.201226,302.5 L220.899226,302.5 L220.899226,297.614 C220.899226,297.109997 220.83856,296.762334 220.717226,296.571 C220.595892,296.379666 220.399894,296.284 220.129226,296.284 C219.886558,296.284 219.68356,296.365666 219.520226,296.529 C219.356892,296.692334 219.275226,296.937332 219.275226,297.264 L219.275226,302.5 L217.973226,302.5 L217.973226,297.614 C217.973226,297.109997 217.914893,296.762334 217.798226,296.571 C217.681558,296.379666 217.487894,296.284 217.217226,296.284 C216.965224,296.284 216.75756,296.365666 216.594226,296.529 C216.430892,296.692334 216.349226,296.937332 216.349226,297.264 L216.349226,302.5 L215.047226,302.5 Z M228.529226,301.268 L228.459226,301.268 C228.384559,301.454668 228.288893,301.634332 228.172226,301.807 C228.055558,301.979668 227.913227,302.128999 227.745226,302.255 C227.577225,302.381001 227.381227,302.481333 227.157226,302.556 C226.933225,302.630667 226.671894,302.668 226.373226,302.668 C225.645222,302.668 225.057228,302.430002 224.609226,301.954 C224.161223,301.477998 223.937226,300.801338 223.937226,299.924 L223.937226,295.276 L225.463226,295.276 L225.463226,299.7 C225.463226,300.848006 225.962554,301.422 226.961226,301.422 C227.157227,301.422 227.348558,301.396334 227.535226,301.345 C227.721893,301.293666 227.889892,301.216667 228.039226,301.114 C228.18856,301.011333 228.307559,300.883001 228.396226,300.729 C228.484893,300.574999 228.529226,300.390668 228.529226,300.176 L228.529226,295.276 L230.055226,295.276 L230.055226,302.5 L228.529226,302.5 L228.529226,301.268 Z M231.847226,302.5 L231.847226,295.276 L233.149226,295.276 L233.149226,296.214 L233.219226,296.214 C233.331226,295.905998 233.492225,295.644668 233.702226,295.43 C233.912227,295.215332 234.213224,295.108 234.605226,295.108 C234.987894,295.108 235.284225,295.212999 235.494226,295.423 C235.704227,295.633001 235.837225,295.919998 235.893226,296.284 L235.949226,296.284 C236.079893,295.957332 236.261891,295.679668 236.495226,295.451 C236.72856,295.222332 237.064557,295.108 237.503226,295.108 C238.063228,295.108 238.452891,295.303998 238.672226,295.696 C238.89156,296.088002 239.001226,296.661996 239.001226,297.418 L239.001226,302.5 L237.699226,302.5 L237.699226,297.614 C237.699226,297.109997 237.63856,296.762334 237.517226,296.571 C237.395892,296.379666 237.199894,296.284 236.929226,296.284 C236.686558,296.284 236.48356,296.365666 236.320226,296.529 C236.156892,296.692334 236.075226,296.937332 236.075226,297.264 L236.075226,302.5 L234.773226,302.5 L234.773226,297.614 C234.773226,297.109997 234.714893,296.762334 234.598226,296.571 C234.481558,296.379666 234.287894,296.284 234.017226,296.284 C233.765224,296.284 233.55756,296.365666 233.394226,296.529 C233.230892,296.692334 233.149226,296.937332 233.149226,297.264 L233.149226,302.5 L231.847226,302.5 Z M252.511226,302.668 C251.269886,302.668 250.348229,302.229338 249.746226,301.352 C249.144223,300.474662 248.843226,299.228675 248.843226,297.614 C248.843226,295.999325 249.144223,294.753338 249.746226,293.876 C250.348229,292.998662 251.269886,292.56 252.511226,292.56 C252.987228,292.56 253.400224,292.622999 253.750226,292.749 C254.100227,292.875001 254.401224,293.047666 254.653226,293.267 C254.905227,293.486334 255.117558,293.742999 255.290226,294.037 C255.462893,294.331001 255.605225,294.645998 255.717226,294.982 L254.303226,295.458 C254.228559,295.233999 254.144559,295.024001 254.051226,294.828 C253.957892,294.631999 253.841226,294.464001 253.701226,294.324 C253.561225,294.183999 253.39556,294.072 253.204226,293.988 C253.012891,293.904 252.777227,293.862 252.497226,293.862 C251.806556,293.862 251.302561,294.125664 250.985226,294.653 C250.667891,295.180336 250.509226,295.891996 250.509226,296.788 L250.509226,298.44 C250.509226,299.336004 250.667891,300.047664 250.985226,300.575 C251.302561,301.102336 251.806556,301.366 252.497226,301.366 C252.777227,301.366 253.012891,301.324 253.204226,301.24 C253.39556,301.156 253.561225,301.044001 253.701226,300.904 C253.841226,300.763999 253.957892,300.596001 254.051226,300.4 C254.144559,300.203999 254.228559,299.994001 254.303226,299.77 L255.717226,300.246 C255.605225,300.582002 255.462893,300.896999 255.290226,301.191 C255.117558,301.485001 254.905227,301.741666 254.653226,301.961 C254.401224,302.180334 254.100227,302.352999 253.750226,302.479 C253.400224,302.605001 252.987228,302.668 252.511226,302.668 Z M263.319226,302.5 C262.880557,302.5 262.55156,302.388001 262.332226,302.164 C262.112891,301.939999 261.979893,301.646002 261.933226,301.282 L261.863226,301.282 C261.723225,301.720669 261.468894,302.061332 261.100226,302.304 C260.731557,302.546668 260.262562,302.668 259.693226,302.668 C258.955889,302.668 258.367895,302.474335 257.929226,302.087 C257.490557,301.699665 257.271226,301.165337 257.271226,300.484 C257.271226,299.783997 257.530223,299.249669 258.048226,298.881 C258.566228,298.512331 259.361887,298.328 260.435226,298.328 L261.821226,298.328 L261.821226,297.768 C261.821226,296.787995 261.303231,296.298 260.267226,296.298 C259.800557,296.298 259.42256,296.388999 259.133226,296.571 C258.843891,296.753001 258.601227,296.993332 258.405226,297.292 L257.495226,296.55 C257.70056,296.157998 258.04589,295.819668 258.531226,295.535 C259.016561,295.250332 259.641889,295.108 260.407226,295.108 C261.321897,295.108 262.040556,295.327331 262.563226,295.766 C263.085895,296.204669 263.347226,296.839329 263.347226,297.67 L263.347226,301.296 L264.257226,301.296 L264.257226,302.5 L263.319226,302.5 Z M260.127226,301.548 C260.621895,301.548 261.027891,301.436001 261.345226,301.212 C261.662561,300.987999 261.821226,300.698668 261.821226,300.344 L261.821226,299.294 L260.463226,299.294 C259.361887,299.294 258.811226,299.62533 258.811226,300.288 L258.811226,300.568 C258.811226,300.894668 258.927891,301.139666 259.161226,301.303 C259.39456,301.466334 259.716557,301.548 260.127226,301.548 Z M265.937226,295.276 L267.463226,295.276 L267.463226,296.508 L267.547226,296.508 C267.761893,296.069331 268.046557,295.726335 268.401226,295.479 C268.755894,295.231665 269.199223,295.108 269.731226,295.108 C270.580563,295.108 271.257223,295.42533 271.761226,296.06 C272.265228,296.69467 272.517226,297.637327 272.517226,298.888 C272.517226,300.138673 272.265228,301.08133 271.761226,301.716 C271.257223,302.35067 270.580563,302.668 269.731226,302.668 C269.199223,302.668 268.755894,302.544335 268.401226,302.297 C268.046557,302.049665 267.761893,301.706669 267.547226,301.268 L267.463226,301.268 L267.463226,305.3 L265.937226,305.3 L265.937226,295.276 Z M269.101226,301.422 C269.679895,301.422 270.125557,301.244668 270.438226,300.89 C270.750894,300.535332 270.907226,300.064003 270.907226,299.476 L270.907226,298.3 C270.907226,297.711997 270.750894,297.240668 270.438226,296.886 C270.125557,296.531332 269.679895,296.354 269.101226,296.354 C268.877225,296.354 268.667227,296.382 268.471226,296.438 C268.275225,296.494 268.10256,296.577999 267.953226,296.69 C267.803892,296.802001 267.684893,296.939666 267.596226,297.103 C267.507559,297.266334 267.463226,297.459999 267.463226,297.684 L267.463226,300.092 C267.463226,300.316001 267.507559,300.509666 267.596226,300.673 C267.684893,300.836334 267.803892,300.973999 267.953226,301.086 C268.10256,301.198001 268.275225,301.282 268.471226,301.338 C268.667227,301.394 268.877225,301.422 269.101226,301.422 Z M277.879226,293.96 C277.487224,293.96 277.214226,293.880667 277.060226,293.722 C276.906225,293.563333 276.829226,293.367334 276.829226,293.134 L276.829226,292.84 C276.829226,292.606666 276.906225,292.410667 277.060226,292.252 C277.214226,292.093333 277.482557,292.014 277.865226,292.014 C278.257228,292.014 278.530225,292.093333 278.684226,292.252 C278.838226,292.410667 278.915226,292.606666 278.915226,292.84 L278.915226,293.134 C278.915226,293.367334 278.838226,293.563333 278.684226,293.722 C278.530225,293.880667 278.261894,293.96 277.879226,293.96 Z M274.645226,301.268 L277.109226,301.268 L277.109226,296.508 L274.645226,296.508 L274.645226,295.276 L278.635226,295.276 L278.635226,301.268 L280.945226,301.268 L280.945226,302.5 L274.645226,302.5 L274.645226,301.268 Z M286.265226,302.5 C285.630556,302.5 285.163894,302.329668 284.865226,301.989 C284.566558,301.648332 284.417226,301.207336 284.417226,300.666 L284.417226,296.508 L282.191226,296.508 L282.191226,295.276 L283.773226,295.276 C284.043894,295.276 284.235225,295.222334 284.347226,295.115 C284.459226,295.007666 284.515226,294.814001 284.515226,294.534 L284.515226,292.728 L285.943226,292.728 L285.943226,295.276 L289.023226,295.276 L289.023226,296.508 L285.943226,296.508 L285.943226,301.268 L289.023226,301.268 L289.023226,302.5 L286.265226,302.5 Z M296.919226,302.5 C296.480557,302.5 296.15156,302.388001 295.932226,302.164 C295.712891,301.939999 295.579893,301.646002 295.533226,301.282 L295.463226,301.282 C295.323225,301.720669 295.068894,302.061332 294.700226,302.304 C294.331557,302.546668 293.862562,302.668 293.293226,302.668 C292.555889,302.668 291.967895,302.474335 291.529226,302.087 C291.090557,301.699665 290.871226,301.165337 290.871226,300.484 C290.871226,299.783997 291.130223,299.249669 291.648226,298.881 C292.166228,298.512331 292.961887,298.328 294.035226,298.328 L295.421226,298.328 L295.421226,297.768 C295.421226,296.787995 294.903231,296.298 293.867226,296.298 C293.400557,296.298 293.02256,296.388999 292.733226,296.571 C292.443891,296.753001 292.201227,296.993332 292.005226,297.292 L291.095226,296.55 C291.30056,296.157998 291.64589,295.819668 292.131226,295.535 C292.616561,295.250332 293.241889,295.108 294.007226,295.108 C294.921897,295.108 295.640556,295.327331 296.163226,295.766 C296.685895,296.204669 296.947226,296.839329 296.947226,297.67 L296.947226,301.296 L297.857226,301.296 L297.857226,302.5 L296.919226,302.5 Z M293.727226,301.548 C294.221895,301.548 294.627891,301.436001 294.945226,301.212 C295.262561,300.987999 295.421226,300.698668 295.421226,300.344 L295.421226,299.294 L294.063226,299.294 C292.961887,299.294 292.411226,299.62533 292.411226,300.288 L292.411226,300.568 C292.411226,300.894668 292.527891,301.139666 292.761226,301.303 C292.99456,301.466334 293.316557,301.548 293.727226,301.548 Z M299.481226,301.268 L301.875226,301.268 L301.875226,293.372 L299.481226,293.372 L299.481226,292.14 L303.401226,292.14 L303.401226,301.268 L305.795226,301.268 L305.795226,302.5 L299.481226,302.5 L299.481226,301.268 Z M175.161226,320.5 L173.607226,320.5 L173.607226,310.728 L177.261226,310.728 C178.194564,310.728 178.906223,310.989331 179.396226,311.512 C179.886228,312.034669 180.131226,312.753329 180.131226,313.668 C180.131226,314.41467 179.949228,315.030664 179.585226,315.516 C179.221224,316.001336 178.698562,316.299999 178.017226,316.412 L180.271226,320.5 L178.535226,320.5 L176.463226,316.552 L175.161226,316.552 L175.161226,320.5 Z M177.037226,315.292 C178.007897,315.292 178.493226,314.848671 178.493226,313.962 L178.493226,313.36 C178.493226,312.473329 178.007897,312.03 177.037226,312.03 L175.161226,312.03 L175.161226,315.292 L177.037226,315.292 Z M185.185226,320.668 C184.634556,320.668 184.139895,320.579334 183.701226,320.402 C183.262557,320.224666 182.893894,319.972668 182.595226,319.646 C182.296558,319.319332 182.067893,318.925002 181.909226,318.463 C181.750558,318.000998 181.671226,317.48067 181.671226,316.902 C181.671226,316.32333 181.752892,315.800669 181.916226,315.334 C182.07956,314.867331 182.308224,314.468335 182.602226,314.137 C182.896227,313.805665 183.253224,313.551334 183.673226,313.374 C184.093228,313.196666 184.55989,313.108 185.073226,313.108 C185.577228,313.108 186.034557,313.194332 186.445226,313.367 C186.855894,313.539668 187.205891,313.784665 187.495226,314.102 C187.78456,314.419335 188.006225,314.797331 188.160226,315.236 C188.314226,315.674669 188.391226,316.159997 188.391226,316.692 L188.391226,317.266 L183.211226,317.266 L183.211226,317.504 C183.211226,318.073336 183.388557,318.537665 183.743226,318.897 C184.097894,319.256335 184.587889,319.436 185.213226,319.436 C185.679895,319.436 186.078891,319.335668 186.410226,319.135 C186.741561,318.934332 187.009891,318.666002 187.215226,318.33 L188.167226,319.17 C187.924558,319.590002 187.553562,319.944665 187.054226,320.234 C186.55489,320.523335 185.931896,320.668 185.185226,320.668 Z M185.073226,314.27 C184.802558,314.27 184.552893,314.316666 184.324226,314.41 C184.095558,314.503334 183.89956,314.636332 183.736226,314.809 C183.572892,314.981668 183.444559,315.184665 183.351226,315.418 C183.257892,315.651335 183.211226,315.907999 183.211226,316.188 L183.211226,316.286 L186.837226,316.286 L186.837226,316.146 C186.837226,315.576664 186.676227,315.121668 186.354226,314.781 C186.032224,314.440332 185.605228,314.27 185.073226,314.27 Z M194.999226,319.268 L194.915226,319.268 C194.700558,319.706669 194.415894,320.049665 194.061226,320.297 C193.706557,320.544335 193.263228,320.668 192.731226,320.668 C191.881888,320.668 191.205228,320.35067 190.701226,319.716 C190.197223,319.08133 189.945226,318.138673 189.945226,316.888 C189.945226,315.637327 190.197223,314.69467 190.701226,314.06 C191.205228,313.42533 191.881888,313.108 192.731226,313.108 C193.263228,313.108 193.706557,313.231665 194.061226,313.479 C194.415894,313.726335 194.700558,314.069331 194.915226,314.508 L194.999226,314.508 L194.999226,313.276 L196.525226,313.276 L196.525226,323.3 L194.999226,323.3 L194.999226,319.268 Z M193.361226,319.422 C193.585227,319.422 193.795225,319.394 193.991226,319.338 C194.187227,319.282 194.359892,319.198001 194.509226,319.086 C194.65856,318.973999 194.777559,318.836334 194.866226,318.673 C194.954893,318.509666 194.999226,318.316001 194.999226,318.092 L194.999226,315.684 C194.999226,315.459999 194.954893,315.266334 194.866226,315.103 C194.777559,314.939666 194.65856,314.802001 194.509226,314.69 C194.359892,314.577999 194.187227,314.494 193.991226,314.438 C193.795225,314.382 193.585227,314.354 193.361226,314.354 C192.782556,314.354 192.336894,314.531332 192.024226,314.886 C191.711557,315.240668 191.555226,315.711997 191.555226,316.3 L191.555226,317.476 C191.555226,318.064003 191.711557,318.535332 192.024226,318.89 C192.336894,319.244668 192.782556,319.422 193.361226,319.422 Z M203.329226,319.268 L203.259226,319.268 C203.184559,319.454668 203.088893,319.634332 202.972226,319.807 C202.855558,319.979668 202.713227,320.128999 202.545226,320.255 C202.377225,320.381001 202.181227,320.481333 201.957226,320.556 C201.733225,320.630667 201.471894,320.668 201.173226,320.668 C200.445222,320.668 199.857228,320.430002 199.409226,319.954 C198.961223,319.477998 198.737226,318.801338 198.737226,317.924 L198.737226,313.276 L200.263226,313.276 L200.263226,317.7 C200.263226,318.848006 200.762554,319.422 201.761226,319.422 C201.957227,319.422 202.148558,319.396334 202.335226,319.345 C202.521893,319.293666 202.689892,319.216667 202.839226,319.114 C202.98856,319.011333 203.107559,318.883001 203.196226,318.729 C203.284893,318.574999 203.329226,318.390668 203.329226,318.176 L203.329226,313.276 L204.855226,313.276 L204.855226,320.5 L203.329226,320.5 L203.329226,319.268 Z M210.679226,311.96 C210.287224,311.96 210.014226,311.880667 209.860226,311.722 C209.706225,311.563333 209.629226,311.367334 209.629226,311.134 L209.629226,310.84 C209.629226,310.606666 209.706225,310.410667 209.860226,310.252 C210.014226,310.093333 210.282557,310.014 210.665226,310.014 C211.057228,310.014 211.330225,310.093333 211.484226,310.252 C211.638226,310.410667 211.715226,310.606666 211.715226,310.84 L211.715226,311.134 C211.715226,311.367334 211.638226,311.563333 211.484226,311.722 C211.330225,311.880667 211.061894,311.96 210.679226,311.96 Z M207.445226,319.268 L209.909226,319.268 L209.909226,314.508 L207.445226,314.508 L207.445226,313.276 L211.435226,313.276 L211.435226,319.268 L213.745226,319.268 L213.745226,320.5 L207.445226,320.5 L207.445226,319.268 Z M215.495226,319.268 L217.413226,319.268 L217.413226,314.508 L215.495226,314.508 L215.495226,313.276 L218.939226,313.276 L218.939226,315.194 L219.023226,315.194 C219.088559,314.941999 219.181892,314.699335 219.303226,314.466 C219.42456,314.232665 219.578558,314.029668 219.765226,313.857 C219.951893,313.684332 220.180558,313.544334 220.451226,313.437 C220.721894,313.329666 221.039224,313.276 221.403226,313.276 L222.271226,313.276 L222.271226,314.732 L220.843226,314.732 C220.283223,314.732 219.825894,314.897665 219.471226,315.229 C219.116557,315.560335 218.939226,316.005997 218.939226,316.566 L218.939226,319.268 L221.557226,319.268 L221.557226,320.5 L215.495226,320.5 L215.495226,319.268 Z M227.185226,320.668 C226.634556,320.668 226.139895,320.579334 225.701226,320.402 C225.262557,320.224666 224.893894,319.972668 224.595226,319.646 C224.296558,319.319332 224.067893,318.925002 223.909226,318.463 C223.750558,318.000998 223.671226,317.48067 223.671226,316.902 C223.671226,316.32333 223.752892,315.800669 223.916226,315.334 C224.07956,314.867331 224.308224,314.468335 224.602226,314.137 C224.896227,313.805665 225.253224,313.551334 225.673226,313.374 C226.093228,313.196666 226.55989,313.108 227.073226,313.108 C227.577228,313.108 228.034557,313.194332 228.445226,313.367 C228.855894,313.539668 229.205891,313.784665 229.495226,314.102 C229.78456,314.419335 230.006225,314.797331 230.160226,315.236 C230.314226,315.674669 230.391226,316.159997 230.391226,316.692 L230.391226,317.266 L225.211226,317.266 L225.211226,317.504 C225.211226,318.073336 225.388557,318.537665 225.743226,318.897 C226.097894,319.256335 226.587889,319.436 227.213226,319.436 C227.679895,319.436 228.078891,319.335668 228.410226,319.135 C228.741561,318.934332 229.009891,318.666002 229.215226,318.33 L230.167226,319.17 C229.924558,319.590002 229.553562,319.944665 229.054226,320.234 C228.55489,320.523335 227.931896,320.668 227.185226,320.668 Z M227.073226,314.27 C226.802558,314.27 226.552893,314.316666 226.324226,314.41 C226.095558,314.503334 225.89956,314.636332 225.736226,314.809 C225.572892,314.981668 225.444559,315.184665 225.351226,315.418 C225.257892,315.651335 225.211226,315.907999 225.211226,316.188 L225.211226,316.286 L228.837226,316.286 L228.837226,316.146 C228.837226,315.576664 228.676227,315.121668 228.354226,314.781 C228.032224,314.440332 227.605228,314.27 227.073226,314.27 Z M231.847226,320.5 L231.847226,313.276 L233.149226,313.276 L233.149226,314.214 L233.219226,314.214 C233.331226,313.905998 233.492225,313.644668 233.702226,313.43 C233.912227,313.215332 234.213224,313.108 234.605226,313.108 C234.987894,313.108 235.284225,313.212999 235.494226,313.423 C235.704227,313.633001 235.837225,313.919998 235.893226,314.284 L235.949226,314.284 C236.079893,313.957332 236.261891,313.679668 236.495226,313.451 C236.72856,313.222332 237.064557,313.108 237.503226,313.108 C238.063228,313.108 238.452891,313.303998 238.672226,313.696 C238.89156,314.088002 239.001226,314.661996 239.001226,315.418 L239.001226,320.5 L237.699226,320.5 L237.699226,315.614 C237.699226,315.109997 237.63856,314.762334 237.517226,314.571 C237.395892,314.379666 237.199894,314.284 236.929226,314.284 C236.686558,314.284 236.48356,314.365666 236.320226,314.529 C236.156892,314.692334 236.075226,314.937332 236.075226,315.264 L236.075226,320.5 L234.773226,320.5 L234.773226,315.614 C234.773226,315.109997 234.714893,314.762334 234.598226,314.571 C234.481558,314.379666 234.287894,314.284 234.017226,314.284 C233.765224,314.284 233.55756,314.365666 233.394226,314.529 C233.230892,314.692334 233.149226,314.937332 233.149226,315.264 L233.149226,320.5 L231.847226,320.5 Z M243.985226,320.668 C243.434556,320.668 242.939895,320.579334 242.501226,320.402 C242.062557,320.224666 241.693894,319.972668 241.395226,319.646 C241.096558,319.319332 240.867893,318.925002 240.709226,318.463 C240.550558,318.000998 240.471226,317.48067 240.471226,316.902 C240.471226,316.32333 240.552892,315.800669 240.716226,315.334 C240.87956,314.867331 241.108224,314.468335 241.402226,314.137 C241.696227,313.805665 242.053224,313.551334 242.473226,313.374 C242.893228,313.196666 243.35989,313.108 243.873226,313.108 C244.377228,313.108 244.834557,313.194332 245.245226,313.367 C245.655894,313.539668 246.005891,313.784665 246.295226,314.102 C246.58456,314.419335 246.806225,314.797331 246.960226,315.236 C247.114226,315.674669 247.191226,316.159997 247.191226,316.692 L247.191226,317.266 L242.011226,317.266 L242.011226,317.504 C242.011226,318.073336 242.188557,318.537665 242.543226,318.897 C242.897894,319.256335 243.387889,319.436 244.013226,319.436 C244.479895,319.436 244.878891,319.335668 245.210226,319.135 C245.541561,318.934332 245.809891,318.666002 246.015226,318.33 L246.967226,319.17 C246.724558,319.590002 246.353562,319.944665 245.854226,320.234 C245.35489,320.523335 244.731896,320.668 243.985226,320.668 Z M243.873226,314.27 C243.602558,314.27 243.352893,314.316666 243.124226,314.41 C242.895558,314.503334 242.69956,314.636332 242.536226,314.809 C242.372892,314.981668 242.244559,315.184665 242.151226,315.418 C242.057892,315.651335 242.011226,315.907999 242.011226,316.188 L242.011226,316.286 L245.637226,316.286 L245.637226,316.146 C245.637226,315.576664 245.476227,315.121668 245.154226,314.781 C244.832224,314.440332 244.405228,314.27 243.873226,314.27 Z M249.207226,320.5 L249.207226,313.276 L250.733226,313.276 L250.733226,314.508 L250.803226,314.508 C250.877893,314.321332 250.973558,314.141668 251.090226,313.969 C251.206893,313.796332 251.349225,313.647001 251.517226,313.521 C251.685227,313.394999 251.881225,313.294667 252.105226,313.22 C252.329227,313.145333 252.590558,313.108 252.889226,313.108 C253.617229,313.108 254.205223,313.345998 254.653226,313.822 C255.101228,314.298002 255.325226,314.974662 255.325226,315.852 L255.325226,320.5 L253.799226,320.5 L253.799226,316.076 C253.799226,314.927994 253.299897,314.354 252.301226,314.354 C252.105225,314.354 251.913893,314.379666 251.727226,314.431 C251.540558,314.482334 251.37256,314.559333 251.223226,314.662 C251.073892,314.764667 250.954893,314.895333 250.866226,315.054 C250.777559,315.212667 250.733226,315.394666 250.733226,315.6 L250.733226,320.5 L249.207226,320.5 Z M261.065226,320.5 C260.430556,320.5 259.963894,320.329668 259.665226,319.989 C259.366558,319.648332 259.217226,319.207336 259.217226,318.666 L259.217226,314.508 L256.991226,314.508 L256.991226,313.276 L258.573226,313.276 C258.843894,313.276 259.035225,313.222334 259.147226,313.115 C259.259226,313.007666 259.315226,312.814001 259.315226,312.534 L259.315226,310.728 L260.743226,310.728 L260.743226,313.276 L263.823226,313.276 L263.823226,314.508 L260.743226,314.508 L260.743226,319.268 L263.823226,319.268 L263.823226,320.5 L261.065226,320.5 Z M275.919226,316.146 C275.919226,315.464663 275.996225,314.809003 276.150226,314.179 C276.304226,313.548997 276.514224,312.963336 276.780226,312.422 C277.046227,311.880664 277.356557,311.393002 277.711226,310.959 C278.065894,310.524998 278.439224,310.158668 278.831226,309.86 L280.357226,309.86 C279.937224,310.158668 279.540561,310.508665 279.167226,310.91 C278.79389,311.311335 278.467227,311.754664 278.187226,312.24 C277.907224,312.725336 277.683227,313.240997 277.515226,313.787 C277.347225,314.333003 277.263226,314.904664 277.263226,315.502 L277.263226,316.79 C277.263226,317.387336 277.347225,317.958997 277.515226,318.505 C277.683227,319.051003 277.907224,319.566664 278.187226,320.052 C278.467227,320.537336 278.79389,320.980665 279.167226,321.382 C279.540561,321.783335 279.937224,322.133332 280.357226,322.432 L278.831226,322.432 C278.439224,322.142665 278.065894,321.778669 277.711226,321.34 C277.356557,320.901331 277.046227,320.411336 276.780226,319.87 C276.514224,319.328664 276.304226,318.743003 276.150226,318.113 C275.996225,317.482997 275.919226,316.827337 275.919226,316.146 Z M287.861226,315.824 L287.903226,312.884 L287.791226,312.884 L285.831226,317.91 L283.871226,312.884 L283.759226,312.884 L283.801226,315.824 L283.801226,320.5 L282.415226,320.5 L282.415226,310.728 L284.333226,310.728 L285.831226,314.606 L285.929226,314.606 L287.441226,310.728 L289.247226,310.728 L289.247226,320.5 L287.861226,320.5 L287.861226,315.824 Z M294.511226,320.668 C293.269886,320.668 292.348229,320.229338 291.746226,319.352 C291.144223,318.474662 290.843226,317.228675 290.843226,315.614 C290.843226,313.999325 291.144223,312.753338 291.746226,311.876 C292.348229,310.998662 293.269886,310.56 294.511226,310.56 C294.987228,310.56 295.400224,310.622999 295.750226,310.749 C296.100227,310.875001 296.401224,311.047666 296.653226,311.267 C296.905227,311.486334 297.117558,311.742999 297.290226,312.037 C297.462893,312.331001 297.605225,312.645998 297.717226,312.982 L296.303226,313.458 C296.228559,313.233999 296.144559,313.024001 296.051226,312.828 C295.957892,312.631999 295.841226,312.464001 295.701226,312.324 C295.561225,312.183999 295.39556,312.072 295.204226,311.988 C295.012891,311.904 294.777227,311.862 294.497226,311.862 C293.806556,311.862 293.302561,312.125664 292.985226,312.653 C292.667891,313.180336 292.509226,313.891996 292.509226,314.788 L292.509226,316.44 C292.509226,317.336004 292.667891,318.047664 292.985226,318.575 C293.302561,319.102336 293.806556,319.366 294.497226,319.366 C294.777227,319.366 295.012891,319.324 295.204226,319.24 C295.39556,319.156 295.561225,319.044001 295.701226,318.904 C295.841226,318.763999 295.957892,318.596001 296.051226,318.4 C296.144559,318.203999 296.228559,317.994001 296.303226,317.77 L297.717226,318.246 C297.605225,318.582002 297.462893,318.896999 297.290226,319.191 C297.117558,319.485001 296.905227,319.741666 296.653226,319.961 C296.401224,320.180334 296.100227,320.352999 295.750226,320.479 C295.400224,320.605001 294.987228,320.668 294.511226,320.668 Z M301.161226,320.5 L299.607226,320.5 L299.607226,310.728 L303.261226,310.728 C304.194564,310.728 304.906223,310.989331 305.396226,311.512 C305.886228,312.034669 306.131226,312.753329 306.131226,313.668 C306.131226,314.41467 305.949228,315.030664 305.585226,315.516 C305.221224,316.001336 304.698562,316.299999 304.017226,316.412 L306.271226,320.5 L304.535226,320.5 L302.463226,316.552 L301.161226,316.552 L301.161226,320.5 Z M303.037226,315.292 C304.007897,315.292 304.493226,314.848671 304.493226,313.962 L304.493226,313.36 C304.493226,312.473329 304.007897,312.03 303.037226,312.03 L301.161226,312.03 L301.161226,315.292 L303.037226,315.292 Z M312.543226,316.146 C312.543226,316.827337 312.466226,317.482997 312.312226,318.113 C312.158225,318.743003 311.948227,319.328664 311.682226,319.87 C311.416224,320.411336 311.105894,320.901331 310.751226,321.34 C310.396557,321.778669 310.023228,322.142665 309.631226,322.432 L308.105226,322.432 C308.525228,322.133332 308.92189,321.783335 309.295226,321.382 C309.668561,320.980665 309.995224,320.537336 310.275226,320.052 C310.555227,319.566664 310.779225,319.051003 310.947226,318.505 C311.115227,317.958997 311.199226,317.387336 311.199226,316.79 L311.199226,315.502 C311.199226,314.904664 311.115227,314.333003 310.947226,313.787 C310.779225,313.240997 310.555227,312.725336 310.275226,312.24 C309.995224,311.754664 309.668561,311.311335 309.295226,310.91 C308.92189,310.508665 308.525228,310.158668 308.105226,309.86 L309.631226,309.86 C310.023228,310.158668 310.396557,310.524998 310.751226,310.959 C311.105894,311.393002 311.416224,311.880664 311.682226,312.422 C311.948227,312.963336 312.158225,313.548997 312.312226,314.179 C312.466226,314.809003 312.543226,315.464663 312.543226,316.146 Z" id="Minimum-Capital-Requ" fill-opacity="0.6" fill="#1F2124"></path>
            </g>
        </g>
    </g>
</svg>