<?xml version="1.0" encoding="utf-8"?>
<!-- Generator: Adobe Illustrator 16.0.0, SVG Export Plug-In . SVG Version: 6.00 Build 0)  -->
<!DOCTYPE svg PUBLIC "-//W3C//DTD SVG 1.1//EN" "http://www.w3.org/Graphics/SVG/1.1/DTD/svg11.dtd">
<svg version="1.1" id="Layer_1" xmlns="http://www.w3.org/2000/svg" xmlns:xlink="http://www.w3.org/1999/xlink" x="0px" y="0px"
	 width="675px" height="482px" viewBox="0 0 675 482" enable-background="new 0 0 675 482" xml:space="preserve">
<filter  height="165.1%" width="165.1%" id="filter-8" filterUnits="objectBoundingBox" y="-23.2%" x="-23.2%">
	<feOffset  result="shadowOffsetOuter1" in="SourceAlpha" dy="1" dx="1"></feOffset>
	<feGaussianBlur  stdDeviation="1" result="shadowBlurOuter1" in="shadowOffsetOuter1"></feGaussianBlur>
	<feColorMatrix  type="matrix" values="0 0 0 0 0   0 0 0 0 0   0 0 0 0 0  0 0 0 0.5 0" in="shadowBlurOuter1"></feColorMatrix>
</filter>
<filter  height="165.1%" width="165.1%" id="filter-6" filterUnits="objectBoundingBox" y="-23.2%" x="-23.2%">
	<feOffset  result="shadowOffsetOuter1" in="SourceAlpha" dy="1" dx="1"></feOffset>
	<feGaussianBlur  stdDeviation="1" result="shadowBlurOuter1" in="shadowOffsetOuter1"></feGaussianBlur>
	<feColorMatrix  type="matrix" values="0 0 0 0 0   0 0 0 0 0   0 0 0 0 0  0 0 0 0.5 0" in="shadowBlurOuter1"></feColorMatrix>
</filter>
<filter  height="113.9%" width="108.6%" id="filter-2" filterUnits="objectBoundingBox" y="-5.7%" x="-3.5%">
	<feOffset  result="shadowOffsetOuter1" in="SourceAlpha" dy="2" dx="2"></feOffset>
	<feGaussianBlur  stdDeviation="4.5" result="shadowBlurOuter1" in="shadowOffsetOuter1"></feGaussianBlur>
	
		<feColorMatrix  type="matrix" values="0 0 0 0 0.792156863   0 0 0 0 0.823529412   0 0 0 0 0.878431373  0 0 0 0.7 0" result="shadowMatrixOuter1" in="shadowBlurOuter1">
		</feColorMatrix>
	<feOffset  result="shadowOffsetOuter2" in="SourceAlpha" dy="1" dx="1"></feOffset>
	<feGaussianBlur  stdDeviation="1" result="shadowBlurOuter2" in="shadowOffsetOuter2"></feGaussianBlur>
	
		<feColorMatrix  type="matrix" values="0 0 0 0 0.784313725   0 0 0 0 0.823529412   0 0 0 0 0.882352941  0 0 0 1 0" result="shadowMatrixOuter2" in="shadowBlurOuter2">
		</feColorMatrix>
	<feMerge>
		<feMergeNode  in="shadowMatrixOuter1"></feMergeNode>
		<feMergeNode  in="shadowMatrixOuter2"></feMergeNode>
	</feMerge>
</filter>
<filter  height="165.1%" width="165.1%" id="filter-17" filterUnits="objectBoundingBox" y="-23.2%" x="-23.2%">
	<feOffset  result="shadowOffsetOuter1" in="SourceAlpha" dy="1" dx="1"></feOffset>
	<feGaussianBlur  stdDeviation="1" result="shadowBlurOuter1" in="shadowOffsetOuter1"></feGaussianBlur>
	<feColorMatrix  type="matrix" values="0 0 0 0 0   0 0 0 0 0   0 0 0 0 0  0 0 0 0.5 0" in="shadowBlurOuter1"></feColorMatrix>
</filter>
<filter  height="165.1%" width="165.1%" id="filter-15" filterUnits="objectBoundingBox" y="-23.2%" x="-23.2%">
	<feOffset  result="shadowOffsetOuter1" in="SourceAlpha" dy="1" dx="1"></feOffset>
	<feGaussianBlur  stdDeviation="1" result="shadowBlurOuter1" in="shadowOffsetOuter1"></feGaussianBlur>
	<feColorMatrix  type="matrix" values="0 0 0 0 0   0 0 0 0 0   0 0 0 0 0  0 0 0 0.5 0" in="shadowBlurOuter1"></feColorMatrix>
</filter>
<filter  height="772.3%" width="772.3%" id="filter-13" filterUnits="objectBoundingBox" y="-281.9%" x="-303.6%">
	<feOffset  result="shadowOffsetOuter1" in="SourceAlpha" dy="4" dx="2"></feOffset>
	<feGaussianBlur  stdDeviation="9" result="shadowBlurOuter1" in="shadowOffsetOuter1"></feGaussianBlur>
	
		<feColorMatrix  type="matrix" values="0 0 0 0 0   0 0 0 0 0   0 0 0 0 0  0 0 0 0.315358922 0" result="shadowMatrixOuter1" in="shadowBlurOuter1">
		</feColorMatrix>
	<feOffset  result="shadowOffsetOuter2" in="SourceAlpha" dy="1" dx="1"></feOffset>
	<feGaussianBlur  stdDeviation="1" result="shadowBlurOuter2" in="shadowOffsetOuter2"></feGaussianBlur>
	
		<feColorMatrix  type="matrix" values="0 0 0 0 0   0 0 0 0 0   0 0 0 0 0  0 0 0 0.165506114 0" result="shadowMatrixOuter2" in="shadowBlurOuter2">
		</feColorMatrix>
	<feMerge>
		<feMergeNode  in="shadowMatrixOuter1"></feMergeNode>
		<feMergeNode  in="shadowMatrixOuter2"></feMergeNode>
	</feMerge>
</filter>
<filter  height="116.0%" width="115.9%" id="filter-10" filterUnits="objectBoundingBox" y="-6.6%" x="-6.5%">
	<feOffset  result="shadowOffsetOuter1" in="SourceAlpha" dy="2" dx="2"></feOffset>
	<feGaussianBlur  stdDeviation="4.5" result="shadowBlurOuter1" in="shadowOffsetOuter1"></feGaussianBlur>
	
		<feColorMatrix  type="matrix" values="0 0 0 0 0.792156863   0 0 0 0 0.823529412   0 0 0 0 0.878431373  0 0 0 0.7 0" result="shadowMatrixOuter1" in="shadowBlurOuter1">
		</feColorMatrix>
	<feOffset  result="shadowOffsetOuter2" in="SourceAlpha" dy="1" dx="1"></feOffset>
	<feGaussianBlur  stdDeviation="1" result="shadowBlurOuter2" in="shadowOffsetOuter2"></feGaussianBlur>
	
		<feColorMatrix  type="matrix" values="0 0 0 0 0.784313725   0 0 0 0 0.823529412   0 0 0 0 0.882352941  0 0 0 1 0" result="shadowMatrixOuter2" in="shadowBlurOuter2">
		</feColorMatrix>
	<feMerge>
		<feMergeNode  in="shadowMatrixOuter1"></feMergeNode>
		<feMergeNode  in="shadowMatrixOuter2"></feMergeNode>
	</feMerge>
</filter>
<title>Graph 4: NXM Price and Capital Pool</title>
<desc>Created with Sketch.</desc>
<g id="Page-2">
	<g id="Token-Model-Page---Outline-Text-for-svg-output" transform="translate(-622.000000, -3251.000000)">
		<g id="Graph-4:-NXM-Price-and-Capital-Pool" transform="translate(641.000000, 3268.000000)">
			<g id="Group-3" transform="translate(0.000000, 217.000000)">
				<g id="Rectangle">
					<g filter="url(#filter-2)">
						<path id="path-1_5_" d="M246.701,0h380.426c1.063,0,1.922,0.86,1.922,1.921v232.844c0,1.063-0.859,1.922-1.922,1.922H246.701
							c-1.061,0-1.921-0.859-1.921-1.922V1.921C244.779,0.86,245.64,0,246.701,0z"/>
					</g>
					<g>
						<path id="path-1_1_" fill="#FFFFFF" d="M246.701,0h380.426c1.063,0,1.922,0.86,1.922,1.921v232.844
							c0,1.063-0.859,1.922-1.922,1.922H246.701c-1.061,0-1.921-0.859-1.921-1.922V1.921C244.779,0.86,245.64,0,246.701,0z"/>
					</g>
				</g>
				<path id="Line-Copy-4" fill="none" stroke="#E5E5E5" stroke-width="0.5" stroke-linecap="square" d="M245.164,197.107h384.269"
					/>
				<path id="Line-Copy-3" fill="none" stroke="#E5E5E5" stroke-width="0.5" stroke-linecap="square" d="M538.554,157.912h90.879"/>
				<path id="Line-Copy-2" fill="none" stroke="#E5E5E5" stroke-width="0.5" stroke-linecap="square" d="M582.552,118.717h46.881"/>
				<path id="Line-Copy" fill="none" stroke="#E5E5E5" stroke-width="0.5" stroke-linecap="square" d="M244.587,79.521h384.845"/>
				<path id="Line" fill="none" stroke="#E5E5E5" stroke-width="0.5" stroke-linecap="square" d="M244.587,40.326h384.845"/>
				<g id="Combined-Shape" transform="translate(498.781417, 90.665028)">
					<g id="Mask">
					</g>
					<defs>
						
							<filter id="Adobe_OpacityMaskFilter" filterUnits="userSpaceOnUse" x="-266.298" y="-67.235" width="384.268" height="185.904">
							<feColorMatrix  type="matrix" values="1 0 0 0 0  0 1 0 0 0  0 0 1 0 0  0 0 0 1 0"/>
						</filter>
					</defs>
					<mask maskUnits="userSpaceOnUse" x="-266.298" y="-67.235" width="384.268" height="185.904" id="mask-4">
						<g filter="url(#Adobe_OpacityMaskFilter)">
							<rect id="path-3" x="0" y="0" fill="#FFFFFF" width="96.067" height="96.067"/>
						</g>
					</mask>
					<path mask="url(#mask-4)" fill="#58CD9E" d="M-266.298,116.677c96.156,1.271,167.95-3.623,215.382-14.687
						C58.729,75.988,114.64,19.579,116.818-67.235h1.151v16.189C108.156,27.878,51.86,79.466-50.916,103.72
						c-79.188,18.031-184.273,14.301-215.382,14.949V116.677L-266.298,116.677z"/>
				</g>
				
					<g id="Group" transform="translate(594.080177, 102.961642) rotate(20.000000) translate(-594.080177, -102.961642) translate(588.700409, 97.581874)">
					<g id="Oval">
						<g filter="url(#filter-6)">
							<circle id="path-5_3_" cx="5.38" cy="5.38" r="5.38"/>
						</g>
						<g>
							<circle id="path-5_1_" fill="#1EAB89" cx="5.38" cy="5.38" r="5.38"/>
						</g>
					</g>
					<path id="Triangle" fill="#58CD9E" d="M5.791,2.926L7.92,6.376C8.143,6.736,8.032,7.21,7.67,7.433
						C7.537,7.516,7.382,7.555,7.226,7.547L3.248,7.339C2.824,7.316,2.499,6.954,2.522,6.53C2.53,6.375,2.585,6.225,2.681,6.102
						L5.16,2.894c0.13-0.168,0.371-0.199,0.539-0.069C5.735,2.852,5.766,2.887,5.791,2.926z"/>
				</g>
				
					<g id="Group_1_" transform="translate(494.917197, 178.641147) rotate(-107.000000) translate(-494.917197, -178.641147) translate(489.537429, 173.261378)">
					<g id="Oval_1_">
						<g filter="url(#filter-8)">
							<circle id="path-7_3_" cx="5.38" cy="5.38" r="5.38"/>
						</g>
						<g>
							<circle id="path-7_1_" fill="#1EAB89" cx="5.38" cy="5.38" r="5.38"/>
						</g>
					</g>
					<path id="Triangle_1_" fill="#58CD9E" d="M5.79,2.927l2.13,3.449C8.143,6.737,8.031,7.21,7.67,7.433
						C7.538,7.516,7.382,7.555,7.227,7.546L3.249,7.338c-0.424-0.022-0.75-0.383-0.726-0.807c0.007-0.156,0.062-0.307,0.158-0.43
						l2.479-3.208c0.13-0.168,0.371-0.199,0.54-0.069C5.735,2.853,5.767,2.887,5.79,2.927z"/>
				</g>
				<g enable-background="new    ">
					<text transform="matrix(1 0 0 1 384.6914 229.3164)" fill="#FFFFFF" font-family="'IBMPlexMono-Medium'" font-size="8.0697">MCR</text>
				</g>
				<g id="Group-4" transform="translate(0.000000, 31.000000)">
					<g id="Path">
						<g filter="url(#filter-10)">
							<path id="path-9_3_" d="M1.921,0H205.2c1.061,0,1.921,0.859,1.921,1.922v202.157c0,1.061-0.86,1.921-1.921,1.921H1.921
								C0.86,206,0,205.14,0,204.079V1.922C0,0.859,0.86,0,1.921,0z"/>
						</g>
						<g>
							<path id="path-9_1_" fill="#FFFFFF" d="M1.921,0H205.2c1.061,0,1.921,0.859,1.921,1.922v202.157
								c0,1.061-0.86,1.921-1.921,1.921H1.921C0.86,206,0,205.14,0,204.079V1.922C0,0.859,0.86,0,1.921,0z"/>
						</g>
					</g>
					<path id="Path_1_" opacity="0.5961" fill="none" stroke="#E1E6EE" stroke-width="0.7685" enable-background="new    " d="
						M16.139,17.188c-0.849,0-1.537,0.688-1.537,1.537v79.172c0,0.849,0.688,1.536,1.537,1.536h92.417
						c0.849,0,1.537-0.688,1.537-1.536V87.883l3.938-5.873l-3.938-5.384V18.725c0-0.849-0.688-1.537-1.537-1.537H16.139z"/>
					<path id="Path_2_" opacity="0.5961" fill="none" stroke="#E1E6EE" stroke-width="0.7685" enable-background="new    " d="
						M16.139,189.555c-0.849,0-1.537-0.688-1.537-1.537v-79.171c0-0.849,0.688-1.537,1.537-1.537h92.417
						c0.849,0,1.537,0.688,1.537,1.537v11.786l3.419,4.367l-3.419,4.367v58.649c0,0.85-0.688,1.537-1.537,1.537L16.139,189.555
						L16.139,189.555z"/>
					<path id="Capital-Pool" fill="#1F2124" fill-opacity="0.6" d="M135.175,80.168c-1.241,0-2.163-0.438-2.765-1.316
						c-0.602-0.877-0.903-2.123-0.903-3.736c0-1.615,0.301-2.861,0.903-3.738s1.523-1.316,2.765-1.316
						c0.476,0,0.889,0.063,1.239,0.189s0.651,0.299,0.903,0.518c0.252,0.221,0.464,0.478,0.637,0.771
						c0.172,0.294,0.315,0.609,0.427,0.945l-1.414,0.476c-0.075-0.224-0.159-0.434-0.252-0.63c-0.093-0.196-0.21-0.364-0.35-0.504
						c-0.14-0.142-0.306-0.252-0.497-0.336c-0.191-0.084-0.427-0.126-0.707-0.126c-0.691,0-1.195,0.264-1.512,0.791
						c-0.317,0.526-0.476,1.237-0.476,2.135v1.652c0,0.896,0.159,1.606,0.476,2.135s0.821,0.791,1.512,0.791
						c0.28,0,0.516-0.042,0.707-0.126c0.191-0.084,0.357-0.196,0.497-0.336c0.14-0.142,0.257-0.31,0.35-0.504
						c0.093-0.196,0.177-0.406,0.252-0.631l1.414,0.477c-0.112,0.336-0.254,0.651-0.427,0.945c-0.173,0.294-0.385,0.55-0.637,0.77
						s-0.553,0.393-0.903,0.519C136.064,80.105,135.651,80.168,135.175,80.168z M145.983,80c-0.438,0-0.768-0.112-0.987-0.336
						c-0.219-0.224-0.353-0.518-0.399-0.882h-0.07c-0.14,0.438-0.394,0.778-0.763,1.021c-0.369,0.243-0.838,0.364-1.407,0.364
						c-0.737,0-1.325-0.193-1.764-0.581c-0.438-0.388-0.658-0.922-0.658-1.603c0-0.7,0.259-1.234,0.777-1.604
						c0.518-0.368,1.314-0.553,2.387-0.553h1.386v-0.562c0-0.979-0.518-1.47-1.554-1.47c-0.467,0-0.845,0.091-1.134,0.273
						c-0.289,0.182-0.532,0.422-0.728,0.721l-0.91-0.742c0.205-0.392,0.55-0.729,1.036-1.015c0.485-0.285,1.111-0.427,1.876-0.427
						c0.915,0,1.633,0.219,2.156,0.656c0.522,0.439,0.784,1.073,0.784,1.904v3.626h0.91V80H145.983z M142.792,79.048
						c0.495,0,0.901-0.112,1.218-0.336c0.317-0.224,0.476-0.514,0.476-0.868v-1.05h-1.358c-1.101,0-1.652,0.331-1.652,0.994v0.28
						c0,0.325,0.117,0.57,0.35,0.733C142.059,78.967,142.381,79.048,142.792,79.048z M148.602,72.776h1.526v1.23h0.084
						c0.215-0.438,0.5-0.781,0.854-1.029c0.354-0.246,0.798-0.369,1.33-0.369c0.849,0,1.526,0.316,2.03,0.95
						c0.504,0.636,0.756,1.578,0.756,2.828c0,1.251-0.252,2.193-0.756,2.828c-0.504,0.635-1.181,0.952-2.03,0.952
						c-0.532,0-0.976-0.124-1.33-0.371s-0.639-0.59-0.854-1.029h-0.084V82.8h-1.526V72.776z M151.766,78.922
						c0.579,0,1.024-0.177,1.337-0.532c0.313-0.354,0.469-0.824,0.469-1.414V75.8c0-0.588-0.156-1.06-0.469-1.414
						c-0.313-0.354-0.758-0.532-1.337-0.532c-0.224,0-0.434,0.028-0.63,0.086c-0.196,0.056-0.369,0.14-0.518,0.252
						c-0.149,0.11-0.269,0.249-0.357,0.411c-0.088,0.164-0.133,0.357-0.133,0.581v2.408c0,0.226,0.044,0.418,0.133,0.581
						c0.089,0.163,0.208,0.301,0.357,0.413c0.149,0.112,0.322,0.196,0.518,0.252C151.332,78.894,151.542,78.922,151.766,78.922z
						 M160.543,71.46c-0.392,0-0.665-0.079-0.819-0.238c-0.154-0.157-0.231-0.354-0.231-0.588V70.34
						c0-0.232,0.077-0.429,0.231-0.588c0.154-0.158,0.422-0.238,0.805-0.238c0.392,0,0.665,0.08,0.819,0.238
						c0.154,0.159,0.231,0.354,0.231,0.588v0.294c0,0.233-0.077,0.431-0.231,0.588C161.194,71.381,160.926,71.46,160.543,71.46z
						 M157.31,78.768h2.464v-4.76h-2.464v-1.23h3.99v5.99h2.31V80h-6.3V78.768z M168.93,80c-0.635,0-1.102-0.17-1.4-0.511
						c-0.298-0.341-0.448-0.782-0.448-1.323v-4.158h-2.226v-1.23h1.582c0.271,0,0.462-0.055,0.574-0.161
						c0.112-0.107,0.168-0.301,0.168-0.581v-1.808h1.428v2.55h3.08v1.23h-3.08v4.76h3.08V80H168.93z M179.583,80
						c-0.438,0-0.768-0.112-0.987-0.336c-0.22-0.224-0.353-0.518-0.399-0.882h-0.07c-0.14,0.438-0.394,0.778-0.763,1.021
						c-0.369,0.243-0.837,0.364-1.407,0.364c-0.737,0-1.325-0.193-1.764-0.581c-0.438-0.388-0.658-0.922-0.658-1.603
						c0-0.7,0.259-1.234,0.777-1.604c0.518-0.368,1.313-0.553,2.387-0.553h1.386v-0.562c0-0.979-0.518-1.47-1.554-1.47
						c-0.466,0-0.844,0.091-1.134,0.273c-0.29,0.182-0.532,0.422-0.728,0.721l-0.91-0.742c0.206-0.392,0.551-0.729,1.036-1.015
						s1.111-0.427,1.876-0.427c0.915,0,1.633,0.219,2.156,0.656c0.522,0.439,0.784,1.073,0.784,1.904v3.626h0.91V80H179.583z
						 M176.392,79.048c0.495,0,0.9-0.112,1.218-0.336c0.318-0.224,0.476-0.514,0.476-0.868v-1.05h-1.358
						c-1.102,0-1.652,0.331-1.652,0.994v0.28c0,0.325,0.117,0.57,0.35,0.733C175.659,78.967,175.981,79.048,176.392,79.048z
						 M182.146,78.768h2.394v-7.896h-2.394V69.64h3.92v9.128h2.394V80h-6.314V78.768z M144.472,98v-9.772h3.654
						c0.933,0,1.645,0.263,2.135,0.784c0.49,0.523,0.735,1.241,0.735,2.156s-0.245,1.634-0.735,2.156
						c-0.49,0.521-1.202,0.784-2.135,0.784h-2.086V98H144.472z M146.04,92.806h1.848c0.971,0,1.456-0.446,1.456-1.344V90.86
						c0-0.888-0.485-1.33-1.456-1.33h-1.848V92.806z M155.896,98.168c-0.532,0-1.01-0.089-1.435-0.266
						c-0.425-0.179-0.784-0.431-1.078-0.756c-0.294-0.327-0.52-0.725-0.679-1.19c-0.159-0.466-0.238-0.989-0.238-1.568
						c0-0.578,0.08-1.101,0.238-1.566c0.158-0.466,0.385-0.863,0.679-1.19c0.294-0.326,0.653-0.578,1.078-0.756
						c0.425-0.178,0.903-0.266,1.435-0.266s1.01,0.088,1.435,0.266c0.425,0.178,0.784,0.43,1.078,0.756
						c0.294,0.327,0.52,0.725,0.679,1.19c0.159,0.466,0.238,0.988,0.238,1.566c0,0.579-0.08,1.103-0.238,1.568
						c-0.158,0.466-0.385,0.863-0.679,1.19c-0.294,0.325-0.653,0.577-1.078,0.756C156.906,98.079,156.427,98.168,155.896,98.168z
						 M155.896,96.964c0.56,0,1.006-0.17,1.337-0.511c0.332-0.341,0.497-0.847,0.497-1.521v-1.092c0-0.672-0.166-1.178-0.497-1.519
						s-0.777-0.513-1.337-0.513s-1.006,0.172-1.337,0.513c-0.332,0.341-0.497,0.847-0.497,1.519v1.092
						c0,0.674,0.166,1.18,0.497,1.521S155.335,96.964,155.896,96.964z M164.295,98.168c-0.532,0-1.01-0.089-1.435-0.266
						c-0.424-0.179-0.784-0.431-1.078-0.756c-0.294-0.327-0.521-0.725-0.679-1.19s-0.238-0.989-0.238-1.568
						c0-0.578,0.08-1.101,0.238-1.566s0.385-0.863,0.679-1.19c0.294-0.326,0.653-0.578,1.078-0.756
						c0.425-0.178,0.903-0.266,1.435-0.266c0.532,0,1.01,0.088,1.435,0.266s0.784,0.43,1.078,0.756
						c0.294,0.327,0.52,0.725,0.679,1.19c0.159,0.466,0.238,0.988,0.238,1.566c0,0.579-0.08,1.103-0.238,1.568
						c-0.158,0.466-0.385,0.863-0.679,1.19c-0.294,0.325-0.653,0.577-1.078,0.756C165.306,98.079,164.828,98.168,164.295,98.168z
						 M164.295,96.964c0.56,0,1.006-0.17,1.337-0.511c0.332-0.341,0.497-0.847,0.497-1.521v-1.092c0-0.672-0.166-1.178-0.497-1.519
						s-0.777-0.513-1.337-0.513s-1.005,0.172-1.337,0.513s-0.497,0.847-0.497,1.519v1.092c0,0.674,0.166,1.18,0.497,1.521
						S163.735,96.964,164.295,96.964z M169.545,96.768h2.394v-7.896h-2.394V87.64h3.92v9.128h2.394V98h-6.314V96.768z"/>
					<path id="Mutual_x2019_s-current-fun" fill="#1F2124" fill-opacity="0.6" d="M28.23,32.324l0.042-2.94H28.16L26.2,34.41
						l-1.96-5.026h-0.112l0.042,2.94V37h-1.386v-9.771h1.918l1.498,3.877h0.098l1.512-3.877h1.806V37H28.23V32.324z M36.098,35.768
						h-0.07c-0.075,0.188-0.17,0.367-0.287,0.539c-0.117,0.174-0.259,0.322-0.427,0.448s-0.364,0.228-0.588,0.302
						s-0.485,0.111-0.784,0.111c-0.728,0-1.316-0.238-1.764-0.714c-0.448-0.476-0.672-1.153-0.672-2.03v-4.648h1.526V34.2
						c0,1.147,0.499,1.722,1.498,1.722c0.196,0,0.388-0.025,0.574-0.076c0.187-0.053,0.354-0.129,0.504-0.232
						c0.149-0.102,0.269-0.229,0.357-0.385c0.089-0.152,0.133-0.338,0.133-0.553v-4.9h1.526V37h-1.526V35.768z M43.434,37
						c-0.635,0-1.102-0.17-1.4-0.512c-0.299-0.34-0.448-0.781-0.448-1.322v-4.158H39.36v-1.232h1.582
						c0.271,0,0.462-0.053,0.574-0.159c0.112-0.107,0.168-0.302,0.168-0.581v-1.807h1.428v2.547h3.08v1.232h-3.08v4.76h3.08V37
						H43.434z M52.898,35.768h-0.07c-0.075,0.188-0.17,0.367-0.287,0.539c-0.117,0.174-0.259,0.322-0.427,0.448
						c-0.168,0.126-0.364,0.228-0.588,0.302s-0.485,0.111-0.784,0.111c-0.728,0-1.316-0.238-1.764-0.714
						c-0.448-0.476-0.672-1.153-0.672-2.03v-4.648h1.526V34.2c0,1.147,0.5,1.722,1.498,1.722c0.196,0,0.387-0.025,0.574-0.076
						c0.187-0.053,0.355-0.129,0.504-0.232c0.149-0.102,0.268-0.229,0.357-0.385c0.088-0.152,0.133-0.338,0.133-0.553v-4.9h1.526V37
						h-1.526V35.768z M62.488,37c-0.438,0-0.768-0.111-0.987-0.336c-0.219-0.225-0.353-0.518-0.399-0.882h-0.07
						c-0.14,0.438-0.395,0.778-0.763,1.022c-0.369,0.241-0.838,0.362-1.407,0.362c-0.737,0-1.325-0.192-1.764-0.581
						c-0.439-0.388-0.658-0.921-0.658-1.604c0-0.699,0.259-1.233,0.777-1.604c0.518-0.369,1.314-0.553,2.387-0.553h1.386v-0.561
						c0-0.979-0.518-1.471-1.554-1.471c-0.467,0-0.845,0.092-1.134,0.271c-0.289,0.184-0.532,0.424-0.728,0.723l-0.91-0.742
						c0.205-0.393,0.551-0.729,1.036-1.015c0.485-0.286,1.11-0.429,1.876-0.429c0.915,0,1.633,0.221,2.156,0.658
						c0.523,0.439,0.784,1.074,0.784,1.904v3.626h0.91V37H62.488z M59.296,36.048c0.495,0,0.901-0.112,1.218-0.336
						c0.317-0.224,0.476-0.513,0.476-0.868v-1.05h-1.358c-1.101,0-1.652,0.331-1.652,0.994v0.28c0,0.326,0.117,0.57,0.35,0.733
						C58.563,35.967,58.885,36.048,59.296,36.048z M65.05,35.768h2.394v-7.896H65.05v-1.231h3.92v9.127h2.394V37H65.05V35.768z
						 M76.096,26.641h2.17l-1.75,4.172H75.34L76.096,26.641z M85.014,37.168c-0.784,0-1.458-0.126-2.023-0.378
						c-0.565-0.252-1.02-0.588-1.365-1.008l0.938-0.841c0.317,0.346,0.674,0.608,1.071,0.791c0.397,0.183,0.866,0.272,1.407,0.272
						c0.495,0,0.894-0.084,1.197-0.252c0.304-0.168,0.455-0.43,0.455-0.782c0-0.15-0.028-0.275-0.084-0.38
						c-0.056-0.103-0.135-0.187-0.238-0.252s-0.222-0.116-0.357-0.153c-0.135-0.037-0.278-0.064-0.427-0.084L84.44,33.92
						c-0.28-0.037-0.564-0.098-0.854-0.182c-0.289-0.084-0.548-0.203-0.777-0.357s-0.416-0.352-0.56-0.595s-0.217-0.552-0.217-0.925
						c0-0.736,0.282-1.297,0.847-1.68c0.565-0.384,1.309-0.574,2.233-0.574c0.672,0,1.253,0.102,1.743,0.302
						c0.49,0.2,0.898,0.478,1.225,0.833l-0.854,0.896c-0.187-0.216-0.453-0.414-0.798-0.597c-0.346-0.183-0.803-0.272-1.372-0.272
						c-1.018,0-1.526,0.321-1.526,0.967c0,0.308,0.11,0.52,0.329,0.637c0.219,0.117,0.479,0.193,0.777,0.23l1.148,0.183
						c0.289,0.046,0.576,0.106,0.861,0.182s0.542,0.189,0.77,0.343c0.229,0.154,0.416,0.354,0.56,0.597
						c0.145,0.241,0.217,0.551,0.217,0.924c0,0.729-0.282,1.3-0.847,1.715C86.78,36.961,86.003,37.168,85.014,37.168z
						 M26.466,55.168c-0.541,0-1.024-0.089-1.449-0.266c-0.425-0.179-0.784-0.431-1.078-0.756c-0.294-0.327-0.518-0.725-0.672-1.19
						c-0.154-0.467-0.231-0.989-0.231-1.568c0-0.578,0.077-1.101,0.231-1.566c0.154-0.468,0.378-0.863,0.672-1.19
						c0.294-0.326,0.653-0.578,1.078-0.756c0.425-0.178,0.903-0.266,1.435-0.266c0.747,0,1.346,0.157,1.799,0.476
						s0.791,0.729,1.015,1.232l-1.19,0.644c-0.131-0.336-0.329-0.602-0.595-0.798s-0.609-0.294-1.029-0.294
						c-0.579,0-1.027,0.175-1.344,0.523c-0.317,0.352-0.476,0.814-0.476,1.395v1.204c0,0.568,0.159,1.031,0.476,1.386
						c0.317,0.355,0.775,0.532,1.372,0.532c0.448,0,0.814-0.104,1.099-0.31c0.285-0.205,0.511-0.484,0.679-0.84l1.12,0.688
						c-0.233,0.504-0.588,0.917-1.064,1.237C27.838,55.007,27.222,55.168,26.466,55.168z M36.098,53.768h-0.07
						c-0.075,0.188-0.17,0.367-0.287,0.539c-0.117,0.174-0.259,0.322-0.427,0.448s-0.364,0.228-0.588,0.301
						c-0.224,0.075-0.485,0.112-0.784,0.112c-0.728,0-1.316-0.238-1.764-0.714c-0.448-0.478-0.672-1.152-0.672-2.03v-4.646h1.526
						V52.2c0,1.146,0.499,1.722,1.498,1.722c0.196,0,0.388-0.024,0.574-0.077c0.187-0.051,0.354-0.128,0.504-0.229
						c0.15-0.103,0.269-0.231,0.357-0.387c0.089-0.152,0.133-0.338,0.133-0.553v-4.898h1.526V55h-1.526V53.768z M39.864,53.768
						h1.918v-4.76h-1.918v-1.23h3.444v1.918h0.084c0.065-0.252,0.159-0.495,0.28-0.729c0.122-0.232,0.275-0.437,0.462-0.607
						c0.187-0.174,0.416-0.313,0.686-0.422c0.271-0.105,0.588-0.159,0.952-0.159h0.868v1.456h-1.428
						c-0.56,0-1.017,0.165-1.372,0.495c-0.354,0.332-0.532,0.777-0.532,1.339v2.7h2.618V55h-6.062V53.768z M48.264,53.768h1.918
						v-4.76h-1.918v-1.23h3.444v1.918h0.084c0.065-0.252,0.159-0.495,0.28-0.729c0.122-0.232,0.275-0.437,0.462-0.607
						c0.187-0.174,0.415-0.313,0.686-0.422c0.271-0.105,0.588-0.159,0.952-0.159h0.868v1.456h-1.428
						c-0.56,0-1.017,0.165-1.372,0.495c-0.355,0.332-0.532,0.777-0.532,1.339v2.7h2.618V55h-6.062V53.768z M59.954,55.168
						c-0.551,0-1.045-0.089-1.484-0.266c-0.439-0.179-0.808-0.431-1.106-0.756c-0.298-0.327-0.527-0.723-0.686-1.185
						c-0.159-0.462-0.238-0.981-0.238-1.561s0.082-1.103,0.245-1.568c0.163-0.467,0.392-0.865,0.686-1.197
						c0.294-0.331,0.651-0.585,1.071-0.763s0.887-0.266,1.4-0.266c0.504,0,0.961,0.086,1.372,0.259
						c0.411,0.173,0.761,0.418,1.05,0.733c0.289,0.317,0.511,0.695,0.665,1.136c0.154,0.438,0.231,0.924,0.231,1.456v0.572h-5.18
						v0.238c0,0.569,0.177,1.034,0.532,1.395c0.354,0.357,0.844,0.537,1.47,0.537c0.467,0,0.866-0.1,1.197-0.301
						c0.331-0.2,0.6-0.469,0.805-0.805l0.952,0.84c-0.243,0.42-0.614,0.774-1.113,1.064C61.324,55.023,60.701,55.168,59.954,55.168z
						 M59.842,48.77c-0.271,0-0.52,0.048-0.749,0.142c-0.229,0.093-0.424,0.227-0.588,0.397c-0.163,0.174-0.292,0.376-0.385,0.609
						c-0.093,0.233-0.14,0.49-0.14,0.771v0.098h3.626v-0.14c0-0.57-0.161-1.024-0.483-1.365C60.801,48.94,60.374,48.77,59.842,48.77
						z M65.176,55v-7.224h1.526v1.23h0.07c0.075-0.187,0.17-0.366,0.287-0.539c0.117-0.173,0.259-0.32,0.427-0.446
						c0.168-0.128,0.364-0.228,0.588-0.303c0.224-0.074,0.485-0.11,0.784-0.11c0.728,0,1.316,0.236,1.764,0.714
						c0.448,0.476,0.672,1.151,0.672,2.028V55h-1.526v-4.424c0-1.148-0.5-1.724-1.498-1.724c-0.196,0-0.387,0.026-0.574,0.077
						c-0.187,0.053-0.354,0.129-0.504,0.231c-0.15,0.102-0.268,0.232-0.357,0.392s-0.133,0.341-0.133,0.546V55H65.176z M77.034,55
						c-0.635,0-1.102-0.17-1.4-0.511c-0.298-0.341-0.448-0.782-0.448-1.323v-4.158H72.96v-1.23h1.582
						c0.271,0,0.462-0.055,0.574-0.161c0.112-0.107,0.168-0.301,0.168-0.581v-1.808h1.428v2.55h3.08v1.23h-3.08v4.76h3.08V55H77.034
						z M23.092,71.768h2.31v-4.76h-2.45v-1.23h2.45v-1.304c0-0.541,0.149-0.981,0.448-1.321c0.298-0.342,0.765-0.513,1.4-0.513
						h2.436v1.232h-2.758v1.904h2.758v1.23h-2.758v4.76h2.436V73h-6.272V71.768z M36.098,71.768h-0.07
						c-0.075,0.188-0.17,0.367-0.287,0.539c-0.117,0.174-0.259,0.322-0.427,0.448s-0.364,0.228-0.588,0.301
						c-0.224,0.075-0.485,0.112-0.784,0.112c-0.728,0-1.316-0.238-1.764-0.714c-0.448-0.478-0.672-1.152-0.672-2.03v-4.646h1.526
						V70.2c0,1.146,0.499,1.722,1.498,1.722c0.196,0,0.388-0.024,0.574-0.077c0.187-0.051,0.354-0.128,0.504-0.229
						c0.15-0.103,0.269-0.231,0.357-0.387c0.089-0.152,0.133-0.338,0.133-0.553v-4.898h1.526V73h-1.526V71.768z M39.976,73v-7.224
						h1.526v1.23h0.07c0.075-0.187,0.17-0.366,0.287-0.539c0.117-0.173,0.259-0.32,0.427-0.446c0.168-0.128,0.364-0.228,0.588-0.303
						c0.224-0.074,0.485-0.11,0.784-0.11c0.728,0,1.316,0.236,1.764,0.714c0.448,0.476,0.672,1.151,0.672,2.028V73h-1.526v-4.424
						c0-1.148-0.499-1.724-1.498-1.724c-0.196,0-0.387,0.026-0.574,0.077c-0.187,0.053-0.355,0.129-0.504,0.231
						c-0.149,0.103-0.269,0.232-0.357,0.392c-0.088,0.159-0.133,0.341-0.133,0.546V73H39.976z M52.968,71.768h-0.084
						c-0.214,0.439-0.499,0.782-0.854,1.029c-0.354,0.247-0.798,0.371-1.33,0.371c-0.85,0-1.526-0.317-2.03-0.952
						s-0.756-1.577-0.756-2.828c0-1.25,0.252-2.192,0.756-2.828c0.504-0.634,1.181-0.95,2.03-0.95c0.532,0,0.975,0.123,1.33,0.369
						c0.355,0.248,0.64,0.592,0.854,1.029h0.084V62.64h1.526V73h-1.526V71.768z M51.33,71.922c0.224,0,0.434-0.028,0.63-0.084
						c0.196-0.056,0.369-0.14,0.518-0.252s0.268-0.25,0.357-0.413s0.133-0.355,0.133-0.581v-2.408c0-0.224-0.044-0.417-0.133-0.581
						c-0.089-0.162-0.208-0.301-0.357-0.411c-0.149-0.112-0.322-0.196-0.518-0.252c-0.196-0.058-0.406-0.086-0.63-0.086
						c-0.579,0-1.024,0.179-1.337,0.532c-0.313,0.354-0.469,0.826-0.469,1.414v1.176c0,0.59,0.156,1.061,0.469,1.414
						C50.306,71.745,50.751,71.922,51.33,71.922z M60.248,64.46c-0.392,0-0.665-0.079-0.819-0.238
						c-0.154-0.157-0.231-0.354-0.231-0.588V63.34c0-0.232,0.077-0.429,0.231-0.588c0.154-0.158,0.422-0.238,0.805-0.238
						c0.392,0,0.665,0.08,0.819,0.238c0.154,0.159,0.231,0.354,0.231,0.588v0.294c0,0.233-0.077,0.431-0.231,0.588
						C60.899,64.381,60.631,64.46,60.248,64.46z M57.014,71.768h2.464v-4.76h-2.464v-1.23h3.99v5.99h2.31V73h-6.3V71.768z
						 M65.176,73v-7.224h1.526v1.23h0.07c0.075-0.187,0.17-0.366,0.287-0.539c0.117-0.173,0.259-0.32,0.427-0.446
						c0.168-0.128,0.364-0.228,0.588-0.303c0.224-0.074,0.485-0.11,0.784-0.11c0.728,0,1.316,0.236,1.764,0.714
						c0.448,0.476,0.672,1.151,0.672,2.028V73h-1.526v-4.424c0-1.148-0.5-1.724-1.498-1.724c-0.196,0-0.387,0.026-0.574,0.077
						c-0.187,0.053-0.354,0.129-0.504,0.231c-0.15,0.102-0.268,0.232-0.357,0.392s-0.133,0.341-0.133,0.546V73H65.176z
						 M80.38,73.784c0,0.746-0.313,1.297-0.938,1.65c-0.625,0.355-1.577,0.532-2.856,0.532c-0.625,0-1.15-0.039-1.575-0.119
						c-0.425-0.079-0.77-0.192-1.036-0.343c-0.266-0.149-0.458-0.331-0.574-0.546c-0.116-0.215-0.175-0.457-0.175-0.728
						c0-0.394,0.109-0.698,0.329-0.917c0.219-0.221,0.529-0.382,0.931-0.483v-0.14c-0.243-0.095-0.436-0.226-0.581-0.394
						s-0.217-0.387-0.217-0.658c0-0.354,0.122-0.623,0.364-0.805c0.243-0.182,0.556-0.319,0.938-0.413v-0.07
						c-0.439-0.204-0.78-0.493-1.022-0.866c-0.243-0.374-0.364-0.821-0.364-1.346c0-0.382,0.07-0.729,0.21-1.043
						c0.14-0.313,0.338-0.578,0.595-0.798c0.256-0.219,0.564-0.39,0.924-0.511s0.763-0.182,1.211-0.182
						c0.504,0,0.957,0.078,1.358,0.236v-0.236c0-0.28,0.08-0.515,0.238-0.7c0.158-0.187,0.401-0.28,0.728-0.28h1.316v1.204h-1.68
						v0.336c0.317,0.215,0.56,0.487,0.728,0.819c0.168,0.331,0.252,0.716,0.252,1.153c0,0.384-0.07,0.73-0.21,1.043
						c-0.14,0.313-0.338,0.579-0.595,0.8c-0.257,0.219-0.565,0.387-0.924,0.504c-0.359,0.115-0.763,0.175-1.211,0.175
						c-0.317,0-0.616-0.028-0.896-0.084c-0.168,0.047-0.336,0.126-0.504,0.238c-0.168,0.11-0.252,0.266-0.252,0.462
						c0,0.224,0.107,0.362,0.322,0.42c0.215,0.056,0.481,0.084,0.798,0.084h1.624c0.97,0,1.67,0.185,2.1,0.553
						C80.166,72.704,80.38,73.187,80.38,73.784z M78.952,73.882c0-0.242-0.098-0.437-0.294-0.581
						c-0.196-0.145-0.551-0.217-1.064-0.217h-2.506c-0.354,0.168-0.532,0.438-0.532,0.813c0,0.271,0.114,0.504,0.343,0.698
						c0.229,0.196,0.609,0.294,1.141,0.294h1.134c0.579,0,1.02-0.086,1.323-0.259C78.8,74.458,78.952,74.209,78.952,73.882z
						 M76.544,69.612c0.495,0,0.859-0.117,1.092-0.352c0.233-0.232,0.35-0.546,0.35-0.938v-0.378c0-0.394-0.117-0.705-0.35-0.938
						c-0.233-0.232-0.598-0.35-1.092-0.35s-0.858,0.116-1.092,0.35c-0.234,0.234-0.35,0.546-0.35,0.938v0.378
						c0,0.392,0.117,0.704,0.35,0.938C75.685,69.495,76.049,69.612,76.544,69.612z M23.05,89.768h2.394v-7.896H23.05V80.64h3.92
						v9.128h2.394V91H23.05V89.768z M34.754,91.168c-0.551,0-1.045-0.089-1.484-0.266c-0.438-0.179-0.807-0.431-1.106-0.756
						c-0.299-0.327-0.527-0.723-0.686-1.185s-0.238-0.981-0.238-1.561s0.082-1.103,0.245-1.568c0.164-0.467,0.392-0.865,0.686-1.197
						c0.294-0.331,0.651-0.585,1.071-0.763c0.42-0.178,0.887-0.266,1.4-0.266c0.504,0,0.961,0.086,1.372,0.259
						c0.411,0.173,0.761,0.418,1.05,0.733c0.29,0.317,0.511,0.695,0.665,1.136c0.154,0.438,0.231,0.924,0.231,1.456v0.572h-5.18
						v0.238c0,0.569,0.178,1.034,0.532,1.395c0.354,0.357,0.845,0.537,1.47,0.537c0.466,0,0.865-0.1,1.197-0.301
						c0.332-0.2,0.6-0.469,0.805-0.805l0.952,0.84c-0.243,0.42-0.613,0.774-1.113,1.064C36.124,91.023,35.5,91.168,34.754,91.168z
						 M34.642,84.77c-0.271,0-0.521,0.048-0.749,0.142c-0.229,0.093-0.425,0.227-0.588,0.397c-0.164,0.174-0.292,0.376-0.385,0.609
						c-0.093,0.233-0.14,0.49-0.14,0.771v0.098h3.626v-0.14c0-0.57-0.161-1.024-0.483-1.365C35.601,84.94,35.174,84.77,34.642,84.77
						z M42.062,91l-2.59-7.224h1.582l0.994,3.052l0.938,2.896h0.084l0.938-2.896l0.994-3.052h1.526L43.938,91H42.062z
						 M51.554,91.168c-0.551,0-1.045-0.089-1.484-0.266c-0.438-0.179-0.807-0.431-1.106-0.756c-0.298-0.327-0.527-0.723-0.686-1.185
						c-0.159-0.462-0.238-0.981-0.238-1.561s0.082-1.103,0.245-1.568c0.163-0.467,0.392-0.865,0.686-1.197
						c0.294-0.331,0.651-0.585,1.071-0.763s0.887-0.266,1.4-0.266c0.504,0,0.961,0.086,1.372,0.259s0.761,0.418,1.05,0.733
						c0.29,0.317,0.511,0.695,0.665,1.136c0.154,0.438,0.231,0.924,0.231,1.456v0.572h-5.18v0.238c0,0.569,0.177,1.034,0.532,1.395
						c0.355,0.357,0.845,0.537,1.47,0.537c0.467,0,0.866-0.1,1.197-0.301c0.332-0.2,0.6-0.469,0.805-0.805l0.952,0.84
						c-0.243,0.42-0.614,0.774-1.113,1.064C52.924,91.023,52.301,91.168,51.554,91.168z M51.442,84.77
						c-0.271,0-0.52,0.048-0.749,0.142c-0.229,0.093-0.424,0.227-0.588,0.397c-0.163,0.174-0.292,0.376-0.385,0.609
						c-0.094,0.233-0.14,0.49-0.14,0.771v0.098h3.626v-0.14c0-0.57-0.161-1.024-0.483-1.365C52.401,84.94,51.974,84.77,51.442,84.77
						z M56.65,89.768h2.394v-7.896H56.65V80.64h3.92v9.128h2.394V91H56.65V89.768z"/>
					<path id="Capital-required-to" fill="#1F2124" fill-opacity="0.6" d="M26.571,126.474c-1.242,0-2.163-0.438-2.765-1.315
						c-0.602-0.877-0.903-2.123-0.903-3.738c0-1.614,0.301-2.86,0.903-3.737c0.602-0.878,1.523-1.315,2.765-1.315
						c0.476,0,0.889,0.063,1.239,0.188s0.651,0.3,0.903,0.519c0.252,0.22,0.464,0.477,0.637,0.771
						c0.173,0.294,0.315,0.608,0.427,0.944l-1.414,0.477c-0.075-0.225-0.159-0.435-0.252-0.63c-0.094-0.195-0.21-0.363-0.35-0.504
						c-0.14-0.141-0.306-0.253-0.497-0.337s-0.427-0.126-0.707-0.126c-0.691,0-1.195,0.264-1.512,0.791s-0.476,1.239-0.476,2.136
						v1.651c0,0.896,0.159,1.608,0.476,2.136s0.821,0.791,1.512,0.791c0.28,0,0.516-0.042,0.707-0.127
						c0.191-0.084,0.357-0.195,0.497-0.336c0.14-0.14,0.256-0.308,0.35-0.504c0.093-0.195,0.177-0.405,0.252-0.63l1.414,0.477
						c-0.112,0.336-0.254,0.65-0.427,0.944c-0.173,0.294-0.385,0.551-0.637,0.771s-0.553,0.393-0.903,0.519
						S27.047,126.474,26.571,126.474z M37.378,126.306c-0.438,0-0.768-0.111-0.987-0.336c-0.219-0.225-0.353-0.519-0.399-0.882
						h-0.07c-0.14,0.438-0.395,0.779-0.763,1.021c-0.369,0.242-0.838,0.363-1.407,0.363c-0.737,0-1.325-0.193-1.764-0.581
						s-0.658-0.922-0.658-1.604c0-0.699,0.259-1.234,0.777-1.604c0.518-0.368,1.314-0.553,2.387-0.553h1.386v-0.561
						c0-0.979-0.518-1.471-1.554-1.471c-0.467,0-0.845,0.092-1.134,0.272c-0.289,0.183-0.532,0.423-0.728,0.722l-0.91-0.742
						c0.205-0.392,0.551-0.729,1.036-1.015c0.485-0.285,1.11-0.428,1.876-0.428c0.915,0,1.633,0.22,2.156,0.658
						c0.523,0.438,0.784,1.072,0.784,1.903v3.626h0.91v1.204h-0.938V126.306z M34.187,125.354c0.495,0,0.901-0.111,1.218-0.336
						c0.317-0.225,0.476-0.514,0.476-0.867V123.1h-1.358c-1.101,0-1.652,0.331-1.652,0.994v0.279c0,0.327,0.117,0.572,0.35,0.735
						C33.454,125.271,33.776,125.354,34.187,125.354z M39.997,119.081h1.526v1.232h0.084c0.215-0.438,0.5-0.782,0.854-1.029
						c0.355-0.247,0.798-0.371,1.33-0.371c0.85,0,1.526,0.317,2.03,0.952c0.504,0.635,0.756,1.577,0.756,2.828
						s-0.252,2.192-0.756,2.828c-0.504,0.635-1.181,0.951-2.03,0.951c-0.532,0-0.975-0.124-1.33-0.371
						c-0.354-0.246-0.639-0.591-0.854-1.028h-0.084v4.032h-1.526V119.081z M43.161,125.228c0.579,0,1.024-0.178,1.337-0.531
						c0.313-0.354,0.469-0.826,0.469-1.414v-1.176c0-0.589-0.156-1.061-0.469-1.414c-0.313-0.354-0.758-0.532-1.337-0.532
						c-0.224,0-0.434,0.028-0.63,0.084c-0.196,0.057-0.369,0.141-0.518,0.252c-0.149,0.112-0.269,0.25-0.357,0.413
						c-0.089,0.163-0.133,0.356-0.133,0.581v2.408c0,0.224,0.044,0.418,0.133,0.58c0.088,0.163,0.208,0.302,0.357,0.413
						c0.149,0.111,0.322,0.196,0.518,0.252C42.727,125.199,42.937,125.228,43.161,125.228z M51.938,117.766
						c-0.392,0-0.665-0.079-0.819-0.237c-0.154-0.158-0.231-0.354-0.231-0.588v-0.294c0-0.233,0.077-0.431,0.231-0.589
						c0.154-0.158,0.422-0.237,0.805-0.237c0.392,0,0.665,0.079,0.819,0.237c0.154,0.158,0.231,0.354,0.231,0.589v0.294
						c0,0.232-0.077,0.43-0.231,0.588C52.59,117.687,52.321,117.766,51.938,117.766z M48.705,125.073h2.464v-4.76h-2.464v-1.232
						h3.99v5.992h2.31v1.231h-6.3V125.073z M60.325,126.306c-0.635,0-1.102-0.171-1.4-0.512c-0.299-0.34-0.448-0.781-0.448-1.322
						v-4.157H56.25v-1.232h1.582c0.271,0,0.462-0.054,0.574-0.161c0.112-0.105,0.168-0.301,0.168-0.58v-1.807h1.428v2.548h3.08
						v1.232h-3.08v4.76h3.08v1.231H60.325z M70.979,126.306c-0.438,0-0.768-0.111-0.987-0.336c-0.219-0.225-0.353-0.519-0.399-0.882
						h-0.07c-0.14,0.438-0.394,0.779-0.763,1.021c-0.369,0.242-0.838,0.363-1.407,0.363c-0.737,0-1.325-0.193-1.764-0.581
						s-0.658-0.922-0.658-1.604c0-0.699,0.259-1.234,0.777-1.604c0.518-0.368,1.314-0.553,2.387-0.553h1.386v-0.561
						c0-0.979-0.518-1.471-1.554-1.471c-0.467,0-0.845,0.092-1.134,0.272c-0.289,0.183-0.532,0.423-0.728,0.722l-0.91-0.742
						c0.205-0.392,0.55-0.729,1.036-1.015c0.485-0.285,1.111-0.428,1.876-0.428c0.915,0,1.634,0.22,2.156,0.658
						c0.522,0.438,0.784,1.072,0.784,1.903v3.626h0.91v1.204h-0.938V126.306z M67.787,125.354c0.495,0,0.901-0.111,1.218-0.336
						s0.476-0.514,0.476-0.867V123.1h-1.358c-1.101,0-1.652,0.331-1.652,0.994v0.279c0,0.327,0.117,0.572,0.35,0.735
						C67.054,125.271,67.376,125.354,67.787,125.354z M73.541,125.073h2.394v-7.896h-2.394v-1.231h3.92v9.128h2.394v1.231h-6.314
						V125.073z M23.155,143.073h1.918v-4.76h-1.918v-1.232h3.444v1.918h0.084c0.065-0.252,0.159-0.494,0.28-0.728
						c0.122-0.233,0.275-0.438,0.462-0.609s0.415-0.313,0.686-0.42c0.271-0.107,0.588-0.161,0.952-0.161h0.868v1.456h-1.428
						c-0.56,0-1.017,0.166-1.372,0.497c-0.355,0.332-0.532,0.776-0.532,1.337v2.702h2.618v1.231h-6.062V143.073z M34.845,144.474
						c-0.551,0-1.045-0.089-1.484-0.267c-0.439-0.177-0.808-0.429-1.106-0.756c-0.298-0.326-0.527-0.721-0.686-1.184
						c-0.159-0.462-0.238-0.981-0.238-1.562c0-0.578,0.082-1.101,0.245-1.567c0.163-0.467,0.392-0.865,0.686-1.196
						c0.294-0.331,0.651-0.586,1.071-0.764s0.887-0.267,1.4-0.267c0.504,0,0.961,0.087,1.372,0.26
						c0.411,0.172,0.761,0.417,1.05,0.734c0.289,0.316,0.511,0.694,0.665,1.134c0.154,0.438,0.231,0.925,0.231,1.456v0.574h-5.18
						v0.237c0,0.569,0.177,1.033,0.532,1.394c0.354,0.358,0.844,0.539,1.47,0.539c0.467,0,0.866-0.102,1.197-0.301
						c0.331-0.2,0.6-0.47,0.805-0.806l0.952,0.84c-0.243,0.42-0.614,0.774-1.113,1.063
						C36.214,144.329,35.591,144.474,34.845,144.474z M34.732,138.075c-0.271,0-0.52,0.047-0.749,0.141
						c-0.229,0.093-0.424,0.227-0.588,0.398c-0.163,0.173-0.292,0.376-0.385,0.608c-0.093,0.233-0.14,0.49-0.14,0.771v0.099h3.626
						v-0.141c0-0.569-0.161-1.024-0.483-1.365C35.691,138.246,35.265,138.075,34.732,138.075z M44.659,143.073h-0.084
						c-0.215,0.438-0.5,0.782-0.854,1.028c-0.354,0.247-0.798,0.371-1.33,0.371c-0.849,0-1.526-0.316-2.03-0.951
						c-0.504-0.636-0.756-1.577-0.756-2.828s0.252-2.193,0.756-2.828c0.504-0.635,1.181-0.952,2.03-0.952
						c0.532,0,0.976,0.124,1.33,0.371s0.639,0.591,0.854,1.029h0.084v-1.232h1.526v10.024h-1.526V143.073z M43.021,143.228
						c0.224,0,0.434-0.027,0.63-0.084c0.196-0.056,0.369-0.141,0.518-0.252s0.269-0.25,0.357-0.413
						c0.089-0.162,0.133-0.356,0.133-0.58v-2.408c0-0.225-0.044-0.418-0.133-0.581c-0.088-0.163-0.208-0.301-0.357-0.413
						c-0.149-0.111-0.322-0.195-0.518-0.252c-0.196-0.056-0.406-0.084-0.63-0.084c-0.579,0-1.024,0.178-1.337,0.532
						c-0.313,0.354-0.469,0.825-0.469,1.414v1.176c0,0.588,0.156,1.06,0.469,1.414C41.997,143.05,42.442,143.228,43.021,143.228z
						 M52.989,143.073h-0.07c-0.075,0.187-0.17,0.366-0.287,0.539c-0.117,0.173-0.259,0.321-0.427,0.447s-0.364,0.228-0.588,0.302
						c-0.224,0.074-0.485,0.111-0.784,0.111c-0.728,0-1.316-0.237-1.764-0.714c-0.448-0.477-0.672-1.152-0.672-2.03v-4.647h1.526
						v4.425c0,1.147,0.499,1.722,1.498,1.722c0.196,0,0.388-0.024,0.574-0.076c0.186-0.053,0.354-0.128,0.504-0.231
						c0.149-0.103,0.269-0.229,0.357-0.385c0.089-0.153,0.133-0.338,0.133-0.553v-4.9h1.526v7.225h-1.526V143.073z M60.339,135.766
						c-0.392,0-0.665-0.078-0.819-0.237c-0.154-0.158-0.231-0.354-0.231-0.588v-0.294c0-0.233,0.077-0.431,0.231-0.589
						s0.422-0.237,0.805-0.237c0.392,0,0.665,0.079,0.819,0.237s0.231,0.354,0.231,0.589v0.294c0,0.232-0.077,0.43-0.231,0.588
						S60.721,135.766,60.339,135.766z M57.104,143.073h2.464v-4.76h-2.464v-1.232h3.99v5.992h2.31v1.231h-6.3V143.073z
						 M65.155,143.073h1.918v-4.76h-1.918v-1.232h3.444v1.918h0.084c0.065-0.252,0.159-0.494,0.28-0.728
						c0.122-0.233,0.275-0.438,0.462-0.609s0.415-0.313,0.686-0.42c0.271-0.107,0.588-0.161,0.952-0.161h0.868v1.456h-1.428
						c-0.56,0-1.017,0.166-1.372,0.497c-0.355,0.332-0.532,0.776-0.532,1.337v2.702h2.618v1.231h-6.062V143.073z M76.845,144.474
						c-0.551,0-1.045-0.089-1.484-0.267c-0.439-0.177-0.808-0.429-1.106-0.756c-0.298-0.326-0.527-0.721-0.686-1.184
						c-0.159-0.462-0.238-0.981-0.238-1.562c0-0.578,0.082-1.101,0.245-1.567c0.163-0.467,0.392-0.865,0.686-1.196
						c0.294-0.331,0.651-0.586,1.071-0.764s0.887-0.267,1.4-0.267c0.504,0,0.961,0.087,1.372,0.26
						c0.411,0.172,0.761,0.417,1.05,0.734c0.289,0.316,0.511,0.694,0.665,1.134c0.154,0.438,0.231,0.925,0.231,1.456v0.574h-5.18
						v0.237c0,0.569,0.177,1.033,0.532,1.394c0.354,0.358,0.844,0.539,1.47,0.539c0.467,0,0.866-0.102,1.197-0.301
						c0.331-0.2,0.6-0.47,0.805-0.806l0.952,0.84c-0.243,0.42-0.614,0.774-1.113,1.063
						C78.214,144.329,77.591,144.474,76.845,144.474z M76.732,138.075c-0.271,0-0.52,0.047-0.749,0.141
						c-0.229,0.093-0.424,0.227-0.588,0.398c-0.163,0.173-0.292,0.376-0.385,0.608c-0.093,0.233-0.14,0.49-0.14,0.771v0.099h3.626
						v-0.141c0-0.569-0.161-1.024-0.483-1.365C77.691,138.246,77.265,138.075,76.732,138.075z M86.659,143.073h-0.084
						c-0.215,0.438-0.5,0.782-0.854,1.028c-0.354,0.247-0.798,0.371-1.33,0.371c-0.849,0-1.526-0.316-2.03-0.951
						c-0.504-0.636-0.756-1.577-0.756-2.828s0.252-2.193,0.756-2.828c0.504-0.635,1.181-0.952,2.03-0.952
						c0.532,0,0.976,0.124,1.33,0.371s0.639,0.591,0.854,1.029h0.084v-4.368h1.526v10.359h-1.526V143.073z M85.021,143.228
						c0.224,0,0.434-0.027,0.63-0.084c0.196-0.056,0.369-0.141,0.518-0.252s0.269-0.25,0.357-0.413
						c0.089-0.162,0.133-0.356,0.133-0.58v-2.408c0-0.225-0.044-0.418-0.133-0.581c-0.088-0.163-0.208-0.301-0.357-0.413
						c-0.149-0.111-0.322-0.195-0.518-0.252c-0.196-0.056-0.406-0.084-0.63-0.084c-0.579,0-1.024,0.178-1.337,0.532
						c-0.313,0.354-0.469,0.825-0.469,1.414v1.176c0,0.588,0.156,1.06,0.469,1.414C83.997,143.05,84.442,143.228,85.021,143.228z
						 M26.725,162.306c-0.635,0-1.101-0.171-1.4-0.512c-0.299-0.34-0.448-0.781-0.448-1.322v-4.157H22.65v-1.232h1.582
						c0.271,0,0.462-0.054,0.574-0.161c0.112-0.105,0.168-0.301,0.168-0.58v-1.807h1.428v2.548h3.08v1.232h-3.08v4.76h3.08v1.231
						H26.725L26.725,162.306z M34.69,162.474c-0.532,0-1.01-0.089-1.435-0.267c-0.425-0.177-0.784-0.429-1.078-0.756
						c-0.294-0.326-0.521-0.724-0.679-1.189c-0.158-0.466-0.238-0.988-0.238-1.567s0.079-1.103,0.238-1.568s0.385-0.863,0.679-1.188
						c0.294-0.327,0.653-0.579,1.078-0.757c0.424-0.178,0.903-0.267,1.435-0.267c0.532,0,1.011,0.089,1.435,0.267
						c0.425,0.178,0.784,0.43,1.078,0.757c0.294,0.325,0.521,0.724,0.679,1.188c0.159,0.467,0.238,0.989,0.238,1.568
						s-0.079,1.102-0.238,1.567c-0.159,0.466-0.385,0.863-0.679,1.189c-0.294,0.327-0.653,0.579-1.078,0.756
						C35.701,162.385,35.223,162.474,34.69,162.474z M34.69,161.27c0.56,0,1.006-0.171,1.337-0.511
						c0.331-0.341,0.497-0.848,0.497-1.52v-1.092c0-0.673-0.166-1.18-0.497-1.521c-0.332-0.34-0.777-0.511-1.337-0.511
						s-1.005,0.171-1.337,0.511c-0.331,0.341-0.497,0.848-0.497,1.521v1.092c0,0.672,0.166,1.179,0.497,1.52
						C33.685,161.099,34.131,161.27,34.69,161.27z M48.396,155.081h1.526v1.231h0.084c0.214-0.438,0.499-0.781,0.854-1.028
						c0.354-0.247,0.798-0.371,1.33-0.371c0.85,0,1.526,0.317,2.03,0.952c0.504,0.635,0.756,1.577,0.756,2.828
						s-0.252,2.192-0.756,2.827c-0.504,0.636-1.181,0.952-2.03,0.952c-0.532,0-0.975-0.124-1.33-0.371
						c-0.355-0.246-0.64-0.591-0.854-1.028h-0.084v4.031h-1.526V155.081z M51.561,161.228c0.579,0,1.024-0.178,1.337-0.531
						c0.313-0.354,0.469-0.826,0.469-1.414v-1.176c0-0.589-0.156-1.061-0.469-1.414c-0.313-0.354-0.758-0.532-1.337-0.532
						c-0.224,0-0.434,0.028-0.63,0.084c-0.196,0.057-0.369,0.141-0.518,0.252c-0.149,0.112-0.268,0.25-0.357,0.413
						c-0.089,0.163-0.133,0.356-0.133,0.581v2.408c0,0.224,0.044,0.418,0.133,0.58c0.089,0.163,0.208,0.302,0.357,0.413
						s0.322,0.196,0.518,0.252C51.127,161.2,51.336,161.228,51.561,161.228z M62.579,162.306c-0.438,0-0.768-0.111-0.987-0.336
						c-0.22-0.225-0.353-0.519-0.399-0.882h-0.07c-0.14,0.438-0.394,0.779-0.763,1.021c-0.369,0.242-0.838,0.363-1.407,0.363
						c-0.737,0-1.325-0.193-1.764-0.581c-0.438-0.388-0.658-0.922-0.658-1.604c0-0.699,0.259-1.234,0.777-1.604
						c0.518-0.368,1.313-0.553,2.387-0.553h1.386v-0.561c0-0.979-0.518-1.471-1.554-1.471c-0.467,0-0.845,0.092-1.134,0.272
						c-0.289,0.183-0.532,0.423-0.728,0.722l-0.91-0.742c0.206-0.392,0.551-0.729,1.036-1.015s1.111-0.428,1.876-0.428
						c0.915,0,1.633,0.22,2.156,0.658c0.522,0.438,0.784,1.072,0.784,1.903v3.626h0.91v1.204h-0.938V162.306z M59.387,161.354
						c0.495,0,0.9-0.111,1.218-0.336c0.317-0.225,0.476-0.514,0.476-0.867V159.1h-1.358c-1.102,0-1.652,0.331-1.652,0.994v0.279
						c0,0.327,0.117,0.572,0.35,0.735S58.976,161.354,59.387,161.354z M70.405,155.081h1.54l-3.5,8.624
						c-0.187,0.467-0.432,0.817-0.735,1.051c-0.303,0.232-0.74,0.351-1.309,0.351h-1.218v-1.232h1.708l0.658-1.666l-2.912-7.126
						h1.596l1.148,3.024l0.896,2.478h0.084l0.896-2.478L70.405,155.081z M26.557,180.474c-0.542,0-1.024-0.089-1.449-0.267
						c-0.424-0.177-0.784-0.429-1.078-0.756c-0.294-0.326-0.518-0.724-0.672-1.189c-0.154-0.467-0.231-0.988-0.231-1.567
						s0.077-1.103,0.231-1.568c0.154-0.466,0.378-0.863,0.672-1.188c0.294-0.327,0.653-0.579,1.078-0.757
						c0.425-0.178,0.903-0.267,1.435-0.267c0.747,0,1.347,0.159,1.799,0.477c0.452,0.318,0.791,0.729,1.015,1.231l-1.19,0.645
						c-0.13-0.336-0.329-0.603-0.595-0.798c-0.266-0.195-0.609-0.294-1.029-0.294c-0.579,0-1.026,0.175-1.344,0.524
						c-0.317,0.351-0.476,0.813-0.476,1.394v1.203c0,0.57,0.159,1.032,0.476,1.387c0.317,0.355,0.774,0.532,1.372,0.532
						c0.448,0,0.814-0.104,1.099-0.309s0.511-0.485,0.679-0.84l1.12,0.686c-0.233,0.505-0.588,0.917-1.064,1.239
						C27.929,180.313,27.313,180.474,26.557,180.474z M31.541,179.073h2.394v-7.896h-2.394v-1.231h3.92v9.128h2.394v1.231h-6.314
						V179.073z M45.779,180.306c-0.439,0-0.768-0.111-0.987-0.336c-0.219-0.225-0.352-0.519-0.399-0.882h-0.07
						c-0.14,0.438-0.395,0.779-0.763,1.021c-0.369,0.242-0.837,0.363-1.407,0.363c-0.737,0-1.326-0.193-1.764-0.581
						s-0.658-0.922-0.658-1.604c0-0.699,0.259-1.234,0.777-1.604c0.518-0.368,1.313-0.553,2.387-0.553h1.386v-0.561
						c0-0.979-0.518-1.471-1.554-1.471c-0.467,0-0.845,0.092-1.134,0.272c-0.29,0.183-0.532,0.423-0.728,0.722l-0.91-0.742
						c0.206-0.392,0.551-0.729,1.036-1.015c0.485-0.285,1.11-0.428,1.876-0.428c0.915,0,1.633,0.22,2.156,0.658
						c0.523,0.438,0.784,1.072,0.784,1.903v3.626h0.91v1.204h-0.938V180.306z M42.586,179.354c0.495,0,0.901-0.111,1.218-0.336
						c0.317-0.225,0.476-0.514,0.476-0.867V177.1h-1.358c-1.102,0-1.652,0.331-1.652,0.994v0.279c0,0.327,0.117,0.572,0.35,0.735
						S42.176,179.354,42.586,179.354z M51.938,171.766c-0.392,0-0.665-0.078-0.819-0.237c-0.154-0.158-0.231-0.354-0.231-0.588
						v-0.294c0-0.233,0.077-0.431,0.231-0.589c0.154-0.158,0.422-0.237,0.805-0.237c0.392,0,0.665,0.079,0.819,0.237
						c0.154,0.158,0.231,0.354,0.231,0.589v0.294c0,0.232-0.077,0.43-0.231,0.588C52.59,171.687,52.321,171.766,51.938,171.766z
						 M48.705,179.073h2.464v-4.76h-2.464v-1.232h3.99v5.992h2.31v1.231h-6.3V179.073z M56.307,180.306v-7.225h1.302v0.938h0.07
						c0.112-0.309,0.273-0.568,0.483-0.783c0.21-0.216,0.511-0.322,0.903-0.322c0.383,0,0.679,0.104,0.889,0.314
						c0.21,0.211,0.343,0.497,0.399,0.861h0.056c0.13-0.327,0.313-0.604,0.546-0.833c0.233-0.229,0.569-0.344,1.008-0.344
						c0.56,0,0.95,0.196,1.169,0.588c0.219,0.393,0.329,0.967,0.329,1.723v5.082h-1.302v-4.887c0-0.504-0.061-0.852-0.182-1.043
						c-0.121-0.19-0.317-0.286-0.588-0.286c-0.243,0-0.446,0.081-0.609,0.244c-0.164,0.164-0.245,0.409-0.245,0.735v5.235h-1.302
						v-4.887c0-0.504-0.058-0.852-0.175-1.043c-0.117-0.19-0.311-0.286-0.581-0.286c-0.252,0-0.459,0.081-0.623,0.244
						c-0.163,0.164-0.245,0.409-0.245,0.735v5.235h-1.302V180.306z M68.305,180.474c-0.784,0-1.458-0.126-2.023-0.378
						c-0.565-0.252-1.02-0.588-1.365-1.008l0.938-0.841c0.317,0.346,0.674,0.609,1.071,0.791c0.396,0.183,0.866,0.272,1.407,0.272
						c0.495,0,0.894-0.084,1.197-0.252c0.303-0.168,0.455-0.43,0.455-0.783c0-0.149-0.028-0.275-0.084-0.378
						c-0.056-0.104-0.135-0.188-0.238-0.253c-0.103-0.064-0.222-0.116-0.357-0.153c-0.135-0.037-0.278-0.065-0.427-0.084
						l-1.148-0.183c-0.28-0.037-0.564-0.099-0.854-0.183c-0.289-0.084-0.548-0.202-0.777-0.356c-0.229-0.153-0.416-0.353-0.56-0.595
						c-0.145-0.243-0.217-0.551-0.217-0.925c0-0.737,0.282-1.297,0.847-1.68c0.565-0.384,1.309-0.574,2.233-0.574
						c0.672,0,1.253,0.101,1.743,0.302c0.49,0.2,0.898,0.479,1.225,0.833l-0.854,0.896c-0.187-0.216-0.453-0.413-0.798-0.596
						c-0.345-0.183-0.803-0.272-1.372-0.272c-1.018,0-1.526,0.321-1.526,0.966c0,0.309,0.109,0.521,0.329,0.638
						c0.22,0.116,0.479,0.193,0.777,0.23l1.148,0.183c0.289,0.046,0.576,0.107,0.861,0.183c0.285,0.074,0.542,0.188,0.77,0.343
						c0.229,0.153,0.416,0.353,0.56,0.595c0.145,0.243,0.217,0.551,0.217,0.925c0,0.729-0.282,1.3-0.847,1.715
						C70.071,180.266,69.294,180.474,68.305,180.474z"/>
					<path id="MCR_1_" fill="#1F2124" fill-opacity="0.6" d="M152.518,127.477l0.042-2.939h-0.112l-1.96,5.025l-1.96-5.025h-0.112
						l0.042,2.939v4.677h-1.386v-9.771h1.918l1.498,3.878h0.098l1.512-3.878h1.806v9.771h-1.386V127.477z M159.168,132.32
						c-1.242,0-2.163-0.438-2.765-1.315c-0.602-0.878-0.903-2.124-0.903-3.738c0-1.613,0.301-2.859,0.903-3.737
						c0.602-0.877,1.523-1.315,2.765-1.315c0.476,0,0.889,0.063,1.239,0.188c0.35,0.125,0.651,0.299,0.903,0.519
						c0.252,0.219,0.464,0.477,0.637,0.771c0.173,0.294,0.315,0.608,0.427,0.944l-1.414,0.477c-0.075-0.225-0.159-0.435-0.252-0.63
						c-0.093-0.196-0.21-0.364-0.35-0.505c-0.14-0.14-0.306-0.252-0.497-0.336s-0.427-0.126-0.707-0.126
						c-0.691,0-1.195,0.265-1.512,0.791c-0.317,0.527-0.476,1.239-0.476,2.136v1.651c0,0.896,0.159,1.607,0.476,2.135
						c0.317,0.528,0.821,0.791,1.512,0.791c0.28,0,0.516-0.042,0.707-0.126s0.357-0.195,0.497-0.336
						c0.14-0.14,0.256-0.308,0.35-0.504c0.094-0.195,0.178-0.405,0.252-0.63l1.414,0.477c-0.112,0.336-0.254,0.65-0.427,0.944
						c-0.173,0.294-0.385,0.552-0.637,0.771c-0.252,0.22-0.553,0.393-0.903,0.519C160.057,132.26,159.644,132.32,159.168,132.32z
						 M165.818,132.152h-1.554v-9.771h3.654c0.933,0,1.645,0.261,2.135,0.784c0.49,0.521,0.735,1.241,0.735,2.155
						c0,0.747-0.182,1.362-0.546,1.849c-0.364,0.485-0.887,0.783-1.568,0.896l2.254,4.088h-1.736l-2.072-3.947h-1.302V132.152z
						 M167.694,126.944c0.971,0,1.456-0.443,1.456-1.33v-0.603c0-0.887-0.485-1.33-1.456-1.33h-1.876v3.263H167.694z"/>
					<path id="Line-2" fill="none" stroke="#1F2124" stroke-width="1.5371" stroke-linecap="square" stroke-opacity="0.6" d="
						M127.5,110.659h64.984"/>
				</g>
				<path id="Line-3" fill="#1F2124" fill-opacity="0.6" d="M528.181,140.044H347.57h-0.769v-1.537h0.769H528.18v-5.074l12,5.844
					l-12,5.843L528.181,140.044L528.181,140.044z"/>
				<g id="Group-6" transform="translate(222.000000, 32.000000)">
					<path id="_x3D_-MCR-_x25_" fill="#1F2124" fill-opacity="0.6" d="M0.53,106.582v-1.71h9.146v1.71H0.53z M0.53,110.655v-1.71
						h9.146v1.71H0.53z M54.001,107.216l0.058-4.034h-0.154l-2.69,6.897l-2.69-6.897h-0.154l0.058,4.034v6.418h-1.902v-13.411h2.632
						l2.056,5.322h0.135l2.075-5.322h2.479v13.411h-1.902L54.001,107.216L54.001,107.216z M63.128,113.864
						c-1.704,0-2.969-0.604-3.795-1.808s-1.239-2.914-1.239-5.13s0.413-3.926,1.239-5.13s2.091-1.806,3.795-1.806
						c0.653,0,1.22,0.086,1.7,0.259s0.894,0.41,1.239,0.711c0.346,0.302,0.637,0.653,0.874,1.057
						c0.237,0.404,0.433,0.836,0.586,1.298l-1.941,0.652c-0.103-0.307-0.218-0.595-0.346-0.864c-0.128-0.269-0.288-0.498-0.48-0.69
						c-0.192-0.192-0.419-0.346-0.682-0.461c-0.262-0.115-0.586-0.173-0.97-0.173c-0.948,0-1.64,0.36-2.075,1.085
						c-0.436,0.724-0.653,1.7-0.653,2.931v2.267c0,1.229,0.218,2.206,0.653,2.931c0.435,0.725,1.127,1.086,2.075,1.086
						c0.384,0,0.708-0.059,0.97-0.173c0.263-0.115,0.49-0.27,0.682-0.461c0.192-0.192,0.353-0.423,0.48-0.691
						c0.128-0.27,0.243-0.558,0.346-0.865l1.941,0.653c-0.154,0.461-0.349,0.894-0.586,1.297c-0.237,0.403-0.528,0.756-0.874,1.057
						c-0.346,0.302-0.759,0.538-1.239,0.712C64.348,113.779,63.781,113.864,63.128,113.864z M72.254,113.634h-2.132v-13.411h5.015
						c1.281,0,2.257,0.358,2.93,1.076c0.672,0.717,1.008,1.703,1.008,2.959c0,1.024-0.25,1.87-0.749,2.536s-1.217,1.075-2.152,1.229
						l3.093,5.609h-2.382l-2.844-5.419h-1.787V113.634z M74.829,106.486c1.333,0,1.999-0.608,1.999-1.825v-0.826
						c0-1.217-0.666-1.825-1.999-1.825h-2.575v4.478L74.829,106.486L74.829,106.486z M94.772,106.947
						c-0.884,0-1.592-0.298-2.123-0.895c-0.532-0.596-0.797-1.457-0.797-2.584s0.266-1.987,0.797-2.584
						c0.531-0.596,1.239-0.894,2.123-0.894c0.884,0,1.591,0.298,2.123,0.894c0.531,0.597,0.798,1.457,0.798,2.584
						s-0.268,1.988-0.798,2.584C96.364,106.649,95.656,106.947,94.772,106.947z M94.772,105.641c0.422,0,0.749-0.149,0.979-0.45
						c0.231-0.302,0.346-0.722,0.346-1.26v-0.922c0-0.538-0.115-0.958-0.346-1.259c-0.23-0.301-0.557-0.451-0.979-0.451
						c-0.423,0-0.75,0.15-0.98,0.451s-0.346,0.721-0.346,1.259v0.922c0,0.538,0.115,0.958,0.346,1.26
						C94.023,105.491,94.35,105.641,94.772,105.641z M101.15,100.223h1.729l-3.019,5.765h-1.709L101.15,100.223z M94.792,107.869
						h1.71l-2.997,5.765h-1.729L94.792,107.869z M99.883,113.864c-0.884,0-1.592-0.298-2.123-0.895
						c-0.531-0.596-0.797-1.457-0.797-2.584c0-1.128,0.266-1.988,0.797-2.585c0.531-0.595,1.239-0.893,2.123-0.893
						c0.885,0,1.592,0.298,2.123,0.893c0.531,0.597,0.799,1.457,0.799,2.585c0,1.127-0.268,1.988-0.799,2.584
						C101.475,113.566,100.768,113.864,99.883,113.864z M99.883,112.558c0.424,0,0.75-0.149,0.98-0.45
						c0.229-0.303,0.346-0.722,0.346-1.26v-0.922c0-0.538-0.115-0.958-0.346-1.259c-0.231-0.301-0.559-0.452-0.98-0.452
						s-0.749,0.151-0.979,0.452c-0.23,0.301-0.346,0.721-0.346,1.259v0.922c0,0.538,0.114,0.957,0.346,1.26
						C99.134,112.407,99.461,112.558,99.883,112.558z"/>
					<g id="Group-2" transform="translate(17.399709, 0.256110)">
						<g id="Group_2_" transform="translate(5.379769, 0.384269)">
							
								<linearGradient id="Path-2_1_" gradientUnits="userSpaceOnUse" x1="-363.2575" y1="1.1565" x2="-362.2575" y2="1.1565" gradientTransform="matrix(384.2496 0 0 196.3616 139581.9063 -121.3201)">
								<stop  offset="0" style="stop-color:#1EAB89;stop-opacity:0"/>
								<stop  offset="1" style="stop-color:#1EAB89;stop-opacity:0.2"/>
							</linearGradient>
							<path id="Path-2" fill="url(#Path-2_1_)" d="M0.384,185.409c53.971-0.946,92.27-2.1,114.897-3.458
								c32.719-1.967,62.06-3.735,86.076-8.263c116.816-24.465,177.66-79.8,182.526-166.004l0.749,191.342
								c0.012,2.762-2.219,5.01-4.979,5.021c-0.006,0-0.013,0-0.021,0H0.384V185.409z"/>
							<path id="Combined-Shape_1_" fill="#1EAB89" d="M0,184.031l147.176-4c152.17-13.962,230.817-73.894,235.94-179.794h1.153
								v14.945c-12.35,98.359-91.38,153.886-237.095,166.577L0,186.137V184.031z"/>
							
								<g id="Rectangle-2" transform="translate(146.779521, 180.210941) rotate(-315.000000) translate(-146.779521, -180.210941) ">
								<g filter="url(#filter-13)">
									<rect id="path-12_3_" x="142.168" y="175.6" width="9.223" height="9.223"/>
								</g>
								<g>
									<rect id="path-12_1_" x="142.168" y="175.6" fill="#1EAB89" width="9.223" height="9.223"/>
								</g>
							</g>
							
								<rect id="Rectangle-2_1_" x="144.342" y="177.776" transform="matrix(0.7071 0.7071 -0.7071 0.7071 170.4235 -51.0065)" fill="#58CD9E" width="4.879" height="4.879"/>
						</g>
						<g id="Oval_2_">
							<g filter="url(#filter-15)">
								<circle id="path-14_3_" cx="5.38" cy="185.218" r="5.38"/>
							</g>
							<g>
								<circle id="path-14_1_" fill="#1EAB89" cx="5.38" cy="185.218" r="5.38"/>
							</g>
						</g>
						<g id="Oval_3_">
							<g filter="url(#filter-17)">
								<circle id="path-16_3_" cx="389.649" cy="5.38" r="5.38"/>
							</g>
							<g>
								<circle id="path-16_1_" fill="#1EAB89" cx="389.649" cy="5.38" r="5.38"/>
							</g>
						</g>
						<circle id="Oval-2" fill="#58CD9E" cx="5.38" cy="185.218" r="3.074"/>
						<path id="Triangle_2_" fill="#58CD9E" d="M390.06,2.927l2.13,3.449c0.223,0.36,0.109,0.834-0.251,1.057
							c-0.133,0.082-0.287,0.121-0.443,0.113l-3.978-0.207c-0.424-0.022-0.75-0.385-0.729-0.809c0.008-0.156,0.063-0.307,0.159-0.43
							l2.479-3.209c0.13-0.168,0.371-0.197,0.539-0.068C390.005,2.851,390.036,2.886,390.06,2.927z"/>
					</g>
				</g>
			</g>
			<g id="Graph-3:-Formula-" transform="translate(639.000000, 2847.000000)">
				<g id="Group_4_" transform="translate(10.000000, 0.000000)">
					<g id="Path_4_">
						<g filter="url(#filter-2)">
							<path id="path-1_5_" d="M-643.854-2847h624.708c2.843,0,5.146,2.239,5.146,5v179c0,2.763-2.304,5-5.146,5h-624.708
								c-2.842,0-5.146-2.237-5.146-5v-179C-649-2844.761-646.696-2847-643.854-2847z"/>
						</g>
						<g>
							<path id="path-1_4_" fill="#FFFFFF" d="M-643.854-2847h624.708c2.843,0,5.146,2.239,5.146,5v179c0,2.763-2.304,5-5.146,5
								h-624.708c-2.842,0-5.146-2.237-5.146-5v-179C-649-2844.761-646.696-2847-643.854-2847z"/>
						</g>
					</g>
					<g>
						<g enable-background="new    ">
							<g>
								<path fill="#1F2124" d="M-521.407-2747.572v-11.168h4.176c1.066,0,1.88,0.298,2.44,0.895c0.56,0.597,0.84,1.416,0.84,2.458
									c0,1.043-0.28,1.862-0.84,2.459c-0.56,0.596-1.374,0.894-2.44,0.894h-2.384v4.464h-1.792V-2747.572z M-519.615-2753.508
									h2.112c1.109,0,1.664-0.515,1.664-1.543v-0.691c0-1.017-0.555-1.525-1.664-1.525h-2.112V-2753.508z"/>
								<path fill="#1F2124" d="M-511.936-2748.996h2.192v-5.408h-2.192v-1.424H-508v2.191h0.096
									c0.074-0.287,0.181-0.564,0.32-0.832c0.139-0.266,0.314-0.498,0.528-0.695c0.213-0.197,0.474-0.357,0.784-0.48
									c0.31-0.122,0.672-0.184,1.088-0.184h0.992v1.664h-1.632c-0.64,0-1.163,0.188-1.568,0.565
									c-0.405,0.377-0.608,0.885-0.608,1.522v3.079h2.992v1.424h-6.928V-2748.996L-511.936-2748.996z"/>
								<path fill="#1F2124" d="M-501.935-2748.996h2.816v-5.408h-2.816v-1.424h4.56v6.832h2.64v1.424h-7.2V-2748.996z
									 M-498.239-2757.332c-0.448,0-0.76-0.091-0.936-0.272c-0.176-0.181-0.264-0.405-0.264-0.672v-0.336
									c0-0.267,0.088-0.49,0.264-0.672c0.176-0.182,0.482-0.272,0.92-0.272c0.448,0,0.76,0.091,0.936,0.272
									c0.176,0.182,0.264,0.405,0.264,0.672v0.336c0,0.268-0.088,0.491-0.264,0.672
									C-497.495-2757.423-497.802-2757.332-498.239-2757.332z"/>
								<path fill="#1F2124" d="M-488.847-2747.38c-0.619,0-1.171-0.102-1.656-0.305c-0.486-0.202-0.896-0.49-1.232-0.863
									c-0.336-0.374-0.592-0.827-0.768-1.36c-0.176-0.533-0.264-1.131-0.264-1.792c0-0.661,0.088-1.259,0.264-1.792
									c0.176-0.533,0.432-0.986,0.768-1.36c0.336-0.373,0.747-0.661,1.232-0.863c0.485-0.203,1.032-0.305,1.64-0.305
									c0.854,0,1.539,0.18,2.056,0.538c0.517,0.359,0.904,0.825,1.16,1.398l-1.36,0.735c-0.149-0.384-0.376-0.688-0.68-0.912
									c-0.304-0.225-0.696-0.336-1.176-0.336c-0.662,0-1.173,0.202-1.536,0.604c-0.362,0.402-0.544,0.938-0.544,1.603v1.383
									c0,0.654,0.182,1.186,0.544,1.594c0.363,0.407,0.885,0.61,1.568,0.61c0.512,0,0.93-0.117,1.256-0.352
									c0.325-0.234,0.584-0.555,0.776-0.96l1.28,0.784c-0.267,0.573-0.672,1.042-1.216,1.406
									C-487.279-2747.563-487.983-2747.38-488.847-2747.38z"/>
								<path fill="#1F2124" d="M-479.375-2747.38c-0.629,0-1.195-0.102-1.696-0.305c-0.501-0.202-0.922-0.49-1.264-0.863
									c-0.342-0.374-0.603-0.824-0.784-1.353c-0.182-0.528-0.272-1.122-0.272-1.784c0-0.661,0.093-1.258,0.28-1.792
									c0.186-0.533,0.448-0.989,0.784-1.368c0.336-0.378,0.744-0.669,1.224-0.871c0.48-0.203,1.013-0.305,1.6-0.305
									c0.576,0,1.098,0.099,1.568,0.296c0.469,0.198,0.869,0.478,1.2,0.841c0.33,0.362,0.584,0.794,0.76,1.296
									c0.176,0.501,0.264,1.056,0.264,1.664v0.655h-5.92v0.271c0,0.646,0.202,1.174,0.608,1.582
									c0.405,0.408,0.965,0.611,1.68,0.611c0.533,0,0.989-0.113,1.368-0.342c0.378-0.229,0.685-0.532,0.92-0.913l1.088,0.962
									c-0.277,0.48-0.701,0.889-1.272,1.22C-477.811-2747.546-478.522-2747.38-479.375-2747.38z M-479.503-2754.692
									c-0.31,0-0.595,0.054-0.856,0.16c-0.262,0.106-0.486,0.259-0.672,0.456c-0.186,0.197-0.333,0.43-0.44,0.696
									c-0.107,0.266-0.16,0.56-0.16,0.88v0.111h4.144v-0.159c0-0.651-0.184-1.171-0.552-1.561
									C-478.408-2754.497-478.896-2754.692-479.503-2754.692z"/>
								<path fill="#1F2124" d="M-464.16-2753.444v-1.424h7.616v1.424H-464.16z M-464.16-2750.053v-1.424h7.616v1.424H-464.16z"/>
							</g>
						</g>
						<g opacity="0.6" enable-background="new    ">
							<g>
								<path fill="#1F2124" d="M-422.114-2747.572l-0.848-2.992h-3.552l-0.848,2.992h-1.824l3.264-11.168h2.448l3.264,11.168
									H-422.114z M-424.674-2756.933h-0.128l-1.376,4.896h2.88L-424.674-2756.933z"/>
								<path fill="#1F2124" d="M-406.291-2748.564v-3.184h-3.024v-1.424h3.024v-3.186h1.568v3.186h3.024v1.424h-3.024v3.184
									H-406.291z"/>
							</g>
						</g>
						<g enable-background="new    ">
							<g>
								<path opacity="0.6" fill="#1F2124" d="M-211.149-2748.572l3.071-4.191l-2.943-4.063h2.031l1.088,1.567l0.865,1.248h0.096
									l0.849-1.248l1.088-1.567h1.889l-2.961,4l3.104,4.256h-2.049l-1.231-1.776l-0.848-1.216h-0.097l-0.832,1.216l-1.217,1.776
									h-1.903V-2748.572z"/>
								<path fill="#1F2124" d="M-185.55-2753.916l0.048-3.36h-0.128l-2.24,5.744l-2.239-5.744h-0.129l0.049,3.36v5.344h-1.584
									v-11.168h2.191l1.712,4.432h0.112l1.729-4.432h2.063v11.168h-1.584V-2753.916z"/>
								<path fill="#1F2124" d="M-177.949-2748.38c-1.42,0-2.473-0.502-3.16-1.504c-0.688-1.003-1.031-2.427-1.031-4.272
									s0.344-3.27,1.031-4.272c0.688-1.002,1.74-1.504,3.16-1.504c0.543,0,1.017,0.071,1.416,0.214
									c0.399,0.144,0.743,0.338,1.031,0.586s0.531,0.539,0.729,0.874c0.198,0.335,0.359,0.694,0.488,1.078l-1.617,0.544
									c-0.085-0.256-0.182-0.495-0.287-0.72c-0.106-0.225-0.239-0.416-0.399-0.576c-0.16-0.159-0.351-0.288-0.568-0.384
									c-0.218-0.096-0.487-0.145-0.808-0.145c-0.79,0-1.366,0.302-1.729,0.907c-0.362,0.604-0.545,1.421-0.545,2.449v1.895
									c0,1.028,0.183,1.845,0.545,2.449c0.361,0.605,0.938,0.907,1.729,0.907c0.318,0,0.589-0.048,0.808-0.145
									c0.22-0.096,0.408-0.225,0.568-0.384c0.16-0.16,0.293-0.353,0.399-0.576c0.105-0.225,0.202-0.464,0.287-0.72l1.617,0.544
									c-0.129,0.384-0.291,0.743-0.488,1.078c-0.196,0.335-0.439,0.626-0.729,0.874s-0.632,0.443-1.031,0.586
									C-176.934-2748.451-177.406-2748.38-177.949-2748.38z"/>
								<path fill="#1F2124" d="M-170.35-2748.572h-1.776v-11.168h4.176c1.066,0,1.88,0.298,2.44,0.895
									c0.56,0.597,0.84,1.416,0.84,2.459c0,0.852-0.209,1.554-0.625,2.106c-0.416,0.553-1.013,0.896-1.791,1.021l2.576,4.687
									h-1.984l-2.368-4.528h-1.486L-170.35-2748.572L-170.35-2748.572z M-168.206-2754.524c1.108,0,1.664-0.509,1.664-1.526
									v-0.691c0-1.017-0.556-1.526-1.664-1.526h-2.144v3.744h2.144V-2754.524z"/>
								<path fill="#1F2124" d="M-161.183-2753.372h1.424l-2.495,4.8h-1.441L-161.183-2753.372z M-161.199-2754.141
									c-0.734,0-1.324-0.248-1.768-0.743c-0.442-0.496-0.664-1.214-0.664-2.152s0.222-1.656,0.664-2.152s1.032-0.744,1.768-0.744
									c0.736,0,1.326,0.248,1.77,0.744c0.442,0.496,0.664,1.214,0.664,2.152s-0.223,1.656-0.664,2.152
									C-159.873-2754.389-160.463-2754.141-161.199-2754.141z M-161.199-2755.229c0.354,0,0.625-0.125,0.816-0.376
									c0.191-0.25,0.288-0.6,0.288-1.048v-0.768c0-0.448-0.097-0.798-0.288-1.049c-0.191-0.25-0.464-0.376-0.816-0.376
									c-0.352,0-0.623,0.126-0.814,0.376c-0.192,0.251-0.288,0.601-0.288,1.049v0.768c0,0.448,0.096,0.798,0.288,1.048
									C-161.822-2755.354-161.551-2755.229-161.199-2755.229z M-156.942-2748.38c-0.735,0-1.324-0.248-1.769-0.744
									c-0.442-0.496-0.664-1.214-0.664-2.152s0.222-1.656,0.664-2.152c0.443-0.495,1.032-0.743,1.769-0.743
									c0.735,0,1.325,0.248,1.769,0.743c0.441,0.496,0.664,1.214,0.664,2.152s-0.223,1.656-0.664,2.152
									C-155.616-2748.628-156.207-2748.38-156.942-2748.38z M-155.887-2759.74h1.438l-2.512,4.8h-1.424L-155.887-2759.74z
									 M-156.942-2749.469c0.353,0,0.624-0.125,0.815-0.376c0.192-0.25,0.289-0.601,0.289-1.048v-0.768
									c0-0.448-0.097-0.797-0.289-1.048c-0.191-0.251-0.464-0.376-0.815-0.376c-0.353,0-0.624,0.125-0.815,0.376
									c-0.192,0.251-0.288,0.6-0.288,1.048v0.768c0,0.448,0.096,0.798,0.288,1.048
									C-157.566-2749.594-157.295-2749.469-156.942-2749.469z"/>
							</g>
						</g>
						<g opacity="0.6" enable-background="new    ">
							<g>
								<path fill="#1F2124" d="M-305.496-2728.38c-1.42,0-2.473-0.502-3.16-1.504c-0.688-1.003-1.031-2.427-1.031-4.272
									s0.344-3.27,1.031-4.272c0.688-1.002,1.74-1.504,3.16-1.504c0.543,0,1.016,0.071,1.416,0.214
									c0.398,0.144,0.743,0.338,1.031,0.586c0.287,0.248,0.531,0.539,0.729,0.874c0.198,0.335,0.359,0.694,0.488,1.078
									l-1.617,0.544c-0.085-0.256-0.182-0.495-0.287-0.72c-0.106-0.225-0.24-0.416-0.399-0.576
									c-0.16-0.159-0.351-0.288-0.568-0.384c-0.218-0.096-0.487-0.145-0.808-0.145c-0.79,0-1.366,0.302-1.729,0.907
									c-0.363,0.604-0.545,1.421-0.545,2.449v1.895c0,1.028,0.182,1.845,0.545,2.449c0.361,0.605,0.938,0.907,1.729,0.907
									c0.318,0,0.589-0.048,0.808-0.145c0.22-0.096,0.408-0.225,0.568-0.384c0.159-0.16,0.293-0.353,0.399-0.576
									c0.105-0.225,0.202-0.464,0.287-0.72l1.617,0.544c-0.129,0.384-0.291,0.743-0.488,1.078s-0.439,0.626-0.729,0.874
									s-0.633,0.443-1.031,0.586C-304.48-2728.451-304.953-2728.38-305.496-2728.38z"/>
							</g>
						</g>
						<path id="Line-2_2_" fill="none" stroke="#1F2124" stroke-width="2" stroke-linecap="square" stroke-opacity="0.6" d="
							M-355.816-2753.072h100"/>
						<g enable-background="new    ">
							<g>
								<path fill="#1F2124" d="M-143.582-2760.572v-1.904h-4.646v-1.344l4.088-6.523h2.058v6.622h1.373v1.246h-1.373v1.904
									L-143.582-2760.572L-143.582-2760.572z M-146.899-2763.723h3.317v-5.18h-0.084L-146.899-2763.723z"/>
							</g>
						</g>
						<g opacity="0.6">
							<g enable-background="new    ">
								<g>
									<path fill="#1F2124" d="M-326.172-2771.916l0.049-3.36h-0.129l-2.24,5.744l-2.239-5.744h-0.128l0.048,3.36v5.344h-1.584
										v-11.168h2.192l1.711,4.432h0.113l1.729-4.432h2.063v11.168h-1.584V-2771.916L-326.172-2771.916z"/>
									<path fill="#1F2124" d="M-318.572-2766.38c-1.418,0-2.472-0.502-3.16-1.504c-0.688-1.003-1.031-2.427-1.031-4.272
										s0.345-3.27,1.031-4.272c0.688-1.002,1.742-1.504,3.16-1.504c0.545,0,1.018,0.071,1.416,0.214
										c0.4,0.144,0.744,0.338,1.032,0.586s0.53,0.539,0.728,0.874c0.198,0.335,0.36,0.694,0.488,1.078l-1.615,0.544
										c-0.086-0.256-0.182-0.495-0.289-0.72c-0.104-0.225-0.238-0.416-0.398-0.576c-0.16-0.159-0.35-0.288-0.566-0.384
										c-0.22-0.096-0.488-0.145-0.81-0.145c-0.789,0-1.365,0.302-1.729,0.907c-0.361,0.604-0.543,1.421-0.543,2.449v1.895
										c0,1.028,0.182,1.845,0.543,2.449c0.363,0.605,0.939,0.907,1.729,0.907c0.319,0,0.59-0.048,0.81-0.145
										c0.217-0.096,0.406-0.225,0.566-0.384c0.16-0.16,0.294-0.353,0.398-0.576c0.107-0.225,0.203-0.464,0.289-0.72l1.615,0.544
										c-0.128,0.384-0.291,0.743-0.488,1.078c-0.196,0.335-0.438,0.626-0.728,0.874s-0.632,0.443-1.032,0.586
										C-317.557-2766.451-318.027-2766.38-318.572-2766.38z"/>
									<path fill="#1F2124" d="M-310.973-2766.572h-1.775v-11.168h4.176c1.066,0,1.881,0.298,2.44,0.895
										c0.56,0.597,0.84,1.416,0.84,2.459c0,0.852-0.208,1.554-0.624,2.106c-0.416,0.553-1.014,0.896-1.792,1.021l2.576,4.687
										h-1.983l-2.369-4.528h-1.486v4.528H-310.973z M-308.828-2772.524c1.109,0,1.664-0.509,1.664-1.526v-0.691
										c0-1.017-0.555-1.526-1.664-1.526h-2.145v3.744h2.145V-2772.524z"/>
								</g>
							</g>
							<g enable-background="new    ">
								<g>
									<path fill="#1F2124" d="M-302.338-2760.572v-9.771h6.117v1.315h-4.549v2.842h4.381v1.316h-4.381v2.981h4.549v1.316
										L-302.338-2760.572L-302.338-2760.572z"/>
									<path fill="#1F2124" d="M-290.158-2769.028v8.456h-1.568v-8.456h-3.064v-1.315h7.7v1.315H-290.158z"/>
									<path fill="#1F2124" d="M-280.918-2764.87h-3.248v4.298h-1.568v-9.771h1.568v4.158h3.248v-4.158h1.568v9.771h-1.568
										V-2764.87z"/>
								</g>
							</g>
						</g>
						<path id="Path-3_6_" fill="none" stroke="#1F2124" stroke-width="2" stroke-opacity="0.6" d="M-374.973-2780.572
							c0,0-7.936,14.181-7.936,27.5c0,14.156,7.936,27.5,7.936,27.5"/>
						<path id="Path-3_2_" fill="none" stroke="#1F2124" stroke-width="2" stroke-opacity="0.6" d="M-236.66-2780.572
							c0,0,7.937,14.181,7.937,27.5c0,14.156-7.937,27.5-7.937,27.5"/>
					</g>
				</g>
			</g>
		</g>
	</g>
</g>
</svg>
