<?xml version="1.0" encoding="utf-8"?>
<!-- Generator: Adobe Illustrator 16.0.0, SVG Export Plug-In . SVG Version: 6.00 Build 0)  -->
<!DOCTYPE svg PUBLIC "-//W3C//DTD SVG 1.1//EN" "http://www.w3.org/Graphics/SVG/1.1/DTD/svg11.dtd">
<svg version="1.1" id="Layer_1" xmlns="http://www.w3.org/2000/svg" xmlns:xlink="http://www.w3.org/1999/xlink" x="0px" y="0px"
	 width="580px" height="190px" viewBox="0 0 580 190" enable-background="new 0 0 580 190" xml:space="preserve">
<filter  height="143.9%" width="113.5%" id="filter-2" filterUnits="objectBoundingBox" y="-17.7%" x="-5.9%">
	<feOffset  result="shadowOffsetOuter1" in="SourceAlpha" dy="6" dx="4"></feOffset>
	<feGaussianBlur  stdDeviation="11.5" result="shadowBlurOuter1" in="shadowOffsetOuter1"></feGaussianBlur>
	
		<feColorMatrix  type="matrix" values="0 0 0 0 0.792156863   0 0 0 0 0.823529412   0 0 0 0 0.878431373  0 0 0 0.7 0" result="shadowMatrixOuter1" in="shadowBlurOuter1">
		</feColorMatrix>
	<feOffset  result="shadowOffsetOuter2" in="SourceAlpha" dy="2" dx="1"></feOffset>
	<feGaussianBlur  stdDeviation="2" result="shadowBlurOuter2" in="shadowOffsetOuter2"></feGaussianBlur>
	
		<feColorMatrix  type="matrix" values="0 0 0 0 0.784313725   0 0 0 0 0.823529412   0 0 0 0 0.882352941  0 0 0 1 0" result="shadowMatrixOuter2" in="shadowBlurOuter2">
		</feColorMatrix>
	<feMerge>
		<feMergeNode  in="shadowMatrixOuter1"></feMergeNode>
		<feMergeNode  in="shadowMatrixOuter2"></feMergeNode>
	</feMerge>
</filter>
<g id="Page-1">
	<g id="Token-Model-Page" transform="translate(-630.000000, -2830.000000)">
		<g id="Graph-3:-Formula-" transform="translate(639.000000, 2847.000000)">
			<g id="Group" transform="translate(10.000000, 0.000000)">
				<g id="Path">
					<g filter="url(#filter-2)">
						<path id="path-1_2_" d="M3.245,1.167h535.51c2.438,0,4.411,1.82,4.411,4.065v145.536c0,2.246-1.975,4.063-4.411,4.063H3.245
							c-2.436,0-4.411-1.817-4.411-4.063V5.232C-1.166,2.987,0.809,1.167,3.245,1.167z"/>
					</g>
					<g>
						<path id="path-1_1_" fill="#FFFFFF" d="M3.245,1.167h535.51c2.438,0,4.411,1.82,4.411,4.065v145.536
							c0,2.246-1.975,4.063-4.411,4.063H3.245c-2.436,0-4.411-1.817-4.411-4.063V5.232C-1.166,2.987,0.809,1.167,3.245,1.167z"/>
					</g>
				</g>
				<g>
					<g opacity="0.6" enable-background="new    ">
						<g>
							<path fill="#1F2124" d="M81.093,82.928V71.76h4.176c1.066,0,1.88,0.299,2.44,0.895c0.56,0.597,0.84,1.416,0.84,2.457
								c0,1.043-0.28,1.863-0.84,2.459c-0.56,0.597-1.374,0.895-2.44,0.895h-2.384v4.464h-1.792V82.928z M82.885,76.993h2.112
								c1.109,0,1.664-0.516,1.664-1.543v-0.691c0-1.017-0.555-1.525-1.664-1.525h-2.112V76.993z"/>
							<path fill="#1F2124" d="M90.564,81.504h2.192v-5.408h-2.192v-1.424H94.5v2.191h0.096c0.074-0.287,0.181-0.564,0.32-0.832
								c0.139-0.266,0.314-0.498,0.528-0.695c0.213-0.197,0.474-0.357,0.784-0.48c0.31-0.121,0.672-0.184,1.088-0.184h0.992v1.664
								h-1.632c-0.64,0-1.163,0.188-1.568,0.566c-0.405,0.377-0.608,0.885-0.608,1.521v3.08h2.992v1.424h-6.928V81.504
								L90.564,81.504z"/>
							<path fill="#1F2124" d="M100.564,81.504h2.816v-5.408h-2.816v-1.424h4.56v6.832h2.64v1.424h-7.2V81.504z M104.26,73.168
								c-0.448,0-0.76-0.091-0.936-0.271c-0.176-0.182-0.264-0.405-0.264-0.672v-0.336c0-0.268,0.088-0.49,0.264-0.673
								c0.176-0.182,0.482-0.272,0.92-0.272c0.448,0,0.76,0.092,0.936,0.272c0.176,0.183,0.264,0.405,0.264,0.673v0.336
								c0,0.267-0.088,0.49-0.264,0.672C105.004,73.078,104.697,73.168,104.26,73.168z"/>
							<path fill="#1F2124" d="M113.652,83.121c-0.619,0-1.171-0.104-1.656-0.307c-0.486-0.201-0.896-0.488-1.232-0.861
								c-0.336-0.375-0.592-0.828-0.768-1.361c-0.176-0.533-0.264-1.131-0.264-1.791c0-0.662,0.088-1.259,0.264-1.792
								c0.176-0.533,0.432-0.986,0.768-1.359s0.747-0.662,1.232-0.863c0.485-0.203,1.032-0.305,1.64-0.305
								c0.854,0,1.539,0.18,2.056,0.537c0.517,0.359,0.904,0.825,1.16,1.398l-1.36,0.734c-0.149-0.383-0.376-0.688-0.68-0.911
								c-0.304-0.223-0.696-0.337-1.176-0.337c-0.662,0-1.173,0.203-1.536,0.604c-0.362,0.402-0.544,0.937-0.544,1.603v1.382
								c0,0.654,0.182,1.186,0.544,1.594c0.363,0.408,0.885,0.609,1.568,0.609c0.512,0,0.93-0.115,1.256-0.353
								c0.325-0.233,0.584-0.555,0.776-0.959l1.28,0.783c-0.267,0.574-0.672,1.043-1.216,1.406
								C115.22,82.936,114.516,83.121,113.652,83.121z"/>
							<path fill="#1F2124" d="M123.124,83.121c-0.629,0-1.195-0.104-1.696-0.307c-0.501-0.201-0.922-0.488-1.264-0.861
								c-0.342-0.375-0.603-0.824-0.784-1.354c-0.182-0.529-0.272-1.123-0.272-1.785c0-0.661,0.093-1.257,0.28-1.792
								c0.186-0.533,0.448-0.989,0.784-1.368c0.336-0.378,0.744-0.669,1.224-0.871c0.48-0.203,1.013-0.306,1.6-0.306
								c0.576,0,1.098,0.1,1.568,0.297c0.469,0.197,0.869,0.478,1.2,0.841c0.33,0.362,0.584,0.794,0.76,1.296
								c0.176,0.501,0.264,1.056,0.264,1.664v0.654h-5.92v0.271c0,0.646,0.202,1.174,0.608,1.582c0.405,0.408,0.965,0.61,1.68,0.61
								c0.533,0,0.989-0.112,1.368-0.342c0.378-0.229,0.685-0.533,0.92-0.914l1.088,0.963c-0.277,0.48-0.701,0.89-1.272,1.222
								C124.688,82.955,123.977,83.121,123.124,83.121z M122.996,75.809c-0.31,0-0.595,0.053-0.856,0.159
								c-0.262,0.106-0.486,0.259-0.672,0.456c-0.186,0.197-0.333,0.43-0.44,0.696c-0.107,0.266-0.16,0.56-0.16,0.88v0.111h4.144
								v-0.159c0-0.651-0.184-1.171-0.552-1.562C124.091,76.003,123.604,75.809,122.996,75.809z"/>
							<path fill="#1F2124" d="M138.339,77.057v-1.425h7.616v1.425H138.339z M138.339,80.447v-1.424h7.616v1.424H138.339z"/>
						</g>
					</g>
					<g opacity="0.6" enable-background="new    ">
						<g>
							<path fill="#1F2124" d="M180.386,82.928l-0.848-2.992h-3.552l-0.848,2.992h-1.824l3.264-11.167h2.448l3.264,11.167H180.386z
								 M177.826,73.567h-0.128l-1.376,4.896h2.88L177.826,73.567z"/>
							<path fill="#1F2124" d="M196.209,81.936v-3.184h-3.024v-1.423h3.024v-3.186h1.568v3.186h3.024v1.423h-3.024v3.184H196.209z"
								/>
						</g>
					</g>
					<g opacity="0.6" enable-background="new    ">
						<g>
							<path fill="#1F2124" d="M391.351,81.928l3.071-4.191l-2.942-4.063h2.03l1.088,1.567l0.865,1.248h0.096l0.85-1.248
								l1.088-1.567h1.889l-2.961,4l3.104,4.256h-2.048l-1.232-1.777l-0.848-1.215h-0.098l-0.832,1.215l-1.217,1.777h-1.902
								L391.351,81.928L391.351,81.928z"/>
							<path fill="#1F2124" d="M416.949,76.584l0.049-3.359h-0.129l-2.24,5.744l-2.239-5.744h-0.128l0.048,3.359v5.343h-1.584V70.76
								h2.192l1.711,4.432h0.113l1.728-4.432h2.063v11.167h-1.584V76.584L416.949,76.584z"/>
							<path fill="#1F2124" d="M424.549,82.121c-1.418,0-2.472-0.502-3.16-1.504c-0.688-1.004-1.029-2.427-1.029-4.273
								c0-1.845,0.344-3.27,1.029-4.271c0.688-1.002,1.742-1.504,3.16-1.504c0.545,0,1.019,0.07,1.416,0.214
								c0.4,0.143,0.744,0.338,1.032,0.586s0.53,0.539,0.728,0.874c0.198,0.335,0.36,0.693,0.488,1.078l-1.615,0.544
								c-0.086-0.257-0.182-0.495-0.289-0.72c-0.104-0.225-0.237-0.416-0.397-0.576c-0.16-0.159-0.352-0.289-0.567-0.385
								c-0.219-0.096-0.486-0.144-0.809-0.144c-0.789,0-1.365,0.302-1.729,0.907c-0.36,0.604-0.543,1.421-0.543,2.449v1.895
								c0,1.027,0.183,1.845,0.543,2.449c0.363,0.605,0.939,0.906,1.729,0.906c0.32,0,0.59-0.047,0.809-0.144
								c0.219-0.096,0.407-0.228,0.567-0.385c0.16-0.16,0.294-0.354,0.397-0.576c0.107-0.226,0.203-0.463,0.289-0.719l1.615,0.543
								c-0.128,0.385-0.291,0.741-0.488,1.077c-0.195,0.334-0.438,0.625-0.728,0.873s-0.632,0.443-1.032,0.586
								C425.565,82.049,425.094,82.121,424.549,82.121z"/>
							<path fill="#1F2124" d="M432.148,81.928h-1.775V70.76h4.176c1.066,0,1.88,0.299,2.439,0.895
								c0.561,0.597,0.84,1.416,0.84,2.459c0,0.852-0.207,1.554-0.623,2.107c-0.416,0.553-1.014,0.895-1.793,1.021l2.576,4.686
								h-1.983l-2.368-4.527h-1.486L432.148,81.928L432.148,81.928z M434.293,75.977c1.109,0,1.664-0.51,1.664-1.526V73.76
								c0-1.017-0.555-1.526-1.664-1.526h-2.145v3.744L434.293,75.977L434.293,75.977z"/>
							<path fill="#1F2124" d="M441.316,77.128h1.424l-2.496,4.799h-1.439L441.316,77.128z M441.301,76.36
								c-0.734,0-1.326-0.248-1.769-0.743c-0.442-0.496-0.663-1.214-0.663-2.152s0.221-1.655,0.663-2.151
								c0.44-0.496,1.032-0.744,1.769-0.744c0.737,0,1.324,0.248,1.77,0.744c0.44,0.496,0.664,1.213,0.664,2.151
								s-0.224,1.656-0.664,2.152C442.625,76.112,442.037,76.36,441.301,76.36z M441.301,75.272c0.354,0,0.623-0.125,0.815-0.377
								c0.19-0.25,0.288-0.6,0.288-1.047V73.08c0-0.448-0.098-0.798-0.288-1.049c-0.192-0.25-0.464-0.377-0.815-0.377
								c-0.353,0-0.625,0.127-0.814,0.377c-0.191,0.251-0.288,0.601-0.288,1.049v0.768c0,0.448,0.097,0.799,0.288,1.049
								C440.676,75.147,440.948,75.272,441.301,75.272z M445.557,82.121c-0.734,0-1.324-0.248-1.768-0.744s-0.664-1.215-0.664-2.152
								s0.221-1.656,0.664-2.151c0.441-0.495,1.031-0.743,1.768-0.743c0.737,0,1.325,0.248,1.77,0.743
								c0.441,0.496,0.664,1.214,0.664,2.151c0,0.938-0.223,1.656-0.664,2.152C446.882,81.873,446.293,82.121,445.557,82.121z
								 M446.612,70.76h1.438l-2.512,4.801h-1.425L446.612,70.76z M445.557,81.031c0.354,0,0.623-0.125,0.816-0.377
								c0.191-0.25,0.287-0.6,0.287-1.047V78.84c0-0.447-0.096-0.796-0.287-1.047c-0.193-0.251-0.465-0.376-0.816-0.376
								c-0.351,0-0.624,0.125-0.814,0.376c-0.191,0.251-0.287,0.601-0.287,1.047v0.768c0,0.449,0.096,0.8,0.287,1.05
								C444.933,80.907,445.205,81.031,445.557,81.031z"/>
						</g>
					</g>
					<g opacity="0.6" enable-background="new    ">
						<g>
							<path fill="#1F2124" d="M297.003,102.121c-1.419,0-2.472-0.502-3.16-1.504c-0.688-1.004-1.032-2.428-1.032-4.273
								c0-1.844,0.344-3.27,1.032-4.271s1.741-1.505,3.16-1.505c0.544,0,1.017,0.07,1.416,0.216
								c0.399,0.143,0.744,0.338,1.032,0.586s0.531,0.539,0.729,0.873c0.196,0.336,0.359,0.692,0.487,1.077l-1.616,0.546
								c-0.085-0.259-0.182-0.496-0.287-0.722c-0.105-0.225-0.24-0.416-0.399-0.576c-0.16-0.157-0.351-0.289-0.568-0.385
								s-0.487-0.143-0.81-0.143c-0.788,0-1.364,0.301-1.728,0.906c-0.362,0.604-0.544,1.422-0.544,2.449v1.895
								c0,1.027,0.182,1.846,0.544,2.449c0.362,0.605,0.938,0.906,1.728,0.906c0.32,0,0.591-0.047,0.81-0.144
								c0.22-0.096,0.408-0.228,0.568-0.385c0.159-0.16,0.293-0.354,0.399-0.576c0.105-0.226,0.202-0.463,0.287-0.719l1.616,0.543
								c-0.128,0.385-0.291,0.741-0.487,1.077c-0.197,0.334-0.441,0.625-0.729,0.873c-0.288,0.248-0.633,0.443-1.032,0.586
								C298.02,102.049,297.547,102.121,297.003,102.121z"/>
						</g>
					</g>
					<path id="Line-2" fill="none" stroke="#1F2124" stroke-width="2" stroke-linecap="square" stroke-opacity="0.6" d="
						M246.683,77.428h100"/>
					<g opacity="0.6" enable-background="new    ">
						<g>
							<path fill="#1F2124" d="M458.918,69.928v-1.904h-4.646V66.68l4.088-6.523h2.058v6.621h1.373v1.246h-1.373v1.904H458.918z
								 M455.601,66.778h3.317v-5.18h-0.084L455.601,66.778z"/>
						</g>
					</g>
					<g opacity="0.6">
						<g enable-background="new    ">
							<g>
								<path fill="#1F2124" d="M276.329,58.584l0.048-3.36h-0.128l-2.24,5.744l-2.239-5.744h-0.129l0.049,3.36v5.344h-1.583V52.76
									h2.192l1.712,4.432h0.112l1.729-4.432h2.063v11.168h-1.584L276.329,58.584L276.329,58.584z"/>
								<path fill="#1F2124" d="M283.928,64.121c-1.419,0-2.472-0.502-3.16-1.504c-0.688-1.003-1.031-2.427-1.031-4.272
									c0-1.845,0.345-3.27,1.031-4.272c0.688-1.002,1.741-1.504,3.16-1.504c0.545,0,1.016,0.071,1.416,0.214
									c0.4,0.143,0.744,0.338,1.032,0.586s0.531,0.539,0.728,0.874c0.197,0.335,0.36,0.694,0.488,1.078l-1.615,0.544
									c-0.086-0.256-0.183-0.495-0.289-0.72c-0.104-0.224-0.238-0.416-0.398-0.576c-0.16-0.159-0.352-0.288-0.566-0.384
									c-0.221-0.096-0.488-0.144-0.81-0.144c-0.79,0-1.366,0.302-1.729,0.907c-0.362,0.604-0.543,1.421-0.543,2.449v1.895
									c0,1.028,0.181,1.845,0.543,2.449c0.362,0.605,0.938,0.906,1.729,0.906c0.319,0,0.589-0.047,0.81-0.144
									c0.217-0.096,0.406-0.226,0.566-0.384c0.16-0.16,0.293-0.353,0.398-0.576c0.106-0.225,0.203-0.464,0.289-0.72l1.615,0.544
									c-0.128,0.384-0.291,0.742-0.488,1.078c-0.196,0.334-0.438,0.625-0.728,0.873s-0.632,0.443-1.032,0.586
									C284.943,64.048,284.473,64.121,283.928,64.121z"/>
								<path fill="#1F2124" d="M291.527,63.928h-1.775V52.76h4.176c1.066,0,1.881,0.298,2.44,0.894
									c0.56,0.597,0.84,1.416,0.84,2.459c0,0.852-0.208,1.554-0.624,2.107c-0.416,0.553-1.014,0.895-1.792,1.021l2.576,4.687
									h-1.984l-2.368-4.528h-1.488V63.928L291.527,63.928z M293.672,57.977c1.109,0,1.664-0.509,1.664-1.526V55.76
									c0-1.017-0.555-1.526-1.664-1.526h-2.145v3.744L293.672,57.977L293.672,57.977z"/>
							</g>
						</g>
						<g enable-background="new    ">
							<g>
								<path fill="#1F2124" d="M300.162,69.928v-9.771h6.117v1.316h-4.549v2.842h4.381v1.315h-4.381v2.981h4.549v1.315
									L300.162,69.928L300.162,69.928z"/>
								<path fill="#1F2124" d="M312.342,61.473v8.456h-1.568v-8.456h-3.064v-1.316h7.7v1.316H312.342z"/>
								<path fill="#1F2124" d="M321.582,65.63h-3.248v4.298h-1.568v-9.771h1.568v4.158h3.248v-4.158h1.568v9.771h-1.568V65.63z"/>
							</g>
						</g>
					</g>
					<path id="Path-3" fill="none" stroke="#1F2124" stroke-width="2" stroke-opacity="0.6" d="M227.527,49.929
						c0,0-7.936,14.181-7.936,27.5c0,14.156,7.936,27.5,7.936,27.5"/>
					<path id="Path-3_1_" fill="none" stroke="#1F2124" stroke-width="2" stroke-opacity="0.6" d="M365.84,49.929
						c0,0,7.936,14.181,7.936,27.5c0,14.156-7.936,27.5-7.936,27.5"/>
				</g>
			</g>
		</g>
	</g>
</g>
</svg>
