<?xml version="1.0" encoding="UTF-8"?>
<svg width="663px" height="235px" viewBox="0 0 663 235" version="1.1" xmlns="http://www.w3.org/2000/svg" xmlns:xlink="http://www.w3.org/1999/xlink">
    <!-- Generator: Sketch 51.2 (57519) - http://www.bohemiancoding.com/sketch -->
    <title>Graph 7: Purchasing NXM Formula</title>
    <desc>Created with Sketch.</desc>
    <defs>
        <rect id="path-1" x="-0.35" y="0" width="617.7" height="189" rx="5"></rect>
        <filter x="-5.9%" y="-17.7%" width="113.4%" height="143.9%" filterUnits="objectBoundingBox" id="filter-2">
            <feOffset dx="4" dy="6" in="SourceAlpha" result="shadowOffsetOuter1"></feOffset>
            <feGaussianBlur stdDeviation="11.5" in="shadowOffsetOuter1" result="shadowBlurOuter1"></feGaussianBlur>
            <feColorMatrix values="0 0 0 0 0.792156863   0 0 0 0 0.823529412   0 0 0 0 0.878431373  0 0 0 0.7 0" type="matrix" in="shadowBlurOuter1" result="shadowMatrixOuter1"></feColorMatrix>
            <feOffset dx="1" dy="2" in="SourceAlpha" result="shadowOffsetOuter2"></feOffset>
            <feGaussianBlur stdDeviation="2" in="shadowOffsetOuter2" result="shadowBlurOuter2"></feGaussianBlur>
            <feColorMatrix values="0 0 0 0 0.784313725   0 0 0 0 0.823529412   0 0 0 0 0.882352941  0 0 0 1 0" type="matrix" in="shadowBlurOuter2" result="shadowMatrixOuter2"></feColorMatrix>
            <feMerge>
                <feMergeNode in="shadowMatrixOuter1"></feMergeNode>
                <feMergeNode in="shadowMatrixOuter2"></feMergeNode>
            </feMerge>
        </filter>
    </defs>
    <g id="Page-2" stroke="none" stroke-width="1" fill="none" fill-rule="evenodd">
        <g id="Token-Model-Page---Outline-Text-for-svg-output" transform="translate(-630.000000, -4788.000000)">
            <g id="Graph-7:-Purchasing-NXM-Formula" transform="translate(640.000000, 4805.000000)">
                <g id="Group" transform="translate(9.000000, 0.000000)">
                    <g id="Path">
                        <use fill="black" fill-opacity="1" filter="url(#filter-2)" xlink:href="#path-1"></use>
                        <use fill="#FFFFFF" fill-rule="evenodd" xlink:href="#path-1"></use>
                    </g>
                    <path d="M43.344,103 L43.344,91.832 L47.52,91.832 C48.586672,91.832 49.3999972,92.1306637 49.96,92.728 C50.5200028,93.3253363 50.8,94.1466614 50.8,95.192 C50.8,96.2373386 50.5200028,97.0586637 49.96,97.656 C49.3999972,98.2533363 48.586672,98.552 47.52,98.552 L45.136,98.552 L45.136,103 L43.344,103 Z M45.136,97.064 L47.248,97.064 C48.3573389,97.064 48.912,96.5520051 48.912,95.528 L48.912,94.84 C48.912,93.8266616 48.3573389,93.32 47.248,93.32 L45.136,93.32 L45.136,97.064 Z M52.816,101.592 L55.008,101.592 L55.008,96.152 L52.816,96.152 L52.816,94.744 L56.752,94.744 L56.752,96.936 L56.848,96.936 C56.922667,96.6479986 57.0293326,96.370668 57.168,96.104 C57.3066674,95.837332 57.4826656,95.6053343 57.696,95.408 C57.9093344,95.2106657 58.1706651,95.0506673 58.48,94.928 C58.7893349,94.8053327 59.1519979,94.744 59.568,94.744 L60.56,94.744 L60.56,96.408 L58.928,96.408 C58.2879968,96.408 57.7653354,96.5973314 57.36,96.976 C56.9546646,97.3546686 56.752,97.8639968 56.752,98.504 L56.752,101.592 L59.744,101.592 L59.744,103 L52.816,103 L52.816,101.592 Z M66.512,93.24 C66.0639978,93.24 65.7520009,93.1493342 65.576,92.968 C65.3999991,92.7866658 65.312,92.562668 65.312,92.296 L65.312,91.96 C65.312,91.693332 65.3999991,91.4693342 65.576,91.288 C65.7520009,91.1066658 66.0586645,91.016 66.496,91.016 C66.9440022,91.016 67.2559991,91.1066658 67.432,91.288 C67.6080009,91.4693342 67.696,91.693332 67.696,91.96 L67.696,92.296 C67.696,92.562668 67.6080009,92.7866658 67.432,92.968 C67.2559991,93.1493342 66.9493355,93.24 66.512,93.24 Z M62.816,101.592 L65.632,101.592 L65.632,96.152 L62.816,96.152 L62.816,94.744 L67.376,94.744 L67.376,101.592 L70.016,101.592 L70.016,103 L62.816,103 L62.816,101.592 Z M75.904,103.192 C75.2853302,103.192 74.7333358,103.090668 74.248,102.888 C73.7626642,102.685332 73.3520017,102.397335 73.016,102.024 C72.6799983,101.650665 72.4240009,101.197336 72.248,100.664 C72.0719991,100.130664 71.984,99.5333366 71.984,98.872 C71.984,98.2106634 72.0719991,97.613336 72.248,97.08 C72.4240009,96.546664 72.6799983,96.0933352 73.016,95.72 C73.3520017,95.3466648 73.7626642,95.0586677 74.248,94.856 C74.7333358,94.6533323 75.279997,94.552 75.888,94.552 C76.7413376,94.552 77.4266641,94.7333315 77.944,95.096 C78.4613359,95.4586685 78.8479987,95.9279971 79.104,96.504 L77.744,97.24 C77.5946659,96.8559981 77.3680015,96.5520011 77.064,96.328 C76.7599985,96.1039989 76.3680024,95.992 75.888,95.992 C75.2266634,95.992 74.7146685,96.191998 74.352,96.592 C73.9893315,96.992002 73.808,97.5226634 73.808,98.184 L73.808,99.56 C73.808,100.21067 73.9893315,100.738665 74.352,101.144 C74.7146685,101.549335 75.2373299,101.752 75.92,101.752 C76.4320026,101.752 76.850665,101.634668 77.176,101.4 C77.501335,101.165332 77.759999,100.845335 77.952,100.44 L79.232,101.224 C78.965332,101.800003 78.5600027,102.271998 78.016,102.64 C77.4719973,103.008002 76.7680043,103.192 75.904,103.192 Z M85.376,103.192 C84.7466635,103.192 84.1813358,103.090668 83.68,102.888 C83.1786642,102.685332 82.757335,102.397335 82.416,102.024 C82.074665,101.650665 81.8133342,101.200003 81.632,100.672 C81.4506658,100.143997 81.36,99.5493366 81.36,98.888 C81.36,98.2266634 81.4533324,97.629336 81.64,97.096 C81.8266676,96.562664 82.0879983,96.1066686 82.424,95.728 C82.7600017,95.3493314 83.1679976,95.0586677 83.648,94.856 C84.1280024,94.6533323 84.6613304,94.552 85.248,94.552 C85.8240029,94.552 86.3466643,94.6506657 86.816,94.848 C87.2853357,95.0453343 87.6853317,95.3253315 88.016,95.688 C88.3466683,96.0506685 88.5999991,96.4826642 88.776,96.984 C88.9520009,97.4853358 89.04,98.039997 89.04,98.648 L89.04,99.304 L83.12,99.304 L83.12,99.576 C83.12,100.22667 83.3226646,100.757331 83.728,101.168 C84.1333354,101.578669 84.6933298,101.784 85.408,101.784 C85.941336,101.784 86.3973314,101.669334 86.776,101.44 C87.1546686,101.210666 87.4613322,100.904002 87.696,100.52 L88.784,101.48 C88.5066653,101.960002 88.0826695,102.365332 87.512,102.696 C86.9413305,103.026668 86.2293376,103.192 85.376,103.192 Z M85.248,95.88 C84.9386651,95.88 84.6533346,95.9333328 84.392,96.04 C84.1306654,96.1466672 83.9066676,96.2986657 83.72,96.496 C83.5333324,96.6933343 83.3866672,96.925332 83.28,97.192 C83.1733328,97.458668 83.12,97.7519984 83.12,98.072 L83.12,98.184 L87.264,98.184 L87.264,98.024 C87.264,97.3733301 87.0800018,96.8533353 86.712,96.464 C86.3439982,96.0746647 85.856003,95.88 85.248,95.88 Z M110.192,97.128 L110.192,95.704 L117.808,95.704 L117.808,97.128 L110.192,97.128 Z M110.192,100.52 L110.192,99.096 L117.808,99.096 L117.808,100.52 L110.192,100.52 Z" id="Price-=" fill="#1F2124"></path>
                    <path d="M142.704,103.192 C141.733328,103.192 140.917337,103.021335 140.256,102.68 C139.594663,102.338665 139.050669,101.885336 138.624,101.32 L139.776,100.216 C140.202669,100.728003 140.655998,101.103999 141.136,101.344 C141.616002,101.584001 142.159997,101.704 142.768,101.704 C143.472004,101.704 144.013331,101.544002 144.392,101.224 C144.770669,100.903998 144.96,100.445336 144.96,99.848 C144.96,99.3679976 144.821335,98.9973346 144.544,98.736 C144.266665,98.4746654 143.792003,98.2853339 143.12,98.168 L141.904,97.976 C141.370664,97.8906662 140.922668,97.7493343 140.56,97.552 C140.197332,97.3546657 139.904001,97.1200014 139.68,96.848 C139.455999,96.5759986 139.293334,96.2720017 139.192,95.936 C139.090666,95.5999983 139.04,95.2453352 139.04,94.872 C139.04,93.8159947 139.38133,93.0133361 140.064,92.464 C140.74667,91.9146639 141.685327,91.64 142.88,91.64 C143.765338,91.64 144.519997,91.7813319 145.144,92.064 C145.768003,92.3466681 146.271998,92.7439974 146.656,93.256 L145.536,94.376 C145.226665,94.0026648 144.861335,93.7013345 144.44,93.472 C144.018665,93.2426655 143.49867,93.128 142.88,93.128 C142.218663,93.128 141.714668,93.2693319 141.368,93.552 C141.021332,93.8346681 140.848,94.2479973 140.848,94.792 C140.848,95.250669 140.983999,95.6106654 141.256,95.872 C141.528001,96.1333346 142.010663,96.3226661 142.704,96.44 L143.888,96.648 C144.890672,96.8293342 145.621331,97.1946639 146.08,97.744 C146.538669,98.2933361 146.768,98.9626627 146.768,99.752 C146.768,100.264003 146.680001,100.733331 146.504,101.16 C146.327999,101.586669 146.066668,101.949332 145.72,102.248 C145.373332,102.546668 144.946669,102.778666 144.44,102.944 C143.933331,103.109334 143.35467,103.192 142.704,103.192 Z M148.976,103 L148.976,91.832 L156.16,91.832 L156.16,93.336 L150.768,93.336 L150.768,96.584 L155.664,96.584 L155.664,98.088 L150.768,98.088 L150.768,103 L148.976,103 Z M167.52,103 L170.592,98.808 L167.648,94.744 L169.68,94.744 L170.768,96.312 L171.632,97.56 L171.728,97.56 L172.576,96.312 L173.664,94.744 L175.552,94.744 L172.592,98.744 L175.696,103 L173.648,103 L172.416,101.224 L171.568,100.008 L171.472,100.008 L170.64,101.224 L169.424,103 L167.52,103 Z" id="SF-x" fill-opacity="0.6" fill="#1F2124" opacity="0.50078125"></path>
                    <path d="M204.408,104 L204.408,102.512 L207.544,102.512 L207.544,94.144 L207.416,94.144 L204.824,96.912 L203.72,95.92 L206.568,92.832 L209.336,92.832 L209.336,102.512 L212.04,102.512 L212.04,104 L204.408,104 Z M216.616,103.008 L216.616,99.824 L213.592,99.824 L213.592,98.4 L216.616,98.4 L216.616,95.216 L218.184,95.216 L218.184,98.4 L221.208,98.4 L221.208,99.824 L218.184,99.824 L218.184,103.008 L216.616,103.008 Z" id="1+" fill-opacity="0.6" fill="#1F2124" opacity="0.50078125"></path>
                    <path d="M253.864,77.408 L253.72,77.408 L253.72,86 L252.152,86 L252.152,74.832 L254.456,74.832 L257.736,83.424 L257.88,83.424 L257.88,74.832 L259.448,74.832 L259.448,86 L257.144,86 L253.864,77.408 Z M267.112,84.592 L267.032,84.592 C266.946666,84.8053344 266.837334,85.0106657 266.704,85.208 C266.570666,85.4053343 266.408001,85.5759993 266.216,85.72 C266.023999,85.8640007 265.800001,85.9786662 265.544,86.064 C265.287999,86.1493338 264.989335,86.192 264.648,86.192 C263.815996,86.192 263.144003,85.9200027 262.632,85.376 C262.119997,84.8319973 261.864,84.0586717 261.864,83.056 L261.864,77.744 L263.608,77.744 L263.608,82.8 C263.608,84.1120066 264.178661,84.768 265.32,84.768 C265.544001,84.768 265.762666,84.738667 265.976,84.68 C266.189334,84.621333 266.381332,84.5333339 266.552,84.416 C266.722668,84.2986661 266.858666,84.1520009 266.96,83.976 C267.061334,83.7999991 267.112,83.5893346 267.112,83.344 L267.112,77.744 L268.856,77.744 L268.856,86 L267.112,86 L267.112,84.592 Z M270.904,86 L270.904,77.744 L272.392,77.744 L272.392,78.816 L272.472,78.816 C272.600001,78.4639982 272.783999,78.1653346 273.024,77.92 C273.264001,77.6746654 273.607998,77.552 274.056,77.552 C274.493336,77.552 274.831999,77.6719988 275.072,77.912 C275.312001,78.1520012 275.464,78.4799979 275.528,78.896 L275.592,78.896 C275.741334,78.5226648 275.949332,78.2053346 276.216,77.944 C276.482668,77.6826654 276.866664,77.552 277.368,77.552 C278.008003,77.552 278.453332,77.7759978 278.704,78.224 C278.954668,78.6720022 279.08,79.3279957 279.08,80.192 L279.08,86 L277.592,86 L277.592,80.416 C277.592,79.8399971 277.522667,79.4426678 277.384,79.224 C277.245333,79.0053322 277.021335,78.896 276.712,78.896 C276.434665,78.896 276.202668,78.9893324 276.016,79.176 C275.829332,79.3626676 275.736,79.6426648 275.736,80.016 L275.736,86 L274.248,86 L274.248,80.416 C274.248,79.8399971 274.181334,79.4426678 274.048,79.224 C273.914666,79.0053322 273.693335,78.896 273.384,78.896 C273.095999,78.896 272.858668,78.9893324 272.672,79.176 C272.485332,79.3626676 272.392,79.6426648 272.392,80.016 L272.392,86 L270.904,86 Z M281.064,74.16 L282.808,74.16 L282.808,79.152 L282.904,79.152 C283.149335,78.6506642 283.474665,78.2586681 283.88,77.976 C284.285335,77.6933319 284.791997,77.552 285.4,77.552 C286.370672,77.552 287.143997,77.914663 287.72,78.64 C288.296003,79.365337 288.584,80.4426595 288.584,81.872 C288.584,83.3013405 288.296003,84.378663 287.72,85.104 C287.143997,85.829337 286.370672,86.192 285.4,86.192 C284.791997,86.192 284.285335,86.0506681 283.88,85.768 C283.474665,85.4853319 283.149335,85.0933358 282.904,84.592 L282.808,84.592 L282.808,86 L281.064,86 L281.064,74.16 Z M284.68,84.768 C285.341337,84.768 285.850665,84.5653354 286.208,84.16 C286.565335,83.7546646 286.744,83.2160034 286.744,82.544 L286.744,81.2 C286.744,80.5279966 286.565335,79.9893354 286.208,79.584 C285.850665,79.1786646 285.341337,78.976 284.68,78.976 C284.423999,78.976 284.184001,79.0079997 283.96,79.072 C283.735999,79.1360003 283.538668,79.2319994 283.368,79.36 C283.197332,79.4880006 283.061334,79.6453324 282.96,79.832 C282.858666,80.0186676 282.808,80.2399987 282.808,80.496 L282.808,83.248 C282.808,83.5040013 282.858666,83.7253324 282.96,83.912 C283.061334,84.0986676 283.197332,84.2559994 283.368,84.384 C283.538668,84.5120006 283.735999,84.6079997 283.96,84.672 C284.184001,84.7360003 284.423999,84.768 284.68,84.768 Z M294.376,86.192 C293.746664,86.192 293.181336,86.0906677 292.68,85.888 C292.178664,85.6853323 291.757335,85.3973352 291.416,85.024 C291.074665,84.6506648 290.813334,84.2000026 290.632,83.672 C290.450666,83.1439974 290.36,82.5493366 290.36,81.888 C290.36,81.2266634 290.453332,80.629336 290.64,80.096 C290.826668,79.562664 291.087998,79.1066686 291.424,78.728 C291.760002,78.3493314 292.167998,78.0586677 292.648,77.856 C293.128002,77.6533323 293.66133,77.552 294.248,77.552 C294.824003,77.552 295.346664,77.6506657 295.816,77.848 C296.285336,78.0453343 296.685332,78.3253315 297.016,78.688 C297.346668,79.0506685 297.599999,79.4826642 297.776,79.984 C297.952001,80.4853358 298.04,81.039997 298.04,81.648 L298.04,82.304 L292.12,82.304 L292.12,82.576 C292.12,83.2266699 292.322665,83.7573313 292.728,84.168 C293.133335,84.5786687 293.69333,84.784 294.408,84.784 C294.941336,84.784 295.397331,84.6693345 295.776,84.44 C296.154669,84.2106655 296.461332,83.9040019 296.696,83.52 L297.784,84.48 C297.506665,84.9600024 297.08267,85.3653317 296.512,85.696 C295.94133,86.0266683 295.229338,86.192 294.376,86.192 Z M294.248,78.88 C293.938665,78.88 293.653335,78.9333328 293.392,79.04 C293.130665,79.1466672 292.906668,79.2986657 292.72,79.496 C292.533332,79.6933343 292.386667,79.925332 292.28,80.192 C292.173333,80.458668 292.12,80.7519984 292.12,81.072 L292.12,81.184 L296.264,81.184 L296.264,81.024 C296.264,80.3733301 296.080002,79.8533353 295.712,79.464 C295.343998,79.0746647 294.856003,78.88 294.248,78.88 Z M300.216,84.592 L302.408,84.592 L302.408,79.152 L300.216,79.152 L300.216,77.744 L304.152,77.744 L304.152,79.936 L304.248,79.936 C304.322667,79.6479986 304.429333,79.370668 304.568,79.104 C304.706667,78.837332 304.882666,78.6053343 305.096,78.408 C305.309334,78.2106657 305.570665,78.0506673 305.88,77.928 C306.189335,77.8053327 306.551998,77.744 306.968,77.744 L307.96,77.744 L307.96,79.408 L306.328,79.408 C305.687997,79.408 305.165335,79.5973314 304.76,79.976 C304.354665,80.3546686 304.152,80.8639968 304.152,81.504 L304.152,84.592 L307.144,84.592 L307.144,86 L300.216,86 L300.216,84.592 Z M323,86.192 C322.391997,86.192 321.845336,86.0906677 321.36,85.888 C320.874664,85.6853323 320.464002,85.3973352 320.128,85.024 C319.791998,84.6506648 319.533334,84.197336 319.352,83.664 C319.170666,83.130664 319.08,82.5333366 319.08,81.872 C319.08,81.2106634 319.170666,80.613336 319.352,80.08 C319.533334,79.546664 319.791998,79.0933352 320.128,78.72 C320.464002,78.3466648 320.874664,78.0586677 321.36,77.856 C321.845336,77.6533323 322.391997,77.552 323,77.552 C323.608003,77.552 324.154664,77.6533323 324.64,77.856 C325.125336,78.0586677 325.535998,78.3466648 325.872,78.72 C326.208002,79.0933352 326.466666,79.546664 326.648,80.08 C326.829334,80.613336 326.92,81.2106634 326.92,81.872 C326.92,82.5333366 326.829334,83.130664 326.648,83.664 C326.466666,84.197336 326.208002,84.6506648 325.872,85.024 C325.535998,85.3973352 325.125336,85.6853323 324.64,85.888 C324.154664,86.0906677 323.608003,86.192 323,86.192 Z M323,84.816 C323.640003,84.816 324.149331,84.6213353 324.528,84.232 C324.906669,83.8426647 325.096,83.2640038 325.096,82.496 L325.096,81.248 C325.096,80.4799962 324.906669,79.9013353 324.528,79.512 C324.149331,79.1226647 323.640003,78.928 323,78.928 C322.359997,78.928 321.850669,79.1226647 321.472,79.512 C321.093331,79.9013353 320.904,80.4799962 320.904,81.248 L320.904,82.496 C320.904,83.2640038 321.093331,83.8426647 321.472,84.232 C321.850669,84.6213353 322.359997,84.816 323,84.816 Z M329.048,84.592 L331.688,84.592 L331.688,79.152 L328.888,79.152 L328.888,77.744 L331.688,77.744 L331.688,76.256 C331.688,75.6373302 331.858665,75.1333353 332.2,74.744 C332.541335,74.3546647 333.074663,74.16 333.8,74.16 L336.584,74.16 L336.584,75.568 L333.432,75.568 L333.432,77.744 L336.584,77.744 L336.584,79.152 L333.432,79.152 L333.432,84.592 L336.216,84.592 L336.216,86 L329.048,86 L329.048,84.592 Z M349.864,77.408 L349.72,77.408 L349.72,86 L348.152,86 L348.152,74.832 L350.456,74.832 L353.736,83.424 L353.88,83.424 L353.88,74.832 L355.448,74.832 L355.448,86 L353.144,86 L349.864,77.408 Z M365.912,86 L363.88,86 L362.616,83.792 L361.432,81.68 L361.336,81.68 L360.12,83.792 L358.808,86 L356.904,86 L360.328,80.272 L357.112,74.832 L359.144,74.832 L360.28,76.832 L361.432,78.896 L361.512,78.896 L362.664,76.832 L363.848,74.832 L365.752,74.832 L362.52,80.272 L365.912,86 Z M373.32,80.656 L373.368,77.296 L373.24,77.296 L371,83.04 L368.76,77.296 L368.632,77.296 L368.68,80.656 L368.68,86 L367.096,86 L367.096,74.832 L369.288,74.832 L371,79.264 L371.112,79.264 L372.84,74.832 L374.904,74.832 L374.904,86 L373.32,86 L373.32,80.656 Z" id="Number-of-NXM" fill="#1F2124"></path>
                    <path d="M438.72,102 L441.792,97.808 L438.848,93.744 L440.88,93.744 L441.968,95.312 L442.832,96.56 L442.928,96.56 L443.776,95.312 L444.864,93.744 L446.752,93.744 L443.792,97.744 L446.896,102 L444.848,102 L443.616,100.224 L442.768,99.008 L442.672,99.008 L441.84,100.224 L440.624,102 L438.72,102 Z M464.32,96.656 L464.368,93.296 L464.24,93.296 L462,99.04 L459.76,93.296 L459.632,93.296 L459.68,96.656 L459.68,102 L458.096,102 L458.096,90.832 L460.288,90.832 L462,95.264 L462.112,95.264 L463.84,90.832 L465.904,90.832 L465.904,102 L464.32,102 L464.32,96.656 Z M474.672,102 C474.170664,102 473.794668,101.872001 473.544,101.616 C473.293332,101.359999 473.141334,101.024002 473.088,100.608 L473.008,100.608 C472.847999,101.109336 472.557335,101.498665 472.136,101.776 C471.714665,102.053335 471.17867,102.192 470.528,102.192 C469.685329,102.192 469.013336,101.970669 468.512,101.528 C468.010664,101.085331 467.76,100.474671 467.76,99.696 C467.76,98.895996 468.055997,98.2853354 468.648,97.864 C469.240003,97.4426646 470.149327,97.232 471.376,97.232 L472.96,97.232 L472.96,96.592 C472.96,95.4719944 472.368006,94.912 471.184,94.912 C470.650664,94.912 470.218668,95.015999 469.888,95.224 C469.557332,95.432001 469.280001,95.706665 469.056,96.048 L468.016,95.2 C468.250668,94.7519978 468.645331,94.365335 469.2,94.04 C469.754669,93.714665 470.469329,93.552 471.344,93.552 C472.389339,93.552 473.210664,93.8026642 473.808,94.304 C474.405336,94.8053358 474.704,95.5306619 474.704,96.48 L474.704,100.624 L475.744,100.624 L475.744,102 L474.672,102 Z M471.024,100.912 C471.589336,100.912 472.053332,100.784001 472.416,100.528 C472.778668,100.271999 472.96,99.9413354 472.96,99.536 L472.96,98.336 L471.408,98.336 C470.149327,98.336 469.52,98.7146629 469.52,99.472 L469.52,99.792 C469.52,100.165335 469.653332,100.445332 469.92,100.632 C470.186668,100.818668 470.554664,100.912 471.024,100.912 Z M477.12,102 L480.192,97.808 L477.248,93.744 L479.28,93.744 L480.368,95.312 L481.232,96.56 L481.328,96.56 L482.176,95.312 L483.264,93.744 L485.152,93.744 L482.192,97.744 L485.296,102 L483.248,102 L482.016,100.224 L481.168,99.008 L481.072,99.008 L480.24,100.224 L479.024,102 L477.12,102 Z M489.072,97.024 C489.072,96.2453294 489.159999,95.4960036 489.336,94.776 C489.512001,94.0559964 489.751998,93.3866698 490.056,92.768 C490.360002,92.1493302 490.714665,91.5920025 491.12,91.096 C491.525335,90.5999975 491.951998,90.181335 492.4,89.84 L494.144,89.84 C493.663998,90.181335 493.210669,90.581331 492.784,91.04 C492.357331,91.498669 491.984002,92.0053306 491.664,92.56 C491.343998,93.1146694 491.088001,93.7039969 490.896,94.328 C490.703999,94.9520031 490.608,95.6053299 490.608,96.288 L490.608,97.76 C490.608,98.4426701 490.703999,99.0959969 490.896,99.72 C491.088001,100.344003 491.343998,100.933331 491.664,101.488 C491.984002,102.042669 492.357331,102.549331 492.784,103.008 C493.210669,103.466669 493.663998,103.866665 494.144,104.208 L492.4,104.208 C491.951998,103.877332 491.525335,103.461336 491.12,102.96 C490.714665,102.458664 490.360002,101.89867 490.056,101.28 C489.751998,100.66133 489.512001,99.9920036 489.336,99.272 C489.159999,98.5519964 489.072,97.8026706 489.072,97.024 Z M547.504,99.568 L549.984,99.568 L548,104.32 L546.64,104.32 L547.504,99.568 Z M554.608,102 L554.608,100.512 L557.744,100.512 L557.744,92.144 L557.616,92.144 L555.024,94.912 L553.92,93.92 L556.768,90.832 L559.536,90.832 L559.536,100.512 L562.24,100.512 L562.24,102 L554.608,102 Z M569.328,97.024 C569.328,97.8026706 569.240001,98.5519964 569.064,99.272 C568.887999,99.9920036 568.648002,100.66133 568.344,101.28 C568.039998,101.89867 567.685335,102.458664 567.28,102.96 C566.874665,103.461336 566.448002,103.877332 566,104.208 L564.256,104.208 C564.736002,103.866665 565.189331,103.466669 565.616,103.008 C566.042669,102.549331 566.415998,102.042669 566.736,101.488 C567.056002,100.933331 567.311999,100.344003 567.504,99.72 C567.696001,99.0959969 567.792,98.4426701 567.792,97.76 L567.792,96.288 C567.792,95.6053299 567.696001,94.9520031 567.504,94.328 C567.311999,93.7039969 567.056002,93.1146694 566.736,92.56 C566.415998,92.0053306 566.042669,91.498669 565.616,91.04 C565.189331,90.581331 564.736002,90.181335 564.256,89.84 L566,89.84 C566.448002,90.181335 566.874665,90.5999975 567.28,91.096 C567.685335,91.5920025 568.039998,92.1493302 568.344,92.768 C568.648002,93.3866698 568.887999,94.0559964 569.064,94.776 C569.240001,95.4960036 569.328,96.2453294 569.328,97.024 Z" id="x-Max(-,1)" fill-opacity="0.6" fill="#1F2124" opacity="0.50078125"></path>
                    <path d="M276.408,122 L276.408,120.512 L279.544,120.512 L279.544,112.144 L279.416,112.144 L276.824,114.912 L275.72,113.92 L278.568,110.832 L281.336,110.832 L281.336,120.512 L284.04,120.512 L284.04,122 L276.408,122 Z M288.504,119.568 L290.984,119.568 L289,124.32 L287.64,124.32 L288.504,119.568 Z M302.376,112.384 L297.304,112.384 L297.016,116.352 L297.144,116.352 C297.400001,115.914664 297.709332,115.565335 298.072,115.304 C298.434668,115.042665 298.930664,114.912 299.56,114.912 C300.040002,114.912 300.485331,114.991999 300.896,115.152 C301.306669,115.312001 301.663998,115.541332 301.968,115.84 C302.272002,116.138668 302.511999,116.503998 302.688,116.936 C302.864001,117.368002 302.952,117.855997 302.952,118.4 C302.952,118.954669 302.861334,119.463998 302.68,119.928 C302.498666,120.392002 302.237335,120.791998 301.896,121.128 C301.554665,121.464002 301.133336,121.725332 300.632,121.912 C300.130664,122.098668 299.560003,122.192 298.92,122.192 C298.418664,122.192 297.973335,122.136001 297.584,122.024 C297.194665,121.911999 296.848002,121.762668 296.544,121.576 C296.239998,121.389332 295.976001,121.176001 295.752,120.936 C295.527999,120.695999 295.330668,120.448001 295.16,120.192 L296.472,119.168 C296.610667,119.381334 296.757333,119.581332 296.912,119.768 C297.066667,119.954668 297.239999,120.117333 297.432,120.256 C297.624001,120.394667 297.845332,120.501333 298.096,120.576 C298.346668,120.650667 298.631998,120.688 298.952,120.688 C299.645337,120.688 300.173332,120.498669 300.536,120.12 C300.898668,119.741331 301.08,119.22667 301.08,118.576 L301.08,118.448 C301.08,117.79733 300.896002,117.290668 300.528,116.928 C300.159998,116.565332 299.63467,116.384 298.952,116.384 C298.450664,116.384 298.056001,116.474666 297.768,116.656 C297.479999,116.837334 297.229334,117.039999 297.016,117.264 L295.528,117.056 L295.944,110.832 L302.376,110.832 L302.376,112.384 Z M308.6,122.192 C307.895996,122.192 307.285336,122.061335 306.768,121.8 C306.250664,121.538665 305.824002,121.162669 305.488,120.672 C305.151998,120.181331 304.904001,119.57867 304.744,118.864 C304.583999,118.14933 304.504,117.333338 304.504,116.416 C304.504,115.509329 304.583999,114.696004 304.744,113.976 C304.904001,113.255996 305.151998,112.650669 305.488,112.16 C305.824002,111.669331 306.250664,111.293335 306.768,111.032 C307.285336,110.770665 307.895996,110.64 308.6,110.64 C309.304004,110.64 309.914664,110.770665 310.432,111.032 C310.949336,111.293335 311.375998,111.669331 311.712,112.16 C312.048002,112.650669 312.295999,113.255996 312.456,113.976 C312.616001,114.696004 312.696,115.509329 312.696,116.416 C312.696,117.333338 312.616001,118.14933 312.456,118.864 C312.295999,119.57867 312.048002,120.181331 311.712,120.672 C311.375998,121.162669 310.949336,121.538665 310.432,121.8 C309.914664,122.061335 309.304004,122.192 308.6,122.192 Z M308.6,120.72 C309.410671,120.72 309.989332,120.41867 310.336,119.816 C310.682668,119.21333 310.856,118.400005 310.856,117.376 L310.856,115.456 C310.856,114.431995 310.682668,113.61867 310.336,113.016 C309.989332,112.41333 309.410671,112.112 308.6,112.112 C308.194665,112.112 307.848001,112.189333 307.56,112.344 C307.271999,112.498667 307.037334,112.722665 306.856,113.016 C306.674666,113.309335 306.544,113.661331 306.464,114.072 C306.384,114.482669 306.344,114.943997 306.344,115.456 L306.344,117.376 C306.344,117.888003 306.384,118.349331 306.464,118.76 C306.544,119.170669 306.674666,119.522665 306.856,119.816 C307.037334,120.109335 307.271999,120.333333 307.56,120.488 C307.848001,120.642667 308.194665,120.72 308.6,120.72 Z M308.6,117.36 C308.226665,117.36 307.968001,117.285334 307.824,117.136 C307.679999,116.986666 307.608,116.805334 307.608,116.592 L307.608,116.24 C307.608,116.026666 307.679999,115.845334 307.824,115.696 C307.968001,115.546666 308.226665,115.472 308.6,115.472 C308.973335,115.472 309.231999,115.546666 309.376,115.696 C309.520001,115.845334 309.592,116.026666 309.592,116.24 L309.592,116.592 C309.592,116.805334 309.520001,116.986666 309.376,117.136 C309.231999,117.285334 308.973335,117.36 308.6,117.36 Z M318.2,122.192 C317.495996,122.192 316.885336,122.061335 316.368,121.8 C315.850664,121.538665 315.424002,121.162669 315.088,120.672 C314.751998,120.181331 314.504001,119.57867 314.344,118.864 C314.183999,118.14933 314.104,117.333338 314.104,116.416 C314.104,115.509329 314.183999,114.696004 314.344,113.976 C314.504001,113.255996 314.751998,112.650669 315.088,112.16 C315.424002,111.669331 315.850664,111.293335 316.368,111.032 C316.885336,110.770665 317.495996,110.64 318.2,110.64 C318.904004,110.64 319.514664,110.770665 320.032,111.032 C320.549336,111.293335 320.975998,111.669331 321.312,112.16 C321.648002,112.650669 321.895999,113.255996 322.056,113.976 C322.216001,114.696004 322.296,115.509329 322.296,116.416 C322.296,117.333338 322.216001,118.14933 322.056,118.864 C321.895999,119.57867 321.648002,120.181331 321.312,120.672 C320.975998,121.162669 320.549336,121.538665 320.032,121.8 C319.514664,122.061335 318.904004,122.192 318.2,122.192 Z M318.2,120.72 C319.010671,120.72 319.589332,120.41867 319.936,119.816 C320.282668,119.21333 320.456,118.400005 320.456,117.376 L320.456,115.456 C320.456,114.431995 320.282668,113.61867 319.936,113.016 C319.589332,112.41333 319.010671,112.112 318.2,112.112 C317.794665,112.112 317.448001,112.189333 317.16,112.344 C316.871999,112.498667 316.637334,112.722665 316.456,113.016 C316.274666,113.309335 316.144,113.661331 316.064,114.072 C315.984,114.482669 315.944,114.943997 315.944,115.456 L315.944,117.376 C315.944,117.888003 315.984,118.349331 316.064,118.76 C316.144,119.170669 316.274666,119.522665 316.456,119.816 C316.637334,120.109335 316.871999,120.333333 317.16,120.488 C317.448001,120.642667 317.794665,120.72 318.2,120.72 Z M318.2,117.36 C317.826665,117.36 317.568001,117.285334 317.424,117.136 C317.279999,116.986666 317.208,116.805334 317.208,116.592 L317.208,116.24 C317.208,116.026666 317.279999,115.845334 317.424,115.696 C317.568001,115.546666 317.826665,115.472 318.2,115.472 C318.573335,115.472 318.831999,115.546666 318.976,115.696 C319.120001,115.845334 319.192,116.026666 319.192,116.24 L319.192,116.592 C319.192,116.805334 319.120001,116.986666 318.976,117.136 C318.831999,117.285334 318.573335,117.36 318.2,117.36 Z M326.904,119.568 L329.384,119.568 L327.4,124.32 L326.04,124.32 L326.904,119.568 Z M337.4,122.192 C336.695996,122.192 336.085336,122.061335 335.568,121.8 C335.050664,121.538665 334.624002,121.162669 334.288,120.672 C333.951998,120.181331 333.704001,119.57867 333.544,118.864 C333.383999,118.14933 333.304,117.333338 333.304,116.416 C333.304,115.509329 333.383999,114.696004 333.544,113.976 C333.704001,113.255996 333.951998,112.650669 334.288,112.16 C334.624002,111.669331 335.050664,111.293335 335.568,111.032 C336.085336,110.770665 336.695996,110.64 337.4,110.64 C338.104004,110.64 338.714664,110.770665 339.232,111.032 C339.749336,111.293335 340.175998,111.669331 340.512,112.16 C340.848002,112.650669 341.095999,113.255996 341.256,113.976 C341.416001,114.696004 341.496,115.509329 341.496,116.416 C341.496,117.333338 341.416001,118.14933 341.256,118.864 C341.095999,119.57867 340.848002,120.181331 340.512,120.672 C340.175998,121.162669 339.749336,121.538665 339.232,121.8 C338.714664,122.061335 338.104004,122.192 337.4,122.192 Z M337.4,120.72 C338.210671,120.72 338.789332,120.41867 339.136,119.816 C339.482668,119.21333 339.656,118.400005 339.656,117.376 L339.656,115.456 C339.656,114.431995 339.482668,113.61867 339.136,113.016 C338.789332,112.41333 338.210671,112.112 337.4,112.112 C336.994665,112.112 336.648001,112.189333 336.36,112.344 C336.071999,112.498667 335.837334,112.722665 335.656,113.016 C335.474666,113.309335 335.344,113.661331 335.264,114.072 C335.184,114.482669 335.144,114.943997 335.144,115.456 L335.144,117.376 C335.144,117.888003 335.184,118.349331 335.264,118.76 C335.344,119.170669 335.474666,119.522665 335.656,119.816 C335.837334,120.109335 336.071999,120.333333 336.36,120.488 C336.648001,120.642667 336.994665,120.72 337.4,120.72 Z M337.4,117.36 C337.026665,117.36 336.768001,117.285334 336.624,117.136 C336.479999,116.986666 336.408,116.805334 336.408,116.592 L336.408,116.24 C336.408,116.026666 336.479999,115.845334 336.624,115.696 C336.768001,115.546666 337.026665,115.472 337.4,115.472 C337.773335,115.472 338.031999,115.546666 338.176,115.696 C338.320001,115.845334 338.392,116.026666 338.392,116.24 L338.392,116.592 C338.392,116.805334 338.320001,116.986666 338.176,117.136 C338.031999,117.285334 337.773335,117.36 337.4,117.36 Z M347,122.192 C346.295996,122.192 345.685336,122.061335 345.168,121.8 C344.650664,121.538665 344.224002,121.162669 343.888,120.672 C343.551998,120.181331 343.304001,119.57867 343.144,118.864 C342.983999,118.14933 342.904,117.333338 342.904,116.416 C342.904,115.509329 342.983999,114.696004 343.144,113.976 C343.304001,113.255996 343.551998,112.650669 343.888,112.16 C344.224002,111.669331 344.650664,111.293335 345.168,111.032 C345.685336,110.770665 346.295996,110.64 347,110.64 C347.704004,110.64 348.314664,110.770665 348.832,111.032 C349.349336,111.293335 349.775998,111.669331 350.112,112.16 C350.448002,112.650669 350.695999,113.255996 350.856,113.976 C351.016001,114.696004 351.096,115.509329 351.096,116.416 C351.096,117.333338 351.016001,118.14933 350.856,118.864 C350.695999,119.57867 350.448002,120.181331 350.112,120.672 C349.775998,121.162669 349.349336,121.538665 348.832,121.8 C348.314664,122.061335 347.704004,122.192 347,122.192 Z M347,120.72 C347.810671,120.72 348.389332,120.41867 348.736,119.816 C349.082668,119.21333 349.256,118.400005 349.256,117.376 L349.256,115.456 C349.256,114.431995 349.082668,113.61867 348.736,113.016 C348.389332,112.41333 347.810671,112.112 347,112.112 C346.594665,112.112 346.248001,112.189333 345.96,112.344 C345.671999,112.498667 345.437334,112.722665 345.256,113.016 C345.074666,113.309335 344.944,113.661331 344.864,114.072 C344.784,114.482669 344.744,114.943997 344.744,115.456 L344.744,117.376 C344.744,117.888003 344.784,118.349331 344.864,118.76 C344.944,119.170669 345.074666,119.522665 345.256,119.816 C345.437334,120.109335 345.671999,120.333333 345.96,120.488 C346.248001,120.642667 346.594665,120.72 347,120.72 Z M347,117.36 C346.626665,117.36 346.368001,117.285334 346.224,117.136 C346.079999,116.986666 346.008,116.805334 346.008,116.592 L346.008,116.24 C346.008,116.026666 346.079999,115.845334 346.224,115.696 C346.368001,115.546666 346.626665,115.472 347,115.472 C347.373335,115.472 347.631999,115.546666 347.776,115.696 C347.920001,115.845334 347.992,116.026666 347.992,116.24 L347.992,116.592 C347.992,116.805334 347.920001,116.986666 347.776,117.136 C347.631999,117.285334 347.373335,117.36 347,117.36 Z M356.6,122.192 C355.895996,122.192 355.285336,122.061335 354.768,121.8 C354.250664,121.538665 353.824002,121.162669 353.488,120.672 C353.151998,120.181331 352.904001,119.57867 352.744,118.864 C352.583999,118.14933 352.504,117.333338 352.504,116.416 C352.504,115.509329 352.583999,114.696004 352.744,113.976 C352.904001,113.255996 353.151998,112.650669 353.488,112.16 C353.824002,111.669331 354.250664,111.293335 354.768,111.032 C355.285336,110.770665 355.895996,110.64 356.6,110.64 C357.304004,110.64 357.914664,110.770665 358.432,111.032 C358.949336,111.293335 359.375998,111.669331 359.712,112.16 C360.048002,112.650669 360.295999,113.255996 360.456,113.976 C360.616001,114.696004 360.696,115.509329 360.696,116.416 C360.696,117.333338 360.616001,118.14933 360.456,118.864 C360.295999,119.57867 360.048002,120.181331 359.712,120.672 C359.375998,121.162669 358.949336,121.538665 358.432,121.8 C357.914664,122.061335 357.304004,122.192 356.6,122.192 Z M356.6,120.72 C357.410671,120.72 357.989332,120.41867 358.336,119.816 C358.682668,119.21333 358.856,118.400005 358.856,117.376 L358.856,115.456 C358.856,114.431995 358.682668,113.61867 358.336,113.016 C357.989332,112.41333 357.410671,112.112 356.6,112.112 C356.194665,112.112 355.848001,112.189333 355.56,112.344 C355.271999,112.498667 355.037334,112.722665 354.856,113.016 C354.674666,113.309335 354.544,113.661331 354.464,114.072 C354.384,114.482669 354.344,114.943997 354.344,115.456 L354.344,117.376 C354.344,117.888003 354.384,118.349331 354.464,118.76 C354.544,119.170669 354.674666,119.522665 354.856,119.816 C355.037334,120.109335 355.271999,120.333333 355.56,120.488 C355.848001,120.642667 356.194665,120.72 356.6,120.72 Z M356.6,117.36 C356.226665,117.36 355.968001,117.285334 355.824,117.136 C355.679999,116.986666 355.608,116.805334 355.608,116.592 L355.608,116.24 C355.608,116.026666 355.679999,115.845334 355.824,115.696 C355.968001,115.546666 356.226665,115.472 356.6,115.472 C356.973335,115.472 357.231999,115.546666 357.376,115.696 C357.520001,115.845334 357.592,116.026666 357.592,116.24 L357.592,116.592 C357.592,116.805334 357.520001,116.986666 357.376,117.136 C357.231999,117.285334 356.973335,117.36 356.6,117.36 Z" id="1,500,000" fill="#1F2124"></path>
                    <path d="M232.5,97.5 L401.5,97.5" id="Line-2" stroke="#1F2124" stroke-width="2" stroke-linecap="square"></path>
                    <path d="M544.63,90 L537.882,90 L537.882,88.502 L541.074,85.716 C541.578003,85.2679978 541.967665,84.8433353 542.243,84.442 C542.518335,84.0406647 542.656,83.6160022 542.656,83.168 L542.656,83.014 C542.656,82.5006641 542.516001,82.1063347 542.236,81.831 C541.955999,81.5556653 541.550003,81.418 541.018,81.418 C540.476664,81.418 540.059001,81.5626652 539.765,81.852 C539.470999,82.1413348 539.258667,82.5099978 539.128,82.958 L537.756,82.44 C537.849334,82.1319985 537.984666,81.8356681 538.162,81.551 C538.339334,81.2663319 538.565665,81.0120011 538.841,80.788 C539.116335,80.5639989 539.442998,80.3866673 539.821,80.256 C540.199002,80.1253327 540.635331,80.06 541.13,80.06 C541.634003,80.06 542.084331,80.1323326 542.481,80.277 C542.877669,80.4216674 543.211332,80.6199987 543.482,80.872 C543.752668,81.1240013 543.957999,81.4249983 544.098,81.775 C544.238001,82.1250017 544.308,82.5099979 544.308,82.93 C544.308,83.322002 544.249667,83.683665 544.133,84.015 C544.016333,84.346335 543.853001,84.6636651 543.643,84.967 C543.432999,85.2703348 543.183335,85.5619986 542.894,85.842 C542.604665,86.1220014 542.287335,86.4019986 541.942,86.682 L539.576,88.67 L544.63,88.67 L544.63,90 Z" id="2" fill-opacity="0.6" fill="#1F2124" opacity="0.5"></path>
                    <path d="M197,70 C197,70 189,84.2104643 189,97.5566406 C189,111.74153 197,125.113281 197,125.113281" id="Path-3" stroke-opacity="0.6" stroke="#1F2124" stroke-width="2" opacity="0.50078125"></path>
                    <path d="M420,70 C420,70 412,84.2104643 412,97.5566406 C412,111.74153 420,125.113281 420,125.113281" id="Path-3" stroke-opacity="0.6" stroke="#1F2124" stroke-width="2" opacity="0.50078125" transform="translate(416.000000, 97.556641) scale(-1, 1) translate(-416.000000, -97.556641) "></path>
                    <path d="M503.12,96.656 L503.168,93.296 L503.04,93.296 L500.8,99.04 L498.56,93.296 L498.432,93.296 L498.48,96.656 L498.48,102 L496.896,102 L496.896,90.832 L499.088,90.832 L500.8,95.264 L500.912,95.264 L502.64,90.832 L504.704,90.832 L504.704,102 L503.12,102 L503.12,96.656 Z M510.72,102.192 C509.301326,102.192 508.248003,101.690672 507.56,100.688 C506.871997,99.6853283 506.528,98.2613426 506.528,96.416 C506.528,94.5706574 506.871997,93.1466717 507.56,92.144 C508.248003,91.1413283 509.301326,90.64 510.72,90.64 C511.264003,90.64 511.735998,90.7119993 512.136,90.856 C512.536002,91.0000007 512.879999,91.1973321 513.168,91.448 C513.456001,91.6986679 513.698666,91.9919983 513.896,92.328 C514.093334,92.6640017 514.255999,93.0239981 514.384,93.408 L512.768,93.952 C512.682666,93.6959987 512.586667,93.4560011 512.48,93.232 C512.373333,93.0079989 512.240001,92.8160008 512.08,92.656 C511.919999,92.4959992 511.730668,92.3680005 511.512,92.272 C511.293332,92.1759995 511.024002,92.128 510.704,92.128 C509.914663,92.128 509.338668,92.4293303 508.976,93.032 C508.613332,93.6346697 508.432,94.4479949 508.432,95.472 L508.432,97.36 C508.432,98.3840051 508.613332,99.1973303 508.976,99.8 C509.338668,100.40267 509.914663,100.704 510.704,100.704 C511.024002,100.704 511.293332,100.656 511.512,100.56 C511.730668,100.464 511.919999,100.336001 512.08,100.176 C512.240001,100.015999 512.373333,99.8240011 512.48,99.6 C512.586667,99.3759989 512.682666,99.1360013 512.768,98.88 L514.384,99.424 C514.255999,99.8080019 514.093334,100.167998 513.896,100.504 C513.698666,100.840002 513.456001,101.133332 513.168,101.384 C512.879999,101.634668 512.536002,101.831999 512.136,101.976 C511.735998,102.120001 511.264003,102.192 510.72,102.192 Z M518.32,102 L516.544,102 L516.544,90.832 L520.72,90.832 C521.786672,90.832 522.599997,91.1306637 523.16,91.728 C523.720003,92.3253363 524,93.1466614 524,94.192 C524,95.0453376 523.792002,95.7493306 523.376,96.304 C522.959998,96.8586694 522.362671,97.1999994 521.584,97.328 L524.16,102 L522.176,102 L519.808,97.488 L518.32,97.488 L518.32,102 Z M520.464,96.048 C521.573339,96.048 522.128,95.5413384 522.128,94.528 L522.128,93.84 C522.128,92.8266616 521.573339,92.32 520.464,92.32 L518.32,92.32 L518.32,96.048 L520.464,96.048 Z M527.472,96.432 C526.735996,96.432 526.146669,96.1840025 525.704,95.688 C525.261331,95.1919975 525.04,94.4746714 525.04,93.536 C525.04,92.5973286 525.261331,91.8800025 525.704,91.384 C526.146669,90.8879975 526.735996,90.64 527.472,90.64 C528.208004,90.64 528.797331,90.8879975 529.24,91.384 C529.682669,91.8800025 529.904,92.5973286 529.904,93.536 C529.904,94.4746714 529.682669,95.1919975 529.24,95.688 C528.797331,96.1840025 528.208004,96.432 527.472,96.432 Z M527.472,95.344 C527.824002,95.344 528.095999,95.2186679 528.288,94.968 C528.480001,94.7173321 528.576,94.3680022 528.576,93.92 L528.576,93.152 C528.576,92.7039978 528.480001,92.3546679 528.288,92.104 C528.095999,91.8533321 527.824002,91.728 527.472,91.728 C527.119998,91.728 526.848001,91.8533321 526.656,92.104 C526.463999,92.3546679 526.368,92.7039978 526.368,93.152 L526.368,93.92 C526.368,94.3680022 526.463999,94.7173321 526.656,94.968 C526.848001,95.2186679 527.119998,95.344 527.472,95.344 Z M532.784,90.832 L534.224,90.832 L531.712,95.632 L530.288,95.632 L532.784,90.832 Z M527.488,97.2 L528.912,97.2 L526.416,102 L524.976,102 L527.488,97.2 Z M531.728,102.192 C530.991996,102.192 530.402669,101.944002 529.96,101.448 C529.517331,100.951998 529.296,100.234671 529.296,99.296 C529.296,98.3573286 529.517331,97.6400025 529.96,97.144 C530.402669,96.6479975 530.991996,96.4 531.728,96.4 C532.464004,96.4 533.053331,96.6479975 533.496,97.144 C533.938669,97.6400025 534.16,98.3573286 534.16,99.296 C534.16,100.234671 533.938669,100.951998 533.496,101.448 C533.053331,101.944002 532.464004,102.192 531.728,102.192 Z M531.728,101.104 C532.080002,101.104 532.351999,100.978668 532.544,100.728 C532.736001,100.477332 532.832,100.128002 532.832,99.68 L532.832,98.912 C532.832,98.4639978 532.736001,98.1146679 532.544,97.864 C532.351999,97.6133321 532.080002,97.488 531.728,97.488 C531.375998,97.488 531.104001,97.6133321 530.912,97.864 C530.719999,98.1146679 530.624,98.4639978 530.624,98.912 L530.624,99.68 C530.624,100.128002 530.719999,100.477332 530.912,100.728 C531.104001,100.978668 531.375998,101.104 531.728,101.104 Z" id="MCR%" fill-opacity="0.6" fill="#1F2124" opacity="0.5"></path>
                </g>
                <rect id="Rectangle-11" x="0" y="12" width="635" height="177"></rect>
            </g>
        </g>
    </g>
</svg>