<?xml version="1.0" encoding="UTF-8" standalone="no"?>
<svg xmlns="http://www.w3.org/2000/svg" height="405px" width="645px" version="1.1" xmlns:xlink="http://www.w3.org/1999/xlink" viewBox="0 0 645 405"><!-- Generator: Sketch 51.2 (57519) - http://www.bohemiancoding.com/sketch -->
 <title>Graph 2: MCR</title>
 <desc>Created with Sketch.</desc>
 <defs>
  <rect id="path-1" rx="5" height="377.63" width="617.7" y="0" x="8.6479"/>
  <filter id="filter-2" height="113.2%" width="108.1%" y="-5.3%" x="-3.6%" filterUnits="objectBoundingBox">
   <feOffset in="SourceAlpha" result="shadowOffsetOuter1" dx="2" dy="4"/>
   <feGaussianBlur stdDeviation="7" result="shadowBlurOuter1" in="shadowOffsetOuter1"/>
   <feColorMatrix type="matrix" values="0 0 0 0 0.792156863   0 0 0 0 0.823529412   0 0 0 0 0.878431373  0 0 0 0.7 0" result="shadowMatrixOuter1" in="shadowBlurOuter1"/>
   <feOffset in="SourceAlpha" result="shadowOffsetOuter2" dx="1" dy="1"/>
   <feGaussianBlur stdDeviation="1" result="shadowBlurOuter2" in="shadowOffsetOuter2"/>
   <feColorMatrix type="matrix" values="0 0 0 0 0.784313725   0 0 0 0 0.823529412   0 0 0 0 0.882352941  0 0 0 1 0" result="shadowMatrixOuter2" in="shadowBlurOuter2"/>
   <feMerge>
    <feMergeNode in="shadowMatrixOuter1"/>
    <feMergeNode in="shadowMatrixOuter2"/>
   </feMerge>
  </filter>
  <linearGradient id="linearGradient-3" y1="100%" y2="100%">
   <stop stop-color="#1EAB89" stop-opacity="0" offset="0"/>
   <stop stop-color="#1EAB89" stop-opacity=".2" offset="1"/>
  </linearGradient>
  <rect id="path-4" y="282.27" x="228.53" height="14.825" width="14.825"/>
  <filter id="filter-5" height="734.1%" width="734.1%" y="-269.8%" x="-283.3%" filterUnits="objectBoundingBox">
   <feOffset in="SourceAlpha" result="shadowOffsetOuter1" dx="4" dy="6"/>
   <feGaussianBlur stdDeviation="14" result="shadowBlurOuter1" in="shadowOffsetOuter1"/>
   <feColorMatrix type="matrix" values="0 0 0 0 0   0 0 0 0 0   0 0 0 0 0  0 0 0 0.5 0" result="shadowMatrixOuter1" in="shadowBlurOuter1"/>
   <feOffset in="SourceAlpha" result="shadowOffsetOuter2" dx="1" dy="1"/>
   <feGaussianBlur stdDeviation="1" result="shadowBlurOuter2" in="shadowOffsetOuter2"/>
   <feColorMatrix type="matrix" values="0 0 0 0 0   0 0 0 0 0   0 0 0 0 0  0 0 0 0.5 0" result="shadowMatrixOuter2" in="shadowBlurOuter2"/>
   <feMerge>
    <feMergeNode in="shadowMatrixOuter1"/>
    <feMergeNode in="shadowMatrixOuter2"/>
   </feMerge>
  </filter>
  <circle id="path-6" cy="297.73" cx="8.6479" r="8.6479"/>
  <filter id="filter-7" height="140.5%" width="140.5%" y="-14.5%" x="-14.5%" filterUnits="objectBoundingBox">
   <feOffset in="SourceAlpha" result="shadowOffsetOuter1" dx="1" dy="1"/>
   <feGaussianBlur stdDeviation="1" result="shadowBlurOuter1" in="shadowOffsetOuter1"/>
   <feColorMatrix type="matrix" values="0 0 0 0 0   0 0 0 0 0   0 0 0 0 0  0 0 0 0.5 0" in="shadowBlurOuter1"/>
  </filter>
  <circle id="path-8" cy="8.6479" cx="626.35" r="8.6479"/>
  <filter id="filter-9" height="140.5%" width="140.5%" y="-14.5%" x="-14.5%" filterUnits="objectBoundingBox">
   <feOffset in="SourceAlpha" result="shadowOffsetOuter1" dx="1" dy="1"/>
   <feGaussianBlur stdDeviation="1" result="shadowBlurOuter1" in="shadowOffsetOuter1"/>
   <feColorMatrix type="matrix" values="0 0 0 0 0   0 0 0 0 0   0 0 0 0 0  0 0 0 0.5 0" in="shadowBlurOuter1"/>
  </filter>
 </defs>
 <g id="Page-2" fill-rule="evenodd" fill="none">
  <g id="Token-Model-Page---Outline-Text-for-svg-output" transform="translate(-637 -2264)">
   <g id="Graph-2:-MCR" transform="translate(640 2274)">
    <g id="Rectangle">
     <use filter="url(#filter-2)" xlink:href="#path-1" fill="black"/>
     <use xlink:href="#path-1" fill-rule="evenodd" fill="#FFFFFF"/>
    </g>
    <path id="Line-Copy-4" stroke="#E5E5E5" stroke-width=".61770" stroke-linecap="square" d="m9.2656 314h617.7"/>
    <path id="Line-Copy-3" stroke="#E5E5E5" stroke-width=".61770" stroke-linecap="square" d="m9.2656 251h617.7"/>
    <path id="Line-Copy-2" stroke="#E5E5E5" stroke-width=".61770" stroke-linecap="square" d="m9.2656 187.99h617.7"/>
    <path id="Line-Copy" stroke="#E5E5E5" stroke-width=".61770" stroke-linecap="square" d="m8.339 124.99h618.63"/>
    <path id="Line" stroke="#E5E5E5" stroke-width=".61770" stroke-linecap="square" d="m8.339 61.98h618.63"/>
    <rect id="Rectangle-8" height="67" width="178" y="278" x="153" fill="#fff"/>
    <g id="Group-2" transform="translate(0 49.008)">
     <g id="Group" transform="translate(8.6479 .61770)">
      <path id="Path-2" fill="url(#linearGradient-3)" d="m0.6177 298.04c86.756-1.52 148.32-3.37 184.69-5.56 52.6-3.16 99.76-6 138.37-13.28 187.78-39.32 285.58-128.27 293.41-266.85l1.21 310.63c0.01 2.76-2.22 5.01-4.98 5.02h-0.02-607.68c-2.7637 0-5.0023-2.24-5.0023-5v-24.96z"/>
      <path id="Combined-Shape" fill="#1EAB89" d="m1.5987e-14 295.83l236.58-6.44c244.61-22.44 371.04-118.78 379.27-289.01l1.85-0.00021v24.025c-19.85 158.12-146.89 247.36-381.12 267.76l-236.58 7.05 1.6272e-14 -3.38z"/>
      <g id="Rectangle-2" transform="translate(235.94 289.69) rotate(45) translate(-235.94 -289.69)">
       <use filter="url(#filter-5)" xlink:href="#path-4" fill="black"/>
       <use xlink:href="#path-4" fill-rule="evenodd" fill="#1EAB89"/>
      </g>
      <rect id="Rectangle-2" transform="translate(235.95 289.69) rotate(45) translate(-235.95 -289.69)" height="7.8428" width="7.8428" y="285.77" x="232.03" fill="#58CD9E"/>
     </g>
     <g id="Oval">
      <use filter="url(#filter-7)" xlink:href="#path-6" fill="black"/>
      <use xlink:href="#path-6" fill-rule="evenodd" fill="#1EAB89"/>
     </g>
     <g id="Oval">
      <use filter="url(#filter-9)" xlink:href="#path-8" fill="black"/>
      <use xlink:href="#path-8" fill-rule="evenodd" fill="#1EAB89"/>
     </g>
     <circle id="Oval-2" cy="297.73" cx="8.6479" r="4.9416" fill="#58CD9E"/>
     <path id="Triangle" fill="#58CD9E" d="m626.84 4.673l3.71 5.358c0.39 0.561 0.25 1.331-0.31 1.719-0.21 0.143-0.45 0.22-0.7 0.22h-6.41c-0.68 0-1.23-0.554-1.23-1.236 0-0.251 0.07-0.496 0.22-0.703l3.71-5.358c0.19-0.2805 0.57-0.3505 0.86-0.1563 0.06 0.0423 0.11 0.0952 0.15 0.1563z" transform="translate(626.33 7.9545) rotate(3) translate(-626.33 -7.9545)"/>
    </g>
    <path id="Minimum-Capital-Requ" fill-opacity=".6" fill="#1F2124" d="m187.06 297.82l0.04-2.94h-0.11l-1.96 5.03-1.96-5.03h-0.11l0.04 2.94v4.68h-1.38v-9.77h1.91l1.5 3.88h0.1l1.51-3.88h1.81v9.77h-1.39v-4.68zm6.82-3.86c-0.39 0-0.67-0.08-0.82-0.24s-0.23-0.35-0.23-0.59v-0.29c0-0.23 0.08-0.43 0.23-0.59s0.42-0.24 0.81-0.24 0.66 0.08 0.81 0.24c0.16 0.16 0.24 0.36 0.24 0.59v0.29c0 0.24-0.08 0.43-0.24 0.59-0.15 0.16-0.42 0.24-0.8 0.24zm-3.23 7.31h2.46v-4.76h-2.46v-1.23h3.99v5.99h2.31v1.23h-6.3v-1.23zm8.16 1.23v-7.22h1.52v1.23h0.07c0.08-0.19 0.17-0.37 0.29-0.54s0.26-0.32 0.43-0.45 0.36-0.23 0.59-0.3c0.22-0.07 0.48-0.11 0.78-0.11 0.73 0 1.32 0.24 1.76 0.71 0.45 0.48 0.68 1.15 0.68 2.03v4.65h-1.53v-4.42c0-1.15-0.5-1.73-1.5-1.73-0.19 0-0.39 0.03-0.57 0.08-0.19 0.05-0.36 0.13-0.51 0.23s-0.27 0.24-0.35 0.39c-0.09 0.16-0.14 0.34-0.14 0.55v4.9h-1.52zm11.87-8.54c-0.39 0-0.67-0.08-0.82-0.24s-0.23-0.35-0.23-0.59v-0.29c0-0.23 0.08-0.43 0.23-0.59s0.42-0.24 0.81-0.24 0.66 0.08 0.81 0.24c0.16 0.16 0.24 0.36 0.24 0.59v0.29c0 0.24-0.08 0.43-0.24 0.59-0.15 0.16-0.42 0.24-0.8 0.24zm-3.23 7.31h2.46v-4.76h-2.46v-1.23h3.99v5.99h2.31v1.23h-6.3v-1.23zm7.6 1.23v-7.22h1.3v0.93h0.07c0.11-0.3 0.27-0.57 0.48-0.78s0.51-0.32 0.91-0.32c0.38 0 0.67 0.1 0.88 0.31s0.35 0.5 0.4 0.86h0.06c0.13-0.32 0.31-0.6 0.55-0.83 0.23-0.23 0.56-0.34 1-0.34 0.56 0 0.95 0.19 1.17 0.59 0.22 0.39 0.33 0.96 0.33 1.72v5.08h-1.3v-4.89c0-0.5-0.06-0.85-0.18-1.04s-0.32-0.29-0.59-0.29c-0.24 0-0.45 0.09-0.61 0.25s-0.24 0.41-0.24 0.73v5.24h-1.31v-4.89c0-0.5-0.06-0.85-0.17-1.04-0.12-0.19-0.31-0.29-0.58-0.29-0.25 0-0.46 0.09-0.63 0.25-0.16 0.16-0.24 0.41-0.24 0.73v5.24h-1.3zm13.48-1.23h-0.07c-0.08 0.18-0.17 0.36-0.29 0.54-0.11 0.17-0.26 0.32-0.42 0.45-0.17 0.12-0.37 0.22-0.59 0.3-0.23 0.07-0.49 0.11-0.79 0.11-0.72 0-1.31-0.24-1.76-0.72-0.45-0.47-0.67-1.15-0.67-2.03v-4.64h1.52v4.42c0 1.15 0.5 1.72 1.5 1.72 0.2 0 0.39-0.02 0.58-0.08 0.18-0.05 0.35-0.12 0.5-0.23 0.15-0.1 0.27-0.23 0.36-0.38 0.08-0.16 0.13-0.34 0.13-0.55v-4.9h1.53v7.22h-1.53v-1.23zm3.32 1.23v-7.22h1.3v0.93h0.07c0.11-0.3 0.27-0.57 0.48-0.78s0.51-0.32 0.91-0.32c0.38 0 0.67 0.1 0.88 0.31s0.35 0.5 0.4 0.86h0.06c0.13-0.32 0.31-0.6 0.55-0.83 0.23-0.23 0.56-0.34 1-0.34 0.56 0 0.95 0.19 1.17 0.59 0.22 0.39 0.33 0.96 0.33 1.72v5.08h-1.3v-4.89c0-0.5-0.06-0.85-0.18-1.04s-0.32-0.29-0.59-0.29c-0.24 0-0.45 0.09-0.61 0.25s-0.24 0.41-0.24 0.73v5.24h-1.31v-4.89c0-0.5-0.06-0.85-0.17-1.04-0.12-0.19-0.31-0.29-0.58-0.29-0.25 0-0.46 0.09-0.63 0.25-0.16 0.16-0.24 0.41-0.24 0.73v5.24h-1.3zm20.66 0.17c-1.24 0-2.16-0.44-2.76-1.32-0.61-0.88-0.91-2.12-0.91-3.74 0-1.61 0.3-2.86 0.91-3.73 0.6-0.88 1.52-1.32 2.76-1.32 0.48 0 0.89 0.06 1.24 0.19s0.65 0.3 0.9 0.52c0.26 0.22 0.47 0.47 0.64 0.77 0.17 0.29 0.32 0.61 0.43 0.94l-1.42 0.48c-0.07-0.23-0.16-0.44-0.25-0.63-0.09-0.2-0.21-0.37-0.35-0.51s-0.3-0.25-0.5-0.33c-0.19-0.09-0.42-0.13-0.7-0.13-0.69 0-1.2 0.27-1.51 0.79-0.32 0.53-0.48 1.24-0.48 2.14v1.65c0 0.9 0.16 1.61 0.48 2.14 0.31 0.52 0.82 0.79 1.51 0.79 0.28 0 0.51-0.05 0.7-0.13 0.2-0.08 0.36-0.2 0.5-0.34s0.26-0.3 0.35-0.5 0.18-0.41 0.25-0.63l1.42 0.48c-0.11 0.33-0.26 0.65-0.43 0.94-0.17 0.3-0.38 0.55-0.64 0.77-0.25 0.22-0.55 0.39-0.9 0.52s-0.76 0.19-1.24 0.19zm10.81-0.17c-0.44 0-0.77-0.11-0.99-0.34-0.22-0.22-0.35-0.51-0.4-0.88h-0.07c-0.14 0.44-0.39 0.78-0.76 1.02-0.37 0.25-0.84 0.37-1.41 0.37-0.73 0-1.32-0.2-1.76-0.58-0.44-0.39-0.66-0.92-0.66-1.61 0-0.7 0.26-1.23 0.78-1.6s1.31-0.55 2.39-0.55h1.38v-0.56c0-0.98-0.52-1.47-1.55-1.47-0.47 0-0.85 0.09-1.14 0.27s-0.53 0.42-0.72 0.72l-0.91-0.74c0.2-0.39 0.55-0.73 1.03-1.01 0.49-0.29 1.11-0.43 1.88-0.43 0.91 0 1.63 0.22 2.15 0.66 0.53 0.43 0.79 1.07 0.79 1.9v3.63h0.91v1.2h-0.94zm-3.19-0.95c0.49 0 0.9-0.11 1.22-0.34 0.31-0.22 0.47-0.51 0.47-0.87v-1.05h-1.36c-1.1 0-1.65 0.34-1.65 1v0.28c0 0.32 0.12 0.57 0.35 0.73 0.23 0.17 0.56 0.25 0.97 0.25zm5.81-6.27h1.52v1.23h0.09c0.21-0.44 0.5-0.78 0.85-1.03 0.36-0.25 0.8-0.37 1.33-0.37 0.85 0 1.53 0.32 2.03 0.95 0.51 0.63 0.76 1.58 0.76 2.83s-0.25 2.19-0.76 2.83c-0.5 0.63-1.18 0.95-2.03 0.95-0.53 0-0.97-0.13-1.33-0.37-0.35-0.25-0.64-0.59-0.85-1.03h-0.09v4.03h-1.52v-10.02zm3.16 6.14c0.58 0 1.03-0.18 1.34-0.53s0.47-0.83 0.47-1.41v-1.18c0-0.59-0.16-1.06-0.47-1.41-0.31-0.36-0.76-0.54-1.34-0.54-0.22 0-0.43 0.03-0.63 0.09-0.19 0.05-0.37 0.14-0.52 0.25s-0.27 0.25-0.35 0.41c-0.09 0.17-0.14 0.36-0.14 0.58v2.41c0 0.23 0.05 0.42 0.14 0.58 0.08 0.17 0.2 0.3 0.35 0.42 0.15 0.11 0.33 0.19 0.52 0.25 0.2 0.05 0.41 0.08 0.63 0.08zm8.78-7.46c-0.39 0-0.67-0.08-0.82-0.24s-0.23-0.35-0.23-0.59v-0.29c0-0.23 0.08-0.43 0.23-0.59s0.42-0.24 0.81-0.24 0.66 0.08 0.81 0.24c0.16 0.16 0.24 0.36 0.24 0.59v0.29c0 0.24-0.08 0.43-0.24 0.59-0.15 0.16-0.42 0.24-0.8 0.24zm-3.23 7.31h2.46v-4.76h-2.46v-1.23h3.99v5.99h2.31v1.23h-6.3v-1.23zm11.62 1.23c-0.64 0-1.11-0.17-1.4-0.51-0.3-0.34-0.45-0.78-0.45-1.32v-4.16h-2.23v-1.23h1.58c0.27 0 0.47-0.06 0.58-0.16 0.11-0.11 0.17-0.31 0.17-0.59v-1.8h1.42v2.55h3.08v1.23h-3.08v4.76h3.08v1.23h-2.75zm10.65 0c-0.44 0-0.77-0.11-0.99-0.34-0.22-0.22-0.35-0.51-0.4-0.88h-0.07c-0.14 0.44-0.39 0.78-0.76 1.02-0.37 0.25-0.84 0.37-1.41 0.37-0.73 0-1.32-0.2-1.76-0.58-0.44-0.39-0.66-0.92-0.66-1.61 0-0.7 0.26-1.23 0.78-1.6s1.31-0.55 2.39-0.55h1.38v-0.56c0-0.98-0.52-1.47-1.55-1.47-0.47 0-0.85 0.09-1.14 0.27s-0.53 0.42-0.72 0.72l-0.91-0.74c0.2-0.39 0.55-0.73 1.03-1.01 0.49-0.29 1.11-0.43 1.88-0.43 0.91 0 1.63 0.22 2.15 0.66 0.53 0.43 0.79 1.07 0.79 1.9v3.63h0.91v1.2h-0.94zm-3.19-0.95c0.49 0 0.9-0.11 1.22-0.34 0.31-0.22 0.47-0.51 0.47-0.87v-1.05h-1.36c-1.1 0-1.65 0.34-1.65 1v0.28c0 0.32 0.12 0.57 0.35 0.73 0.23 0.17 0.56 0.25 0.97 0.25zm5.75-0.28h2.4v-7.9h-2.4v-1.23h3.92v9.13h2.4v1.23h-6.32v-1.23zm-124.32 19.23h-1.55v-9.77h3.65c0.93 0 1.65 0.26 2.14 0.78s0.73 1.24 0.73 2.16c0 0.74-0.18 1.36-0.54 1.85-0.37 0.48-0.89 0.78-1.57 0.89l2.25 4.09h-1.73l-2.08-3.95h-1.3v3.95zm1.88-5.21c0.97 0 1.45-0.44 1.45-1.33v-0.6c0-0.89-0.48-1.33-1.45-1.33h-1.88v3.26h1.88zm8.15 5.38c-0.56 0-1.05-0.09-1.49-0.27s-0.81-0.43-1.1-0.75c-0.3-0.33-0.53-0.72-0.69-1.19-0.16-0.46-0.24-0.98-0.24-1.56s0.08-1.1 0.25-1.57c0.16-0.46 0.39-0.86 0.68-1.19 0.3-0.33 0.65-0.59 1.07-0.77 0.42-0.17 0.89-0.26 1.4-0.26s0.96 0.08 1.38 0.26c0.41 0.17 0.76 0.41 1.05 0.73 0.28 0.32 0.51 0.7 0.66 1.14 0.15 0.43 0.23 0.92 0.23 1.45v0.58h-5.18v0.23c0 0.57 0.18 1.04 0.53 1.4 0.36 0.36 0.85 0.54 1.47 0.54 0.47 0 0.87-0.1 1.2-0.3 0.33-0.21 0.6-0.47 0.81-0.81l0.95 0.84c-0.25 0.42-0.62 0.77-1.12 1.06s-1.12 0.44-1.86 0.44zm-0.12-6.4c-0.27 0-0.52 0.05-0.75 0.14-0.22 0.09-0.42 0.23-0.58 0.4-0.17 0.17-0.3 0.37-0.39 0.61-0.09 0.23-0.14 0.49-0.14 0.77v0.1h3.63v-0.14c0-0.57-0.16-1.03-0.49-1.37-0.32-0.34-0.74-0.51-1.28-0.51zm9.93 5h-0.08c-0.22 0.44-0.5 0.78-0.86 1.03-0.35 0.24-0.8 0.37-1.33 0.37-0.85 0-1.52-0.32-2.03-0.95-0.5-0.64-0.75-1.58-0.75-2.83s0.25-2.2 0.75-2.83c0.51-0.63 1.18-0.95 2.03-0.95 0.53 0 0.98 0.12 1.33 0.37 0.36 0.25 0.64 0.59 0.86 1.03h0.08v-1.23h1.53v10.02h-1.53v-4.03zm-1.64 0.15c0.23 0 0.44-0.03 0.63-0.08 0.2-0.06 0.37-0.14 0.52-0.25 0.15-0.12 0.27-0.25 0.36-0.42 0.08-0.16 0.13-0.35 0.13-0.58v-2.41c0-0.22-0.05-0.41-0.13-0.58-0.09-0.16-0.21-0.3-0.36-0.41s-0.32-0.2-0.52-0.25c-0.19-0.06-0.4-0.09-0.63-0.09-0.58 0-1.02 0.18-1.34 0.54-0.31 0.35-0.46 0.82-0.46 1.41v1.18c0 0.58 0.15 1.06 0.46 1.41 0.32 0.35 0.76 0.53 1.34 0.53zm9.97-0.15h-0.07c-0.08 0.18-0.17 0.36-0.29 0.54-0.11 0.17-0.26 0.32-0.42 0.45-0.17 0.12-0.37 0.22-0.59 0.3-0.23 0.07-0.49 0.11-0.79 0.11-0.72 0-1.31-0.24-1.76-0.72-0.45-0.47-0.67-1.15-0.67-2.03v-4.64h1.52v4.42c0 1.15 0.5 1.72 1.5 1.72 0.2 0 0.39-0.02 0.58-0.08 0.18-0.05 0.35-0.12 0.5-0.23 0.15-0.1 0.27-0.23 0.36-0.38 0.08-0.16 0.13-0.34 0.13-0.55v-4.9h1.53v7.22h-1.53v-1.23zm7.35-7.31c-0.39 0-0.67-0.08-0.82-0.24s-0.23-0.35-0.23-0.59v-0.29c0-0.23 0.08-0.43 0.23-0.59s0.42-0.24 0.81-0.24 0.66 0.08 0.81 0.24c0.16 0.16 0.24 0.36 0.24 0.59v0.29c0 0.24-0.08 0.43-0.24 0.59-0.15 0.16-0.42 0.24-0.8 0.24zm-3.23 7.31h2.46v-4.76h-2.46v-1.23h3.99v5.99h2.31v1.23h-6.3v-1.23zm8.05 0h1.91v-4.76h-1.91v-1.23h3.44v1.91h0.08c0.07-0.25 0.16-0.49 0.28-0.72 0.12-0.24 0.28-0.44 0.47-0.61 0.18-0.18 0.41-0.32 0.68-0.42 0.27-0.11 0.59-0.16 0.95-0.16h0.87v1.45h-1.43c-0.56 0-1.01 0.17-1.37 0.5-0.35 0.33-0.53 0.78-0.53 1.34v2.7h2.62v1.23h-6.06v-1.23zm11.69 1.4c-0.56 0-1.05-0.09-1.49-0.27s-0.81-0.43-1.1-0.75c-0.3-0.33-0.53-0.72-0.69-1.19-0.16-0.46-0.24-0.98-0.24-1.56s0.08-1.1 0.25-1.57c0.16-0.46 0.39-0.86 0.68-1.19 0.3-0.33 0.65-0.59 1.07-0.77 0.42-0.17 0.89-0.26 1.4-0.26s0.96 0.08 1.38 0.26c0.41 0.17 0.76 0.41 1.05 0.73 0.28 0.32 0.51 0.7 0.66 1.14 0.15 0.43 0.23 0.92 0.23 1.45v0.58h-5.18v0.23c0 0.57 0.18 1.04 0.53 1.4 0.36 0.36 0.85 0.54 1.47 0.54 0.47 0 0.87-0.1 1.2-0.3 0.33-0.21 0.6-0.47 0.81-0.81l0.95 0.84c-0.25 0.42-0.62 0.77-1.12 1.06s-1.12 0.44-1.86 0.44zm-0.12-6.4c-0.27 0-0.52 0.05-0.75 0.14-0.22 0.09-0.42 0.23-0.58 0.4-0.17 0.17-0.3 0.37-0.39 0.61-0.09 0.23-0.14 0.49-0.14 0.77v0.1h3.63v-0.14c0-0.57-0.16-1.03-0.49-1.37-0.32-0.34-0.74-0.51-1.28-0.51zm4.78 6.23v-7.22h1.3v0.93h0.07c0.11-0.3 0.27-0.57 0.48-0.78s0.51-0.32 0.91-0.32c0.38 0 0.67 0.1 0.88 0.31s0.35 0.5 0.4 0.86h0.06c0.13-0.32 0.31-0.6 0.55-0.83 0.23-0.23 0.56-0.34 1-0.34 0.56 0 0.95 0.19 1.17 0.59 0.22 0.39 0.33 0.96 0.33 1.72v5.08h-1.3v-4.89c0-0.5-0.06-0.85-0.18-1.04s-0.32-0.29-0.59-0.29c-0.24 0-0.45 0.09-0.61 0.25s-0.24 0.41-0.24 0.73v5.24h-1.31v-4.89c0-0.5-0.06-0.85-0.17-1.04-0.12-0.19-0.31-0.29-0.58-0.29-0.25 0-0.46 0.09-0.63 0.25-0.16 0.16-0.24 0.41-0.24 0.73v5.24h-1.3zm12.14 0.17c-0.56 0-1.05-0.09-1.49-0.27s-0.81-0.43-1.1-0.75c-0.3-0.33-0.53-0.72-0.69-1.19-0.16-0.46-0.24-0.98-0.24-1.56s0.08-1.1 0.25-1.57c0.16-0.46 0.39-0.86 0.68-1.19 0.3-0.33 0.65-0.59 1.07-0.77 0.42-0.17 0.89-0.26 1.4-0.26s0.96 0.08 1.38 0.26c0.41 0.17 0.76 0.41 1.05 0.73 0.28 0.32 0.51 0.7 0.66 1.14 0.15 0.43 0.23 0.92 0.23 1.45v0.58h-5.18v0.23c0 0.57 0.18 1.04 0.53 1.4 0.36 0.36 0.85 0.54 1.47 0.54 0.47 0 0.87-0.1 1.2-0.3 0.33-0.21 0.6-0.47 0.81-0.81l0.95 0.84c-0.25 0.42-0.62 0.77-1.12 1.06s-1.12 0.44-1.86 0.44zm-0.12-6.4c-0.27 0-0.52 0.05-0.75 0.14-0.22 0.09-0.42 0.23-0.58 0.4-0.17 0.17-0.3 0.37-0.39 0.61-0.09 0.23-0.14 0.49-0.14 0.77v0.1h3.63v-0.14c0-0.57-0.16-1.03-0.49-1.37-0.32-0.34-0.74-0.51-1.28-0.51zm5.34 6.23v-7.22h1.52v1.23h0.07c0.08-0.19 0.17-0.37 0.29-0.54s0.26-0.32 0.43-0.45 0.36-0.23 0.59-0.3c0.22-0.07 0.48-0.11 0.78-0.11 0.73 0 1.32 0.24 1.76 0.71 0.45 0.48 0.68 1.15 0.68 2.03v4.65h-1.53v-4.42c0-1.15-0.5-1.73-1.5-1.73-0.19 0-0.39 0.03-0.57 0.08-0.19 0.05-0.36 0.13-0.51 0.23s-0.27 0.24-0.35 0.39c-0.09 0.16-0.14 0.34-0.14 0.55v4.9h-1.52zm11.86 0c-0.64 0-1.11-0.17-1.4-0.51-0.3-0.34-0.45-0.78-0.45-1.32v-4.16h-2.23v-1.23h1.58c0.27 0 0.47-0.06 0.58-0.16 0.11-0.11 0.17-0.31 0.17-0.59v-1.8h1.42v2.55h3.08v1.23h-3.08v4.76h3.08v1.23h-2.75zm14.85-4.35c0-0.69 0.08-1.34 0.23-1.97s0.36-1.22 0.63-1.76 0.58-1.03 0.93-1.46c0.36-0.44 0.73-0.8 1.12-1.1h1.53c-0.42 0.3-0.82 0.65-1.19 1.05-0.38 0.4-0.7 0.84-0.98 1.33s-0.51 1-0.67 1.55c-0.17 0.54-0.26 1.11-0.26 1.71v1.29c0 0.6 0.09 1.17 0.26 1.71 0.16 0.55 0.39 1.07 0.67 1.55 0.28 0.49 0.6 0.93 0.98 1.33 0.37 0.4 0.77 0.75 1.19 1.05h-1.53c-0.39-0.29-0.76-0.65-1.12-1.09-0.35-0.44-0.66-0.93-0.93-1.47s-0.48-1.13-0.63-1.76-0.23-1.28-0.23-1.96zm11.94-0.33l0.04-2.94h-0.11l-1.96 5.03-1.96-5.03h-0.11l0.04 2.94v4.68h-1.38v-9.77h1.91l1.5 3.88h0.1l1.51-3.88h1.81v9.77h-1.39v-4.68zm6.65 4.85c-1.24 0-2.16-0.44-2.76-1.32-0.61-0.88-0.91-2.12-0.91-3.74 0-1.61 0.3-2.86 0.91-3.73 0.6-0.88 1.52-1.32 2.76-1.32 0.48 0 0.89 0.06 1.24 0.19s0.65 0.3 0.9 0.52c0.26 0.22 0.47 0.47 0.64 0.77 0.17 0.29 0.32 0.61 0.43 0.94l-1.42 0.48c-0.07-0.23-0.16-0.44-0.25-0.63-0.09-0.2-0.21-0.37-0.35-0.51s-0.3-0.25-0.5-0.33c-0.19-0.09-0.42-0.13-0.7-0.13-0.69 0-1.2 0.27-1.51 0.79-0.32 0.53-0.48 1.24-0.48 2.14v1.65c0 0.9 0.16 1.61 0.48 2.14 0.31 0.52 0.82 0.79 1.51 0.79 0.28 0 0.51-0.05 0.7-0.13 0.2-0.08 0.36-0.2 0.5-0.34s0.26-0.3 0.35-0.5 0.18-0.41 0.25-0.63l1.42 0.48c-0.11 0.33-0.26 0.65-0.43 0.94-0.17 0.3-0.38 0.55-0.64 0.77-0.25 0.22-0.55 0.39-0.9 0.52s-0.76 0.19-1.24 0.19zm6.65-0.17h-1.55v-9.77h3.65c0.93 0 1.65 0.26 2.14 0.78s0.73 1.24 0.73 2.16c0 0.74-0.18 1.36-0.54 1.85-0.37 0.48-0.89 0.78-1.57 0.89l2.25 4.09h-1.73l-2.08-3.95h-1.3v3.95zm1.88-5.21c0.97 0 1.45-0.44 1.45-1.33v-0.6c0-0.89-0.48-1.33-1.45-1.33h-1.88v3.26h1.88zm9.5 0.86c0 0.68-0.07 1.33-0.23 1.96-0.15 0.63-0.36 1.22-0.63 1.76-0.26 0.54-0.57 1.03-0.93 1.47-0.35 0.44-0.73 0.8-1.12 1.09h-1.52c0.42-0.3 0.81-0.65 1.19-1.05 0.37-0.4 0.7-0.84 0.98-1.33 0.28-0.48 0.5-1 0.67-1.55 0.17-0.54 0.25-1.11 0.25-1.71v-1.29c0-0.6-0.08-1.17-0.25-1.71-0.17-0.55-0.39-1.06-0.67-1.55s-0.61-0.93-0.98-1.33c-0.38-0.4-0.77-0.75-1.19-1.05h1.52c0.39 0.3 0.77 0.66 1.12 1.1 0.36 0.43 0.67 0.92 0.93 1.46 0.27 0.54 0.48 1.13 0.63 1.76 0.16 0.63 0.23 1.28 0.23 1.97z"/>
   </g>
  </g>
 </g>
</svg>
