<?xml version="1.0" encoding="UTF-8"?>
<svg width="649px" height="254px" viewBox="0 0 649 254" version="1.1" xmlns="http://www.w3.org/2000/svg" xmlns:xlink="http://www.w3.org/1999/xlink">
    <!-- Generator: Sketch 51.2 (57519) - http://www.bohemiancoding.com/sketch -->
    <title>Graph 6: Cover Purchase</title>
    <desc>Created with Sketch.</desc>
    <defs>
        <rect id="path-1" x="0" y="2.27373675e-13" width="207.121097" height="156" rx="1.92134598"></rect>
        <filter x="-6.5%" y="-8.7%" width="115.9%" height="121.2%" filterUnits="objectBoundingBox" id="filter-2">
            <feOffset dx="2" dy="2" in="SourceAlpha" result="shadowOffsetOuter1"></feOffset>
            <feGaussianBlur stdDeviation="4.5" in="shadowOffsetOuter1" result="shadowBlurOuter1"></feGaussianBlur>
            <feColorMatrix values="0 0 0 0 0.792156863   0 0 0 0 0.823529412   0 0 0 0 0.878431373  0 0 0 0.7 0" type="matrix" in="shadowBlurOuter1" result="shadowMatrixOuter1"></feColorMatrix>
            <feOffset dx="1" dy="1" in="SourceAlpha" result="shadowOffsetOuter2"></feOffset>
            <feGaussianBlur stdDeviation="1" in="shadowOffsetOuter2" result="shadowBlurOuter2"></feGaussianBlur>
            <feColorMatrix values="0 0 0 0 0.784313725   0 0 0 0 0.823529412   0 0 0 0 0.882352941  0 0 0 1 0" type="matrix" in="shadowBlurOuter2" result="shadowMatrixOuter2"></feColorMatrix>
            <feMerge>
                <feMergeNode in="shadowMatrixOuter1"></feMergeNode>
                <feMergeNode in="shadowMatrixOuter2"></feMergeNode>
            </feMerge>
        </filter>
        <rect id="path-3" x="22.5488372" y="0" width="386.046512" height="236.265116" rx="5"></rect>
        <filter x="-3.8%" y="-5.7%" width="108.5%" height="114.0%" filterUnits="objectBoundingBox" id="filter-4">
            <feOffset dx="2" dy="2" in="SourceAlpha" result="shadowOffsetOuter1"></feOffset>
            <feGaussianBlur stdDeviation="4.5" in="shadowOffsetOuter1" result="shadowBlurOuter1"></feGaussianBlur>
            <feColorMatrix values="0 0 0 0 0.792156863   0 0 0 0 0.823529412   0 0 0 0 0.878431373  0 0 0 0.7 0" type="matrix" in="shadowBlurOuter1" result="shadowMatrixOuter1"></feColorMatrix>
            <feOffset dx="0" dy="1" in="SourceAlpha" result="shadowOffsetOuter2"></feOffset>
            <feGaussianBlur stdDeviation="1" in="shadowOffsetOuter2" result="shadowBlurOuter2"></feGaussianBlur>
            <feColorMatrix values="0 0 0 0 0.784313725   0 0 0 0 0.823529412   0 0 0 0 0.882352941  0 0 0 1 0" type="matrix" in="shadowBlurOuter2" result="shadowMatrixOuter2"></feColorMatrix>
            <feMerge>
                <feMergeNode in="shadowMatrixOuter1"></feMergeNode>
                <feMergeNode in="shadowMatrixOuter2"></feMergeNode>
            </feMerge>
        </filter>
        <linearGradient x1="0%" y1="100%" x2="100%" y2="100%" id="linearGradient-5">
            <stop stop-color="#1EAB89" stop-opacity="0" offset="0%"></stop>
            <stop stop-color="#1EAB89" stop-opacity="0.2" offset="100%"></stop>
        </linearGradient>
        <rect id="path-6" x="142.825845" y="176.411892" width="9.26511628" height="9.26511628"></rect>
        <filter x="-313.0%" y="-280.6%" width="769.2%" height="769.2%" filterUnits="objectBoundingBox" id="filter-7">
            <feOffset dx="2" dy="4" in="SourceAlpha" result="shadowOffsetOuter1"></feOffset>
            <feGaussianBlur stdDeviation="9" in="shadowOffsetOuter1" result="shadowBlurOuter1"></feGaussianBlur>
            <feColorMatrix values="0 0 0 0 0   0 0 0 0 0   0 0 0 0 0  0 0 0 0.128311821 0" type="matrix" in="shadowBlurOuter1" result="shadowMatrixOuter1"></feColorMatrix>
            <feOffset dx="0" dy="1" in="SourceAlpha" result="shadowOffsetOuter2"></feOffset>
            <feGaussianBlur stdDeviation="1" in="shadowOffsetOuter2" result="shadowBlurOuter2"></feGaussianBlur>
            <feColorMatrix values="0 0 0 0 0   0 0 0 0 0   0 0 0 0 0  0 0 0 0.100175498 0" type="matrix" in="shadowBlurOuter2" result="shadowMatrixOuter2"></feColorMatrix>
            <feMerge>
                <feMergeNode in="shadowMatrixOuter1"></feMergeNode>
                <feMergeNode in="shadowMatrixOuter2"></feMergeNode>
            </feMerge>
        </filter>
        <circle id="path-8" cx="5.40465116" cy="186.074419" r="5.40465116"></circle>
        <filter x="-32.4%" y="-23.1%" width="164.8%" height="164.8%" filterUnits="objectBoundingBox" id="filter-9">
            <feOffset dx="0" dy="1" in="SourceAlpha" result="shadowOffsetOuter1"></feOffset>
            <feGaussianBlur stdDeviation="1" in="shadowOffsetOuter1" result="shadowBlurOuter1"></feGaussianBlur>
            <feColorMatrix values="0 0 0 0 0   0 0 0 0 0   0 0 0 0 0  0 0 0 0.5 0" type="matrix" in="shadowBlurOuter1"></feColorMatrix>
        </filter>
        <circle id="path-10" cx="391.451163" cy="5.40465116" r="5.40465116"></circle>
        <filter x="-32.4%" y="-23.1%" width="164.8%" height="164.8%" filterUnits="objectBoundingBox" id="filter-11">
            <feOffset dx="0" dy="1" in="SourceAlpha" result="shadowOffsetOuter1"></feOffset>
            <feGaussianBlur stdDeviation="1" in="shadowOffsetOuter1" result="shadowBlurOuter1"></feGaussianBlur>
            <feColorMatrix values="0 0 0 0 0   0 0 0 0 0   0 0 0 0 0  0 0 0 0.5 0" type="matrix" in="shadowBlurOuter1"></feColorMatrix>
        </filter>
        <filter x="-37.6%" y="-8.1%" width="167.1%" height="123.0%" filterUnits="objectBoundingBox" id="filter-12">
            <feOffset dx="0" dy="1" in="SourceAlpha" result="shadowOffsetOuter1"></feOffset>
            <feGaussianBlur stdDeviation="1" in="shadowOffsetOuter1" result="shadowBlurOuter1"></feGaussianBlur>
            <feColorMatrix values="0 0 0 0 0   0 0 0 0 0   0 0 0 0 0  0 0 0 0.5 0" type="matrix" in="shadowBlurOuter1" result="shadowMatrixOuter1"></feColorMatrix>
            <feMerge>
                <feMergeNode in="shadowMatrixOuter1"></feMergeNode>
                <feMergeNode in="SourceGraphic"></feMergeNode>
            </feMerge>
        </filter>
        <rect id="path-13" x="0" y="0" width="42.0790698" height="96.5116279"></rect>
        <circle id="path-15" cx="3.28139535" cy="3.28139535" r="3.28139535"></circle>
        <filter x="-53.3%" y="-38.1%" width="206.7%" height="206.7%" filterUnits="objectBoundingBox" id="filter-16">
            <feOffset dx="0" dy="1" in="SourceAlpha" result="shadowOffsetOuter1"></feOffset>
            <feGaussianBlur stdDeviation="1" in="shadowOffsetOuter1" result="shadowBlurOuter1"></feGaussianBlur>
            <feColorMatrix values="0 0 0 0 0   0 0 0 0 0   0 0 0 0 0  0 0 0 0.5 0" type="matrix" in="shadowBlurOuter1"></feColorMatrix>
        </filter>
        <circle id="path-17" cx="5.40465116" cy="5.40465116" r="5.40465116"></circle>
        <filter x="-32.4%" y="-23.1%" width="164.8%" height="164.8%" filterUnits="objectBoundingBox" id="filter-18">
            <feOffset dx="0" dy="1" in="SourceAlpha" result="shadowOffsetOuter1"></feOffset>
            <feGaussianBlur stdDeviation="1" in="shadowOffsetOuter1" result="shadowBlurOuter1"></feGaussianBlur>
            <feColorMatrix values="0 0 0 0 0   0 0 0 0 0   0 0 0 0 0  0 0 0 0.5 0" type="matrix" in="shadowBlurOuter1"></feColorMatrix>
        </filter>
    </defs>
    <g id="Page-2" stroke="none" stroke-width="1" fill="none" fill-rule="evenodd">
        <g id="Token-Model-Page---Outline-Text-for-svg-output" transform="translate(-634.000000, -4305.000000)">
            <g id="Graph-6:-Cover-Purchase" transform="translate(641.000000, 4312.000000)">
                <g id="Group-4" transform="translate(0.000000, 46.000000)">
                    <g id="Path">
                        <use fill="black" fill-opacity="1" filter="url(#filter-2)" xlink:href="#path-1"></use>
                        <use fill="#FFFFFF" fill-rule="evenodd" xlink:href="#path-1"></use>
                    </g>
                    <path d="M16.1393062,24.117981 C15.2904022,24.117981 14.6022295,24.8061537 14.6022295,25.6550578 L14.6022295,64.8953126 C14.6022295,65.7442167 15.2904022,66.4323894 16.1393062,66.4323894 L108.556048,66.4323894 C109.404952,66.4323894 110.093125,65.7442167 110.093125,64.8953126 L110.093125,60.4954628 L113.854902,57.5834415 L110.093125,54.9140886 L110.093125,25.6550578 C110.093125,24.8061537 109.404952,24.117981 108.556048,24.117981 L16.1393062,24.117981 Z" id="Path" stroke="#E1E6EE" stroke-width="0.768538392" opacity="0.59609375"></path>
                    <path d="M16.1393062,74.3099079 C15.2904022,74.3099079 14.6022295,74.9980806 14.6022295,75.8469847 L14.6022295,133.402625 C14.6022295,134.251529 15.2904022,134.939702 16.1393062,134.939702 L108.556048,134.939702 C109.404952,134.939702 110.093125,134.251529 110.093125,133.402625 L110.093125,125.118505 L113.440473,121.955803 L110.093125,118.793102 L110.093125,75.8469847 C110.093125,74.9980806 109.404952,74.3099079 108.556048,74.3099079 L16.1393062,74.3099079 Z" id="Path" stroke="#E1E6EE" stroke-width="0.768538392" opacity="0.59609375" transform="translate(64.021352, 104.624805) scale(1, -1) translate(-64.021352, -104.624805) "></path>
                    <path d="M135.175479,47.168 C133.934139,47.168 133.012482,46.7293377 132.410479,45.852 C131.808476,44.9746623 131.507479,43.7286747 131.507479,42.114 C131.507479,40.4993253 131.808476,39.2533377 132.410479,38.376 C133.012482,37.4986623 133.934139,37.06 135.175479,37.06 C135.651481,37.06 136.064477,37.1229994 136.414479,37.249 C136.764481,37.3750006 137.065478,37.5476656 137.317479,37.767 C137.56948,37.9863344 137.781811,38.2429985 137.954479,38.537 C138.127146,38.8310015 138.269478,39.1459983 138.381479,39.482 L136.967479,39.958 C136.892812,39.7339989 136.808813,39.524001 136.715479,39.328 C136.622145,39.131999 136.505479,38.9640007 136.365479,38.824 C136.225478,38.6839993 136.059813,38.5720004 135.868479,38.488 C135.677144,38.4039996 135.44148,38.362 135.161479,38.362 C134.470809,38.362 133.966814,38.625664 133.649479,39.153 C133.332144,39.680336 133.173479,40.3919955 133.173479,41.288 L133.173479,42.94 C133.173479,43.8360045 133.332144,44.547664 133.649479,45.075 C133.966814,45.602336 134.470809,45.866 135.161479,45.866 C135.44148,45.866 135.677144,45.8240004 135.868479,45.74 C136.059813,45.6559996 136.225478,45.5440007 136.365479,45.404 C136.505479,45.2639993 136.622145,45.096001 136.715479,44.9 C136.808813,44.703999 136.892812,44.4940011 136.967479,44.27 L138.381479,44.746 C138.269478,45.0820017 138.127146,45.3969985 137.954479,45.691 C137.781811,45.9850015 137.56948,46.2416656 137.317479,46.461 C137.065478,46.6803344 136.764481,46.8529994 136.414479,46.979 C136.064477,47.1050006 135.651481,47.168 135.175479,47.168 Z M145.983479,47 C145.54481,47 145.215813,46.8880011 144.996479,46.664 C144.777144,46.4399989 144.644146,46.1460018 144.597479,45.782 L144.527479,45.782 C144.387478,46.2206689 144.133147,46.5613321 143.764479,46.804 C143.39581,47.0466679 142.926815,47.168 142.357479,47.168 C141.620142,47.168 141.032148,46.9743353 140.593479,46.587 C140.15481,46.1996647 139.935479,45.6653367 139.935479,44.984 C139.935479,44.2839965 140.194476,43.7496685 140.712479,43.381 C141.230481,43.0123315 142.02614,42.828 143.099479,42.828 L144.485479,42.828 L144.485479,42.268 C144.485479,41.2879951 143.967484,40.798 142.931479,40.798 C142.46481,40.798 142.086814,40.8889991 141.797479,41.071 C141.508144,41.2530009 141.26548,41.4933318 141.069479,41.792 L140.159479,41.05 C140.364813,40.657998 140.710143,40.3196681 141.195479,40.035 C141.680815,39.7503319 142.306142,39.608 143.071479,39.608 C143.98615,39.608 144.704809,39.8273311 145.227479,40.266 C145.750148,40.7046689 146.011479,41.3393292 146.011479,42.17 L146.011479,45.796 L146.921479,45.796 L146.921479,47 L145.983479,47 Z M142.791479,46.048 C143.286148,46.048 143.692144,45.9360011 144.009479,45.712 C144.326814,45.4879989 144.485479,45.1986684 144.485479,44.844 L144.485479,43.794 L143.127479,43.794 C142.02614,43.794 141.475479,44.12533 141.475479,44.788 L141.475479,45.068 C141.475479,45.3946683 141.592144,45.6396659 141.825479,45.803 C142.058813,45.9663342 142.38081,46.048 142.791479,46.048 Z M148.601479,39.776 L150.127479,39.776 L150.127479,41.008 L150.211479,41.008 C150.426147,40.5693311 150.71081,40.2263346 151.065479,39.979 C151.420147,39.7316654 151.863476,39.608 152.395479,39.608 C153.244816,39.608 153.921476,39.9253302 154.425479,40.56 C154.929481,41.1946698 155.181479,42.1373271 155.181479,43.388 C155.181479,44.6386729 154.929481,45.5813302 154.425479,46.216 C153.921476,46.8506698 153.244816,47.168 152.395479,47.168 C151.863476,47.168 151.420147,47.0443346 151.065479,46.797 C150.71081,46.5496654 150.426147,46.2066689 150.211479,45.768 L150.127479,45.768 L150.127479,49.8 L148.601479,49.8 L148.601479,39.776 Z M151.765479,45.922 C152.344148,45.922 152.789811,45.7446684 153.102479,45.39 C153.415147,45.0353316 153.571479,44.5640029 153.571479,43.976 L153.571479,42.8 C153.571479,42.2119971 153.415147,41.7406684 153.102479,41.386 C152.789811,41.0313316 152.344148,40.854 151.765479,40.854 C151.541478,40.854 151.33148,40.8819997 151.135479,40.938 C150.939478,40.9940003 150.766813,41.0779994 150.617479,41.19 C150.468145,41.3020006 150.349146,41.4396659 150.260479,41.603 C150.171812,41.7663342 150.127479,41.9599989 150.127479,42.184 L150.127479,44.592 C150.127479,44.8160011 150.171812,45.0096659 150.260479,45.173 C150.349146,45.3363342 150.468145,45.4739994 150.617479,45.586 C150.766813,45.6980006 150.939478,45.7819997 151.135479,45.838 C151.33148,45.8940003 151.541478,45.922 151.765479,45.922 Z M160.543479,38.46 C160.151477,38.46 159.87848,38.3806675 159.724479,38.222 C159.570478,38.0633325 159.493479,37.8673345 159.493479,37.634 L159.493479,37.34 C159.493479,37.1066655 159.570478,36.9106675 159.724479,36.752 C159.87848,36.5933325 160.14681,36.514 160.529479,36.514 C160.921481,36.514 161.194478,36.5933325 161.348479,36.752 C161.50248,36.9106675 161.579479,37.1066655 161.579479,37.34 L161.579479,37.634 C161.579479,37.8673345 161.50248,38.0633325 161.348479,38.222 C161.194478,38.3806675 160.926147,38.46 160.543479,38.46 Z M157.309479,45.768 L159.773479,45.768 L159.773479,41.008 L157.309479,41.008 L157.309479,39.776 L161.299479,39.776 L161.299479,45.768 L163.609479,45.768 L163.609479,47 L157.309479,47 L157.309479,45.768 Z M168.929479,47 C168.294809,47 167.828147,46.8296684 167.529479,46.489 C167.230811,46.1483316 167.081479,45.707336 167.081479,45.166 L167.081479,41.008 L164.855479,41.008 L164.855479,39.776 L166.437479,39.776 C166.708147,39.776 166.899478,39.7223339 167.011479,39.615 C167.123479,39.5076661 167.179479,39.3140014 167.179479,39.034 L167.179479,37.228 L168.607479,37.228 L168.607479,39.776 L171.687479,39.776 L171.687479,41.008 L168.607479,41.008 L168.607479,45.768 L171.687479,45.768 L171.687479,47 L168.929479,47 Z M179.583479,47 C179.14481,47 178.815813,46.8880011 178.596479,46.664 C178.377144,46.4399989 178.244146,46.1460018 178.197479,45.782 L178.127479,45.782 C177.987478,46.2206689 177.733147,46.5613321 177.364479,46.804 C176.99581,47.0466679 176.526815,47.168 175.957479,47.168 C175.220142,47.168 174.632148,46.9743353 174.193479,46.587 C173.75481,46.1996647 173.535479,45.6653367 173.535479,44.984 C173.535479,44.2839965 173.794476,43.7496685 174.312479,43.381 C174.830481,43.0123315 175.62614,42.828 176.699479,42.828 L178.085479,42.828 L178.085479,42.268 C178.085479,41.2879951 177.567484,40.798 176.531479,40.798 C176.06481,40.798 175.686814,40.8889991 175.397479,41.071 C175.108144,41.2530009 174.86548,41.4933318 174.669479,41.792 L173.759479,41.05 C173.964813,40.657998 174.310143,40.3196681 174.795479,40.035 C175.280815,39.7503319 175.906142,39.608 176.671479,39.608 C177.58615,39.608 178.304809,39.8273311 178.827479,40.266 C179.350148,40.7046689 179.611479,41.3393292 179.611479,42.17 L179.611479,45.796 L180.521479,45.796 L180.521479,47 L179.583479,47 Z M176.391479,46.048 C176.886148,46.048 177.292144,45.9360011 177.609479,45.712 C177.926814,45.4879989 178.085479,45.1986684 178.085479,44.844 L178.085479,43.794 L176.727479,43.794 C175.62614,43.794 175.075479,44.12533 175.075479,44.788 L175.075479,45.068 C175.075479,45.3946683 175.192144,45.6396659 175.425479,45.803 C175.658813,45.9663342 175.98081,46.048 176.391479,46.048 Z M182.145479,45.768 L184.539479,45.768 L184.539479,37.872 L182.145479,37.872 L182.145479,36.64 L186.065479,36.64 L186.065479,45.768 L188.459479,45.768 L188.459479,47 L182.145479,47 L182.145479,45.768 Z M144.471479,65 L144.471479,55.228 L148.125479,55.228 C149.058817,55.228 149.770476,55.4893307 150.260479,56.012 C150.750481,56.5346693 150.995479,57.2533288 150.995479,58.168 C150.995479,59.0826712 150.750481,59.8013307 150.260479,60.324 C149.770476,60.8466693 149.058817,61.108 148.125479,61.108 L146.039479,61.108 L146.039479,65 L144.471479,65 Z M146.039479,59.806 L147.887479,59.806 C148.85815,59.806 149.343479,59.3580045 149.343479,58.462 L149.343479,57.86 C149.343479,56.9733289 148.85815,56.53 147.887479,56.53 L146.039479,56.53 L146.039479,59.806 Z M155.895479,65.168 C155.363476,65.168 154.885148,65.0793342 154.460479,64.902 C154.03581,64.7246658 153.67648,64.4726683 153.382479,64.146 C153.088477,63.8193317 152.862146,63.422669 152.703479,62.956 C152.544811,62.489331 152.465479,61.9666696 152.465479,61.388 C152.465479,60.8093304 152.544811,60.286669 152.703479,59.82 C152.862146,59.353331 153.088477,58.9566683 153.382479,58.63 C153.67648,58.3033317 154.03581,58.0513342 154.460479,57.874 C154.885148,57.6966658 155.363476,57.608 155.895479,57.608 C156.427481,57.608 156.90581,57.6966658 157.330479,57.874 C157.755148,58.0513342 158.114477,58.3033317 158.408479,58.63 C158.70248,58.9566683 158.928811,59.353331 159.087479,59.82 C159.246146,60.286669 159.325479,60.8093304 159.325479,61.388 C159.325479,61.9666696 159.246146,62.489331 159.087479,62.956 C158.928811,63.422669 158.70248,63.8193317 158.408479,64.146 C158.114477,64.4726683 157.755148,64.7246658 157.330479,64.902 C156.90581,65.0793342 156.427481,65.168 155.895479,65.168 Z M155.895479,63.964 C156.455482,63.964 156.901144,63.7936684 157.232479,63.453 C157.563814,63.1123316 157.729479,62.6060034 157.729479,61.934 L157.729479,60.842 C157.729479,60.1699966 157.563814,59.6636684 157.232479,59.323 C156.901144,58.9823316 156.455482,58.812 155.895479,58.812 C155.335476,58.812 154.889814,58.9823316 154.558479,59.323 C154.227144,59.6636684 154.061479,60.1699966 154.061479,60.842 L154.061479,61.934 C154.061479,62.6060034 154.227144,63.1123316 154.558479,63.453 C154.889814,63.7936684 155.335476,63.964 155.895479,63.964 Z M164.295479,65.168 C163.763476,65.168 163.285148,65.0793342 162.860479,64.902 C162.43581,64.7246658 162.07648,64.4726683 161.782479,64.146 C161.488477,63.8193317 161.262146,63.422669 161.103479,62.956 C160.944811,62.489331 160.865479,61.9666696 160.865479,61.388 C160.865479,60.8093304 160.944811,60.286669 161.103479,59.82 C161.262146,59.353331 161.488477,58.9566683 161.782479,58.63 C162.07648,58.3033317 162.43581,58.0513342 162.860479,57.874 C163.285148,57.6966658 163.763476,57.608 164.295479,57.608 C164.827481,57.608 165.30581,57.6966658 165.730479,57.874 C166.155148,58.0513342 166.514477,58.3033317 166.808479,58.63 C167.10248,58.9566683 167.328811,59.353331 167.487479,59.82 C167.646146,60.286669 167.725479,60.8093304 167.725479,61.388 C167.725479,61.9666696 167.646146,62.489331 167.487479,62.956 C167.328811,63.422669 167.10248,63.8193317 166.808479,64.146 C166.514477,64.4726683 166.155148,64.7246658 165.730479,64.902 C165.30581,65.0793342 164.827481,65.168 164.295479,65.168 Z M164.295479,63.964 C164.855482,63.964 165.301144,63.7936684 165.632479,63.453 C165.963814,63.1123316 166.129479,62.6060034 166.129479,61.934 L166.129479,60.842 C166.129479,60.1699966 165.963814,59.6636684 165.632479,59.323 C165.301144,58.9823316 164.855482,58.812 164.295479,58.812 C163.735476,58.812 163.289814,58.9823316 162.958479,59.323 C162.627144,59.6636684 162.461479,60.1699966 162.461479,60.842 L162.461479,61.934 C162.461479,62.6060034 162.627144,63.1123316 162.958479,63.453 C163.289814,63.7936684 163.735476,63.964 164.295479,63.964 Z M169.545479,63.768 L171.939479,63.768 L171.939479,55.872 L169.545479,55.872 L169.545479,54.64 L173.465479,54.64 L173.465479,63.768 L175.859479,63.768 L175.859479,65 L169.545479,65 L169.545479,63.768 Z" id="Capital-Pool" fill-opacity="0.6" fill="#1F2124"></path>
                    <path d="M25.12,53 L25.12,51.81 L27.416,51.81 L27.416,44.418 L25.12,44.418 L25.12,43.228 L31.28,43.228 L31.28,44.418 L28.984,44.418 L28.984,51.81 L31.28,51.81 L31.28,53 L25.12,53 Z M33.576,53 L33.576,45.776 L35.102,45.776 L35.102,47.008 L35.172,47.008 C35.246667,46.8213324 35.3423327,46.6416675 35.459,46.469 C35.5756673,46.2963325 35.7179992,46.1470006 35.886,46.021 C36.0540008,45.8949994 36.2499989,45.794667 36.474,45.72 C36.6980011,45.645333 36.9593318,45.608 37.258,45.608 C37.9860036,45.608 38.5739978,45.8459976 39.022,46.322 C39.4700022,46.7980024 39.694,47.4746623 39.694,48.352 L39.694,53 L38.168,53 L38.168,48.576 C38.168,47.4279943 37.6686717,46.854 36.67,46.854 C36.473999,46.854 36.2826676,46.8796664 36.096,46.931 C35.9093324,46.9823336 35.7413341,47.0593328 35.592,47.162 C35.4426659,47.2646672 35.3236671,47.3953325 35.235,47.554 C35.1463329,47.7126675 35.102,47.8946656 35.102,48.1 L35.102,53 L33.576,53 Z M45.266,53.168 C44.724664,53.168 44.2416688,53.0793342 43.817,52.902 C43.3923312,52.7246658 43.0330015,52.4726683 42.739,52.146 C42.4449985,51.8193317 42.2210008,51.422669 42.067,50.956 C41.9129992,50.489331 41.836,49.9666696 41.836,49.388 C41.836,48.8093304 41.9129992,48.286669 42.067,47.82 C42.2210008,47.353331 42.4449985,46.9566683 42.739,46.63 C43.0330015,46.3033317 43.3923312,46.0513342 43.817,45.874 C44.2416688,45.6966658 44.7199973,45.608 45.252,45.608 C45.9986704,45.608 46.5983311,45.7666651 47.051,46.084 C47.5036689,46.4013349 47.8419989,46.8119975 48.066,47.316 L46.876,47.96 C46.7453327,47.6239983 46.5470013,47.358001 46.281,47.162 C46.0149987,46.965999 45.6720021,46.868 45.252,46.868 C44.6733304,46.868 44.2253349,47.0429982 43.908,47.393 C43.5906651,47.7430017 43.432,48.2073304 43.432,48.786 L43.432,49.99 C43.432,50.5593362 43.5906651,51.0213316 43.908,51.376 C44.2253349,51.7306684 44.6826637,51.908 45.28,51.908 C45.7280022,51.908 46.0943319,51.8053344 46.379,51.6 C46.6636681,51.3946656 46.8899992,51.1146684 47.058,50.76 L48.178,51.446 C47.9446655,51.9500025 47.5900024,52.3629984 47.114,52.685 C46.6379976,53.0070016 46.0220038,53.168 45.266,53.168 Z M50.264,51.768 L52.182,51.768 L52.182,47.008 L50.264,47.008 L50.264,45.776 L53.708,45.776 L53.708,47.694 L53.792,47.694 C53.8573337,47.4419987 53.9506661,47.1993345 54.072,46.966 C54.1933339,46.7326655 54.3473324,46.5296675 54.534,46.357 C54.7206676,46.1843325 54.949332,46.0443339 55.22,45.937 C55.490668,45.8296661 55.8079982,45.776 56.172,45.776 L57.04,45.776 L57.04,47.232 L55.612,47.232 C55.0519972,47.232 54.5946684,47.397665 54.24,47.729 C53.8853316,48.060335 53.708,48.5059972 53.708,49.066 L53.708,51.768 L56.326,51.768 L56.326,53 L50.264,53 L50.264,51.768 Z M61.954,53.168 C61.4033306,53.168 60.9086689,53.0793342 60.47,52.902 C60.0313311,52.7246658 59.6626682,52.4726683 59.364,52.146 C59.0653318,51.8193317 58.8366675,51.4250023 58.678,50.963 C58.5193325,50.5009977 58.44,49.9806696 58.44,49.402 C58.44,48.8233304 58.5216659,48.300669 58.685,47.834 C58.8483341,47.367331 59.0769985,46.968335 59.371,46.637 C59.6650015,46.305665 60.0219979,46.0513342 60.442,45.874 C60.8620021,45.6966658 61.3286641,45.608 61.842,45.608 C62.3460025,45.608 62.8033313,45.6943325 63.214,45.867 C63.6246687,46.0396675 63.9746652,46.2846651 64.264,46.602 C64.5533348,46.9193349 64.7749992,47.2973311 64.929,47.736 C65.0830008,48.1746689 65.16,48.6599973 65.16,49.192 L65.16,49.766 L59.98,49.766 L59.98,50.004 C59.98,50.5733362 60.1573316,51.0376649 60.512,51.397 C60.8666684,51.7563351 61.3566635,51.936 61.982,51.936 C62.448669,51.936 62.847665,51.8356677 63.179,51.635 C63.510335,51.4343323 63.7786656,51.1660017 63.984,50.83 L64.936,51.67 C64.6933321,52.0900021 64.3223358,52.4446652 63.823,52.734 C63.3236642,53.0233348 62.7006704,53.168 61.954,53.168 Z M61.842,46.77 C61.571332,46.77 61.3216678,46.8166662 61.093,46.91 C60.8643322,47.0033338 60.6683342,47.1363325 60.505,47.309 C60.3416659,47.4816675 60.2133338,47.6846655 60.12,47.918 C60.0266662,48.1513345 59.98,48.4079986 59.98,48.688 L59.98,48.786 L63.606,48.786 L63.606,48.646 C63.606,48.0766638 63.4450016,47.6216684 63.123,47.281 C62.8009984,46.9403316 62.3740027,46.77 61.842,46.77 Z M72.888,53 C72.4493311,53 72.1203344,52.8880011 71.901,52.664 C71.6816656,52.4399989 71.5486669,52.1460018 71.502,51.782 L71.432,51.782 C71.2919993,52.2206689 71.0376685,52.5613321 70.669,52.804 C70.3003315,53.0466679 69.8313362,53.168 69.262,53.168 C68.524663,53.168 67.9366689,52.9743353 67.498,52.587 C67.0593311,52.1996647 66.84,51.6653367 66.84,50.984 C66.84,50.2839965 67.0989974,49.7496685 67.617,49.381 C68.1350026,49.0123315 68.9306613,48.828 70.004,48.828 L71.39,48.828 L71.39,48.268 C71.39,47.2879951 70.8720052,46.798 69.836,46.798 C69.369331,46.798 68.9913348,46.8889991 68.702,47.071 C68.4126652,47.2530009 68.170001,47.4933318 67.974,47.792 L67.064,47.05 C67.2693344,46.657998 67.6146642,46.3196681 68.1,46.035 C68.5853358,45.7503319 69.2106628,45.608 69.976,45.608 C70.8906712,45.608 71.6093307,45.8273311 72.132,46.266 C72.6546693,46.7046689 72.916,47.3393292 72.916,48.17 L72.916,51.796 L73.826,51.796 L73.826,53 L72.888,53 Z M69.696,52.048 C70.1906691,52.048 70.5966651,51.9360011 70.914,51.712 C71.2313349,51.4879989 71.39,51.1986684 71.39,50.844 L71.39,49.794 L70.032,49.794 C68.9306612,49.794 68.38,50.12533 68.38,50.788 L68.38,51.068 C68.38,51.3946683 68.4966655,51.6396659 68.73,51.803 C68.9633345,51.9663342 69.2853313,52.048 69.696,52.048 Z M78.614,53.168 C77.8299961,53.168 77.1556695,53.0420013 76.591,52.79 C76.0263305,52.5379987 75.5713351,52.2020021 75.226,51.782 L76.164,50.942 C76.4813349,51.2873351 76.8383313,51.5509991 77.235,51.733 C77.6316686,51.9150009 78.100664,52.006 78.642,52.006 C79.1366691,52.006 79.5356651,51.9220008 79.839,51.754 C80.1423348,51.5859992 80.294,51.3246684 80.294,50.97 C80.294,50.8206659 80.2660003,50.6946672 80.21,50.592 C80.1539997,50.4893328 80.0746672,50.4053337 79.972,50.34 C79.8693328,50.2746663 79.750334,50.2233335 79.615,50.186 C79.479666,50.1486665 79.3373341,50.1206668 79.188,50.102 L78.04,49.92 C77.7599986,49.8826665 77.4753348,49.8220004 77.186,49.738 C76.8966652,49.6539996 76.6376678,49.5350008 76.409,49.381 C76.1803322,49.2269992 75.9936674,49.0286679 75.849,48.786 C75.7043326,48.5433321 75.632,48.2353352 75.632,47.862 C75.632,47.124663 75.9143305,46.5646686 76.479,46.182 C77.0436695,45.7993314 77.7879954,45.608 78.712,45.608 C79.3840034,45.608 79.9649975,45.7083323 80.455,45.909 C80.9450024,46.1096677 81.3533317,46.3873316 81.68,46.742 L80.826,47.638 C80.6393324,47.4233323 80.3733351,47.2250009 80.028,47.043 C79.6826649,46.8609991 79.2253362,46.77 78.656,46.77 C77.6386616,46.77 77.13,47.0919968 77.13,47.736 C77.13,48.0440015 77.2396656,48.2563327 77.459,48.373 C77.6783344,48.4896672 77.9373318,48.5666665 78.236,48.604 L79.384,48.786 C79.6733348,48.8326669 79.9603319,48.893333 80.245,48.968 C80.5296681,49.042667 80.7863322,49.1569992 81.015,49.311 C81.2436678,49.4650008 81.4303326,49.6633321 81.575,49.906 C81.7196674,50.1486679 81.792,50.4566648 81.792,50.83 C81.792,51.5580036 81.5096695,52.1296646 80.945,52.545 C80.3803305,52.9603354 79.6033383,53.168 78.614,53.168 Z M87.154,53.168 C86.6033306,53.168 86.1086689,53.0793342 85.67,52.902 C85.2313311,52.7246658 84.8626682,52.4726683 84.564,52.146 C84.2653318,51.8193317 84.0366675,51.4250023 83.878,50.963 C83.7193325,50.5009977 83.64,49.9806696 83.64,49.402 C83.64,48.8233304 83.7216658,48.300669 83.885,47.834 C84.0483342,47.367331 84.2769985,46.968335 84.571,46.637 C84.8650015,46.305665 85.2219979,46.0513342 85.642,45.874 C86.0620021,45.6966658 86.5286641,45.608 87.042,45.608 C87.5460025,45.608 88.0033313,45.6943325 88.414,45.867 C88.8246687,46.0396675 89.1746652,46.2846651 89.464,46.602 C89.7533348,46.9193349 89.9749992,47.2973311 90.129,47.736 C90.2830008,48.1746689 90.36,48.6599973 90.36,49.192 L90.36,49.766 L85.18,49.766 L85.18,50.004 C85.18,50.5733362 85.3573316,51.0376649 85.712,51.397 C86.0666684,51.7563351 86.5566635,51.936 87.182,51.936 C87.648669,51.936 88.047665,51.8356677 88.379,51.635 C88.710335,51.4343323 88.9786656,51.1660017 89.184,50.83 L90.136,51.67 C89.8933321,52.0900021 89.5223358,52.4446652 89.023,52.734 C88.5236642,53.0233348 87.9006704,53.168 87.154,53.168 Z M87.042,46.77 C86.771332,46.77 86.5216678,46.8166662 86.293,46.91 C86.0643322,47.0033338 85.8683341,47.1363325 85.705,47.309 C85.5416658,47.4816675 85.4133338,47.6846655 85.32,47.918 C85.2266662,48.1513345 85.18,48.4079986 85.18,48.688 L85.18,48.786 L88.806,48.786 L88.806,48.646 C88.806,48.0766638 88.6450016,47.6216684 88.323,47.281 C88.0009984,46.9403316 87.5740027,46.77 87.042,46.77 Z M95.414,53.168 C94.6299961,53.168 93.9556695,53.0420013 93.391,52.79 C92.8263305,52.5379987 92.3713351,52.2020021 92.026,51.782 L92.964,50.942 C93.2813349,51.2873351 93.6383314,51.5509991 94.035,51.733 C94.4316687,51.9150009 94.900664,52.006 95.442,52.006 C95.9366691,52.006 96.3356652,51.9220008 96.639,51.754 C96.9423349,51.5859992 97.094,51.3246684 97.094,50.97 C97.094,50.8206659 97.0660003,50.6946672 97.01,50.592 C96.9539997,50.4893328 96.8746672,50.4053337 96.772,50.34 C96.6693328,50.2746663 96.550334,50.2233335 96.415,50.186 C96.279666,50.1486665 96.1373341,50.1206668 95.988,50.102 L94.84,49.92 C94.5599986,49.8826665 94.2753348,49.8220004 93.986,49.738 C93.6966652,49.6539996 93.4376678,49.5350008 93.209,49.381 C92.9803322,49.2269992 92.7936674,49.0286679 92.649,48.786 C92.5043326,48.5433321 92.432,48.2353352 92.432,47.862 C92.432,47.124663 92.7143305,46.5646686 93.279,46.182 C93.8436695,45.7993314 94.5879954,45.608 95.512,45.608 C96.1840034,45.608 96.7649976,45.7083323 97.255,45.909 C97.7450025,46.1096677 98.1533317,46.3873316 98.48,46.742 L97.626,47.638 C97.4393324,47.4233323 97.1733351,47.2250009 96.828,47.043 C96.4826649,46.8609991 96.0253362,46.77 95.456,46.77 C94.4386616,46.77 93.93,47.0919968 93.93,47.736 C93.93,48.0440015 94.0396656,48.2563327 94.259,48.373 C94.4783344,48.4896672 94.7373318,48.5666665 95.036,48.604 L96.184,48.786 C96.4733348,48.8326669 96.7603319,48.893333 97.045,48.968 C97.3296681,49.042667 97.5863322,49.1569992 97.815,49.311 C98.0436678,49.4650008 98.2303326,49.6633321 98.375,49.906 C98.5196674,50.1486679 98.592,50.4566648 98.592,50.83 C98.592,51.5580036 98.3096695,52.1296646 97.745,52.545 C97.1803305,52.9603354 96.4033383,53.168 95.414,53.168 Z" id="Increases" fill-opacity="0.6" fill="#1F2124"></path>
                    <path d="M26.0645129,97.3054075 L26.0645129,96.1154075 L28.3605129,96.1154075 L28.3605129,88.7234075 L26.0645129,88.7234075 L26.0645129,87.5334075 L32.2245129,87.5334075 L32.2245129,88.7234075 L29.9285129,88.7234075 L29.9285129,96.1154075 L32.2245129,96.1154075 L32.2245129,97.3054075 L26.0645129,97.3054075 Z M34.5205129,97.3054075 L34.5205129,90.0814075 L36.0465129,90.0814075 L36.0465129,91.3134075 L36.1165129,91.3134075 C36.19118,91.1267399 36.2868457,90.947075 36.4035129,90.7744075 C36.5201802,90.6017399 36.6625121,90.4524081 36.8305129,90.3264075 C36.9985138,90.2004068 37.1945118,90.1000745 37.4185129,90.0254075 C37.642514,89.9507404 37.9038448,89.9134075 38.2025129,89.9134075 C38.9305166,89.9134075 39.5185107,90.1514051 39.9665129,90.6274075 C40.4145152,91.1034098 40.6385129,91.7800697 40.6385129,92.6574075 L40.6385129,97.3054075 L39.1125129,97.3054075 L39.1125129,92.8814075 C39.1125129,91.7334017 38.6131846,91.1594075 37.6145129,91.1594075 C37.4185119,91.1594075 37.2271805,91.1850739 37.0405129,91.2364075 C36.8538453,91.2877411 36.685847,91.3647403 36.5365129,91.4674075 C36.3871788,91.5700746 36.26818,91.70074 36.1795129,91.8594075 C36.0908458,92.0180749 36.0465129,92.2000731 36.0465129,92.4054075 L36.0465129,97.3054075 L34.5205129,97.3054075 Z M46.2105129,97.4734075 C45.6691769,97.4734075 45.1861817,97.3847417 44.7615129,97.2074075 C44.3368441,97.0300732 43.9775144,96.7780758 43.6835129,96.4514075 C43.3895114,96.1247392 43.1655137,95.7280765 43.0115129,95.2614075 C42.8575121,94.7947385 42.7805129,94.272077 42.7805129,93.6934075 C42.7805129,93.1147379 42.8575121,92.5920765 43.0115129,92.1254075 C43.1655137,91.6587385 43.3895114,91.2620758 43.6835129,90.9354075 C43.9775144,90.6087392 44.3368441,90.3567417 44.7615129,90.1794075 C45.1861817,90.0020732 45.6645103,89.9134075 46.1965129,89.9134075 C46.9431833,89.9134075 47.542844,90.0720725 47.9955129,90.3894075 C48.4481818,90.7067424 48.7865118,91.1174049 49.0105129,91.6214075 L47.8205129,92.2654075 C47.6898456,91.9294058 47.4915142,91.6634084 47.2255129,91.4674075 C46.9595116,91.2714065 46.616515,91.1734075 46.1965129,91.1734075 C45.6178434,91.1734075 45.1698478,91.3484057 44.8525129,91.6984075 C44.535178,92.0484092 44.3765129,92.5127379 44.3765129,93.0914075 L44.3765129,94.2954075 C44.3765129,94.8647436 44.535178,95.326739 44.8525129,95.6814075 C45.1698478,96.0360759 45.6271766,96.2134075 46.2245129,96.2134075 C46.6725152,96.2134075 47.0388448,96.1107418 47.3235129,95.9054075 C47.608181,95.7000731 47.8345121,95.4200759 48.0025129,95.0654075 L49.1225129,95.7514075 C48.8891784,96.25541 48.5345153,96.6684059 48.0585129,96.9904075 C47.5825105,97.3124091 46.9665167,97.4734075 46.2105129,97.4734075 Z M51.2085129,96.0734075 L53.1265129,96.0734075 L53.1265129,91.3134075 L51.2085129,91.3134075 L51.2085129,90.0814075 L54.6525129,90.0814075 L54.6525129,91.9994075 L54.7365129,91.9994075 C54.8018466,91.7474062 54.895179,91.504742 55.0165129,91.2714075 C55.1378469,91.038073 55.2918453,90.835075 55.4785129,90.6624075 C55.6651805,90.4897399 55.8938449,90.3497413 56.1645129,90.2424075 C56.4351809,90.1350736 56.7525111,90.0814075 57.1165129,90.0814075 L57.9845129,90.0814075 L57.9845129,91.5374075 L56.5565129,91.5374075 C55.9965101,91.5374075 55.5391814,91.7030725 55.1845129,92.0344075 C54.8298445,92.3657425 54.6525129,92.8114047 54.6525129,93.3714075 L54.6525129,96.0734075 L57.2705129,96.0734075 L57.2705129,97.3054075 L51.2085129,97.3054075 L51.2085129,96.0734075 Z M62.8985129,97.4734075 C62.3478435,97.4734075 61.8531818,97.3847417 61.4145129,97.2074075 C60.9758441,97.0300732 60.6071811,96.7780758 60.3085129,96.4514075 C60.0098448,96.1247392 59.7811804,95.7304098 59.6225129,95.2684075 C59.4638455,94.8064052 59.3845129,94.286077 59.3845129,93.7074075 C59.3845129,93.1287379 59.4661788,92.6060765 59.6295129,92.1394075 C59.7928471,91.6727385 60.0215114,91.2737425 60.3155129,90.9424075 C60.6095144,90.6110725 60.9665108,90.3567417 61.3865129,90.1794075 C61.806515,90.0020732 62.273177,89.9134075 62.7865129,89.9134075 C63.2905154,89.9134075 63.7478442,89.9997399 64.1585129,90.1724075 C64.5691816,90.345075 64.9191781,90.5900725 65.2085129,90.9074075 C65.4978477,91.2247424 65.7195121,91.6027386 65.8735129,92.0414075 C66.0275137,92.4800763 66.1045129,92.9654048 66.1045129,93.4974075 L66.1045129,94.0714075 L60.9245129,94.0714075 L60.9245129,94.3094075 C60.9245129,94.8787436 61.1018445,95.3430723 61.4565129,95.7024075 C61.8111814,96.0617426 62.3011765,96.2414075 62.9265129,96.2414075 C63.3931819,96.2414075 63.7921779,96.1410751 64.1235129,95.9404075 C64.4548479,95.7397398 64.7231786,95.4714091 64.9285129,95.1354075 L65.8805129,95.9754075 C65.637845,96.3954096 65.2668487,96.7500727 64.7675129,97.0394075 C64.2681771,97.3287422 63.6451833,97.4734075 62.8985129,97.4734075 Z M62.7865129,91.0754075 C62.5158449,91.0754075 62.2661807,91.1220737 62.0375129,91.2154075 C61.8088451,91.3087413 61.6128471,91.4417399 61.4495129,91.6144075 C61.2861788,91.787075 61.1578467,91.990073 61.0645129,92.2234075 C60.9711791,92.456742 60.9245129,92.7134061 60.9245129,92.9934075 L60.9245129,93.0914075 L64.5505129,93.0914075 L64.5505129,92.9514075 C64.5505129,92.3820713 64.3895145,91.9270758 64.0675129,91.5864075 C63.7455113,91.2457391 63.3185156,91.0754075 62.7865129,91.0754075 Z M73.8325129,97.3054075 C73.3938441,97.3054075 73.0648473,97.1934086 72.8455129,96.9694075 C72.6261785,96.7454063 72.4931798,96.4514093 72.4465129,96.0874075 L72.3765129,96.0874075 C72.2365122,96.5260763 71.9821814,96.8667396 71.6135129,97.1094075 C71.2448444,97.3520753 70.7758491,97.4734075 70.2065129,97.4734075 C69.4691759,97.4734075 68.8811818,97.2797427 68.4425129,96.8924075 C68.0038441,96.5050722 67.7845129,95.9707442 67.7845129,95.2894075 C67.7845129,94.589404 68.0435103,94.055076 68.5615129,93.6864075 C69.0795155,93.317739 69.8751742,93.1334075 70.9485129,93.1334075 L72.3345129,93.1334075 L72.3345129,92.5734075 C72.3345129,91.5934026 71.8165181,91.1034075 70.7805129,91.1034075 C70.3138439,91.1034075 69.9358477,91.1944066 69.6465129,91.3764075 C69.3571781,91.5584084 69.1145139,91.7987393 68.9185129,92.0974075 L68.0085129,91.3554075 C68.2138473,90.9634055 68.5591772,90.6250756 69.0445129,90.3404075 C69.5298487,90.0557394 70.1551758,89.9134075 70.9205129,89.9134075 C71.8351842,89.9134075 72.5538436,90.1327386 73.0765129,90.5714075 C73.5991822,91.0100763 73.8605129,91.6447366 73.8605129,92.4754075 L73.8605129,96.1014075 L74.7705129,96.1014075 L74.7705129,97.3054075 L73.8325129,97.3054075 Z M70.6405129,96.3534075 C71.1351821,96.3534075 71.541178,96.2414086 71.8585129,96.0174075 C72.1758478,95.7934063 72.3345129,95.5040759 72.3345129,95.1494075 L72.3345129,94.0994075 L70.9765129,94.0994075 C69.8751741,94.0994075 69.3245129,94.4307375 69.3245129,95.0934075 L69.3245129,95.3734075 C69.3245129,95.7000758 69.4411784,95.9450733 69.6745129,96.1084075 C69.9078474,96.2717416 70.2298442,96.3534075 70.6405129,96.3534075 Z M79.5585129,97.4734075 C78.774509,97.4734075 78.1001824,97.3474087 77.5355129,97.0954075 C76.9708434,96.8434062 76.515848,96.5074096 76.1705129,96.0874075 L77.1085129,95.2474075 C77.4258478,95.5927425 77.7828443,95.8564066 78.1795129,96.0384075 C78.5761816,96.2204084 79.0451769,96.3114075 79.5865129,96.3114075 C80.0811821,96.3114075 80.4801781,96.2274083 80.7835129,96.0594075 C81.0868478,95.8914066 81.2385129,95.6300759 81.2385129,95.2754075 C81.2385129,95.1260734 81.2105132,95.0000746 81.1545129,94.8974075 C81.0985126,94.7947403 81.0191801,94.7107411 80.9165129,94.6454075 C80.8138457,94.5800738 80.6948469,94.528741 80.5595129,94.4914075 C80.4241789,94.4540739 80.281847,94.4260742 80.1325129,94.4074075 L78.9845129,94.2254075 C78.7045115,94.1880739 78.4198477,94.1274079 78.1305129,94.0434075 C77.8411781,93.959407 77.5821807,93.8404082 77.3535129,93.6864075 C77.1248451,93.5324067 76.9381803,93.3340753 76.7935129,93.0914075 C76.6488455,92.8487396 76.5765129,92.5407427 76.5765129,92.1674075 C76.5765129,91.4300704 76.8588434,90.870076 77.4235129,90.4874075 C77.9881824,90.1047389 78.7325083,89.9134075 79.6565129,89.9134075 C80.3285163,89.9134075 80.9095105,90.0137398 81.3995129,90.2144075 C81.8895154,90.4150751 82.2978446,90.692739 82.6245129,91.0474075 L81.7705129,91.9434075 C81.5838453,91.7287397 81.317848,91.5304084 80.9725129,91.3484075 C80.6271779,91.1664066 80.1698491,91.0754075 79.6005129,91.0754075 C78.5831745,91.0754075 78.0745129,91.3974042 78.0745129,92.0414075 C78.0745129,92.349409 78.1841785,92.5617402 78.4035129,92.6784075 C78.6228473,92.7950747 78.8818448,92.8720739 79.1805129,92.9094075 L80.3285129,93.0914075 C80.6178477,93.1380744 80.9048448,93.1987404 81.1895129,93.2734075 C81.474181,93.3480745 81.7308451,93.4624067 81.9595129,93.6164075 C82.1881807,93.7704082 82.3748455,93.9687396 82.5195129,94.2114075 C82.6641803,94.4540753 82.7365129,94.7620723 82.7365129,95.1354075 C82.7365129,95.8634111 82.4541824,96.4350721 81.8895129,96.8504075 C81.3248434,97.2657429 80.5478512,97.4734075 79.5585129,97.4734075 Z M88.0985129,97.4734075 C87.5478435,97.4734075 87.0531818,97.3847417 86.6145129,97.2074075 C86.1758441,97.0300732 85.8071811,96.7780758 85.5085129,96.4514075 C85.2098448,96.1247392 84.9811804,95.7304098 84.8225129,95.2684075 C84.6638455,94.8064052 84.5845129,94.286077 84.5845129,93.7074075 C84.5845129,93.1287379 84.6661788,92.6060765 84.8295129,92.1394075 C84.9928471,91.6727385 85.2215114,91.2737425 85.5155129,90.9424075 C85.8095144,90.6110725 86.1665108,90.3567417 86.5865129,90.1794075 C87.006515,90.0020732 87.473177,89.9134075 87.9865129,89.9134075 C88.4905154,89.9134075 88.9478442,89.9997399 89.3585129,90.1724075 C89.7691816,90.345075 90.1191781,90.5900725 90.4085129,90.9074075 C90.6978477,91.2247424 90.9195121,91.6027386 91.0735129,92.0414075 C91.2275137,92.4800763 91.3045129,92.9654048 91.3045129,93.4974075 L91.3045129,94.0714075 L86.1245129,94.0714075 L86.1245129,94.3094075 C86.1245129,94.8787436 86.3018445,95.3430723 86.6565129,95.7024075 C87.0111814,96.0617426 87.5011765,96.2414075 88.1265129,96.2414075 C88.5931819,96.2414075 88.9921779,96.1410751 89.3235129,95.9404075 C89.6548479,95.7397398 89.9231786,95.4714091 90.1285129,95.1354075 L91.0805129,95.9754075 C90.837845,96.3954096 90.4668487,96.7500727 89.9675129,97.0394075 C89.4681771,97.3287422 88.8451833,97.4734075 88.0985129,97.4734075 Z M87.9865129,91.0754075 C87.7158449,91.0754075 87.4661807,91.1220737 87.2375129,91.2154075 C87.0088451,91.3087413 86.8128471,91.4417399 86.6495129,91.6144075 C86.4861788,91.787075 86.3578467,91.990073 86.2645129,92.2234075 C86.1711791,92.456742 86.1245129,92.7134061 86.1245129,92.9934075 L86.1245129,93.0914075 L89.7505129,93.0914075 L89.7505129,92.9514075 C89.7505129,92.3820713 89.5895145,91.9270758 89.2675129,91.5864075 C88.9455113,91.2457391 88.5185156,91.0754075 87.9865129,91.0754075 Z M96.3585129,97.4734075 C95.574509,97.4734075 94.9001824,97.3474087 94.3355129,97.0954075 C93.7708434,96.8434062 93.315848,96.5074096 92.9705129,96.0874075 L93.9085129,95.2474075 C94.2258478,95.5927425 94.5828443,95.8564066 94.9795129,96.0384075 C95.3761816,96.2204084 95.8451769,96.3114075 96.3865129,96.3114075 C96.8811821,96.3114075 97.2801781,96.2274083 97.5835129,96.0594075 C97.8868478,95.8914066 98.0385129,95.6300759 98.0385129,95.2754075 C98.0385129,95.1260734 98.0105132,95.0000746 97.9545129,94.8974075 C97.8985126,94.7947403 97.8191801,94.7107411 97.7165129,94.6454075 C97.6138457,94.5800738 97.4948469,94.528741 97.3595129,94.4914075 C97.2241789,94.4540739 97.081847,94.4260742 96.9325129,94.4074075 L95.7845129,94.2254075 C95.5045115,94.1880739 95.2198477,94.1274079 94.9305129,94.0434075 C94.6411781,93.959407 94.3821807,93.8404082 94.1535129,93.6864075 C93.9248451,93.5324067 93.7381803,93.3340753 93.5935129,93.0914075 C93.4488455,92.8487396 93.3765129,92.5407427 93.3765129,92.1674075 C93.3765129,91.4300704 93.6588434,90.870076 94.2235129,90.4874075 C94.7881824,90.1047389 95.5325083,89.9134075 96.4565129,89.9134075 C97.1285163,89.9134075 97.7095105,90.0137398 98.1995129,90.2144075 C98.6895154,90.4150751 99.0978446,90.692739 99.4245129,91.0474075 L98.5705129,91.9434075 C98.3838453,91.7287397 98.117848,91.5304084 97.7725129,91.3484075 C97.4271779,91.1664066 96.9698491,91.0754075 96.4005129,91.0754075 C95.3831745,91.0754075 94.8745129,91.3974042 94.8745129,92.0414075 C94.8745129,92.349409 94.9841785,92.5617402 95.2035129,92.6784075 C95.4228473,92.7950747 95.6818448,92.8720739 95.9805129,92.9094075 L97.1285129,93.0914075 C97.4178477,93.1380744 97.7048448,93.1987404 97.9895129,93.2734075 C98.274181,93.3480745 98.5308451,93.4624067 98.7595129,93.6164075 C98.9881807,93.7704082 99.1748455,93.9687396 99.3195129,94.2114075 C99.4641803,94.4540753 99.5365129,94.7620723 99.5365129,95.1354075 C99.5365129,95.8634111 99.2541824,96.4350721 98.6895129,96.8504075 C98.1248434,97.2657429 97.3478512,97.4734075 96.3585129,97.4734075 Z M24.1525129,121.375061 L24.1525129,115.183061 L25.4605129,115.183061 L25.4605129,116.239061 L25.5205129,116.239061 C25.5845132,116.07906 25.6665124,115.925061 25.7665129,115.777061 C25.8665134,115.62906 25.9885122,115.501061 26.1325129,115.393061 C26.2765136,115.28506 26.444512,115.199061 26.6365129,115.135061 C26.8285139,115.07106 27.0525116,115.039061 27.3085129,115.039061 C27.932516,115.039061 28.436511,115.243059 28.8205129,115.651061 C29.2045148,116.059063 29.3965129,116.639057 29.3965129,117.391061 L29.3965129,121.375061 L28.0885129,121.375061 L28.0885129,117.583061 C28.0885129,116.599056 27.6605172,116.107061 26.8045129,116.107061 C26.6365121,116.107061 26.4725137,116.12906 26.3125129,116.173061 C26.1525121,116.217061 26.0085136,116.28306 25.8805129,116.371061 C25.7525123,116.459061 25.6505133,116.57106 25.5745129,116.707061 C25.4985125,116.843061 25.4605129,116.99906 25.4605129,117.175061 L25.4605129,121.375061 L24.1525129,121.375061 Z M33.9445129,121.519061 C33.4885106,121.519061 33.0785147,121.443061 32.7145129,121.291061 C32.3505111,121.13906 32.0425142,120.923062 31.7905129,120.643061 C31.5385117,120.363059 31.3445136,120.023063 31.2085129,119.623061 C31.0725122,119.223059 31.0045129,118.775063 31.0045129,118.279061 C31.0045129,117.783058 31.0725122,117.335063 31.2085129,116.935061 C31.3445136,116.535059 31.5385117,116.195062 31.7905129,115.915061 C32.0425142,115.635059 32.3505111,115.419061 32.7145129,115.267061 C33.0785147,115.11506 33.4885106,115.039061 33.9445129,115.039061 C34.4005152,115.039061 34.8105111,115.11506 35.1745129,115.267061 C35.5385147,115.419061 35.8465117,115.635059 36.0985129,115.915061 C36.3505142,116.195062 36.5445122,116.535059 36.6805129,116.935061 C36.8165136,117.335063 36.8845129,117.783058 36.8845129,118.279061 C36.8845129,118.775063 36.8165136,119.223059 36.6805129,119.623061 C36.5445122,120.023063 36.3505142,120.363059 36.0985129,120.643061 C35.8465117,120.923062 35.5385147,121.13906 35.1745129,121.291061 C34.8105111,121.443061 34.4005152,121.519061 33.9445129,121.519061 Z M33.9445129,120.487061 C34.4245153,120.487061 34.8065115,120.341062 35.0905129,120.049061 C35.3745143,119.757059 35.5165129,119.323063 35.5165129,118.747061 L35.5165129,117.811061 C35.5165129,117.235058 35.3745143,116.801062 35.0905129,116.509061 C34.8065115,116.217059 34.4245153,116.071061 33.9445129,116.071061 C33.4645105,116.071061 33.0825143,116.217059 32.7985129,116.509061 C32.5145115,116.801062 32.3725129,117.235058 32.3725129,117.811061 L32.3725129,118.747061 C32.3725129,119.323063 32.5145115,119.757059 32.7985129,120.049061 C33.0825143,120.341062 33.4645105,120.487061 33.9445129,120.487061 Z M41.5165129,121.375061 C40.9725102,121.375061 40.5725142,121.229062 40.3165129,120.937061 C40.0605116,120.645059 39.9325129,120.267063 39.9325129,119.803061 L39.9325129,116.239061 L38.0245129,116.239061 L38.0245129,115.183061 L39.3805129,115.183061 C39.6125141,115.183061 39.7765124,115.137061 39.8725129,115.045061 C39.9685134,114.95306 40.0165129,114.787062 40.0165129,114.547061 L40.0165129,112.999061 L41.2405129,112.999061 L41.2405129,115.183061 L43.8805129,115.183061 L43.8805129,116.239061 L41.2405129,116.239061 L41.2405129,120.319061 L43.8805129,120.319061 L43.8805129,121.375061 L41.5165129,121.375061 Z M57.8485129,121.375061 C57.472511,121.375061 57.1905139,121.279062 57.0025129,121.087061 C56.814512,120.89506 56.7005131,120.643062 56.6605129,120.331061 L56.6005129,120.331061 C56.4805123,120.707062 56.2625145,120.99906 55.9465129,121.207061 C55.6305113,121.415062 55.2285154,121.519061 54.7405129,121.519061 C54.1085098,121.519061 53.6045148,121.353062 53.2285129,121.021061 C52.852511,120.689059 52.6645129,120.231064 52.6645129,119.647061 C52.6645129,119.047058 52.8865107,118.589062 53.3305129,118.273061 C53.7745151,117.957059 54.4565083,117.799061 55.3765129,117.799061 L56.5645129,117.799061 L56.5645129,117.319061 C56.5645129,116.479056 56.1205174,116.059061 55.2325129,116.059061 C54.8325109,116.059061 54.5085142,116.13706 54.2605129,116.293061 C54.0125117,116.449061 53.8045138,116.655059 53.6365129,116.911061 L52.8565129,116.275061 C53.0325138,115.939059 53.3285108,115.649062 53.7445129,115.405061 C54.160515,115.161059 54.6965096,115.039061 55.3525129,115.039061 C56.1365168,115.039061 56.7525107,115.227059 57.2005129,115.603061 C57.6485152,115.979062 57.8725129,116.523057 57.8725129,117.235061 L57.8725129,120.343061 L58.6525129,120.343061 L58.6525129,121.375061 L57.8485129,121.375061 Z M55.1125129,120.559061 C55.536515,120.559061 55.8845116,120.463062 56.1565129,120.271061 C56.4285143,120.07906 56.5645129,119.831062 56.5645129,119.527061 L56.5645129,118.627061 L55.4005129,118.627061 C54.4565082,118.627061 53.9845129,118.911058 53.9845129,119.479061 L53.9845129,119.719061 C53.9845129,119.999062 54.0845119,120.20906 54.2845129,120.349061 C54.4845139,120.489061 54.7605112,120.559061 55.1125129,120.559061 Z M62.7565129,121.519061 C62.0845096,121.519061 61.5065153,121.411062 61.0225129,121.195061 C60.5385105,120.97906 60.1485144,120.691062 59.8525129,120.331061 L60.6565129,119.611061 C60.9285143,119.907062 61.2345112,120.13306 61.5745129,120.289061 C61.9145146,120.445061 62.3165106,120.523061 62.7805129,120.523061 C63.204515,120.523061 63.5465116,120.451061 63.8065129,120.307061 C64.0665142,120.16306 64.1965129,119.939062 64.1965129,119.635061 C64.1965129,119.50706 64.1725132,119.399061 64.1245129,119.311061 C64.0765127,119.22306 64.0085134,119.151061 63.9205129,119.095061 C63.8325125,119.03906 63.7305135,118.995061 63.6145129,118.963061 C63.4985123,118.93106 63.3765136,118.907061 63.2485129,118.891061 L62.2645129,118.735061 C62.0245117,118.70306 61.7805142,118.651061 61.5325129,118.579061 C61.2845117,118.50706 61.0625139,118.405061 60.8665129,118.273061 C60.6705119,118.14106 60.5105135,117.971062 60.3865129,117.763061 C60.2625123,117.55506 60.2005129,117.291062 60.2005129,116.971061 C60.2005129,116.339057 60.4425105,115.859062 60.9265129,115.531061 C61.4105153,115.203059 62.048509,115.039061 62.8405129,115.039061 C63.4165158,115.039061 63.9145108,115.12506 64.3345129,115.297061 C64.754515,115.469061 65.1045115,115.707059 65.3845129,116.011061 L64.6525129,116.779061 C64.4925121,116.59506 64.2645144,116.425061 63.9685129,116.269061 C63.6725114,116.11306 63.2805154,116.035061 62.7925129,116.035061 C61.9205086,116.035061 61.4845129,116.311058 61.4845129,116.863061 C61.4845129,117.127062 61.578512,117.30906 61.7665129,117.409061 C61.9545139,117.509061 62.1765116,117.57506 62.4325129,117.607061 L63.4165129,117.763061 C63.6645142,117.803061 63.9105117,117.85506 64.1545129,117.919061 C64.3985141,117.983061 64.6185119,118.08106 64.8145129,118.213061 C65.0105139,118.345061 65.1705123,118.51506 65.2945129,118.723061 C65.4185135,118.931062 65.4805129,119.195059 65.4805129,119.515061 C65.4805129,120.139064 65.2385153,120.629059 64.7545129,120.985061 C64.2705105,121.341062 63.6045172,121.519061 62.7565129,121.519061 Z M74.0725129,121.375061 L74.0725129,115.183061 L75.1885129,115.183061 L75.1885129,115.987061 L75.2485129,115.987061 C75.3445134,115.723059 75.482512,115.499062 75.6625129,115.315061 C75.8425138,115.13106 76.1005112,115.039061 76.4365129,115.039061 C76.7645146,115.039061 77.018512,115.12906 77.1985129,115.309061 C77.3785138,115.489061 77.4925127,115.735059 77.5405129,116.047061 L77.5885129,116.047061 C77.7005135,115.767059 77.8565119,115.529062 78.0565129,115.333061 C78.2565139,115.13706 78.544511,115.039061 78.9205129,115.039061 C79.4005153,115.039061 79.734512,115.207059 79.9225129,115.543061 C80.1105139,115.879062 80.2045129,116.371057 80.2045129,117.019061 L80.2045129,121.375061 L79.0885129,121.375061 L79.0885129,117.187061 C79.0885129,116.755058 79.0365134,116.457061 78.9325129,116.293061 C78.8285124,116.12906 78.6605141,116.047061 78.4285129,116.047061 C78.2205119,116.047061 78.0465136,116.11706 77.9065129,116.257061 C77.7665122,116.397061 77.6965129,116.607059 77.6965129,116.887061 L77.6965129,121.375061 L76.5805129,121.375061 L76.5805129,117.187061 C76.5805129,116.755058 76.5305134,116.457061 76.4305129,116.293061 C76.3305124,116.12906 76.1645141,116.047061 75.9325129,116.047061 C75.7165118,116.047061 75.5385136,116.11706 75.3985129,116.257061 C75.2585122,116.397061 75.1885129,116.607059 75.1885129,116.887061 L75.1885129,121.375061 L74.0725129,121.375061 Z M85.6285129,120.319061 L85.5685129,120.319061 C85.5045126,120.479061 85.4225134,120.63306 85.3225129,120.781061 C85.2225124,120.929061 85.1005136,121.05706 84.9565129,121.165061 C84.8125122,121.273061 84.6445139,121.35906 84.4525129,121.423061 C84.260512,121.487061 84.0365142,121.519061 83.7805129,121.519061 C83.1565098,121.519061 82.6525148,121.315063 82.2685129,120.907061 C81.884511,120.499059 81.6925129,119.919064 81.6925129,119.167061 L81.6925129,115.183061 L83.0005129,115.183061 L83.0005129,118.975061 C83.0005129,119.959066 83.4285086,120.451061 84.2845129,120.451061 C84.4525138,120.451061 84.6165121,120.429061 84.7765129,120.385061 C84.9365137,120.34106 85.0805123,120.275061 85.2085129,120.187061 C85.3365136,120.09906 85.4385125,119.989061 85.5145129,119.857061 C85.5905133,119.72506 85.6285129,119.567062 85.6285129,119.383061 L85.6285129,115.183061 L86.9365129,115.183061 L86.9365129,121.375061 L85.6285129,121.375061 L85.6285129,120.319061 Z M91.7725129,121.519061 C91.3085106,121.519061 90.8945147,121.443061 90.5305129,121.291061 C90.1665111,121.13906 89.8585142,120.923062 89.6065129,120.643061 C89.3545117,120.363059 89.1625136,120.023063 89.0305129,119.623061 C88.8985123,119.223059 88.8325129,118.775063 88.8325129,118.279061 C88.8325129,117.783058 88.8985123,117.335063 89.0305129,116.935061 C89.1625136,116.535059 89.3545117,116.195062 89.6065129,115.915061 C89.8585142,115.635059 90.1665111,115.419061 90.5305129,115.267061 C90.8945147,115.11506 91.3045106,115.039061 91.7605129,115.039061 C92.4005161,115.039061 92.914511,115.175059 93.3025129,115.447061 C93.6905149,115.719062 93.980512,116.071058 94.1725129,116.503061 L93.1525129,117.055061 C93.0405124,116.767059 92.8705141,116.539061 92.6425129,116.371061 C92.4145118,116.20306 92.1205147,116.119061 91.7605129,116.119061 C91.2645104,116.119061 90.8805143,116.269059 90.6085129,116.569061 C90.3365116,116.869062 90.2005129,117.267058 90.2005129,117.763061 L90.2005129,118.795061 C90.2005129,119.283063 90.3365116,119.679059 90.6085129,119.983061 C90.8805143,120.287062 91.2725104,120.439061 91.7845129,120.439061 C92.1685148,120.439061 92.4825117,120.351061 92.7265129,120.175061 C92.9705141,119.99906 93.1645122,119.759062 93.3085129,119.455061 L94.2685129,120.043061 C94.0685119,120.475063 93.764515,120.829059 93.3565129,121.105061 C92.9485109,121.381062 92.4205162,121.519061 91.7725129,121.519061 Z M96.1525129,112.495061 L97.4605129,112.495061 L97.4605129,116.239061 L97.5205129,116.239061 C97.5845132,116.07906 97.6665124,115.925061 97.7665129,115.777061 C97.8665134,115.62906 97.9885122,115.501061 98.1325129,115.393061 C98.2765136,115.28506 98.444512,115.199061 98.6365129,115.135061 C98.8285139,115.07106 99.0525116,115.039061 99.3085129,115.039061 C99.932516,115.039061 100.436511,115.243059 100.820513,115.651061 C101.204515,116.059063 101.396513,116.639057 101.396513,117.391061 L101.396513,121.375061 L100.088513,121.375061 L100.088513,117.583061 C100.088513,116.599056 99.6605172,116.107061 98.8045129,116.107061 C98.6365121,116.107061 98.4725137,116.12906 98.3125129,116.173061 C98.1525121,116.217061 98.0085136,116.28306 97.8805129,116.371061 C97.7525123,116.459061 97.6505133,116.57106 97.5745129,116.707061 C97.4985125,116.843061 97.4605129,116.99906 97.4605129,117.175061 L97.4605129,121.375061 L96.1525129,121.375061 L96.1525129,112.495061 Z" id="Increases-not-as-muc" fill-opacity="0.6" fill="#1E2125"></path>
                    <path d="M152.518237,94.4765999 L152.560237,91.5365999 L152.448237,91.5365999 L150.488237,96.5625999 L148.528237,91.5365999 L148.416237,91.5365999 L148.458237,94.4765999 L148.458237,99.1525999 L147.072237,99.1525999 L147.072237,89.3805999 L148.990237,89.3805999 L150.488237,93.2585999 L150.586237,93.2585999 L152.098237,89.3805999 L153.904237,89.3805999 L153.904237,99.1525999 L152.518237,99.1525999 L152.518237,94.4765999 Z M159.168237,99.3205999 C157.926897,99.3205999 157.00524,98.8819376 156.403237,98.0045999 C155.801234,97.1272622 155.500237,95.8812746 155.500237,94.2665999 C155.500237,92.6519251 155.801234,91.4059376 156.403237,90.5285999 C157.00524,89.6512622 157.926897,89.2125999 159.168237,89.2125999 C159.644239,89.2125999 160.057235,89.2755992 160.407237,89.4015999 C160.757238,89.5276005 161.058235,89.7002654 161.310237,89.9195999 C161.562238,90.1389343 161.774569,90.3955984 161.947237,90.6895999 C162.119904,90.9836013 162.262236,91.2985982 162.374237,91.6345999 L160.960237,92.1105999 C160.885569,91.8865988 160.80157,91.6766009 160.708237,91.4805999 C160.614903,91.2845989 160.498237,91.1166006 160.358237,90.9765999 C160.218236,90.8365992 160.052571,90.7246003 159.861237,90.6405999 C159.669902,90.5565995 159.434238,90.5145999 159.154237,90.5145999 C158.463566,90.5145999 157.959571,90.7782639 157.642237,91.3055999 C157.324902,91.8329358 157.166237,92.5445954 157.166237,93.4405999 L157.166237,95.0925999 C157.166237,95.9886044 157.324902,96.7002639 157.642237,97.2275999 C157.959571,97.7549358 158.463566,98.0185999 159.154237,98.0185999 C159.434238,98.0185999 159.669902,97.9766003 159.861237,97.8925999 C160.052571,97.8085995 160.218236,97.6966006 160.358237,97.5565999 C160.498237,97.4165992 160.614903,97.2486009 160.708237,97.0525999 C160.80157,96.8565989 160.885569,96.646601 160.960237,96.4225999 L162.374237,96.8985999 C162.262236,97.2346016 162.119904,97.5495984 161.947237,97.8435999 C161.774569,98.1376013 161.562238,98.3942654 161.310237,98.6135999 C161.058235,98.8329343 160.757238,99.0055992 160.407237,99.1315999 C160.057235,99.2576005 159.644239,99.3205999 159.168237,99.3205999 Z M165.818237,99.1525999 L164.264237,99.1525999 L164.264237,89.3805999 L167.918237,89.3805999 C168.851575,89.3805999 169.563234,89.6419306 170.053237,90.1645999 C170.543239,90.6872692 170.788237,91.4059286 170.788237,92.3205999 C170.788237,93.0672703 170.606238,93.6832641 170.242237,94.1685999 C169.878235,94.6539356 169.355573,94.9525993 168.674237,95.0645999 L170.928237,99.1525999 L169.192237,99.1525999 L167.120237,95.2045999 L165.818237,95.2045999 L165.818237,99.1525999 Z M167.694237,93.9445999 C168.664908,93.9445999 169.150237,93.501271 169.150237,92.6145999 L169.150237,92.0125999 C169.150237,91.1259288 168.664908,90.6825999 167.694237,90.6825999 L165.818237,90.6825999 L165.818237,93.9445999 L167.694237,93.9445999 Z" id="MCR" fill-opacity="0.6" fill="#1F2124"></path>
                    <path d="M127.5,77.6593506 L192.484041,77.6593506" id="Line-2" stroke-opacity="0.6" stroke="#1F2124" stroke-width="1.53707678" stroke-linecap="square"></path>
                </g>
                <g id="Group-7" transform="translate(222.000000, 0.000000)">
                    <g id="Rectangle">
                        <use fill="black" fill-opacity="1" filter="url(#filter-4)" xlink:href="#path-3"></use>
                        <use fill="#FFFFFF" fill-rule="evenodd" xlink:href="#path-3"></use>
                    </g>
                    <path d="M22.9348837,196.502326 L408.981395,196.502326" id="Line-Copy-4" stroke="#E5E5E5" stroke-width="0.5" stroke-linecap="square"></path>
                    <path d="M317.681395,157.125581 L408.981395,157.125581" id="Line-Copy-3" stroke="#E5E5E5" stroke-width="0.5" stroke-linecap="square"></path>
                    <path d="M361.883721,117.748837 L408.981395,117.748837" id="Line-Copy-2" stroke="#E5E5E5" stroke-width="0.5" stroke-linecap="square"></path>
                    <path d="M22.355814,78.372093 L408.981395,78.372093" id="Line-Copy" stroke="#E5E5E5" stroke-width="0.5" stroke-linecap="square"></path>
                    <path d="M22.355814,38.9953488 L408.981395,38.9953488" id="Line" stroke="#E5E5E5" stroke-width="0.5" stroke-linecap="square"></path>
                    <path d="M166.715977,226.115526 L166.740298,224.41306 L166.675442,224.41306 L165.540465,227.323465 L164.405488,224.41306 L164.340633,224.41306 L164.364953,226.115526 L164.364953,228.823256 L163.562363,228.823256 L163.562363,223.164586 L164.673019,223.164586 L165.540465,225.410219 L165.597214,225.410219 L166.472767,223.164586 L167.518567,223.164586 L167.518567,228.823256 L166.715977,228.823256 L166.715977,226.115526 Z M170.566791,228.92054 C169.847968,228.92054 169.314265,228.666523 168.965663,228.158484 C168.617061,227.650444 168.442763,226.92893 168.442763,225.993921 C168.442763,225.058912 168.617061,224.337398 168.965663,223.829358 C169.314265,223.321318 169.847968,223.067302 170.566791,223.067302 C170.842429,223.067302 171.081583,223.103783 171.284258,223.176747 C171.486934,223.24971 171.661232,223.349695 171.807158,223.476705 C171.953084,223.603715 172.076039,223.752341 172.176026,223.922588 C172.276012,224.092836 172.358432,224.275241 172.423288,224.469809 L171.604484,224.745447 C171.561246,224.615734 171.512605,224.494131 171.458558,224.380633 C171.404511,224.267134 171.336954,224.169852 171.255884,224.088781 C171.174814,224.007711 171.078882,223.942856 170.968086,223.894214 C170.85729,223.845572 170.720824,223.821251 170.558684,223.821251 C170.158738,223.821251 169.866889,223.973931 169.68313,224.279295 C169.499371,224.58466 169.407493,224.99676 169.407493,225.515609 L169.407493,226.472233 C169.407493,226.991082 169.499371,227.403182 169.68313,227.708547 C169.866889,228.013911 170.158738,228.166591 170.558684,228.166591 C170.720824,228.166591 170.85729,228.14227 170.968086,228.093628 C171.078882,228.044986 171.174814,227.980131 171.255884,227.89906 C171.336954,227.81799 171.404511,227.720708 171.458558,227.607209 C171.512605,227.493711 171.561246,227.372108 171.604484,227.242395 L172.423288,227.518033 C172.358432,227.712601 172.276012,227.895006 172.176026,228.065253 C172.076039,228.235501 171.953084,228.384127 171.807158,228.511137 C171.661232,228.638147 171.486934,228.738132 171.284258,228.811095 C171.081583,228.884059 170.842429,228.92054 170.566791,228.92054 Z M174.417605,228.823256 L173.51773,228.823256 L173.51773,223.164586 L175.633651,223.164586 C176.174119,223.164586 176.58622,223.315915 176.869965,223.618577 C177.153711,223.921239 177.295581,224.337393 177.295581,224.867051 C177.295581,225.299425 177.190192,225.656129 176.979409,225.937172 C176.768627,226.218215 176.465969,226.391162 176.071428,226.456019 L177.376651,228.823256 L176.371386,228.823256 L175.171553,226.537088 L174.417605,226.537088 L174.417605,228.823256 Z M175.50394,225.80746 C176.066026,225.80746 176.347065,225.550742 176.347065,225.037298 L176.347065,224.688698 C176.347065,224.175253 176.066026,223.918535 175.50394,223.918535 L174.417605,223.918535 L174.417605,225.80746 L175.50394,225.80746 Z" id="MCR" fill-opacity="0.9" fill="#FFFFFF"></path>
                    <path d="M0.196744186,137.613721 L0.196744186,135.895814 L9.38465116,135.895814 L9.38465116,137.613721 L0.196744186,137.613721 Z M0.196744186,141.705814 L0.196744186,139.987907 L9.38465116,139.987907 L9.38465116,141.705814 L0.196744186,141.705814 Z M53.9151163,138.250698 L53.9730233,134.197209 L53.8186047,134.197209 L51.1162791,141.126744 L48.4139535,134.197209 L48.2595349,134.197209 L48.3174419,138.250698 L48.3174419,144.697674 L46.4065116,144.697674 L46.4065116,131.224651 L49.0509302,131.224651 L51.1162791,136.571395 L51.2513953,136.571395 L53.3360465,131.224651 L55.8260465,131.224651 L55.8260465,144.697674 L53.9151163,144.697674 L53.9151163,138.250698 Z M63.0837209,144.929302 C61.3722395,144.929302 60.1015158,144.324502 59.2715116,143.114884 C58.4415075,141.905265 58.0265116,140.187375 58.0265116,137.961163 C58.0265116,135.73495 58.4415075,134.01706 59.2715116,132.807442 C60.1015158,131.597823 61.3722395,130.993023 63.0837209,130.993023 C63.7400033,130.993023 64.3094162,131.079883 64.7919767,131.253605 C65.2745373,131.427326 65.6895331,131.665386 66.0369767,131.967791 C66.3844203,132.270195 66.6771694,132.624068 66.9152326,133.029419 C67.1532958,133.434769 67.3495341,133.869067 67.5039535,134.332326 L65.5544186,134.988605 C65.4514724,134.679766 65.3356596,134.390234 65.2069767,134.12 C65.0782939,133.849766 64.9174428,133.618141 64.7244186,133.425116 C64.5313944,133.232092 64.3029858,133.077675 64.039186,132.96186 C63.7753863,132.846046 63.450467,132.78814 63.0644186,132.78814 C62.1121658,132.78814 61.417289,133.151663 60.9797674,133.878721 C60.5422459,134.605779 60.3234884,135.586971 60.3234884,136.822326 L60.3234884,139.1 C60.3234884,140.335355 60.5422459,141.316547 60.9797674,142.043605 C61.417289,142.770663 62.1121658,143.134186 63.0644186,143.134186 C63.450467,143.134186 63.7753863,143.07628 64.039186,142.960465 C64.3029858,142.844651 64.5313944,142.690234 64.7244186,142.497209 C64.9174428,142.304185 65.0782939,142.072559 65.2069767,141.802326 C65.3356596,141.532092 65.4514724,141.24256 65.5544186,140.933721 L67.5039535,141.59 C67.3495341,142.053258 67.1532958,142.487556 66.9152326,142.892907 C66.6771694,143.298258 66.3844203,143.65213 66.0369767,143.954535 C65.6895331,144.256939 65.2745373,144.494999 64.7919767,144.668721 C64.3094162,144.842443 63.7400033,144.929302 63.0837209,144.929302 Z M72.2523256,144.697674 L70.1097674,144.697674 L70.1097674,131.224651 L75.1476744,131.224651 C76.4345026,131.224651 77.4156943,131.584958 78.0912791,132.305581 C78.7668638,133.026205 79.1046512,134.017048 79.1046512,135.27814 C79.1046512,136.307602 78.8537234,137.156896 78.3518605,137.826047 C77.8499975,138.495197 77.1293845,138.906976 76.19,139.061395 L79.2976744,144.697674 L76.904186,144.697674 L74.0474419,139.254419 L72.2523256,139.254419 L72.2523256,144.697674 Z M74.8388372,137.517209 C76.1771385,137.517209 76.8462791,136.905975 76.8462791,135.683488 L76.8462791,134.853488 C76.8462791,133.631002 76.1771385,133.019767 74.8388372,133.019767 L72.2523256,133.019767 L72.2523256,137.517209 L74.8388372,137.517209 Z M94.8746512,137.980465 C93.9867397,137.980465 93.2757779,137.681282 92.7417442,137.082907 C92.2077105,136.484532 91.9406977,135.619153 91.9406977,134.486744 C91.9406977,133.354335 92.2077105,132.488956 92.7417442,131.890581 C93.2757779,131.292206 93.9867397,130.993023 94.8746512,130.993023 C95.7625626,130.993023 96.4735245,131.292206 97.0075581,131.890581 C97.5415918,132.488956 97.8086047,133.354335 97.8086047,134.486744 C97.8086047,135.619153 97.5415918,136.484532 97.0075581,137.082907 C96.4735245,137.681282 95.7625626,137.980465 94.8746512,137.980465 Z M94.8746512,136.667907 C95.2993044,136.667907 95.6274407,136.516707 95.8590698,136.214302 C96.0906988,135.911898 96.2065116,135.490468 96.2065116,134.95 L96.2065116,134.023488 C96.2065116,133.483021 96.0906988,133.061591 95.8590698,132.759186 C95.6274407,132.456781 95.2993044,132.305581 94.8746512,132.305581 C94.4499979,132.305581 94.1218616,132.456781 93.8902326,132.759186 C93.6586035,133.061591 93.5427907,133.483021 93.5427907,134.023488 L93.5427907,134.95 C93.5427907,135.490468 93.6586035,135.911898 93.8902326,136.214302 C94.1218616,136.516707 94.4499979,136.667907 94.8746512,136.667907 Z M101.283023,131.224651 L103.020233,131.224651 L99.9897674,137.015349 L98.2718605,137.015349 L101.283023,131.224651 Z M94.8939535,138.906977 L96.6118605,138.906977 L93.6006977,144.697674 L91.8634884,144.697674 L94.8939535,138.906977 Z M100.00907,144.929302 C99.1211584,144.929302 98.4101965,144.630119 97.8761628,144.031744 C97.3421291,143.433369 97.0751163,142.56799 97.0751163,141.435581 C97.0751163,140.303173 97.3421291,139.437794 97.8761628,138.839419 C98.4101965,138.241044 99.1211584,137.94186 100.00907,137.94186 C100.896981,137.94186 101.607943,138.241044 102.141977,138.839419 C102.67601,139.437794 102.943023,140.303173 102.943023,141.435581 C102.943023,142.56799 102.67601,143.433369 102.141977,144.031744 C101.607943,144.630119 100.896981,144.929302 100.00907,144.929302 Z M100.00907,143.616744 C100.433723,143.616744 100.761859,143.465544 100.993488,143.16314 C101.225117,142.860735 101.34093,142.439305 101.34093,141.898837 L101.34093,140.972326 C101.34093,140.431858 101.225117,140.010428 100.993488,139.708023 C100.761859,139.405619 100.433723,139.254419 100.00907,139.254419 C99.5844165,139.254419 99.2562802,139.405619 99.0246512,139.708023 C98.7930221,140.010428 98.6772093,140.431858 98.6772093,140.972326 L98.6772093,141.898837 C98.6772093,142.439305 98.7930221,142.860735 99.0246512,143.16314 C99.2562802,143.465544 99.5844165,143.616744 100.00907,143.616744 Z" id="=-MCR-%" fill-opacity="0.6" fill="#1F2124"></path>
                    <path d="M188.24,144.697674 L188.24,131.224651 L193.277907,131.224651 C194.564735,131.224651 195.545927,131.584958 196.221512,132.305581 C196.897096,133.026205 197.234884,134.017048 197.234884,135.27814 C197.234884,136.539231 196.897096,137.530074 196.221512,138.250698 C195.545927,138.971321 194.564735,139.331628 193.277907,139.331628 L190.40186,139.331628 L190.40186,144.697674 L188.24,144.697674 Z M190.40186,137.536512 L192.949767,137.536512 C194.288069,137.536512 194.957209,136.918843 194.957209,135.683488 L194.957209,134.853488 C194.957209,133.631002 194.288069,133.019767 192.949767,133.019767 L190.40186,133.019767 L190.40186,137.536512 Z M199.666977,142.99907 L202.311395,142.99907 L202.311395,136.436279 L199.666977,136.436279 L199.666977,134.737674 L204.415349,134.737674 L204.415349,137.382093 L204.531163,137.382093 C204.621241,137.034649 204.749922,136.700079 204.917209,136.378372 C205.084497,136.056665 205.29682,135.776784 205.554186,135.538721 C205.811552,135.300658 206.12682,135.107636 206.5,134.959651 C206.87318,134.811666 207.310695,134.737674 207.812558,134.737674 L209.009302,134.737674 L209.009302,136.745116 L207.040465,136.745116 C206.268368,136.745116 205.637832,136.973525 205.148837,137.430349 C204.659843,137.887173 204.415349,138.501624 204.415349,139.273721 L204.415349,142.99907 L208.024884,142.99907 L208.024884,144.697674 L199.666977,144.697674 L199.666977,142.99907 Z M216.189767,132.923256 C215.6493,132.923256 215.272908,132.813877 215.060581,132.595116 C214.848255,132.376355 214.742093,132.106126 214.742093,131.784419 L214.742093,131.37907 C214.742093,131.057363 214.848255,130.787133 215.060581,130.568372 C215.272908,130.349611 215.642866,130.240233 216.170465,130.240233 C216.710933,130.240233 217.087325,130.349611 217.299651,130.568372 C217.511978,130.787133 217.61814,131.057363 217.61814,131.37907 L217.61814,131.784419 C217.61814,132.106126 217.511978,132.376355 217.299651,132.595116 C217.087325,132.813877 216.717367,132.923256 216.189767,132.923256 Z M211.73093,142.99907 L215.12814,142.99907 L215.12814,136.436279 L211.73093,136.436279 L211.73093,134.737674 L217.232093,134.737674 L217.232093,142.99907 L220.416977,142.99907 L220.416977,144.697674 L211.73093,144.697674 L211.73093,142.99907 Z M227.520233,144.929302 C226.773872,144.929302 226.107949,144.807055 225.522442,144.562558 C224.936935,144.318061 224.441514,143.970622 224.036163,143.520233 C223.630812,143.069843 223.321978,142.522949 223.109651,141.879535 C222.897325,141.236121 222.791163,140.515508 222.791163,139.717674 C222.791163,138.919841 222.897325,138.199228 223.109651,137.555814 C223.321978,136.9124 223.630812,136.365506 224.036163,135.915116 C224.441514,135.464726 224.936935,135.117288 225.522442,134.872791 C226.107949,134.628293 226.767438,134.506047 227.50093,134.506047 C228.530393,134.506047 229.357167,134.724804 229.981279,135.162326 C230.605391,135.599847 231.071859,136.166043 231.380698,136.86093 L229.74,137.748837 C229.559844,137.285579 229.286397,136.918839 228.919651,136.648605 C228.552905,136.378371 228.080003,136.243256 227.50093,136.243256 C226.703097,136.243256 226.085429,136.484532 225.647907,136.967093 C225.210385,137.449654 224.991628,138.089841 224.991628,138.887674 L224.991628,140.547674 C224.991628,141.33264 225.210385,141.96961 225.647907,142.458605 C226.085429,142.947599 226.715965,143.192093 227.539535,143.192093 C228.157212,143.192093 228.662285,143.050544 229.054767,142.767442 C229.44725,142.48434 229.759301,142.098297 229.99093,141.609302 L231.535116,142.555116 C231.213409,143.250003 230.724422,143.819416 230.06814,144.263372 C229.411857,144.707328 228.562563,144.929302 227.520233,144.929302 Z M238.947209,144.929302 C238.187981,144.929302 237.505972,144.807055 236.901163,144.562558 C236.296354,144.318061 235.788064,143.970622 235.376279,143.520233 C234.964494,143.069843 234.649226,142.526166 234.430465,141.889186 C234.211704,141.252206 234.102326,140.53481 234.102326,139.736977 C234.102326,138.939143 234.214921,138.21853 234.440116,137.575116 C234.665311,136.931702 234.980579,136.381591 235.38593,135.924767 C235.791281,135.467943 236.283485,135.117288 236.862558,134.872791 C237.441631,134.628293 238.085035,134.506047 238.792791,134.506047 C239.487678,134.506047 240.118214,134.625076 240.684419,134.86314 C241.250623,135.101203 241.733176,135.43899 242.132093,135.876512 C242.53101,136.314033 242.836627,136.835191 243.048953,137.44 C243.26128,138.044809 243.367442,138.71395 243.367442,139.447442 L243.367442,140.238837 L236.225581,140.238837 L236.225581,140.566977 C236.225581,141.351942 236.470075,141.992129 236.95907,142.487558 C237.448064,142.982987 238.123639,143.230698 238.985814,143.230698 C239.629228,143.230698 240.179339,143.092366 240.636163,142.815698 C241.092987,142.53903 241.462944,142.169072 241.746047,141.705814 L243.058605,142.863953 C242.724029,143.443026 242.212523,143.932014 241.52407,144.33093 C240.835617,144.729847 239.976672,144.929302 238.947209,144.929302 Z M238.792791,136.10814 C238.419611,136.10814 238.075389,136.17248 237.760116,136.301163 C237.444843,136.429846 237.174614,136.613216 236.949419,136.851279 C236.724224,137.089342 236.547287,137.369223 236.418605,137.69093 C236.289922,138.012637 236.225581,138.36651 236.225581,138.752558 L236.225581,138.887674 L241.224884,138.887674 L241.224884,138.694651 C241.224884,137.909686 241.002909,137.282367 240.558953,136.812674 C240.114998,136.342982 239.526283,136.10814 238.792791,136.10814 Z" id="Price" fill-opacity="0.6" fill="#1F2124"></path>
                    <path id="Line-3" d="M307.313178,139.174419 L253.790698,139.174419 L253.018605,139.174419 L253.018605,137.630233 L253.790698,137.630233 L307.313178,137.630233 L307.313178,132.54186 L319.313178,138.402326 L307.313178,144.262791 L307.313178,139.174419 Z" fill-opacity="0.6" fill="#1F2124" fill-rule="nonzero"></path>
                    <path id="Line-3" d="M159.071318,138.788372 L140.293023,138.788372 L139.52093,138.788372 L139.52093,137.244186 L140.293023,137.244186 L159.071318,137.244186 L159.071318,132.155814 L171.071318,138.016279 L159.071318,143.876744 L159.071318,138.788372 Z" fill-opacity="0.6" fill="#1F2124" fill-rule="nonzero"></path>
                    <g id="Group-2" transform="translate(17.144186, 30.888372)">
                        <g id="Group" transform="translate(5.404651, 0.386047)">
                            <path d="M0.386046512,186.267442 C54.6061941,185.316617 93.0821631,184.158477 115.813953,182.793023 C148.68459,180.818549 178.160421,179.0407 202.288372,174.493023 C319.646512,149.914729 380.770543,94.324031 385.660465,7.72093023 L386.412912,199.971128 C386.42372,202.732531 384.193922,204.979852 381.43252,204.990659 C381.425997,204.990685 381.419473,204.990698 381.41295,204.990698 L0.386046512,204.990698 L0.386046512,186.267442 Z" id="Path-2" fill="url(#linearGradient-5)"></path>
                            <path d="M9.32587341e-15,184.881909 L147.855814,180.862791 C300.730233,166.836434 379.741085,106.627956 384.888372,0.237356884 L386.046512,0.237356884 L386.046512,15.252635 C373.641136,114.066794 294.244237,169.84925 147.855814,182.6 L0,186.997751 L1.03799197e-14,184.881909 Z" id="Combined-Shape" fill="#1EAB89"></path>
                            <g id="Rectangle-2" transform="translate(147.458403, 181.044450) rotate(-315.000000) translate(-147.458403, -181.044450) ">
                                <use fill="black" fill-opacity="1" filter="url(#filter-7)" xlink:href="#path-6"></use>
                                <use fill="#1EAB89" fill-rule="evenodd" xlink:href="#path-6"></use>
                            </g>
                            <rect id="Rectangle-2" fill="#58CD9E" transform="translate(147.461244, 181.047291) rotate(-315.000000) translate(-147.461244, -181.047291) " x="145.010486" y="178.596533" width="4.90151641" height="4.90151641"></rect>
                        </g>
                        <g id="Oval">
                            <use fill="black" fill-opacity="1" filter="url(#filter-9)" xlink:href="#path-8"></use>
                            <use fill="#1EAB89" fill-rule="evenodd" xlink:href="#path-8"></use>
                        </g>
                        <g id="Oval">
                            <use fill="black" fill-opacity="1" filter="url(#filter-11)" xlink:href="#path-10"></use>
                            <use fill="#1EAB89" fill-rule="evenodd" xlink:href="#path-10"></use>
                        </g>
                        <circle id="Oval-2" fill="#58CD9E" cx="5.40465116" cy="186.074419" r="3.08837209"></circle>
                        <path d="M391.756985,2.92046805 L394.075215,6.26902357 C394.317935,6.61961882 394.230485,7.10059569 393.87989,7.34331547 C393.750767,7.43270829 393.597454,7.48059964 393.440407,7.48059964 L389.438754,7.48059964 C389.012339,7.48059964 388.666661,7.13492182 388.666661,6.70850662 C388.666661,6.55145946 388.714552,6.39814652 388.803945,6.26902357 L391.122176,2.92046805 C391.243536,2.74517043 391.484024,2.70144526 391.659322,2.82280515 C391.697482,2.84922393 391.730566,2.8823076 391.756985,2.92046805 Z" id="Triangle" fill="#58CD9E" transform="translate(391.439580, 4.971297) rotate(3.000000) translate(-391.439580, -4.971297) "></path>
                    </g>
                    <text id="MCR" font-family="IBMPlexMono-Medium, IBM Plex Mono" font-size="10" font-weight="400" fill="#1F2124" fill-opacity="0.6">
                        <tspan x="161.404651" y="228.823256">MCR</tspan>
                    </text>
                    <g id="Group-3" filter="url(#filter-12)" transform="translate(122.341860, 138.595349) rotate(-180.000000) translate(-122.341860, -138.595349) translate(116.358140, 123.153488)">
                        <rect id="Rectangle-3" fill="#1EAB89" x="4.43953488" y="2.70232558" width="3.08837209" height="21.2325581"></rect>
                        <g id="Group" transform="translate(5.919264, 24.841575) rotate(176.000000) translate(-5.919264, -24.841575) translate(0.514613, 19.436924)">
                            <circle id="Oval" fill="#1EAB89" cx="5.40465116" cy="5.40465116" r="5.40465116"></circle>
                            <path d="M5.71047302,2.92046805 L8.02870376,6.26902357 C8.27142355,6.61961882 8.18397321,7.10059569 7.83337796,7.34331547 C7.70425501,7.43270829 7.55094207,7.48059964 7.39389491,7.48059964 L3.39224228,7.48059964 C2.96582708,7.48059964 2.62014926,7.13492182 2.62014926,6.70850662 C2.62014926,6.55145946 2.66804062,6.39814652 2.75743343,6.26902357 L5.07566417,2.92046805 C5.19702406,2.74517043 5.4375125,2.70144526 5.61281012,2.82280515 C5.65097058,2.84922393 5.68405425,2.8823076 5.71047302,2.92046805 Z" id="Triangle" fill="#58CD9E" transform="translate(5.393069, 4.971297) rotate(3.000000) translate(-5.393069, -4.971297) "></path>
                        </g>
                        <circle id="Oval-3" fill="#1EAB89" cx="5.98372093" cy="2.89534884" r="2.89534884"></circle>
                    </g>
                    <g id="Group-4" transform="translate(338.334884, 82.232558)">
                        <g id="Combined-Shape" transform="translate(3.860465, 7.334884)">
                            <mask id="mask-14" fill="white">
                                <use xlink:href="#path-13"></use>
                            </mask>
                            <g id="Mask"></g>
                            <path d="M-331.999997,117.216208 C-235.399532,118.494248 -163.273176,113.576196 -115.62093,102.462051 C-31.7825112,82.579809 20.7841554,45.0016197 42.0790698,-10.2725169 L42.0790698,-5.9435987 C19.0113679,48.1190188 -33.5552987,84.8333051 -115.62093,104.19926 C-195.175261,122.313744 -300.746836,118.566515 -332,119.21784 L-332,117.21624 Z" fill="#58CD9E" mask="url(#mask-14)"></path>
                        </g>
                        <g id="Group" transform="translate(4.637051, 56.205066) rotate(20.000000) translate(-4.637051, -56.205066) translate(1.162632, 52.730647)">
                            <g id="Oval">
                                <use fill="black" fill-opacity="1" filter="url(#filter-16)" xlink:href="#path-15"></use>
                                <use fill="#1EAB89" fill-rule="evenodd" xlink:href="#path-15"></use>
                            </g>
                        </g>
                        <g id="Group" transform="translate(42.264940, 6.748661) rotate(13.000000) translate(-42.264940, -6.748661) translate(36.860289, 1.344010)">
                            <g id="Oval">
                                <use fill="black" fill-opacity="1" filter="url(#filter-18)" xlink:href="#path-17"></use>
                                <use fill="#1EAB89" fill-rule="evenodd" xlink:href="#path-17"></use>
                            </g>
                            <path d="M5.71047302,2.92046805 L8.02870376,6.26902357 C8.27142355,6.61961882 8.18397321,7.10059569 7.83337796,7.34331547 C7.70425501,7.43270829 7.55094207,7.48059964 7.39389491,7.48059964 L3.39224228,7.48059964 C2.96582708,7.48059964 2.62014926,7.13492182 2.62014926,6.70850662 C2.62014926,6.55145946 2.66804062,6.39814652 2.75743343,6.26902357 L5.07566417,2.92046805 C5.19702406,2.74517043 5.4375125,2.70144526 5.61281012,2.82280515 C5.65097058,2.84922393 5.68405425,2.8823076 5.71047302,2.92046805 Z" id="Triangle" fill="#58CD9E" transform="translate(5.393069, 4.971297) rotate(3.000000) translate(-5.393069, -4.971297) "></path>
                        </g>
                    </g>
                </g>
            </g>
        </g>
    </g>
</svg>