<?xml version="1.0" encoding="UTF-8"?>
<svg width="646px" height="411px" viewBox="0 0 646 411" version="1.1" xmlns="http://www.w3.org/2000/svg" xmlns:xlink="http://www.w3.org/1999/xlink">
    <!-- Generator: Sketch 51.2 (57519) - http://www.bohemiancoding.com/sketch -->
    <title>Graph 1: Continuous Token Model</title>
    <desc>Created with Sketch.</desc>
    <defs>
        <rect id="path-1" x="9" y="0" width="618" height="383" rx="5"></rect>
        <filter x="-3.6%" y="-5.2%" width="108.1%" height="113.1%" filterUnits="objectBoundingBox" id="filter-2">
            <feOffset dx="2" dy="4" in="SourceAlpha" result="shadowOffsetOuter1"></feOffset>
            <feGaussianBlur stdDeviation="7" in="shadowOffsetOuter1" result="shadowBlurOuter1"></feGaussianBlur>
            <feColorMatrix values="0 0 0 0 0.792156863   0 0 0 0 0.823529412   0 0 0 0 0.878431373  0 0 0 0.7 0" type="matrix" in="shadowBlurOuter1" result="shadowMatrixOuter1"></feColorMatrix>
            <feOffset dx="1" dy="1" in="SourceAlpha" result="shadowOffsetOuter2"></feOffset>
            <feGaussianBlur stdDeviation="1" in="shadowOffsetOuter2" result="shadowBlurOuter2"></feGaussianBlur>
            <feColorMatrix values="0 0 0 0 0.784313725   0 0 0 0 0.823529412   0 0 0 0 0.882352941  0 0 0 1 0" type="matrix" in="shadowBlurOuter2" result="shadowMatrixOuter2"></feColorMatrix>
            <feMerge>
                <feMergeNode in="shadowMatrixOuter1"></feMergeNode>
                <feMergeNode in="shadowMatrixOuter2"></feMergeNode>
            </feMerge>
        </filter>
        <linearGradient x1="0%" y1="100%" x2="100%" y2="100%" id="linearGradient-3">
            <stop stop-color="#1EAB89" stop-opacity="0" offset="0%"></stop>
            <stop stop-color="#1EAB89" stop-opacity="0.2" offset="100%"></stop>
        </linearGradient>
        <circle id="path-4" cx="8.5" cy="351.5" r="8.5"></circle>
        <filter x="-14.7%" y="-14.7%" width="141.2%" height="141.2%" filterUnits="objectBoundingBox" id="filter-5">
            <feOffset dx="1" dy="1" in="SourceAlpha" result="shadowOffsetOuter1"></feOffset>
            <feGaussianBlur stdDeviation="1" in="shadowOffsetOuter1" result="shadowBlurOuter1"></feGaussianBlur>
            <feColorMatrix values="0 0 0 0 0   0 0 0 0 0   0 0 0 0 0  0 0 0 0.5 0" type="matrix" in="shadowBlurOuter1"></feColorMatrix>
        </filter>
        <circle id="path-6" cx="626.5" cy="62.5" r="8.5"></circle>
        <filter x="-14.7%" y="-14.7%" width="141.2%" height="141.2%" filterUnits="objectBoundingBox" id="filter-7">
            <feOffset dx="1" dy="1" in="SourceAlpha" result="shadowOffsetOuter1"></feOffset>
            <feGaussianBlur stdDeviation="1" in="shadowOffsetOuter1" result="shadowBlurOuter1"></feGaussianBlur>
            <feColorMatrix values="0 0 0 0 0   0 0 0 0 0   0 0 0 0 0  0 0 0 0.5 0" type="matrix" in="shadowBlurOuter1"></feColorMatrix>
        </filter>
    </defs>
    <g id="Page-2" stroke="none" stroke-width="1" fill="none" fill-rule="evenodd">
        <g id="Token-Model-Page---Outline-Text-for-svg-output" transform="translate(-637.000000, -1629.000000)">
            <g id="Graph-1:-Continuous-Token-Model" transform="translate(640.000000, 1639.000000)">
                <g id="Rectangle">
                    <use fill="black" fill-opacity="1" filter="url(#filter-2)" xlink:href="#path-1"></use>
                    <use fill="#FFFFFF" fill-rule="evenodd" xlink:href="#path-1"></use>
                </g>
                <path d="M9,318.5 L627,318.5" id="Line-Copy-4" stroke="#E5E5E5" stroke-width="0.61770428" stroke-linecap="square"></path>
                <path d="M9,255.5 L627,255.5" id="Line-Copy-3" stroke="#E5E5E5" stroke-width="0.61770428" stroke-linecap="square"></path>
                <path d="M9,192.5 L627,192.5" id="Line-Copy-2" stroke="#E5E5E5" stroke-width="0.61770428" stroke-linecap="square"></path>
                <path d="M59.3090316,129.5 L627,129.5" id="Line-Copy" stroke="#E5E5E5" stroke-width="0.61770428" stroke-linecap="square"></path>
                <path d="M57.3091106,66.5 L627,66.5" id="Line" stroke="#E5E5E5" stroke-width="0.61770428" stroke-linecap="square"></path>
                <path d="M9,353.007828 C136.720333,354.863014 244.632667,348.575995 332.737,334.146771 C520.913,294.775603 618.921333,205.72668 626.762,67 L627.980335,377.980412 C627.991153,380.741814 625.761364,382.989143 622.999961,382.999962 C622.993432,382.999987 622.986903,383 622.980373,383 L14,383 C11.2385763,383 9,380.761424 9,378 L9,353.007828 Z" id="Path-2" fill="url(#linearGradient-3)"></path>
                <path d="M9,350.701301 C163.642217,352.74672 279.105217,344.875707 355.389,327.088262 C531.725,285.280982 621.644,194.584895 625.146,55 L627,55 L627,81.0303975 C611.215719,207.927202 520.678717,290.873264 355.389,329.868549 C228.034978,358.859567 59.031421,352.862378 9,353.904781 L9,350.701301 Z" id="Combined-Shape" fill="#1EAB89"></path>
                <g id="Oval">
                    <use fill="black" fill-opacity="1" filter="url(#filter-5)" xlink:href="#path-4"></use>
                    <use fill="#1EAB89" fill-rule="evenodd" xlink:href="#path-4"></use>
                </g>
                <g id="Oval">
                    <use fill="black" fill-opacity="1" filter="url(#filter-7)" xlink:href="#path-6"></use>
                    <use fill="#1EAB89" fill-rule="evenodd" xlink:href="#path-6"></use>
                </g>
                <circle id="Oval-2" fill="#58CD9E" cx="9" cy="352" r="5"></circle>
                <path d="M627.014469,58.2808789 L630.864649,64.0813746 C631.241978,64.6498398 631.087031,65.4165572 630.518566,65.793886 C630.316062,65.9283018 630.078407,65.9999973 629.835352,65.9999973 L623.164288,65.9999973 C622.48199,65.9999973 621.928879,65.446886 621.928879,64.7645887 C621.928879,64.5215339 622.000575,64.283879 622.13499,64.0813746 L625.985171,58.2808789 C626.173836,57.9966463 626.557194,57.919173 626.841427,58.1078374 C626.91007,58.1534006 626.968905,58.2122355 627.014469,58.2808789 Z" id="Triangle" fill="#58CD9E" transform="translate(626.499887, 62.002356) rotate(3.000000) translate(-626.499887, -62.002356) "></path>
                <path d="M389.984,362.544 L389.984,371 L388.416,371 L388.416,362.544 L385.35,362.544 L385.35,361.228 L393.05,361.228 L393.05,362.544 L389.984,362.544 Z M397.6,371.168 C397.067997,371.168 396.589669,371.079334 396.165,370.902 C395.740331,370.724666 395.381001,370.472668 395.087,370.146 C394.792999,369.819332 394.566667,369.422669 394.408,368.956 C394.249333,368.489331 394.17,367.96667 394.17,367.388 C394.17,366.80933 394.249333,366.286669 394.408,365.82 C394.566667,365.353331 394.792999,364.956668 395.087,364.63 C395.381001,364.303332 395.740331,364.051334 396.165,363.874 C396.589669,363.696666 397.067997,363.608 397.6,363.608 C398.132003,363.608 398.610331,363.696666 399.035,363.874 C399.459669,364.051334 399.818999,364.303332 400.113,364.63 C400.407001,364.956668 400.633333,365.353331 400.792,365.82 C400.950667,366.286669 401.03,366.80933 401.03,367.388 C401.03,367.96667 400.950667,368.489331 400.792,368.956 C400.633333,369.422669 400.407001,369.819332 400.113,370.146 C399.818999,370.472668 399.459669,370.724666 399.035,370.902 C398.610331,371.079334 398.132003,371.168 397.6,371.168 Z M397.6,369.964 C398.160003,369.964 398.605665,369.793668 398.937,369.453 C399.268335,369.112332 399.434,368.606003 399.434,367.934 L399.434,366.842 C399.434,366.169997 399.268335,365.663668 398.937,365.323 C398.605665,364.982332 398.160003,364.812 397.6,364.812 C397.039997,364.812 396.594335,364.982332 396.263,365.323 C395.931665,365.663668 395.766,366.169997 395.766,366.842 L395.766,367.934 C395.766,368.606003 395.931665,369.112332 396.263,369.453 C396.594335,369.793668 397.039997,369.964 397.6,369.964 Z M406.434,371 C405.79933,371 405.332668,370.829668 405.034,370.489 C404.735332,370.148332 404.586,369.707336 404.586,369.166 L404.586,365.008 L402.36,365.008 L402.36,363.776 L403.942,363.776 C404.212668,363.776 404.403999,363.722334 404.516,363.615 C404.628001,363.507666 404.684,363.314001 404.684,363.034 L404.684,361.228 L406.112,361.228 L406.112,363.776 L409.192,363.776 L409.192,365.008 L406.112,365.008 L406.112,369.768 L409.192,369.768 L409.192,371 L406.434,371 Z M417.088,371 C416.649331,371 416.320334,370.888001 416.101,370.664 C415.881666,370.439999 415.748667,370.146002 415.702,369.782 L415.632,369.782 C415.491999,370.220669 415.237669,370.561332 414.869,370.804 C414.500331,371.046668 414.031336,371.168 413.462,371.168 C412.724663,371.168 412.136669,370.974335 411.698,370.587 C411.259331,370.199665 411.04,369.665337 411.04,368.984 C411.04,368.283997 411.298997,367.749669 411.817,367.381 C412.335003,367.012331 413.130661,366.828 414.204,366.828 L415.59,366.828 L415.59,366.268 C415.59,365.287995 415.072005,364.798 414.036,364.798 C413.569331,364.798 413.191335,364.888999 412.902,365.071 C412.612665,365.253001 412.370001,365.493332 412.174,365.792 L411.264,365.05 C411.469334,364.657998 411.814664,364.319668 412.3,364.035 C412.785336,363.750332 413.410663,363.608 414.176,363.608 C415.090671,363.608 415.809331,363.827331 416.332,364.266 C416.854669,364.704669 417.116,365.339329 417.116,366.17 L417.116,369.796 L418.026,369.796 L418.026,371 L417.088,371 Z M413.896,370.048 C414.390669,370.048 414.796665,369.936001 415.114,369.712 C415.431335,369.487999 415.59,369.198668 415.59,368.844 L415.59,367.794 L414.232,367.794 C413.130661,367.794 412.58,368.12533 412.58,368.788 L412.58,369.068 C412.58,369.394668 412.696665,369.639666 412.93,369.803 C413.163335,369.966334 413.485331,370.048 413.896,370.048 Z M419.65,369.768 L422.044,369.768 L422.044,361.872 L419.65,361.872 L419.65,360.64 L423.57,360.64 L423.57,369.768 L425.964,369.768 L425.964,371 L419.65,371 L419.65,369.768 Z M436.492,369.768 L438.802,369.768 L438.802,365.008 L436.352,365.008 L436.352,363.776 L438.802,363.776 L438.802,362.474 C438.802,361.932664 438.951332,361.491668 439.25,361.151 C439.548668,360.810332 440.01533,360.64 440.65,360.64 L443.086,360.64 L443.086,361.872 L440.328,361.872 L440.328,363.776 L443.086,363.776 L443.086,365.008 L440.328,365.008 L440.328,369.768 L442.764,369.768 L442.764,371 L436.492,371 L436.492,369.768 Z M449.498,369.768 L449.428,369.768 C449.353333,369.954668 449.257667,370.134332 449.141,370.307 C449.024333,370.479668 448.882001,370.628999 448.714,370.755 C448.545999,370.881001 448.350001,370.981333 448.126,371.056 C447.901999,371.130667 447.640668,371.168 447.342,371.168 C446.613996,371.168 446.026002,370.930002 445.578,370.454 C445.129998,369.977998 444.906,369.301338 444.906,368.424 L444.906,363.776 L446.432,363.776 L446.432,368.2 C446.432,369.348006 446.931328,369.922 447.93,369.922 C448.126001,369.922 448.317332,369.896334 448.504,369.845 C448.690668,369.793666 448.858666,369.716667 449.008,369.614 C449.157334,369.511333 449.276333,369.383001 449.365,369.229 C449.453667,369.074999 449.498,368.890668 449.498,368.676 L449.498,363.776 L451.024,363.776 L451.024,371 L449.498,371 L449.498,369.768 Z M453.376,371 L453.376,363.776 L454.902,363.776 L454.902,365.008 L454.972,365.008 C455.046667,364.821332 455.142333,364.641668 455.259,364.469 C455.375667,364.296332 455.517999,364.147001 455.686,364.021 C455.854001,363.894999 456.049999,363.794667 456.274,363.72 C456.498001,363.645333 456.759332,363.608 457.058,363.608 C457.786004,363.608 458.373998,363.845998 458.822,364.322 C459.270002,364.798002 459.494,365.474662 459.494,366.352 L459.494,371 L457.968,371 L457.968,366.576 C457.968,365.427994 457.468672,364.854 456.47,364.854 C456.273999,364.854 456.082668,364.879666 455.896,364.931 C455.709332,364.982334 455.541334,365.059333 455.392,365.162 C455.242666,365.264667 455.123667,365.395333 455.035,365.554 C454.946333,365.712667 454.902,365.894666 454.902,366.1 L454.902,371 L453.376,371 Z M466.368,369.768 L466.284,369.768 C466.069332,370.206669 465.784668,370.549665 465.43,370.797 C465.075332,371.044335 464.632003,371.168 464.1,371.168 C463.250662,371.168 462.574003,370.85067 462.07,370.216 C461.565997,369.58133 461.314,368.638673 461.314,367.388 C461.314,366.137327 461.565997,365.19467 462.07,364.56 C462.574003,363.92533 463.250662,363.608 464.1,363.608 C464.632003,363.608 465.075332,363.731665 465.43,363.979 C465.784668,364.226335 466.069332,364.569331 466.284,365.008 L466.368,365.008 L466.368,360.64 L467.894,360.64 L467.894,371 L466.368,371 L466.368,369.768 Z M464.73,369.922 C464.954001,369.922 465.163999,369.894 465.36,369.838 C465.556001,369.782 465.728666,369.698001 465.878,369.586 C466.027334,369.473999 466.146333,369.336334 466.235,369.173 C466.323667,369.009666 466.368,368.816001 466.368,368.592 L466.368,366.184 C466.368,365.959999 466.323667,365.766334 466.235,365.603 C466.146333,365.439666 466.027334,365.302001 465.878,365.19 C465.728666,365.077999 465.556001,364.994 465.36,364.938 C465.163999,364.882 464.954001,364.854 464.73,364.854 C464.15133,364.854 463.705668,365.031332 463.393,365.386 C463.080332,365.740668 462.924,366.211997 462.924,366.8 L462.924,367.976 C462.924,368.564003 463.080332,369.035332 463.393,369.39 C463.705668,369.744668 464.15133,369.922 464.73,369.922 Z M473.214,371.168 C472.429996,371.168 471.755669,371.042001 471.191,370.79 C470.626331,370.537999 470.171335,370.202002 469.826,369.782 L470.764,368.942 C471.081335,369.287335 471.438331,369.550999 471.835,369.733 C472.231669,369.915001 472.700664,370.006 473.242,370.006 C473.736669,370.006 474.135665,369.922001 474.439,369.754 C474.742335,369.585999 474.894,369.324668 474.894,368.97 C474.894,368.820666 474.866,368.694667 474.81,368.592 C474.754,368.489333 474.674667,368.405334 474.572,368.34 C474.469333,368.274666 474.350334,368.223334 474.215,368.186 C474.079666,368.148666 473.937334,368.120667 473.788,368.102 L472.64,367.92 C472.359999,367.882666 472.075335,367.822 471.786,367.738 C471.496665,367.654 471.237668,367.535001 471.009,367.381 C470.780332,367.226999 470.593667,367.028668 470.449,366.786 C470.304333,366.543332 470.232,366.235335 470.232,365.862 C470.232,365.124663 470.514331,364.564669 471.079,364.182 C471.643669,363.799331 472.387995,363.608 473.312,363.608 C473.984003,363.608 474.564998,363.708332 475.055,363.909 C475.545002,364.109668 475.953332,364.387332 476.28,364.742 L475.426,365.638 C475.239332,365.423332 474.973335,365.225001 474.628,365.043 C474.282665,364.860999 473.825336,364.77 473.256,364.77 C472.238662,364.77 471.73,365.091997 471.73,365.736 C471.73,366.044002 471.839666,366.256333 472.059,366.373 C472.278334,366.489667 472.537332,366.566666 472.836,366.604 L473.984,366.786 C474.273335,366.832667 474.560332,366.893333 474.845,366.968 C475.129668,367.042667 475.386332,367.156999 475.615,367.311 C475.843668,367.465001 476.030333,367.663332 476.175,367.906 C476.319667,368.148668 476.392,368.456665 476.392,368.83 C476.392,369.558004 476.109669,370.129665 475.545,370.545 C474.980331,370.960335 474.203338,371.168 473.214,371.168 Z M490,371.168 C489.467997,371.168 488.989669,371.079334 488.565,370.902 C488.140331,370.724666 487.781001,370.472668 487.487,370.146 C487.192999,369.819332 486.966667,369.422669 486.808,368.956 C486.649333,368.489331 486.57,367.96667 486.57,367.388 C486.57,366.80933 486.649333,366.286669 486.808,365.82 C486.966667,365.353331 487.192999,364.956668 487.487,364.63 C487.781001,364.303332 488.140331,364.051334 488.565,363.874 C488.989669,363.696666 489.467997,363.608 490,363.608 C490.532003,363.608 491.010331,363.696666 491.435,363.874 C491.859669,364.051334 492.218999,364.303332 492.513,364.63 C492.807001,364.956668 493.033333,365.353331 493.192,365.82 C493.350667,366.286669 493.43,366.80933 493.43,367.388 C493.43,367.96667 493.350667,368.489331 493.192,368.956 C493.033333,369.422669 492.807001,369.819332 492.513,370.146 C492.218999,370.472668 491.859669,370.724666 491.435,370.902 C491.010331,371.079334 490.532003,371.168 490,371.168 Z M490,369.964 C490.560003,369.964 491.005665,369.793668 491.337,369.453 C491.668335,369.112332 491.834,368.606003 491.834,367.934 L491.834,366.842 C491.834,366.169997 491.668335,365.663668 491.337,365.323 C491.005665,364.982332 490.560003,364.812 490,364.812 C489.439997,364.812 488.994335,364.982332 488.663,365.323 C488.331665,365.663668 488.166,366.169997 488.166,366.842 L488.166,367.934 C488.166,368.606003 488.331665,369.112332 488.663,369.453 C488.994335,369.793668 489.439997,369.964 490,369.964 Z M495.292,369.768 L497.602,369.768 L497.602,365.008 L495.152,365.008 L495.152,363.776 L497.602,363.776 L497.602,362.474 C497.602,361.932664 497.751332,361.491668 498.05,361.151 C498.348668,360.810332 498.81533,360.64 499.45,360.64 L501.886,360.64 L501.886,361.872 L499.128,361.872 L499.128,363.776 L501.886,363.776 L501.886,365.008 L499.128,365.008 L499.128,369.768 L501.564,369.768 L501.564,371 L495.292,371 L495.292,369.768 Z M515.634,371 C514.99933,371 514.532668,370.829668 514.234,370.489 C513.935332,370.148332 513.786,369.707336 513.786,369.166 L513.786,365.008 L511.56,365.008 L511.56,363.776 L513.142,363.776 C513.412668,363.776 513.603999,363.722334 513.716,363.615 C513.828001,363.507666 513.884,363.314001 513.884,363.034 L513.884,361.228 L515.312,361.228 L515.312,363.776 L518.392,363.776 L518.392,365.008 L515.312,365.008 L515.312,369.768 L518.392,369.768 L518.392,371 L515.634,371 Z M520.576,360.64 L522.102,360.64 L522.102,365.008 L522.172,365.008 C522.246667,364.821332 522.342333,364.641668 522.459,364.469 C522.575667,364.296332 522.717999,364.147001 522.886,364.021 C523.054001,363.894999 523.249999,363.794667 523.474,363.72 C523.698001,363.645333 523.959332,363.608 524.258,363.608 C524.986004,363.608 525.573998,363.845998 526.022,364.322 C526.470002,364.798002 526.694,365.474662 526.694,366.352 L526.694,371 L525.168,371 L525.168,366.576 C525.168,365.427994 524.668672,364.854 523.67,364.854 C523.473999,364.854 523.282668,364.879666 523.096,364.931 C522.909332,364.982334 522.741334,365.059333 522.592,365.162 C522.442666,365.264667 522.323667,365.395333 522.235,365.554 C522.146333,365.712667 522.102,365.894666 522.102,366.1 L522.102,371 L520.576,371 L520.576,360.64 Z M532.154,371.168 C531.603331,371.168 531.108669,371.079334 530.67,370.902 C530.231331,370.724666 529.862668,370.472668 529.564,370.146 C529.265332,369.819332 529.036667,369.425002 528.878,368.963 C528.719333,368.500998 528.64,367.98067 528.64,367.402 C528.64,366.82333 528.721666,366.300669 528.885,365.834 C529.048334,365.367331 529.276999,364.968335 529.571,364.637 C529.865001,364.305665 530.221998,364.051334 530.642,363.874 C531.062002,363.696666 531.528664,363.608 532.042,363.608 C532.546003,363.608 533.003331,363.694332 533.414,363.867 C533.824669,364.039668 534.174665,364.284665 534.464,364.602 C534.753335,364.919335 534.974999,365.297331 535.129,365.736 C535.283001,366.174669 535.36,366.659997 535.36,367.192 L535.36,367.766 L530.18,367.766 L530.18,368.004 C530.18,368.573336 530.357332,369.037665 530.712,369.397 C531.066668,369.756335 531.556664,369.936 532.182,369.936 C532.648669,369.936 533.047665,369.835668 533.379,369.635 C533.710335,369.434332 533.978666,369.166002 534.184,368.83 L535.136,369.67 C534.893332,370.090002 534.522336,370.444665 534.023,370.734 C533.523664,371.023335 532.90067,371.168 532.154,371.168 Z M532.042,364.77 C531.771332,364.77 531.521668,364.816666 531.293,364.91 C531.064332,365.003334 530.868334,365.136332 530.705,365.309 C530.541666,365.481668 530.413334,365.684665 530.32,365.918 C530.226666,366.151335 530.18,366.407999 530.18,366.688 L530.18,366.786 L533.806,366.786 L533.806,366.646 C533.806,366.076664 533.645002,365.621668 533.323,365.281 C533.000998,364.940332 532.574003,364.77 532.042,364.77 Z M545.216,371 L545.216,363.776 L546.518,363.776 L546.518,364.714 L546.588,364.714 C546.700001,364.405998 546.860999,364.144668 547.071,363.93 C547.281001,363.715332 547.581998,363.608 547.974,363.608 C548.356669,363.608 548.652999,363.712999 548.863,363.923 C549.073001,364.133001 549.206,364.419998 549.262,364.784 L549.318,364.784 C549.448667,364.457332 549.630666,364.179668 549.864,363.951 C550.097334,363.722332 550.433331,363.608 550.872,363.608 C551.432003,363.608 551.821666,363.803998 552.041,364.196 C552.260334,364.588002 552.37,365.161996 552.37,365.918 L552.37,371 L551.068,371 L551.068,366.114 C551.068,365.609997 551.007334,365.262334 550.886,365.071 C550.764666,364.879666 550.568668,364.784 550.298,364.784 C550.055332,364.784 549.852334,364.865666 549.689,365.029 C549.525666,365.192334 549.444,365.437332 549.444,365.764 L549.444,371 L548.142,371 L548.142,366.114 C548.142,365.609997 548.083667,365.262334 547.967,365.071 C547.850333,364.879666 547.656668,364.784 547.386,364.784 C547.133999,364.784 546.926334,364.865666 546.763,365.029 C546.599666,365.192334 546.518,365.437332 546.518,365.764 L546.518,371 L545.216,371 Z M558.698,369.768 L558.628,369.768 C558.553333,369.954668 558.457667,370.134332 558.341,370.307 C558.224333,370.479668 558.082001,370.628999 557.914,370.755 C557.745999,370.881001 557.550001,370.981333 557.326,371.056 C557.101999,371.130667 556.840668,371.168 556.542,371.168 C555.813996,371.168 555.226002,370.930002 554.778,370.454 C554.329998,369.977998 554.106,369.301338 554.106,368.424 L554.106,363.776 L555.632,363.776 L555.632,368.2 C555.632,369.348006 556.131328,369.922 557.13,369.922 C557.326001,369.922 557.517332,369.896334 557.704,369.845 C557.890668,369.793666 558.058666,369.716667 558.208,369.614 C558.357334,369.511333 558.476333,369.383001 558.565,369.229 C558.653667,369.074999 558.698,368.890668 558.698,368.676 L558.698,363.776 L560.224,363.776 L560.224,371 L558.698,371 L558.698,369.768 Z M566.034,371 C565.39933,371 564.932668,370.829668 564.634,370.489 C564.335332,370.148332 564.186,369.707336 564.186,369.166 L564.186,365.008 L561.96,365.008 L561.96,363.776 L563.542,363.776 C563.812668,363.776 564.003999,363.722334 564.116,363.615 C564.228001,363.507666 564.284,363.314001 564.284,363.034 L564.284,361.228 L565.712,361.228 L565.712,363.776 L568.792,363.776 L568.792,365.008 L565.712,365.008 L565.712,369.768 L568.792,369.768 L568.792,371 L566.034,371 Z M575.498,369.768 L575.428,369.768 C575.353333,369.954668 575.257667,370.134332 575.141,370.307 C575.024333,370.479668 574.882001,370.628999 574.714,370.755 C574.545999,370.881001 574.350001,370.981333 574.126,371.056 C573.901999,371.130667 573.640668,371.168 573.342,371.168 C572.613996,371.168 572.026002,370.930002 571.578,370.454 C571.129998,369.977998 570.906,369.301338 570.906,368.424 L570.906,363.776 L572.432,363.776 L572.432,368.2 C572.432,369.348006 572.931328,369.922 573.93,369.922 C574.126001,369.922 574.317332,369.896334 574.504,369.845 C574.690668,369.793666 574.858666,369.716667 575.008,369.614 C575.157334,369.511333 575.276333,369.383001 575.365,369.229 C575.453667,369.074999 575.498,368.890668 575.498,368.676 L575.498,363.776 L577.024,363.776 L577.024,371 L575.498,371 L575.498,369.768 Z M585.088,371 C584.649331,371 584.320334,370.888001 584.101,370.664 C583.881666,370.439999 583.748667,370.146002 583.702,369.782 L583.632,369.782 C583.491999,370.220669 583.237669,370.561332 582.869,370.804 C582.500331,371.046668 582.031336,371.168 581.462,371.168 C580.724663,371.168 580.136669,370.974335 579.698,370.587 C579.259331,370.199665 579.04,369.665337 579.04,368.984 C579.04,368.283997 579.298997,367.749669 579.817,367.381 C580.335003,367.012331 581.130661,366.828 582.204,366.828 L583.59,366.828 L583.59,366.268 C583.59,365.287995 583.072005,364.798 582.036,364.798 C581.569331,364.798 581.191335,364.888999 580.902,365.071 C580.612665,365.253001 580.370001,365.493332 580.174,365.792 L579.264,365.05 C579.469334,364.657998 579.814664,364.319668 580.3,364.035 C580.785336,363.750332 581.410663,363.608 582.176,363.608 C583.090671,363.608 583.809331,363.827331 584.332,364.266 C584.854669,364.704669 585.116,365.339329 585.116,366.17 L585.116,369.796 L586.026,369.796 L586.026,371 L585.088,371 Z M581.896,370.048 C582.390669,370.048 582.796665,369.936001 583.114,369.712 C583.431335,369.487999 583.59,369.198668 583.59,368.844 L583.59,367.794 L582.232,367.794 C581.130661,367.794 580.58,368.12533 580.58,368.788 L580.58,369.068 C580.58,369.394668 580.696666,369.639666 580.93,369.803 C581.163335,369.966334 581.485331,370.048 581.896,370.048 Z M587.65,369.768 L590.044,369.768 L590.044,361.872 L587.65,361.872 L587.65,360.64 L591.57,360.64 L591.57,369.768 L593.964,369.768 L593.964,371 L587.65,371 L587.65,369.768 Z M615.964453,365.941406 L613.011328,368.894531 L613.011328,366.447266 L604.999609,366.447266 L604.999609,365.435547 L613.011328,365.435547 L613.011328,362.988281 L615.964453,365.941406 Z" id="Total-funds-of-the-m" fill="#1EAB89"></path>
                <path d="M1.676,101.5 L1.676,91.728 L5.33,91.728 C6.263338,91.728 6.97499755,91.9893307 7.465,92.512 C7.95500245,93.0346693 8.2,93.7533288 8.2,94.668 C8.2,95.5826712 7.95500245,96.3013307 7.465,96.824 C6.97499755,97.3466693 6.263338,97.608 5.33,97.608 L3.244,97.608 L3.244,101.5 L1.676,101.5 Z M3.244,96.306 L5.092,96.306 C6.06267152,96.306 6.548,95.8580045 6.548,94.962 L6.548,94.36 C6.548,93.4733289 6.06267152,93.03 5.092,93.03 L3.244,93.03 L3.244,96.306 Z M9.964,100.268 L11.882,100.268 L11.882,95.508 L9.964,95.508 L9.964,94.276 L13.408,94.276 L13.408,96.194 L13.492,96.194 C13.5573337,95.9419987 13.6506661,95.6993345 13.772,95.466 C13.8933339,95.2326655 14.0473324,95.0296675 14.234,94.857 C14.4206676,94.6843325 14.649332,94.5443339 14.92,94.437 C15.190668,94.3296661 15.5079982,94.276 15.872,94.276 L16.74,94.276 L16.74,95.732 L15.312,95.732 C14.7519972,95.732 14.2946684,95.897665 13.94,96.229 C13.5853316,96.560335 13.408,97.0059972 13.408,97.566 L13.408,100.268 L16.026,100.268 L16.026,101.5 L9.964,101.5 L9.964,100.268 Z M21.948,92.96 C21.555998,92.96 21.2830008,92.8806675 21.129,92.722 C20.9749992,92.5633325 20.898,92.3673345 20.898,92.134 L20.898,91.84 C20.898,91.6066655 20.9749992,91.4106675 21.129,91.252 C21.2830008,91.0933325 21.5513314,91.014 21.934,91.014 C22.326002,91.014 22.5989992,91.0933325 22.753,91.252 C22.9070008,91.4106675 22.984,91.6066655 22.984,91.84 L22.984,92.134 C22.984,92.3673345 22.9070008,92.5633325 22.753,92.722 C22.5989992,92.8806675 22.3306686,92.96 21.948,92.96 Z M18.714,100.268 L21.178,100.268 L21.178,95.508 L18.714,95.508 L18.714,94.276 L22.704,94.276 L22.704,100.268 L25.014,100.268 L25.014,101.5 L18.714,101.5 L18.714,100.268 Z M30.166,101.668 C29.624664,101.668 29.1416688,101.579334 28.717,101.402 C28.2923312,101.224666 27.9330015,100.972668 27.639,100.646 C27.3449985,100.319332 27.1210008,99.922669 26.967,99.456 C26.8129992,98.989331 26.736,98.4666696 26.736,97.888 C26.736,97.3093304 26.8129992,96.786669 26.967,96.32 C27.1210008,95.853331 27.3449985,95.4566683 27.639,95.13 C27.9330015,94.8033317 28.2923312,94.5513342 28.717,94.374 C29.1416688,94.1966658 29.6199973,94.108 30.152,94.108 C30.8986704,94.108 31.4983311,94.2666651 31.951,94.584 C32.4036689,94.9013349 32.7419989,95.3119975 32.966,95.816 L31.776,96.46 C31.6453327,96.1239983 31.4470013,95.858001 31.181,95.662 C30.9149987,95.465999 30.5720021,95.368 30.152,95.368 C29.5733304,95.368 29.1253349,95.5429982 28.808,95.893 C28.4906651,96.2430018 28.332,96.7073304 28.332,97.286 L28.332,98.49 C28.332,99.0593362 28.4906651,99.5213316 28.808,99.876 C29.1253349,100.230668 29.5826637,100.408 30.18,100.408 C30.6280022,100.408 30.9943319,100.305334 31.279,100.1 C31.5636681,99.8946656 31.7899992,99.6146684 31.958,99.26 L33.078,99.946 C32.8446655,100.450003 32.4900024,100.862998 32.014,101.185 C31.5379976,101.507002 30.9220038,101.668 30.166,101.668 Z M38.454,101.668 C37.9033306,101.668 37.4086689,101.579334 36.97,101.402 C36.5313311,101.224666 36.1626682,100.972668 35.864,100.646 C35.5653318,100.319332 35.3366675,99.9250023 35.178,99.463 C35.0193325,99.0009977 34.94,98.4806696 34.94,97.902 C34.94,97.3233304 35.0216659,96.800669 35.185,96.334 C35.3483341,95.867331 35.5769985,95.468335 35.871,95.137 C36.1650015,94.805665 36.5219979,94.5513342 36.942,94.374 C37.3620021,94.1966658 37.8286641,94.108 38.342,94.108 C38.8460025,94.108 39.3033313,94.1943325 39.714,94.367 C40.1246687,94.5396675 40.4746652,94.7846651 40.764,95.102 C41.0533348,95.4193349 41.2749992,95.7973311 41.429,96.236 C41.5830008,96.6746689 41.66,97.1599973 41.66,97.692 L41.66,98.266 L36.48,98.266 L36.48,98.504 C36.48,99.0733362 36.6573316,99.5376649 37.012,99.897 C37.3666684,100.256335 37.8566635,100.436 38.482,100.436 C38.948669,100.436 39.347665,100.335668 39.679,100.135 C40.010335,99.9343323 40.2786656,99.6660017 40.484,99.33 L41.436,100.17 C41.1933321,100.590002 40.8223358,100.944665 40.323,101.234 C39.8236642,101.523335 39.2006704,101.668 38.454,101.668 Z M38.342,95.27 C38.071332,95.27 37.8216678,95.3166662 37.593,95.41 C37.3643322,95.5033338 37.1683341,95.6363325 37.005,95.809 C36.8416659,95.9816675 36.7133338,96.1846655 36.62,96.418 C36.5266662,96.6513345 36.48,96.9079986 36.48,97.188 L36.48,97.286 L40.106,97.286 L40.106,97.146 C40.106,96.5766638 39.9450016,96.1216684 39.623,95.781 C39.3009984,95.4403316 38.8740027,95.27 38.342,95.27 Z M63.4644531,96.4414062 L60.5113281,99.3945312 L60.5113281,96.9472656 L52.4996094,96.9472656 L52.4996094,95.9355469 L60.5113281,95.9355469 L60.5113281,93.4882812 L63.4644531,96.4414062 Z" id="Price-→" fill="#1EAB89" transform="translate(32.570227, 96.341000) rotate(-90.000000) translate(-32.570227, -96.341000) "></path>
                <path d="M511.282,51 L509.364,51 L504.912,44.91 L504.912,51 L502.924,51 L502.924,41.662 L504.968,41.662 L509.294,47.528 L509.294,41.662 L511.282,41.662 L511.282,51 Z M521.6,51 L519.22,51 L516.882,47.584 L514.53,51 L512.164,51 L515.552,46.212 L512.374,41.662 L514.74,41.662 L516.882,44.854 L518.996,41.662 L521.39,41.662 L518.212,46.198 L521.6,51 Z M532.604,51 L530.602,51 L530.602,44.462 L527.97,51 L527.102,51 L524.47,44.462 L524.47,51 L522.482,51 L522.482,41.662 L525.268,41.662 L527.536,47.304 L529.804,41.662 L532.604,41.662 L532.604,51 Z M542.194,51 L540.192,51 L540.192,43.412 L537.462,43.412 L537.462,41.662 L544.91,41.662 L544.91,43.412 L542.194,43.412 L542.194,51 Z M549.278,51.168 C547.052,51.168 545.708,49.544 545.708,47.612 C545.708,45.694 547.052,44.07 549.278,44.07 C551.518,44.07 552.862,45.694 552.862,47.612 C552.862,49.544 551.518,51.168 549.278,51.168 Z M549.278,49.586 C550.384,49.586 551.014,48.676 551.014,47.612 C551.014,46.562 550.384,45.652 549.278,45.652 C548.172,45.652 547.556,46.562 547.556,47.612 C547.556,48.676 548.172,49.586 549.278,49.586 Z M560.786,51 L558.56,51 L556.768,48.396 L555.956,49.264 L555.956,51 L554.178,51 L554.178,41.662 L555.956,41.662 L555.956,47.248 L558.518,44.238 L560.702,44.238 L558.028,47.304 L560.786,51 Z M564.846,51.168 C562.788,51.168 561.234,49.782 561.234,47.612 C561.234,45.652 562.676,44.07 564.734,44.07 C566.75,44.07 568.122,45.582 568.122,47.794 L568.122,48.186 L563.096,48.186 C563.208,49.04 563.894,49.754 565.042,49.754 C565.616,49.754 566.414,49.502 566.848,49.082 L567.632,50.23 C566.96,50.846 565.896,51.168 564.846,51.168 Z M566.4,46.982 C566.358,46.338 565.91,45.484 564.734,45.484 C563.628,45.484 563.152,46.31 563.068,46.982 L566.4,46.982 Z M575.752,51 L573.974,51 L573.974,46.912 C573.974,45.974 573.484,45.652 572.728,45.652 C572.028,45.652 571.482,46.044 571.188,46.45 L571.188,51 L569.41,51 L569.41,44.238 L571.188,44.238 L571.188,45.12 C571.622,44.602 572.448,44.07 573.554,44.07 C575.038,44.07 575.752,44.91 575.752,46.226 L575.752,51 Z M583.13,51 L581.142,51 L581.142,41.662 L585.51,41.662 C587.54,41.662 588.646,43.034 588.646,44.672 C588.646,46.296 587.526,47.682 585.51,47.682 L583.13,47.682 L583.13,51 Z M585.244,45.932 C586.028,45.932 586.616,45.442 586.616,44.672 C586.616,43.888 586.028,43.412 585.244,43.412 L583.13,43.412 L583.13,45.932 L585.244,45.932 Z M591.614,51 L589.836,51 L589.836,44.238 L591.614,44.238 L591.614,45.162 C592.09,44.56 592.93,44.07 593.77,44.07 L593.77,45.806 C593.644,45.778 593.476,45.764 593.28,45.764 C592.692,45.764 591.908,46.1 591.614,46.534 L591.614,51 Z M595.758,43.51 C595.184,43.51 594.694,43.034 594.694,42.446 C594.694,41.858 595.184,41.396 595.758,41.396 C596.346,41.396 596.822,41.858 596.822,42.446 C596.822,43.034 596.346,43.51 595.758,43.51 Z M596.654,51 L594.876,51 L594.876,44.238 L596.654,44.238 L596.654,51 Z M601.568,51.168 C599.482,51.168 597.984,49.698 597.984,47.612 C597.984,45.54 599.482,44.07 601.568,44.07 C602.954,44.07 603.794,44.672 604.242,45.288 L603.08,46.38 C602.758,45.904 602.268,45.652 601.652,45.652 C600.574,45.652 599.818,46.436 599.818,47.612 C599.818,48.788 600.574,49.586 601.652,49.586 C602.268,49.586 602.758,49.306 603.08,48.858 L604.242,49.936 C603.794,50.566 602.954,51.168 601.568,51.168 Z M608.582,51.168 C606.524,51.168 604.97,49.782 604.97,47.612 C604.97,45.652 606.412,44.07 608.47,44.07 C610.486,44.07 611.858,45.582 611.858,47.794 L611.858,48.186 L606.832,48.186 C606.944,49.04 607.63,49.754 608.778,49.754 C609.352,49.754 610.15,49.502 610.584,49.082 L611.368,50.23 C610.696,50.846 609.632,51.168 608.582,51.168 Z M610.136,46.982 C610.094,46.338 609.646,45.484 608.47,45.484 C607.364,45.484 606.888,46.31 606.804,46.982 L610.136,46.982 Z" id="NXM-Token-Price" fill="#1EAB89"></path>
            </g>
        </g>
    </g>
</svg>