<?xml version="1.0" encoding="UTF-8" standalone="no"?>
<!-- Generator: Adobe Illustrator 16.0.0, SVG Export Plug-In . SVG Version: 6.00 Build 0)  -->
<!DOCTYPE svg  PUBLIC '-//W3C//DTD SVG 1.1//EN'  'http://www.w3.org/Graphics/SVG/1.1/DTD/svg11.dtd'>
<svg id="Layer_1" xmlns="http://www.w3.org/2000/svg" xml:space="preserve" height="482px" viewBox="0 0 675 482" width="675px" version="1.1" y="0px" x="0px" xmlns:xlink="http://www.w3.org/1999/xlink" enable-background="new 0 0 675 482">
<filter id="filter-8" height="165.1%" width="165.1%" y="-23.2%" x="-23.2%" filterUnits="objectBoundingBox">
	<feOffset dy="1" result="shadowOffsetOuter1" dx="1" in="SourceAlpha"/>
	<feGaussianBlur stdDeviation="1" result="shadowBlurOuter1" in="shadowOffsetOuter1"/>
	<feColorMatrix values="0 0 0 0 0   0 0 0 0 0   0 0 0 0 0  0 0 0 0.5 0" type="matrix" in="shadowBlurOuter1"/>
</filter>
<filter id="filter-6" height="165.1%" width="165.1%" y="-23.2%" x="-23.2%" filterUnits="objectBoundingBox">
	<feOffset dy="1" result="shadowOffsetOuter1" dx="1" in="SourceAlpha"/>
	<feGaussianBlur stdDeviation="1" result="shadowBlurOuter1" in="shadowOffsetOuter1"/>
	<feColorMatrix values="0 0 0 0 0   0 0 0 0 0   0 0 0 0 0  0 0 0 0.5 0" type="matrix" in="shadowBlurOuter1"/>
</filter>
<filter id="filter-2" height="113.9%" width="108.6%" y="-5.7%" x="-3.5%" filterUnits="objectBoundingBox">
	<feOffset dy="2" result="shadowOffsetOuter1" dx="2" in="SourceAlpha"/>
	<feGaussianBlur stdDeviation="4.5" result="shadowBlurOuter1" in="shadowOffsetOuter1"/>
		<feColorMatrix values="0 0 0 0 0.792156863   0 0 0 0 0.823529412   0 0 0 0 0.878431373  0 0 0 0.7 0" type="matrix" result="shadowMatrixOuter1" in="shadowBlurOuter1">
		</feColorMatrix>
	<feOffset dy="1" result="shadowOffsetOuter2" dx="1" in="SourceAlpha"/>
	<feGaussianBlur stdDeviation="1" result="shadowBlurOuter2" in="shadowOffsetOuter2"/>
		<feColorMatrix values="0 0 0 0 0.784313725   0 0 0 0 0.823529412   0 0 0 0 0.882352941  0 0 0 1 0" type="matrix" result="shadowMatrixOuter2" in="shadowBlurOuter2">
		</feColorMatrix>
	<feMerge>
		<feMergeNode in="shadowMatrixOuter1"/>
		<feMergeNode in="shadowMatrixOuter2"/>
	</feMerge>
</filter>
<filter id="filter-17" height="165.1%" width="165.1%" y="-23.2%" x="-23.2%" filterUnits="objectBoundingBox">
	<feOffset dy="1" result="shadowOffsetOuter1" dx="1" in="SourceAlpha"/>
	<feGaussianBlur stdDeviation="1" result="shadowBlurOuter1" in="shadowOffsetOuter1"/>
	<feColorMatrix values="0 0 0 0 0   0 0 0 0 0   0 0 0 0 0  0 0 0 0.5 0" type="matrix" in="shadowBlurOuter1"/>
</filter>
<filter id="filter-15" height="165.1%" width="165.1%" y="-23.2%" x="-23.2%" filterUnits="objectBoundingBox">
	<feOffset dy="1" result="shadowOffsetOuter1" dx="1" in="SourceAlpha"/>
	<feGaussianBlur stdDeviation="1" result="shadowBlurOuter1" in="shadowOffsetOuter1"/>
	<feColorMatrix values="0 0 0 0 0   0 0 0 0 0   0 0 0 0 0  0 0 0 0.5 0" type="matrix" in="shadowBlurOuter1"/>
</filter>
<filter id="filter-13" height="772.3%" width="772.3%" y="-281.9%" x="-303.6%" filterUnits="objectBoundingBox">
	<feOffset dy="4" result="shadowOffsetOuter1" dx="2" in="SourceAlpha"/>
	<feGaussianBlur stdDeviation="9" result="shadowBlurOuter1" in="shadowOffsetOuter1"/>
		<feColorMatrix values="0 0 0 0 0   0 0 0 0 0   0 0 0 0 0  0 0 0 0.315358922 0" type="matrix" result="shadowMatrixOuter1" in="shadowBlurOuter1">
		</feColorMatrix>
	<feOffset dy="1" result="shadowOffsetOuter2" dx="1" in="SourceAlpha"/>
	<feGaussianBlur stdDeviation="1" result="shadowBlurOuter2" in="shadowOffsetOuter2"/>
		<feColorMatrix values="0 0 0 0 0   0 0 0 0 0   0 0 0 0 0  0 0 0 0.165506114 0" type="matrix" result="shadowMatrixOuter2" in="shadowBlurOuter2">
		</feColorMatrix>
	<feMerge>
		<feMergeNode in="shadowMatrixOuter1"/>
		<feMergeNode in="shadowMatrixOuter2"/>
	</feMerge>
</filter>
<filter id="filter-10" height="116%" width="115.9%" y="-6.6%" x="-6.5%" filterUnits="objectBoundingBox">
	<feOffset dy="2" result="shadowOffsetOuter1" dx="2" in="SourceAlpha"/>
	<feGaussianBlur stdDeviation="4.5" result="shadowBlurOuter1" in="shadowOffsetOuter1"/>
		<feColorMatrix values="0 0 0 0 0.792156863   0 0 0 0 0.823529412   0 0 0 0 0.878431373  0 0 0 0.7 0" type="matrix" result="shadowMatrixOuter1" in="shadowBlurOuter1">
		</feColorMatrix>
	<feOffset dy="1" result="shadowOffsetOuter2" dx="1" in="SourceAlpha"/>
	<feGaussianBlur stdDeviation="1" result="shadowBlurOuter2" in="shadowOffsetOuter2"/>
		<feColorMatrix values="0 0 0 0 0.784313725   0 0 0 0 0.823529412   0 0 0 0 0.882352941  0 0 0 1 0" type="matrix" result="shadowMatrixOuter2" in="shadowBlurOuter2">
		</feColorMatrix>
	<feMerge>
		<feMergeNode in="shadowMatrixOuter1"/>
		<feMergeNode in="shadowMatrixOuter2"/>
	</feMerge>
</filter>
<title>Graph 4: NXM Price and Capital Pool</title>
<desc>Created with Sketch.</desc>
<g id="Page-2">
	<g id="Token-Model-Page---Outline-Text-for-svg-output" transform="translate(-622 -3251)">
		<g id="Graph-4:-NXM-Price-and-Capital-Pool" transform="translate(641 3268)">
			<g id="Group-3" transform="translate(0 217)">
				<g id="Rectangle">
					<g filter="url(#filter-2)">
						<path id="path-1_5_" d="m246.7 0h380.43c1.063 0 1.922 0.86 1.922 1.921v232.84c0 1.063-0.859 1.922-1.922 1.922h-380.43c-1.061 0-1.921-0.859-1.921-1.922v-232.84c0-1.06 0.86-1.92 1.92-1.92z"/>
					</g>
						<path id="path-1_1_" d="m246.7 0h380.43c1.063 0 1.922 0.86 1.922 1.921v232.84c0 1.063-0.859 1.922-1.922 1.922h-380.43c-1.061 0-1.921-0.859-1.921-1.922v-232.84c0-1.06 0.86-1.92 1.92-1.92z" fill="#fff"/>
				</g>
				<path id="Line-Copy-4" d="m245.16 197.11h384.27" stroke="#E5E5E5" stroke-linecap="square" stroke-width=".5" fill="none"/>
				<path id="Line-Copy-3" d="m538.55 157.91h90.879" stroke="#E5E5E5" stroke-linecap="square" stroke-width=".5" fill="none"/>
				<path id="Line-Copy-2" d="m582.55 118.72h46.881" stroke="#E5E5E5" stroke-linecap="square" stroke-width=".5" fill="none"/>
				<path id="Line-Copy" d="m244.59 79.521h384.84" stroke="#E5E5E5" stroke-linecap="square" stroke-width=".5" fill="none"/>
				<path id="Line" d="m244.59 40.326h384.84" stroke="#E5E5E5" stroke-linecap="square" stroke-width=".5" fill="none"/>
				<g id="Combined-Shape" transform="translate(498.78 90.665)">
					<defs>
							<filter id="Adobe_OpacityMaskFilter" height="185.9" width="384.27" y="-67.235" x="-266.3" filterUnits="userSpaceOnUse">
							<feColorMatrix values="1 0 0 0 0  0 1 0 0 0  0 0 1 0 0  0 0 0 1 0" type="matrix"/>
						</filter>
					</defs>
					<mask id="mask-4" height="185.904" width="384.268" y="-67.235" x="-266.298" maskUnits="userSpaceOnUse">
						<g filter="url(#Adobe_OpacityMaskFilter)">
							<rect id="path-3" height="96.067" width="96.067" y="0" x="0" fill="#fff"/>
						</g>
					</mask>
					<path mask="url(#mask-4)" d="m-266.3 116.68c96.156 1.271 167.95-3.623 215.38-14.687 109.65-26.002 165.56-82.411 167.74-169.22h1.151v16.189c-9.81 78.919-66.11 130.51-168.89 154.76-79.188 18.031-184.27 14.301-215.38 14.949v-1.99z" fill="#58CD9E"/>
				</g>
					<g id="Group" transform="translate(594.08 102.96) rotate(20) translate(-5.38 -5.378)">
					<g id="Oval">
						<g filter="url(#filter-6)">
							<circle id="path-5_3_" cy="5.38" cx="5.38" r="5.38"/>
						</g>
							<circle id="path-5_1_" cy="5.38" cx="5.38" r="5.38" fill="#1EAB89"/>
					</g>
					<path id="Triangle" d="m5.791 2.926l2.129 3.45c0.223 0.36 0.112 0.834-0.25 1.057-0.133 0.083-0.288 0.122-0.444 0.114l-3.978-0.208c-0.424-0.023-0.749-0.385-0.726-0.809 0.008-0.155 0.063-0.305 0.159-0.428l2.479-3.208c0.13-0.168 0.371-0.199 0.539-0.069 0.036 0.027 0.067 0.062 0.092 0.101z" fill="#58CD9E"/>
				</g>
					<g id="Group_1_" transform="translate(494.92 178.64) rotate(253) translate(-5.38 -5.38)">
					<g id="Oval_1_">
						<g filter="url(#filter-8)">
							<circle id="path-7_3_" cy="5.38" cx="5.38" r="5.38"/>
						</g>
							<circle id="path-7_1_" cy="5.38" cx="5.38" r="5.38" fill="#1EAB89"/>
					</g>
					<path id="Triangle_1_" d="m5.79 2.927l2.13 3.449c0.223 0.361 0.111 0.834-0.25 1.057-0.132 0.083-0.288 0.122-0.443 0.113l-3.978-0.208c-0.424-0.022-0.75-0.383-0.726-0.807 0.007-0.156 0.062-0.307 0.158-0.43l2.479-3.208c0.13-0.168 0.371-0.199 0.54-0.069 0.035 0.029 0.067 0.063 0.09 0.103z" fill="#58CD9E"/>
				</g>
				<g enable-background="new    ">
					<text font-size="8.0697" font-family="&apos;IBMPlexMono-Medium&apos;" transform="translate(384.69 229.32)" fill="#FFFFFF">MCR</text>
				</g>
				<g id="Group-4" transform="translate(0 31)">
					<g id="Path">
						<g filter="url(#filter-10)">
							<path id="path-9_3_" d="m1.921 0h203.28c1.061 0 1.921 0.859 1.921 1.922v202.16c0 1.061-0.86 1.921-1.921 1.921h-203.28c-1.06 0-1.92-0.86-1.92-1.92v-202.16c0-1.061 0.86-1.92 1.921-1.92z"/>
						</g>
							<path id="path-9_1_" d="m1.921 0h203.28c1.061 0 1.921 0.859 1.921 1.922v202.16c0 1.061-0.86 1.921-1.921 1.921h-203.28c-1.06 0-1.92-0.86-1.92-1.92v-202.16c0-1.061 0.86-1.92 1.921-1.92z" fill="#fff"/>
					</g>
					<path id="Path_1_" opacity=".5961" stroke-width=".7685" d="m16.139 17.188c-0.849 0-1.537 0.688-1.537 1.537v79.172c0 0.849 0.688 1.536 1.537 1.536h92.417c0.849 0 1.537-0.688 1.537-1.536v-10.014l3.938-5.873-3.938-5.384v-57.901c0-0.849-0.688-1.537-1.537-1.537h-92.421z" stroke="#E1E6EE" enable-background="new    " fill="none"/>
					<path id="Path_2_" opacity=".5961" stroke-width=".7685" d="m16.139 189.56c-0.849 0-1.537-0.688-1.537-1.537v-79.171c0-0.849 0.688-1.537 1.537-1.537h92.417c0.849 0 1.537 0.688 1.537 1.537v11.786l3.419 4.367-3.419 4.367v58.649c0 0.85-0.688 1.537-1.537 1.537l-92.421-0.01z" stroke="#E1E6EE" enable-background="new    " fill="none"/>
					<path id="Capital-Pool" d="m135.18 80.168c-1.241 0-2.163-0.438-2.765-1.316-0.602-0.877-0.903-2.123-0.903-3.736 0-1.615 0.301-2.861 0.903-3.738s1.523-1.316 2.765-1.316c0.476 0 0.889 0.063 1.239 0.189s0.651 0.299 0.903 0.518c0.252 0.221 0.464 0.478 0.637 0.771 0.172 0.294 0.315 0.609 0.427 0.945l-1.414 0.476c-0.075-0.224-0.159-0.434-0.252-0.63s-0.21-0.364-0.35-0.504c-0.14-0.142-0.306-0.252-0.497-0.336s-0.427-0.126-0.707-0.126c-0.691 0-1.195 0.264-1.512 0.791-0.317 0.526-0.476 1.237-0.476 2.135v1.652c0 0.896 0.159 1.606 0.476 2.135s0.821 0.791 1.512 0.791c0.28 0 0.516-0.042 0.707-0.126s0.357-0.196 0.497-0.336c0.14-0.142 0.257-0.31 0.35-0.504 0.093-0.196 0.177-0.406 0.252-0.631l1.414 0.477c-0.112 0.336-0.254 0.651-0.427 0.945s-0.385 0.55-0.637 0.77-0.553 0.393-0.903 0.519c-0.36 0.122-0.77 0.185-1.24 0.185zm10.8-0.168c-0.438 0-0.768-0.112-0.987-0.336s-0.353-0.518-0.399-0.882h-0.07c-0.14 0.438-0.394 0.778-0.763 1.021s-0.838 0.364-1.407 0.364c-0.737 0-1.325-0.193-1.764-0.581-0.438-0.388-0.658-0.922-0.658-1.603 0-0.7 0.259-1.234 0.777-1.604 0.518-0.368 1.314-0.553 2.387-0.553h1.386v-0.562c0-0.979-0.518-1.47-1.554-1.47-0.467 0-0.845 0.091-1.134 0.273s-0.532 0.422-0.728 0.721l-0.91-0.742c0.205-0.392 0.55-0.729 1.036-1.015 0.485-0.285 1.111-0.427 1.876-0.427 0.915 0 1.633 0.219 2.156 0.656 0.522 0.439 0.784 1.073 0.784 1.904v3.626h0.91v1.21h-0.96zm-3.19-0.952c0.495 0 0.901-0.112 1.218-0.336s0.476-0.514 0.476-0.868v-1.05h-1.358c-1.101 0-1.652 0.331-1.652 0.994v0.28c0 0.325 0.117 0.57 0.35 0.733 0.23 0.166 0.55 0.247 0.96 0.247zm5.81-6.272h1.526v1.23h0.084c0.215-0.438 0.5-0.781 0.854-1.029 0.354-0.246 0.798-0.369 1.33-0.369 0.849 0 1.526 0.316 2.03 0.95 0.504 0.636 0.756 1.578 0.756 2.828 0 1.251-0.252 2.193-0.756 2.828s-1.181 0.952-2.03 0.952c-0.532 0-0.976-0.124-1.33-0.371s-0.639-0.59-0.854-1.029h-0.084v4.034h-1.526v-10.024zm3.17 6.146c0.579 0 1.024-0.177 1.337-0.532 0.313-0.354 0.469-0.824 0.469-1.414v-1.176c0-0.588-0.156-1.06-0.469-1.414s-0.758-0.532-1.337-0.532c-0.224 0-0.434 0.028-0.63 0.086-0.196 0.056-0.369 0.14-0.518 0.252-0.149 0.11-0.269 0.249-0.357 0.411-0.088 0.164-0.133 0.357-0.133 0.581v2.408c0 0.226 0.044 0.418 0.133 0.581s0.208 0.301 0.357 0.413 0.322 0.196 0.518 0.252c0.19 0.056 0.4 0.084 0.63 0.084zm8.77-7.462c-0.392 0-0.665-0.079-0.819-0.238-0.154-0.157-0.231-0.354-0.231-0.588v-0.294c0-0.232 0.077-0.429 0.231-0.588 0.154-0.158 0.422-0.238 0.805-0.238 0.392 0 0.665 0.08 0.819 0.238 0.154 0.159 0.231 0.354 0.231 0.588v0.294c0 0.233-0.077 0.431-0.231 0.588-0.15 0.159-0.41 0.238-0.8 0.238zm-3.23 7.308h2.464v-4.76h-2.464v-1.23h3.99v5.99h2.31v1.232h-6.3v-1.232zm11.62 1.232c-0.635 0-1.102-0.17-1.4-0.511s-0.448-0.782-0.448-1.323v-4.158h-2.226v-1.23h1.582c0.271 0 0.462-0.055 0.574-0.161 0.112-0.107 0.168-0.301 0.168-0.581v-1.808h1.428v2.55h3.08v1.23h-3.08v4.76h3.08v1.232h-2.75zm10.65 0c-0.438 0-0.768-0.112-0.987-0.336-0.22-0.224-0.353-0.518-0.399-0.882h-0.07c-0.14 0.438-0.394 0.778-0.763 1.021s-0.837 0.364-1.407 0.364c-0.737 0-1.325-0.193-1.764-0.581-0.438-0.388-0.658-0.922-0.658-1.603 0-0.7 0.259-1.234 0.777-1.604 0.518-0.368 1.313-0.553 2.387-0.553h1.386v-0.562c0-0.979-0.518-1.47-1.554-1.47-0.466 0-0.844 0.091-1.134 0.273s-0.532 0.422-0.728 0.721l-0.91-0.742c0.206-0.392 0.551-0.729 1.036-1.015s1.111-0.427 1.876-0.427c0.915 0 1.633 0.219 2.156 0.656 0.522 0.439 0.784 1.073 0.784 1.904v3.626h0.91v1.21h-0.96zm-3.19-0.952c0.495 0 0.9-0.112 1.218-0.336s0.476-0.514 0.476-0.868v-1.05h-1.358c-1.102 0-1.652 0.331-1.652 0.994v0.28c0 0.325 0.117 0.57 0.35 0.733 0.23 0.166 0.55 0.247 0.96 0.247zm5.76-0.28h2.394v-7.896h-2.394v-1.232h3.92v9.128h2.394v1.232h-6.314v-1.232zm-37.68 19.232v-9.772h3.654c0.933 0 1.645 0.263 2.135 0.784 0.49 0.523 0.735 1.241 0.735 2.156s-0.245 1.634-0.735 2.156c-0.49 0.521-1.202 0.784-2.135 0.784h-2.086v3.892h-1.56zm1.57-5.194h1.848c0.971 0 1.456-0.446 1.456-1.344v-0.602c0-0.888-0.485-1.33-1.456-1.33h-1.848v3.276zm9.86 5.362c-0.532 0-1.01-0.089-1.435-0.266-0.425-0.179-0.784-0.431-1.078-0.756-0.294-0.327-0.52-0.725-0.679-1.19-0.159-0.466-0.238-0.989-0.238-1.568 0-0.578 0.08-1.101 0.238-1.566 0.158-0.466 0.385-0.863 0.679-1.19 0.294-0.326 0.653-0.578 1.078-0.756s0.903-0.266 1.435-0.266 1.01 0.088 1.435 0.266c0.425 0.178 0.784 0.43 1.078 0.756 0.294 0.327 0.52 0.725 0.679 1.19 0.159 0.466 0.238 0.988 0.238 1.566 0 0.579-0.08 1.103-0.238 1.568-0.158 0.466-0.385 0.863-0.679 1.19-0.294 0.325-0.653 0.577-1.078 0.756-0.43 0.177-0.91 0.266-1.44 0.266zm0-1.204c0.56 0 1.006-0.17 1.337-0.511 0.332-0.341 0.497-0.847 0.497-1.521v-1.092c0-0.672-0.166-1.178-0.497-1.519s-0.777-0.513-1.337-0.513-1.006 0.172-1.337 0.513c-0.332 0.341-0.497 0.847-0.497 1.519v1.092c0 0.674 0.166 1.18 0.497 1.521s0.78 0.511 1.34 0.511zm8.4 1.204c-0.532 0-1.01-0.089-1.435-0.266-0.424-0.179-0.784-0.431-1.078-0.756-0.294-0.327-0.521-0.725-0.679-1.19s-0.238-0.989-0.238-1.568c0-0.578 0.08-1.101 0.238-1.566s0.385-0.863 0.679-1.19c0.294-0.326 0.653-0.578 1.078-0.756s0.903-0.266 1.435-0.266 1.01 0.088 1.435 0.266 0.784 0.43 1.078 0.756c0.294 0.327 0.52 0.725 0.679 1.19 0.159 0.466 0.238 0.988 0.238 1.566 0 0.579-0.08 1.103-0.238 1.568-0.158 0.466-0.385 0.863-0.679 1.19-0.294 0.325-0.653 0.577-1.078 0.756-0.43 0.177-0.91 0.266-1.44 0.266zm0-1.204c0.56 0 1.006-0.17 1.337-0.511 0.332-0.341 0.497-0.847 0.497-1.521v-1.092c0-0.672-0.166-1.178-0.497-1.519s-0.777-0.513-1.337-0.513-1.005 0.172-1.337 0.513-0.497 0.847-0.497 1.519v1.092c0 0.674 0.166 1.18 0.497 1.521s0.78 0.511 1.34 0.511zm5.24-0.196h2.394v-7.896h-2.394v-1.232h3.92v9.128h2.394v1.232h-6.314v-1.232z" fill-opacity=".6" fill="#1F2124"/>
					<path id="Mutual_x2019_s-current-fun" d="m28.23 32.324l0.042-2.94h-0.112l-1.96 5.026-1.96-5.026h-0.112l0.042 2.94v4.676h-1.386v-9.771h1.918l1.498 3.877h0.098l1.512-3.877h1.806v9.771h-1.386v-4.676zm7.868 3.444h-0.07c-0.075 0.188-0.17 0.367-0.287 0.539-0.117 0.174-0.259 0.322-0.427 0.448s-0.364 0.228-0.588 0.302-0.485 0.111-0.784 0.111c-0.728 0-1.316-0.238-1.764-0.714s-0.672-1.153-0.672-2.03v-4.648h1.526v4.424c0 1.147 0.499 1.722 1.498 1.722 0.196 0 0.388-0.025 0.574-0.076 0.187-0.053 0.354-0.129 0.504-0.232 0.149-0.102 0.269-0.229 0.357-0.385 0.089-0.152 0.133-0.338 0.133-0.553v-4.9h1.526v7.224h-1.526v-1.232zm7.336 1.232c-0.635 0-1.102-0.17-1.4-0.512-0.299-0.34-0.448-0.781-0.448-1.322v-4.158h-2.226v-1.232h1.582c0.271 0 0.462-0.053 0.574-0.159 0.112-0.107 0.168-0.302 0.168-0.581v-1.807h1.428v2.547h3.08v1.232h-3.08v4.76h3.08v1.232h-2.758zm9.464-1.232h-0.07c-0.075 0.188-0.17 0.367-0.287 0.539-0.117 0.174-0.259 0.322-0.427 0.448s-0.364 0.228-0.588 0.302-0.485 0.111-0.784 0.111c-0.728 0-1.316-0.238-1.764-0.714s-0.672-1.153-0.672-2.03v-4.648h1.526v4.424c0 1.147 0.5 1.722 1.498 1.722 0.196 0 0.387-0.025 0.574-0.076 0.187-0.053 0.355-0.129 0.504-0.232 0.149-0.102 0.268-0.229 0.357-0.385 0.088-0.152 0.133-0.338 0.133-0.553v-4.9h1.526v7.224h-1.526v-1.232zm9.59 1.232c-0.438 0-0.768-0.111-0.987-0.336s-0.353-0.518-0.399-0.882h-0.07c-0.14 0.438-0.395 0.778-0.763 1.022-0.369 0.241-0.838 0.362-1.407 0.362-0.737 0-1.325-0.192-1.764-0.581-0.439-0.388-0.658-0.921-0.658-1.604 0-0.699 0.259-1.233 0.777-1.604 0.518-0.369 1.314-0.553 2.387-0.553h1.386v-0.561c0-0.979-0.518-1.471-1.554-1.471-0.467 0-0.845 0.092-1.134 0.271-0.289 0.184-0.532 0.424-0.728 0.723l-0.91-0.742c0.205-0.393 0.551-0.729 1.036-1.015s1.11-0.429 1.876-0.429c0.915 0 1.633 0.221 2.156 0.658 0.523 0.439 0.784 1.074 0.784 1.904v3.626h0.91v1.212h-0.938zm-3.192-0.952c0.495 0 0.901-0.112 1.218-0.336s0.476-0.513 0.476-0.868v-1.05h-1.358c-1.101 0-1.652 0.331-1.652 0.994v0.28c0 0.326 0.117 0.57 0.35 0.733 0.233 0.166 0.555 0.247 0.966 0.247zm5.754-0.28h2.394v-7.896h-2.394v-1.231h3.92v9.127h2.394v1.232h-6.314v-1.232zm11.046-9.127h2.17l-1.75 4.172h-1.176l0.756-4.172zm8.918 10.527c-0.784 0-1.458-0.126-2.023-0.378s-1.02-0.588-1.365-1.008l0.938-0.841c0.317 0.346 0.674 0.608 1.071 0.791s0.866 0.272 1.407 0.272c0.495 0 0.894-0.084 1.197-0.252 0.304-0.168 0.455-0.43 0.455-0.782 0-0.15-0.028-0.275-0.084-0.38-0.056-0.103-0.135-0.187-0.238-0.252s-0.222-0.116-0.357-0.153c-0.135-0.037-0.278-0.064-0.427-0.084l-1.148-0.181c-0.28-0.037-0.564-0.098-0.854-0.182-0.289-0.084-0.548-0.203-0.777-0.357s-0.416-0.352-0.56-0.595-0.217-0.552-0.217-0.925c0-0.736 0.282-1.297 0.847-1.68 0.565-0.384 1.309-0.574 2.233-0.574 0.672 0 1.253 0.102 1.743 0.302s0.898 0.478 1.225 0.833l-0.854 0.896c-0.187-0.216-0.453-0.414-0.798-0.597-0.346-0.183-0.803-0.272-1.372-0.272-1.018 0-1.526 0.321-1.526 0.967 0 0.308 0.11 0.52 0.329 0.637s0.479 0.193 0.777 0.23l1.148 0.183c0.289 0.046 0.576 0.106 0.861 0.182s0.542 0.189 0.77 0.343c0.229 0.154 0.416 0.354 0.56 0.597 0.145 0.241 0.217 0.551 0.217 0.924 0 0.729-0.282 1.3-0.847 1.715-0.565 0.414-1.342 0.621-2.331 0.621zm-58.548 18c-0.541 0-1.024-0.089-1.449-0.266-0.425-0.179-0.784-0.431-1.078-0.756-0.294-0.327-0.518-0.725-0.672-1.19-0.154-0.467-0.231-0.989-0.231-1.568 0-0.578 0.077-1.101 0.231-1.566 0.154-0.468 0.378-0.863 0.672-1.19 0.294-0.326 0.653-0.578 1.078-0.756s0.903-0.266 1.435-0.266c0.747 0 1.346 0.157 1.799 0.476s0.791 0.729 1.015 1.232l-1.19 0.644c-0.131-0.336-0.329-0.602-0.595-0.798s-0.609-0.294-1.029-0.294c-0.579 0-1.027 0.175-1.344 0.523-0.317 0.352-0.476 0.814-0.476 1.395v1.204c0 0.568 0.159 1.031 0.476 1.386s0.775 0.532 1.372 0.532c0.448 0 0.814-0.104 1.099-0.31 0.285-0.205 0.511-0.484 0.679-0.84l1.12 0.688c-0.233 0.504-0.588 0.917-1.064 1.237-0.476 0.322-1.092 0.483-1.848 0.483zm9.632-1.4h-0.07c-0.075 0.188-0.17 0.367-0.287 0.539-0.117 0.174-0.259 0.322-0.427 0.448s-0.364 0.228-0.588 0.301c-0.224 0.075-0.485 0.112-0.784 0.112-0.728 0-1.316-0.238-1.764-0.714-0.448-0.478-0.672-1.152-0.672-2.03v-4.646h1.526v4.422c0 1.146 0.499 1.722 1.498 1.722 0.196 0 0.388-0.024 0.574-0.077 0.187-0.051 0.354-0.128 0.504-0.229 0.15-0.103 0.269-0.231 0.357-0.387 0.089-0.152 0.133-0.338 0.133-0.553v-4.898h1.526v7.222h-1.526v-1.232zm3.766 0h1.918v-4.76h-1.918v-1.23h3.444v1.918h0.084c0.065-0.252 0.159-0.495 0.28-0.729 0.122-0.232 0.275-0.437 0.462-0.607 0.187-0.174 0.416-0.313 0.686-0.422 0.271-0.105 0.588-0.159 0.952-0.159h0.868v1.456h-1.428c-0.56 0-1.017 0.165-1.372 0.495-0.354 0.332-0.532 0.777-0.532 1.339v2.7h2.618v1.231h-6.062v-1.232zm8.4 0h1.918v-4.76h-1.918v-1.23h3.444v1.918h0.084c0.065-0.252 0.159-0.495 0.28-0.729 0.122-0.232 0.275-0.437 0.462-0.607 0.187-0.174 0.415-0.313 0.686-0.422 0.271-0.105 0.588-0.159 0.952-0.159h0.868v1.456h-1.428c-0.56 0-1.017 0.165-1.372 0.495-0.355 0.332-0.532 0.777-0.532 1.339v2.7h2.618v1.231h-6.062v-1.232zm11.69 1.4c-0.551 0-1.045-0.089-1.484-0.266-0.439-0.179-0.808-0.431-1.106-0.756-0.298-0.327-0.527-0.723-0.686-1.185s-0.238-0.981-0.238-1.561 0.082-1.103 0.245-1.568c0.163-0.467 0.392-0.865 0.686-1.197 0.294-0.331 0.651-0.585 1.071-0.763s0.887-0.266 1.4-0.266c0.504 0 0.961 0.086 1.372 0.259s0.761 0.418 1.05 0.733c0.289 0.317 0.511 0.695 0.665 1.136 0.154 0.438 0.231 0.924 0.231 1.456v0.572h-5.18v0.238c0 0.569 0.177 1.034 0.532 1.395 0.354 0.357 0.844 0.537 1.47 0.537 0.467 0 0.866-0.1 1.197-0.301 0.331-0.2 0.6-0.469 0.805-0.805l0.952 0.84c-0.243 0.42-0.614 0.774-1.113 1.064-0.499 0.293-1.122 0.438-1.869 0.438zm-0.112-6.398c-0.271 0-0.52 0.048-0.749 0.142-0.229 0.093-0.424 0.227-0.588 0.397-0.163 0.174-0.292 0.376-0.385 0.609s-0.14 0.49-0.14 0.771v0.098h3.626v-0.14c0-0.57-0.161-1.024-0.483-1.365-0.322-0.342-0.749-0.512-1.281-0.512zm5.334 6.23v-7.224h1.526v1.23h0.07c0.075-0.187 0.17-0.366 0.287-0.539s0.259-0.32 0.427-0.446c0.168-0.128 0.364-0.228 0.588-0.303 0.224-0.074 0.485-0.11 0.784-0.11 0.728 0 1.316 0.236 1.764 0.714 0.448 0.476 0.672 1.151 0.672 2.028v4.65h-1.526v-4.424c0-1.148-0.5-1.724-1.498-1.724-0.196 0-0.387 0.026-0.574 0.077-0.187 0.053-0.354 0.129-0.504 0.231s-0.268 0.232-0.357 0.392-0.133 0.341-0.133 0.546v4.902h-1.526zm11.858 0c-0.635 0-1.102-0.17-1.4-0.511s-0.448-0.782-0.448-1.323v-4.158h-2.226v-1.23h1.582c0.271 0 0.462-0.055 0.574-0.161 0.112-0.107 0.168-0.301 0.168-0.581v-1.808h1.428v2.55h3.08v1.23h-3.08v4.76h3.08v1.232h-2.758zm-53.942 16.768h2.31v-4.76h-2.45v-1.23h2.45v-1.304c0-0.541 0.149-0.981 0.448-1.321 0.298-0.342 0.765-0.513 1.4-0.513h2.436v1.232h-2.758v1.904h2.758v1.23h-2.758v4.76h2.436v1.234h-6.272v-1.232zm13.006 0h-0.07c-0.075 0.188-0.17 0.367-0.287 0.539-0.117 0.174-0.259 0.322-0.427 0.448s-0.364 0.228-0.588 0.301c-0.224 0.075-0.485 0.112-0.784 0.112-0.728 0-1.316-0.238-1.764-0.714-0.448-0.478-0.672-1.152-0.672-2.03v-4.646h1.526v4.422c0 1.146 0.499 1.722 1.498 1.722 0.196 0 0.388-0.024 0.574-0.077 0.187-0.051 0.354-0.128 0.504-0.229 0.15-0.103 0.269-0.231 0.357-0.387 0.089-0.152 0.133-0.338 0.133-0.553v-4.898h1.526v7.222h-1.526v-1.232zm3.878 1.232v-7.224h1.526v1.23h0.07c0.075-0.187 0.17-0.366 0.287-0.539s0.259-0.32 0.427-0.446c0.168-0.128 0.364-0.228 0.588-0.303 0.224-0.074 0.485-0.11 0.784-0.11 0.728 0 1.316 0.236 1.764 0.714 0.448 0.476 0.672 1.151 0.672 2.028v4.65h-1.526v-4.424c0-1.148-0.499-1.724-1.498-1.724-0.196 0-0.387 0.026-0.574 0.077-0.187 0.053-0.355 0.129-0.504 0.231-0.149 0.103-0.269 0.232-0.357 0.392-0.088 0.159-0.133 0.341-0.133 0.546v4.902h-1.526zm12.992-1.232h-0.084c-0.214 0.439-0.499 0.782-0.854 1.029-0.354 0.247-0.798 0.371-1.33 0.371-0.85 0-1.526-0.317-2.03-0.952s-0.756-1.577-0.756-2.828c0-1.25 0.252-2.192 0.756-2.828 0.504-0.634 1.181-0.95 2.03-0.95 0.532 0 0.975 0.123 1.33 0.369 0.355 0.248 0.64 0.592 0.854 1.029h0.084v-4.368h1.526v10.36h-1.526v-1.232zm-1.638 0.154c0.224 0 0.434-0.028 0.63-0.084s0.369-0.14 0.518-0.252 0.268-0.25 0.357-0.413 0.133-0.355 0.133-0.581v-2.408c0-0.224-0.044-0.417-0.133-0.581-0.089-0.162-0.208-0.301-0.357-0.411-0.149-0.112-0.322-0.196-0.518-0.252-0.196-0.058-0.406-0.086-0.63-0.086-0.579 0-1.024 0.179-1.337 0.532-0.313 0.354-0.469 0.826-0.469 1.414v1.176c0 0.59 0.156 1.061 0.469 1.414 0.313 0.355 0.758 0.532 1.337 0.532zm8.918-7.462c-0.392 0-0.665-0.079-0.819-0.238-0.154-0.157-0.231-0.354-0.231-0.588v-0.294c0-0.232 0.077-0.429 0.231-0.588 0.154-0.158 0.422-0.238 0.805-0.238 0.392 0 0.665 0.08 0.819 0.238 0.154 0.159 0.231 0.354 0.231 0.588v0.294c0 0.233-0.077 0.431-0.231 0.588-0.154 0.159-0.422 0.238-0.805 0.238zm-3.234 7.308h2.464v-4.76h-2.464v-1.23h3.99v5.99h2.31v1.232h-6.3v-1.232zm8.162 1.232v-7.224h1.526v1.23h0.07c0.075-0.187 0.17-0.366 0.287-0.539s0.259-0.32 0.427-0.446c0.168-0.128 0.364-0.228 0.588-0.303 0.224-0.074 0.485-0.11 0.784-0.11 0.728 0 1.316 0.236 1.764 0.714 0.448 0.476 0.672 1.151 0.672 2.028v4.65h-1.526v-4.424c0-1.148-0.5-1.724-1.498-1.724-0.196 0-0.387 0.026-0.574 0.077-0.187 0.053-0.354 0.129-0.504 0.231s-0.268 0.232-0.357 0.392-0.133 0.341-0.133 0.546v4.902h-1.526zm15.204 0.784c0 0.746-0.313 1.297-0.938 1.65-0.625 0.355-1.577 0.532-2.856 0.532-0.625 0-1.15-0.039-1.575-0.119-0.425-0.079-0.77-0.192-1.036-0.343-0.266-0.149-0.458-0.331-0.574-0.546s-0.175-0.457-0.175-0.728c0-0.394 0.109-0.698 0.329-0.917 0.219-0.221 0.529-0.382 0.931-0.483v-0.14c-0.243-0.095-0.436-0.226-0.581-0.394s-0.217-0.387-0.217-0.658c0-0.354 0.122-0.623 0.364-0.805 0.243-0.182 0.556-0.319 0.938-0.413v-0.07c-0.439-0.204-0.78-0.493-1.022-0.866-0.243-0.374-0.364-0.821-0.364-1.346 0-0.382 0.07-0.729 0.21-1.043 0.14-0.313 0.338-0.578 0.595-0.798 0.256-0.219 0.564-0.39 0.924-0.511s0.763-0.182 1.211-0.182c0.504 0 0.957 0.078 1.358 0.236v-0.236c0-0.28 0.08-0.515 0.238-0.7 0.158-0.187 0.401-0.28 0.728-0.28h1.316v1.204h-1.68v0.336c0.317 0.215 0.56 0.487 0.728 0.819 0.168 0.331 0.252 0.716 0.252 1.153 0 0.384-0.07 0.73-0.21 1.043s-0.338 0.579-0.595 0.8c-0.257 0.219-0.565 0.387-0.924 0.504-0.359 0.115-0.763 0.175-1.211 0.175-0.317 0-0.616-0.028-0.896-0.084-0.168 0.047-0.336 0.126-0.504 0.238-0.168 0.11-0.252 0.266-0.252 0.462 0 0.224 0.107 0.362 0.322 0.42 0.215 0.056 0.481 0.084 0.798 0.084h1.624c0.97 0 1.67 0.185 2.1 0.553 0.43 0.373 0.644 0.856 0.644 1.453zm-1.428 0.098c0-0.242-0.098-0.437-0.294-0.581-0.196-0.145-0.551-0.217-1.064-0.217h-2.506c-0.354 0.168-0.532 0.438-0.532 0.813 0 0.271 0.114 0.504 0.343 0.698 0.229 0.196 0.609 0.294 1.141 0.294h1.134c0.579 0 1.02-0.086 1.323-0.259 0.303-0.172 0.455-0.421 0.455-0.748zm-2.408-4.27c0.495 0 0.859-0.117 1.092-0.352 0.233-0.232 0.35-0.546 0.35-0.938v-0.378c0-0.394-0.117-0.705-0.35-0.938-0.233-0.232-0.598-0.35-1.092-0.35s-0.858 0.116-1.092 0.35c-0.234 0.234-0.35 0.546-0.35 0.938v0.378c0 0.392 0.117 0.704 0.35 0.938 0.233 0.235 0.597 0.352 1.092 0.352zm-53.494 20.156h2.394v-7.896h-2.394v-1.232h3.92v9.128h2.394v1.232h-6.314v-1.232zm11.704 1.4c-0.551 0-1.045-0.089-1.484-0.266-0.438-0.179-0.807-0.431-1.106-0.756-0.299-0.327-0.527-0.723-0.686-1.185s-0.238-0.981-0.238-1.561 0.082-1.103 0.245-1.568c0.164-0.467 0.392-0.865 0.686-1.197 0.294-0.331 0.651-0.585 1.071-0.763s0.887-0.266 1.4-0.266c0.504 0 0.961 0.086 1.372 0.259s0.761 0.418 1.05 0.733c0.29 0.317 0.511 0.695 0.665 1.136 0.154 0.438 0.231 0.924 0.231 1.456v0.572h-5.18v0.238c0 0.569 0.178 1.034 0.532 1.395 0.354 0.357 0.845 0.537 1.47 0.537 0.466 0 0.865-0.1 1.197-0.301 0.332-0.2 0.6-0.469 0.805-0.805l0.952 0.84c-0.243 0.42-0.613 0.774-1.113 1.064-0.499 0.293-1.123 0.438-1.869 0.438zm-0.112-6.398c-0.271 0-0.521 0.048-0.749 0.142-0.229 0.093-0.425 0.227-0.588 0.397-0.164 0.174-0.292 0.376-0.385 0.609s-0.14 0.49-0.14 0.771v0.098h3.626v-0.14c0-0.57-0.161-1.024-0.483-1.365-0.322-0.342-0.749-0.512-1.281-0.512zm7.42 6.23l-2.59-7.224h1.582l0.994 3.052 0.938 2.896h0.084l0.938-2.896 0.994-3.052h1.526l-2.59 7.224h-1.876zm9.492 0.168c-0.551 0-1.045-0.089-1.484-0.266-0.438-0.179-0.807-0.431-1.106-0.756-0.298-0.327-0.527-0.723-0.686-1.185s-0.238-0.981-0.238-1.561 0.082-1.103 0.245-1.568c0.163-0.467 0.392-0.865 0.686-1.197 0.294-0.331 0.651-0.585 1.071-0.763s0.887-0.266 1.4-0.266c0.504 0 0.961 0.086 1.372 0.259s0.761 0.418 1.05 0.733c0.29 0.317 0.511 0.695 0.665 1.136 0.154 0.438 0.231 0.924 0.231 1.456v0.572h-5.18v0.238c0 0.569 0.177 1.034 0.532 1.395 0.355 0.357 0.845 0.537 1.47 0.537 0.467 0 0.866-0.1 1.197-0.301 0.332-0.2 0.6-0.469 0.805-0.805l0.952 0.84c-0.243 0.42-0.614 0.774-1.113 1.064-0.499 0.293-1.122 0.438-1.869 0.438zm-0.112-6.398c-0.271 0-0.52 0.048-0.749 0.142-0.229 0.093-0.424 0.227-0.588 0.397-0.163 0.174-0.292 0.376-0.385 0.609-0.094 0.233-0.14 0.49-0.14 0.771v0.098h3.626v-0.14c0-0.57-0.161-1.024-0.483-1.365-0.322-0.342-0.749-0.512-1.281-0.512zm5.208 4.998h2.394v-7.896h-2.394v-1.232h3.92v9.128h2.394v1.232h-6.314v-1.232z" fill-opacity=".6" fill="#1F2124"/>
					<path id="Capital-required-to" d="m26.571 126.47c-1.242 0-2.163-0.438-2.765-1.315s-0.903-2.123-0.903-3.738c0-1.614 0.301-2.86 0.903-3.737 0.602-0.878 1.523-1.315 2.765-1.315 0.476 0 0.889 0.063 1.239 0.188s0.651 0.3 0.903 0.519c0.252 0.22 0.464 0.477 0.637 0.771s0.315 0.608 0.427 0.944l-1.414 0.477c-0.075-0.225-0.159-0.435-0.252-0.63-0.094-0.195-0.21-0.363-0.35-0.504s-0.306-0.253-0.497-0.337-0.427-0.126-0.707-0.126c-0.691 0-1.195 0.264-1.512 0.791s-0.476 1.239-0.476 2.136v1.651c0 0.896 0.159 1.608 0.476 2.136s0.821 0.791 1.512 0.791c0.28 0 0.516-0.042 0.707-0.127 0.191-0.084 0.357-0.195 0.497-0.336 0.14-0.14 0.256-0.308 0.35-0.504 0.093-0.195 0.177-0.405 0.252-0.63l1.414 0.477c-0.112 0.336-0.254 0.65-0.427 0.944s-0.385 0.551-0.637 0.771-0.553 0.393-0.903 0.519-0.763 0.19-1.239 0.19zm10.807-0.16c-0.438 0-0.768-0.111-0.987-0.336s-0.353-0.519-0.399-0.882h-0.07c-0.14 0.438-0.395 0.779-0.763 1.021-0.369 0.242-0.838 0.363-1.407 0.363-0.737 0-1.325-0.193-1.764-0.581s-0.658-0.922-0.658-1.604c0-0.699 0.259-1.234 0.777-1.604 0.518-0.368 1.314-0.553 2.387-0.553h1.386v-0.561c0-0.979-0.518-1.471-1.554-1.471-0.467 0-0.845 0.092-1.134 0.272-0.289 0.183-0.532 0.423-0.728 0.722l-0.91-0.742c0.205-0.392 0.551-0.729 1.036-1.015 0.485-0.285 1.11-0.428 1.876-0.428 0.915 0 1.633 0.22 2.156 0.658s0.784 1.072 0.784 1.903v3.626h0.91v1.204h-0.938v0.01zm-3.191-0.96c0.495 0 0.901-0.111 1.218-0.336s0.476-0.514 0.476-0.867v-1.04h-1.358c-1.101 0-1.652 0.331-1.652 0.994v0.279c0 0.327 0.117 0.572 0.35 0.735 0.233 0.17 0.555 0.25 0.966 0.25zm5.81-6.27h1.526v1.232h0.084c0.215-0.438 0.5-0.782 0.854-1.029 0.355-0.247 0.798-0.371 1.33-0.371 0.85 0 1.526 0.317 2.03 0.952s0.756 1.577 0.756 2.828-0.252 2.192-0.756 2.828c-0.504 0.635-1.181 0.951-2.03 0.951-0.532 0-0.975-0.124-1.33-0.371-0.354-0.246-0.639-0.591-0.854-1.028h-0.084v4.032h-1.526v-10.02zm3.164 6.15c0.579 0 1.024-0.178 1.337-0.531 0.313-0.354 0.469-0.826 0.469-1.414v-1.176c0-0.589-0.156-1.061-0.469-1.414-0.313-0.354-0.758-0.532-1.337-0.532-0.224 0-0.434 0.028-0.63 0.084-0.196 0.057-0.369 0.141-0.518 0.252-0.149 0.112-0.269 0.25-0.357 0.413-0.089 0.163-0.133 0.356-0.133 0.581v2.408c0 0.224 0.044 0.418 0.133 0.58 0.088 0.163 0.208 0.302 0.357 0.413s0.322 0.196 0.518 0.252c0.196 0.06 0.406 0.09 0.63 0.09zm8.777-7.46c-0.392 0-0.665-0.079-0.819-0.237s-0.231-0.354-0.231-0.588v-0.294c0-0.233 0.077-0.431 0.231-0.589s0.422-0.237 0.805-0.237c0.392 0 0.665 0.079 0.819 0.237s0.231 0.354 0.231 0.589v0.294c0 0.232-0.077 0.43-0.231 0.588-0.153 0.16-0.422 0.24-0.805 0.24zm-3.233 7.3h2.464v-4.76h-2.464v-1.232h3.99v5.992h2.31v1.231h-6.3v-1.23zm11.62 1.24c-0.635 0-1.102-0.171-1.4-0.512-0.299-0.34-0.448-0.781-0.448-1.322v-4.157h-2.227v-1.232h1.582c0.271 0 0.462-0.054 0.574-0.161 0.112-0.105 0.168-0.301 0.168-0.58v-1.807h1.428v2.548h3.08v1.232h-3.08v4.76h3.08v1.231h-2.757zm10.654 0c-0.438 0-0.768-0.111-0.987-0.336s-0.353-0.519-0.399-0.882h-0.07c-0.14 0.438-0.394 0.779-0.763 1.021s-0.838 0.363-1.407 0.363c-0.737 0-1.325-0.193-1.764-0.581s-0.658-0.922-0.658-1.604c0-0.699 0.259-1.234 0.777-1.604 0.518-0.368 1.314-0.553 2.387-0.553h1.386v-0.561c0-0.979-0.518-1.471-1.554-1.471-0.467 0-0.845 0.092-1.134 0.272-0.289 0.183-0.532 0.423-0.728 0.722l-0.91-0.742c0.205-0.392 0.55-0.729 1.036-1.015 0.485-0.285 1.111-0.428 1.876-0.428 0.915 0 1.634 0.22 2.156 0.658s0.784 1.072 0.784 1.903v3.626h0.91v1.204h-0.938v0.01zm-3.192-0.96c0.495 0 0.901-0.111 1.218-0.336s0.476-0.514 0.476-0.867v-1.04h-1.358c-1.101 0-1.652 0.331-1.652 0.994v0.279c0 0.327 0.117 0.572 0.35 0.735 0.233 0.17 0.555 0.25 0.966 0.25zm5.754-0.28h2.394v-7.896h-2.394v-1.231h3.92v9.128h2.394v1.231h-6.314v-1.23zm-50.386 18h1.918v-4.76h-1.918v-1.232h3.444v1.918h0.084c0.065-0.252 0.159-0.494 0.28-0.728 0.122-0.233 0.275-0.438 0.462-0.609s0.415-0.313 0.686-0.42c0.271-0.107 0.588-0.161 0.952-0.161h0.868v1.456h-1.428c-0.56 0-1.017 0.166-1.372 0.497-0.355 0.332-0.532 0.776-0.532 1.337v2.702h2.618v1.231h-6.062v-1.24zm11.69 1.4c-0.551 0-1.045-0.089-1.484-0.267-0.439-0.177-0.808-0.429-1.106-0.756-0.298-0.326-0.527-0.721-0.686-1.184-0.159-0.462-0.238-0.981-0.238-1.562 0-0.578 0.082-1.101 0.245-1.567 0.163-0.467 0.392-0.865 0.686-1.196s0.651-0.586 1.071-0.764 0.887-0.267 1.4-0.267c0.504 0 0.961 0.087 1.372 0.26 0.411 0.172 0.761 0.417 1.05 0.734 0.289 0.316 0.511 0.694 0.665 1.134 0.154 0.438 0.231 0.925 0.231 1.456v0.574h-5.18v0.237c0 0.569 0.177 1.033 0.532 1.394 0.354 0.358 0.844 0.539 1.47 0.539 0.467 0 0.866-0.102 1.197-0.301 0.331-0.2 0.6-0.47 0.805-0.806l0.952 0.84c-0.243 0.42-0.614 0.774-1.113 1.063-0.5 0.32-1.123 0.46-1.869 0.46zm-0.113-6.39c-0.271 0-0.52 0.047-0.749 0.141-0.229 0.093-0.424 0.227-0.588 0.398-0.163 0.173-0.292 0.376-0.385 0.608-0.093 0.233-0.14 0.49-0.14 0.771v0.099h3.626v-0.141c0-0.569-0.161-1.024-0.483-1.365-0.322-0.35-0.748-0.52-1.281-0.52zm9.927 4.99h-0.084c-0.215 0.438-0.5 0.782-0.854 1.028-0.354 0.247-0.798 0.371-1.33 0.371-0.849 0-1.526-0.316-2.03-0.951-0.504-0.636-0.756-1.577-0.756-2.828s0.252-2.193 0.756-2.828c0.504-0.635 1.181-0.952 2.03-0.952 0.532 0 0.976 0.124 1.33 0.371s0.639 0.591 0.854 1.029h0.084v-1.232h1.526v10.024h-1.526v-4.03zm-1.638 0.16c0.224 0 0.434-0.027 0.63-0.084 0.196-0.056 0.369-0.141 0.518-0.252s0.269-0.25 0.357-0.413c0.089-0.162 0.133-0.356 0.133-0.58v-2.408c0-0.225-0.044-0.418-0.133-0.581-0.088-0.163-0.208-0.301-0.357-0.413-0.149-0.111-0.322-0.195-0.518-0.252-0.196-0.056-0.406-0.084-0.63-0.084-0.579 0-1.024 0.178-1.337 0.532s-0.469 0.825-0.469 1.414v1.176c0 0.588 0.156 1.06 0.469 1.414 0.313 0.34 0.758 0.52 1.337 0.52zm9.968-0.16h-0.07c-0.075 0.187-0.17 0.366-0.287 0.539s-0.259 0.321-0.427 0.447-0.364 0.228-0.588 0.302c-0.224 0.074-0.485 0.111-0.784 0.111-0.728 0-1.316-0.237-1.764-0.714s-0.672-1.152-0.672-2.03v-4.647h1.526v4.425c0 1.147 0.499 1.722 1.498 1.722 0.196 0 0.388-0.024 0.574-0.076 0.186-0.053 0.354-0.128 0.504-0.231 0.149-0.103 0.269-0.229 0.357-0.385 0.089-0.153 0.133-0.338 0.133-0.553v-4.9h1.526v7.225h-1.526v-1.23zm7.35-7.3c-0.392 0-0.665-0.078-0.819-0.237-0.154-0.158-0.231-0.354-0.231-0.588v-0.294c0-0.233 0.077-0.431 0.231-0.589s0.422-0.237 0.805-0.237c0.392 0 0.665 0.079 0.819 0.237s0.231 0.354 0.231 0.589v0.294c0 0.232-0.077 0.43-0.231 0.588s-0.423 0.24-0.805 0.24zm-3.235 7.3h2.464v-4.76h-2.464v-1.232h3.99v5.992h2.31v1.231h-6.3v-1.23zm8.051 0h1.918v-4.76h-1.918v-1.232h3.444v1.918h0.084c0.065-0.252 0.159-0.494 0.28-0.728 0.122-0.233 0.275-0.438 0.462-0.609s0.415-0.313 0.686-0.42c0.271-0.107 0.588-0.161 0.952-0.161h0.868v1.456h-1.428c-0.56 0-1.017 0.166-1.372 0.497-0.355 0.332-0.532 0.776-0.532 1.337v2.702h2.618v1.231h-6.062v-1.24zm11.69 1.4c-0.551 0-1.045-0.089-1.484-0.267-0.439-0.177-0.808-0.429-1.106-0.756-0.298-0.326-0.527-0.721-0.686-1.184-0.159-0.462-0.238-0.981-0.238-1.562 0-0.578 0.082-1.101 0.245-1.567 0.163-0.467 0.392-0.865 0.686-1.196s0.651-0.586 1.071-0.764 0.887-0.267 1.4-0.267c0.504 0 0.961 0.087 1.372 0.26 0.411 0.172 0.761 0.417 1.05 0.734 0.289 0.316 0.511 0.694 0.665 1.134 0.154 0.438 0.231 0.925 0.231 1.456v0.574h-5.18v0.237c0 0.569 0.177 1.033 0.532 1.394 0.354 0.358 0.844 0.539 1.47 0.539 0.467 0 0.866-0.102 1.197-0.301 0.331-0.2 0.6-0.47 0.805-0.806l0.952 0.84c-0.243 0.42-0.614 0.774-1.113 1.063-0.5 0.32-1.123 0.46-1.869 0.46zm-0.113-6.39c-0.271 0-0.52 0.047-0.749 0.141-0.229 0.093-0.424 0.227-0.588 0.398-0.163 0.173-0.292 0.376-0.385 0.608-0.093 0.233-0.14 0.49-0.14 0.771v0.099h3.626v-0.141c0-0.569-0.161-1.024-0.483-1.365-0.322-0.35-0.748-0.52-1.281-0.52zm9.927 4.99h-0.084c-0.215 0.438-0.5 0.782-0.854 1.028-0.354 0.247-0.798 0.371-1.33 0.371-0.849 0-1.526-0.316-2.03-0.951-0.504-0.636-0.756-1.577-0.756-2.828s0.252-2.193 0.756-2.828c0.504-0.635 1.181-0.952 2.03-0.952 0.532 0 0.976 0.124 1.33 0.371s0.639 0.591 0.854 1.029h0.084v-4.368h1.526v10.359h-1.526v-1.23zm-1.638 0.16c0.224 0 0.434-0.027 0.63-0.084 0.196-0.056 0.369-0.141 0.518-0.252s0.269-0.25 0.357-0.413c0.089-0.162 0.133-0.356 0.133-0.58v-2.408c0-0.225-0.044-0.418-0.133-0.581-0.088-0.163-0.208-0.301-0.357-0.413-0.149-0.111-0.322-0.195-0.518-0.252-0.196-0.056-0.406-0.084-0.63-0.084-0.579 0-1.024 0.178-1.337 0.532s-0.469 0.825-0.469 1.414v1.176c0 0.588 0.156 1.06 0.469 1.414 0.313 0.34 0.758 0.52 1.337 0.52zm-58.296 19.08c-0.635 0-1.101-0.171-1.4-0.512-0.299-0.34-0.448-0.781-0.448-1.322v-4.157h-2.227v-1.232h1.582c0.271 0 0.462-0.054 0.574-0.161 0.112-0.105 0.168-0.301 0.168-0.58v-1.807h1.428v2.548h3.08v1.232h-3.08v4.76h3.08v1.231h-2.757zm7.965 0.16c-0.532 0-1.01-0.089-1.435-0.267-0.425-0.177-0.784-0.429-1.078-0.756-0.294-0.326-0.521-0.724-0.679-1.189-0.158-0.466-0.238-0.988-0.238-1.567s0.079-1.103 0.238-1.568 0.385-0.863 0.679-1.188c0.294-0.327 0.653-0.579 1.078-0.757 0.424-0.178 0.903-0.267 1.435-0.267s1.011 0.089 1.435 0.267c0.425 0.178 0.784 0.43 1.078 0.757 0.294 0.325 0.521 0.724 0.679 1.188 0.159 0.467 0.238 0.989 0.238 1.568s-0.079 1.102-0.238 1.567c-0.159 0.466-0.385 0.863-0.679 1.189-0.294 0.327-0.653 0.579-1.078 0.756-0.424 0.18-0.902 0.27-1.435 0.27zm0-1.2c0.56 0 1.006-0.171 1.337-0.511 0.331-0.341 0.497-0.848 0.497-1.52v-1.092c0-0.673-0.166-1.18-0.497-1.521-0.332-0.34-0.777-0.511-1.337-0.511s-1.005 0.171-1.337 0.511c-0.331 0.341-0.497 0.848-0.497 1.521v1.092c0 0.672 0.166 1.179 0.497 1.52 0.332 0.34 0.778 0.51 1.337 0.51zm13.706-6.19h1.526v1.231h0.084c0.214-0.438 0.499-0.781 0.854-1.028 0.354-0.247 0.798-0.371 1.33-0.371 0.85 0 1.526 0.317 2.03 0.952s0.756 1.577 0.756 2.828-0.252 2.192-0.756 2.827c-0.504 0.636-1.181 0.952-2.03 0.952-0.532 0-0.975-0.124-1.33-0.371-0.355-0.246-0.64-0.591-0.854-1.028h-0.084v4.031h-1.526v-10.02zm3.165 6.15c0.579 0 1.024-0.178 1.337-0.531 0.313-0.354 0.469-0.826 0.469-1.414v-1.176c0-0.589-0.156-1.061-0.469-1.414-0.313-0.354-0.758-0.532-1.337-0.532-0.224 0-0.434 0.028-0.63 0.084-0.196 0.057-0.369 0.141-0.518 0.252-0.149 0.112-0.268 0.25-0.357 0.413s-0.133 0.356-0.133 0.581v2.408c0 0.224 0.044 0.418 0.133 0.58 0.089 0.163 0.208 0.302 0.357 0.413s0.322 0.196 0.518 0.252c0.196 0.06 0.405 0.09 0.63 0.09zm11.018 1.08c-0.438 0-0.768-0.111-0.987-0.336-0.22-0.225-0.353-0.519-0.399-0.882h-0.07c-0.14 0.438-0.394 0.779-0.763 1.021s-0.838 0.363-1.407 0.363c-0.737 0-1.325-0.193-1.764-0.581-0.438-0.388-0.658-0.922-0.658-1.604 0-0.699 0.259-1.234 0.777-1.604 0.518-0.368 1.313-0.553 2.387-0.553h1.386v-0.561c0-0.979-0.518-1.471-1.554-1.471-0.467 0-0.845 0.092-1.134 0.272-0.289 0.183-0.532 0.423-0.728 0.722l-0.91-0.742c0.206-0.392 0.551-0.729 1.036-1.015s1.111-0.428 1.876-0.428c0.915 0 1.633 0.22 2.156 0.658 0.522 0.438 0.784 1.072 0.784 1.903v3.626h0.91v1.204h-0.938v0.01zm-3.192-0.96c0.495 0 0.9-0.111 1.218-0.336 0.317-0.225 0.476-0.514 0.476-0.867v-1.04h-1.358c-1.102 0-1.652 0.331-1.652 0.994v0.279c0 0.327 0.117 0.572 0.35 0.735s0.555 0.25 0.966 0.25zm11.018-6.27h1.54l-3.5 8.624c-0.187 0.467-0.432 0.817-0.735 1.051-0.303 0.232-0.74 0.351-1.309 0.351h-1.218v-1.232h1.708l0.658-1.666-2.912-7.126h1.596l1.148 3.024 0.896 2.478h0.084l0.896-2.478 1.148-3.01zm-43.848 25.39c-0.542 0-1.024-0.089-1.449-0.267-0.424-0.177-0.784-0.429-1.078-0.756-0.294-0.326-0.518-0.724-0.672-1.189-0.154-0.467-0.231-0.988-0.231-1.567s0.077-1.103 0.231-1.568c0.154-0.466 0.378-0.863 0.672-1.188 0.294-0.327 0.653-0.579 1.078-0.757s0.903-0.267 1.435-0.267c0.747 0 1.347 0.159 1.799 0.477s0.791 0.729 1.015 1.231l-1.19 0.645c-0.13-0.336-0.329-0.603-0.595-0.798s-0.609-0.294-1.029-0.294c-0.579 0-1.026 0.175-1.344 0.524-0.317 0.351-0.476 0.813-0.476 1.394v1.203c0 0.57 0.159 1.032 0.476 1.387s0.774 0.532 1.372 0.532c0.448 0 0.814-0.104 1.099-0.309s0.511-0.485 0.679-0.84l1.12 0.686c-0.233 0.505-0.588 0.917-1.064 1.239-0.476 0.35-1.092 0.51-1.848 0.51zm4.984-1.4h2.394v-7.896h-2.394v-1.231h3.92v9.128h2.394v1.231h-6.314v-1.23zm14.238 1.24c-0.439 0-0.768-0.111-0.987-0.336s-0.352-0.519-0.399-0.882h-0.07c-0.14 0.438-0.395 0.779-0.763 1.021-0.369 0.242-0.837 0.363-1.407 0.363-0.737 0-1.326-0.193-1.764-0.581s-0.658-0.922-0.658-1.604c0-0.699 0.259-1.234 0.777-1.604 0.518-0.368 1.313-0.553 2.387-0.553h1.386v-0.561c0-0.979-0.518-1.471-1.554-1.471-0.467 0-0.845 0.092-1.134 0.272-0.29 0.183-0.532 0.423-0.728 0.722l-0.91-0.742c0.206-0.392 0.551-0.729 1.036-1.015 0.485-0.285 1.11-0.428 1.876-0.428 0.915 0 1.633 0.22 2.156 0.658s0.784 1.072 0.784 1.903v3.626h0.91v1.204h-0.938v0.01zm-3.193-0.96c0.495 0 0.901-0.111 1.218-0.336s0.476-0.514 0.476-0.867v-1.04h-1.358c-1.102 0-1.652 0.331-1.652 0.994v0.279c0 0.327 0.117 0.572 0.35 0.735s0.556 0.25 0.966 0.25zm9.352-7.58c-0.392 0-0.665-0.078-0.819-0.237-0.154-0.158-0.231-0.354-0.231-0.588v-0.294c0-0.233 0.077-0.431 0.231-0.589s0.422-0.237 0.805-0.237c0.392 0 0.665 0.079 0.819 0.237s0.231 0.354 0.231 0.589v0.294c0 0.232-0.077 0.43-0.231 0.588-0.153 0.16-0.422 0.24-0.805 0.24zm-3.233 7.3h2.464v-4.76h-2.464v-1.232h3.99v5.992h2.31v1.231h-6.3v-1.23zm7.602 1.24v-7.225h1.302v0.938h0.07c0.112-0.309 0.273-0.568 0.483-0.783 0.21-0.216 0.511-0.322 0.903-0.322 0.383 0 0.679 0.104 0.889 0.314 0.21 0.211 0.343 0.497 0.399 0.861h0.056c0.13-0.327 0.313-0.604 0.546-0.833s0.569-0.344 1.008-0.344c0.56 0 0.95 0.196 1.169 0.588 0.219 0.393 0.329 0.967 0.329 1.723v5.082h-1.302v-4.887c0-0.504-0.061-0.852-0.182-1.043-0.121-0.19-0.317-0.286-0.588-0.286-0.243 0-0.446 0.081-0.609 0.244-0.164 0.164-0.245 0.409-0.245 0.735v5.235h-1.302v-4.887c0-0.504-0.058-0.852-0.175-1.043-0.117-0.19-0.311-0.286-0.581-0.286-0.252 0-0.459 0.081-0.623 0.244-0.163 0.164-0.245 0.409-0.245 0.735v5.235h-1.302v0.01zm11.998 0.16c-0.784 0-1.458-0.126-2.023-0.378s-1.02-0.588-1.365-1.008l0.938-0.841c0.317 0.346 0.674 0.609 1.071 0.791 0.396 0.183 0.866 0.272 1.407 0.272 0.495 0 0.894-0.084 1.197-0.252s0.455-0.43 0.455-0.783c0-0.149-0.028-0.275-0.084-0.378-0.056-0.104-0.135-0.188-0.238-0.253-0.103-0.064-0.222-0.116-0.357-0.153s-0.278-0.065-0.427-0.084l-1.148-0.183c-0.28-0.037-0.564-0.099-0.854-0.183-0.289-0.084-0.548-0.202-0.777-0.356-0.229-0.153-0.416-0.353-0.56-0.595-0.145-0.243-0.217-0.551-0.217-0.925 0-0.737 0.282-1.297 0.847-1.68 0.565-0.384 1.309-0.574 2.233-0.574 0.672 0 1.253 0.101 1.743 0.302 0.49 0.2 0.898 0.479 1.225 0.833l-0.854 0.896c-0.187-0.216-0.453-0.413-0.798-0.596s-0.803-0.272-1.372-0.272c-1.018 0-1.526 0.321-1.526 0.966 0 0.309 0.109 0.521 0.329 0.638 0.22 0.116 0.479 0.193 0.777 0.23l1.148 0.183c0.289 0.046 0.576 0.107 0.861 0.183 0.285 0.074 0.542 0.188 0.77 0.343 0.229 0.153 0.416 0.353 0.56 0.595 0.145 0.243 0.217 0.551 0.217 0.925 0 0.729-0.282 1.3-0.847 1.715-0.565 0.41-1.342 0.61-2.331 0.61z" fill-opacity=".6" fill="#1F2124"/>
					<path id="MCR_1_" d="m152.52 127.48l0.042-2.939h-0.112l-1.96 5.025-1.96-5.025h-0.112l0.042 2.939v4.677h-1.386v-9.771h1.918l1.498 3.878h0.098l1.512-3.878h1.806v9.771h-1.386v-4.68zm6.65 4.84c-1.242 0-2.163-0.438-2.765-1.315-0.602-0.878-0.903-2.124-0.903-3.738 0-1.613 0.301-2.859 0.903-3.737 0.602-0.877 1.523-1.315 2.765-1.315 0.476 0 0.889 0.063 1.239 0.188s0.651 0.299 0.903 0.519c0.252 0.219 0.464 0.477 0.637 0.771s0.315 0.608 0.427 0.944l-1.414 0.477c-0.075-0.225-0.159-0.435-0.252-0.63-0.093-0.196-0.21-0.364-0.35-0.505-0.14-0.14-0.306-0.252-0.497-0.336s-0.427-0.126-0.707-0.126c-0.691 0-1.195 0.265-1.512 0.791-0.317 0.527-0.476 1.239-0.476 2.136v1.651c0 0.896 0.159 1.607 0.476 2.135s0.821 0.791 1.512 0.791c0.28 0 0.516-0.042 0.707-0.126s0.357-0.195 0.497-0.336c0.14-0.14 0.256-0.308 0.35-0.504 0.094-0.195 0.178-0.405 0.252-0.63l1.414 0.477c-0.112 0.336-0.254 0.65-0.427 0.944s-0.385 0.552-0.637 0.771c-0.252 0.22-0.553 0.393-0.903 0.519-0.34 0.16-0.76 0.22-1.23 0.22zm6.65-0.17h-1.554v-9.771h3.654c0.933 0 1.645 0.261 2.135 0.784 0.49 0.521 0.735 1.241 0.735 2.155 0 0.747-0.182 1.362-0.546 1.849-0.364 0.485-0.887 0.783-1.568 0.896l2.254 4.088h-1.736l-2.072-3.947h-1.302v3.94zm1.87-5.21c0.971 0 1.456-0.443 1.456-1.33v-0.603c0-0.887-0.485-1.33-1.456-1.33h-1.876v3.263h1.88z" fill-opacity=".6" fill="#1F2124"/>
					<path id="Line-2" d="m127.5 110.66h64.984" stroke-opacity=".6" stroke="#1F2124" stroke-linecap="square" stroke-width="1.5371" fill="none"/>
				</g>
				<path id="Line-3" d="m528.18 140.04h-181.38v-1.537h181.38v-5.074l12 5.844-12 5.843v-5.07z" fill-opacity=".6" fill="#1F2124"/>
				<g id="Group-6" transform="translate(222 32)">
					<path id="_x3D_-MCR-_x25_" d="m0.53 106.58v-1.71h9.146v1.71h-9.146zm0 4.08v-1.71h9.146v1.71h-9.146zm53.471-3.44l0.058-4.034h-0.154l-2.69 6.897-2.69-6.897h-0.154l0.058 4.034v6.418h-1.902v-13.411h2.632l2.056 5.322h0.135l2.075-5.322h2.479v13.411h-1.902l-0.001-6.42zm9.127 6.64c-1.704 0-2.969-0.604-3.795-1.808s-1.239-2.914-1.239-5.13 0.413-3.926 1.239-5.13 2.091-1.806 3.795-1.806c0.653 0 1.22 0.086 1.7 0.259s0.894 0.41 1.239 0.711c0.346 0.302 0.637 0.653 0.874 1.057s0.433 0.836 0.586 1.298l-1.941 0.652c-0.103-0.307-0.218-0.595-0.346-0.864s-0.288-0.498-0.48-0.69-0.419-0.346-0.682-0.461c-0.262-0.115-0.586-0.173-0.97-0.173-0.948 0-1.64 0.36-2.075 1.085-0.436 0.724-0.653 1.7-0.653 2.931v2.267c0 1.229 0.218 2.206 0.653 2.931s1.127 1.086 2.075 1.086c0.384 0 0.708-0.059 0.97-0.173 0.263-0.115 0.49-0.27 0.682-0.461 0.192-0.192 0.353-0.423 0.48-0.691 0.128-0.27 0.243-0.558 0.346-0.865l1.941 0.653c-0.154 0.461-0.349 0.894-0.586 1.297s-0.528 0.756-0.874 1.057c-0.346 0.302-0.759 0.538-1.239 0.712-0.48 0.16-1.047 0.24-1.7 0.24zm9.126-0.23h-2.132v-13.411h5.015c1.281 0 2.257 0.358 2.93 1.076 0.672 0.717 1.008 1.703 1.008 2.959 0 1.024-0.25 1.87-0.749 2.536s-1.217 1.075-2.152 1.229l3.093 5.609h-2.382l-2.844-5.419h-1.787v5.41zm2.575-7.14c1.333 0 1.999-0.608 1.999-1.825v-0.826c0-1.217-0.666-1.825-1.999-1.825h-2.575v4.478l2.575 0.01zm19.943 0.46c-0.884 0-1.592-0.298-2.123-0.895-0.532-0.596-0.797-1.457-0.797-2.584s0.266-1.987 0.797-2.584c0.531-0.596 1.239-0.894 2.123-0.894s1.591 0.298 2.123 0.894c0.531 0.597 0.798 1.457 0.798 2.584s-0.268 1.988-0.798 2.584c-0.531 0.59-1.239 0.89-2.123 0.89zm0-1.31c0.422 0 0.749-0.149 0.979-0.45 0.231-0.302 0.346-0.722 0.346-1.26v-0.922c0-0.538-0.115-0.958-0.346-1.259-0.23-0.301-0.557-0.451-0.979-0.451-0.423 0-0.75 0.15-0.98 0.451s-0.346 0.721-0.346 1.259v0.922c0 0.538 0.115 0.958 0.346 1.26 0.231 0.3 0.558 0.45 0.98 0.45zm6.378-5.42h1.729l-3.019 5.765h-1.709l2.998-5.76zm-6.358 7.65h1.71l-2.997 5.765h-1.729l3.016-5.77zm5.091 5.99c-0.884 0-1.592-0.298-2.123-0.895-0.531-0.596-0.797-1.457-0.797-2.584 0-1.128 0.266-1.988 0.797-2.585 0.531-0.595 1.239-0.893 2.123-0.893 0.885 0 1.592 0.298 2.123 0.893 0.531 0.597 0.799 1.457 0.799 2.585 0 1.127-0.268 1.988-0.799 2.584-0.53 0.61-1.24 0.9-2.127 0.9zm0-1.3c0.424 0 0.75-0.149 0.98-0.45 0.229-0.303 0.346-0.722 0.346-1.26v-0.922c0-0.538-0.115-0.958-0.346-1.259s-0.559-0.452-0.98-0.452-0.749 0.151-0.979 0.452c-0.23 0.301-0.346 0.721-0.346 1.259v0.922c0 0.538 0.114 0.957 0.346 1.26 0.233 0.3 0.56 0.45 0.982 0.45z" fill-opacity=".6" fill="#1F2124"/>
					<g id="Group-2" transform="translate(17.4 .25611)">
						<g id="Group_2_" transform="translate(5.3798 .38427)">
								<linearGradient id="Path-2_1_" y2="1.1565" gradientUnits="userSpaceOnUse" x2="-362.26" gradientTransform="matrix(384.25 0 0 196.36 1.3958e5 -121.32)" y1="1.1565" x1="-363.26">
								<stop stop-color="#1EAB89" stop-opacity="0" offset="0"/>
								<stop stop-color="#1EAB89" stop-opacity=".2" offset="1"/>
							</linearGradient>
							<path id="Path-2" d="m0.384 185.41c53.971-0.946 92.27-2.1 114.9-3.458 32.719-1.967 62.06-3.735 86.076-8.263 116.82-24.465 177.66-79.8 182.53-166l0.749 191.34c0.012 2.762-2.219 5.01-4.979 5.021h-0.021-379.26v-18.64z" fill="url(#Path-2_1_)"/>
							<path id="Combined-Shape_1_" d="m0 184.03l147.18-4c152.17-13.962 230.82-73.894 235.94-179.79h1.153v14.945c-12.35 98.359-91.38 153.89-237.1 166.58l-147.17 4.38v-2.11z" fill="#1EAB89"/>
								<g id="Rectangle-2" transform="translate(146.78 180.21) rotate(45) translate(-146.78 -180.21)">
								<g filter="url(#filter-13)">
									<rect id="path-12_3_" y="175.6" x="142.17" height="9.223" width="9.223"/>
								</g>
									<rect id="path-12_1_" height="9.223" width="9.223" y="175.6" x="142.17" fill="#1EAB89"/>
							</g>
								<rect id="Rectangle-2_1_" transform="matrix(.7071 .7071 -.7071 .7071 170.42 -51.006)" height="4.879" width="4.879" y="177.78" x="144.34" fill="#58CD9E"/>
						</g>
						<g id="Oval_2_">
							<g filter="url(#filter-15)">
								<circle id="path-14_3_" cy="185.22" cx="5.38" r="5.38"/>
							</g>
								<circle id="path-14_1_" cy="185.22" cx="5.38" r="5.38" fill="#1EAB89"/>
						</g>
						<g id="Oval_3_">
							<g filter="url(#filter-17)">
								<circle id="path-16_3_" cy="5.38" cx="389.65" r="5.38"/>
							</g>
								<circle id="path-16_1_" cy="5.38" cx="389.65" r="5.38" fill="#1EAB89"/>
						</g>
						<circle id="Oval-2" cy="185.22" cx="5.38" r="3.074" fill="#58CD9E"/>
						<path id="Triangle_2_" d="m390.06 2.927l2.13 3.449c0.223 0.36 0.109 0.834-0.251 1.057-0.133 0.082-0.287 0.121-0.443 0.113l-3.978-0.207c-0.424-0.022-0.75-0.385-0.729-0.809 0.008-0.156 0.063-0.307 0.159-0.43l2.479-3.209c0.13-0.168 0.371-0.197 0.539-0.068 0.03 0.028 0.07 0.063 0.09 0.104z" fill="#58CD9E"/>
					</g>
				</g>
			</g>
			<g id="Graph-3:-Formula-" transform="translate(639 2847)">
				<g id="Group_4_" transform="translate(10)">
					<g id="Path_4_">
						<g filter="url(#filter-2)">
							<path id="path-1_5_" d="m-643.85-2847h624.71c2.843 0 5.146 2.239 5.146 5v179c0 2.763-2.304 5-5.146 5h-624.71c-2.842 0-5.146-2.237-5.146-5v-179c0-2.8 2.3-5 5.15-5z"/>
						</g>
							<path id="path-1_4_" d="m-643.85-2847h624.71c2.843 0 5.146 2.239 5.146 5v179c0 2.763-2.304 5-5.146 5h-624.71c-2.842 0-5.146-2.237-5.146-5v-179c0-2.8 2.3-5 5.15-5z" fill="#fff"/>
					</g>
						<g enable-background="new    ">
							<g fill="#1F2124">
								<path d="m-521.41-2747.6v-11.168h4.176c1.066 0 1.88 0.298 2.44 0.895s0.84 1.416 0.84 2.458c0 1.043-0.28 1.862-0.84 2.459-0.56 0.596-1.374 0.894-2.44 0.894h-2.384v4.464h-1.792v-0.1zm1.79-5.9h2.112c1.109 0 1.664-0.515 1.664-1.543v-0.691c0-1.017-0.555-1.525-1.664-1.525h-2.112v3.7z"/>
								<path d="m-511.94-2749h2.192v-5.408h-2.192v-1.424h3.94v2.191h0.096c0.074-0.287 0.181-0.564 0.32-0.832 0.139-0.266 0.314-0.498 0.528-0.695 0.213-0.197 0.474-0.357 0.784-0.48 0.31-0.122 0.672-0.184 1.088-0.184h0.992v1.664h-1.632c-0.64 0-1.163 0.188-1.568 0.565s-0.608 0.885-0.608 1.522v3.079h2.992v1.424h-6.928v-1.5z"/>
								<path d="m-501.94-2749h2.816v-5.408h-2.816v-1.424h4.56v6.832h2.64v1.424h-7.2v-1.4zm3.7-8.3c-0.448 0-0.76-0.091-0.936-0.272s-0.264-0.405-0.264-0.672v-0.336c0-0.267 0.088-0.49 0.264-0.672s0.482-0.272 0.92-0.272c0.448 0 0.76 0.091 0.936 0.272 0.176 0.182 0.264 0.405 0.264 0.672v0.336c0 0.268-0.088 0.491-0.264 0.672-0.18 0.2-0.48 0.3-0.92 0.3z"/>
								<path d="m-488.85-2747.4c-0.619 0-1.171-0.102-1.656-0.305-0.486-0.202-0.896-0.49-1.232-0.863-0.336-0.374-0.592-0.827-0.768-1.36s-0.264-1.131-0.264-1.792 0.088-1.259 0.264-1.792 0.432-0.986 0.768-1.36c0.336-0.373 0.747-0.661 1.232-0.863 0.485-0.203 1.032-0.305 1.64-0.305 0.854 0 1.539 0.18 2.056 0.538 0.517 0.359 0.904 0.825 1.16 1.398l-1.36 0.735c-0.149-0.384-0.376-0.688-0.68-0.912-0.304-0.225-0.696-0.336-1.176-0.336-0.662 0-1.173 0.202-1.536 0.604-0.362 0.402-0.544 0.938-0.544 1.603v1.383c0 0.654 0.182 1.186 0.544 1.594 0.363 0.407 0.885 0.61 1.568 0.61 0.512 0 0.93-0.117 1.256-0.352 0.325-0.234 0.584-0.555 0.776-0.96l1.28 0.784c-0.267 0.573-0.672 1.042-1.216 1.406-0.54 0.6-1.24 0.8-2.11 0.8z"/>
								<path d="m-479.38-2747.4c-0.629 0-1.195-0.102-1.696-0.305-0.501-0.202-0.922-0.49-1.264-0.863-0.342-0.374-0.603-0.824-0.784-1.353-0.182-0.528-0.272-1.122-0.272-1.784 0-0.661 0.093-1.258 0.28-1.792 0.186-0.533 0.448-0.989 0.784-1.368 0.336-0.378 0.744-0.669 1.224-0.871 0.48-0.203 1.013-0.305 1.6-0.305 0.576 0 1.098 0.099 1.568 0.296 0.469 0.198 0.869 0.478 1.2 0.841 0.33 0.362 0.584 0.794 0.76 1.296 0.176 0.501 0.264 1.056 0.264 1.664v0.655h-5.92v0.271c0 0.646 0.202 1.174 0.608 1.582 0.405 0.408 0.965 0.611 1.68 0.611 0.533 0 0.989-0.113 1.368-0.342 0.378-0.229 0.685-0.532 0.92-0.913l1.088 0.962c-0.277 0.48-0.701 0.889-1.272 1.22-0.57 0.4-1.28 0.5-2.14 0.5zm-0.12-7.3c-0.31 0-0.595 0.054-0.856 0.16-0.262 0.106-0.486 0.259-0.672 0.456s-0.333 0.43-0.44 0.696-0.16 0.56-0.16 0.88v0.111h4.144v-0.159c0-0.651-0.184-1.171-0.552-1.561-0.37-0.4-0.86-0.6-1.46-0.6z"/>
								<path d="m-464.16-2753.4v-1.424h7.616v1.424h-7.62zm0 3.3v-1.424h7.616v1.424h-7.62z"/>
							</g>
						</g>
						<g opacity=".6" enable-background="new    ">
							<g fill="#1F2124">
								<path d="m-422.11-2747.6l-0.848-2.992h-3.552l-0.848 2.992h-1.824l3.264-11.168h2.448l3.264 11.168h-1.9zm-2.56-9.3h-0.128l-1.376 4.896h2.88l-1.37-4.9z"/>
								<path d="m-406.29-2748.6v-3.184h-3.024v-1.424h3.024v-3.186h1.568v3.186h3.024v1.424h-3.024v3.184h-1.57z"/>
							</g>
						</g>
						<g enable-background="new    ">
							<g fill="#1F2124">
								<path opacity=".6" d="m-211.15-2748.6l3.071-4.191-2.943-4.063h2.031l1.088 1.567 0.865 1.248h0.096l0.849-1.248 1.088-1.567h1.889l-2.961 4 3.104 4.256h-2.049l-1.231-1.776-0.848-1.216h-0.097l-0.832 1.216-1.217 1.776h-1.903z"/>
								<path d="m-185.55-2753.9l0.048-3.36h-0.128l-2.24 5.744-2.239-5.744h-0.129l0.049 3.36v5.344h-1.584v-11.168h2.191l1.712 4.432h0.112l1.729-4.432h2.063v11.168h-1.584v-5.3z"/>
								<path d="m-177.95-2748.4c-1.42 0-2.473-0.502-3.16-1.504-0.688-1.003-1.031-2.427-1.031-4.272s0.344-3.27 1.031-4.272c0.688-1.002 1.74-1.504 3.16-1.504 0.543 0 1.017 0.071 1.416 0.214 0.399 0.144 0.743 0.338 1.031 0.586s0.531 0.539 0.729 0.874c0.198 0.335 0.359 0.694 0.488 1.078l-1.617 0.544c-0.085-0.256-0.182-0.495-0.287-0.72-0.106-0.225-0.239-0.416-0.399-0.576-0.16-0.159-0.351-0.288-0.568-0.384-0.218-0.096-0.487-0.145-0.808-0.145-0.79 0-1.366 0.302-1.729 0.907-0.362 0.604-0.545 1.421-0.545 2.449v1.895c0 1.028 0.183 1.845 0.545 2.449 0.361 0.605 0.938 0.907 1.729 0.907 0.318 0 0.589-0.048 0.808-0.145 0.22-0.096 0.408-0.225 0.568-0.384 0.16-0.16 0.293-0.353 0.399-0.576 0.105-0.225 0.202-0.464 0.287-0.72l1.617 0.544c-0.129 0.384-0.291 0.743-0.488 1.078-0.196 0.335-0.439 0.626-0.729 0.874s-0.632 0.443-1.031 0.586c-0.4 0.2-0.88 0.3-1.42 0.3z"/>
								<path d="m-170.35-2748.6h-1.776v-11.168h4.176c1.066 0 1.88 0.298 2.44 0.895s0.84 1.416 0.84 2.459c0 0.852-0.209 1.554-0.625 2.106-0.416 0.553-1.013 0.896-1.791 1.021l2.576 4.687h-1.984l-2.368-4.528h-1.486v4.5zm2.14-5.9c1.108 0 1.664-0.509 1.664-1.526v-0.691c0-1.017-0.556-1.526-1.664-1.526h-2.144v3.744h2.144z"/>
								<path d="m-161.18-2753.4h1.424l-2.495 4.8h-1.441l2.52-4.8zm-0.02-0.7c-0.734 0-1.324-0.248-1.768-0.743-0.442-0.496-0.664-1.214-0.664-2.152s0.222-1.656 0.664-2.152 1.032-0.744 1.768-0.744c0.736 0 1.326 0.248 1.77 0.744 0.442 0.496 0.664 1.214 0.664 2.152s-0.223 1.656-0.664 2.152c-0.44 0.4-1.03 0.7-1.77 0.7zm0-1.1c0.354 0 0.625-0.125 0.816-0.376 0.191-0.25 0.288-0.6 0.288-1.048v-0.768c0-0.448-0.097-0.798-0.288-1.049-0.191-0.25-0.464-0.376-0.816-0.376s-0.623 0.126-0.814 0.376c-0.192 0.251-0.288 0.601-0.288 1.049v0.768c0 0.448 0.096 0.798 0.288 1.048 0.19 0.2 0.46 0.4 0.81 0.4zm4.26 6.8c-0.735 0-1.324-0.248-1.769-0.744-0.442-0.496-0.664-1.214-0.664-2.152s0.222-1.656 0.664-2.152c0.443-0.495 1.032-0.743 1.769-0.743 0.735 0 1.325 0.248 1.769 0.743 0.441 0.496 0.664 1.214 0.664 2.152s-0.223 1.656-0.664 2.152c-0.45 0.5-1.04 0.7-1.77 0.7zm1.05-11.3h1.438l-2.512 4.8h-1.424l2.49-4.8zm-1.05 10.2c0.353 0 0.624-0.125 0.815-0.376 0.192-0.25 0.289-0.601 0.289-1.048v-0.768c0-0.448-0.097-0.797-0.289-1.048-0.191-0.251-0.464-0.376-0.815-0.376-0.353 0-0.624 0.125-0.815 0.376-0.192 0.251-0.288 0.6-0.288 1.048v0.768c0 0.448 0.096 0.798 0.288 1.048 0.19 0.3 0.46 0.4 0.82 0.4z"/>
							</g>
						</g>
						<g opacity=".6" enable-background="new    ">
								<path d="m-305.5-2728.4c-1.42 0-2.473-0.502-3.16-1.504-0.688-1.003-1.031-2.427-1.031-4.272s0.344-3.27 1.031-4.272c0.688-1.002 1.74-1.504 3.16-1.504 0.543 0 1.016 0.071 1.416 0.214 0.398 0.144 0.743 0.338 1.031 0.586 0.287 0.248 0.531 0.539 0.729 0.874s0.359 0.694 0.488 1.078l-1.617 0.544c-0.085-0.256-0.182-0.495-0.287-0.72-0.106-0.225-0.24-0.416-0.399-0.576-0.16-0.159-0.351-0.288-0.568-0.384-0.218-0.096-0.487-0.145-0.808-0.145-0.79 0-1.366 0.302-1.729 0.907-0.363 0.604-0.545 1.421-0.545 2.449v1.895c0 1.028 0.182 1.845 0.545 2.449 0.361 0.605 0.938 0.907 1.729 0.907 0.318 0 0.589-0.048 0.808-0.145 0.22-0.096 0.408-0.225 0.568-0.384 0.159-0.16 0.293-0.353 0.399-0.576 0.105-0.225 0.202-0.464 0.287-0.72l1.617 0.544c-0.129 0.384-0.291 0.743-0.488 1.078s-0.439 0.626-0.729 0.874-0.633 0.443-1.031 0.586c-0.39 0.2-0.86 0.3-1.41 0.3z" fill="#1F2124"/>
						</g>
						<path id="Line-2_2_" d="m-355.82-2753.1h100" stroke-opacity=".6" stroke="#1F2124" stroke-linecap="square" stroke-width="2" fill="none"/>
						<g enable-background="new    ">
								<path d="m-143.58-2760.6v-1.904h-4.646v-1.344l4.088-6.523h2.058v6.622h1.373v1.246h-1.373v1.904h-1.5zm-3.32-3.1h3.317v-5.18h-0.084l-3.24 5.2z" fill="#1F2124"/>
						</g>
						<g opacity=".6">
							<g enable-background="new    ">
								<g fill="#1F2124">
									<path d="m-326.17-2771.9l0.049-3.36h-0.129l-2.24 5.744-2.239-5.744h-0.128l0.048 3.36v5.344h-1.584v-11.168h2.192l1.711 4.432h0.113l1.729-4.432h2.063v11.168h-1.584v-5.3z"/>
									<path d="m-318.57-2766.4c-1.418 0-2.472-0.502-3.16-1.504-0.688-1.003-1.031-2.427-1.031-4.272s0.345-3.27 1.031-4.272c0.688-1.002 1.742-1.504 3.16-1.504 0.545 0 1.018 0.071 1.416 0.214 0.4 0.144 0.744 0.338 1.032 0.586s0.53 0.539 0.728 0.874c0.198 0.335 0.36 0.694 0.488 1.078l-1.615 0.544c-0.086-0.256-0.182-0.495-0.289-0.72-0.104-0.225-0.238-0.416-0.398-0.576-0.16-0.159-0.35-0.288-0.566-0.384-0.22-0.096-0.488-0.145-0.81-0.145-0.789 0-1.365 0.302-1.729 0.907-0.361 0.604-0.543 1.421-0.543 2.449v1.895c0 1.028 0.182 1.845 0.543 2.449 0.363 0.605 0.939 0.907 1.729 0.907 0.319 0 0.59-0.048 0.81-0.145 0.217-0.096 0.406-0.225 0.566-0.384 0.16-0.16 0.294-0.353 0.398-0.576 0.107-0.225 0.203-0.464 0.289-0.72l1.615 0.544c-0.128 0.384-0.291 0.743-0.488 1.078-0.196 0.335-0.438 0.626-0.728 0.874s-0.632 0.443-1.032 0.586c-0.41 0.2-0.88 0.3-1.42 0.3z"/>
									<path d="m-310.97-2766.6h-1.775v-11.168h4.176c1.066 0 1.881 0.298 2.44 0.895 0.56 0.597 0.84 1.416 0.84 2.459 0 0.852-0.208 1.554-0.624 2.106-0.416 0.553-1.014 0.896-1.792 1.021l2.576 4.687h-1.983l-2.369-4.528h-1.486v4.528h-0.02zm2.14-5.9c1.109 0 1.664-0.509 1.664-1.526v-0.691c0-1.017-0.555-1.526-1.664-1.526h-2.145v3.744h2.145z"/>
								</g>
							</g>
							<g enable-background="new    ">
								<g fill="#1F2124">
									<path d="m-302.34-2760.6v-9.771h6.117v1.315h-4.549v2.842h4.381v1.316h-4.381v2.981h4.549v1.316l-6.12 0.1z"/>
									<path d="m-290.16-2769v8.456h-1.568v-8.456h-3.064v-1.315h7.7v1.315h-3.07z"/>
									<path d="m-280.92-2764.9h-3.248v4.298h-1.568v-9.771h1.568v4.158h3.248v-4.158h1.568v9.771h-1.568v-4.3z"/>
								</g>
							</g>
						</g>
						<path id="Path-3_6_" d="m-374.97-2780.6s-7.936 14.181-7.936 27.5c0 14.156 7.936 27.5 7.936 27.5" stroke-opacity=".6" stroke="#1F2124" stroke-width="2" fill="none"/>
						<path id="Path-3_2_" d="m-236.66-2780.6s7.937 14.181 7.937 27.5c0 14.156-7.937 27.5-7.937 27.5" stroke-opacity=".6" stroke="#1F2124" stroke-width="2" fill="none"/>
				</g>
			</g>
		</g>
	</g>
</g>
</svg>
