<?xml version="1.0" encoding="UTF-8" standalone="no"?>
<!-- Generator: Adobe Illustrator 16.0.0, SVG Export Plug-In . SVG Version: 6.00 Build 0)  -->
<!DOCTYPE svg  PUBLIC '-//W3C//DTD SVG 1.1//EN'  'http://www.w3.org/Graphics/SVG/1.1/DTD/svg11.dtd'>
<svg id="Layer_1" xmlns="http://www.w3.org/2000/svg" xml:space="preserve" height="190px" viewBox="0 0 580 190" width="580px" version="1.1" y="0px" x="0px" xmlns:xlink="http://www.w3.org/1999/xlink" enable-background="new 0 0 580 190">
<filter id="filter-2" height="143.9%" width="113.5%" y="-17.7%" x="-5.9%" filterUnits="objectBoundingBox">
	<feOffset dy="6" result="shadowOffsetOuter1" dx="4" in="SourceAlpha"/>
	<feGaussianBlur stdDeviation="11.5" result="shadowBlurOuter1" in="shadowOffsetOuter1"/>
		<feColorMatrix values="0 0 0 0 0.792156863   0 0 0 0 0.823529412   0 0 0 0 0.878431373  0 0 0 0.7 0" type="matrix" result="shadowMatrixOuter1" in="shadowBlurOuter1">
		</feColorMatrix>
	<feOffset dy="2" result="shadowOffsetOuter2" dx="1" in="SourceAlpha"/>
	<feGaussianBlur stdDeviation="2" result="shadowBlurOuter2" in="shadowOffsetOuter2"/>
		<feColorMatrix values="0 0 0 0 0.784313725   0 0 0 0 0.823529412   0 0 0 0 0.882352941  0 0 0 1 0" type="matrix" result="shadowMatrixOuter2" in="shadowBlurOuter2">
		</feColorMatrix>
	<feMerge>
		<feMergeNode in="shadowMatrixOuter1"/>
		<feMergeNode in="shadowMatrixOuter2"/>
	</feMerge>
</filter>
<g id="Page-1">
	<g id="Token-Model-Page" transform="translate(-630 -2830)">
		<g id="Graph-3:-Formula-" transform="translate(639 2847)">
			<g id="Group" transform="translate(10)">
				<g id="Path">
					<g filter="url(#filter-2)">
						<path id="path-1_3_" d="m3.245 1.167h535.51c2.438 0 4.411 1.82 4.411 4.065v145.54c0 2.246-1.975 4.063-4.411 4.063h-535.52c-2.436 0-4.411-1.817-4.411-4.063v-145.54c0.005-2.243 1.98-4.063 4.416-4.063z"/>
					</g>
						<path id="path-1_1_" d="m3.245 1.167h535.51c2.438 0 4.411 1.82 4.411 4.065v145.54c0 2.246-1.975 4.063-4.411 4.063h-535.52c-2.436 0-4.411-1.817-4.411-4.063v-145.54c0.005-2.243 1.98-4.063 4.416-4.063z" fill="#fff"/>
				</g>
					<g opacity=".6" enable-background="new    ">
						<g fill="#1F2124">
							<path d="m81.093 82.928v-11.168h4.176c1.066 0 1.88 0.299 2.44 0.895 0.56 0.597 0.84 1.416 0.84 2.457 0 1.043-0.28 1.863-0.84 2.459-0.56 0.597-1.374 0.895-2.44 0.895h-2.384v4.464h-1.792v-0.002zm1.792-5.935h2.112c1.109 0 1.664-0.516 1.664-1.543v-0.691c0-1.017-0.555-1.525-1.664-1.525h-2.112v3.759z"/>
							<path d="m90.564 81.504h2.192v-5.408h-2.192v-1.424h3.936v2.191h0.096c0.074-0.287 0.181-0.564 0.32-0.832 0.139-0.266 0.314-0.498 0.528-0.695 0.213-0.197 0.474-0.357 0.784-0.48 0.31-0.121 0.672-0.184 1.088-0.184h0.992v1.664h-1.632c-0.64 0-1.163 0.188-1.568 0.566-0.405 0.377-0.608 0.885-0.608 1.521v3.08h2.992v1.424h-6.928v-1.423z"/>
							<path d="m100.56 81.504h2.816v-5.408h-2.816v-1.424h4.56v6.832h2.64v1.424h-7.2v-1.424zm3.7-8.336c-0.448 0-0.76-0.091-0.936-0.271-0.176-0.182-0.264-0.405-0.264-0.672v-0.336c0-0.268 0.088-0.49 0.264-0.673 0.176-0.182 0.482-0.272 0.92-0.272 0.448 0 0.76 0.092 0.936 0.272 0.176 0.183 0.264 0.405 0.264 0.673v0.336c0 0.267-0.088 0.49-0.264 0.672-0.18 0.181-0.48 0.271-0.92 0.271z"/>
							<path d="m113.65 83.121c-0.619 0-1.171-0.104-1.656-0.307-0.486-0.201-0.896-0.488-1.232-0.861-0.336-0.375-0.592-0.828-0.768-1.361s-0.264-1.131-0.264-1.791c0-0.662 0.088-1.259 0.264-1.792s0.432-0.986 0.768-1.359 0.747-0.662 1.232-0.863c0.485-0.203 1.032-0.305 1.64-0.305 0.854 0 1.539 0.18 2.056 0.537 0.517 0.359 0.904 0.825 1.16 1.398l-1.36 0.734c-0.149-0.383-0.376-0.688-0.68-0.911s-0.696-0.337-1.176-0.337c-0.662 0-1.173 0.203-1.536 0.604-0.362 0.402-0.544 0.937-0.544 1.603v1.382c0 0.654 0.182 1.186 0.544 1.594 0.363 0.408 0.885 0.609 1.568 0.609 0.512 0 0.93-0.115 1.256-0.354 0.325-0.232 0.584-0.555 0.776-0.959l1.28 0.783c-0.267 0.574-0.672 1.043-1.216 1.406s-1.24 0.55-2.11 0.55z"/>
							<path d="m123.12 83.121c-0.629 0-1.195-0.104-1.696-0.307-0.501-0.201-0.922-0.488-1.264-0.861-0.342-0.375-0.603-0.824-0.784-1.354-0.182-0.529-0.272-1.123-0.272-1.785s0.093-1.257 0.28-1.792c0.186-0.533 0.448-0.989 0.784-1.368 0.336-0.378 0.744-0.669 1.224-0.871 0.48-0.203 1.013-0.306 1.6-0.306 0.576 0 1.098 0.1 1.568 0.297 0.469 0.197 0.869 0.478 1.2 0.841 0.33 0.362 0.584 0.794 0.76 1.296 0.176 0.501 0.264 1.056 0.264 1.664v0.653h-5.92v0.272c0 0.646 0.202 1.174 0.608 1.582 0.405 0.408 0.965 0.609 1.68 0.609 0.533 0 0.989-0.111 1.368-0.342 0.378-0.229 0.685-0.533 0.92-0.914l1.088 0.963c-0.277 0.48-0.701 0.891-1.272 1.223-0.57 0.334-1.28 0.5-2.14 0.5zm-0.12-7.312c-0.31 0-0.595 0.053-0.856 0.159-0.262 0.106-0.486 0.259-0.672 0.456s-0.333 0.43-0.44 0.696-0.16 0.56-0.16 0.88v0.111h4.144v-0.159c0-0.651-0.184-1.171-0.552-1.562-0.37-0.387-0.86-0.581-1.46-0.581z"/>
							<path d="m138.34 77.057v-1.425h7.616v1.425h-7.62zm0 3.39v-1.424h7.616v1.424h-7.62z"/>
						</g>
					</g>
					<g opacity=".6" enable-background="new    ">
						<g fill="#1F2124">
							<path d="m180.39 82.928l-0.848-2.992h-3.552l-0.848 2.992h-1.824l3.264-11.167h2.448l3.264 11.167h-1.9zm-2.56-9.361h-0.128l-1.376 4.896h2.88l-1.37-4.896z"/>
							<path d="m196.21 81.936v-3.184h-3.024v-1.423h3.024v-3.186h1.568v3.186h3.024v1.423h-3.024v3.184h-1.57z"/>
						</g>
					</g>
					<g opacity=".6" enable-background="new    ">
						<g fill="#1F2124">
							<path d="m391.35 81.928l3.071-4.191-2.941-4.063h2.029l1.088 1.567 0.865 1.248h0.096l0.851-1.248 1.088-1.567h1.889l-2.961 4 3.104 4.256h-2.048l-1.232-1.777-0.848-1.215h-0.099l-0.832 1.215-1.217 1.777h-1.901v-0.002z"/>
							<path d="m416.95 76.584l0.049-3.359h-0.129l-2.24 5.744-2.239-5.744h-0.128l0.048 3.359v5.343h-1.584v-11.167h2.192l1.711 4.432h0.113l1.728-4.432h2.063v11.167h-1.584v-5.343z"/>
							<path d="m424.55 82.121c-1.418 0-2.472-0.502-3.16-1.504-0.688-1.004-1.028-2.427-1.028-4.273 0-1.845 0.344-3.27 1.028-4.271 0.688-1.002 1.742-1.504 3.16-1.504 0.545 0 1.02 0.07 1.416 0.214 0.4 0.143 0.744 0.338 1.032 0.586s0.53 0.539 0.728 0.874c0.198 0.335 0.36 0.693 0.488 1.078l-1.615 0.544c-0.086-0.257-0.182-0.495-0.289-0.72-0.104-0.225-0.236-0.416-0.396-0.576-0.16-0.159-0.353-0.289-0.567-0.385-0.219-0.096-0.485-0.144-0.809-0.144-0.789 0-1.365 0.302-1.729 0.907-0.359 0.604-0.543 1.421-0.543 2.449v1.895c0 1.027 0.184 1.845 0.543 2.449 0.363 0.605 0.939 0.906 1.729 0.906 0.32 0 0.59-0.047 0.809-0.145 0.22-0.096 0.407-0.229 0.567-0.385 0.16-0.16 0.294-0.354 0.396-0.576 0.107-0.227 0.203-0.463 0.289-0.719l1.615 0.543c-0.128 0.385-0.291 0.74-0.488 1.076-0.194 0.334-0.438 0.625-0.728 0.873s-0.632 0.443-1.032 0.586c-0.41 0.15-0.88 0.222-1.42 0.222z"/>
							<path d="m432.15 81.928h-1.775v-11.168h4.176c1.066 0 1.88 0.299 2.439 0.895 0.561 0.597 0.84 1.416 0.84 2.459 0 0.852-0.207 1.554-0.623 2.107s-1.014 0.895-1.793 1.021l2.576 4.686h-1.983l-2.368-4.527h-1.485l-0.03 4.527zm2.14-5.951c1.109 0 1.664-0.51 1.664-1.526v-0.691c0-1.017-0.555-1.526-1.664-1.526h-2.145v3.744l2.15-0.001z"/>
							<path d="m441.32 77.128h1.424l-2.496 4.799h-1.439l2.52-4.799zm-0.02-0.768c-0.733 0-1.326-0.248-1.769-0.743-0.442-0.496-0.663-1.214-0.663-2.152s0.221-1.655 0.663-2.151c0.439-0.496 1.032-0.744 1.769-0.744s1.324 0.248 1.771 0.744c0.439 0.496 0.664 1.213 0.664 2.151s-0.225 1.656-0.664 2.152c-0.45 0.495-1.03 0.743-1.77 0.743zm0-1.088c0.354 0 0.623-0.125 0.815-0.377 0.189-0.25 0.288-0.6 0.288-1.047v-0.768c0-0.448-0.099-0.798-0.288-1.049-0.192-0.25-0.464-0.377-0.815-0.377-0.353 0-0.625 0.127-0.813 0.377-0.191 0.251-0.288 0.601-0.288 1.049v0.768c0 0.448 0.097 0.799 0.288 1.049 0.19 0.25 0.46 0.375 0.81 0.375zm4.26 6.849c-0.733 0-1.323-0.248-1.768-0.744s-0.664-1.215-0.664-2.152c0-0.937 0.221-1.656 0.664-2.15 0.441-0.495 1.031-0.743 1.768-0.743s1.325 0.248 1.771 0.743c0.44 0.496 0.664 1.214 0.664 2.15 0 0.938-0.224 1.656-0.664 2.152-0.45 0.496-1.04 0.744-1.77 0.744zm1.05-11.361h1.438l-2.512 4.801h-1.425l2.49-4.801zm-1.05 10.271c0.354 0 0.623-0.125 0.816-0.377 0.191-0.25 0.287-0.6 0.287-1.047v-0.767c0-0.447-0.096-0.796-0.287-1.047-0.193-0.251-0.465-0.376-0.816-0.376s-0.624 0.125-0.813 0.376c-0.191 0.251-0.287 0.601-0.287 1.047v0.768c0 0.449 0.096 0.801 0.287 1.051 0.18 0.248 0.45 0.372 0.81 0.372z"/>
						</g>
					</g>
					<g opacity=".6" enable-background="new    ">
							<path d="m297 102.12c-1.419 0-2.472-0.502-3.16-1.504-0.688-1.004-1.032-2.428-1.032-4.273 0-1.844 0.344-3.27 1.032-4.271s1.741-1.505 3.16-1.505c0.544 0 1.017 0.07 1.416 0.216 0.399 0.143 0.744 0.338 1.032 0.586s0.531 0.539 0.729 0.873c0.196 0.336 0.359 0.692 0.487 1.077l-1.616 0.546c-0.085-0.259-0.182-0.496-0.287-0.722-0.104-0.226-0.24-0.416-0.398-0.576-0.16-0.157-0.352-0.289-0.568-0.385-0.217-0.097-0.486-0.144-0.811-0.144-0.787 0-1.363 0.301-1.728 0.905-0.362 0.604-0.544 1.423-0.544 2.449v1.896c0 1.026 0.182 1.846 0.544 2.449 0.362 0.604 0.938 0.905 1.728 0.905 0.32 0 0.592-0.047 0.811-0.144 0.221-0.097 0.408-0.228 0.568-0.385 0.158-0.16 0.293-0.354 0.398-0.576 0.105-0.226 0.202-0.463 0.287-0.72l1.616 0.544c-0.128 0.385-0.291 0.741-0.487 1.077-0.197 0.334-0.441 0.625-0.729 0.873s-0.633 0.442-1.032 0.586c-0.4 0.15-0.87 0.22-1.42 0.22z" fill="#1F2124"/>
					</g>
					<path id="Line-2" d="m246.68 77.428h100" stroke-opacity=".6" stroke="#1F2124" stroke-linecap="square" stroke-width="2" fill="none"/>
					<g opacity=".6" enable-background="new    ">
							<path d="m458.92 69.928v-1.904h-4.646v-1.344l4.088-6.523h2.058v6.621h1.373v1.246h-1.373v1.904h-1.5zm-3.32-3.15h3.317v-5.18h-0.084l-3.24 5.18z" fill="#1F2124"/>
					</g>
						<g enable-background="new    ">
							<g fill="#1F2124">
								<path d="m276.33 58.584l0.048-3.36h-0.128l-2.24 5.744-2.239-5.744h-0.129l0.049 3.36v5.344h-1.583v-11.168h2.192l1.713 4.432h0.111l1.729-4.432h2.063v11.168h-1.584v-5.344z"/>
								<path d="m283.93 64.121c-1.419 0-2.472-0.502-3.16-1.504-0.688-1.003-1.031-2.427-1.031-4.272s0.346-3.27 1.031-4.272c0.688-1.002 1.741-1.504 3.16-1.504 0.545 0 1.016 0.071 1.416 0.214s0.744 0.338 1.032 0.586 0.531 0.539 0.728 0.874c0.197 0.335 0.36 0.694 0.488 1.078l-1.615 0.544c-0.086-0.256-0.183-0.495-0.289-0.72-0.104-0.224-0.237-0.416-0.397-0.576-0.16-0.159-0.353-0.288-0.565-0.384-0.222-0.096-0.488-0.144-0.811-0.144-0.79 0-1.366 0.302-1.729 0.907-0.362 0.604-0.543 1.421-0.543 2.449v1.895c0 1.028 0.181 1.845 0.543 2.449 0.361 0.605 0.938 0.906 1.729 0.906 0.318 0 0.589-0.047 0.811-0.144 0.217-0.096 0.405-0.226 0.565-0.384 0.16-0.16 0.293-0.353 0.397-0.576 0.106-0.225 0.203-0.464 0.289-0.72l1.615 0.544c-0.128 0.384-0.291 0.742-0.488 1.078-0.195 0.334-0.438 0.625-0.728 0.873s-0.632 0.443-1.032 0.586c-0.39 0.144-0.86 0.217-1.4 0.217z"/>
								<path d="m291.53 63.928h-1.775v-11.168h4.176c1.066 0 1.881 0.298 2.44 0.894 0.56 0.597 0.84 1.416 0.84 2.459 0 0.852-0.208 1.554-0.624 2.107s-1.014 0.895-1.792 1.021l2.576 4.687h-1.984l-2.368-4.528h-1.488v4.528h-0.02zm2.14-5.951c1.109 0 1.664-0.509 1.664-1.526v-0.691c0-1.017-0.555-1.526-1.664-1.526h-2.145v3.744l2.15-0.001z"/>
							</g>
						</g>
						<g enable-background="new    ">
							<g fill="#1F2124">
								<path d="m300.16 69.928v-9.771h6.117v1.316h-4.549v2.842h4.381v1.315h-4.381v2.981h4.549v1.315l-6.12 0.002z"/>
								<path d="m312.34 61.473v8.456h-1.568v-8.456h-3.063v-1.316h7.7v1.316h-3.07z"/>
								<path d="m321.58 65.63h-3.248v4.298h-1.568v-9.771h1.568v4.158h3.248v-4.158h1.568v9.771h-1.568v-4.298z"/>
							</g>
						</g>
					<path id="Path-3" d="m227.53 49.929s-7.936 14.181-7.936 27.5c0 14.156 7.936 27.5 7.936 27.5" stroke-opacity=".6" stroke="#1F2124" stroke-width="2" fill="none"/>
					<path id="Path-3_1_" d="m365.84 49.929s7.936 14.181 7.936 27.5c0 14.156-7.936 27.5-7.936 27.5" stroke-opacity=".6" stroke="#1F2124" stroke-width="2" fill="none"/>
			</g>
		</g>
	</g>
</g>
</svg>
