<?xml version="1.0" encoding="UTF-8"?>
<svg width="663px" height="235px" viewBox="0 0 663 235" version="1.1" xmlns="http://www.w3.org/2000/svg" xmlns:xlink="http://www.w3.org/1999/xlink">
    <!-- Generator: Sketch 51.2 (57519) - http://www.bohemiancoding.com/sketch -->
    <title>Graph 3: Formula </title>
    <desc>Created with Sketch.</desc>
    <defs>
        <rect id="path-1" x="0" y="0" width="617" height="189" rx="5"></rect>
        <filter x="-5.9%" y="-17.7%" width="113.5%" height="143.9%" filterUnits="objectBoundingBox" id="filter-2">
            <feOffset dx="4" dy="6" in="SourceAlpha" result="shadowOffsetOuter1"></feOffset>
            <feGaussianBlur stdDeviation="11.5" in="shadowOffsetOuter1" result="shadowBlurOuter1"></feGaussianBlur>
            <feColorMatrix values="0 0 0 0 0.792156863   0 0 0 0 0.823529412   0 0 0 0 0.878431373  0 0 0 0.7 0" type="matrix" in="shadowBlurOuter1" result="shadowMatrixOuter1"></feColorMatrix>
            <feOffset dx="1" dy="2" in="SourceAlpha" result="shadowOffsetOuter2"></feOffset>
            <feGaussianBlur stdDeviation="2" in="shadowOffsetOuter2" result="shadowBlurOuter2"></feGaussianBlur>
            <feColorMatrix values="0 0 0 0 0.784313725   0 0 0 0 0.823529412   0 0 0 0 0.882352941  0 0 0 1 0" type="matrix" in="shadowBlurOuter2" result="shadowMatrixOuter2"></feColorMatrix>
            <feMerge>
                <feMergeNode in="shadowMatrixOuter1"></feMergeNode>
                <feMergeNode in="shadowMatrixOuter2"></feMergeNode>
            </feMerge>
        </filter>
    </defs>
    <g id="Page-2" stroke="none" stroke-width="1" fill="none" fill-rule="evenodd">
        <g id="Token-Model-Page---Outline-Text-for-svg-output" transform="translate(-630.000000, -2830.000000)">
            <g id="Graph-3:-Formula-" transform="translate(639.000000, 2847.000000)">
                <g id="Group" transform="translate(10.000000, 0.000000)">
                    <g id="Path">
                        <use fill="black" fill-opacity="1" filter="url(#filter-2)" xlink:href="#path-1"></use>
                        <use fill="#FFFFFF" fill-rule="evenodd" xlink:href="#path-1"></use>
                    </g>
                    <path d="M49.9501093,103 L49.9501093,91.832 L54.1261093,91.832 C55.1927813,91.832 56.0061065,92.1306637 56.5661093,92.728 C57.1261121,93.3253363 57.4061093,94.1466614 57.4061093,95.192 C57.4061093,96.2373386 57.1261121,97.0586637 56.5661093,97.656 C56.0061065,98.2533363 55.1927813,98.552 54.1261093,98.552 L51.7421093,98.552 L51.7421093,103 L49.9501093,103 Z M51.7421093,97.064 L53.8541093,97.064 C54.9634482,97.064 55.5181093,96.5520051 55.5181093,95.528 L55.5181093,94.84 C55.5181093,93.8266616 54.9634482,93.32 53.8541093,93.32 L51.7421093,93.32 L51.7421093,97.064 Z M59.4221093,101.592 L61.6141093,101.592 L61.6141093,96.152 L59.4221093,96.152 L59.4221093,94.744 L63.3581093,94.744 L63.3581093,96.936 L63.4541093,96.936 C63.5287764,96.6479986 63.635442,96.370668 63.7741093,96.104 C63.9127767,95.837332 64.0887749,95.6053343 64.3021093,95.408 C64.5154437,95.2106657 64.7767744,95.0506673 65.0861093,94.928 C65.3954442,94.8053327 65.7581072,94.744 66.1741093,94.744 L67.1661093,94.744 L67.1661093,96.408 L65.5341093,96.408 C64.8941061,96.408 64.3714447,96.5973314 63.9661093,96.976 C63.560774,97.3546686 63.3581093,97.8639968 63.3581093,98.504 L63.3581093,101.592 L66.3501093,101.592 L66.3501093,103 L59.4221093,103 L59.4221093,101.592 Z M73.1181093,93.24 C72.6701071,93.24 72.3581102,93.1493342 72.1821093,92.968 C72.0061084,92.7866658 71.9181093,92.562668 71.9181093,92.296 L71.9181093,91.96 C71.9181093,91.693332 72.0061084,91.4693342 72.1821093,91.288 C72.3581102,91.1066658 72.6647738,91.016 73.1021093,91.016 C73.5501116,91.016 73.8621084,91.1066658 74.0381093,91.288 C74.2141102,91.4693342 74.3021093,91.693332 74.3021093,91.96 L74.3021093,92.296 C74.3021093,92.562668 74.2141102,92.7866658 74.0381093,92.968 C73.8621084,93.1493342 73.5554448,93.24 73.1181093,93.24 Z M69.4221093,101.592 L72.2381093,101.592 L72.2381093,96.152 L69.4221093,96.152 L69.4221093,94.744 L73.9821093,94.744 L73.9821093,101.592 L76.6221093,101.592 L76.6221093,103 L69.4221093,103 L69.4221093,101.592 Z M82.5101093,103.192 C81.8914396,103.192 81.3394451,103.090668 80.8541093,102.888 C80.3687736,102.685332 79.958111,102.397335 79.6221093,102.024 C79.2861076,101.650665 79.0301102,101.197336 78.8541093,100.664 C78.6781084,100.130664 78.5901093,99.5333366 78.5901093,98.872 C78.5901093,98.2106634 78.6781084,97.613336 78.8541093,97.08 C79.0301102,96.546664 79.2861076,96.0933352 79.6221093,95.72 C79.958111,95.3466648 80.3687736,95.0586677 80.8541093,94.856 C81.3394451,94.6533323 81.8861063,94.552 82.4941093,94.552 C83.3474469,94.552 84.0327734,94.7333315 84.5501093,95.096 C85.0674452,95.4586685 85.454108,95.9279971 85.7101093,96.504 L84.3501093,97.24 C84.2007752,96.8559981 83.9741108,96.5520011 83.6701093,96.328 C83.3661078,96.1039989 82.9741117,95.992 82.4941093,95.992 C81.8327727,95.992 81.3207778,96.191998 80.9581093,96.592 C80.5954408,96.992002 80.4141093,97.5226634 80.4141093,98.184 L80.4141093,99.56 C80.4141093,100.21067 80.5954408,100.738665 80.9581093,101.144 C81.3207778,101.549335 81.8434392,101.752 82.5261093,101.752 C83.0381119,101.752 83.4567744,101.634668 83.7821093,101.4 C84.1074443,101.165332 84.3661084,100.845335 84.5581093,100.44 L85.8381093,101.224 C85.5714413,101.800003 85.166112,102.271998 84.6221093,102.64 C84.0781066,103.008002 83.3741136,103.192 82.5101093,103.192 Z M91.9821093,103.192 C91.3527728,103.192 90.7874452,103.090668 90.2861093,102.888 C89.7847735,102.685332 89.3634444,102.397335 89.0221093,102.024 C88.6807743,101.650665 88.4194436,101.200003 88.2381093,100.672 C88.0567751,100.143997 87.9661093,99.5493366 87.9661093,98.888 C87.9661093,98.2266634 88.0594417,97.629336 88.2461093,97.096 C88.4327769,96.562664 88.6941076,96.1066686 89.0301093,95.728 C89.366111,95.3493314 89.7741069,95.0586677 90.2541093,94.856 C90.7341117,94.6533323 91.2674397,94.552 91.8541093,94.552 C92.4301122,94.552 92.9527736,94.6506657 93.4221093,94.848 C93.891445,95.0453343 94.291441,95.3253315 94.6221093,95.688 C94.9527776,96.0506685 95.2061084,96.4826642 95.3821093,96.984 C95.5581102,97.4853358 95.6461093,98.039997 95.6461093,98.648 L95.6461093,99.304 L89.7261093,99.304 L89.7261093,99.576 C89.7261093,100.22667 89.928774,100.757331 90.3341093,101.168 C90.7394447,101.578669 91.2994391,101.784 92.0141093,101.784 C92.5474453,101.784 93.0034408,101.669334 93.3821093,101.44 C93.7607779,101.210666 94.0674415,100.904002 94.3021093,100.52 L95.3901093,101.48 C95.1127746,101.960002 94.6887788,102.365332 94.1181093,102.696 C93.5474398,103.026668 92.8354469,103.192 91.9821093,103.192 Z M91.8541093,95.88 C91.5447744,95.88 91.259444,95.9333328 90.9981093,96.04 C90.7367747,96.1466672 90.5127769,96.2986657 90.3261093,96.496 C90.1394417,96.6933343 89.9927765,96.925332 89.8861093,97.192 C89.7794421,97.458668 89.7261093,97.7519984 89.7261093,98.072 L89.7261093,98.184 L93.8701093,98.184 L93.8701093,98.024 C93.8701093,97.3733301 93.6861112,96.8533353 93.3181093,96.464 C92.9501075,96.0746647 92.4621124,95.88 91.8541093,95.88 Z M116.798109,97.128 L116.798109,95.704 L124.414109,95.704 L124.414109,97.128 L116.798109,97.128 Z M116.798109,100.52 L116.798109,99.096 L124.414109,99.096 L124.414109,100.52 L116.798109,100.52 Z" id="Price-=" fill-opacity="0.6" fill="#1F2124"></path>
                    <path d="M146.554482,103.192 C145.583811,103.192 144.767819,103.021335 144.106482,102.68 C143.445146,102.338665 142.901151,101.885336 142.474482,101.32 L143.626482,100.216 C144.053151,100.728003 144.50648,101.103999 144.986482,101.344 C145.466485,101.584001 146.010479,101.704 146.618482,101.704 C147.322486,101.704 147.863814,101.544002 148.242482,101.224 C148.621151,100.903998 148.810482,100.445336 148.810482,99.848 C148.810482,99.3679976 148.671817,98.9973346 148.394482,98.736 C148.117148,98.4746654 147.642486,98.2853339 146.970482,98.168 L145.754482,97.976 C145.221146,97.8906662 144.773151,97.7493343 144.410482,97.552 C144.047814,97.3546657 143.754483,97.1200014 143.530482,96.848 C143.306481,96.5759986 143.143816,96.2720017 143.042482,95.936 C142.941148,95.5999983 142.890482,95.2453352 142.890482,94.872 C142.890482,93.8159947 143.231812,93.0133361 143.914482,92.464 C144.597152,91.9146639 145.53581,91.64 146.730482,91.64 C147.61582,91.64 148.370479,91.7813319 148.994482,92.064 C149.618485,92.3466681 150.12248,92.7439974 150.506482,93.256 L149.386482,94.376 C149.077147,94.0026648 148.711818,93.7013345 148.290482,93.472 C147.869147,93.2426655 147.349152,93.128 146.730482,93.128 C146.069146,93.128 145.565151,93.2693319 145.218482,93.552 C144.871814,93.8346681 144.698482,94.2479973 144.698482,94.792 C144.698482,95.250669 144.834481,95.6106654 145.106482,95.872 C145.378484,96.1333346 145.861146,96.3226661 146.554482,96.44 L147.738482,96.648 C148.741154,96.8293342 149.471813,97.1946639 149.930482,97.744 C150.389151,98.2933361 150.618482,98.9626627 150.618482,99.752 C150.618482,100.264003 150.530483,100.733331 150.354482,101.16 C150.178481,101.586669 149.917151,101.949332 149.570482,102.248 C149.223814,102.546668 148.797152,102.778666 148.290482,102.944 C147.783813,103.109334 147.205152,103.192 146.554482,103.192 Z M152.826482,103 L152.826482,91.832 L160.010482,91.832 L160.010482,93.336 L154.618482,93.336 L154.618482,96.584 L159.514482,96.584 L159.514482,98.088 L154.618482,98.088 L154.618482,103 L152.826482,103 Z M171.370482,103 L174.442482,98.808 L171.498482,94.744 L173.530482,94.744 L174.618482,96.312 L175.482482,97.56 L175.578482,97.56 L176.426482,96.312 L177.514482,94.744 L179.402482,94.744 L176.442482,98.744 L179.546482,103 L177.498482,103 L176.266482,101.224 L175.418482,100.008 L175.322482,100.008 L174.490482,101.224 L173.274482,103 L171.370482,103 Z" id="SF-x" fill-opacity="0.6" fill="#1F2124"></path>
                    <path d="M206.744013,104 L206.744013,102.512 L209.880013,102.512 L209.880013,94.144 L209.752013,94.144 L207.160013,96.912 L206.056013,95.92 L208.904013,92.832 L211.672013,92.832 L211.672013,102.512 L214.376013,102.512 L214.376013,104 L206.744013,104 Z M218.952013,103.008 L218.952013,99.824 L215.928013,99.824 L215.928013,98.4 L218.952013,98.4 L218.952013,95.216 L220.520013,95.216 L220.520013,98.4 L223.544013,98.4 L223.544013,99.824 L220.520013,99.824 L220.520013,103.008 L218.952013,103.008 Z" id="1+" fill-opacity="0.6" fill="#1F2124"></path>
                    <path d="M254.822199,77.408 L254.678199,77.408 L254.678199,86 L253.110199,86 L253.110199,74.832 L255.414199,74.832 L258.694199,83.424 L258.838199,83.424 L258.838199,74.832 L260.406199,74.832 L260.406199,86 L258.102199,86 L254.822199,77.408 Z M268.070199,84.592 L267.990199,84.592 C267.904866,84.8053344 267.795533,85.0106657 267.662199,85.208 C267.528865,85.4053343 267.3662,85.5759993 267.174199,85.72 C266.982198,85.8640007 266.758201,85.9786662 266.502199,86.064 C266.246198,86.1493338 265.947534,86.192 265.606199,86.192 C264.774195,86.192 264.102202,85.9200027 263.590199,85.376 C263.078197,84.8319973 262.822199,84.0586717 262.822199,83.056 L262.822199,77.744 L264.566199,77.744 L264.566199,82.8 C264.566199,84.1120066 265.13686,84.768 266.278199,84.768 C266.5022,84.768 266.720865,84.738667 266.934199,84.68 C267.147534,84.621333 267.339532,84.5333339 267.510199,84.416 C267.680867,84.2986661 267.816866,84.1520009 267.918199,83.976 C268.019533,83.7999991 268.070199,83.5893346 268.070199,83.344 L268.070199,77.744 L269.814199,77.744 L269.814199,86 L268.070199,86 L268.070199,84.592 Z M271.862199,86 L271.862199,77.744 L273.350199,77.744 L273.350199,78.816 L273.430199,78.816 C273.5582,78.4639982 273.742198,78.1653346 273.982199,77.92 C274.222201,77.6746654 274.566197,77.552 275.014199,77.552 C275.451535,77.552 275.790198,77.6719988 276.030199,77.912 C276.270201,78.1520012 276.422199,78.4799979 276.486199,78.896 L276.550199,78.896 C276.699533,78.5226648 276.907531,78.2053346 277.174199,77.944 C277.440867,77.6826654 277.824864,77.552 278.326199,77.552 C278.966203,77.552 279.411531,77.7759978 279.662199,78.224 C279.912867,78.6720022 280.038199,79.3279957 280.038199,80.192 L280.038199,86 L278.550199,86 L278.550199,80.416 C278.550199,79.8399971 278.480867,79.4426678 278.342199,79.224 C278.203532,79.0053322 277.979534,78.896 277.670199,78.896 C277.392865,78.896 277.160867,78.9893324 276.974199,79.176 C276.787532,79.3626676 276.694199,79.6426648 276.694199,80.016 L276.694199,86 L275.206199,86 L275.206199,80.416 C275.206199,79.8399971 275.139533,79.4426678 275.006199,79.224 C274.872865,79.0053322 274.651534,78.896 274.342199,78.896 C274.054198,78.896 273.816867,78.9893324 273.630199,79.176 C273.443532,79.3626676 273.350199,79.6426648 273.350199,80.016 L273.350199,86 L271.862199,86 Z M282.022199,74.16 L283.766199,74.16 L283.766199,79.152 L283.862199,79.152 C284.107534,78.6506642 284.432864,78.2586681 284.838199,77.976 C285.243535,77.6933319 285.750196,77.552 286.358199,77.552 C287.328871,77.552 288.102196,77.914663 288.678199,78.64 C289.254202,79.365337 289.542199,80.4426595 289.542199,81.872 C289.542199,83.3013405 289.254202,84.378663 288.678199,85.104 C288.102196,85.829337 287.328871,86.192 286.358199,86.192 C285.750196,86.192 285.243535,86.0506681 284.838199,85.768 C284.432864,85.4853319 284.107534,85.0933358 283.862199,84.592 L283.766199,84.592 L283.766199,86 L282.022199,86 L282.022199,74.16 Z M285.638199,84.768 C286.299536,84.768 286.808864,84.5653354 287.166199,84.16 C287.523534,83.7546646 287.702199,83.2160034 287.702199,82.544 L287.702199,81.2 C287.702199,80.5279966 287.523534,79.9893354 287.166199,79.584 C286.808864,79.1786646 286.299536,78.976 285.638199,78.976 C285.382198,78.976 285.1422,79.0079997 284.918199,79.072 C284.694198,79.1360003 284.496867,79.2319994 284.326199,79.36 C284.155532,79.4880006 284.019533,79.6453324 283.918199,79.832 C283.816866,80.0186676 283.766199,80.2399987 283.766199,80.496 L283.766199,83.248 C283.766199,83.5040013 283.816866,83.7253324 283.918199,83.912 C284.019533,84.0986676 284.155532,84.2559994 284.326199,84.384 C284.496867,84.5120006 284.694198,84.6079997 284.918199,84.672 C285.1422,84.7360003 285.382198,84.768 285.638199,84.768 Z M295.334199,86.192 C294.704863,86.192 294.139535,86.0906677 293.638199,85.888 C293.136864,85.6853323 292.715534,85.3973352 292.374199,85.024 C292.032864,84.6506648 291.771534,84.2000026 291.590199,83.672 C291.408865,83.1439974 291.318199,82.5493366 291.318199,81.888 C291.318199,81.2266634 291.411532,80.629336 291.598199,80.096 C291.784867,79.562664 292.046198,79.1066686 292.382199,78.728 C292.718201,78.3493314 293.126197,78.0586677 293.606199,77.856 C294.086202,77.6533323 294.61953,77.552 295.206199,77.552 C295.782202,77.552 296.304864,77.6506657 296.774199,77.848 C297.243535,78.0453343 297.643531,78.3253315 297.974199,78.688 C298.304868,79.0506685 298.558198,79.4826642 298.734199,79.984 C298.9102,80.4853358 298.998199,81.039997 298.998199,81.648 L298.998199,82.304 L293.078199,82.304 L293.078199,82.576 C293.078199,83.2266699 293.280864,83.7573313 293.686199,84.168 C294.091535,84.5786687 294.651529,84.784 295.366199,84.784 C295.899535,84.784 296.355531,84.6693345 296.734199,84.44 C297.112868,84.2106655 297.419532,83.9040019 297.654199,83.52 L298.742199,84.48 C298.464865,84.9600024 298.040869,85.3653317 297.470199,85.696 C296.89953,86.0266683 296.187537,86.192 295.334199,86.192 Z M295.206199,78.88 C294.896864,78.88 294.611534,78.9333328 294.350199,79.04 C294.088865,79.1466672 293.864867,79.2986657 293.678199,79.496 C293.491532,79.6933343 293.344867,79.925332 293.238199,80.192 C293.131532,80.458668 293.078199,80.7519984 293.078199,81.072 L293.078199,81.184 L297.222199,81.184 L297.222199,81.024 C297.222199,80.3733301 297.038201,79.8533353 296.670199,79.464 C296.302198,79.0746647 295.814202,78.88 295.206199,78.88 Z M301.174199,84.592 L303.366199,84.592 L303.366199,79.152 L301.174199,79.152 L301.174199,77.744 L305.110199,77.744 L305.110199,79.936 L305.206199,79.936 C305.280866,79.6479986 305.387532,79.370668 305.526199,79.104 C305.664867,78.837332 305.840865,78.6053343 306.054199,78.408 C306.267534,78.2106657 306.528864,78.0506673 306.838199,77.928 C307.147534,77.8053327 307.510197,77.744 307.926199,77.744 L308.918199,77.744 L308.918199,79.408 L307.286199,79.408 C306.646196,79.408 306.123535,79.5973314 305.718199,79.976 C305.312864,80.3546686 305.110199,80.8639968 305.110199,81.504 L305.110199,84.592 L308.102199,84.592 L308.102199,86 L301.174199,86 L301.174199,84.592 Z M323.958199,86.192 C323.350196,86.192 322.803535,86.0906677 322.318199,85.888 C321.832864,85.6853323 321.422201,85.3973352 321.086199,85.024 C320.750198,84.6506648 320.491534,84.197336 320.310199,83.664 C320.128865,83.130664 320.038199,82.5333366 320.038199,81.872 C320.038199,81.2106634 320.128865,80.613336 320.310199,80.08 C320.491534,79.546664 320.750198,79.0933352 321.086199,78.72 C321.422201,78.3466648 321.832864,78.0586677 322.318199,77.856 C322.803535,77.6533323 323.350196,77.552 323.958199,77.552 C324.566202,77.552 325.112864,77.6533323 325.598199,77.856 C326.083535,78.0586677 326.494198,78.3466648 326.830199,78.72 C327.166201,79.0933352 327.424865,79.546664 327.606199,80.08 C327.787534,80.613336 327.878199,81.2106634 327.878199,81.872 C327.878199,82.5333366 327.787534,83.130664 327.606199,83.664 C327.424865,84.197336 327.166201,84.6506648 326.830199,85.024 C326.494198,85.3973352 326.083535,85.6853323 325.598199,85.888 C325.112864,86.0906677 324.566202,86.192 323.958199,86.192 Z M323.958199,84.816 C324.598203,84.816 325.107531,84.6213353 325.486199,84.232 C325.864868,83.8426647 326.054199,83.2640038 326.054199,82.496 L326.054199,81.248 C326.054199,80.4799962 325.864868,79.9013353 325.486199,79.512 C325.107531,79.1226647 324.598203,78.928 323.958199,78.928 C323.318196,78.928 322.808868,79.1226647 322.430199,79.512 C322.051531,79.9013353 321.862199,80.4799962 321.862199,81.248 L321.862199,82.496 C321.862199,83.2640038 322.051531,83.8426647 322.430199,84.232 C322.808868,84.6213353 323.318196,84.816 323.958199,84.816 Z M330.006199,84.592 L332.646199,84.592 L332.646199,79.152 L329.846199,79.152 L329.846199,77.744 L332.646199,77.744 L332.646199,76.256 C332.646199,75.6373302 332.816864,75.1333353 333.158199,74.744 C333.499534,74.3546647 334.032862,74.16 334.758199,74.16 L337.542199,74.16 L337.542199,75.568 L334.390199,75.568 L334.390199,77.744 L337.542199,77.744 L337.542199,79.152 L334.390199,79.152 L334.390199,84.592 L337.174199,84.592 L337.174199,86 L330.006199,86 L330.006199,84.592 Z M350.822199,77.408 L350.678199,77.408 L350.678199,86 L349.110199,86 L349.110199,74.832 L351.414199,74.832 L354.694199,83.424 L354.838199,83.424 L354.838199,74.832 L356.406199,74.832 L356.406199,86 L354.102199,86 L350.822199,77.408 Z M366.870199,86 L364.838199,86 L363.574199,83.792 L362.390199,81.68 L362.294199,81.68 L361.078199,83.792 L359.766199,86 L357.862199,86 L361.286199,80.272 L358.070199,74.832 L360.102199,74.832 L361.238199,76.832 L362.390199,78.896 L362.470199,78.896 L363.622199,76.832 L364.806199,74.832 L366.710199,74.832 L363.478199,80.272 L366.870199,86 Z M374.278199,80.656 L374.326199,77.296 L374.198199,77.296 L371.958199,83.04 L369.718199,77.296 L369.590199,77.296 L369.638199,80.656 L369.638199,86 L368.054199,86 L368.054199,74.832 L370.246199,74.832 L371.958199,79.264 L372.070199,79.264 L373.798199,74.832 L375.862199,74.832 L375.862199,86 L374.278199,86 L374.278199,80.656 Z" id="Number-of-NXM" fill-opacity="0.6" fill="#1F2124"></path>
                    <path d="M434.207138,102 L437.279138,97.808 L434.335138,93.744 L436.367138,93.744 L437.455138,95.312 L438.319138,96.56 L438.415138,96.56 L439.263138,95.312 L440.351138,93.744 L442.239138,93.744 L439.279138,97.744 L442.383138,102 L440.335138,102 L439.103138,100.224 L438.255138,99.008 L438.159138,99.008 L437.327138,100.224 L436.111138,102 L434.207138,102 Z M459.807138,96.656 L459.855138,93.296 L459.727138,93.296 L457.487138,99.04 L455.247138,93.296 L455.119138,93.296 L455.167138,96.656 L455.167138,102 L453.583138,102 L453.583138,90.832 L455.775138,90.832 L457.487138,95.264 L457.599138,95.264 L459.327138,90.832 L461.391138,90.832 L461.391138,102 L459.807138,102 L459.807138,96.656 Z M470.159138,102 C469.657802,102 469.281806,101.872001 469.031138,101.616 C468.78047,101.359999 468.628472,101.024002 468.575138,100.608 L468.495138,100.608 C468.335137,101.109336 468.044474,101.498665 467.623138,101.776 C467.201803,102.053335 466.665808,102.192 466.015138,102.192 C465.172467,102.192 464.500474,101.970669 463.999138,101.528 C463.497802,101.085331 463.247138,100.474671 463.247138,99.696 C463.247138,98.895996 463.543135,98.2853354 464.135138,97.864 C464.727141,97.4426646 465.636465,97.232 466.863138,97.232 L468.447138,97.232 L468.447138,96.592 C468.447138,95.4719944 467.855144,94.912 466.671138,94.912 C466.137802,94.912 465.705807,95.015999 465.375138,95.224 C465.04447,95.432001 464.767139,95.706665 464.543138,96.048 L463.503138,95.2 C463.737806,94.7519978 464.132469,94.365335 464.687138,94.04 C465.241808,93.714665 465.956467,93.552 466.831138,93.552 C467.876477,93.552 468.697802,93.8026642 469.295138,94.304 C469.892475,94.8053358 470.191138,95.5306619 470.191138,96.48 L470.191138,100.624 L471.231138,100.624 L471.231138,102 L470.159138,102 Z M466.511138,100.912 C467.076474,100.912 467.54047,100.784001 467.903138,100.528 C468.265807,100.271999 468.447138,99.9413354 468.447138,99.536 L468.447138,98.336 L466.895138,98.336 C465.636465,98.336 465.007138,98.7146629 465.007138,99.472 L465.007138,99.792 C465.007138,100.165335 465.14047,100.445332 465.407138,100.632 C465.673806,100.818668 466.041803,100.912 466.511138,100.912 Z M472.607138,102 L475.679138,97.808 L472.735138,93.744 L474.767138,93.744 L475.855138,95.312 L476.719138,96.56 L476.815138,96.56 L477.663138,95.312 L478.751138,93.744 L480.639138,93.744 L477.679138,97.744 L480.783138,102 L478.735138,102 L477.503138,100.224 L476.655138,99.008 L476.559138,99.008 L475.727138,100.224 L474.511138,102 L472.607138,102 Z M484.559138,97.024 C484.559138,96.2453294 484.647137,95.4960036 484.823138,94.776 C484.999139,94.0559964 485.239137,93.3866698 485.543138,92.768 C485.84714,92.1493302 486.201803,91.5920025 486.607138,91.096 C487.012474,90.5999975 487.439136,90.181335 487.887138,89.84 L489.631138,89.84 C489.151136,90.181335 488.697807,90.581331 488.271138,91.04 C487.844469,91.498669 487.47114,92.0053306 487.151138,92.56 C486.831137,93.1146694 486.575139,93.7039969 486.383138,94.328 C486.191137,94.9520031 486.095138,95.6053299 486.095138,96.288 L486.095138,97.76 C486.095138,98.4426701 486.191137,99.0959969 486.383138,99.72 C486.575139,100.344003 486.831137,100.933331 487.151138,101.488 C487.47114,102.042669 487.844469,102.549331 488.271138,103.008 C488.697807,103.466669 489.151136,103.866665 489.631138,104.208 L487.887138,104.208 C487.439136,103.877332 487.012474,103.461336 486.607138,102.96 C486.201803,102.458664 485.84714,101.89867 485.543138,101.28 C485.239137,100.66133 484.999139,99.9920036 484.823138,99.272 C484.647137,98.5519964 484.559138,97.8026706 484.559138,97.024 Z M498.207138,96.656 L498.255138,93.296 L498.127138,93.296 L495.887138,99.04 L493.647138,93.296 L493.519138,93.296 L493.567138,96.656 L493.567138,102 L491.983138,102 L491.983138,90.832 L494.175138,90.832 L495.887138,95.264 L495.999138,95.264 L497.727138,90.832 L499.791138,90.832 L499.791138,102 L498.207138,102 L498.207138,96.656 Z M505.807138,102.192 C504.388465,102.192 503.335142,101.690672 502.647138,100.688 C501.959135,99.6853283 501.615138,98.2613426 501.615138,96.416 C501.615138,94.5706574 501.959135,93.1466717 502.647138,92.144 C503.335142,91.1413283 504.388465,90.64 505.807138,90.64 C506.351141,90.64 506.823136,90.7119993 507.223138,90.856 C507.62314,91.0000007 507.967137,91.1973321 508.255138,91.448 C508.54314,91.6986679 508.785804,91.9919983 508.983138,92.328 C509.180473,92.6640017 509.343138,93.0239981 509.471138,93.408 L507.855138,93.952 C507.769805,93.6959987 507.673805,93.4560011 507.567138,93.232 C507.460471,93.0079989 507.327139,92.8160008 507.167138,92.656 C507.007137,92.4959992 506.817806,92.3680005 506.599138,92.272 C506.380471,92.1759995 506.11114,92.128 505.791138,92.128 C505.001801,92.128 504.425807,92.4293303 504.063138,93.032 C503.70047,93.6346697 503.519138,94.4479949 503.519138,95.472 L503.519138,97.36 C503.519138,98.3840051 503.70047,99.1973303 504.063138,99.8 C504.425807,100.40267 505.001801,100.704 505.791138,100.704 C506.11114,100.704 506.380471,100.656 506.599138,100.56 C506.817806,100.464 507.007137,100.336001 507.167138,100.176 C507.327139,100.015999 507.460471,99.8240011 507.567138,99.6 C507.673805,99.3759989 507.769805,99.1360013 507.855138,98.88 L509.471138,99.424 C509.343138,99.8080019 509.180473,100.167998 508.983138,100.504 C508.785804,100.840002 508.54314,101.133332 508.255138,101.384 C507.967137,101.634668 507.62314,101.831999 507.223138,101.976 C506.823136,102.120001 506.351141,102.192 505.807138,102.192 Z M513.407138,102 L511.631138,102 L511.631138,90.832 L515.807138,90.832 C516.87381,90.832 517.687135,91.1306637 518.247138,91.728 C518.807141,92.3253363 519.087138,93.1466614 519.087138,94.192 C519.087138,95.0453376 518.87914,95.7493306 518.463138,96.304 C518.047136,96.8586694 517.449809,97.1999994 516.671138,97.328 L519.247138,102 L517.263138,102 L514.895138,97.488 L513.407138,97.488 L513.407138,102 Z M515.551138,96.048 C516.660477,96.048 517.215138,95.5413384 517.215138,94.528 L517.215138,93.84 C517.215138,92.8266616 516.660477,92.32 515.551138,92.32 L513.407138,92.32 L513.407138,96.048 L515.551138,96.048 Z M522.559138,96.432 C521.823135,96.432 521.233807,96.1840025 520.791138,95.688 C520.348469,95.1919975 520.127138,94.4746714 520.127138,93.536 C520.127138,92.5973286 520.348469,91.8800025 520.791138,91.384 C521.233807,90.8879975 521.823135,90.64 522.559138,90.64 C523.295142,90.64 523.884469,90.8879975 524.327138,91.384 C524.769807,91.8800025 524.991138,92.5973286 524.991138,93.536 C524.991138,94.4746714 524.769807,95.1919975 524.327138,95.688 C523.884469,96.1840025 523.295142,96.432 522.559138,96.432 Z M522.559138,95.344 C522.91114,95.344 523.183137,95.2186679 523.375138,94.968 C523.567139,94.7173321 523.663138,94.3680022 523.663138,93.92 L523.663138,93.152 C523.663138,92.7039978 523.567139,92.3546679 523.375138,92.104 C523.183137,91.8533321 522.91114,91.728 522.559138,91.728 C522.207137,91.728 521.935139,91.8533321 521.743138,92.104 C521.551137,92.3546679 521.455138,92.7039978 521.455138,93.152 L521.455138,93.92 C521.455138,94.3680022 521.551137,94.7173321 521.743138,94.968 C521.935139,95.2186679 522.207137,95.344 522.559138,95.344 Z M527.871138,90.832 L529.311138,90.832 L526.799138,95.632 L525.375138,95.632 L527.871138,90.832 Z M522.575138,97.2 L523.999138,97.2 L521.503138,102 L520.063138,102 L522.575138,97.2 Z M526.815138,102.192 C526.079135,102.192 525.489807,101.944002 525.047138,101.448 C524.604469,100.951998 524.383138,100.234671 524.383138,99.296 C524.383138,98.3573286 524.604469,97.6400025 525.047138,97.144 C525.489807,96.6479975 526.079135,96.4 526.815138,96.4 C527.551142,96.4 528.140469,96.6479975 528.583138,97.144 C529.025807,97.6400025 529.247138,98.3573286 529.247138,99.296 C529.247138,100.234671 529.025807,100.951998 528.583138,101.448 C528.140469,101.944002 527.551142,102.192 526.815138,102.192 Z M526.815138,101.104 C527.16714,101.104 527.439137,100.978668 527.631138,100.728 C527.823139,100.477332 527.919138,100.128002 527.919138,99.68 L527.919138,98.912 C527.919138,98.4639978 527.823139,98.1146679 527.631138,97.864 C527.439137,97.6133321 527.16714,97.488 526.815138,97.488 C526.463137,97.488 526.191139,97.6133321 525.999138,97.864 C525.807137,98.1146679 525.711138,98.4639978 525.711138,98.912 L525.711138,99.68 C525.711138,100.128002 525.807137,100.477332 525.999138,100.728 C526.191139,100.978668 526.463137,101.104 526.815138,101.104 Z M542.991138,99.568 L545.471138,99.568 L543.487138,104.32 L542.127138,104.32 L542.991138,99.568 Z M550.095138,102 L550.095138,100.512 L553.231138,100.512 L553.231138,92.144 L553.103138,92.144 L550.511138,94.912 L549.407138,93.92 L552.255138,90.832 L555.023138,90.832 L555.023138,100.512 L557.727138,100.512 L557.727138,102 L550.095138,102 Z M564.815138,97.024 C564.815138,97.8026706 564.727139,98.5519964 564.551138,99.272 C564.375137,99.9920036 564.13514,100.66133 563.831138,101.28 C563.527137,101.89867 563.172474,102.458664 562.767138,102.96 C562.361803,103.461336 561.935141,103.877332 561.487138,104.208 L559.743138,104.208 C560.223141,103.866665 560.676469,103.466669 561.103138,103.008 C561.529807,102.549331 561.903137,102.042669 562.223138,101.488 C562.54314,100.933331 562.799137,100.344003 562.991138,99.72 C563.183139,99.0959969 563.279138,98.4426701 563.279138,97.76 L563.279138,96.288 C563.279138,95.6053299 563.183139,94.9520031 562.991138,94.328 C562.799137,93.7039969 562.54314,93.1146694 562.223138,92.56 C561.903137,92.0053306 561.529807,91.498669 561.103138,91.04 C560.676469,90.581331 560.223141,90.181335 559.743138,89.84 L561.487138,89.84 C561.935141,90.181335 562.361803,90.5999975 562.767138,91.096 C563.172474,91.5920025 563.527137,92.1493302 563.831138,92.768 C564.13514,93.3866698 564.375137,94.0559964 564.551138,94.776 C564.727139,95.4960036 564.815138,96.2453294 564.815138,97.024 Z" id="x-Max(MCR%-,1)" fill-opacity="0.6" fill="#1F2124"></path>
                    <path d="M273.181312,122 L273.181312,120.512 L276.317312,120.512 L276.317312,112.144 L276.189312,112.144 L273.597312,114.912 L272.493312,113.92 L275.341312,110.832 L278.109312,110.832 L278.109312,120.512 L280.813312,120.512 L280.813312,122 L273.181312,122 Z M285.277312,119.568 L287.757312,119.568 L285.773312,124.32 L284.413312,124.32 L285.277312,119.568 Z M299.149312,112.384 L294.077312,112.384 L293.789312,116.352 L293.917312,116.352 C294.173313,115.914664 294.482643,115.565335 294.845312,115.304 C295.20798,115.042665 295.703975,114.912 296.333312,114.912 C296.813314,114.912 297.258643,114.991999 297.669312,115.152 C298.079981,115.312001 298.43731,115.541332 298.741312,115.84 C299.045313,116.138668 299.285311,116.503998 299.461312,116.936 C299.637313,117.368002 299.725312,117.855997 299.725312,118.4 C299.725312,118.954669 299.634646,119.463998 299.453312,119.928 C299.271978,120.392002 299.010647,120.791998 298.669312,121.128 C298.327977,121.464002 297.906648,121.725332 297.405312,121.912 C296.903976,122.098668 296.333315,122.192 295.693312,122.192 C295.191976,122.192 294.746647,122.136001 294.357312,122.024 C293.967977,121.911999 293.621313,121.762668 293.317312,121.576 C293.01331,121.389332 292.749313,121.176001 292.525312,120.936 C292.301311,120.695999 292.103979,120.448001 291.933312,120.192 L293.245312,119.168 C293.383979,119.381334 293.530644,119.581332 293.685312,119.768 C293.839979,119.954668 294.013311,120.117333 294.205312,120.256 C294.397313,120.394667 294.618644,120.501333 294.869312,120.576 C295.11998,120.650667 295.40531,120.688 295.725312,120.688 C296.418649,120.688 296.946643,120.498669 297.309312,120.12 C297.67198,119.741331 297.853312,119.22667 297.853312,118.576 L297.853312,118.448 C297.853312,117.79733 297.669314,117.290668 297.301312,116.928 C296.93331,116.565332 296.407982,116.384 295.725312,116.384 C295.223976,116.384 294.829313,116.474666 294.541312,116.656 C294.25331,116.837334 294.002646,117.039999 293.789312,117.264 L292.301312,117.056 L292.717312,110.832 L299.149312,110.832 L299.149312,112.384 Z M305.373312,122.192 C304.669308,122.192 304.058648,122.061335 303.541312,121.8 C303.023976,121.538665 302.597314,121.162669 302.261312,120.672 C301.92531,120.181331 301.677313,119.57867 301.517312,118.864 C301.357311,118.14933 301.277312,117.333338 301.277312,116.416 C301.277312,115.509329 301.357311,114.696004 301.517312,113.976 C301.677313,113.255996 301.92531,112.650669 302.261312,112.16 C302.597314,111.669331 303.023976,111.293335 303.541312,111.032 C304.058648,110.770665 304.669308,110.64 305.373312,110.64 C306.077315,110.64 306.687976,110.770665 307.205312,111.032 C307.722648,111.293335 308.14931,111.669331 308.485312,112.16 C308.821314,112.650669 309.069311,113.255996 309.229312,113.976 C309.389313,114.696004 309.469312,115.509329 309.469312,116.416 C309.469312,117.333338 309.389313,118.14933 309.229312,118.864 C309.069311,119.57867 308.821314,120.181331 308.485312,120.672 C308.14931,121.162669 307.722648,121.538665 307.205312,121.8 C306.687976,122.061335 306.077315,122.192 305.373312,122.192 Z M305.373312,120.72 C306.183983,120.72 306.762643,120.41867 307.109312,119.816 C307.45598,119.21333 307.629312,118.400005 307.629312,117.376 L307.629312,115.456 C307.629312,114.431995 307.45598,113.61867 307.109312,113.016 C306.762643,112.41333 306.183983,112.112 305.373312,112.112 C304.967977,112.112 304.621313,112.189333 304.333312,112.344 C304.04531,112.498667 303.810646,112.722665 303.629312,113.016 C303.447978,113.309335 303.317312,113.661331 303.237312,114.072 C303.157311,114.482669 303.117312,114.943997 303.117312,115.456 L303.117312,117.376 C303.117312,117.888003 303.157311,118.349331 303.237312,118.76 C303.317312,119.170669 303.447978,119.522665 303.629312,119.816 C303.810646,120.109335 304.04531,120.333333 304.333312,120.488 C304.621313,120.642667 304.967977,120.72 305.373312,120.72 Z M305.373312,117.36 C304.999977,117.36 304.741313,117.285334 304.597312,117.136 C304.453311,116.986666 304.381312,116.805334 304.381312,116.592 L304.381312,116.24 C304.381312,116.026666 304.453311,115.845334 304.597312,115.696 C304.741313,115.546666 304.999977,115.472 305.373312,115.472 C305.746647,115.472 306.005311,115.546666 306.149312,115.696 C306.293313,115.845334 306.365312,116.026666 306.365312,116.24 L306.365312,116.592 C306.365312,116.805334 306.293313,116.986666 306.149312,117.136 C306.005311,117.285334 305.746647,117.36 305.373312,117.36 Z M314.973312,122.192 C314.269308,122.192 313.658648,122.061335 313.141312,121.8 C312.623976,121.538665 312.197314,121.162669 311.861312,120.672 C311.52531,120.181331 311.277313,119.57867 311.117312,118.864 C310.957311,118.14933 310.877312,117.333338 310.877312,116.416 C310.877312,115.509329 310.957311,114.696004 311.117312,113.976 C311.277313,113.255996 311.52531,112.650669 311.861312,112.16 C312.197314,111.669331 312.623976,111.293335 313.141312,111.032 C313.658648,110.770665 314.269308,110.64 314.973312,110.64 C315.677315,110.64 316.287976,110.770665 316.805312,111.032 C317.322648,111.293335 317.74931,111.669331 318.085312,112.16 C318.421314,112.650669 318.669311,113.255996 318.829312,113.976 C318.989313,114.696004 319.069312,115.509329 319.069312,116.416 C319.069312,117.333338 318.989313,118.14933 318.829312,118.864 C318.669311,119.57867 318.421314,120.181331 318.085312,120.672 C317.74931,121.162669 317.322648,121.538665 316.805312,121.8 C316.287976,122.061335 315.677315,122.192 314.973312,122.192 Z M314.973312,120.72 C315.783983,120.72 316.362643,120.41867 316.709312,119.816 C317.05598,119.21333 317.229312,118.400005 317.229312,117.376 L317.229312,115.456 C317.229312,114.431995 317.05598,113.61867 316.709312,113.016 C316.362643,112.41333 315.783983,112.112 314.973312,112.112 C314.567977,112.112 314.221313,112.189333 313.933312,112.344 C313.64531,112.498667 313.410646,112.722665 313.229312,113.016 C313.047978,113.309335 312.917312,113.661331 312.837312,114.072 C312.757311,114.482669 312.717312,114.943997 312.717312,115.456 L312.717312,117.376 C312.717312,117.888003 312.757311,118.349331 312.837312,118.76 C312.917312,119.170669 313.047978,119.522665 313.229312,119.816 C313.410646,120.109335 313.64531,120.333333 313.933312,120.488 C314.221313,120.642667 314.567977,120.72 314.973312,120.72 Z M314.973312,117.36 C314.599977,117.36 314.341313,117.285334 314.197312,117.136 C314.053311,116.986666 313.981312,116.805334 313.981312,116.592 L313.981312,116.24 C313.981312,116.026666 314.053311,115.845334 314.197312,115.696 C314.341313,115.546666 314.599977,115.472 314.973312,115.472 C315.346647,115.472 315.605311,115.546666 315.749312,115.696 C315.893313,115.845334 315.965312,116.026666 315.965312,116.24 L315.965312,116.592 C315.965312,116.805334 315.893313,116.986666 315.749312,117.136 C315.605311,117.285334 315.346647,117.36 314.973312,117.36 Z M323.677312,119.568 L326.157312,119.568 L324.173312,124.32 L322.813312,124.32 L323.677312,119.568 Z M334.173312,122.192 C333.469308,122.192 332.858648,122.061335 332.341312,121.8 C331.823976,121.538665 331.397314,121.162669 331.061312,120.672 C330.72531,120.181331 330.477313,119.57867 330.317312,118.864 C330.157311,118.14933 330.077312,117.333338 330.077312,116.416 C330.077312,115.509329 330.157311,114.696004 330.317312,113.976 C330.477313,113.255996 330.72531,112.650669 331.061312,112.16 C331.397314,111.669331 331.823976,111.293335 332.341312,111.032 C332.858648,110.770665 333.469308,110.64 334.173312,110.64 C334.877315,110.64 335.487976,110.770665 336.005312,111.032 C336.522648,111.293335 336.94931,111.669331 337.285312,112.16 C337.621314,112.650669 337.869311,113.255996 338.029312,113.976 C338.189313,114.696004 338.269312,115.509329 338.269312,116.416 C338.269312,117.333338 338.189313,118.14933 338.029312,118.864 C337.869311,119.57867 337.621314,120.181331 337.285312,120.672 C336.94931,121.162669 336.522648,121.538665 336.005312,121.8 C335.487976,122.061335 334.877315,122.192 334.173312,122.192 Z M334.173312,120.72 C334.983983,120.72 335.562643,120.41867 335.909312,119.816 C336.25598,119.21333 336.429312,118.400005 336.429312,117.376 L336.429312,115.456 C336.429312,114.431995 336.25598,113.61867 335.909312,113.016 C335.562643,112.41333 334.983983,112.112 334.173312,112.112 C333.767977,112.112 333.421313,112.189333 333.133312,112.344 C332.84531,112.498667 332.610646,112.722665 332.429312,113.016 C332.247978,113.309335 332.117312,113.661331 332.037312,114.072 C331.957311,114.482669 331.917312,114.943997 331.917312,115.456 L331.917312,117.376 C331.917312,117.888003 331.957311,118.349331 332.037312,118.76 C332.117312,119.170669 332.247978,119.522665 332.429312,119.816 C332.610646,120.109335 332.84531,120.333333 333.133312,120.488 C333.421313,120.642667 333.767977,120.72 334.173312,120.72 Z M334.173312,117.36 C333.799977,117.36 333.541313,117.285334 333.397312,117.136 C333.253311,116.986666 333.181312,116.805334 333.181312,116.592 L333.181312,116.24 C333.181312,116.026666 333.253311,115.845334 333.397312,115.696 C333.541313,115.546666 333.799977,115.472 334.173312,115.472 C334.546647,115.472 334.805311,115.546666 334.949312,115.696 C335.093313,115.845334 335.165312,116.026666 335.165312,116.24 L335.165312,116.592 C335.165312,116.805334 335.093313,116.986666 334.949312,117.136 C334.805311,117.285334 334.546647,117.36 334.173312,117.36 Z M343.773312,122.192 C343.069308,122.192 342.458648,122.061335 341.941312,121.8 C341.423976,121.538665 340.997314,121.162669 340.661312,120.672 C340.32531,120.181331 340.077313,119.57867 339.917312,118.864 C339.757311,118.14933 339.677312,117.333338 339.677312,116.416 C339.677312,115.509329 339.757311,114.696004 339.917312,113.976 C340.077313,113.255996 340.32531,112.650669 340.661312,112.16 C340.997314,111.669331 341.423976,111.293335 341.941312,111.032 C342.458648,110.770665 343.069308,110.64 343.773312,110.64 C344.477315,110.64 345.087976,110.770665 345.605312,111.032 C346.122648,111.293335 346.54931,111.669331 346.885312,112.16 C347.221314,112.650669 347.469311,113.255996 347.629312,113.976 C347.789313,114.696004 347.869312,115.509329 347.869312,116.416 C347.869312,117.333338 347.789313,118.14933 347.629312,118.864 C347.469311,119.57867 347.221314,120.181331 346.885312,120.672 C346.54931,121.162669 346.122648,121.538665 345.605312,121.8 C345.087976,122.061335 344.477315,122.192 343.773312,122.192 Z M343.773312,120.72 C344.583983,120.72 345.162643,120.41867 345.509312,119.816 C345.85598,119.21333 346.029312,118.400005 346.029312,117.376 L346.029312,115.456 C346.029312,114.431995 345.85598,113.61867 345.509312,113.016 C345.162643,112.41333 344.583983,112.112 343.773312,112.112 C343.367977,112.112 343.021313,112.189333 342.733312,112.344 C342.44531,112.498667 342.210646,112.722665 342.029312,113.016 C341.847978,113.309335 341.717312,113.661331 341.637312,114.072 C341.557311,114.482669 341.517312,114.943997 341.517312,115.456 L341.517312,117.376 C341.517312,117.888003 341.557311,118.349331 341.637312,118.76 C341.717312,119.170669 341.847978,119.522665 342.029312,119.816 C342.210646,120.109335 342.44531,120.333333 342.733312,120.488 C343.021313,120.642667 343.367977,120.72 343.773312,120.72 Z M343.773312,117.36 C343.399977,117.36 343.141313,117.285334 342.997312,117.136 C342.853311,116.986666 342.781312,116.805334 342.781312,116.592 L342.781312,116.24 C342.781312,116.026666 342.853311,115.845334 342.997312,115.696 C343.141313,115.546666 343.399977,115.472 343.773312,115.472 C344.146647,115.472 344.405311,115.546666 344.549312,115.696 C344.693313,115.845334 344.765312,116.026666 344.765312,116.24 L344.765312,116.592 C344.765312,116.805334 344.693313,116.986666 344.549312,117.136 C344.405311,117.285334 344.146647,117.36 343.773312,117.36 Z M353.373312,122.192 C352.669308,122.192 352.058648,122.061335 351.541312,121.8 C351.023976,121.538665 350.597314,121.162669 350.261312,120.672 C349.92531,120.181331 349.677313,119.57867 349.517312,118.864 C349.357311,118.14933 349.277312,117.333338 349.277312,116.416 C349.277312,115.509329 349.357311,114.696004 349.517312,113.976 C349.677313,113.255996 349.92531,112.650669 350.261312,112.16 C350.597314,111.669331 351.023976,111.293335 351.541312,111.032 C352.058648,110.770665 352.669308,110.64 353.373312,110.64 C354.077315,110.64 354.687976,110.770665 355.205312,111.032 C355.722648,111.293335 356.14931,111.669331 356.485312,112.16 C356.821314,112.650669 357.069311,113.255996 357.229312,113.976 C357.389313,114.696004 357.469312,115.509329 357.469312,116.416 C357.469312,117.333338 357.389313,118.14933 357.229312,118.864 C357.069311,119.57867 356.821314,120.181331 356.485312,120.672 C356.14931,121.162669 355.722648,121.538665 355.205312,121.8 C354.687976,122.061335 354.077315,122.192 353.373312,122.192 Z M353.373312,120.72 C354.183983,120.72 354.762643,120.41867 355.109312,119.816 C355.45598,119.21333 355.629312,118.400005 355.629312,117.376 L355.629312,115.456 C355.629312,114.431995 355.45598,113.61867 355.109312,113.016 C354.762643,112.41333 354.183983,112.112 353.373312,112.112 C352.967977,112.112 352.621313,112.189333 352.333312,112.344 C352.04531,112.498667 351.810646,112.722665 351.629312,113.016 C351.447978,113.309335 351.317312,113.661331 351.237312,114.072 C351.157311,114.482669 351.117312,114.943997 351.117312,115.456 L351.117312,117.376 C351.117312,117.888003 351.157311,118.349331 351.237312,118.76 C351.317312,119.170669 351.447978,119.522665 351.629312,119.816 C351.810646,120.109335 352.04531,120.333333 352.333312,120.488 C352.621313,120.642667 352.967977,120.72 353.373312,120.72 Z M353.373312,117.36 C352.999977,117.36 352.741313,117.285334 352.597312,117.136 C352.453311,116.986666 352.381312,116.805334 352.381312,116.592 L352.381312,116.24 C352.381312,116.026666 352.453311,115.845334 352.597312,115.696 C352.741313,115.546666 352.999977,115.472 353.373312,115.472 C353.746647,115.472 354.005311,115.546666 354.149312,115.696 C354.293313,115.845334 354.365312,116.026666 354.365312,116.24 L354.365312,116.592 C354.365312,116.805334 354.293313,116.986666 354.149312,117.136 C354.005311,117.285334 353.746647,117.36 353.373312,117.36 Z" id="1,500,000" fill-opacity="0.6" fill="#1F2124"></path>
                    <path d="M233.595243,97.5 L397.292217,97.5" id="Line-2" stroke-opacity="0.6" stroke="#1F2124" stroke-width="2" stroke-linecap="square"></path>
                    <path d="M537.337395,90 L530.589395,90 L530.589395,88.502 L533.781395,85.716 C534.285398,85.2679978 534.675061,84.8433353 534.950395,84.442 C535.22573,84.0406647 535.363395,83.6160022 535.363395,83.168 L535.363395,83.014 C535.363395,82.5006641 535.223397,82.1063347 534.943395,81.831 C534.663394,81.5556653 534.257398,81.418 533.725395,81.418 C533.184059,81.418 532.766397,81.5626652 532.472395,81.852 C532.178394,82.1413348 531.966063,82.5099978 531.835395,82.958 L530.463395,82.44 C530.556729,82.1319985 530.692061,81.8356681 530.869395,81.551 C531.04673,81.2663319 531.273061,81.0120011 531.548395,80.788 C531.82373,80.5639989 532.150394,80.3866673 532.528395,80.256 C532.906397,80.1253327 533.342726,80.06 533.837395,80.06 C534.341398,80.06 534.791727,80.1323326 535.188395,80.277 C535.585064,80.4216674 535.918727,80.6199987 536.189395,80.872 C536.460064,81.1240013 536.665395,81.4249983 536.805395,81.775 C536.945396,82.1250017 537.015395,82.5099979 537.015395,82.93 C537.015395,83.322002 536.957063,83.683665 536.840395,84.015 C536.723728,84.346335 536.560397,84.6636651 536.350395,84.967 C536.140394,85.2703348 535.89073,85.5619986 535.601395,85.842 C535.312061,86.1220014 534.994731,86.4019986 534.649395,86.682 L532.283395,88.67 L537.337395,88.67 L537.337395,90 Z" id="2" fill-opacity="0.6" fill="#1F2124"></path>
                    <path d="M199.384244,70 C199.384244,70 191.448553,84.1812558 191.448553,97.5 C191.448553,111.655734 199.384244,125 199.384244,125" id="Path-3" stroke-opacity="0.6" stroke="#1F2124" stroke-width="2"></path>
                    <path d="M415.631833,70 C415.631833,70 407.696141,84.1812558 407.696141,97.5 C407.696141,111.655734 415.631833,125 415.631833,125" id="Path-3" stroke-opacity="0.6" stroke="#1F2124" stroke-width="2" transform="translate(411.663987, 97.500000) scale(-1, 1) translate(-411.663987, -97.500000) "></path>
                </g>
                <rect id="Rectangle-10" x="0" y="12" width="636" height="177"></rect>
            </g>
        </g>
    </g>
</svg>