<?xml version="1.0" encoding="UTF-8" standalone="no"?>
<svg xmlns="http://www.w3.org/2000/svg" height="254px" width="649px" version="1.1" xmlns:xlink="http://www.w3.org/1999/xlink" viewBox="0 0 649 254"><!-- Generator: Sketch 51.2 (57519) - http://www.bohemiancoding.com/sketch -->
 <title>Graph 6: Cover Purchase</title>
 <desc>Created with Sketch.</desc>
 <defs>
  <rect id="path-1" rx="1.9213" height="156" width="207.12" y="2.2737e-13" x="0"/>
  <filter id="filter-2" height="121.2%" width="115.9%" y="-8.7%" x="-6.5%" filterUnits="objectBoundingBox">
   <feOffset in="SourceAlpha" result="shadowOffsetOuter1" dx="2" dy="2"/>
   <feGaussianBlur stdDeviation="4.5" result="shadowBlurOuter1" in="shadowOffsetOuter1"/>
   <feColorMatrix type="matrix" values="0 0 0 0 0.792156863   0 0 0 0 0.823529412   0 0 0 0 0.878431373  0 0 0 0.7 0" result="shadowMatrixOuter1" in="shadowBlurOuter1"/>
   <feOffset in="SourceAlpha" result="shadowOffsetOuter2" dx="1" dy="1"/>
   <feGaussianBlur stdDeviation="1" result="shadowBlurOuter2" in="shadowOffsetOuter2"/>
   <feColorMatrix type="matrix" values="0 0 0 0 0.784313725   0 0 0 0 0.823529412   0 0 0 0 0.882352941  0 0 0 1 0" result="shadowMatrixOuter2" in="shadowBlurOuter2"/>
   <feMerge>
    <feMergeNode in="shadowMatrixOuter1"/>
    <feMergeNode in="shadowMatrixOuter2"/>
   </feMerge>
  </filter>
  <rect id="path-3" rx="5" height="236.27" width="386.05" y="0" x="22.549"/>
  <filter id="filter-4" height="114%" width="108.5%" y="-5.7%" x="-3.8%" filterUnits="objectBoundingBox">
   <feOffset in="SourceAlpha" result="shadowOffsetOuter1" dx="2" dy="2"/>
   <feGaussianBlur stdDeviation="4.5" result="shadowBlurOuter1" in="shadowOffsetOuter1"/>
   <feColorMatrix type="matrix" values="0 0 0 0 0.792156863   0 0 0 0 0.823529412   0 0 0 0 0.878431373  0 0 0 0.7 0" result="shadowMatrixOuter1" in="shadowBlurOuter1"/>
   <feOffset in="SourceAlpha" result="shadowOffsetOuter2" dx="0" dy="1"/>
   <feGaussianBlur stdDeviation="1" result="shadowBlurOuter2" in="shadowOffsetOuter2"/>
   <feColorMatrix type="matrix" values="0 0 0 0 0.784313725   0 0 0 0 0.823529412   0 0 0 0 0.882352941  0 0 0 1 0" result="shadowMatrixOuter2" in="shadowBlurOuter2"/>
   <feMerge>
    <feMergeNode in="shadowMatrixOuter1"/>
    <feMergeNode in="shadowMatrixOuter2"/>
   </feMerge>
  </filter>
  <linearGradient id="linearGradient-5" y1="100%" y2="100%">
   <stop stop-color="#1EAB89" stop-opacity="0" offset="0"/>
   <stop stop-color="#1EAB89" stop-opacity=".2" offset="1"/>
  </linearGradient>
  <rect id="path-6" y="176.41" x="142.83" height="9.2651" width="9.2651"/>
  <filter id="filter-7" height="769.2%" width="769.2%" y="-280.6%" x="-313%" filterUnits="objectBoundingBox">
   <feOffset in="SourceAlpha" result="shadowOffsetOuter1" dx="2" dy="4"/>
   <feGaussianBlur stdDeviation="9" result="shadowBlurOuter1" in="shadowOffsetOuter1"/>
   <feColorMatrix type="matrix" values="0 0 0 0 0   0 0 0 0 0   0 0 0 0 0  0 0 0 0.128311821 0" result="shadowMatrixOuter1" in="shadowBlurOuter1"/>
   <feOffset in="SourceAlpha" result="shadowOffsetOuter2" dx="0" dy="1"/>
   <feGaussianBlur stdDeviation="1" result="shadowBlurOuter2" in="shadowOffsetOuter2"/>
   <feColorMatrix type="matrix" values="0 0 0 0 0   0 0 0 0 0   0 0 0 0 0  0 0 0 0.100175498 0" result="shadowMatrixOuter2" in="shadowBlurOuter2"/>
   <feMerge>
    <feMergeNode in="shadowMatrixOuter1"/>
    <feMergeNode in="shadowMatrixOuter2"/>
   </feMerge>
  </filter>
  <circle id="path-8" cy="186.07" cx="5.4047" r="5.4047"/>
  <filter id="filter-9" height="164.8%" width="164.8%" y="-23.1%" x="-32.4%" filterUnits="objectBoundingBox">
   <feOffset in="SourceAlpha" result="shadowOffsetOuter1" dx="0" dy="1"/>
   <feGaussianBlur stdDeviation="1" result="shadowBlurOuter1" in="shadowOffsetOuter1"/>
   <feColorMatrix type="matrix" values="0 0 0 0 0   0 0 0 0 0   0 0 0 0 0  0 0 0 0.5 0" in="shadowBlurOuter1"/>
  </filter>
  <circle id="path-10" cy="5.4047" cx="391.45" r="5.4047"/>
  <filter id="filter-11" height="164.8%" width="164.8%" y="-23.1%" x="-32.4%" filterUnits="objectBoundingBox">
   <feOffset in="SourceAlpha" result="shadowOffsetOuter1" dx="0" dy="1"/>
   <feGaussianBlur stdDeviation="1" result="shadowBlurOuter1" in="shadowOffsetOuter1"/>
   <feColorMatrix type="matrix" values="0 0 0 0 0   0 0 0 0 0   0 0 0 0 0  0 0 0 0.5 0" in="shadowBlurOuter1"/>
  </filter>
  <filter id="filter-12" height="123%" width="167.1%" y="-8.1%" x="-37.6%" filterUnits="objectBoundingBox">
   <feOffset in="SourceAlpha" result="shadowOffsetOuter1" dx="0" dy="1"/>
   <feGaussianBlur stdDeviation="1" result="shadowBlurOuter1" in="shadowOffsetOuter1"/>
   <feColorMatrix type="matrix" values="0 0 0 0 0   0 0 0 0 0   0 0 0 0 0  0 0 0 0.5 0" result="shadowMatrixOuter1" in="shadowBlurOuter1"/>
   <feMerge>
    <feMergeNode in="shadowMatrixOuter1"/>
    <feMergeNode in="SourceGraphic"/>
   </feMerge>
  </filter>
  <rect id="path-13" y="0" x="0" height="96.512" width="42.079"/>
  <circle id="path-15" cy="3.2814" cx="3.2814" r="3.2814"/>
  <filter id="filter-16" height="206.7%" width="206.7%" y="-38.1%" x="-53.3%" filterUnits="objectBoundingBox">
   <feOffset in="SourceAlpha" result="shadowOffsetOuter1" dx="0" dy="1"/>
   <feGaussianBlur stdDeviation="1" result="shadowBlurOuter1" in="shadowOffsetOuter1"/>
   <feColorMatrix type="matrix" values="0 0 0 0 0   0 0 0 0 0   0 0 0 0 0  0 0 0 0.5 0" in="shadowBlurOuter1"/>
  </filter>
  <circle id="path-17" cy="5.4047" cx="5.4047" r="5.4047"/>
  <filter id="filter-18" height="164.8%" width="164.8%" y="-23.1%" x="-32.4%" filterUnits="objectBoundingBox">
   <feOffset in="SourceAlpha" result="shadowOffsetOuter1" dx="0" dy="1"/>
   <feGaussianBlur stdDeviation="1" result="shadowBlurOuter1" in="shadowOffsetOuter1"/>
   <feColorMatrix type="matrix" values="0 0 0 0 0   0 0 0 0 0   0 0 0 0 0  0 0 0 0.5 0" in="shadowBlurOuter1"/>
  </filter>
 </defs>
 <g id="Page-2" fill-rule="evenodd" fill="none">
  <g id="Token-Model-Page---Outline-Text-for-svg-output" transform="translate(-634 -4305)">
   <g id="Graph-6:-Cover-Purchase" transform="translate(641 4312)">
    <g id="Group-4" transform="translate(0 46)">
     <g id="Path">
      <use filter="url(#filter-2)" xlink:href="#path-1" fill="black"/>
      <use xlink:href="#path-1" fill-rule="evenodd" fill="#FFFFFF"/>
     </g>
     <path id="Path" opacity=".59609" stroke="#E1E6EE" stroke-width=".76854" d="m16.139 24.118c-0.849 0-1.537 0.688-1.537 1.537v39.24c0 0.849 0.688 1.537 1.537 1.537h92.421c0.84 0 1.53-0.688 1.53-1.537v-4.4l3.76-2.912-3.76-2.669v-29.259c0-0.849-0.69-1.537-1.53-1.537h-92.421z"/>
     <path id="Path" opacity=".59609" d="m16.139 74.31c-0.849 0-1.537 0.688-1.537 1.537v57.553c0 0.85 0.688 1.54 1.537 1.54h92.421c0.84 0 1.53-0.69 1.53-1.54v-8.28l3.35-3.16-3.35-3.17v-42.943c0-0.849-0.69-1.537-1.53-1.537h-92.421z" transform="translate(64.021 104.62) scale(1 -1) translate(-64.021 -104.62)" stroke="#E1E6EE" stroke-width=".76854"/>
     <path id="Capital-Pool" fill-opacity=".6" fill="#1F2124" d="m135.18 47.168c-1.25 0-2.17-0.439-2.77-1.316s-0.9-2.123-0.9-3.738 0.3-2.861 0.9-3.738 1.52-1.316 2.77-1.316c0.47 0 0.88 0.063 1.23 0.189s0.66 0.299 0.91 0.518 0.46 0.476 0.63 0.77c0.18 0.294 0.32 0.609 0.43 0.945l-1.41 0.476c-0.08-0.224-0.16-0.434-0.25-0.63-0.1-0.196-0.21-0.364-0.35-0.504s-0.31-0.252-0.5-0.336-0.43-0.126-0.71-0.126c-0.69 0-1.19 0.264-1.51 0.791s-0.48 1.239-0.48 2.135v1.652c0 0.896 0.16 1.608 0.48 2.135s0.82 0.791 1.51 0.791c0.28 0 0.52-0.042 0.71-0.126s0.36-0.196 0.5-0.336 0.25-0.308 0.35-0.504c0.09-0.196 0.17-0.406 0.25-0.63l1.41 0.476c-0.11 0.336-0.25 0.651-0.43 0.945-0.17 0.294-0.38 0.551-0.63 0.77s-0.56 0.392-0.91 0.518-0.76 0.189-1.23 0.189zm10.8-0.168c-0.44 0-0.76-0.112-0.98-0.336s-0.36-0.518-0.4-0.882h-0.07c-0.14 0.439-0.4 0.779-0.77 1.022-0.36 0.243-0.83 0.364-1.4 0.364-0.74 0-1.33-0.194-1.77-0.581s-0.65-0.922-0.65-1.603c0-0.7 0.25-1.234 0.77-1.603s1.32-0.553 2.39-0.553h1.39v-0.56c0-0.98-0.52-1.47-1.56-1.47-0.47 0-0.84 0.091-1.13 0.273s-0.53 0.422-0.73 0.721l-0.91-0.742c0.2-0.392 0.55-0.73 1.04-1.015 0.48-0.285 1.11-0.427 1.87-0.427 0.92 0 1.63 0.219 2.16 0.658 0.52 0.439 0.78 1.073 0.78 1.904v3.626h0.91v1.204h-0.94zm-3.19-0.952c0.5 0 0.9-0.112 1.22-0.336s0.48-0.513 0.48-0.868v-1.05h-1.36c-1.1 0-1.65 0.331-1.65 0.994v0.28c0 0.327 0.11 0.572 0.35 0.735 0.23 0.163 0.55 0.245 0.96 0.245zm5.81-6.272h1.53v1.232h0.08c0.22-0.439 0.5-0.782 0.86-1.029 0.35-0.247 0.79-0.371 1.33-0.371 0.84 0 1.52 0.317 2.03 0.952 0.5 0.635 0.75 1.577 0.75 2.828s-0.25 2.193-0.75 2.828c-0.51 0.635-1.19 0.952-2.03 0.952-0.54 0-0.98-0.124-1.33-0.371-0.36-0.247-0.64-0.59-0.86-1.029h-0.08v4.032h-1.53v-10.024zm3.17 6.146c0.57 0 1.02-0.177 1.33-0.532 0.32-0.355 0.47-0.826 0.47-1.414v-1.176c0-0.588-0.15-1.059-0.47-1.414-0.31-0.355-0.76-0.532-1.33-0.532-0.23 0-0.44 0.028-0.63 0.084-0.2 0.056-0.37 0.14-0.52 0.252s-0.27 0.25-0.36 0.413-0.13 0.357-0.13 0.581v2.408c0 0.224 0.04 0.418 0.13 0.581s0.21 0.301 0.36 0.413 0.32 0.196 0.52 0.252c0.19 0.056 0.4 0.084 0.63 0.084zm8.77-7.462c-0.39 0-0.66-0.079-0.82-0.238-0.15-0.159-0.23-0.355-0.23-0.588v-0.294c0-0.233 0.08-0.429 0.23-0.588 0.16-0.159 0.43-0.238 0.81-0.238 0.39 0 0.66 0.079 0.82 0.238 0.15 0.159 0.23 0.355 0.23 0.588v0.294c0 0.233-0.08 0.429-0.23 0.588-0.16 0.159-0.42 0.238-0.81 0.238zm-3.23 7.308h2.46v-4.76h-2.46v-1.232h3.99v5.992h2.31v1.232h-6.3v-1.232zm11.62 1.232c-0.64 0-1.1-0.17-1.4-0.511s-0.45-0.782-0.45-1.323v-4.158h-2.22v-1.232h1.58c0.27 0 0.46-0.054 0.57-0.161s0.17-0.301 0.17-0.581v-1.806h1.43v2.548h3.08v1.232h-3.08v4.76h3.08v1.232h-2.76zm10.65 0c-0.44 0-0.76-0.112-0.98-0.336s-0.36-0.518-0.4-0.882h-0.07c-0.14 0.439-0.4 0.779-0.77 1.022-0.36 0.243-0.83 0.364-1.4 0.364-0.74 0-1.33-0.194-1.77-0.581s-0.65-0.922-0.65-1.603c0-0.7 0.25-1.234 0.77-1.603s1.32-0.553 2.39-0.553h1.39v-0.56c0-0.98-0.52-1.47-1.56-1.47-0.47 0-0.84 0.091-1.13 0.273s-0.53 0.422-0.73 0.721l-0.91-0.742c0.2-0.392 0.55-0.73 1.04-1.015 0.48-0.285 1.11-0.427 1.87-0.427 0.92 0 1.63 0.219 2.16 0.658 0.52 0.439 0.78 1.073 0.78 1.904v3.626h0.91v1.204h-0.94zm-3.19-0.952c0.5 0 0.9-0.112 1.22-0.336s0.48-0.513 0.48-0.868v-1.05h-1.36c-1.1 0-1.65 0.331-1.65 0.994v0.28c0 0.327 0.11 0.572 0.35 0.735 0.23 0.163 0.55 0.245 0.96 0.245zm5.76-0.28h2.39v-7.896h-2.39v-1.232h3.92v9.128h2.39v1.232h-6.31v-1.232zm-37.68 19.232v-9.772h3.66c0.93 0 1.64 0.261 2.13 0.784s0.74 1.241 0.74 2.156-0.25 1.633-0.74 2.156-1.2 0.784-2.13 0.784h-2.09v3.892h-1.57zm1.57-5.194h1.85c0.97 0 1.45-0.448 1.45-1.344v-0.602c0-0.887-0.48-1.33-1.45-1.33h-1.85v3.276zm9.86 5.362c-0.54 0-1.01-0.089-1.44-0.266-0.42-0.177-0.78-0.429-1.08-0.756-0.29-0.327-0.52-0.723-0.68-1.19s-0.23-0.989-0.23-1.568 0.07-1.101 0.23-1.568 0.39-0.863 0.68-1.19c0.3-0.327 0.66-0.579 1.08-0.756 0.43-0.177 0.9-0.266 1.44-0.266 0.53 0 1.01 0.089 1.43 0.266 0.43 0.177 0.78 0.429 1.08 0.756 0.29 0.327 0.52 0.723 0.68 1.19s0.24 0.989 0.24 1.568-0.08 1.101-0.24 1.568-0.39 0.863-0.68 1.19c-0.3 0.327-0.65 0.579-1.08 0.756-0.42 0.177-0.9 0.266-1.43 0.266zm0-1.204c0.56 0 1-0.17 1.33-0.511s0.5-0.847 0.5-1.519v-1.092c0-0.672-0.17-1.178-0.5-1.519s-0.77-0.511-1.33-0.511-1.01 0.17-1.34 0.511-0.5 0.847-0.5 1.519v1.092c0 0.672 0.17 1.178 0.5 1.519s0.78 0.511 1.34 0.511zm8.4 1.204c-0.54 0-1.01-0.089-1.44-0.266-0.42-0.177-0.78-0.429-1.08-0.756-0.29-0.327-0.52-0.723-0.68-1.19s-0.23-0.989-0.23-1.568 0.07-1.101 0.23-1.568 0.39-0.863 0.68-1.19c0.3-0.327 0.66-0.579 1.08-0.756 0.43-0.177 0.9-0.266 1.44-0.266 0.53 0 1.01 0.089 1.43 0.266 0.43 0.177 0.78 0.429 1.08 0.756 0.29 0.327 0.52 0.723 0.68 1.19s0.24 0.989 0.24 1.568-0.08 1.101-0.24 1.568-0.39 0.863-0.68 1.19c-0.3 0.327-0.65 0.579-1.08 0.756-0.42 0.177-0.9 0.266-1.43 0.266zm0-1.204c0.56 0 1-0.17 1.33-0.511s0.5-0.847 0.5-1.519v-1.092c0-0.672-0.17-1.178-0.5-1.519s-0.77-0.511-1.33-0.511-1.01 0.17-1.34 0.511-0.5 0.847-0.5 1.519v1.092c0 0.672 0.17 1.178 0.5 1.519s0.78 0.511 1.34 0.511zm5.25-0.196h2.39v-7.896h-2.39v-1.232h3.92v9.128h2.39v1.232h-6.31v-1.232z"/>
     <path id="Increases" fill-opacity=".6" fill="#1F2124" d="m25.12 53v-1.19h2.296v-7.392h-2.296v-1.19h6.16v1.19h-2.296v7.392h2.296v1.19h-6.16zm8.456 0v-7.224h1.526v1.232h0.07c0.075-0.187 0.17-0.366 0.287-0.539s0.259-0.322 0.427-0.448 0.364-0.226 0.588-0.301 0.485-0.112 0.784-0.112c0.728 0 1.316 0.238 1.764 0.714s0.672 1.153 0.672 2.03v4.648h-1.526v-4.424c0-1.148-0.499-1.722-1.498-1.722-0.196 0-0.387 0.026-0.574 0.077s-0.355 0.128-0.504 0.231-0.268 0.233-0.357 0.392-0.133 0.341-0.133 0.546v4.9h-1.526zm11.69 0.168c-0.541 0-1.024-0.089-1.449-0.266s-0.784-0.429-1.078-0.756-0.518-0.723-0.672-1.19-0.231-0.989-0.231-1.568 0.077-1.101 0.231-1.568 0.378-0.863 0.672-1.19 0.653-0.579 1.078-0.756 0.903-0.266 1.435-0.266c0.747 0 1.346 0.159 1.799 0.476s0.791 0.728 1.015 1.232l-1.19 0.644c-0.131-0.336-0.329-0.602-0.595-0.798s-0.609-0.294-1.029-0.294c-0.579 0-1.027 0.175-1.344 0.525s-0.476 0.814-0.476 1.393v1.204c0 0.569 0.159 1.031 0.476 1.386s0.775 0.532 1.372 0.532c0.448 0 0.814-0.103 1.099-0.308s0.511-0.485 0.679-0.84l1.12 0.686c-0.233 0.504-0.588 0.917-1.064 1.239s-1.092 0.483-1.848 0.483zm4.998-1.4h1.918v-4.76h-1.918v-1.232h3.444v1.918h0.084c0.065-0.252 0.159-0.495 0.28-0.728s0.275-0.436 0.462-0.609 0.415-0.313 0.686-0.42 0.588-0.161 0.952-0.161h0.868v1.456h-1.428c-0.56 0-1.017 0.166-1.372 0.497s-0.532 0.777-0.532 1.337v2.702h2.618v1.232h-6.062v-1.232zm11.69 1.4c-0.551 0-1.045-0.089-1.484-0.266s-0.807-0.429-1.106-0.756-0.527-0.721-0.686-1.183-0.238-0.982-0.238-1.561 0.082-1.101 0.245-1.568 0.392-0.866 0.686-1.197 0.651-0.586 1.071-0.763 0.887-0.266 1.4-0.266c0.504 0 0.961 0.086 1.372 0.259s0.761 0.418 1.05 0.735 0.511 0.695 0.665 1.134 0.231 0.924 0.231 1.456v0.574h-5.18v0.238c0 0.569 0.177 1.034 0.532 1.393s0.845 0.539 1.47 0.539c0.467 0 0.866-0.1 1.197-0.301s0.6-0.469 0.805-0.805l0.952 0.84c-0.243 0.42-0.614 0.775-1.113 1.064s-1.122 0.434-1.869 0.434zm-0.112-6.398c-0.271 0-0.52 0.047-0.749 0.14s-0.425 0.226-0.588 0.399-0.292 0.376-0.385 0.609-0.14 0.49-0.14 0.77v0.098h3.626v-0.14c0-0.569-0.161-1.024-0.483-1.365s-0.749-0.511-1.281-0.511zm11.046 6.23c-0.439 0-0.768-0.112-0.987-0.336s-0.352-0.518-0.399-0.882h-0.07c-0.14 0.439-0.394 0.779-0.763 1.022s-0.838 0.364-1.407 0.364c-0.737 0-1.325-0.194-1.764-0.581s-0.658-0.922-0.658-1.603c0-0.7 0.259-1.234 0.777-1.603s1.314-0.553 2.387-0.553h1.386v-0.56c0-0.98-0.518-1.47-1.554-1.47-0.467 0-0.845 0.091-1.134 0.273s-0.532 0.422-0.728 0.721l-0.91-0.742c0.205-0.392 0.551-0.73 1.036-1.015s1.111-0.427 1.876-0.427c0.915 0 1.633 0.219 2.156 0.658s0.784 1.073 0.784 1.904v3.626h0.91v1.204h-0.938zm-3.192-0.952c0.495 0 0.901-0.112 1.218-0.336s0.476-0.513 0.476-0.868v-1.05h-1.358c-1.101 0-1.652 0.331-1.652 0.994v0.28c0 0.327 0.117 0.572 0.35 0.735s0.555 0.245 0.966 0.245zm8.918 1.12c-0.784 0-1.458-0.126-2.023-0.378s-1.02-0.588-1.365-1.008l0.938-0.84c0.317 0.345 0.674 0.609 1.071 0.791s0.866 0.273 1.407 0.273c0.495 0 0.894-0.084 1.197-0.252s0.455-0.429 0.455-0.784c0-0.149-0.028-0.275-0.084-0.378s-0.135-0.187-0.238-0.252-0.222-0.117-0.357-0.154-0.278-0.065-0.427-0.084l-1.148-0.182c-0.28-0.037-0.565-0.098-0.854-0.182s-0.548-0.203-0.777-0.357-0.415-0.352-0.56-0.595-0.217-0.551-0.217-0.924c0-0.737 0.282-1.297 0.847-1.68s1.309-0.574 2.233-0.574c0.672 0 1.253 0.1 1.743 0.301s0.898 0.478 1.225 0.833l-0.854 0.896c-0.187-0.215-0.453-0.413-0.798-0.595s-0.803-0.273-1.372-0.273c-1.017 0-1.526 0.322-1.526 0.966 0 0.308 0.11 0.52 0.329 0.637s0.478 0.194 0.777 0.231l1.148 0.182c0.289 0.047 0.576 0.107 0.861 0.182s0.541 0.189 0.77 0.343 0.415 0.352 0.56 0.595 0.217 0.551 0.217 0.924c0 0.728-0.282 1.3-0.847 1.715s-1.342 0.623-2.331 0.623zm8.54 0c-0.551 0-1.045-0.089-1.484-0.266s-0.807-0.429-1.106-0.756-0.527-0.721-0.686-1.183-0.238-0.982-0.238-1.561 0.082-1.101 0.245-1.568 0.392-0.866 0.686-1.197 0.651-0.586 1.071-0.763 0.887-0.266 1.4-0.266c0.504 0 0.961 0.086 1.372 0.259s0.761 0.418 1.05 0.735 0.511 0.695 0.665 1.134 0.231 0.924 0.231 1.456v0.574h-5.18v0.238c0 0.569 0.177 1.034 0.532 1.393s0.845 0.539 1.47 0.539c0.467 0 0.866-0.1 1.197-0.301s0.6-0.469 0.805-0.805l0.952 0.84c-0.243 0.42-0.614 0.775-1.113 1.064s-1.122 0.434-1.869 0.434zm-0.112-6.398c-0.271 0-0.52 0.047-0.749 0.14s-0.425 0.226-0.588 0.399-0.292 0.376-0.385 0.609-0.14 0.49-0.14 0.77v0.098h3.626v-0.14c0-0.569-0.161-1.024-0.483-1.365s-0.749-0.511-1.281-0.511zm8.372 6.398c-0.784 0-1.458-0.126-2.023-0.378s-1.02-0.588-1.365-1.008l0.938-0.84c0.317 0.345 0.674 0.609 1.071 0.791s0.866 0.273 1.407 0.273c0.495 0 0.894-0.084 1.197-0.252s0.455-0.429 0.455-0.784c0-0.149-0.028-0.275-0.084-0.378s-0.135-0.187-0.238-0.252-0.222-0.117-0.357-0.154-0.278-0.065-0.427-0.084l-1.148-0.182c-0.28-0.037-0.565-0.098-0.854-0.182s-0.548-0.203-0.777-0.357-0.415-0.352-0.56-0.595-0.217-0.551-0.217-0.924c0-0.737 0.282-1.297 0.847-1.68s1.309-0.574 2.233-0.574c0.672 0 1.253 0.1 1.743 0.301s0.898 0.478 1.225 0.833l-0.854 0.896c-0.187-0.215-0.453-0.413-0.798-0.595s-0.803-0.273-1.372-0.273c-1.017 0-1.526 0.322-1.526 0.966 0 0.308 0.11 0.52 0.329 0.637s0.478 0.194 0.777 0.231l1.148 0.182c0.289 0.047 0.576 0.107 0.861 0.182s0.541 0.189 0.77 0.343 0.415 0.352 0.56 0.595 0.217 0.551 0.217 0.924c0 0.728-0.282 1.3-0.847 1.715s-1.342 0.623-2.331 0.623z"/>
     <path id="Increases-not-as-muc" fill-opacity=".6" fill="#1E2125" d="m26.065 97.305v-1.19h2.296v-7.392h-2.296v-1.19h6.16v1.19h-2.296v7.392h2.296v1.19h-6.16zm8.456 0v-7.224h1.526v1.232h0.07c0.074-0.186 0.17-0.366 0.287-0.539 0.116-0.172 0.259-0.322 0.427-0.448s0.364-0.226 0.588-0.301c0.224-0.074 0.485-0.112 0.784-0.112 0.728 0 1.316 0.238 1.764 0.714s0.672 1.153 0.672 2.03v4.648h-1.526v-4.424c0-1.148-0.5-1.722-1.498-1.722-0.196 0-0.388 0.026-0.574 0.077-0.187 0.052-0.355 0.129-0.504 0.231-0.15 0.103-0.269 0.234-0.357 0.392-0.089 0.159-0.133 0.341-0.133 0.546v4.9h-1.526zm11.69 0.168c-0.542 0-1.025-0.088-1.449-0.266-0.425-0.177-0.784-0.429-1.078-0.756-0.294-0.326-0.518-0.723-0.672-1.19-0.154-0.466-0.231-0.989-0.231-1.568 0-0.578 0.077-1.101 0.231-1.568 0.154-0.466 0.378-0.863 0.672-1.19 0.294-0.326 0.653-0.578 1.078-0.756 0.424-0.177 0.903-0.266 1.435-0.266 0.746 0 1.346 0.159 1.799 0.476 0.452 0.318 0.791 0.728 1.015 1.232l-1.19 0.644c-0.131-0.336-0.329-0.602-0.595-0.798s-0.609-0.294-1.029-0.294c-0.579 0-1.027 0.175-1.344 0.525-0.318 0.35-0.476 0.815-0.476 1.393v1.204c0 0.57 0.158 1.032 0.476 1.386 0.317 0.355 0.774 0.532 1.372 0.532 0.448 0 0.814-0.102 1.099-0.308 0.284-0.205 0.511-0.485 0.679-0.84l1.12 0.686c-0.234 0.504-0.588 0.917-1.064 1.239s-1.092 0.483-1.848 0.483zm4.998-1.4h1.918v-4.76h-1.918v-1.232h3.444v1.918h0.084c0.065-0.252 0.158-0.494 0.28-0.728 0.121-0.233 0.275-0.436 0.462-0.609 0.186-0.172 0.415-0.312 0.686-0.42 0.27-0.107 0.588-0.161 0.952-0.161h0.868v1.456h-1.428c-0.56 0-1.018 0.166-1.372 0.497-0.355 0.332-0.532 0.777-0.532 1.337v2.702h2.618v1.232h-6.062v-1.232zm11.69 1.4c-0.551 0-1.046-0.088-1.484-0.266-0.439-0.177-0.808-0.429-1.106-0.756-0.299-0.326-0.528-0.721-0.686-1.183-0.159-0.462-0.238-0.982-0.238-1.561 0-0.578 0.081-1.101 0.245-1.568 0.163-0.466 0.392-0.865 0.686-1.197 0.294-0.331 0.651-0.585 1.071-0.763 0.42-0.177 0.886-0.266 1.4-0.266 0.504 0 0.961 0.087 1.372 0.259 0.41 0.173 0.76 0.418 1.05 0.735 0.289 0.318 0.511 0.696 0.665 1.134 0.154 0.439 0.231 0.924 0.231 1.456v0.574h-5.18v0.238c0 0.57 0.177 1.034 0.532 1.393 0.354 0.36 0.844 0.539 1.47 0.539 0.466 0 0.865-0.1 1.197-0.301 0.331-0.2 0.599-0.469 0.805-0.805l0.952 0.84c-0.243 0.42-0.614 0.775-1.113 1.064-0.5 0.29-1.123 0.434-1.869 0.434zm-0.112-6.398c-0.271 0-0.521 0.047-0.749 0.14-0.229 0.094-0.425 0.227-0.588 0.399-0.164 0.173-0.292 0.376-0.385 0.609-0.094 0.234-0.14 0.49-0.14 0.77v0.098h3.626v-0.14c0-0.569-0.161-1.024-0.483-1.365-0.322-0.34-0.749-0.511-1.281-0.511zm11.046 6.23c-0.439 0-0.768-0.112-0.987-0.336-0.22-0.224-0.353-0.518-0.399-0.882h-0.07c-0.14 0.439-0.395 0.78-0.763 1.022-0.369 0.243-0.838 0.364-1.407 0.364-0.738 0-1.326-0.193-1.764-0.581-0.439-0.387-0.658-0.921-0.658-1.603 0-0.7 0.259-1.234 0.777-1.603 0.518-0.368 1.313-0.553 2.387-0.553h1.386v-0.56c0-0.98-0.518-1.47-1.554-1.47-0.467 0-0.845 0.091-1.134 0.273-0.29 0.182-0.532 0.423-0.728 0.721l-0.91-0.742c0.205-0.392 0.55-0.73 1.036-1.015 0.485-0.284 1.11-0.427 1.876-0.427 0.914 0 1.633 0.22 2.156 0.658 0.522 0.439 0.784 1.074 0.784 1.904v3.626h0.91v1.204h-0.938zm-3.192-0.952c0.494 0 0.9-0.112 1.218-0.336 0.317-0.224 0.476-0.513 0.476-0.868v-1.05h-1.358c-1.102 0-1.652 0.332-1.652 0.994v0.28c0 0.327 0.116 0.572 0.35 0.735 0.233 0.164 0.555 0.245 0.966 0.245zm8.918 1.12c-0.784 0-1.459-0.126-2.023-0.378-0.565-0.252-1.02-0.588-1.365-1.008l0.938-0.84c0.317 0.346 0.674 0.609 1.071 0.791 0.396 0.182 0.865 0.273 1.407 0.273 0.494 0 0.893-0.084 1.197-0.252 0.303-0.168 0.455-0.429 0.455-0.784 0-0.149-0.028-0.275-0.084-0.378-0.056-0.102-0.136-0.186-0.238-0.252-0.103-0.065-0.222-0.116-0.357-0.154-0.136-0.037-0.278-0.065-0.427-0.084l-1.148-0.182c-0.28-0.037-0.565-0.098-0.854-0.182-0.29-0.084-0.549-0.203-0.777-0.357-0.229-0.154-0.416-0.352-0.56-0.595-0.145-0.242-0.217-0.55-0.217-0.924 0-0.737 0.282-1.297 0.847-1.68 0.564-0.382 1.309-0.574 2.233-0.574 0.672 0 1.253 0.101 1.743 0.301 0.49 0.201 0.898 0.479 1.225 0.833l-0.854 0.896c-0.187-0.214-0.453-0.413-0.798-0.595-0.346-0.182-0.803-0.273-1.372-0.273-1.018 0-1.526 0.322-1.526 0.966 0 0.308 0.109 0.521 0.329 0.637 0.219 0.117 0.478 0.194 0.777 0.231l1.148 0.182c0.289 0.047 0.576 0.108 0.861 0.182 0.284 0.075 0.541 0.189 0.77 0.343 0.228 0.154 0.415 0.353 0.56 0.595 0.144 0.243 0.217 0.551 0.217 0.924 0 0.728-0.283 1.3-0.847 1.715-0.565 0.416-1.342 0.623-2.331 0.623zm8.54 0c-0.551 0-1.046-0.088-1.484-0.266-0.439-0.177-0.808-0.429-1.106-0.756-0.299-0.326-0.528-0.721-0.686-1.183-0.159-0.462-0.238-0.982-0.238-1.561 0-0.578 0.081-1.101 0.245-1.568 0.163-0.466 0.392-0.865 0.686-1.197 0.294-0.331 0.651-0.585 1.071-0.763 0.42-0.177 0.886-0.266 1.4-0.266 0.504 0 0.961 0.087 1.372 0.259 0.41 0.173 0.76 0.418 1.05 0.735 0.289 0.318 0.511 0.696 0.665 1.134 0.154 0.439 0.231 0.924 0.231 1.456v0.574h-5.18v0.238c0 0.57 0.177 1.034 0.532 1.393 0.354 0.36 0.844 0.539 1.47 0.539 0.466 0 0.865-0.1 1.197-0.301 0.331-0.2 0.599-0.469 0.805-0.805l0.952 0.84c-0.243 0.42-0.614 0.775-1.113 1.064-0.5 0.29-1.123 0.434-1.869 0.434zm-0.112-6.398c-0.271 0-0.521 0.047-0.749 0.14-0.229 0.094-0.425 0.227-0.588 0.399-0.164 0.173-0.292 0.376-0.385 0.609-0.094 0.234-0.14 0.49-0.14 0.77v0.098h3.626v-0.14c0-0.569-0.161-1.024-0.483-1.365-0.322-0.34-0.749-0.511-1.281-0.511zm8.372 6.398c-0.784 0-1.459-0.126-2.023-0.378-0.565-0.252-1.02-0.588-1.365-1.008l0.938-0.84c0.317 0.346 0.674 0.609 1.071 0.791 0.396 0.182 0.865 0.273 1.407 0.273 0.494 0 0.893-0.084 1.197-0.252 0.303-0.168 0.455-0.429 0.455-0.784 0-0.149-0.028-0.275-0.084-0.378-0.056-0.102-0.136-0.186-0.238-0.252-0.103-0.065-0.222-0.116-0.357-0.154-0.136-0.037-0.278-0.065-0.427-0.084l-1.148-0.182c-0.28-0.037-0.565-0.098-0.854-0.182-0.29-0.084-0.549-0.203-0.777-0.357-0.229-0.154-0.416-0.352-0.56-0.595-0.145-0.242-0.217-0.55-0.217-0.924 0-0.737 0.282-1.297 0.847-1.68 0.564-0.382 1.309-0.574 2.233-0.574 0.672 0 1.253 0.101 1.743 0.301 0.49 0.201 0.898 0.479 1.225 0.833l-0.854 0.896c-0.187-0.214-0.453-0.413-0.798-0.595-0.346-0.182-0.803-0.273-1.372-0.273-1.018 0-1.526 0.322-1.526 0.966 0 0.308 0.109 0.521 0.329 0.637 0.219 0.117 0.478 0.194 0.777 0.231l1.148 0.182c0.289 0.047 0.576 0.108 0.861 0.182 0.284 0.075 0.541 0.189 0.77 0.343 0.228 0.154 0.415 0.353 0.56 0.595 0.144 0.243 0.217 0.551 0.217 0.924 0 0.728-0.283 1.3-0.847 1.715-0.565 0.416-1.342 0.623-2.331 0.623zm-72.206 23.907v-6.2h1.308v1.06h0.06c0.064-0.16 0.146-0.31 0.246-0.46s0.222-0.28 0.366-0.39c0.144-0.1 0.312-0.19 0.504-0.25 0.192-0.07 0.416-0.1 0.672-0.1 0.624 0 1.128 0.2 1.512 0.61s0.576 0.99 0.576 1.74v3.99h-1.308v-3.8c0-0.98-0.428-1.47-1.284-1.47-0.168 0-0.332 0.02-0.492 0.06-0.16 0.05-0.304 0.11-0.432 0.2s-0.23 0.2-0.306 0.34c-0.076 0.13-0.114 0.29-0.114 0.47v4.2h-1.308zm9.792 0.14c-0.456 0-0.866-0.08-1.23-0.23s-0.672-0.37-0.924-0.65-0.446-0.62-0.582-1.02-0.204-0.84-0.204-1.34 0.068-0.94 0.204-1.34 0.33-0.74 0.582-1.02 0.56-0.5 0.924-0.65 0.774-0.23 1.23-0.23 0.866 0.08 1.23 0.23 0.672 0.37 0.924 0.65 0.446 0.62 0.582 1.02 0.204 0.84 0.204 1.34-0.068 0.94-0.204 1.34-0.33 0.74-0.582 1.02-0.56 0.5-0.924 0.65-0.774 0.23-1.23 0.23zm0-1.03c0.48 0 0.862-0.15 1.146-0.44s0.426-0.73 0.426-1.3v-0.94c0-0.57-0.142-1.01-0.426-1.3s-0.666-0.44-1.146-0.44-0.862 0.15-1.146 0.44-0.426 0.73-0.426 1.3v0.94c0 0.57 0.142 1.01 0.426 1.3s0.666 0.44 1.146 0.44zm7.572 0.89c-0.544 0-0.944-0.15-1.2-0.44s-0.384-0.67-0.384-1.14v-3.56h-1.908v-1.06h1.356c0.232 0 0.396-0.04 0.492-0.13 0.096-0.1 0.144-0.26 0.144-0.5v-1.55h1.224v2.18h2.64v1.06h-2.64v4.08h2.64v1.06h-2.364zm16.332 0c-0.376 0-0.658-0.1-0.846-0.29s-0.302-0.45-0.342-0.76h-0.06c-0.12 0.38-0.338 0.67-0.654 0.88s-0.718 0.31-1.206 0.31c-0.632 0-1.136-0.17-1.512-0.5s-0.564-0.79-0.564-1.37c0-0.6 0.222-1.06 0.666-1.38 0.444-0.31 1.126-0.47 2.046-0.47h1.188v-0.48c0-0.84-0.444-1.26-1.332-1.26-0.4 0-0.724 0.08-0.972 0.23-0.248 0.16-0.456 0.37-0.624 0.62l-0.78-0.63c0.176-0.34 0.472-0.63 0.888-0.87 0.416-0.25 0.952-0.37 1.608-0.37 0.784 0 1.4 0.19 1.848 0.56 0.448 0.38 0.672 0.92 0.672 1.64v3.1h0.78v1.04h-0.804zm-2.736-0.82c0.424 0 0.772-0.1 1.044-0.29s0.408-0.44 0.408-0.74v-0.9h-1.164c-0.944 0-1.416 0.28-1.416 0.85v0.24c0 0.28 0.1 0.49 0.3 0.63s0.476 0.21 0.828 0.21zm7.644 0.96c-0.672 0-1.25-0.11-1.734-0.32-0.484-0.22-0.874-0.51-1.17-0.87l0.804-0.72c0.272 0.3 0.578 0.52 0.918 0.68s0.742 0.23 1.206 0.23c0.424 0 0.766-0.07 1.026-0.21 0.26-0.15 0.39-0.37 0.39-0.67 0-0.13-0.024-0.24-0.072-0.33s-0.116-0.16-0.204-0.21c-0.088-0.06-0.19-0.1-0.306-0.14-0.116-0.03-0.238-0.05-0.366-0.07l-0.984-0.15c-0.24-0.04-0.484-0.09-0.732-0.16s-0.47-0.17-0.666-0.31c-0.196-0.13-0.356-0.3-0.48-0.51-0.124-0.2-0.186-0.47-0.186-0.79 0-0.63 0.242-1.11 0.726-1.44s1.122-0.49 1.914-0.49c0.576 0 1.074 0.09 1.494 0.26s0.77 0.41 1.05 0.71l-0.732 0.77c-0.16-0.18-0.388-0.35-0.684-0.51s-0.688-0.23-1.176-0.23c-0.872 0-1.308 0.27-1.308 0.82 0 0.27 0.094 0.45 0.282 0.55s0.41 0.17 0.666 0.2l0.984 0.15c0.248 0.04 0.494 0.1 0.738 0.16s0.464 0.16 0.66 0.29c0.196 0.14 0.356 0.31 0.48 0.51 0.124 0.21 0.186 0.48 0.186 0.8 0 0.62-0.242 1.11-0.726 1.47-0.484 0.35-1.15 0.53-1.998 0.53zm11.316-0.14v-6.2h1.116v0.81h0.06c0.096-0.27 0.234-0.49 0.414-0.67 0.18-0.19 0.438-0.28 0.774-0.28 0.328 0 0.582 0.09 0.762 0.27s0.294 0.43 0.342 0.74h0.048c0.112-0.28 0.268-0.52 0.468-0.72 0.2-0.19 0.488-0.29 0.864-0.29 0.48 0 0.814 0.17 1.002 0.5 0.188 0.34 0.282 0.83 0.282 1.48v4.36h-1.116v-4.19c0-0.43-0.052-0.73-0.156-0.9-0.104-0.16-0.272-0.24-0.504-0.24-0.208 0-0.382 0.07-0.522 0.21s-0.21 0.35-0.21 0.63v4.49h-1.116v-4.19c0-0.43-0.05-0.73-0.15-0.9-0.1-0.16-0.266-0.24-0.498-0.24-0.216 0-0.394 0.07-0.534 0.21s-0.21 0.35-0.21 0.63v4.49h-1.116zm11.556-1.06h-0.06c-0.064 0.16-0.146 0.31-0.246 0.46s-0.222 0.28-0.366 0.39c-0.144 0.1-0.312 0.19-0.504 0.25-0.192 0.07-0.416 0.1-0.672 0.1-0.624 0-1.128-0.2-1.512-0.61s-0.576-0.99-0.576-1.74v-3.99h1.308v3.8c0 0.98 0.428 1.47 1.284 1.47 0.168 0 0.332-0.02 0.492-0.06 0.16-0.05 0.304-0.11 0.432-0.2s0.23-0.2 0.306-0.33 0.114-0.29 0.114-0.48v-4.2h1.308v6.2h-1.308v-1.06zm6.144 1.2c-0.464 0-0.878-0.08-1.242-0.23s-0.672-0.37-0.924-0.65-0.444-0.62-0.576-1.02-0.198-0.84-0.198-1.34 0.066-0.94 0.198-1.34 0.324-0.74 0.576-1.02 0.56-0.5 0.924-0.65 0.774-0.23 1.23-0.23c0.64 0 1.154 0.14 1.542 0.41s0.678 0.62 0.87 1.05l-1.02 0.56c-0.112-0.29-0.282-0.52-0.51-0.69s-0.522-0.25-0.882-0.25c-0.496 0-0.88 0.15-1.152 0.45s-0.408 0.7-0.408 1.19v1.04c0 0.48 0.136 0.88 0.408 1.18 0.272 0.31 0.664 0.46 1.176 0.46 0.384 0 0.698-0.09 0.942-0.26 0.244-0.18 0.438-0.42 0.582-0.72l0.96 0.58c-0.2 0.44-0.504 0.79-0.912 1.07-0.408 0.27-0.936 0.41-1.584 0.41zm4.38-9.02h1.308v3.74h0.06c0.064-0.16 0.146-0.31 0.246-0.46s0.222-0.28 0.366-0.39c0.144-0.1 0.312-0.19 0.504-0.25 0.192-0.07 0.416-0.1 0.672-0.1 0.624 0 1.131 0.2 1.511 0.61s0.58 0.99 0.58 1.74v3.99h-1.31v-3.8c0-0.98-0.429-1.47-1.285-1.47-0.168 0-0.332 0.02-0.492 0.06-0.16 0.05-0.304 0.11-0.432 0.2s-0.23 0.2-0.306 0.34c-0.076 0.13-0.114 0.29-0.114 0.47v4.2h-1.308v-8.88z"/>
     <path id="MCR" fill-opacity=".6" fill="#1F2124" d="m152.52 94.477l0.04-2.94h-0.11l-1.96 5.026-1.96-5.026h-0.11l0.04 2.94v4.676h-1.39v-9.772h1.92l1.5 3.878h0.1l1.51-3.878h1.8v9.772h-1.38v-4.676zm6.65 4.844c-1.24 0-2.16-0.439-2.77-1.316-0.6-0.878-0.9-2.124-0.9-3.738 0-1.615 0.3-2.861 0.9-3.738 0.61-0.878 1.53-1.316 2.77-1.316 0.47 0 0.89 0.063 1.24 0.189s0.65 0.298 0.9 0.518c0.25 0.219 0.46 0.476 0.64 0.77 0.17 0.294 0.31 0.609 0.42 0.945l-1.41 0.476c-0.07-0.224-0.16-0.434-0.25-0.63-0.1-0.196-0.21-0.364-0.35-0.504s-0.31-0.252-0.5-0.336-0.43-0.126-0.71-0.126c-0.69 0-1.19 0.263-1.51 0.791-0.32 0.527-0.47 1.239-0.47 2.135v1.652c0 0.896 0.15 1.607 0.47 2.135 0.32 0.527 0.82 0.791 1.51 0.791 0.28 0 0.52-0.042 0.71-0.126s0.36-0.196 0.5-0.336 0.25-0.308 0.35-0.504c0.09-0.196 0.18-0.406 0.25-0.63l1.41 0.476c-0.11 0.336-0.25 0.651-0.42 0.945-0.18 0.294-0.39 0.55-0.64 0.77-0.25 0.219-0.55 0.392-0.9 0.518s-0.77 0.189-1.24 0.189zm6.65-0.168h-1.56v-9.772h3.66c0.93 0 1.64 0.261 2.13 0.784 0.49 0.522 0.74 1.241 0.74 2.156 0 0.746-0.18 1.362-0.55 1.848-0.36 0.485-0.88 0.784-1.57 0.896l2.26 4.088h-1.74l-2.07-3.948h-1.3v3.948zm1.87-5.208c0.97 0 1.46-0.444 1.46-1.33v-0.602c0-0.887-0.49-1.33-1.46-1.33h-1.87v3.262h1.87z"/>
     <path id="Line-2" d="m127.5 77.659h64.98" stroke-opacity=".6" stroke="#1F2124" stroke-linecap="square" stroke-width="1.5371"/>
    </g>
    <g id="Group-7" transform="translate(222)">
     <g id="Rectangle">
      <use filter="url(#filter-4)" xlink:href="#path-3" fill="black"/>
      <use xlink:href="#path-3" fill-rule="evenodd" fill="#FFFFFF"/>
     </g>
     <path id="Line-Copy-4" stroke="#E5E5E5" stroke-width=".5" stroke-linecap="square" d="m22.935 196.5h386.04"/>
     <path id="Line-Copy-3" stroke="#E5E5E5" stroke-width=".5" stroke-linecap="square" d="m317.68 157.13h91.3"/>
     <path id="Line-Copy-2" stroke="#E5E5E5" stroke-width=".5" stroke-linecap="square" d="m361.88 117.75h47.1"/>
     <path id="Line-Copy" stroke="#E5E5E5" stroke-width=".5" stroke-linecap="square" d="m22.356 78.372h386.62"/>
     <path id="Line" stroke="#E5E5E5" stroke-width=".5" stroke-linecap="square" d="m22.356 38.995h386.62"/>
     <path id="MCR" fill-opacity=".9" fill="#fff" d="m166.72 226.12l0.02-1.71h-0.06l-1.14 2.91-1.13-2.91h-0.07l0.02 1.71v2.7h-0.8v-5.66h1.11l0.87 2.25h0.06l0.87-2.25h1.05v5.66h-0.8v-2.7zm3.85 2.8c-0.72 0-1.26-0.25-1.6-0.76-0.35-0.51-0.53-1.23-0.53-2.17 0-0.93 0.18-1.65 0.53-2.16 0.34-0.51 0.88-0.76 1.6-0.76 0.27 0 0.51 0.03 0.71 0.11 0.21 0.07 0.38 0.17 0.53 0.3 0.14 0.12 0.27 0.27 0.37 0.44s0.18 0.36 0.24 0.55l-0.82 0.28c-0.04-0.13-0.09-0.26-0.14-0.37-0.06-0.11-0.12-0.21-0.2-0.29-0.09-0.08-0.18-0.15-0.29-0.2-0.11-0.04-0.25-0.07-0.41-0.07-0.4 0-0.69 0.15-0.88 0.46-0.18 0.3-0.27 0.72-0.27 1.24v0.95c0 0.52 0.09 0.93 0.27 1.24 0.19 0.3 0.48 0.46 0.88 0.46 0.16 0 0.3-0.03 0.41-0.08s0.2-0.11 0.29-0.19c0.08-0.08 0.14-0.18 0.2-0.29 0.05-0.12 0.1-0.24 0.14-0.37l0.82 0.28c-0.06 0.19-0.14 0.38-0.24 0.55s-0.23 0.31-0.37 0.44c-0.15 0.13-0.32 0.23-0.53 0.3-0.2 0.07-0.44 0.11-0.71 0.11zm3.85-0.1h-0.9v-5.66h2.11c0.54 0 0.96 0.16 1.24 0.46s0.43 0.72 0.43 1.25c0 0.43-0.11 0.79-0.32 1.07s-0.51 0.45-0.91 0.52l1.31 2.36h-1.01l-1.2-2.28h-0.75v2.28zm1.08-3.01c0.57 0 0.85-0.26 0.85-0.77v-0.35c0-0.51-0.28-0.77-0.85-0.77h-1.08v1.89h1.08z"/>
     <path id="=-MCR-%" fill-opacity=".6" fill="#1F2124" d="m0.19674 137.61v-1.71h9.188v1.71h-9.188zm0 4.1v-1.72h9.188v1.72h-9.188zm53.718-3.46l0.058-4.05h-0.154l-2.703 6.93-2.702-6.93h-0.154l0.057 4.05v6.45h-1.91v-13.48h2.644l2.065 5.35h0.135l2.085-5.35h2.49v13.48h-1.911v-6.45zm9.169 6.68c-1.712 0-2.982-0.61-3.812-1.82-0.83-1.2-1.245-2.92-1.245-5.15s0.415-3.94 1.245-5.15 2.1-1.82 3.812-1.82c0.656 0 1.225 0.09 1.708 0.26 0.483 0.18 0.898 0.42 1.245 0.72s0.64 0.65 0.878 1.06c0.238 0.4 0.435 0.84 0.589 1.3l-1.95 0.66c-0.103-0.31-0.218-0.6-0.347-0.87s-0.29-0.5-0.483-0.69c-0.193-0.2-0.421-0.35-0.685-0.47-0.264-0.11-0.589-0.17-0.975-0.17-0.952 0-1.647 0.36-2.084 1.09-0.438 0.73-0.657 1.71-0.657 2.94v2.28c0 1.24 0.219 2.22 0.657 2.94 0.437 0.73 1.132 1.09 2.084 1.09 0.386 0 0.711-0.05 0.975-0.17s0.492-0.27 0.685-0.46c0.193-0.2 0.354-0.43 0.483-0.7s0.244-0.56 0.347-0.87l1.95 0.66c-0.154 0.46-0.351 0.9-0.589 1.3-0.238 0.41-0.531 0.76-0.878 1.06-0.347 0.31-0.762 0.54-1.245 0.72-0.483 0.17-1.052 0.26-1.708 0.26zm9.168-0.23h-2.142v-13.48h5.038c1.287 0 2.268 0.36 2.943 1.09 0.676 0.72 1.014 1.71 1.014 2.97 0 1.03-0.251 1.88-0.753 2.55s-1.223 1.08-2.162 1.23l3.108 5.64h-2.394l-2.857-5.45h-1.795v5.45zm2.587-7.18c1.338 0 2.007-0.61 2.007-1.84v-0.83c0-1.22-0.669-1.83-2.007-1.83h-2.587v4.5h2.587zm20.036 0.46c-0.888 0-1.599-0.3-2.133-0.9s-0.801-1.46-0.801-2.59c0-1.14 0.267-2 0.801-2.6s1.245-0.9 2.133-0.9 1.599 0.3 2.133 0.9 0.801 1.46 0.801 2.6c0 1.13-0.267 1.99-0.801 2.59s-1.245 0.9-2.133 0.9zm0-1.31c0.424 0 0.752-0.15 0.984-0.46 0.232-0.3 0.348-0.72 0.348-1.26v-0.93c0-0.54-0.116-0.96-0.348-1.26s-0.56-0.45-0.984-0.45c-0.425 0-0.753 0.15-0.985 0.45-0.231 0.3-0.347 0.72-0.347 1.26v0.93c0 0.54 0.116 0.96 0.347 1.26 0.232 0.31 0.56 0.46 0.985 0.46zm6.405-5.45h1.74l-3.03 5.8h-1.718l3.008-5.8zm-6.386 7.69h1.718l-3.011 5.79h-1.738l3.031-5.79zm5.116 6.02c-0.889 0-1.6-0.3-2.134-0.9s-0.801-1.46-0.801-2.59c0-1.14 0.267-2 0.801-2.6s1.245-0.9 2.134-0.9c0.89 0 1.6 0.3 2.13 0.9 0.54 0.6 0.8 1.46 0.8 2.6 0 1.13-0.26 1.99-0.8 2.59-0.53 0.6-1.24 0.9-2.13 0.9zm0-1.31c0.42 0 0.75-0.15 0.98-0.46 0.24-0.3 0.35-0.72 0.35-1.26v-0.93c0-0.54-0.11-0.96-0.35-1.26-0.23-0.3-0.56-0.46-0.98-0.46-0.426 0-0.754 0.16-0.985 0.46-0.232 0.3-0.348 0.72-0.348 1.26v0.93c0 0.54 0.116 0.96 0.348 1.26 0.231 0.31 0.559 0.46 0.985 0.46z"/>
     <path id="Price" fill-opacity=".6" fill="#1F2124" d="m188.24 144.7v-13.48h5.04c1.28 0 2.27 0.36 2.94 1.09 0.68 0.72 1.01 1.71 1.01 2.97s-0.33 2.25-1.01 2.97c-0.67 0.72-1.66 1.08-2.94 1.08h-2.88v5.37h-2.16zm2.16-7.16h2.55c1.34 0 2.01-0.62 2.01-1.86v-0.83c0-1.22-0.67-1.83-2.01-1.83h-2.55v4.52zm9.27 5.46h2.64v-6.56h-2.64v-1.7h4.75v2.64h0.11c0.09-0.35 0.22-0.68 0.39-1 0.16-0.32 0.38-0.6 0.63-0.84 0.26-0.24 0.58-0.43 0.95-0.58s0.81-0.22 1.31-0.22h1.2v2.01h-1.97c-0.77 0-1.4 0.22-1.89 0.68s-0.73 1.07-0.73 1.84v3.73h3.6v1.7h-8.35v-1.7zm16.52-10.08c-0.54 0-0.92-0.11-1.13-0.32-0.21-0.22-0.32-0.49-0.32-0.82v-0.4c0-0.32 0.11-0.59 0.32-0.81s0.58-0.33 1.11-0.33c0.54 0 0.92 0.11 1.13 0.33s0.32 0.49 0.32 0.81v0.4c0 0.33-0.11 0.6-0.32 0.82-0.21 0.21-0.58 0.32-1.11 0.32zm-4.46 10.08h3.4v-6.56h-3.4v-1.7h5.5v8.26h3.19v1.7h-8.69v-1.7zm15.79 1.93c-0.75 0-1.41-0.12-2-0.37-0.58-0.24-1.08-0.59-1.48-1.04-0.41-0.45-0.72-1-0.93-1.64s-0.32-1.36-0.32-2.16 0.11-1.52 0.32-2.16c0.21-0.65 0.52-1.19 0.93-1.64 0.4-0.46 0.9-0.8 1.48-1.05 0.59-0.24 1.25-0.36 1.98-0.36 1.03 0 1.86 0.21 2.48 0.65 0.63 0.44 1.09 1.01 1.4 1.7l-1.64 0.89c-0.18-0.46-0.45-0.83-0.82-1.1s-0.84-0.41-1.42-0.41c-0.8 0-1.41 0.24-1.85 0.73-0.44 0.48-0.66 1.12-0.66 1.92v1.66c0 0.78 0.22 1.42 0.66 1.91s1.07 0.73 1.89 0.73c0.62 0 1.12-0.14 1.51-0.42 0.4-0.29 0.71-0.67 0.94-1.16l1.55 0.95c-0.33 0.69-0.82 1.26-1.47 1.7-0.66 0.45-1.51 0.67-2.55 0.67zm11.43 0c-0.76 0-1.44-0.12-2.05-0.37-0.6-0.24-1.11-0.59-1.52-1.04-0.42-0.45-0.73-0.99-0.95-1.63s-0.33-1.36-0.33-2.15c0-0.8 0.11-1.52 0.34-2.16 0.23-0.65 0.54-1.2 0.95-1.66 0.4-0.45 0.89-0.8 1.47-1.05 0.58-0.24 1.23-0.36 1.93-0.36s1.33 0.12 1.89 0.35c0.57 0.24 1.05 0.58 1.45 1.02 0.4 0.43 0.71 0.96 0.92 1.56s0.32 1.27 0.32 2.01v0.79h-7.14v0.33c0 0.78 0.24 1.42 0.73 1.92 0.49 0.49 1.16 0.74 2.03 0.74 0.64 0 1.19-0.14 1.65-0.41 0.45-0.28 0.82-0.65 1.11-1.11l1.31 1.15c-0.34 0.58-0.85 1.07-1.54 1.47-0.68 0.4-1.54 0.6-2.57 0.6zm-0.16-8.82c-0.37 0-0.71 0.06-1.03 0.19s-0.59 0.31-0.81 0.55c-0.23 0.24-0.4 0.52-0.53 0.84s-0.19 0.68-0.19 1.06v0.14h4.99v-0.2c0-0.78-0.22-1.41-0.66-1.88-0.45-0.47-1.03-0.7-1.77-0.7z"/>
     <path id="Line-3" fill-rule="nonzero" fill-opacity=".6" fill="#1F2124" d="m307.31 139.17h-53.52-0.77v-1.54h0.77 53.52v-5.09l12 5.86-12 5.86v-5.09z"/>
     <path id="Line-3" fill-rule="nonzero" fill-opacity=".6" fill="#1F2124" d="m159.07 138.79h-18.78-0.77v-1.55h0.77 18.78v-5.08l12 5.86-12 5.86v-5.09z"/>
     <g id="Group-2" transform="translate(17.144 30.888)">
      <g id="Group" transform="translate(5.4047 .38605)">
       <path id="Path-2" fill="url(#linearGradient-5)" d="m0.38605 186.27c54.22-0.95 92.696-2.11 115.42-3.48 32.87-1.97 62.35-3.75 86.48-8.3 117.36-24.58 178.48-80.166 183.37-166.77l0.75 192.25c0.01 2.76-2.22 5.01-4.98 5.02h-0.02-381.02l-0.00395-18.72z"/>
       <path id="Combined-Shape" fill="#1EAB89" d="m9.3259e-15 184.88l147.86-4.02c152.87-14.02 231.88-74.23 237.03-180.62l1.16-0.00264v15.016c-12.41 98.817-91.81 154.6-238.19 167.35l-147.86 4.4 1.038e-14 -2.12z"/>
       <g id="Rectangle-2" transform="translate(147.46 181.04) rotate(45) translate(-147.46 -181.04)">
        <use filter="url(#filter-7)" xlink:href="#path-6" fill="black"/>
        <use xlink:href="#path-6" fill-rule="evenodd" fill="#1EAB89"/>
       </g>
       <rect id="Rectangle-2" transform="translate(147.46 181.05) rotate(45) translate(-147.46 -181.05)" height="4.9015" width="4.9015" y="178.6" x="145.01" fill="#58CD9E"/>
      </g>
      <g id="Oval">
       <use filter="url(#filter-9)" xlink:href="#path-8" fill="black"/>
       <use xlink:href="#path-8" fill-rule="evenodd" fill="#1EAB89"/>
      </g>
      <g id="Oval">
       <use filter="url(#filter-11)" xlink:href="#path-10" fill="black"/>
       <use xlink:href="#path-10" fill-rule="evenodd" fill="#1EAB89"/>
      </g>
      <circle id="Oval-2" cy="186.07" cx="5.4047" r="3.0884" fill="#58CD9E"/>
      <path id="Triangle" fill="#58CD9E" d="m391.76 2.9205l2.32 3.3485c0.24 0.3506 0.15 0.8316-0.2 1.0743-0.13 0.0894-0.28 0.1373-0.44 0.1373h-4c-0.43 0-0.77-0.3457-0.77-0.7721 0-0.157 0.04-0.3104 0.13-0.4395l2.32-3.3485c0.12-0.1753 0.36-0.2191 0.54-0.0977 0.04 0.0264 0.07 0.0595 0.1 0.0977z" transform="translate(391.44 4.9713) rotate(3) translate(-391.44 -4.9713)"/>
     </g>
     <text id="MCR" font-size="10" font-family="IBMPlexMono-Medium, IBM Plex Mono" fill-opacity=".6" font-weight="400" fill="#1F2124">
      <tspan y="228.823256" x="161.404651">MCR</tspan>
     </text>
     <g id="Group-3" filter="url(#filter-12)" transform="translate(122.34 138.6) rotate(180) translate(-5.98 -15.45)">
      <rect id="Rectangle-3" height="21.233" width="3.0884" y="2.7023" x="4.4395" fill="#1EAB89"/>
      <g id="Group" transform="translate(5.9193 24.842) rotate(176) translate(-5.4047 -5.405)">
       <circle id="Oval" cy="5.4047" cx="5.4047" r="5.4047" fill="#1EAB89"/>
       <path id="Triangle" fill="#58CD9E" d="m5.7105 2.9205l2.3182 3.3485c0.2427 0.3506 0.1553 0.8316-0.1953 1.0743-0.1291 0.0894-0.2825 0.1373-0.4395 0.1373h-4.0017c-0.4264 0-0.7721-0.3457-0.7721-0.7721 0-0.157 0.0479-0.3104 0.1373-0.4395l2.3183-3.3485c0.1213-0.1753 0.3618-0.2191 0.5371-0.0977 0.0382 0.0264 0.0713 0.0595 0.0977 0.0977z" transform="translate(5.3931 4.9713) rotate(3) translate(-5.3931 -4.9713)"/>
      </g>
      <circle id="Oval-3" cy="2.8953" cx="5.9837" r="2.8953" fill="#1EAB89"/>
     </g>
     <g id="Group-4" transform="translate(338.33 82.233)">
      <g id="Combined-Shape" transform="translate(3.8605 7.3349)">
       <mask id="mask-14" fill="white">
        <use xlink:href="#path-13"/>
       </mask>
       <path mask="url(#mask-14)" d="m-332 117.22c96.6 1.27 168.73-3.64 216.38-14.76 83.837-19.88 136.4-57.458 157.7-112.73l-0.001 4.3264c-23.068 54.063-75.634 90.777-157.7 110.14-79.56 18.11-185.13 14.37-216.38 15.02v-2z" fill="#58CD9E"/>
      </g>
      <g id="Group" transform="translate(4.6371 56.205) rotate(20) translate(-3.4745 -3.474)">
       <g id="Oval">
        <use filter="url(#filter-16)" xlink:href="#path-15" fill="black"/>
        <use xlink:href="#path-15" fill-rule="evenodd" fill="#1EAB89"/>
       </g>
      </g>
      <g id="Group" transform="translate(42.265 6.7487) rotate(13) translate(-5.405 -5.4047)">
       <g id="Oval">
        <use filter="url(#filter-18)" xlink:href="#path-17" fill="black"/>
        <use xlink:href="#path-17" fill-rule="evenodd" fill="#1EAB89"/>
       </g>
       <path id="Triangle" fill="#58CD9E" d="m5.7105 2.9205l2.3182 3.3485c0.2427 0.3506 0.1553 0.8316-0.1953 1.0743-0.1291 0.0894-0.2825 0.1373-0.4395 0.1373h-4.0017c-0.4264 0-0.7721-0.3457-0.7721-0.7721 0-0.157 0.0479-0.3104 0.1373-0.4395l2.3183-3.3485c0.1213-0.1753 0.3618-0.2191 0.5371-0.0977 0.0382 0.0264 0.0713 0.0595 0.0977 0.0977z" transform="translate(5.3931 4.9713) rotate(3) translate(-5.3931 -4.9713)"/>
      </g>
     </g>
    </g>
   </g>
  </g>
 </g>
</svg>
