<?xml version="1.0" encoding="utf-8"?>
<!-- Generator: Adobe Illustrator 16.0.0, SVG Export Plug-In . SVG Version: 6.00 Build 0)  -->
<!DOCTYPE svg PUBLIC "-//W3C//DTD SVG 1.1//EN" "http://www.w3.org/Graphics/SVG/1.1/DTD/svg11.dtd">
<svg version="1.1" id="Layer_1" xmlns="http://www.w3.org/2000/svg" xmlns:xlink="http://www.w3.org/1999/xlink" x="0px" y="0px"
	 width="645px" height="401px" viewBox="0 0 645 401" enable-background="new 0 0 645 401" xml:space="preserve">
<filter  height="140.5%" width="140.5%" id="filter-9" filterUnits="objectBoundingBox" y="-14.5%" x="-14.5%">
	<feOffset  result="shadowOffsetOuter1" in="SourceAlpha" dy="1" dx="1"></feOffset>
	<feGaussianBlur  stdDeviation="1" result="shadowBlurOuter1" in="shadowOffsetOuter1"></feGaussianBlur>
	<feColorMatrix  type="matrix" values="0 0 0 0 0   0 0 0 0 0   0 0 0 0 0  0 0 0 0.5 0" in="shadowBlurOuter1"></feColorMatrix>
</filter>
<filter  height="140.5%" width="140.5%" id="filter-7" filterUnits="objectBoundingBox" y="-14.5%" x="-14.5%">
	<feOffset  result="shadowOffsetOuter1" in="SourceAlpha" dy="1" dx="1"></feOffset>
	<feGaussianBlur  stdDeviation="1" result="shadowBlurOuter1" in="shadowOffsetOuter1"></feGaussianBlur>
	<feColorMatrix  type="matrix" values="0 0 0 0 0   0 0 0 0 0   0 0 0 0 0  0 0 0 0.5 0" in="shadowBlurOuter1"></feColorMatrix>
</filter>
<filter  height="734.1%" width="734.1%" id="filter-5" filterUnits="objectBoundingBox" y="-269.8%" x="-283.3%">
	<feOffset  result="shadowOffsetOuter1" in="SourceAlpha" dy="6" dx="4"></feOffset>
	<feGaussianBlur  stdDeviation="14" result="shadowBlurOuter1" in="shadowOffsetOuter1"></feGaussianBlur>
	
		<feColorMatrix  type="matrix" values="0 0 0 0 0   0 0 0 0 0   0 0 0 0 0  0 0 0 0.5 0" result="shadowMatrixOuter1" in="shadowBlurOuter1">
		</feColorMatrix>
	<feOffset  result="shadowOffsetOuter2" in="SourceAlpha" dy="1" dx="1"></feOffset>
	<feGaussianBlur  stdDeviation="1" result="shadowBlurOuter2" in="shadowOffsetOuter2"></feGaussianBlur>
	
		<feColorMatrix  type="matrix" values="0 0 0 0 0   0 0 0 0 0   0 0 0 0 0  0 0 0 0.5 0" result="shadowMatrixOuter2" in="shadowBlurOuter2">
		</feColorMatrix>
	<feMerge>
		<feMergeNode  in="shadowMatrixOuter1"></feMergeNode>
		<feMergeNode  in="shadowMatrixOuter2"></feMergeNode>
	</feMerge>
</filter>
<filter  height="113.4%" width="108.1%" id="filter-2" filterUnits="objectBoundingBox" y="-5.4%" x="-3.6%">
	<feOffset  result="shadowOffsetOuter1" in="SourceAlpha" dy="4" dx="2"></feOffset>
	<feGaussianBlur  stdDeviation="7" result="shadowBlurOuter1" in="shadowOffsetOuter1"></feGaussianBlur>
	
		<feColorMatrix  type="matrix" values="0 0 0 0 0.792156863   0 0 0 0 0.823529412   0 0 0 0 0.878431373  0 0 0 0.7 0" result="shadowMatrixOuter1" in="shadowBlurOuter1">
		</feColorMatrix>
	<feOffset  result="shadowOffsetOuter2" in="SourceAlpha" dy="1" dx="1"></feOffset>
	<feGaussianBlur  stdDeviation="1" result="shadowBlurOuter2" in="shadowOffsetOuter2"></feGaussianBlur>
	
		<feColorMatrix  type="matrix" values="0 0 0 0 0.784313725   0 0 0 0 0.823529412   0 0 0 0 0.882352941  0 0 0 1 0" result="shadowMatrixOuter2" in="shadowBlurOuter2">
		</feColorMatrix>
	<feMerge>
		<feMergeNode  in="shadowMatrixOuter1"></feMergeNode>
		<feMergeNode  in="shadowMatrixOuter2"></feMergeNode>
	</feMerge>
</filter>
<filter  height="166.3%" width="165.7%" id="filter-15" filterUnits="objectBoundingBox" y="-26.5%" x="-32.9%">
	<feOffset  result="shadowOffsetOuter1" in="SourceAlpha" dy="1" dx="0"></feOffset>
	<feGaussianBlur  stdDeviation="1.5" result="shadowBlurOuter1" in="shadowOffsetOuter1"></feGaussianBlur>
	<feColorMatrix  type="matrix" values="0 0 0 0 0   0 0 0 0 0   0 0 0 0 0  0 0 0 0.5 0" in="shadowBlurOuter1"></feColorMatrix>
</filter>
<filter  height="209.1%" width="208.3%" id="filter-13" filterUnits="objectBoundingBox" y="-43.7%" x="-54.1%">
	<feOffset  result="shadowOffsetOuter1" in="SourceAlpha" dy="1" dx="0"></feOffset>
	<feGaussianBlur  stdDeviation="1.5" result="shadowBlurOuter1" in="shadowOffsetOuter1"></feGaussianBlur>
	<feColorMatrix  type="matrix" values="0 0 0 0 0   0 0 0 0 0   0 0 0 0 0  0 0 0 0.5 0" in="shadowBlurOuter1"></feColorMatrix>
</filter>
<title>3E97CF3C-84FA-49C4-9DFE-BF39D5296869</title>
<desc>Created with sketchtool.</desc>
<g id="Page-1">
	<g id="Token-Model-Page" transform="translate(-162.000000, -5047.000000)">
		<g id="Graph-8:-Purchasing-NXM" transform="translate(165.000000, 5057.000000)">
			<g id="Rectangle">
				<g filter="url(#filter-2)">
					<path id="path-1_3_" d="M13.648,0h607.706c2.761,0,5,2.239,5,5v363.391c0,2.763-2.239,5-5,5H13.648c-2.762,0-5-2.237-5-5V5
						C8.648,2.239,10.886,0,13.648,0z"/>
				</g>
				<g>
					<path id="path-1_1_" fill="#FFFFFF" d="M13.648,0h607.706c2.761,0,5,2.239,5,5v363.391c0,2.763-2.239,5-5,5H13.648
						c-2.762,0-5-2.237-5-5V5C8.648,2.239,10.886,0,13.648,0z"/>
				</g>
			</g>
			<path id="Line-Copy-4" fill="none" stroke="#E5E5E5" stroke-width="0.6177" stroke-linecap="square" d="M9.266,311.003H626.97"/>
			<path id="Line-Copy-3" fill="none" stroke="#E5E5E5" stroke-width="0.6177" stroke-linecap="square" d="M9.266,247.997H626.97"/>
			<path id="Line-Copy-2" fill="none" stroke="#E5E5E5" stroke-width="0.6177" stroke-linecap="square" d="M9.266,184.991H626.97"/>
			<path id="Line-Copy" fill="none" stroke="#E5E5E5" stroke-width="0.6177" stroke-linecap="square" d="M8.339,121.985H626.97"/>
			<path id="Line" fill="none" stroke="#E5E5E5" stroke-width="0.6177" stroke-linecap="square" d="M8.339,58.979H626.97"/>
			<rect id="Rectangle-9" x="389" y="164" fill="#FFFFFF" width="130" height="71"/>
			<g enable-background="new    ">
				<g>
					<path fill="#FFFFFF" d="M239.327,358.585l0.039-2.724h-0.104l-1.816,4.656l-1.816-4.656h-0.104l0.039,2.724v4.333h-1.284
						v-9.055h1.777l1.388,3.594h0.091l1.401-3.594h1.673v9.055h-1.284V358.585L239.327,358.585z"/>
					<path fill="#FFFFFF" d="M245.488,363.073c-1.15,0-2.004-0.406-2.562-1.22c-0.558-0.813-0.836-1.968-0.836-3.464
						s0.279-2.649,0.836-3.463c0.558-0.813,1.412-1.22,2.562-1.22c0.441,0,0.824,0.058,1.148,0.173
						c0.324,0.116,0.604,0.274,0.837,0.477c0.233,0.199,0.43,0.437,0.59,0.709c0.16,0.271,0.292,0.563,0.396,0.874l-1.31,0.439
						c-0.069-0.207-0.147-0.4-0.234-0.583c-0.087-0.182-0.194-0.338-0.324-0.468c-0.129-0.129-0.283-0.233-0.46-0.312
						c-0.177-0.077-0.396-0.116-0.655-0.116c-0.64,0-1.107,0.244-1.401,0.734c-0.294,0.491-0.441,1.152-0.441,1.986v1.536
						c0,0.833,0.147,1.495,0.441,1.984c0.294,0.49,0.761,0.735,1.401,0.735c0.259,0,0.478-0.038,0.655-0.116
						c0.177-0.078,0.331-0.182,0.46-0.312c0.13-0.13,0.238-0.285,0.324-0.467c0.086-0.183,0.165-0.377,0.234-0.584l1.31,0.44
						c-0.104,0.312-0.236,0.604-0.396,0.874c-0.16,0.271-0.357,0.508-0.59,0.709s-0.513,0.359-0.837,0.475
						C246.312,363.013,245.929,363.073,245.488,363.073z"/>
					<path fill="#FFFFFF" d="M251.649,362.918h-1.439v-9.055h3.385c0.865,0,1.524,0.242,1.979,0.726
						c0.454,0.482,0.681,1.147,0.681,1.993c0,0.69-0.168,1.26-0.506,1.708c-0.337,0.449-0.821,0.726-1.453,0.829l2.088,3.799h-1.608
						l-1.92-3.671h-1.207V362.918z M253.388,358.093c0.899,0,1.349-0.413,1.349-1.237v-0.561c0-0.825-0.45-1.238-1.349-1.238h-1.738
						v3.036H253.388z"/>
				</g>
			</g>
			<g enable-background="new    ">
				<path fill="#1EAB89" d="M407.456,174.591h-0.126v7.518h-1.372v-9.772h2.017l2.869,7.519h0.127v-7.519h1.371v9.772h-2.016
					L407.456,174.591z"/>
				<path fill="#1EAB89" d="M417.704,182.276c-0.551,0-1.046-0.089-1.483-0.266c-0.438-0.178-0.809-0.43-1.105-0.756
					c-0.299-0.327-0.527-0.722-0.688-1.184c-0.158-0.462-0.237-0.982-0.237-1.561c0-0.579,0.082-1.102,0.245-1.568
					c0.162-0.467,0.393-0.865,0.687-1.197c0.294-0.331,0.65-0.585,1.07-0.763c0.421-0.177,0.887-0.266,1.399-0.266
					c0.504,0,0.961,0.086,1.372,0.259c0.411,0.173,0.761,0.418,1.05,0.734c0.289,0.317,0.513,0.696,0.666,1.135
					c0.153,0.438,0.23,0.924,0.23,1.456v0.573h-5.18v0.237c0,0.565,0.177,1.026,0.53,1.384c0.355,0.356,0.847,0.535,1.472,0.535
					c0.467,0,0.864-0.1,1.196-0.299c0.33-0.199,0.601-0.466,0.806-0.8l0.95,0.843c-0.241,0.421-0.612,0.776-1.111,1.066
					S418.451,182.276,417.704,182.276z M417.592,175.878c-0.271,0-0.52,0.047-0.748,0.141c-0.229,0.093-0.426,0.227-0.589,0.398
					c-0.163,0.173-0.292,0.376-0.385,0.609s-0.14,0.49-0.14,0.771v0.098h3.625v-0.14c0-0.569-0.16-1.024-0.482-1.365
					C418.551,176.049,418.124,175.878,417.592,175.878z"/>
				<path fill="#1EAB89" d="M422.029,174.885h1.303l0.7,6.075h0.126l1.078-6.075h1.483l1.063,6.075h0.126l0.714-6.075h1.246
					l-1.009,7.224h-1.875l-0.968-5.6h-0.125l-0.979,5.6h-1.876L422.029,174.885z"/>
				<path fill="#1EAB89" d="M443.016,182.276c-0.541,0-1.023-0.089-1.448-0.266c-0.425-0.178-0.783-0.43-1.078-0.756
					c-0.293-0.327-0.519-0.724-0.672-1.19c-0.154-0.466-0.23-0.989-0.23-1.568c0-0.578,0.076-1.101,0.23-1.567
					c0.153-0.466,0.379-0.863,0.672-1.19c0.295-0.326,0.653-0.578,1.078-0.756c0.425-0.177,0.902-0.266,1.436-0.266
					c0.746,0,1.346,0.156,1.799,0.471c0.453,0.313,0.791,0.722,1.017,1.223l-1.19,0.645c-0.131-0.336-0.329-0.603-0.595-0.798
					c-0.268-0.196-0.609-0.295-1.029-0.295c-0.579,0-1.027,0.177-1.344,0.528c-0.318,0.353-0.478,0.819-0.478,1.401v1.21
					c0,0.573,0.158,1.037,0.478,1.394c0.315,0.357,0.773,0.535,1.371,0.535c0.449,0,0.813-0.103,1.1-0.308s0.511-0.485,0.679-0.84
					l1.12,0.686c-0.232,0.502-0.588,0.912-1.063,1.23C444.388,182.117,443.771,182.276,443.016,182.276z"/>
				<path fill="#1EAB89" d="M451.15,182.276c-0.533,0-1.013-0.089-1.437-0.266c-0.425-0.178-0.784-0.43-1.078-0.756
					c-0.294-0.327-0.521-0.724-0.68-1.19c-0.158-0.467-0.237-0.989-0.237-1.568c0-0.578,0.079-1.101,0.237-1.567
					c0.159-0.467,0.386-0.863,0.68-1.19c0.294-0.326,0.653-0.578,1.078-0.756c0.424-0.177,0.902-0.266,1.437-0.266
					c0.53,0,1.01,0.089,1.434,0.266c0.426,0.178,0.785,0.43,1.078,0.756c0.295,0.327,0.521,0.724,0.68,1.19
					c0.159,0.466,0.238,0.989,0.238,1.567c0,0.579-0.08,1.102-0.238,1.568s-0.385,0.863-0.68,1.19
					c-0.293,0.326-0.652,0.578-1.078,0.756C452.16,182.188,451.682,182.276,451.15,182.276z M451.15,181.072
					c0.559,0,1.005-0.17,1.336-0.511c0.332-0.341,0.498-0.847,0.498-1.52v-1.092c0-0.672-0.166-1.178-0.498-1.519
					c-0.331-0.341-0.777-0.512-1.336-0.512c-0.562,0-1.007,0.171-1.339,0.512c-0.33,0.341-0.495,0.847-0.495,1.519v1.092
					c0,0.673,0.165,1.179,0.495,1.52C450.145,180.902,450.59,181.072,451.15,181.072z"/>
				<path fill="#1EAB89" d="M458.611,182.108l-2.59-7.224h1.581l0.994,3.052l0.938,2.897h0.084l0.938-2.897l0.994-3.052h1.526
					l-2.59,7.224H458.611z"/>
				<path fill="#1EAB89" d="M468.104,182.276c-0.551,0-1.045-0.089-1.483-0.266c-0.438-0.178-0.808-0.43-1.105-0.756
					c-0.299-0.327-0.526-0.722-0.686-1.184c-0.16-0.462-0.238-0.982-0.238-1.561c0-0.579,0.081-1.102,0.244-1.568
					c0.164-0.467,0.393-0.865,0.687-1.197c0.295-0.331,0.651-0.585,1.071-0.763c0.42-0.177,0.888-0.266,1.4-0.266
					c0.504,0,0.961,0.086,1.371,0.259c0.41,0.173,0.761,0.418,1.051,0.734c0.289,0.317,0.51,0.696,0.664,1.135
					s0.23,0.924,0.23,1.456v0.573h-5.181v0.237c0,0.565,0.178,1.026,0.533,1.384c0.354,0.356,0.844,0.535,1.469,0.535
					c0.467,0,0.866-0.1,1.197-0.299c0.332-0.199,0.6-0.466,0.805-0.8l0.953,0.843c-0.243,0.421-0.614,0.776-1.113,1.066
					C469.473,182.131,468.85,182.276,468.104,182.276z M467.992,175.878c-0.271,0-0.521,0.047-0.75,0.141
					c-0.229,0.093-0.424,0.227-0.588,0.398c-0.163,0.173-0.291,0.376-0.386,0.609c-0.094,0.233-0.141,0.49-0.141,0.771v0.098h3.627
					v-0.14c0-0.569-0.161-1.024-0.482-1.365C468.951,176.049,468.523,175.878,467.992,175.878z"/>
				<path fill="#1EAB89" d="M473.213,180.862h1.918v-4.731h-1.918v-1.246h3.444v1.918h0.084c0.064-0.252,0.159-0.495,0.28-0.729
					c0.12-0.234,0.274-0.436,0.462-0.608c0.187-0.172,0.415-0.313,0.687-0.421c0.271-0.106,0.588-0.16,0.951-0.16h0.868v1.456
					h-1.429c-0.56,0-1.018,0.165-1.371,0.495c-0.355,0.33-0.532,0.774-0.532,1.333v2.693h2.618v1.246h-6.063L473.213,180.862
					L473.213,180.862z"/>
				<path fill="#1EAB89" d="M484.763,182.276c-0.784,0-1.458-0.126-2.021-0.378c-0.565-0.252-1.021-0.588-1.365-1.008l0.938-0.84
					c0.316,0.345,0.674,0.608,1.07,0.791c0.396,0.182,0.866,0.272,1.407,0.272c0.494,0,0.894-0.084,1.197-0.252
					c0.303-0.168,0.455-0.429,0.455-0.784c0-0.148-0.028-0.275-0.084-0.378c-0.058-0.103-0.137-0.187-0.238-0.252
					c-0.104-0.065-0.223-0.116-0.357-0.154c-0.135-0.037-0.276-0.064-0.427-0.084l-1.146-0.182
					c-0.281-0.037-0.565-0.098-0.854-0.182c-0.29-0.084-0.548-0.203-0.777-0.357c-0.229-0.154-0.415-0.352-0.56-0.595
					c-0.145-0.243-0.217-0.551-0.217-0.924c0-0.737,0.281-1.298,0.847-1.681c0.564-0.382,1.31-0.573,2.233-0.573
					c0.672,0,1.252,0.1,1.741,0.301c0.49,0.2,0.898,0.479,1.226,0.833l-0.854,0.896c-0.187-0.214-0.452-0.413-0.798-0.595
					c-0.345-0.182-0.803-0.273-1.372-0.273c-1.018,0-1.524,0.322-1.524,0.967c0,0.308,0.108,0.521,0.328,0.637
					c0.22,0.117,0.479,0.193,0.776,0.23l1.148,0.183c0.289,0.047,0.576,0.107,0.86,0.182c0.283,0.075,0.541,0.189,0.771,0.343
					c0.229,0.154,0.415,0.353,0.56,0.596c0.146,0.242,0.219,0.551,0.219,0.924c0,0.728-0.283,1.3-0.849,1.715
					C486.53,182.069,485.752,182.276,484.763,182.276z"/>
			</g>
			<g enable-background="new    ">
				<path fill="#1EAB89" d="M406.364,198.861h2.464v-4.73h-2.464v-1.246h3.989v5.979h2.311v1.246h-6.3V198.861L406.364,198.861z
					 M409.598,191.568c-0.392,0-0.664-0.08-0.817-0.238c-0.154-0.158-0.23-0.354-0.23-0.588v-0.294c0-0.233,0.076-0.429,0.23-0.588
					c0.153-0.158,0.422-0.238,0.805-0.238c0.393,0,0.665,0.08,0.819,0.238c0.152,0.159,0.23,0.354,0.23,0.588v0.294
					c0,0.233-0.078,0.43-0.23,0.588C410.249,191.488,409.98,191.568,409.598,191.568z"/>
				<path fill="#1EAB89" d="M414.525,200.107v-7.224h1.526v1.231h0.069c0.075-0.188,0.171-0.366,0.287-0.539
					c0.116-0.172,0.259-0.321,0.427-0.447c0.168-0.127,0.364-0.227,0.588-0.302c0.226-0.074,0.485-0.111,0.784-0.111
					c0.728,0,1.315,0.237,1.765,0.714c0.447,0.477,0.672,1.152,0.672,2.029v4.648h-1.525v-4.424c0-1.148-0.499-1.724-1.498-1.724
					c-0.196,0-0.388,0.026-0.574,0.077c-0.187,0.052-0.354,0.129-0.504,0.23c-0.15,0.103-0.269,0.233-0.356,0.393
					c-0.09,0.158-0.133,0.341-0.133,0.546v4.899h-1.527V200.107z"/>
				<path fill="#1EAB89" d="M426.216,200.275c-0.541,0-1.023-0.088-1.448-0.266c-0.426-0.178-0.784-0.43-1.077-0.756
					c-0.296-0.327-0.52-0.725-0.673-1.189c-0.153-0.467-0.23-0.989-0.23-1.568c0-0.578,0.077-1.102,0.23-1.566
					c0.153-0.468,0.377-0.863,0.673-1.191c0.293-0.325,0.651-0.577,1.077-0.756c0.425-0.176,0.902-0.266,1.436-0.266
					c0.747,0,1.347,0.156,1.799,0.471c0.452,0.313,0.791,0.723,1.015,1.224l-1.188,0.646c-0.131-0.336-0.329-0.604-0.596-0.799
					s-0.608-0.295-1.028-0.295c-0.579,0-1.026,0.178-1.345,0.528c-0.316,0.353-0.477,0.819-0.477,1.401v1.209
					c0,0.573,0.159,1.037,0.477,1.395s0.774,0.535,1.373,0.535c0.446,0,0.813-0.104,1.099-0.309c0.284-0.205,0.511-0.484,0.679-0.84
					l1.12,0.686c-0.233,0.502-0.588,0.912-1.063,1.23C427.588,200.117,426.973,200.275,426.216,200.275z"/>
				<path fill="#1EAB89" d="M431.214,198.861h1.918v-4.73h-1.918v-1.246h3.444v1.918h0.084c0.063-0.252,0.158-0.494,0.279-0.729
					c0.12-0.234,0.274-0.436,0.463-0.608c0.186-0.173,0.414-0.313,0.686-0.421c0.271-0.105,0.588-0.16,0.952-0.16h0.868v1.456
					h-1.428c-0.562,0-1.019,0.165-1.373,0.495s-0.531,0.773-0.531,1.333v2.692h2.617v1.246h-6.063L431.214,198.861L431.214,198.861z
					"/>
				<path fill="#1EAB89" d="M442.904,200.275c-0.552,0-1.046-0.088-1.484-0.266s-0.808-0.43-1.104-0.756
					c-0.3-0.327-0.527-0.722-0.688-1.184c-0.16-0.463-0.238-0.982-0.238-1.562s0.081-1.102,0.245-1.567
					c0.163-0.467,0.394-0.865,0.687-1.197c0.295-0.331,0.65-0.585,1.07-0.764c0.421-0.176,0.888-0.266,1.4-0.266
					c0.504,0,0.961,0.086,1.372,0.26c0.41,0.172,0.76,0.418,1.05,0.733c0.289,0.317,0.511,0.696,0.665,1.135s0.23,0.925,0.23,1.456
					v0.573h-5.181v0.237c0,0.564,0.179,1.025,0.532,1.384c0.354,0.356,0.845,0.534,1.47,0.534c0.468,0,0.865-0.1,1.197-0.299
					c0.331-0.199,0.6-0.465,0.805-0.799l0.952,0.842c-0.243,0.422-0.614,0.776-1.111,1.066
					C444.273,200.131,443.65,200.275,442.904,200.275z M442.792,193.878c-0.271,0-0.521,0.047-0.749,0.142
					c-0.229,0.092-0.425,0.227-0.588,0.397c-0.164,0.173-0.292,0.376-0.385,0.608c-0.095,0.233-0.142,0.49-0.142,0.771v0.098h3.626
					v-0.14c0-0.569-0.161-1.024-0.482-1.364C443.751,194.049,443.324,193.878,442.792,193.878z"/>
				<path fill="#1EAB89" d="M453.838,200.107c-0.438,0-0.768-0.111-0.987-0.336c-0.219-0.224-0.353-0.518-0.398-0.881h-0.069
					c-0.14,0.438-0.395,0.778-0.763,1.021c-0.369,0.243-0.838,0.364-1.407,0.364c-0.737,0-1.325-0.193-1.765-0.582
					c-0.438-0.387-0.658-0.922-0.658-1.603c0-0.7,0.26-1.233,0.777-1.604c0.518-0.367,1.313-0.553,2.387-0.553h1.387v-0.561
					c0-0.979-0.518-1.471-1.555-1.471c-0.467,0-0.844,0.092-1.133,0.273c-0.29,0.182-0.533,0.422-0.729,0.721l-0.91-0.742
					c0.205-0.391,0.552-0.729,1.036-1.014c0.485-0.285,1.11-0.428,1.876-0.428c0.914,0,1.633,0.219,2.156,0.657
					c0.522,0.438,0.783,1.073,0.783,1.903v3.627h0.91v1.203h-0.938V200.107z M450.646,199.156c0.494,0,0.9-0.111,1.218-0.334
					c0.316-0.223,0.477-0.51,0.477-0.862v-1.044h-1.356c-1.103,0-1.652,0.33-1.652,0.988v0.277c0,0.324,0.116,0.568,0.35,0.73
					C449.916,199.074,450.234,199.156,450.646,199.156z"/>
				<path fill="#1EAB89" d="M459.563,200.275c-0.783,0-1.457-0.125-2.021-0.377c-0.565-0.252-1.02-0.588-1.365-1.008l0.938-0.841
					c0.316,0.345,0.674,0.608,1.07,0.791s0.866,0.272,1.407,0.272c0.494,0,0.895-0.084,1.197-0.252s0.455-0.43,0.455-0.784
					c0-0.147-0.028-0.274-0.084-0.378c-0.058-0.104-0.136-0.188-0.238-0.252c-0.104-0.065-0.223-0.116-0.356-0.154
					c-0.136-0.037-0.277-0.064-0.428-0.084l-1.146-0.182c-0.281-0.037-0.565-0.098-0.854-0.182c-0.29-0.085-0.548-0.203-0.776-0.357
					c-0.229-0.154-0.415-0.353-0.561-0.596c-0.145-0.242-0.217-0.551-0.217-0.924c0-0.736,0.281-1.298,0.847-1.681
					c0.564-0.382,1.311-0.573,2.233-0.573c0.672,0,1.252,0.1,1.742,0.301c0.489,0.2,0.897,0.479,1.225,0.834l-0.854,0.896
					c-0.188-0.214-0.453-0.413-0.799-0.595c-0.345-0.183-0.803-0.273-1.372-0.273c-1.018,0-1.524,0.322-1.524,0.967
					c0,0.309,0.108,0.521,0.328,0.637c0.22,0.117,0.479,0.193,0.776,0.23l1.148,0.184c0.289,0.047,0.576,0.106,0.861,0.182
					c0.282,0.074,0.541,0.189,0.77,0.343c0.229,0.153,0.415,0.353,0.561,0.597c0.146,0.241,0.218,0.551,0.218,0.924
					c0,0.728-0.283,1.299-0.849,1.715C461.33,200.068,460.553,200.275,459.563,200.275z"/>
				<path fill="#1EAB89" d="M468.104,200.275c-0.551,0-1.045-0.088-1.483-0.266s-0.808-0.43-1.105-0.756
					c-0.299-0.327-0.526-0.722-0.686-1.184c-0.16-0.463-0.238-0.982-0.238-1.562s0.081-1.102,0.244-1.567
					c0.164-0.467,0.393-0.865,0.687-1.197c0.295-0.331,0.651-0.585,1.071-0.764c0.42-0.176,0.888-0.266,1.4-0.266
					c0.504,0,0.961,0.086,1.371,0.26c0.41,0.172,0.761,0.418,1.051,0.733c0.289,0.317,0.51,0.696,0.664,1.135s0.23,0.925,0.23,1.456
					v0.573h-5.181v0.237c0,0.564,0.178,1.025,0.533,1.384c0.354,0.356,0.844,0.534,1.469,0.534c0.467,0,0.866-0.1,1.197-0.299
					c0.332-0.199,0.6-0.465,0.805-0.799l0.953,0.842c-0.243,0.422-0.614,0.776-1.113,1.066
					C469.473,200.131,468.85,200.275,468.104,200.275z M467.992,193.878c-0.271,0-0.521,0.047-0.75,0.142
					c-0.229,0.092-0.424,0.227-0.588,0.397c-0.163,0.173-0.291,0.376-0.386,0.608c-0.094,0.233-0.141,0.49-0.141,0.771v0.098h3.627
					v-0.14c0-0.569-0.161-1.024-0.482-1.364C468.951,194.049,468.523,193.878,467.992,193.878z"/>
				<path fill="#1EAB89" d="M485.183,200.107c-0.635,0-1.101-0.17-1.398-0.51s-0.448-0.779-0.448-1.32v-4.146h-2.226v-1.246h1.582
					c0.27,0,0.461-0.054,0.572-0.16c0.112-0.107,0.168-0.302,0.168-0.582v-1.807h1.43v2.549h3.08v1.246h-3.08v4.73h3.08v1.246
					H485.183z"/>
				<path fill="#1EAB89" d="M490.125,189.748h1.525v4.368h0.069c0.074-0.187,0.17-0.366,0.287-0.539s0.259-0.321,0.427-0.447
					c0.168-0.127,0.364-0.228,0.59-0.302c0.223-0.074,0.483-0.111,0.782-0.111c0.729,0,1.316,0.237,1.765,0.715
					c0.447,0.476,0.672,1.151,0.672,2.028v4.647h-1.525v-4.424c0-1.147-0.5-1.723-1.498-1.723c-0.194,0-0.387,0.025-0.574,0.077
					c-0.187,0.052-0.354,0.129-0.504,0.231c-0.149,0.102-0.268,0.232-0.356,0.392c-0.088,0.159-0.133,0.341-0.133,0.546v4.9h-1.525
					L490.125,189.748L490.125,189.748z"/>
				<path fill="#1EAB89" d="M501.703,200.275c-0.551,0-1.046-0.088-1.484-0.266s-0.808-0.43-1.104-0.756
					c-0.299-0.327-0.527-0.722-0.688-1.184c-0.16-0.463-0.237-0.982-0.237-1.562s0.08-1.102,0.244-1.567
					c0.163-0.467,0.394-0.865,0.687-1.197c0.295-0.331,0.65-0.585,1.071-0.764c0.421-0.176,0.887-0.266,1.399-0.266
					c0.504,0,0.961,0.086,1.372,0.26c0.41,0.172,0.76,0.418,1.05,0.733c0.289,0.317,0.512,0.696,0.665,1.135
					c0.154,0.438,0.23,0.925,0.23,1.456v0.573h-5.181v0.237c0,0.564,0.179,1.025,0.532,1.384c0.354,0.356,0.846,0.534,1.471,0.534
					c0.467,0,0.864-0.1,1.196-0.299c0.331-0.199,0.601-0.465,0.806-0.799l0.951,0.842c-0.242,0.422-0.613,0.776-1.111,1.066
					C503.072,200.131,502.449,200.275,501.703,200.275z M501.591,193.878c-0.271,0-0.521,0.047-0.749,0.142
					c-0.229,0.092-0.425,0.227-0.588,0.397c-0.164,0.173-0.292,0.376-0.385,0.608c-0.094,0.233-0.142,0.49-0.142,0.771v0.098h3.626
					v-0.14c0-0.569-0.16-1.024-0.482-1.364C502.55,194.049,502.123,193.878,501.591,193.878z"/>
			</g>
			<g enable-background="new    ">
				<path fill="#1EAB89" d="M409.584,218.107c-0.635,0-1.102-0.17-1.4-0.51c-0.298-0.34-0.446-0.779-0.446-1.32v-4.146h-2.228
					v-1.246h1.582c0.271,0,0.463-0.054,0.574-0.16c0.112-0.107,0.168-0.302,0.168-0.582v-1.807h1.428v2.549h3.08v1.246h-3.08v4.73
					h3.08v1.246H409.584z"/>
				<path fill="#1EAB89" d="M417.551,218.275c-0.533,0-1.012-0.088-1.436-0.266c-0.425-0.178-0.784-0.43-1.078-0.756
					c-0.294-0.327-0.521-0.725-0.68-1.189c-0.158-0.467-0.237-0.989-0.237-1.568c0-0.578,0.079-1.102,0.237-1.566
					c0.158-0.468,0.386-0.863,0.68-1.191c0.294-0.325,0.653-0.577,1.078-0.756c0.424-0.176,0.901-0.266,1.436-0.266
					c0.531,0,1.01,0.09,1.435,0.266c0.426,0.179,0.784,0.431,1.077,0.756c0.296,0.328,0.521,0.725,0.681,1.191
					c0.159,0.465,0.238,0.988,0.238,1.566c0,0.579-0.08,1.102-0.238,1.568c-0.158,0.465-0.385,0.862-0.681,1.189
					c-0.293,0.326-0.651,0.578-1.077,0.756C418.561,218.188,418.082,218.275,417.551,218.275z M417.551,217.072
					c0.56,0,1.005-0.17,1.336-0.512c0.332-0.34,0.498-0.847,0.498-1.52v-1.092c0-0.672-0.166-1.178-0.498-1.52
					c-0.331-0.341-0.776-0.512-1.336-0.512c-0.561,0-1.006,0.171-1.338,0.512c-0.331,0.342-0.496,0.848-0.496,1.52v1.092
					c0,0.673,0.165,1.18,0.496,1.52C416.545,216.902,416.99,217.072,417.551,217.072z"/>
				<path fill="#1EAB89" d="M422.982,207.748h1.524v6.259h0.07l1.134-1.161l2.03-1.961h1.806l-2.926,2.842l3.248,4.383h-1.834
					l-2.521-3.514l-1.008,0.938v2.576h-1.524L422.982,207.748L422.982,207.748z"/>
				<path fill="#1EAB89" d="M434.504,218.275c-0.551,0-1.045-0.088-1.484-0.266c-0.438-0.178-0.807-0.43-1.104-0.756
					c-0.299-0.327-0.527-0.722-0.687-1.184c-0.159-0.463-0.237-0.982-0.237-1.562s0.081-1.102,0.244-1.567
					c0.164-0.467,0.393-0.865,0.687-1.197c0.294-0.331,0.651-0.585,1.071-0.764c0.42-0.176,0.887-0.266,1.399-0.266
					c0.504,0,0.961,0.086,1.371,0.26c0.41,0.172,0.762,0.418,1.052,0.733c0.288,0.317,0.51,0.696,0.663,1.135
					c0.154,0.438,0.231,0.925,0.231,1.456v0.573h-5.181v0.237c0,0.564,0.178,1.025,0.532,1.384c0.354,0.356,0.845,0.534,1.47,0.534
					c0.467,0,0.865-0.1,1.196-0.299c0.332-0.199,0.601-0.465,0.806-0.799l0.953,0.842c-0.243,0.422-0.614,0.776-1.113,1.066
					C435.873,218.131,435.25,218.275,434.504,218.275z M434.393,211.878c-0.271,0-0.521,0.047-0.75,0.142
					c-0.229,0.092-0.424,0.227-0.588,0.397c-0.163,0.173-0.291,0.376-0.385,0.608c-0.094,0.233-0.141,0.49-0.141,0.771v0.098h3.627
					v-0.14c0-0.569-0.161-1.024-0.483-1.364C435.352,212.049,434.924,211.878,434.393,211.878z"/>
				<path fill="#1EAB89" d="M439.726,218.107v-7.224h1.526v1.231h0.07c0.074-0.188,0.17-0.366,0.287-0.539
					c0.115-0.172,0.258-0.321,0.426-0.447c0.168-0.127,0.365-0.227,0.589-0.302c0.224-0.074,0.485-0.111,0.784-0.111
					c0.728,0,1.314,0.237,1.764,0.714c0.447,0.477,0.672,1.152,0.672,2.029v4.648h-1.524v-4.424c0-1.148-0.5-1.724-1.498-1.724
					c-0.196,0-0.389,0.026-0.574,0.077c-0.188,0.052-0.355,0.129-0.504,0.23c-0.15,0.104-0.27,0.233-0.357,0.393
					c-0.089,0.158-0.133,0.341-0.133,0.546v4.899h-1.527V218.107z"/>
				<path fill="#1EAB89" d="M456.455,210.885h1.526v1.231h0.084c0.215-0.438,0.499-0.781,0.854-1.029
					c0.354-0.247,0.798-0.37,1.33-0.37c0.849,0,1.525,0.317,2.029,0.951c0.504,0.635,0.756,1.578,0.756,2.828
					c0,1.251-0.252,2.193-0.756,2.828s-1.182,0.951-2.029,0.951c-0.532,0-0.976-0.123-1.33-0.371
					c-0.354-0.246-0.64-0.59-0.854-1.028h-0.084v4.032h-1.526V210.885z M459.619,217.029c0.579,0,1.023-0.176,1.338-0.531
					c0.313-0.354,0.469-0.825,0.469-1.414v-1.176c0-0.588-0.156-1.059-0.469-1.414c-0.313-0.354-0.759-0.532-1.338-0.532
					c-0.225,0-0.435,0.028-0.629,0.085c-0.197,0.057-0.369,0.141-0.52,0.252c-0.148,0.111-0.269,0.249-0.355,0.412
					c-0.09,0.164-0.134,0.357-0.134,0.581v2.408c0,0.225,0.044,0.418,0.134,0.581c0.088,0.162,0.207,0.301,0.355,0.412
					c0.149,0.113,0.321,0.197,0.52,0.252C459.186,217.002,459.396,217.029,459.619,217.029z"/>
				<path fill="#1EAB89" d="M464.813,216.861h1.919v-4.73h-1.919v-1.246h3.444v1.918h0.084c0.064-0.252,0.158-0.494,0.279-0.729
					s0.274-0.436,0.463-0.608c0.186-0.173,0.414-0.313,0.686-0.421c0.271-0.105,0.589-0.16,0.952-0.16h0.868v1.456h-1.428
					c-0.562,0-1.019,0.165-1.373,0.495s-0.531,0.773-0.531,1.333v2.692h2.617v1.246h-6.062V216.861L464.813,216.861z"/>
				<path fill="#1EAB89" d="M473.563,216.861h2.465v-4.73h-2.465v-1.246h3.989v5.979h2.312v1.246h-6.3L473.563,216.861
					L473.563,216.861z M476.797,209.568c-0.392,0-0.664-0.08-0.818-0.238c-0.153-0.158-0.229-0.354-0.229-0.588v-0.295
					c0-0.232,0.076-0.428,0.229-0.588c0.154-0.157,0.423-0.237,0.806-0.237c0.393,0,0.665,0.08,0.818,0.237
					c0.153,0.16,0.231,0.354,0.231,0.588v0.295c0,0.232-0.078,0.43-0.231,0.588C477.448,209.488,477.18,209.568,476.797,209.568z"/>
				<path fill="#1EAB89" d="M485.015,218.275c-0.541,0-1.023-0.088-1.447-0.266c-0.427-0.178-0.785-0.43-1.078-0.756
					c-0.295-0.327-0.52-0.725-0.672-1.189c-0.154-0.467-0.231-0.989-0.231-1.568c0-0.578,0.077-1.102,0.231-1.566
					c0.152-0.468,0.377-0.863,0.672-1.191c0.293-0.325,0.651-0.577,1.078-0.756c0.424-0.176,0.901-0.266,1.435-0.266
					c0.747,0,1.347,0.156,1.799,0.471c0.452,0.313,0.791,0.723,1.016,1.224l-1.189,0.646c-0.131-0.336-0.329-0.604-0.596-0.799
					s-0.608-0.295-1.028-0.295c-0.579,0-1.026,0.178-1.345,0.528c-0.316,0.353-0.477,0.819-0.477,1.401v1.209
					c0,0.573,0.159,1.037,0.477,1.395s0.774,0.535,1.373,0.535c0.446,0,0.813-0.104,1.099-0.309c0.284-0.205,0.511-0.484,0.679-0.84
					l1.12,0.686c-0.232,0.502-0.588,0.912-1.063,1.23C486.387,218.117,485.771,218.275,485.015,218.275z"/>
				<path fill="#1EAB89" d="M493.303,218.275c-0.551,0-1.045-0.088-1.483-0.266s-0.808-0.43-1.105-0.756
					c-0.299-0.327-0.527-0.722-0.686-1.184c-0.16-0.463-0.238-0.982-0.238-1.562s0.081-1.102,0.244-1.567
					c0.164-0.467,0.393-0.865,0.687-1.197c0.294-0.331,0.651-0.585,1.071-0.764c0.42-0.176,0.887-0.266,1.4-0.266
					c0.504,0,0.961,0.086,1.37,0.26c0.41,0.172,0.762,0.418,1.052,0.733c0.289,0.317,0.51,0.696,0.664,1.135
					c0.153,0.438,0.23,0.925,0.23,1.456v0.573h-5.181v0.237c0,0.564,0.178,1.025,0.533,1.384c0.354,0.356,0.844,0.534,1.469,0.534
					c0.467,0,0.866-0.1,1.197-0.299c0.332-0.199,0.6-0.465,0.805-0.799l0.953,0.842c-0.243,0.422-0.614,0.776-1.113,1.066
					C494.672,218.131,494.049,218.275,493.303,218.275z M493.191,211.878c-0.271,0-0.521,0.047-0.75,0.142
					c-0.229,0.092-0.425,0.227-0.589,0.397c-0.162,0.173-0.29,0.376-0.385,0.608c-0.094,0.233-0.141,0.49-0.141,0.771v0.098h3.627
					v-0.14c0-0.569-0.161-1.024-0.483-1.364C494.15,212.049,493.723,211.878,493.191,211.878z"/>
			</g>
			<g id="Group-2" transform="translate(0.000000, 46.007782)">
				<g id="Group" transform="translate(8.647860, 0.617704)">
					
						<linearGradient id="Path-2_1_" gradientUnits="userSpaceOnUse" x1="110.94" y1="1.165" x2="111.94" y2="1.165" gradientTransform="matrix(617.6848 0 0 315.6469 -68525.3281 -197.5474)">
						<stop  offset="0" style="stop-color:#1EAB89;stop-opacity:0"/>
						<stop  offset="1" style="stop-color:#1EAB89;stop-opacity:0.2"/>
					</linearGradient>
					<path id="Path-2" fill="url(#Path-2_1_)" d="M0.618,298.042c86.756-1.521,148.321-3.375,184.693-5.561
						c52.596-3.159,99.759-6.004,138.365-13.28c187.782-39.327,285.586-128.276,293.409-266.849l1.217,310.627
						c0.011,2.762-2.22,5.009-4.98,5.02c-0.007,0-0.013,0.002-0.02,0.002H0.618V298.042z"/>
					<path id="Combined-Shape" fill="#1EAB89" d="M0,295.826l236.581-6.432C481.192,266.952,607.615,170.613,615.851,0.38h1.854
						v24.025c-19.85,158.11-146.892,247.367-381.124,267.77L0,299.21V295.826z"/>
					<g id="Rectangle-2" transform="translate(235.944852, 289.685124) rotate(-315.000000) translate(-235.944852, -289.685124) ">
						<g filter="url(#filter-5)">
							<rect id="path-4_3_" x="228.532" y="282.273" width="14.825" height="14.825"/>
						</g>
						<g>
							<rect id="path-4_1_" x="228.532" y="282.273" fill="#1EAB89" width="14.825" height="14.825"/>
						</g>
					</g>
					
						<rect id="Rectangle-2_1_" x="232.027" y="285.772" transform="matrix(0.7071 0.7071 -0.7071 0.7071 273.9521 -81.9913)" fill="#58CD9E" width="7.843" height="7.843"/>
				</g>
				<g id="Oval">
					<g filter="url(#filter-7)">
						<circle id="path-6_3_" cx="8.648" cy="297.733" r="8.647"/>
					</g>
					<g>
						<circle id="path-6_1_" fill="#1EAB89" cx="8.648" cy="297.733" r="8.647"/>
					</g>
				</g>
				<g id="Oval_1_">
					<g filter="url(#filter-9)">
						<circle id="path-8_3_" cx="626.354" cy="8.648" r="8.648"/>
					</g>
					<g>
						<circle id="path-8_1_" fill="#1EAB89" cx="626.354" cy="8.648" r="8.648"/>
					</g>
				</g>
				<circle id="Oval-2" fill="#58CD9E" cx="8.648" cy="297.733" r="4.941"/>
				<path id="Triangle" fill="#58CD9E" d="M627.013,4.704l3.425,5.545c0.357,0.58,0.179,1.341-0.402,1.7
					c-0.214,0.132-0.463,0.195-0.714,0.182l-6.395-0.335c-0.682-0.036-1.205-0.617-1.169-1.298c0.014-0.251,0.103-0.492,0.256-0.691
					l3.984-5.156c0.209-0.27,0.597-0.32,0.866-0.111C626.924,4.585,626.974,4.641,627.013,4.704z"/>
			</g>
			<g opacity="0.6" enable-background="new    ">
				<g>
					<path fill="#1F2124" d="M239.327,358.585l0.039-2.724h-0.104l-1.816,4.656l-1.816-4.656h-0.104l0.039,2.724v4.333h-1.284
						v-9.055h1.777l1.388,3.594h0.091l1.401-3.594h1.673v9.055h-1.284V358.585L239.327,358.585z"/>
					<path fill="#1F2124" d="M245.488,363.073c-1.15,0-2.004-0.406-2.562-1.22c-0.558-0.813-0.836-1.968-0.836-3.464
						s0.279-2.649,0.836-3.463c0.558-0.813,1.412-1.22,2.562-1.22c0.441,0,0.824,0.058,1.148,0.173
						c0.324,0.116,0.604,0.274,0.837,0.477c0.233,0.199,0.43,0.437,0.59,0.709c0.16,0.271,0.292,0.563,0.396,0.874l-1.31,0.439
						c-0.069-0.207-0.147-0.4-0.234-0.583c-0.087-0.182-0.194-0.338-0.324-0.468c-0.129-0.129-0.283-0.233-0.46-0.312
						c-0.177-0.077-0.396-0.116-0.655-0.116c-0.64,0-1.107,0.244-1.401,0.734c-0.294,0.491-0.441,1.152-0.441,1.986v1.536
						c0,0.833,0.147,1.495,0.441,1.984c0.294,0.49,0.761,0.735,1.401,0.735c0.259,0,0.478-0.038,0.655-0.116
						c0.177-0.078,0.331-0.182,0.46-0.312c0.13-0.13,0.238-0.285,0.324-0.467c0.086-0.183,0.165-0.377,0.234-0.584l1.31,0.44
						c-0.104,0.312-0.236,0.604-0.396,0.874c-0.16,0.271-0.357,0.508-0.59,0.709s-0.513,0.359-0.837,0.475
						C246.312,363.013,245.929,363.073,245.488,363.073z"/>
					<path fill="#1F2124" d="M251.649,362.918h-1.439v-9.055h3.385c0.865,0,1.524,0.242,1.979,0.726
						c0.454,0.482,0.681,1.147,0.681,1.993c0,0.69-0.168,1.26-0.506,1.708c-0.337,0.449-0.821,0.726-1.453,0.829l2.088,3.799h-1.608
						l-1.92-3.671h-1.207V362.918z M253.388,358.093c0.899,0,1.349-0.413,1.349-1.237v-0.561c0-0.825-0.45-1.238-1.349-1.238h-1.738
						v3.036H253.388z"/>
				</g>
			</g>
			
				<g id="Group-4" transform="translate(521.636719, 241.871094) rotate(8.000000) translate(-521.636719, -241.871094) translate(487.136719, 169.371094)">
				<g id="Combined-Shape_1_" transform="translate(5.433071, 10.241636)">
					<g id="Mask">
					</g>
					<defs>
						
							<filter id="Adobe_OpacityMaskFilter" filterUnits="userSpaceOnUse" x="-463.95" y="-14.343" width="523.171" height="204.254">
							<feColorMatrix  type="matrix" values="1 0 0 0 0  0 1 0 0 0  0 0 1 0 0  0 0 0 1 0"/>
						</filter>
					</defs>
					<mask maskUnits="userSpaceOnUse" x="-463.95" y="-14.343" width="523.171" height="204.254" id="mask-11">
						<g filter="url(#Adobe_OpacityMaskFilter)">
							<rect id="path-10" x="0.001" y="0" fill="#FFFFFF" width="59.22" height="134.76"/>
						</g>
					</mask>
					<path mask="url(#mask-11)" fill="#58CD9E" d="M-467.244,163.668c135.952,1.784,237.46-5.083,304.523-20.601
						C-44.73,115.305,29.251,62.836,59.221-14.343L59.22-8.299C26.756,67.189-47.224,118.452-162.722,145.492
						c-111.962,25.293-260.538,20.062-304.524,20.97L-467.244,163.668L-467.244,163.668z"/>
				</g>
				
					<g id="Group_1_" transform="translate(6.526008, 78.478655) rotate(20.000000) translate(-6.526008, -78.478655) translate(1.636244, 73.627354)">
					<g id="Oval_2_">
						<g filter="url(#filter-13)">
							
								<ellipse id="path-12_3_" transform="matrix(-1 3.066857e-005 -3.066857e-005 -1 9.236 9.1622)" cx="4.618" cy="4.581" rx="4.618" ry="4.582"/>
						</g>
						<g>
							
								<ellipse id="path-12_1_" transform="matrix(-1 3.066857e-005 -3.066857e-005 -1 9.236 9.1622)" fill="#1EAB89" cx="4.618" cy="4.581" rx="4.618" ry="4.582"/>
						</g>
					</g>
				</g>
				
					<g id="Group_2_" transform="translate(59.482059, 9.423097) rotate(13.000000) translate(-59.482059, -9.423097) translate(51.875760, 1.876629)">
					<g id="Oval_3_">
						<g filter="url(#filter-15)">
							
								<ellipse id="path-14_3_" transform="matrix(-1 5.045731e-005 -5.045731e-005 -1 15.2118 15.0922)" cx="7.606" cy="7.546" rx="7.607" ry="7.546"/>
						</g>
						<g>
							
								<ellipse id="path-14_1_" transform="matrix(-1 5.045731e-005 -5.045731e-005 -1 15.2118 15.0922)" fill="#1EAB89" cx="7.606" cy="7.546" rx="7.607" ry="7.546"/>
						</g>
					</g>
					<path id="Triangle_1_" fill="#58CD9E" d="M8.183,4.1l3.012,4.837c0.316,0.507,0.162,1.174-0.347,1.489
						c-0.186,0.117-0.405,0.173-0.627,0.162l-5.627-0.295c-0.597-0.031-1.055-0.54-1.023-1.136c0.011-0.221,0.09-0.433,0.226-0.607
						l3.501-4.496C7.481,3.818,7.82,3.776,8.056,3.96C8.106,3.998,8.15,4.046,8.183,4.1z"/>
				</g>
			</g>
		</g>
	</g>
</g>
</svg>
