<?xml version="1.0" encoding="UTF-8"?>
<svg width="645px" height="401px" viewBox="0 0 645 401" version="1.1" xmlns="http://www.w3.org/2000/svg" xmlns:xlink="http://www.w3.org/1999/xlink">
    <!-- Generator: Sketch 51.2 (57519) - http://www.bohemiancoding.com/sketch -->
    <title>Graph 8: Purchasing NXM</title>
    <desc>Created with Sketch.</desc>
    <defs>
        <rect id="path-1" x="8.64785992" y="0" width="617.70428" height="373.391051" rx="5"></rect>
        <filter x="-3.6%" y="-5.4%" width="108.1%" height="113.4%" filterUnits="objectBoundingBox" id="filter-2">
            <feOffset dx="2" dy="4" in="SourceAlpha" result="shadowOffsetOuter1"></feOffset>
            <feGaussianBlur stdDeviation="7" in="shadowOffsetOuter1" result="shadowBlurOuter1"></feGaussianBlur>
            <feColorMatrix values="0 0 0 0 0.792156863   0 0 0 0 0.823529412   0 0 0 0 0.878431373  0 0 0 0.7 0" type="matrix" in="shadowBlurOuter1" result="shadowMatrixOuter1"></feColorMatrix>
            <feOffset dx="1" dy="1" in="SourceAlpha" result="shadowOffsetOuter2"></feOffset>
            <feGaussianBlur stdDeviation="1" in="shadowOffsetOuter2" result="shadowBlurOuter2"></feGaussianBlur>
            <feColorMatrix values="0 0 0 0 0.784313725   0 0 0 0 0.823529412   0 0 0 0 0.882352941  0 0 0 1 0" type="matrix" in="shadowBlurOuter2" result="shadowMatrixOuter2"></feColorMatrix>
            <feMerge>
                <feMergeNode in="shadowMatrixOuter1"></feMergeNode>
                <feMergeNode in="shadowMatrixOuter2"></feMergeNode>
            </feMerge>
        </filter>
        <linearGradient x1="0%" y1="100%" x2="100%" y2="100%" id="linearGradient-3">
            <stop stop-color="#1EAB89" stop-opacity="0" offset="0%"></stop>
            <stop stop-color="#1EAB89" stop-opacity="0.2" offset="100%"></stop>
        </linearGradient>
        <rect id="path-4" x="228.5324" y="282.272673" width="14.8249027" height="14.8249027"></rect>
        <filter x="-283.3%" y="-269.8%" width="734.1%" height="734.1%" filterUnits="objectBoundingBox" id="filter-5">
            <feOffset dx="4" dy="6" in="SourceAlpha" result="shadowOffsetOuter1"></feOffset>
            <feGaussianBlur stdDeviation="14" in="shadowOffsetOuter1" result="shadowBlurOuter1"></feGaussianBlur>
            <feColorMatrix values="0 0 0 0 0   0 0 0 0 0   0 0 0 0 0  0 0 0 0.5 0" type="matrix" in="shadowBlurOuter1" result="shadowMatrixOuter1"></feColorMatrix>
            <feOffset dx="1" dy="1" in="SourceAlpha" result="shadowOffsetOuter2"></feOffset>
            <feGaussianBlur stdDeviation="1" in="shadowOffsetOuter2" result="shadowBlurOuter2"></feGaussianBlur>
            <feColorMatrix values="0 0 0 0 0   0 0 0 0 0   0 0 0 0 0  0 0 0 0.5 0" type="matrix" in="shadowBlurOuter2" result="shadowMatrixOuter2"></feColorMatrix>
            <feMerge>
                <feMergeNode in="shadowMatrixOuter1"></feMergeNode>
                <feMergeNode in="shadowMatrixOuter2"></feMergeNode>
            </feMerge>
        </filter>
        <circle id="path-6" cx="8.64785992" cy="297.733463" r="8.64785992"></circle>
        <filter x="-14.5%" y="-14.5%" width="140.5%" height="140.5%" filterUnits="objectBoundingBox" id="filter-7">
            <feOffset dx="1" dy="1" in="SourceAlpha" result="shadowOffsetOuter1"></feOffset>
            <feGaussianBlur stdDeviation="1" in="shadowOffsetOuter1" result="shadowBlurOuter1"></feGaussianBlur>
            <feColorMatrix values="0 0 0 0 0   0 0 0 0 0   0 0 0 0 0  0 0 0 0.5 0" type="matrix" in="shadowBlurOuter1"></feColorMatrix>
        </filter>
        <circle id="path-8" cx="626.35214" cy="8.64785992" r="8.64785992"></circle>
        <filter x="-14.5%" y="-14.5%" width="140.5%" height="140.5%" filterUnits="objectBoundingBox" id="filter-9">
            <feOffset dx="1" dy="1" in="SourceAlpha" result="shadowOffsetOuter1"></feOffset>
            <feGaussianBlur stdDeviation="1" in="shadowOffsetOuter1" result="shadowBlurOuter1"></feGaussianBlur>
            <feColorMatrix values="0 0 0 0 0   0 0 0 0 0   0 0 0 0 0  0 0 0 0.5 0" type="matrix" in="shadowBlurOuter1"></feColorMatrix>
        </filter>
        <rect id="path-10" x="0" y="0" width="59.2204724" height="134.758364"></rect>
        <ellipse id="path-12" cx="4.61811024" cy="4.58178439" rx="4.61811024" ry="4.58178439"></ellipse>
        <filter x="-54.1%" y="-43.7%" width="208.3%" height="209.1%" filterUnits="objectBoundingBox" id="filter-13">
            <feOffset dx="0" dy="1" in="SourceAlpha" result="shadowOffsetOuter1"></feOffset>
            <feGaussianBlur stdDeviation="1.5" in="shadowOffsetOuter1" result="shadowBlurOuter1"></feGaussianBlur>
            <feColorMatrix values="0 0 0 0 0   0 0 0 0 0   0 0 0 0 0  0 0 0 0.5 0" type="matrix" in="shadowBlurOuter1"></feColorMatrix>
        </filter>
        <ellipse id="path-14" cx="7.60629921" cy="7.5464684" rx="7.60629921" ry="7.5464684"></ellipse>
        <filter x="-32.9%" y="-26.5%" width="165.7%" height="166.3%" filterUnits="objectBoundingBox" id="filter-15">
            <feOffset dx="0" dy="1" in="SourceAlpha" result="shadowOffsetOuter1"></feOffset>
            <feGaussianBlur stdDeviation="1.5" in="shadowOffsetOuter1" result="shadowBlurOuter1"></feGaussianBlur>
            <feColorMatrix values="0 0 0 0 0   0 0 0 0 0   0 0 0 0 0  0 0 0 0.5 0" type="matrix" in="shadowBlurOuter1"></feColorMatrix>
        </filter>
    </defs>
    <g id="Page-2" stroke="none" stroke-width="1" fill="none" fill-rule="evenodd">
        <g id="Token-Model-Page---Outline-Text-for-svg-output" transform="translate(-162.000000, -5047.000000)">
            <g id="Graph-8:-Purchasing-NXM" transform="translate(165.000000, 5057.000000)">
                <g id="Rectangle">
                    <use fill="black" fill-opacity="1" filter="url(#filter-2)" xlink:href="#path-1"></use>
                    <use fill="#FFFFFF" fill-rule="evenodd" xlink:href="#path-1"></use>
                </g>
                <path d="M9.2655642,311.002918 L626.969844,311.002918" id="Line-Copy-4" stroke="#E5E5E5" stroke-width="0.61770428" stroke-linecap="square"></path>
                <path d="M9.2655642,247.997082 L626.969844,247.997082" id="Line-Copy-3" stroke="#E5E5E5" stroke-width="0.61770428" stroke-linecap="square"></path>
                <path d="M9.2655642,184.991245 L626.969844,184.991245" id="Line-Copy-2" stroke="#E5E5E5" stroke-width="0.61770428" stroke-linecap="square"></path>
                <path d="M8.33900778,121.985409 L626.969844,121.985409" id="Line-Copy" stroke="#E5E5E5" stroke-width="0.61770428" stroke-linecap="square"></path>
                <path d="M8.33900778,58.979572 L626.969844,58.979572" id="Line" stroke="#E5E5E5" stroke-width="0.61770428" stroke-linecap="square"></path>
                <rect id="Rectangle-9" fill="#FFFFFF" x="389" y="164" width="130" height="71"></rect>
                <path d="M239.326435,358.58571 L239.36535,355.861634 L239.261576,355.861634 L237.445525,360.518507 L235.629475,355.861634 L235.5257,355.861634 L235.564616,358.58571 L235.564616,362.918288 L234.280409,362.918288 L234.280409,353.863979 L236.057544,353.863979 L237.445525,357.457164 L237.536328,357.457164 L238.937281,353.863979 L240.610642,353.863979 L240.610642,362.918288 L239.326435,362.918288 L239.326435,358.58571 Z M245.488035,363.073949 C244.337864,363.073949 243.483896,362.667504 242.926107,361.854601 C242.368317,361.041698 242.089426,359.887221 242.089426,358.391133 C242.089426,356.895046 242.368317,355.740568 242.926107,354.927665 C243.483896,354.114762 244.337864,353.708317 245.488035,353.708317 C245.929078,353.708317 246.311742,353.76669 246.636038,353.883436 C246.960335,354.000183 247.239225,354.160167 247.472719,354.363393 C247.706212,354.566618 247.902949,354.804432 248.062935,355.076841 C248.222922,355.34925 248.3548,355.641112 248.458575,355.952437 L247.148424,356.393478 C247.079241,356.185928 247.001411,355.991353 246.914932,355.809747 C246.828453,355.628141 246.720356,355.472481 246.590637,355.342763 C246.460919,355.213044 246.307421,355.109271 246.130139,355.03144 C245.952857,354.953609 245.7345,354.914694 245.475063,354.914694 C244.835118,354.914694 244.368139,355.158993 244.07411,355.6476 C243.780081,356.136206 243.633069,356.795599 243.633069,357.625798 L243.633069,359.156469 C243.633069,359.986668 243.780081,360.64606 244.07411,361.134667 C244.368139,361.623273 244.835118,361.867573 245.475063,361.867573 C245.7345,361.867573 245.952857,361.828658 246.130139,361.750827 C246.307421,361.672996 246.460919,361.569222 246.590637,361.439504 C246.720356,361.309785 246.828453,361.154125 246.914932,360.972519 C247.001411,360.790913 247.079241,360.596339 247.148424,360.388789 L248.458575,360.82983 C248.3548,361.141154 248.222922,361.433017 248.062935,361.705426 C247.902949,361.977835 247.706212,362.215648 247.472719,362.418874 C247.239225,362.6221 246.960335,362.782084 246.636038,362.89883 C246.311742,363.015577 245.929078,363.073949 245.488035,363.073949 Z M251.649635,362.918288 L250.209767,362.918288 L250.209767,353.863979 L253.595404,353.863979 C254.460194,353.863979 255.119587,354.106116 255.573602,354.590399 C256.027617,355.074681 256.254621,355.74056 256.254621,356.588054 C256.254621,357.279887 256.085989,357.85064 255.748721,358.300331 C255.411453,358.750022 254.927177,359.02675 254.29588,359.130525 L256.384339,362.918288 L254.775837,362.918288 L252.856012,359.260243 L251.649635,359.260243 L251.649635,362.918288 Z M253.387855,358.092782 C254.287237,358.092782 254.736921,357.682013 254.736921,356.860462 L254.736921,356.302675 C254.736921,355.481124 254.287237,355.070355 253.387855,355.070355 L251.649635,355.070355 L251.649635,358.092782 L253.387855,358.092782 Z" id="MCR" fill-opacity="0.9" fill="#FFFFFF"></path>
                <path d="M407.456389,174.589977 L407.330389,174.589977 L407.330389,182.107977 L405.958389,182.107977 L405.958389,172.335977 L407.974389,172.335977 L410.844389,179.853977 L410.970389,179.853977 L410.970389,172.335977 L412.342389,172.335977 L412.342389,182.107977 L410.326389,182.107977 L407.456389,174.589977 Z M417.704389,182.275977 C417.15372,182.275977 416.659058,182.187311 416.220389,182.009977 C415.78172,181.832642 415.413057,181.580645 415.114389,181.253977 C414.815721,180.927308 414.587057,180.532979 414.428389,180.070977 C414.269722,179.608974 414.190389,179.088646 414.190389,178.509977 C414.190389,177.931307 414.272055,177.408646 414.435389,176.941977 C414.598723,176.475308 414.827388,176.076312 415.121389,175.744977 C415.415391,175.413642 415.772387,175.159311 416.192389,174.981977 C416.612391,174.804642 417.079053,174.715977 417.592389,174.715977 C418.096392,174.715977 418.55372,174.802309 418.964389,174.974977 C419.375058,175.147644 419.725054,175.392642 420.014389,175.709977 C420.303724,176.027312 420.525388,176.405308 420.679389,176.843977 C420.83339,177.282646 420.910389,177.767974 420.910389,178.299977 L420.910389,178.873977 L415.730389,178.873977 L415.730389,179.111977 C415.730389,179.681313 415.907721,180.145642 416.262389,180.504977 C416.617058,180.864312 417.107053,181.043977 417.732389,181.043977 C418.199058,181.043977 418.598054,180.943644 418.929389,180.742977 C419.260724,180.542309 419.529055,180.273978 419.734389,179.937977 L420.686389,180.777977 C420.443721,181.197979 420.072725,181.552642 419.573389,181.841977 C419.074053,182.131311 418.45106,182.275977 417.704389,182.275977 Z M417.592389,175.877977 C417.321721,175.877977 417.072057,175.924643 416.843389,176.017977 C416.614721,176.11131 416.418723,176.244309 416.255389,176.416977 C416.092055,176.589644 415.963723,176.792642 415.870389,177.025977 C415.777055,177.259311 415.730389,177.515975 415.730389,177.795977 L415.730389,177.893977 L419.356389,177.893977 L419.356389,177.753977 C419.356389,177.18464 419.195391,176.729645 418.873389,176.388977 C418.551387,176.048308 418.124392,175.877977 417.592389,175.877977 Z M422.030389,174.883977 L423.332389,174.883977 L424.032389,180.959977 L424.158389,180.959977 L425.236389,174.883977 L426.720389,174.883977 L427.784389,180.959977 L427.910389,180.959977 L428.624389,174.883977 L429.870389,174.883977 L428.862389,182.107977 L426.986389,182.107977 L426.020389,176.507977 L425.894389,176.507977 L424.914389,182.107977 L423.038389,182.107977 L422.030389,174.883977 Z M443.184389,182.107977 C442.549719,182.107977 442.083057,181.937645 441.784389,181.596977 C441.485721,181.256308 441.336389,180.815313 441.336389,180.273977 L441.336389,176.115977 L439.110389,176.115977 L439.110389,174.883977 L440.692389,174.883977 C440.963057,174.883977 441.154389,174.830311 441.266389,174.722977 C441.37839,174.615643 441.434389,174.421978 441.434389,174.141977 L441.434389,172.335977 L442.862389,172.335977 L442.862389,174.883977 L445.942389,174.883977 L445.942389,176.115977 L442.862389,176.115977 L442.862389,180.875977 L445.942389,180.875977 L445.942389,182.107977 L443.184389,182.107977 Z M451.150389,182.275977 C450.618386,182.275977 450.140058,182.187311 449.715389,182.009977 C449.29072,181.832642 448.931391,181.580645 448.637389,181.253977 C448.343388,180.927308 448.117057,180.530646 447.958389,180.063977 C447.799722,179.597308 447.720389,179.074646 447.720389,178.495977 C447.720389,177.917307 447.799722,177.394646 447.958389,176.927977 C448.117057,176.461308 448.343388,176.064645 448.637389,175.737977 C448.931391,175.411308 449.29072,175.159311 449.715389,174.981977 C450.140058,174.804642 450.618386,174.715977 451.150389,174.715977 C451.682392,174.715977 452.16072,174.804642 452.585389,174.981977 C453.010058,175.159311 453.369388,175.411308 453.663389,175.737977 C453.957391,176.064645 454.183722,176.461308 454.342389,176.927977 C454.501057,177.394646 454.580389,177.917307 454.580389,178.495977 C454.580389,179.074646 454.501057,179.597308 454.342389,180.063977 C454.183722,180.530646 453.957391,180.927308 453.663389,181.253977 C453.369388,181.580645 453.010058,181.832642 452.585389,182.009977 C452.16072,182.187311 451.682392,182.275977 451.150389,182.275977 Z M451.150389,181.071977 C451.710392,181.071977 452.156054,180.901645 452.487389,180.560977 C452.818724,180.220308 452.984389,179.71398 452.984389,179.041977 L452.984389,177.949977 C452.984389,177.277973 452.818724,176.771645 452.487389,176.430977 C452.156054,176.090308 451.710392,175.919977 451.150389,175.919977 C450.590386,175.919977 450.144724,176.090308 449.813389,176.430977 C449.482054,176.771645 449.316389,177.277973 449.316389,177.949977 L449.316389,179.041977 C449.316389,179.71398 449.482054,180.220308 449.813389,180.560977 C450.144724,180.901645 450.590386,181.071977 451.150389,181.071977 Z M456.582389,171.747977 L458.108389,171.747977 L458.108389,178.005977 L458.178389,178.005977 L459.312389,176.843977 L461.342389,174.883977 L463.148389,174.883977 L460.222389,177.725977 L463.470389,182.107977 L461.636389,182.107977 L459.116389,178.593977 L458.108389,179.531977 L458.108389,182.107977 L456.582389,182.107977 L456.582389,171.747977 Z M468.104389,182.275977 C467.55372,182.275977 467.059058,182.187311 466.620389,182.009977 C466.18172,181.832642 465.813057,181.580645 465.514389,181.253977 C465.215721,180.927308 464.987057,180.532979 464.828389,180.070977 C464.669722,179.608974 464.590389,179.088646 464.590389,178.509977 C464.590389,177.931307 464.672055,177.408646 464.835389,176.941977 C464.998723,176.475308 465.227388,176.076312 465.521389,175.744977 C465.815391,175.413642 466.172387,175.159311 466.592389,174.981977 C467.012391,174.804642 467.479053,174.715977 467.992389,174.715977 C468.496392,174.715977 468.95372,174.802309 469.364389,174.974977 C469.775058,175.147644 470.125054,175.392642 470.414389,175.709977 C470.703724,176.027312 470.925388,176.405308 471.079389,176.843977 C471.23339,177.282646 471.310389,177.767974 471.310389,178.299977 L471.310389,178.873977 L466.130389,178.873977 L466.130389,179.111977 C466.130389,179.681313 466.307721,180.145642 466.662389,180.504977 C467.017058,180.864312 467.507053,181.043977 468.132389,181.043977 C468.599058,181.043977 468.998054,180.943644 469.329389,180.742977 C469.660724,180.542309 469.929055,180.273978 470.134389,179.937977 L471.086389,180.777977 C470.843721,181.197979 470.472725,181.552642 469.973389,181.841977 C469.474053,182.131311 468.85106,182.275977 468.104389,182.275977 Z M467.992389,175.877977 C467.721721,175.877977 467.472057,175.924643 467.243389,176.017977 C467.014721,176.11131 466.818723,176.244309 466.655389,176.416977 C466.492055,176.589644 466.363723,176.792642 466.270389,177.025977 C466.177055,177.259311 466.130389,177.515975 466.130389,177.795977 L466.130389,177.893977 L469.756389,177.893977 L469.756389,177.753977 C469.756389,177.18464 469.595391,176.729645 469.273389,176.388977 C468.951387,176.048308 468.524392,175.877977 467.992389,175.877977 Z M473.326389,182.107977 L473.326389,174.883977 L474.852389,174.883977 L474.852389,176.115977 L474.922389,176.115977 C474.997056,175.929309 475.092722,175.749644 475.209389,175.576977 C475.326056,175.404309 475.468388,175.254977 475.636389,175.128977 C475.80439,175.002976 476.000388,174.902644 476.224389,174.827977 C476.44839,174.75331 476.709721,174.715977 477.008389,174.715977 C477.736393,174.715977 478.324387,174.953974 478.772389,175.429977 C479.220391,175.905979 479.444389,176.582639 479.444389,177.459977 L479.444389,182.107977 L477.918389,182.107977 L477.918389,177.683977 C477.918389,176.535971 477.419061,175.961977 476.420389,175.961977 C476.224388,175.961977 476.033057,175.987643 475.846389,176.038977 C475.659722,176.09031 475.491723,176.167309 475.342389,176.269977 C475.193055,176.372644 475.074056,176.503309 474.985389,176.661977 C474.896722,176.820644 474.852389,177.002642 474.852389,177.207977 L474.852389,182.107977 L473.326389,182.107977 Z M484.764389,182.275977 C483.980385,182.275977 483.306059,182.149978 482.741389,181.897977 C482.17672,181.645975 481.721724,181.309979 481.376389,180.889977 L482.314389,180.049977 C482.631724,180.395312 482.98872,180.658976 483.385389,180.840977 C483.782058,181.022978 484.251053,181.113977 484.792389,181.113977 C485.287058,181.113977 485.686054,181.029977 485.989389,180.861977 C486.292724,180.693976 486.444389,180.432645 486.444389,180.077977 C486.444389,179.928643 486.416389,179.802644 486.360389,179.699977 C486.304389,179.597309 486.225056,179.51331 486.122389,179.447977 C486.019722,179.382643 485.900723,179.33131 485.765389,179.293977 C485.630055,179.256643 485.487723,179.228643 485.338389,179.209977 L484.190389,179.027977 C483.910388,178.990643 483.625724,178.929977 483.336389,178.845977 C483.047054,178.761976 482.788057,178.642977 482.559389,178.488977 C482.330721,178.334976 482.144056,178.136645 481.999389,177.893977 C481.854722,177.651309 481.782389,177.343312 481.782389,176.969977 C481.782389,176.23264 482.06472,175.672645 482.629389,175.289977 C483.194059,174.907308 483.938384,174.715977 484.862389,174.715977 C485.534392,174.715977 486.115387,174.816309 486.605389,175.016977 C487.095392,175.217644 487.503721,175.495308 487.830389,175.849977 L486.976389,176.745977 C486.789722,176.531309 486.523724,176.332978 486.178389,176.150977 C485.833054,175.968976 485.375725,175.877977 484.806389,175.877977 C483.789051,175.877977 483.280389,176.199973 483.280389,176.843977 C483.280389,177.151978 483.390055,177.364309 483.609389,177.480977 C483.828724,177.597644 484.087721,177.674643 484.386389,177.711977 L485.534389,177.893977 C485.823724,177.940644 486.110721,178.00131 486.395389,178.075977 C486.680057,178.150644 486.936721,178.264976 487.165389,178.418977 C487.394057,178.572977 487.580722,178.771309 487.725389,179.013977 C487.870056,179.256645 487.942389,179.564641 487.942389,179.937977 C487.942389,180.66598 487.660059,181.237641 487.095389,181.652977 C486.53072,182.068312 485.753727,182.275977 484.764389,182.275977 Z M409.598389,191.567977 C409.206387,191.567977 408.93339,191.488644 408.779389,191.329977 C408.625388,191.171309 408.548389,190.975311 408.548389,190.741977 L408.548389,190.447977 C408.548389,190.214642 408.625388,190.018644 408.779389,189.859977 C408.93339,189.701309 409.201721,189.621977 409.584389,189.621977 C409.976391,189.621977 410.249388,189.701309 410.403389,189.859977 C410.55739,190.018644 410.634389,190.214642 410.634389,190.447977 L410.634389,190.741977 C410.634389,190.975311 410.55739,191.171309 410.403389,191.329977 C410.249388,191.488644 409.981058,191.567977 409.598389,191.567977 Z M406.364389,198.875977 L408.828389,198.875977 L408.828389,194.115977 L406.364389,194.115977 L406.364389,192.883977 L410.354389,192.883977 L410.354389,198.875977 L412.664389,198.875977 L412.664389,200.107977 L406.364389,200.107977 L406.364389,198.875977 Z M414.526389,200.107977 L414.526389,192.883977 L416.052389,192.883977 L416.052389,194.115977 L416.122389,194.115977 C416.197056,193.929309 416.292722,193.749644 416.409389,193.576977 C416.526056,193.404309 416.668388,193.254977 416.836389,193.128977 C417.00439,193.002976 417.200388,192.902644 417.424389,192.827977 C417.64839,192.75331 417.909721,192.715977 418.208389,192.715977 C418.936393,192.715977 419.524387,192.953974 419.972389,193.429977 C420.420391,193.905979 420.644389,194.582639 420.644389,195.459977 L420.644389,200.107977 L419.118389,200.107977 L419.118389,195.683977 C419.118389,194.535971 418.619061,193.961977 417.620389,193.961977 C417.424388,193.961977 417.233057,193.987643 417.046389,194.038977 C416.859722,194.09031 416.691723,194.167309 416.542389,194.269977 C416.393055,194.372644 416.274056,194.503309 416.185389,194.661977 C416.096722,194.820644 416.052389,195.002642 416.052389,195.207977 L416.052389,200.107977 L414.526389,200.107977 Z M426.216389,200.275977 C425.675053,200.275977 425.192058,200.187311 424.767389,200.009977 C424.34272,199.832642 423.983391,199.580645 423.689389,199.253977 C423.395388,198.927308 423.17139,198.530646 423.017389,198.063977 C422.863388,197.597308 422.786389,197.074646 422.786389,196.495977 C422.786389,195.917307 422.863388,195.394646 423.017389,194.927977 C423.17139,194.461308 423.395388,194.064645 423.689389,193.737977 C423.983391,193.411308 424.34272,193.159311 424.767389,192.981977 C425.192058,192.804642 425.670386,192.715977 426.202389,192.715977 C426.94906,192.715977 427.54872,192.874642 428.001389,193.191977 C428.454058,193.509312 428.792388,193.919974 429.016389,194.423977 L427.826389,195.067977 C427.695722,194.731975 427.49739,194.465978 427.231389,194.269977 C426.965388,194.073976 426.622391,193.975977 426.202389,193.975977 C425.62372,193.975977 425.175724,194.150975 424.858389,194.500977 C424.541054,194.850978 424.382389,195.315307 424.382389,195.893977 L424.382389,197.097977 C424.382389,197.667313 424.541054,198.129308 424.858389,198.483977 C425.175724,198.838645 425.633053,199.015977 426.230389,199.015977 C426.678391,199.015977 427.044721,198.913311 427.329389,198.707977 C427.614057,198.502642 427.840388,198.222645 428.008389,197.867977 L429.128389,198.553977 C428.895055,199.057979 428.540391,199.470975 428.064389,199.792977 C427.588387,200.114978 426.972393,200.275977 426.216389,200.275977 Z M431.214389,198.875977 L433.132389,198.875977 L433.132389,194.115977 L431.214389,194.115977 L431.214389,192.883977 L434.658389,192.883977 L434.658389,194.801977 L434.742389,194.801977 C434.807723,194.549975 434.901055,194.307311 435.022389,194.073977 C435.143723,193.840642 435.297722,193.637644 435.484389,193.464977 C435.671057,193.292309 435.899721,193.152311 436.170389,193.044977 C436.441057,192.937643 436.758387,192.883977 437.122389,192.883977 L437.990389,192.883977 L437.990389,194.339977 L436.562389,194.339977 C436.002386,194.339977 435.545058,194.505642 435.190389,194.836977 C434.835721,195.168312 434.658389,195.613974 434.658389,196.173977 L434.658389,198.875977 L437.276389,198.875977 L437.276389,200.107977 L431.214389,200.107977 L431.214389,198.875977 Z M442.904389,200.275977 C442.35372,200.275977 441.859058,200.187311 441.420389,200.009977 C440.98172,199.832642 440.613057,199.580645 440.314389,199.253977 C440.015721,198.927308 439.787057,198.532979 439.628389,198.070977 C439.469722,197.608974 439.390389,197.088646 439.390389,196.509977 C439.390389,195.931307 439.472055,195.408646 439.635389,194.941977 C439.798723,194.475308 440.027388,194.076312 440.321389,193.744977 C440.615391,193.413642 440.972387,193.159311 441.392389,192.981977 C441.812391,192.804642 442.279053,192.715977 442.792389,192.715977 C443.296392,192.715977 443.75372,192.802309 444.164389,192.974977 C444.575058,193.147644 444.925054,193.392642 445.214389,193.709977 C445.503724,194.027312 445.725388,194.405308 445.879389,194.843977 C446.03339,195.282646 446.110389,195.767974 446.110389,196.299977 L446.110389,196.873977 L440.930389,196.873977 L440.930389,197.111977 C440.930389,197.681313 441.107721,198.145642 441.462389,198.504977 C441.817058,198.864312 442.307053,199.043977 442.932389,199.043977 C443.399058,199.043977 443.798054,198.943644 444.129389,198.742977 C444.460724,198.542309 444.729055,198.273978 444.934389,197.937977 L445.886389,198.777977 C445.643721,199.197979 445.272725,199.552642 444.773389,199.841977 C444.274053,200.131311 443.65106,200.275977 442.904389,200.275977 Z M442.792389,193.877977 C442.521721,193.877977 442.272057,193.924643 442.043389,194.017977 C441.814721,194.11131 441.618723,194.244309 441.455389,194.416977 C441.292055,194.589644 441.163723,194.792642 441.070389,195.025977 C440.977055,195.259311 440.930389,195.515975 440.930389,195.795977 L440.930389,195.893977 L444.556389,195.893977 L444.556389,195.753977 C444.556389,195.18464 444.395391,194.729645 444.073389,194.388977 C443.751387,194.048308 443.324392,193.877977 442.792389,193.877977 Z M453.838389,200.107977 C453.39972,200.107977 453.070724,199.995978 452.851389,199.771977 C452.632055,199.547976 452.499056,199.253978 452.452389,198.889977 L452.382389,198.889977 C452.242388,199.328646 451.988058,199.669309 451.619389,199.911977 C451.250721,200.154645 450.781725,200.275977 450.212389,200.275977 C449.475052,200.275977 448.887058,200.082312 448.448389,199.694977 C448.00972,199.307641 447.790389,198.773313 447.790389,198.091977 C447.790389,197.391973 448.049387,196.857645 448.567389,196.488977 C449.085392,196.120308 449.88105,195.935977 450.954389,195.935977 L452.340389,195.935977 L452.340389,195.375977 C452.340389,194.395972 451.822394,193.905977 450.786389,193.905977 C450.31972,193.905977 449.941724,193.996976 449.652389,194.178977 C449.363054,194.360978 449.12039,194.601308 448.924389,194.899977 L448.014389,194.157977 C448.219723,193.765975 448.565053,193.427645 449.050389,193.142977 C449.535725,192.858309 450.161052,192.715977 450.926389,192.715977 C451.84106,192.715977 452.55972,192.935308 453.082389,193.373977 C453.605058,193.812646 453.866389,194.447306 453.866389,195.277977 L453.866389,198.903977 L454.776389,198.903977 L454.776389,200.107977 L453.838389,200.107977 Z M450.646389,199.155977 C451.141058,199.155977 451.547054,199.043978 451.864389,198.819977 C452.181724,198.595976 452.340389,198.306645 452.340389,197.951977 L452.340389,196.901977 L450.982389,196.901977 C449.88105,196.901977 449.330389,197.233307 449.330389,197.895977 L449.330389,198.175977 C449.330389,198.502645 449.447055,198.747643 449.680389,198.910977 C449.913724,199.074311 450.23572,199.155977 450.646389,199.155977 Z M459.564389,200.275977 C458.780385,200.275977 458.106059,200.149978 457.541389,199.897977 C456.97672,199.645975 456.521724,199.309979 456.176389,198.889977 L457.114389,198.049977 C457.431724,198.395312 457.78872,198.658976 458.185389,198.840977 C458.582058,199.022978 459.051053,199.113977 459.592389,199.113977 C460.087058,199.113977 460.486054,199.029977 460.789389,198.861977 C461.092724,198.693976 461.244389,198.432645 461.244389,198.077977 C461.244389,197.928643 461.216389,197.802644 461.160389,197.699977 C461.104389,197.597309 461.025056,197.51331 460.922389,197.447977 C460.819722,197.382643 460.700723,197.33131 460.565389,197.293977 C460.430055,197.256643 460.287723,197.228643 460.138389,197.209977 L458.990389,197.027977 C458.710388,196.990643 458.425724,196.929977 458.136389,196.845977 C457.847054,196.761976 457.588057,196.642977 457.359389,196.488977 C457.130721,196.334976 456.944056,196.136645 456.799389,195.893977 C456.654722,195.651309 456.582389,195.343312 456.582389,194.969977 C456.582389,194.23264 456.86472,193.672645 457.429389,193.289977 C457.994059,192.907308 458.738384,192.715977 459.662389,192.715977 C460.334392,192.715977 460.915387,192.816309 461.405389,193.016977 C461.895392,193.217644 462.303721,193.495308 462.630389,193.849977 L461.776389,194.745977 C461.589722,194.531309 461.323724,194.332978 460.978389,194.150977 C460.633054,193.968976 460.175725,193.877977 459.606389,193.877977 C458.589051,193.877977 458.080389,194.199973 458.080389,194.843977 C458.080389,195.151978 458.190055,195.364309 458.409389,195.480977 C458.628724,195.597644 458.887721,195.674643 459.186389,195.711977 L460.334389,195.893977 C460.623724,195.940644 460.910721,196.00131 461.195389,196.075977 C461.480057,196.150644 461.736721,196.264976 461.965389,196.418977 C462.194057,196.572977 462.380722,196.771309 462.525389,197.013977 C462.670056,197.256645 462.742389,197.564641 462.742389,197.937977 C462.742389,198.66598 462.460059,199.237641 461.895389,199.652977 C461.33072,200.068312 460.553727,200.275977 459.564389,200.275977 Z M468.104389,200.275977 C467.55372,200.275977 467.059058,200.187311 466.620389,200.009977 C466.18172,199.832642 465.813057,199.580645 465.514389,199.253977 C465.215721,198.927308 464.987057,198.532979 464.828389,198.070977 C464.669722,197.608974 464.590389,197.088646 464.590389,196.509977 C464.590389,195.931307 464.672055,195.408646 464.835389,194.941977 C464.998723,194.475308 465.227388,194.076312 465.521389,193.744977 C465.815391,193.413642 466.172387,193.159311 466.592389,192.981977 C467.012391,192.804642 467.479053,192.715977 467.992389,192.715977 C468.496392,192.715977 468.95372,192.802309 469.364389,192.974977 C469.775058,193.147644 470.125054,193.392642 470.414389,193.709977 C470.703724,194.027312 470.925388,194.405308 471.079389,194.843977 C471.23339,195.282646 471.310389,195.767974 471.310389,196.299977 L471.310389,196.873977 L466.130389,196.873977 L466.130389,197.111977 C466.130389,197.681313 466.307721,198.145642 466.662389,198.504977 C467.017058,198.864312 467.507053,199.043977 468.132389,199.043977 C468.599058,199.043977 468.998054,198.943644 469.329389,198.742977 C469.660724,198.542309 469.929055,198.273978 470.134389,197.937977 L471.086389,198.777977 C470.843721,199.197979 470.472725,199.552642 469.973389,199.841977 C469.474053,200.131311 468.85106,200.275977 468.104389,200.275977 Z M467.992389,193.877977 C467.721721,193.877977 467.472057,193.924643 467.243389,194.017977 C467.014721,194.11131 466.818723,194.244309 466.655389,194.416977 C466.492055,194.589644 466.363723,194.792642 466.270389,195.025977 C466.177055,195.259311 466.130389,195.515975 466.130389,195.795977 L466.130389,195.893977 L469.756389,195.893977 L469.756389,195.753977 C469.756389,195.18464 469.595391,194.729645 469.273389,194.388977 C468.951387,194.048308 468.524392,193.877977 467.992389,193.877977 Z M485.184389,200.107977 C484.549719,200.107977 484.083057,199.937645 483.784389,199.596977 C483.485721,199.256308 483.336389,198.815313 483.336389,198.273977 L483.336389,194.115977 L481.110389,194.115977 L481.110389,192.883977 L482.692389,192.883977 C482.963057,192.883977 483.154389,192.830311 483.266389,192.722977 C483.37839,192.615643 483.434389,192.421978 483.434389,192.141977 L483.434389,190.335977 L484.862389,190.335977 L484.862389,192.883977 L487.942389,192.883977 L487.942389,194.115977 L484.862389,194.115977 L484.862389,198.875977 L487.942389,198.875977 L487.942389,200.107977 L485.184389,200.107977 Z M490.126389,189.747977 L491.652389,189.747977 L491.652389,194.115977 L491.722389,194.115977 C491.797056,193.929309 491.892722,193.749644 492.009389,193.576977 C492.126056,193.404309 492.268388,193.254977 492.436389,193.128977 C492.60439,193.002976 492.800388,192.902644 493.024389,192.827977 C493.24839,192.75331 493.509721,192.715977 493.808389,192.715977 C494.536393,192.715977 495.124387,192.953974 495.572389,193.429977 C496.020391,193.905979 496.244389,194.582639 496.244389,195.459977 L496.244389,200.107977 L494.718389,200.107977 L494.718389,195.683977 C494.718389,194.535971 494.219061,193.961977 493.220389,193.961977 C493.024388,193.961977 492.833057,193.987643 492.646389,194.038977 C492.459722,194.09031 492.291723,194.167309 492.142389,194.269977 C491.993055,194.372644 491.874056,194.503309 491.785389,194.661977 C491.696722,194.820644 491.652389,195.002642 491.652389,195.207977 L491.652389,200.107977 L490.126389,200.107977 L490.126389,189.747977 Z M501.704389,200.275977 C501.15372,200.275977 500.659058,200.187311 500.220389,200.009977 C499.78172,199.832642 499.413057,199.580645 499.114389,199.253977 C498.815721,198.927308 498.587057,198.532979 498.428389,198.070977 C498.269722,197.608974 498.190389,197.088646 498.190389,196.509977 C498.190389,195.931307 498.272055,195.408646 498.435389,194.941977 C498.598723,194.475308 498.827388,194.076312 499.121389,193.744977 C499.415391,193.413642 499.772387,193.159311 500.192389,192.981977 C500.612391,192.804642 501.079053,192.715977 501.592389,192.715977 C502.096392,192.715977 502.55372,192.802309 502.964389,192.974977 C503.375058,193.147644 503.725054,193.392642 504.014389,193.709977 C504.303724,194.027312 504.525388,194.405308 504.679389,194.843977 C504.83339,195.282646 504.910389,195.767974 504.910389,196.299977 L504.910389,196.873977 L499.730389,196.873977 L499.730389,197.111977 C499.730389,197.681313 499.907721,198.145642 500.262389,198.504977 C500.617058,198.864312 501.107053,199.043977 501.732389,199.043977 C502.199058,199.043977 502.598054,198.943644 502.929389,198.742977 C503.260724,198.542309 503.529055,198.273978 503.734389,197.937977 L504.686389,198.777977 C504.443721,199.197979 504.072725,199.552642 503.573389,199.841977 C503.074053,200.131311 502.45106,200.275977 501.704389,200.275977 Z M501.592389,193.877977 C501.321721,193.877977 501.072057,193.924643 500.843389,194.017977 C500.614721,194.11131 500.418723,194.244309 500.255389,194.416977 C500.092055,194.589644 499.963723,194.792642 499.870389,195.025977 C499.777055,195.259311 499.730389,195.515975 499.730389,195.795977 L499.730389,195.893977 L503.356389,195.893977 L503.356389,195.753977 C503.356389,195.18464 503.195391,194.729645 502.873389,194.388977 C502.551387,194.048308 502.124392,193.877977 501.592389,193.877977 Z M409.584389,218.107977 C408.949719,218.107977 408.483057,217.937645 408.184389,217.596977 C407.885721,217.256308 407.736389,216.815313 407.736389,216.273977 L407.736389,212.115977 L405.510389,212.115977 L405.510389,210.883977 L407.092389,210.883977 C407.363057,210.883977 407.554389,210.830311 407.666389,210.722977 C407.77839,210.615643 407.834389,210.421978 407.834389,210.141977 L407.834389,208.335977 L409.262389,208.335977 L409.262389,210.883977 L412.342389,210.883977 L412.342389,212.115977 L409.262389,212.115977 L409.262389,216.875977 L412.342389,216.875977 L412.342389,218.107977 L409.584389,218.107977 Z M417.550389,218.275977 C417.018386,218.275977 416.540058,218.187311 416.115389,218.009977 C415.69072,217.832642 415.331391,217.580645 415.037389,217.253977 C414.743388,216.927308 414.517057,216.530646 414.358389,216.063977 C414.199722,215.597308 414.120389,215.074646 414.120389,214.495977 C414.120389,213.917307 414.199722,213.394646 414.358389,212.927977 C414.517057,212.461308 414.743388,212.064645 415.037389,211.737977 C415.331391,211.411308 415.69072,211.159311 416.115389,210.981977 C416.540058,210.804642 417.018386,210.715977 417.550389,210.715977 C418.082392,210.715977 418.56072,210.804642 418.985389,210.981977 C419.410058,211.159311 419.769388,211.411308 420.063389,211.737977 C420.357391,212.064645 420.583722,212.461308 420.742389,212.927977 C420.901057,213.394646 420.980389,213.917307 420.980389,214.495977 C420.980389,215.074646 420.901057,215.597308 420.742389,216.063977 C420.583722,216.530646 420.357391,216.927308 420.063389,217.253977 C419.769388,217.580645 419.410058,217.832642 418.985389,218.009977 C418.56072,218.187311 418.082392,218.275977 417.550389,218.275977 Z M417.550389,217.071977 C418.110392,217.071977 418.556054,216.901645 418.887389,216.560977 C419.218724,216.220308 419.384389,215.71398 419.384389,215.041977 L419.384389,213.949977 C419.384389,213.277973 419.218724,212.771645 418.887389,212.430977 C418.556054,212.090308 418.110392,211.919977 417.550389,211.919977 C416.990386,211.919977 416.544724,212.090308 416.213389,212.430977 C415.882054,212.771645 415.716389,213.277973 415.716389,213.949977 L415.716389,215.041977 C415.716389,215.71398 415.882054,216.220308 416.213389,216.560977 C416.544724,216.901645 416.990386,217.071977 417.550389,217.071977 Z M422.982389,207.747977 L424.508389,207.747977 L424.508389,214.005977 L424.578389,214.005977 L425.712389,212.843977 L427.742389,210.883977 L429.548389,210.883977 L426.622389,213.725977 L429.870389,218.107977 L428.036389,218.107977 L425.516389,214.593977 L424.508389,215.531977 L424.508389,218.107977 L422.982389,218.107977 L422.982389,207.747977 Z M434.504389,218.275977 C433.95372,218.275977 433.459058,218.187311 433.020389,218.009977 C432.58172,217.832642 432.213057,217.580645 431.914389,217.253977 C431.615721,216.927308 431.387057,216.532979 431.228389,216.070977 C431.069722,215.608974 430.990389,215.088646 430.990389,214.509977 C430.990389,213.931307 431.072055,213.408646 431.235389,212.941977 C431.398723,212.475308 431.627388,212.076312 431.921389,211.744977 C432.215391,211.413642 432.572387,211.159311 432.992389,210.981977 C433.412391,210.804642 433.879053,210.715977 434.392389,210.715977 C434.896392,210.715977 435.35372,210.802309 435.764389,210.974977 C436.175058,211.147644 436.525054,211.392642 436.814389,211.709977 C437.103724,212.027312 437.325388,212.405308 437.479389,212.843977 C437.63339,213.282646 437.710389,213.767974 437.710389,214.299977 L437.710389,214.873977 L432.530389,214.873977 L432.530389,215.111977 C432.530389,215.681313 432.707721,216.145642 433.062389,216.504977 C433.417058,216.864312 433.907053,217.043977 434.532389,217.043977 C434.999058,217.043977 435.398054,216.943644 435.729389,216.742977 C436.060724,216.542309 436.329055,216.273978 436.534389,215.937977 L437.486389,216.777977 C437.243721,217.197979 436.872725,217.552642 436.373389,217.841977 C435.874053,218.131311 435.25106,218.275977 434.504389,218.275977 Z M434.392389,211.877977 C434.121721,211.877977 433.872057,211.924643 433.643389,212.017977 C433.414721,212.11131 433.218723,212.244309 433.055389,212.416977 C432.892055,212.589644 432.763723,212.792642 432.670389,213.025977 C432.577055,213.259311 432.530389,213.515975 432.530389,213.795977 L432.530389,213.893977 L436.156389,213.893977 L436.156389,213.753977 C436.156389,213.18464 435.995391,212.729645 435.673389,212.388977 C435.351387,212.048308 434.924392,211.877977 434.392389,211.877977 Z M439.726389,218.107977 L439.726389,210.883977 L441.252389,210.883977 L441.252389,212.115977 L441.322389,212.115977 C441.397056,211.929309 441.492722,211.749644 441.609389,211.576977 C441.726056,211.404309 441.868388,211.254977 442.036389,211.128977 C442.20439,211.002976 442.400388,210.902644 442.624389,210.827977 C442.84839,210.75331 443.109721,210.715977 443.408389,210.715977 C444.136393,210.715977 444.724387,210.953974 445.172389,211.429977 C445.620391,211.905979 445.844389,212.582639 445.844389,213.459977 L445.844389,218.107977 L444.318389,218.107977 L444.318389,213.683977 C444.318389,212.535971 443.819061,211.961977 442.820389,211.961977 C442.624388,211.961977 442.433057,211.987643 442.246389,212.038977 C442.059722,212.09031 441.891723,212.167309 441.742389,212.269977 C441.593055,212.372644 441.474056,212.503309 441.385389,212.661977 C441.296722,212.820644 441.252389,213.002642 441.252389,213.207977 L441.252389,218.107977 L439.726389,218.107977 Z M456.456389,210.883977 L457.982389,210.883977 L457.982389,212.115977 L458.066389,212.115977 C458.281057,211.677308 458.565721,211.334311 458.920389,211.086977 C459.275058,210.839642 459.718386,210.715977 460.250389,210.715977 C461.099727,210.715977 461.776387,211.033307 462.280389,211.667977 C462.784392,212.302646 463.036389,213.245304 463.036389,214.495977 C463.036389,215.74665 462.784392,216.689307 462.280389,217.323977 C461.776387,217.958646 461.099727,218.275977 460.250389,218.275977 C459.718386,218.275977 459.275058,218.152311 458.920389,217.904977 C458.565721,217.657642 458.281057,217.314646 458.066389,216.875977 L457.982389,216.875977 L457.982389,220.907977 L456.456389,220.907977 L456.456389,210.883977 Z M459.620389,217.029977 C460.199059,217.029977 460.644721,216.852645 460.957389,216.497977 C461.270057,216.143308 461.426389,215.67198 461.426389,215.083977 L461.426389,213.907977 C461.426389,213.319974 461.270057,212.848645 460.957389,212.493977 C460.644721,212.139308 460.199059,211.961977 459.620389,211.961977 C459.396388,211.961977 459.18639,211.989976 458.990389,212.045977 C458.794388,212.101977 458.621723,212.185976 458.472389,212.297977 C458.323055,212.409977 458.204056,212.547643 458.115389,212.710977 C458.026722,212.874311 457.982389,213.067976 457.982389,213.291977 L457.982389,215.699977 C457.982389,215.923978 458.026722,216.117643 458.115389,216.280977 C458.204056,216.444311 458.323055,216.581976 458.472389,216.693977 C458.621723,216.805977 458.794388,216.889976 458.990389,216.945977 C459.18639,217.001977 459.396388,217.029977 459.620389,217.029977 Z M464.814389,216.875977 L466.732389,216.875977 L466.732389,212.115977 L464.814389,212.115977 L464.814389,210.883977 L468.258389,210.883977 L468.258389,212.801977 L468.342389,212.801977 C468.407723,212.549975 468.501055,212.307311 468.622389,212.073977 C468.743723,211.840642 468.897722,211.637644 469.084389,211.464977 C469.271057,211.292309 469.499721,211.152311 469.770389,211.044977 C470.041057,210.937643 470.358387,210.883977 470.722389,210.883977 L471.590389,210.883977 L471.590389,212.339977 L470.162389,212.339977 C469.602386,212.339977 469.145058,212.505642 468.790389,212.836977 C468.435721,213.168312 468.258389,213.613974 468.258389,214.173977 L468.258389,216.875977 L470.876389,216.875977 L470.876389,218.107977 L464.814389,218.107977 L464.814389,216.875977 Z M476.798389,209.567977 C476.406387,209.567977 476.13339,209.488644 475.979389,209.329977 C475.825388,209.171309 475.748389,208.975311 475.748389,208.741977 L475.748389,208.447977 C475.748389,208.214642 475.825388,208.018644 475.979389,207.859977 C476.13339,207.701309 476.401721,207.621977 476.784389,207.621977 C477.176391,207.621977 477.449388,207.701309 477.603389,207.859977 C477.75739,208.018644 477.834389,208.214642 477.834389,208.447977 L477.834389,208.741977 C477.834389,208.975311 477.75739,209.171309 477.603389,209.329977 C477.449388,209.488644 477.181058,209.567977 476.798389,209.567977 Z M473.564389,216.875977 L476.028389,216.875977 L476.028389,212.115977 L473.564389,212.115977 L473.564389,210.883977 L477.554389,210.883977 L477.554389,216.875977 L479.864389,216.875977 L479.864389,218.107977 L473.564389,218.107977 L473.564389,216.875977 Z M485.016389,218.275977 C484.475053,218.275977 483.992058,218.187311 483.567389,218.009977 C483.14272,217.832642 482.783391,217.580645 482.489389,217.253977 C482.195388,216.927308 481.97139,216.530646 481.817389,216.063977 C481.663388,215.597308 481.586389,215.074646 481.586389,214.495977 C481.586389,213.917307 481.663388,213.394646 481.817389,212.927977 C481.97139,212.461308 482.195388,212.064645 482.489389,211.737977 C482.783391,211.411308 483.14272,211.159311 483.567389,210.981977 C483.992058,210.804642 484.470386,210.715977 485.002389,210.715977 C485.74906,210.715977 486.34872,210.874642 486.801389,211.191977 C487.254058,211.509312 487.592388,211.919974 487.816389,212.423977 L486.626389,213.067977 C486.495722,212.731975 486.29739,212.465978 486.031389,212.269977 C485.765388,212.073976 485.422391,211.975977 485.002389,211.975977 C484.42372,211.975977 483.975724,212.150975 483.658389,212.500977 C483.341054,212.850978 483.182389,213.315307 483.182389,213.893977 L483.182389,215.097977 C483.182389,215.667313 483.341054,216.129308 483.658389,216.483977 C483.975724,216.838645 484.433053,217.015977 485.030389,217.015977 C485.478391,217.015977 485.844721,216.913311 486.129389,216.707977 C486.414057,216.502642 486.640388,216.222645 486.808389,215.867977 L487.928389,216.553977 C487.695055,217.057979 487.340391,217.470975 486.864389,217.792977 C486.388387,218.114978 485.772393,218.275977 485.016389,218.275977 Z M493.304389,218.275977 C492.75372,218.275977 492.259058,218.187311 491.820389,218.009977 C491.38172,217.832642 491.013057,217.580645 490.714389,217.253977 C490.415721,216.927308 490.187057,216.532979 490.028389,216.070977 C489.869722,215.608974 489.790389,215.088646 489.790389,214.509977 C489.790389,213.931307 489.872055,213.408646 490.035389,212.941977 C490.198723,212.475308 490.427388,212.076312 490.721389,211.744977 C491.015391,211.413642 491.372387,211.159311 491.792389,210.981977 C492.212391,210.804642 492.679053,210.715977 493.192389,210.715977 C493.696392,210.715977 494.15372,210.802309 494.564389,210.974977 C494.975058,211.147644 495.325054,211.392642 495.614389,211.709977 C495.903724,212.027312 496.125388,212.405308 496.279389,212.843977 C496.43339,213.282646 496.510389,213.767974 496.510389,214.299977 L496.510389,214.873977 L491.330389,214.873977 L491.330389,215.111977 C491.330389,215.681313 491.507721,216.145642 491.862389,216.504977 C492.217058,216.864312 492.707053,217.043977 493.332389,217.043977 C493.799058,217.043977 494.198054,216.943644 494.529389,216.742977 C494.860724,216.542309 495.129055,216.273978 495.334389,215.937977 L496.286389,216.777977 C496.043721,217.197979 495.672725,217.552642 495.173389,217.841977 C494.674053,218.131311 494.05106,218.275977 493.304389,218.275977 Z M493.192389,211.877977 C492.921721,211.877977 492.672057,211.924643 492.443389,212.017977 C492.214721,212.11131 492.018723,212.244309 491.855389,212.416977 C491.692055,212.589644 491.563723,212.792642 491.470389,213.025977 C491.377055,213.259311 491.330389,213.515975 491.330389,213.795977 L491.330389,213.893977 L494.956389,213.893977 L494.956389,213.753977 C494.956389,213.18464 494.795391,212.729645 494.473389,212.388977 C494.151387,212.048308 493.724392,211.877977 493.192389,211.877977 Z" id="New-tokens-increase" fill="#1EAB89"></path>
                <g id="Group-2" transform="translate(0.000000, 46.007782)">
                    <g id="Group" transform="translate(8.647860, 0.617704)">
                        <path d="M0.61770428,298.042315 C87.3741345,296.520922 148.938661,294.667809 185.311284,292.482977 C237.906846,289.323664 285.070455,286.478969 323.677043,279.202335 C511.459144,239.875162 609.262322,150.925746 617.086576,12.3540856 L618.302338,322.981403 C618.313146,325.742806 616.083349,327.990127 613.321946,328.000934 C613.315423,328.00096 613.3089,328.000973 613.302377,328.000973 L0.61770428,328.000973 L0.61770428,298.042315 Z" id="Path-2" fill="url(#linearGradient-3)"></path>
                        <path d="M1.59872116e-14,295.825356 L236.580739,289.394455 C481.191634,266.9512 607.61511,170.612978 615.851167,0.379789375 L617.70428,0.379789375 L617.70428,24.4053958 C597.85472,182.515693 470.813539,271.771938 236.580739,292.174125 L2.84217094e-14,299.210866 L1.62723739e-14,295.825356 Z" id="Combined-Shape" fill="#1EAB89"></path>
                        <g id="Rectangle-2" transform="translate(235.944852, 289.685124) rotate(-315.000000) translate(-235.944852, -289.685124) ">
                            <use fill="black" fill-opacity="1" filter="url(#filter-5)" xlink:href="#path-4"></use>
                            <use fill="#1EAB89" fill-rule="evenodd" xlink:href="#path-4"></use>
                        </g>
                        <rect id="Rectangle-2" fill="#58CD9E" transform="translate(235.949397, 289.689670) rotate(-315.000000) translate(-235.949397, -289.689670) " x="232.027995" y="285.768267" width="7.8428054" height="7.8428054"></rect>
                    </g>
                    <g id="Oval">
                        <use fill="black" fill-opacity="1" filter="url(#filter-7)" xlink:href="#path-6"></use>
                        <use fill="#1EAB89" fill-rule="evenodd" xlink:href="#path-6"></use>
                    </g>
                    <g id="Oval">
                        <use fill="black" fill-opacity="1" filter="url(#filter-9)" xlink:href="#path-8"></use>
                        <use fill="#1EAB89" fill-rule="evenodd" xlink:href="#path-8"></use>
                    </g>
                    <circle id="Oval-2" fill="#58CD9E" cx="8.64785992" cy="297.733463" r="4.94163424"></circle>
                    <path d="M626.841479,4.67297479 L630.550827,10.0309226 C630.939198,10.5919021 630.79927,11.3615023 630.238291,11.7498728 C630.031684,11.8929082 629.786372,11.9695381 629.535084,11.9695381 L623.13213,11.9695381 C622.449833,11.9695381 621.896722,11.4164268 621.896722,10.7341295 C621.896722,10.4828419 621.973352,10.2375293 622.116387,10.0309226 L625.825735,4.67297479 C626.019921,4.39248503 626.404721,4.32252138 626.685211,4.51670659 C626.74627,4.55897868 626.799207,4.61191511 626.841479,4.67297479 Z" id="Triangle" fill="#58CD9E" transform="translate(626.333607, 7.954460) rotate(3.000000) translate(-626.333607, -7.954460) "></path>
                </g>
                <path d="M239.326435,358.58571 L239.36535,355.861634 L239.261576,355.861634 L237.445525,360.518507 L235.629475,355.861634 L235.5257,355.861634 L235.564616,358.58571 L235.564616,362.918288 L234.280409,362.918288 L234.280409,353.863979 L236.057544,353.863979 L237.445525,357.457164 L237.536328,357.457164 L238.937281,353.863979 L240.610642,353.863979 L240.610642,362.918288 L239.326435,362.918288 L239.326435,358.58571 Z M245.488035,363.073949 C244.337864,363.073949 243.483896,362.667504 242.926107,361.854601 C242.368317,361.041698 242.089426,359.887221 242.089426,358.391133 C242.089426,356.895046 242.368317,355.740568 242.926107,354.927665 C243.483896,354.114762 244.337864,353.708317 245.488035,353.708317 C245.929078,353.708317 246.311742,353.76669 246.636038,353.883436 C246.960335,354.000183 247.239225,354.160167 247.472719,354.363393 C247.706212,354.566618 247.902949,354.804432 248.062935,355.076841 C248.222922,355.34925 248.3548,355.641112 248.458575,355.952437 L247.148424,356.393478 C247.079241,356.185928 247.001411,355.991353 246.914932,355.809747 C246.828453,355.628141 246.720356,355.472481 246.590637,355.342763 C246.460919,355.213044 246.307421,355.109271 246.130139,355.03144 C245.952857,354.953609 245.7345,354.914694 245.475063,354.914694 C244.835118,354.914694 244.368139,355.158993 244.07411,355.6476 C243.780081,356.136206 243.633069,356.795599 243.633069,357.625798 L243.633069,359.156469 C243.633069,359.986668 243.780081,360.64606 244.07411,361.134667 C244.368139,361.623273 244.835118,361.867573 245.475063,361.867573 C245.7345,361.867573 245.952857,361.828658 246.130139,361.750827 C246.307421,361.672996 246.460919,361.569222 246.590637,361.439504 C246.720356,361.309785 246.828453,361.154125 246.914932,360.972519 C247.001411,360.790913 247.079241,360.596339 247.148424,360.388789 L248.458575,360.82983 C248.3548,361.141154 248.222922,361.433017 248.062935,361.705426 C247.902949,361.977835 247.706212,362.215648 247.472719,362.418874 C247.239225,362.6221 246.960335,362.782084 246.636038,362.89883 C246.311742,363.015577 245.929078,363.073949 245.488035,363.073949 Z M251.649635,362.918288 L250.209767,362.918288 L250.209767,353.863979 L253.595404,353.863979 C254.460194,353.863979 255.119587,354.106116 255.573602,354.590399 C256.027617,355.074681 256.254621,355.74056 256.254621,356.588054 C256.254621,357.279887 256.085989,357.85064 255.748721,358.300331 C255.411453,358.750022 254.927177,359.02675 254.29588,359.130525 L256.384339,362.918288 L254.775837,362.918288 L252.856012,359.260243 L251.649635,359.260243 L251.649635,362.918288 Z M253.387855,358.092782 C254.287237,358.092782 254.736921,357.682013 254.736921,356.860462 L254.736921,356.302675 C254.736921,355.481124 254.287237,355.070355 253.387855,355.070355 L251.649635,355.070355 L251.649635,358.092782 L253.387855,358.092782 Z" id="MCR" fill-opacity="0.6" fill="#1F2124"></path>
                <g id="Group-4" transform="translate(521.636719, 241.871094) rotate(8.000000) translate(-521.636719, -241.871094) translate(487.136719, 169.371094)">
                    <g id="Combined-Shape" transform="translate(5.433071, 10.241636)">
                        <mask id="mask-11" fill="white">
                            <use xlink:href="#path-10"></use>
                        </mask>
                        <g id="Mask"></g>
                        <path d="M-467.24409,163.667993 C-331.292292,165.45251 -229.78442,158.585475 -162.720472,143.066889 C-44.72949,115.305484 29.250825,62.8353785 59.2204724,-14.3434279 L59.2204724,-8.29899625 C26.7558717,67.1881763 -47.2244433,118.452022 -162.720472,145.49254 C-274.682192,170.785639 -423.259587,165.553415 -467.244094,166.462855 L-467.244094,163.668038 Z" fill="#58CD9E" mask="url(#mask-11)"></path>
                    </g>
                    <g id="Group" transform="translate(6.526008, 78.478655) rotate(20.000000) translate(-6.526008, -78.478655) translate(1.636244, 73.627354)">
                        <g id="Oval">
                            <use fill="black" fill-opacity="1" filter="url(#filter-13)" xlink:href="#path-12"></use>
                            <use fill="#1EAB89" fill-rule="evenodd" xlink:href="#path-12"></use>
                        </g>
                    </g>
                    <g id="Group" transform="translate(59.482059, 9.423097) rotate(13.000000) translate(-59.482059, -9.423097) translate(51.875760, 1.876629)">
                        <g id="Oval">
                            <use fill="black" fill-opacity="1" filter="url(#filter-15)" xlink:href="#path-14"></use>
                            <use fill="#1EAB89" fill-rule="evenodd" xlink:href="#path-14"></use>
                        </g>
                        <path d="M8.03322296,4.07284008 L11.2938629,8.74560617 C11.6354848,9.23517855 11.5155473,9.90899467 11.0259749,10.2506166 C10.844548,10.3772156 10.6286444,10.4450976 10.4074137,10.4450976 L4.77258301,10.4450976 C4.17560173,10.4450976 3.69165278,9.96114864 3.69165278,9.36416736 C3.69165278,9.14293662 3.75953473,8.92703306 3.88613379,8.74560617 L7.14677374,4.07284008 C7.3175847,3.82805389 7.65449275,3.76808511 7.89927895,3.93889607 C7.95146406,3.97531066 7.99680837,4.02065497 8.03322296,4.07284008 Z" id="Triangle" fill="#58CD9E" transform="translate(7.589998, 6.941380) rotate(3.000000) translate(-7.589998, -6.941380) "></path>
                    </g>
                </g>
            </g>
        </g>
    </g>
</svg>