<?xml version="1.0" encoding="UTF-8" standalone="no"?>
<!-- Generator: Adobe Illustrator 16.0.0, SVG Export Plug-In . SVG Version: 6.00 Build 0)  -->
<!DOCTYPE svg  PUBLIC '-//W3C//DTD SVG 1.1//EN'  'http://www.w3.org/Graphics/SVG/1.1/DTD/svg11.dtd'>
<svg id="Layer_1" xmlns="http://www.w3.org/2000/svg" xml:space="preserve" height="401px" viewBox="0 0 645 401" width="645px" version="1.1" y="0px" x="0px" xmlns:xlink="http://www.w3.org/1999/xlink" enable-background="new 0 0 645 401">
<filter id="filter-9" height="140.5%" width="140.5%" y="-14.5%" x="-14.5%" filterUnits="objectBoundingBox">
	<feOffset dy="1" result="shadowOffsetOuter1" dx="1" in="SourceAlpha"/>
	<feGaussianBlur stdDeviation="1" result="shadowBlurOuter1" in="shadowOffsetOuter1"/>
	<feColorMatrix values="0 0 0 0 0   0 0 0 0 0   0 0 0 0 0  0 0 0 0.5 0" type="matrix" in="shadowBlurOuter1"/>
</filter>
<filter id="filter-7" height="140.5%" width="140.5%" y="-14.5%" x="-14.5%" filterUnits="objectBoundingBox">
	<feOffset dy="1" result="shadowOffsetOuter1" dx="1" in="SourceAlpha"/>
	<feGaussianBlur stdDeviation="1" result="shadowBlurOuter1" in="shadowOffsetOuter1"/>
	<feColorMatrix values="0 0 0 0 0   0 0 0 0 0   0 0 0 0 0  0 0 0 0.5 0" type="matrix" in="shadowBlurOuter1"/>
</filter>
<filter id="filter-5" height="734.1%" width="734.1%" y="-269.8%" x="-283.3%" filterUnits="objectBoundingBox">
	<feOffset dy="6" result="shadowOffsetOuter1" dx="4" in="SourceAlpha"/>
	<feGaussianBlur stdDeviation="14" result="shadowBlurOuter1" in="shadowOffsetOuter1"/>
		<feColorMatrix values="0 0 0 0 0   0 0 0 0 0   0 0 0 0 0  0 0 0 0.5 0" type="matrix" result="shadowMatrixOuter1" in="shadowBlurOuter1">
		</feColorMatrix>
	<feOffset dy="1" result="shadowOffsetOuter2" dx="1" in="SourceAlpha"/>
	<feGaussianBlur stdDeviation="1" result="shadowBlurOuter2" in="shadowOffsetOuter2"/>
		<feColorMatrix values="0 0 0 0 0   0 0 0 0 0   0 0 0 0 0  0 0 0 0.5 0" type="matrix" result="shadowMatrixOuter2" in="shadowBlurOuter2">
		</feColorMatrix>
	<feMerge>
		<feMergeNode in="shadowMatrixOuter1"/>
		<feMergeNode in="shadowMatrixOuter2"/>
	</feMerge>
</filter>
<filter id="filter-2" height="113.4%" width="108.1%" y="-5.4%" x="-3.6%" filterUnits="objectBoundingBox">
	<feOffset dy="4" result="shadowOffsetOuter1" dx="2" in="SourceAlpha"/>
	<feGaussianBlur stdDeviation="7" result="shadowBlurOuter1" in="shadowOffsetOuter1"/>
		<feColorMatrix values="0 0 0 0 0.792156863   0 0 0 0 0.823529412   0 0 0 0 0.878431373  0 0 0 0.7 0" type="matrix" result="shadowMatrixOuter1" in="shadowBlurOuter1">
		</feColorMatrix>
	<feOffset dy="1" result="shadowOffsetOuter2" dx="1" in="SourceAlpha"/>
	<feGaussianBlur stdDeviation="1" result="shadowBlurOuter2" in="shadowOffsetOuter2"/>
		<feColorMatrix values="0 0 0 0 0.784313725   0 0 0 0 0.823529412   0 0 0 0 0.882352941  0 0 0 1 0" type="matrix" result="shadowMatrixOuter2" in="shadowBlurOuter2">
		</feColorMatrix>
	<feMerge>
		<feMergeNode in="shadowMatrixOuter1"/>
		<feMergeNode in="shadowMatrixOuter2"/>
	</feMerge>
</filter>
<filter id="filter-15" height="166.3%" width="165.7%" y="-26.5%" x="-32.9%" filterUnits="objectBoundingBox">
	<feOffset dy="1" result="shadowOffsetOuter1" dx="0" in="SourceAlpha"/>
	<feGaussianBlur stdDeviation="1.5" result="shadowBlurOuter1" in="shadowOffsetOuter1"/>
	<feColorMatrix values="0 0 0 0 0   0 0 0 0 0   0 0 0 0 0  0 0 0 0.5 0" type="matrix" in="shadowBlurOuter1"/>
</filter>
<filter id="filter-13" height="209.1%" width="208.3%" y="-43.7%" x="-54.1%" filterUnits="objectBoundingBox">
	<feOffset dy="1" result="shadowOffsetOuter1" dx="0" in="SourceAlpha"/>
	<feGaussianBlur stdDeviation="1.5" result="shadowBlurOuter1" in="shadowOffsetOuter1"/>
	<feColorMatrix values="0 0 0 0 0   0 0 0 0 0   0 0 0 0 0  0 0 0 0.5 0" type="matrix" in="shadowBlurOuter1"/>
</filter>
<title>3E97CF3C-84FA-49C4-9DFE-BF39D5296869</title>
<desc>Created with sketchtool.</desc>
<g id="Page-1">
	<g id="Token-Model-Page" transform="translate(-162 -5047)">
		<g id="Graph-8:-Purchasing-NXM" transform="translate(165 5057)">
			<g id="Rectangle">
				<g filter="url(#filter-2)">
					<path id="path-1_3_" d="m13.648 0h607.71c2.761 0 5 2.239 5 5v363.39c0 2.763-2.239 5-5 5h-607.71c-2.762 0-5-2.237-5-5v-363.39c-0.002-2.761 2.236-5 4.998-5z"/>
				</g>
					<path id="path-1_1_" d="m13.648 0h607.71c2.761 0 5 2.239 5 5v363.39c0 2.763-2.239 5-5 5h-607.71c-2.762 0-5-2.237-5-5v-363.39c-0.002-2.761 2.236-5 4.998-5z" fill="#fff"/>
			</g>
			<path id="Line-Copy-4" d="m9.266 311h617.7" stroke="#E5E5E5" stroke-linecap="square" stroke-width=".6177" fill="none"/>
			<path id="Line-Copy-3" d="m9.266 248h617.7" stroke="#E5E5E5" stroke-linecap="square" stroke-width=".6177" fill="none"/>
			<path id="Line-Copy-2" d="m9.266 184.99h617.7" stroke="#E5E5E5" stroke-linecap="square" stroke-width=".6177" fill="none"/>
			<path id="Line-Copy" d="m8.339 121.98h618.63" stroke="#E5E5E5" stroke-linecap="square" stroke-width=".6177" fill="none"/>
			<path id="Line" d="m8.339 58.979h618.63" stroke="#E5E5E5" stroke-linecap="square" stroke-width=".6177" fill="none"/>
			<rect id="Rectangle-9" height="71" width="130" y="164" x="389" fill="#fff"/>
			<g enable-background="new    ">
				<g fill="#fff">
					<path d="m239.33 358.58l0.039-2.724h-0.104l-1.816 4.656-1.816-4.656h-0.104l0.039 2.724v4.333h-1.284v-9.055h1.777l1.388 3.594h0.091l1.401-3.594h1.673v9.055h-1.284v-4.34h-0.01z"/>
					<path d="m245.49 363.07c-1.15 0-2.004-0.406-2.562-1.22-0.558-0.813-0.836-1.968-0.836-3.464s0.279-2.649 0.836-3.463c0.558-0.813 1.412-1.22 2.562-1.22 0.441 0 0.824 0.058 1.148 0.173 0.324 0.116 0.604 0.274 0.837 0.477 0.233 0.199 0.43 0.437 0.59 0.709 0.16 0.271 0.292 0.563 0.396 0.874l-1.31 0.439c-0.069-0.207-0.147-0.4-0.234-0.583-0.087-0.182-0.194-0.338-0.324-0.468-0.129-0.129-0.283-0.233-0.46-0.312-0.177-0.077-0.396-0.116-0.655-0.116-0.64 0-1.107 0.244-1.401 0.734-0.294 0.491-0.441 1.152-0.441 1.986v1.536c0 0.833 0.147 1.495 0.441 1.984 0.294 0.49 0.761 0.735 1.401 0.735 0.259 0 0.478-0.038 0.655-0.116s0.331-0.182 0.46-0.312c0.13-0.13 0.238-0.285 0.324-0.467 0.086-0.183 0.165-0.377 0.234-0.584l1.31 0.44c-0.104 0.312-0.236 0.604-0.396 0.874-0.16 0.271-0.357 0.508-0.59 0.709s-0.513 0.359-0.837 0.475c-0.34 0.11-0.72 0.17-1.16 0.17z"/>
					<path d="m251.65 362.92h-1.439v-9.055h3.385c0.865 0 1.524 0.242 1.979 0.726 0.454 0.482 0.681 1.147 0.681 1.993 0 0.69-0.168 1.26-0.506 1.708-0.337 0.449-0.821 0.726-1.453 0.829l2.088 3.799h-1.608l-1.92-3.671h-1.207v3.67zm1.74-4.83c0.899 0 1.349-0.413 1.349-1.237v-0.561c0-0.825-0.45-1.238-1.349-1.238h-1.738v3.036h1.74z"/>
				</g>
			</g>
			<g enable-background="new    " fill="#1EAB89">
				<path d="m407.46 174.59h-0.126v7.518h-1.372v-9.772h2.017l2.869 7.519h0.127v-7.519h1.371v9.772h-2.016l-2.87-7.52z"/>
				<path d="m417.7 182.28c-0.551 0-1.046-0.089-1.483-0.266-0.438-0.178-0.809-0.43-1.105-0.756-0.299-0.327-0.527-0.722-0.688-1.184-0.158-0.462-0.237-0.982-0.237-1.561s0.082-1.102 0.245-1.568c0.162-0.467 0.393-0.865 0.687-1.197 0.294-0.331 0.65-0.585 1.07-0.763 0.421-0.177 0.887-0.266 1.399-0.266 0.504 0 0.961 0.086 1.372 0.259s0.761 0.418 1.05 0.734c0.289 0.317 0.513 0.696 0.666 1.135 0.153 0.438 0.23 0.924 0.23 1.456v0.573h-5.18v0.237c0 0.565 0.177 1.026 0.53 1.384 0.355 0.356 0.847 0.535 1.472 0.535 0.467 0 0.864-0.1 1.196-0.299 0.33-0.199 0.601-0.466 0.806-0.8l0.95 0.843c-0.241 0.421-0.612 0.776-1.111 1.066s-1.14 0.45-1.89 0.45zm-0.11-6.4c-0.271 0-0.52 0.047-0.748 0.141-0.229 0.093-0.426 0.227-0.589 0.398-0.163 0.173-0.292 0.376-0.385 0.609s-0.14 0.49-0.14 0.771v0.098h3.625v-0.14c0-0.569-0.16-1.024-0.482-1.365-0.31-0.35-0.74-0.52-1.27-0.52z"/>
				<path d="m422.03 174.88h1.303l0.7 6.075h0.126l1.078-6.075h1.483l1.063 6.075h0.126l0.714-6.075h1.246l-1.009 7.224h-1.875l-0.968-5.6h-0.125l-0.979 5.6h-1.876l-0.99-7.22z"/>
				<path d="m443.02 182.28c-0.541 0-1.023-0.089-1.448-0.266-0.425-0.178-0.783-0.43-1.078-0.756-0.293-0.327-0.519-0.724-0.672-1.19-0.154-0.466-0.23-0.989-0.23-1.568 0-0.578 0.076-1.101 0.23-1.567 0.153-0.466 0.379-0.863 0.672-1.19 0.295-0.326 0.653-0.578 1.078-0.756 0.425-0.177 0.902-0.266 1.436-0.266 0.746 0 1.346 0.156 1.799 0.471 0.453 0.313 0.791 0.722 1.017 1.223l-1.19 0.645c-0.131-0.336-0.329-0.603-0.595-0.798-0.268-0.196-0.609-0.295-1.029-0.295-0.579 0-1.027 0.177-1.344 0.528-0.318 0.353-0.478 0.819-0.478 1.401v1.21c0 0.573 0.158 1.037 0.478 1.394 0.315 0.357 0.773 0.535 1.371 0.535 0.449 0 0.813-0.103 1.1-0.308s0.511-0.485 0.679-0.84l1.12 0.686c-0.232 0.502-0.588 0.912-1.063 1.23-0.49 0.35-1.11 0.51-1.86 0.51z"/>
				<path d="m451.15 182.28c-0.533 0-1.013-0.089-1.437-0.266-0.425-0.178-0.784-0.43-1.078-0.756-0.294-0.327-0.521-0.724-0.68-1.19-0.158-0.467-0.237-0.989-0.237-1.568 0-0.578 0.079-1.101 0.237-1.567 0.159-0.467 0.386-0.863 0.68-1.19 0.294-0.326 0.653-0.578 1.078-0.756 0.424-0.177 0.902-0.266 1.437-0.266 0.53 0 1.01 0.089 1.434 0.266 0.426 0.178 0.785 0.43 1.078 0.756 0.295 0.327 0.521 0.724 0.68 1.19s0.238 0.989 0.238 1.567c0 0.579-0.08 1.102-0.238 1.568s-0.385 0.863-0.68 1.19c-0.293 0.326-0.652 0.578-1.078 0.756-0.42 0.18-0.9 0.27-1.43 0.27zm0-1.21c0.559 0 1.005-0.17 1.336-0.511 0.332-0.341 0.498-0.847 0.498-1.52v-1.092c0-0.672-0.166-1.178-0.498-1.519-0.331-0.341-0.777-0.512-1.336-0.512-0.562 0-1.007 0.171-1.339 0.512-0.33 0.341-0.495 0.847-0.495 1.519v1.092c0 0.673 0.165 1.179 0.495 1.52 0.32 0.34 0.77 0.51 1.33 0.51z"/>
				<path d="m458.61 182.11l-2.59-7.224h1.581l0.994 3.052 0.938 2.897h0.084l0.938-2.897 0.994-3.052h1.526l-2.59 7.224h-1.87z"/>
				<path d="m468.1 182.28c-0.551 0-1.045-0.089-1.483-0.266-0.438-0.178-0.808-0.43-1.105-0.756-0.299-0.327-0.526-0.722-0.686-1.184s-0.238-0.982-0.238-1.561 0.081-1.102 0.244-1.568c0.164-0.467 0.393-0.865 0.687-1.197 0.295-0.331 0.651-0.585 1.071-0.763 0.42-0.177 0.888-0.266 1.4-0.266 0.504 0 0.961 0.086 1.371 0.259s0.761 0.418 1.051 0.734c0.289 0.317 0.51 0.696 0.664 1.135s0.23 0.924 0.23 1.456v0.573h-5.181v0.237c0 0.565 0.178 1.026 0.533 1.384 0.354 0.356 0.844 0.535 1.469 0.535 0.467 0 0.866-0.1 1.197-0.299 0.332-0.199 0.6-0.466 0.805-0.8l0.953 0.843c-0.243 0.421-0.614 0.776-1.113 1.066-0.49 0.3-1.11 0.45-1.86 0.45zm-0.11-6.4c-0.271 0-0.521 0.047-0.75 0.141-0.229 0.093-0.424 0.227-0.588 0.398-0.163 0.173-0.291 0.376-0.386 0.609-0.094 0.233-0.141 0.49-0.141 0.771v0.098h3.627v-0.14c0-0.569-0.161-1.024-0.482-1.365-0.32-0.35-0.75-0.52-1.28-0.52z"/>
				<path d="m473.21 180.86h1.918v-4.731h-1.918v-1.246h3.444v1.918h0.084c0.064-0.252 0.159-0.495 0.28-0.729 0.12-0.234 0.274-0.436 0.462-0.608 0.187-0.172 0.415-0.313 0.687-0.421 0.271-0.106 0.588-0.16 0.951-0.16h0.868v1.456h-1.429c-0.56 0-1.018 0.165-1.371 0.495-0.355 0.33-0.532 0.774-0.532 1.333v2.693h2.618v1.246h-6.063v-1.25z"/>
				<path d="m484.76 182.28c-0.784 0-1.458-0.126-2.021-0.378-0.565-0.252-1.021-0.588-1.365-1.008l0.938-0.84c0.316 0.345 0.674 0.608 1.07 0.791 0.396 0.182 0.866 0.272 1.407 0.272 0.494 0 0.894-0.084 1.197-0.252s0.455-0.429 0.455-0.784c0-0.148-0.028-0.275-0.084-0.378-0.058-0.103-0.137-0.187-0.238-0.252-0.104-0.065-0.223-0.116-0.357-0.154-0.135-0.037-0.276-0.064-0.427-0.084l-1.146-0.182c-0.281-0.037-0.565-0.098-0.854-0.182-0.29-0.084-0.548-0.203-0.777-0.357s-0.415-0.352-0.56-0.595-0.217-0.551-0.217-0.924c0-0.737 0.281-1.298 0.847-1.681 0.564-0.382 1.31-0.573 2.233-0.573 0.672 0 1.252 0.1 1.741 0.301 0.49 0.2 0.898 0.479 1.226 0.833l-0.854 0.896c-0.187-0.214-0.452-0.413-0.798-0.595-0.345-0.182-0.803-0.273-1.372-0.273-1.018 0-1.524 0.322-1.524 0.967 0 0.308 0.108 0.521 0.328 0.637 0.22 0.117 0.479 0.193 0.776 0.23l1.148 0.183c0.289 0.047 0.576 0.107 0.86 0.182 0.283 0.075 0.541 0.189 0.771 0.343 0.229 0.154 0.415 0.353 0.56 0.596 0.146 0.242 0.219 0.551 0.219 0.924 0 0.728-0.283 1.3-0.849 1.715-0.59 0.41-1.37 0.62-2.36 0.62z"/>
			</g>
			<g enable-background="new    " fill="#1EAB89">
				<path d="m406.36 198.86h2.464v-4.73h-2.464v-1.246h3.989v5.979h2.311v1.246h-6.3v-1.25zm3.24-7.29c-0.392 0-0.664-0.08-0.817-0.238-0.154-0.158-0.23-0.354-0.23-0.588v-0.294c0-0.233 0.076-0.429 0.23-0.588 0.153-0.158 0.422-0.238 0.805-0.238 0.393 0 0.665 0.08 0.819 0.238 0.152 0.159 0.23 0.354 0.23 0.588v0.294c0 0.233-0.078 0.43-0.23 0.588-0.15 0.16-0.42 0.24-0.8 0.24z"/>
				<path d="m414.52 200.11v-7.224h1.526v1.231h0.069c0.075-0.188 0.171-0.366 0.287-0.539 0.116-0.172 0.259-0.321 0.427-0.447 0.168-0.127 0.364-0.227 0.588-0.302 0.226-0.074 0.485-0.111 0.784-0.111 0.728 0 1.315 0.237 1.765 0.714 0.447 0.477 0.672 1.152 0.672 2.029v4.648h-1.525v-4.424c0-1.148-0.499-1.724-1.498-1.724-0.196 0-0.388 0.026-0.574 0.077-0.187 0.052-0.354 0.129-0.504 0.23-0.15 0.103-0.269 0.233-0.356 0.393-0.09 0.158-0.133 0.341-0.133 0.546v4.899h-1.527v-0.01z"/>
				<path d="m426.22 200.28c-0.541 0-1.023-0.088-1.448-0.266-0.426-0.178-0.784-0.43-1.077-0.756-0.296-0.327-0.52-0.725-0.673-1.189-0.153-0.467-0.23-0.989-0.23-1.568 0-0.578 0.077-1.102 0.23-1.566 0.153-0.468 0.377-0.863 0.673-1.191 0.293-0.325 0.651-0.577 1.077-0.756 0.425-0.176 0.902-0.266 1.436-0.266 0.747 0 1.347 0.156 1.799 0.471 0.452 0.313 0.791 0.723 1.015 1.224l-1.188 0.646c-0.131-0.336-0.329-0.604-0.596-0.799s-0.608-0.295-1.028-0.295c-0.579 0-1.026 0.178-1.345 0.528-0.316 0.353-0.477 0.819-0.477 1.401v1.209c0 0.573 0.159 1.037 0.477 1.395s0.774 0.535 1.373 0.535c0.446 0 0.813-0.104 1.099-0.309 0.284-0.205 0.511-0.484 0.679-0.84l1.12 0.686c-0.233 0.502-0.588 0.912-1.063 1.23-0.48 0.33-1.1 0.49-1.85 0.49z"/>
				<path d="m431.21 198.86h1.918v-4.73h-1.918v-1.246h3.444v1.918h0.084c0.063-0.252 0.158-0.494 0.279-0.729 0.12-0.234 0.274-0.436 0.463-0.608 0.186-0.173 0.414-0.313 0.686-0.421 0.271-0.105 0.588-0.16 0.952-0.16h0.868v1.456h-1.428c-0.562 0-1.019 0.165-1.373 0.495s-0.531 0.773-0.531 1.333v2.692h2.617v1.246h-6.063v-1.25z"/>
				<path d="m442.9 200.28c-0.552 0-1.046-0.088-1.484-0.266s-0.808-0.43-1.104-0.756c-0.3-0.327-0.527-0.722-0.688-1.184-0.16-0.463-0.238-0.982-0.238-1.562s0.081-1.102 0.245-1.567c0.163-0.467 0.394-0.865 0.687-1.197 0.295-0.331 0.65-0.585 1.07-0.764 0.421-0.176 0.888-0.266 1.4-0.266 0.504 0 0.961 0.086 1.372 0.26 0.41 0.172 0.76 0.418 1.05 0.733 0.289 0.317 0.511 0.696 0.665 1.135s0.23 0.925 0.23 1.456v0.573h-5.181v0.237c0 0.564 0.179 1.025 0.532 1.384 0.354 0.356 0.845 0.534 1.47 0.534 0.468 0 0.865-0.1 1.197-0.299 0.331-0.199 0.6-0.465 0.805-0.799l0.952 0.842c-0.243 0.422-0.614 0.776-1.111 1.066-0.51 0.3-1.13 0.45-1.88 0.45zm-0.11-6.4c-0.271 0-0.521 0.047-0.749 0.142-0.229 0.092-0.425 0.227-0.588 0.397-0.164 0.173-0.292 0.376-0.385 0.608-0.095 0.233-0.142 0.49-0.142 0.771v0.098h3.626v-0.14c0-0.569-0.161-1.024-0.482-1.364-0.32-0.35-0.75-0.52-1.28-0.52z"/>
				<path d="m453.84 200.11c-0.438 0-0.768-0.111-0.987-0.336-0.219-0.224-0.353-0.518-0.398-0.881h-0.069c-0.14 0.438-0.395 0.778-0.763 1.021-0.369 0.243-0.838 0.364-1.407 0.364-0.737 0-1.325-0.193-1.765-0.582-0.438-0.387-0.658-0.922-0.658-1.603 0-0.7 0.26-1.233 0.777-1.604 0.518-0.367 1.313-0.553 2.387-0.553h1.387v-0.561c0-0.979-0.518-1.471-1.555-1.471-0.467 0-0.844 0.092-1.133 0.273-0.29 0.182-0.533 0.422-0.729 0.721l-0.91-0.742c0.205-0.391 0.552-0.729 1.036-1.014 0.485-0.285 1.11-0.428 1.876-0.428 0.914 0 1.633 0.219 2.156 0.657 0.522 0.438 0.783 1.073 0.783 1.903v3.627h0.91v1.203h-0.938zm-3.19-0.95c0.494 0 0.9-0.111 1.218-0.334 0.316-0.223 0.477-0.51 0.477-0.862v-1.044h-1.356c-1.103 0-1.652 0.33-1.652 0.988v0.277c0 0.324 0.116 0.568 0.35 0.73 0.23 0.14 0.54 0.23 0.96 0.23z"/>
				<path d="m459.56 200.28c-0.783 0-1.457-0.125-2.021-0.377-0.565-0.252-1.02-0.588-1.365-1.008l0.938-0.841c0.316 0.345 0.674 0.608 1.07 0.791s0.866 0.272 1.407 0.272c0.494 0 0.895-0.084 1.197-0.252s0.455-0.43 0.455-0.784c0-0.147-0.028-0.274-0.084-0.378-0.058-0.104-0.136-0.188-0.238-0.252-0.104-0.065-0.223-0.116-0.356-0.154-0.136-0.037-0.277-0.064-0.428-0.084l-1.146-0.182c-0.281-0.037-0.565-0.098-0.854-0.182-0.29-0.085-0.548-0.203-0.776-0.357-0.229-0.154-0.415-0.353-0.561-0.596-0.145-0.242-0.217-0.551-0.217-0.924 0-0.736 0.281-1.298 0.847-1.681 0.564-0.382 1.311-0.573 2.233-0.573 0.672 0 1.252 0.1 1.742 0.301 0.489 0.2 0.897 0.479 1.225 0.834l-0.854 0.896c-0.188-0.214-0.453-0.413-0.799-0.595-0.345-0.183-0.803-0.273-1.372-0.273-1.018 0-1.524 0.322-1.524 0.967 0 0.309 0.108 0.521 0.328 0.637 0.22 0.117 0.479 0.193 0.776 0.23l1.148 0.184c0.289 0.047 0.576 0.106 0.861 0.182 0.282 0.074 0.541 0.189 0.77 0.343 0.229 0.153 0.415 0.353 0.561 0.597 0.146 0.241 0.218 0.551 0.218 0.924 0 0.728-0.283 1.299-0.849 1.715-0.59 0.41-1.37 0.62-2.36 0.62z"/>
				<path d="m468.1 200.28c-0.551 0-1.045-0.088-1.483-0.266s-0.808-0.43-1.105-0.756c-0.299-0.327-0.526-0.722-0.686-1.184-0.16-0.463-0.238-0.982-0.238-1.562s0.081-1.102 0.244-1.567c0.164-0.467 0.393-0.865 0.687-1.197 0.295-0.331 0.651-0.585 1.071-0.764 0.42-0.176 0.888-0.266 1.4-0.266 0.504 0 0.961 0.086 1.371 0.26 0.41 0.172 0.761 0.418 1.051 0.733 0.289 0.317 0.51 0.696 0.664 1.135s0.23 0.925 0.23 1.456v0.573h-5.181v0.237c0 0.564 0.178 1.025 0.533 1.384 0.354 0.356 0.844 0.534 1.469 0.534 0.467 0 0.866-0.1 1.197-0.299 0.332-0.199 0.6-0.465 0.805-0.799l0.953 0.842c-0.243 0.422-0.614 0.776-1.113 1.066-0.49 0.3-1.11 0.45-1.86 0.45zm-0.11-6.4c-0.271 0-0.521 0.047-0.75 0.142-0.229 0.092-0.424 0.227-0.588 0.397-0.163 0.173-0.291 0.376-0.386 0.608-0.094 0.233-0.141 0.49-0.141 0.771v0.098h3.627v-0.14c0-0.569-0.161-1.024-0.482-1.364-0.32-0.35-0.75-0.52-1.28-0.52z"/>
				<path d="m485.18 200.11c-0.635 0-1.101-0.17-1.398-0.51s-0.448-0.779-0.448-1.32v-4.146h-2.226v-1.246h1.582c0.27 0 0.461-0.054 0.572-0.16 0.112-0.107 0.168-0.302 0.168-0.582v-1.807h1.43v2.549h3.08v1.246h-3.08v4.73h3.08v1.246h-2.75z"/>
				<path d="m490.12 189.75h1.525v4.368h0.069c0.074-0.187 0.17-0.366 0.287-0.539s0.259-0.321 0.427-0.447c0.168-0.127 0.364-0.228 0.59-0.302 0.223-0.074 0.483-0.111 0.782-0.111 0.729 0 1.316 0.237 1.765 0.715 0.447 0.476 0.672 1.151 0.672 2.028v4.647h-1.525v-4.424c0-1.147-0.5-1.723-1.498-1.723-0.194 0-0.387 0.025-0.574 0.077s-0.354 0.129-0.504 0.231c-0.149 0.102-0.268 0.232-0.356 0.392-0.088 0.159-0.133 0.341-0.133 0.546v4.9h-1.525v-10.38z"/>
				<path d="m501.7 200.28c-0.551 0-1.046-0.088-1.484-0.266s-0.808-0.43-1.104-0.756c-0.299-0.327-0.527-0.722-0.688-1.184-0.16-0.463-0.237-0.982-0.237-1.562s0.08-1.102 0.244-1.567c0.163-0.467 0.394-0.865 0.687-1.197 0.295-0.331 0.65-0.585 1.071-0.764 0.421-0.176 0.887-0.266 1.399-0.266 0.504 0 0.961 0.086 1.372 0.26 0.41 0.172 0.76 0.418 1.05 0.733 0.289 0.317 0.512 0.696 0.665 1.135 0.154 0.438 0.23 0.925 0.23 1.456v0.573h-5.181v0.237c0 0.564 0.179 1.025 0.532 1.384 0.354 0.356 0.846 0.534 1.471 0.534 0.467 0 0.864-0.1 1.196-0.299 0.331-0.199 0.601-0.465 0.806-0.799l0.951 0.842c-0.242 0.422-0.613 0.776-1.111 1.066-0.51 0.3-1.13 0.45-1.88 0.45zm-0.11-6.4c-0.271 0-0.521 0.047-0.749 0.142-0.229 0.092-0.425 0.227-0.588 0.397-0.164 0.173-0.292 0.376-0.385 0.608-0.094 0.233-0.142 0.49-0.142 0.771v0.098h3.626v-0.14c0-0.569-0.16-1.024-0.482-1.364-0.32-0.35-0.75-0.52-1.28-0.52z"/>
			</g>
			<g enable-background="new    " fill="#1EAB89">
				<path d="m409.58 218.11c-0.635 0-1.102-0.17-1.4-0.51s-0.446-0.779-0.446-1.32v-4.146h-2.228v-1.246h1.582c0.271 0 0.463-0.054 0.574-0.16 0.112-0.107 0.168-0.302 0.168-0.582v-1.807h1.428v2.549h3.08v1.246h-3.08v4.73h3.08v1.246h-2.75z"/>
				<path d="m417.55 218.28c-0.533 0-1.012-0.088-1.436-0.266-0.425-0.178-0.784-0.43-1.078-0.756-0.294-0.327-0.521-0.725-0.68-1.189-0.158-0.467-0.237-0.989-0.237-1.568 0-0.578 0.079-1.102 0.237-1.566 0.158-0.468 0.386-0.863 0.68-1.191 0.294-0.325 0.653-0.577 1.078-0.756 0.424-0.176 0.901-0.266 1.436-0.266 0.531 0 1.01 0.09 1.435 0.266 0.426 0.179 0.784 0.431 1.077 0.756 0.296 0.328 0.521 0.725 0.681 1.191 0.159 0.465 0.238 0.988 0.238 1.566 0 0.579-0.08 1.102-0.238 1.568-0.158 0.465-0.385 0.862-0.681 1.189-0.293 0.326-0.651 0.578-1.077 0.756-0.42 0.18-0.9 0.27-1.43 0.27zm0-1.21c0.56 0 1.005-0.17 1.336-0.512 0.332-0.34 0.498-0.847 0.498-1.52v-1.092c0-0.672-0.166-1.178-0.498-1.52-0.331-0.341-0.776-0.512-1.336-0.512-0.561 0-1.006 0.171-1.338 0.512-0.331 0.342-0.496 0.848-0.496 1.52v1.092c0 0.673 0.165 1.18 0.496 1.52 0.33 0.34 0.78 0.51 1.34 0.51z"/>
				<path d="m422.98 207.75h1.524v6.259h0.07l1.134-1.161 2.03-1.961h1.806l-2.926 2.842 3.248 4.383h-1.834l-2.521-3.514-1.008 0.938v2.576h-1.524v-10.37z"/>
				<path d="m434.5 218.28c-0.551 0-1.045-0.088-1.484-0.266-0.438-0.178-0.807-0.43-1.104-0.756-0.299-0.327-0.527-0.722-0.687-1.184-0.159-0.463-0.237-0.982-0.237-1.562s0.081-1.102 0.244-1.567c0.164-0.467 0.393-0.865 0.687-1.197 0.294-0.331 0.651-0.585 1.071-0.764 0.42-0.176 0.887-0.266 1.399-0.266 0.504 0 0.961 0.086 1.371 0.26 0.41 0.172 0.762 0.418 1.052 0.733 0.288 0.317 0.51 0.696 0.663 1.135 0.154 0.438 0.231 0.925 0.231 1.456v0.573h-5.181v0.237c0 0.564 0.178 1.025 0.532 1.384 0.354 0.356 0.845 0.534 1.47 0.534 0.467 0 0.865-0.1 1.196-0.299 0.332-0.199 0.601-0.465 0.806-0.799l0.953 0.842c-0.243 0.422-0.614 0.776-1.113 1.066-0.5 0.3-1.12 0.45-1.87 0.45zm-0.11-6.4c-0.271 0-0.521 0.047-0.75 0.142-0.229 0.092-0.424 0.227-0.588 0.397-0.163 0.173-0.291 0.376-0.385 0.608-0.094 0.233-0.141 0.49-0.141 0.771v0.098h3.627v-0.14c0-0.569-0.161-1.024-0.483-1.364-0.32-0.35-0.75-0.52-1.28-0.52z"/>
				<path d="m439.73 218.11v-7.224h1.526v1.231h0.07c0.074-0.188 0.17-0.366 0.287-0.539 0.115-0.172 0.258-0.321 0.426-0.447 0.168-0.127 0.365-0.227 0.589-0.302 0.224-0.074 0.485-0.111 0.784-0.111 0.728 0 1.314 0.237 1.764 0.714 0.447 0.477 0.672 1.152 0.672 2.029v4.648h-1.524v-4.424c0-1.148-0.5-1.724-1.498-1.724-0.196 0-0.389 0.026-0.574 0.077-0.188 0.052-0.355 0.129-0.504 0.23-0.15 0.104-0.27 0.233-0.357 0.393-0.089 0.158-0.133 0.341-0.133 0.546v4.899h-1.527v-0.01z"/>
				<path d="m456.46 210.88h1.526v1.231h0.084c0.215-0.438 0.499-0.781 0.854-1.029 0.354-0.247 0.798-0.37 1.33-0.37 0.849 0 1.525 0.317 2.029 0.951 0.504 0.635 0.756 1.578 0.756 2.828 0 1.251-0.252 2.193-0.756 2.828s-1.182 0.951-2.029 0.951c-0.532 0-0.976-0.123-1.33-0.371-0.354-0.246-0.64-0.59-0.854-1.028h-0.084v4.032h-1.526v-10.02zm3.16 6.15c0.579 0 1.023-0.176 1.338-0.531 0.313-0.354 0.469-0.825 0.469-1.414v-1.176c0-0.588-0.156-1.059-0.469-1.414-0.313-0.354-0.759-0.532-1.338-0.532-0.225 0-0.435 0.028-0.629 0.085-0.197 0.057-0.369 0.141-0.52 0.252-0.148 0.111-0.269 0.249-0.355 0.412-0.09 0.164-0.134 0.357-0.134 0.581v2.408c0 0.225 0.044 0.418 0.134 0.581 0.088 0.162 0.207 0.301 0.355 0.412 0.149 0.113 0.321 0.197 0.52 0.252 0.19 0.05 0.4 0.08 0.62 0.08z"/>
				<path d="m464.81 216.86h1.919v-4.73h-1.919v-1.246h3.444v1.918h0.084c0.064-0.252 0.158-0.494 0.279-0.729s0.274-0.436 0.463-0.608c0.186-0.173 0.414-0.313 0.686-0.421 0.271-0.105 0.589-0.16 0.952-0.16h0.868v1.456h-1.428c-0.562 0-1.019 0.165-1.373 0.495s-0.531 0.773-0.531 1.333v2.692h2.617v1.246h-6.062v-1.25z"/>
				<path d="m473.56 216.86h2.465v-4.73h-2.465v-1.246h3.989v5.979h2.312v1.246h-6.3v-1.25zm3.24-7.29c-0.392 0-0.664-0.08-0.818-0.238-0.153-0.158-0.229-0.354-0.229-0.588v-0.295c0-0.232 0.076-0.428 0.229-0.588 0.154-0.157 0.423-0.237 0.806-0.237 0.393 0 0.665 0.08 0.818 0.237 0.153 0.16 0.231 0.354 0.231 0.588v0.295c0 0.232-0.078 0.43-0.231 0.588-0.16 0.16-0.43 0.24-0.81 0.24z"/>
				<path d="m485.02 218.28c-0.541 0-1.023-0.088-1.447-0.266-0.427-0.178-0.785-0.43-1.078-0.756-0.295-0.327-0.52-0.725-0.672-1.189-0.154-0.467-0.231-0.989-0.231-1.568 0-0.578 0.077-1.102 0.231-1.566 0.152-0.468 0.377-0.863 0.672-1.191 0.293-0.325 0.651-0.577 1.078-0.756 0.424-0.176 0.901-0.266 1.435-0.266 0.747 0 1.347 0.156 1.799 0.471 0.452 0.313 0.791 0.723 1.016 1.224l-1.189 0.646c-0.131-0.336-0.329-0.604-0.596-0.799s-0.608-0.295-1.028-0.295c-0.579 0-1.026 0.178-1.345 0.528-0.316 0.353-0.477 0.819-0.477 1.401v1.209c0 0.573 0.159 1.037 0.477 1.395s0.774 0.535 1.373 0.535c0.446 0 0.813-0.104 1.099-0.309 0.284-0.205 0.511-0.484 0.679-0.84l1.12 0.686c-0.232 0.502-0.588 0.912-1.063 1.23-0.48 0.33-1.1 0.49-1.85 0.49z"/>
				<path d="m493.3 218.28c-0.551 0-1.045-0.088-1.483-0.266s-0.808-0.43-1.105-0.756c-0.299-0.327-0.527-0.722-0.686-1.184-0.16-0.463-0.238-0.982-0.238-1.562s0.081-1.102 0.244-1.567c0.164-0.467 0.393-0.865 0.687-1.197 0.294-0.331 0.651-0.585 1.071-0.764 0.42-0.176 0.887-0.266 1.4-0.266 0.504 0 0.961 0.086 1.37 0.26 0.41 0.172 0.762 0.418 1.052 0.733 0.289 0.317 0.51 0.696 0.664 1.135 0.153 0.438 0.23 0.925 0.23 1.456v0.573h-5.181v0.237c0 0.564 0.178 1.025 0.533 1.384 0.354 0.356 0.844 0.534 1.469 0.534 0.467 0 0.866-0.1 1.197-0.299 0.332-0.199 0.6-0.465 0.805-0.799l0.953 0.842c-0.243 0.422-0.614 0.776-1.113 1.066-0.49 0.3-1.11 0.45-1.86 0.45zm-0.11-6.4c-0.271 0-0.521 0.047-0.75 0.142-0.229 0.092-0.425 0.227-0.589 0.397-0.162 0.173-0.29 0.376-0.385 0.608-0.094 0.233-0.141 0.49-0.141 0.771v0.098h3.627v-0.14c0-0.569-0.161-1.024-0.483-1.364-0.32-0.35-0.75-0.52-1.28-0.52z"/>
			</g>
			<g id="Group-2" transform="translate(0 46.008)">
				<g id="Group" transform="translate(8.6479 .61770)">
						<linearGradient id="Path-2_1_" y2="1.165" gradientUnits="userSpaceOnUse" x2="111.94" gradientTransform="matrix(617.68 0 0 315.65 -68525 -197.55)" y1="1.165" x1="110.94">
						<stop stop-color="#1EAB89" stop-opacity="0" offset="0"/>
						<stop stop-color="#1EAB89" stop-opacity=".2" offset="1"/>
					</linearGradient>
					<path id="Path-2" d="m0.618 298.04c86.756-1.521 148.32-3.375 184.69-5.561 52.596-3.159 99.759-6.004 138.36-13.28 187.78-39.327 285.59-128.28 293.41-266.85l1.217 310.63c0.011 2.762-2.22 5.009-4.98 5.02-0.007 0-0.013 0.002-0.02 0.002h-612.68v-29.96z" fill="url(#Path-2_1_)"/>
					<path id="Combined-Shape" d="m0 295.83l236.58-6.432c244.61-22.45 371.04-118.79 379.27-289.02h1.854v24.025c-19.85 158.11-146.89 247.37-381.12 267.77l-236.58 7.03v-3.38z" fill="#1EAB89"/>
					<g id="Rectangle-2" transform="translate(235.94 289.69) rotate(45) translate(-235.94 -289.69)">
						<g filter="url(#filter-5)">
							<rect id="path-4_3_" y="282.27" x="228.53" height="14.825" width="14.825"/>
						</g>
							<rect id="path-4_1_" height="14.825" width="14.825" y="282.27" x="228.53" fill="#1EAB89"/>
					</g>
						<rect id="Rectangle-2_1_" transform="matrix(.7071 .7071 -.7071 .7071 273.95 -81.991)" height="7.843" width="7.843" y="285.77" x="232.03" fill="#58CD9E"/>
				</g>
				<g id="Oval">
					<g filter="url(#filter-7)">
						<circle id="path-6_3_" cy="297.73" cx="8.648" r="8.647"/>
					</g>
						<circle id="path-6_1_" cy="297.73" cx="8.648" r="8.647" fill="#1EAB89"/>
				</g>
				<g id="Oval_1_">
					<g filter="url(#filter-9)">
						<circle id="path-8_3_" cy="8.648" cx="626.35" r="8.648"/>
					</g>
						<circle id="path-8_1_" cy="8.648" cx="626.35" r="8.648" fill="#1EAB89"/>
				</g>
				<circle id="Oval-2" cy="297.73" cx="8.648" r="4.941" fill="#58CD9E"/>
				<path id="Triangle" d="m627.01 4.704l3.425 5.545c0.357 0.58 0.179 1.341-0.402 1.7-0.214 0.132-0.463 0.195-0.714 0.182l-6.395-0.335c-0.682-0.036-1.205-0.617-1.169-1.298 0.014-0.251 0.103-0.492 0.256-0.691l3.984-5.156c0.209-0.27 0.597-0.32 0.866-0.111 0.04 0.045 0.09 0.101 0.13 0.164z" fill="#58CD9E"/>
			</g>
			<g opacity=".6" enable-background="new    ">
				<g fill="#1F2124">
					<path d="m239.33 358.58l0.039-2.724h-0.104l-1.816 4.656-1.816-4.656h-0.104l0.039 2.724v4.333h-1.284v-9.055h1.777l1.388 3.594h0.091l1.401-3.594h1.673v9.055h-1.284v-4.34h-0.01z"/>
					<path d="m245.49 363.07c-1.15 0-2.004-0.406-2.562-1.22-0.558-0.813-0.836-1.968-0.836-3.464s0.279-2.649 0.836-3.463c0.558-0.813 1.412-1.22 2.562-1.22 0.441 0 0.824 0.058 1.148 0.173 0.324 0.116 0.604 0.274 0.837 0.477 0.233 0.199 0.43 0.437 0.59 0.709 0.16 0.271 0.292 0.563 0.396 0.874l-1.31 0.439c-0.069-0.207-0.147-0.4-0.234-0.583-0.087-0.182-0.194-0.338-0.324-0.468-0.129-0.129-0.283-0.233-0.46-0.312-0.177-0.077-0.396-0.116-0.655-0.116-0.64 0-1.107 0.244-1.401 0.734-0.294 0.491-0.441 1.152-0.441 1.986v1.536c0 0.833 0.147 1.495 0.441 1.984 0.294 0.49 0.761 0.735 1.401 0.735 0.259 0 0.478-0.038 0.655-0.116s0.331-0.182 0.46-0.312c0.13-0.13 0.238-0.285 0.324-0.467 0.086-0.183 0.165-0.377 0.234-0.584l1.31 0.44c-0.104 0.312-0.236 0.604-0.396 0.874-0.16 0.271-0.357 0.508-0.59 0.709s-0.513 0.359-0.837 0.475c-0.34 0.11-0.72 0.17-1.16 0.17z"/>
					<path d="m251.65 362.92h-1.439v-9.055h3.385c0.865 0 1.524 0.242 1.979 0.726 0.454 0.482 0.681 1.147 0.681 1.993 0 0.69-0.168 1.26-0.506 1.708-0.337 0.449-0.821 0.726-1.453 0.829l2.088 3.799h-1.608l-1.92-3.671h-1.207v3.67zm1.74-4.83c0.899 0 1.349-0.413 1.349-1.237v-0.561c0-0.825-0.45-1.238-1.349-1.238h-1.738v3.036h1.74z"/>
				</g>
			</g>
				<g id="Group-4" transform="translate(521.64 241.87) rotate(8) translate(-34.5 -72.5)">
				<g id="Combined-Shape_1_" transform="translate(5.4331 10.242)">
					<defs>
							<filter id="Adobe_OpacityMaskFilter" height="204.25" width="523.17" y="-14.343" x="-463.95" filterUnits="userSpaceOnUse">
							<feColorMatrix values="1 0 0 0 0  0 1 0 0 0  0 0 1 0 0  0 0 0 1 0" type="matrix"/>
						</filter>
					</defs>
					<mask id="mask-11" height="204.254" width="523.171" y="-14.343" x="-463.95" maskUnits="userSpaceOnUse">
						<g filter="url(#Adobe_OpacityMaskFilter)">
							<rect id="path-10" height="134.76" width="59.22" y="0" x=".001" fill="#fff"/>
						</g>
					</mask>
					<path mask="url(#mask-11)" d="m-467.24 163.67c135.95 1.784 237.46-5.083 304.52-20.601 117.99-27.77 191.97-80.234 221.94-157.41v6.041c-32.464 75.488-106.44 126.75-221.94 153.79-111.96 25.293-260.54 20.062-304.52 20.97v-2.79z" fill="#58CD9E"/>
				</g>
					<g id="Group_1_" transform="translate(6.526 78.479) rotate(20) translate(-4.8898 -4.852)">
					<g id="Oval_2_">
						<g filter="url(#filter-13)">
								<ellipse id="path-12_3_" rx="4.618" ry="4.582" transform="matrix(-1 .000030669 -.000030669 -1 9.236 9.1622)" cy="4.581" cx="4.618"/>
						</g>
								<ellipse id="path-12_1_" rx="4.618" transform="matrix(-1 .000030669 -.000030669 -1 9.236 9.1622)" ry="4.582" cy="4.581" cx="4.618" fill="#1EAB89"/>
					</g>
				</g>
					<g id="Group_2_" transform="translate(59.482 9.4231) rotate(13) translate(-7.606 -7.5465)">
					<g id="Oval_3_">
						<g filter="url(#filter-15)">
								<ellipse id="path-14_3_" rx="7.607" ry="7.546" transform="matrix(-1 .000050457 -.000050457 -1 15.212 15.092)" cy="7.546" cx="7.606"/>
						</g>
								<ellipse id="path-14_1_" rx="7.607" transform="matrix(-1 .000050457 -.000050457 -1 15.212 15.092)" ry="7.546" cy="7.546" cx="7.606" fill="#1EAB89"/>
					</g>
					<path id="Triangle_1_" d="m8.183 4.1l3.012 4.837c0.316 0.507 0.162 1.174-0.347 1.489-0.186 0.117-0.405 0.173-0.627 0.162l-5.627-0.295c-0.597-0.031-1.055-0.54-1.023-1.136 0.011-0.221 0.09-0.433 0.226-0.607l3.501-4.496c0.183-0.236 0.522-0.278 0.758-0.094 0.05 0.038 0.094 0.086 0.127 0.14z" fill="#58CD9E"/>
				</g>
			</g>
		</g>
	</g>
</g>
</svg>
