<?xml version="1.0" encoding="UTF-8"?>
<svg width="648px" height="253px" viewBox="0 0 648 253" version="1.1" xmlns="http://www.w3.org/2000/svg" xmlns:xlink="http://www.w3.org/1999/xlink">
    <!-- Generator: Sketch 51.2 (57519) - http://www.bohemiancoding.com/sketch -->
    <title>Graph 5: Capital Pool Decrease</title>
    <desc>Created with Sketch.</desc>
    <defs>
        <rect id="path-1" x="0" y="2.27373675e-13" width="207.121097" height="156" rx="1.92134598"></rect>
        <filter x="-6.5%" y="-8.7%" width="115.9%" height="121.2%" filterUnits="objectBoundingBox" id="filter-2">
            <feOffset dx="2" dy="2" in="SourceAlpha" result="shadowOffsetOuter1"></feOffset>
            <feGaussianBlur stdDeviation="4.5" in="shadowOffsetOuter1" result="shadowBlurOuter1"></feGaussianBlur>
            <feColorMatrix values="0 0 0 0 0.792156863   0 0 0 0 0.823529412   0 0 0 0 0.878431373  0 0 0 0.7 0" type="matrix" in="shadowBlurOuter1" result="shadowMatrixOuter1"></feColorMatrix>
            <feOffset dx="1" dy="1" in="SourceAlpha" result="shadowOffsetOuter2"></feOffset>
            <feGaussianBlur stdDeviation="1" in="shadowOffsetOuter2" result="shadowBlurOuter2"></feGaussianBlur>
            <feColorMatrix values="0 0 0 0 0.784313725   0 0 0 0 0.823529412   0 0 0 0 0.882352941  0 0 0 1 0" type="matrix" in="shadowBlurOuter2" result="shadowMatrixOuter2"></feColorMatrix>
            <feMerge>
                <feMergeNode in="shadowMatrixOuter1"></feMergeNode>
                <feMergeNode in="shadowMatrixOuter2"></feMergeNode>
            </feMerge>
        </filter>
        <rect id="path-3" x="22.5488372" y="0" width="386.046512" height="235.265116" rx="5"></rect>
        <filter x="-3.8%" y="-5.7%" width="108.5%" height="114.0%" filterUnits="objectBoundingBox" id="filter-4">
            <feOffset dx="2" dy="2" in="SourceAlpha" result="shadowOffsetOuter1"></feOffset>
            <feGaussianBlur stdDeviation="4.5" in="shadowOffsetOuter1" result="shadowBlurOuter1"></feGaussianBlur>
            <feColorMatrix values="0 0 0 0 0.792156863   0 0 0 0 0.823529412   0 0 0 0 0.878431373  0 0 0 0.7 0" type="matrix" in="shadowBlurOuter1" result="shadowMatrixOuter1"></feColorMatrix>
            <feOffset dx="0" dy="1" in="SourceAlpha" result="shadowOffsetOuter2"></feOffset>
            <feGaussianBlur stdDeviation="1" in="shadowOffsetOuter2" result="shadowBlurOuter2"></feGaussianBlur>
            <feColorMatrix values="0 0 0 0 0.784313725   0 0 0 0 0.823529412   0 0 0 0 0.882352941  0 0 0 1 0" type="matrix" in="shadowBlurOuter2" result="shadowMatrixOuter2"></feColorMatrix>
            <feMerge>
                <feMergeNode in="shadowMatrixOuter1"></feMergeNode>
                <feMergeNode in="shadowMatrixOuter2"></feMergeNode>
            </feMerge>
        </filter>
        <rect id="path-5" x="0" y="0" width="96.5116279" height="96.5116279"></rect>
        <circle id="path-7" cx="4.1182137" cy="3.94503189" r="3.28139535"></circle>
        <filter x="-53.3%" y="-38.1%" width="206.7%" height="206.7%" filterUnits="objectBoundingBox" id="filter-8">
            <feOffset dx="0" dy="1" in="SourceAlpha" result="shadowOffsetOuter1"></feOffset>
            <feGaussianBlur stdDeviation="1" in="shadowOffsetOuter1" result="shadowBlurOuter1"></feGaussianBlur>
            <feColorMatrix values="0 0 0 0 0   0 0 0 0 0   0 0 0 0 0  0 0 0 0.5 0" type="matrix" in="shadowBlurOuter1"></feColorMatrix>
        </filter>
        <circle id="path-9" cx="5.40465116" cy="5.40465116" r="5.40465116"></circle>
        <filter x="-32.4%" y="-23.1%" width="164.8%" height="164.8%" filterUnits="objectBoundingBox" id="filter-10">
            <feOffset dx="0" dy="1" in="SourceAlpha" result="shadowOffsetOuter1"></feOffset>
            <feGaussianBlur stdDeviation="1" in="shadowOffsetOuter1" result="shadowBlurOuter1"></feGaussianBlur>
            <feColorMatrix values="0 0 0 0 0   0 0 0 0 0   0 0 0 0 0  0 0 0 0.5 0" type="matrix" in="shadowBlurOuter1"></feColorMatrix>
        </filter>
        <filter x="-37.6%" y="-8.1%" width="167.1%" height="123.0%" filterUnits="objectBoundingBox" id="filter-11">
            <feOffset dx="0" dy="1" in="SourceAlpha" result="shadowOffsetOuter1"></feOffset>
            <feGaussianBlur stdDeviation="1" in="shadowOffsetOuter1" result="shadowBlurOuter1"></feGaussianBlur>
            <feColorMatrix values="0 0 0 0 0   0 0 0 0 0   0 0 0 0 0  0 0 0 0.5 0" type="matrix" in="shadowBlurOuter1" result="shadowMatrixOuter1"></feColorMatrix>
            <feMerge>
                <feMergeNode in="shadowMatrixOuter1"></feMergeNode>
                <feMergeNode in="SourceGraphic"></feMergeNode>
            </feMerge>
        </filter>
        <linearGradient x1="0%" y1="100%" x2="100%" y2="100%" id="linearGradient-12">
            <stop stop-color="#1EAB89" stop-opacity="0" offset="0%"></stop>
            <stop stop-color="#1EAB89" stop-opacity="0.2" offset="100%"></stop>
        </linearGradient>
        <rect id="path-13" x="142.825845" y="176.411892" width="9.26511628" height="9.26511628"></rect>
        <filter x="-313.0%" y="-280.6%" width="769.2%" height="769.2%" filterUnits="objectBoundingBox" id="filter-14">
            <feOffset dx="2" dy="4" in="SourceAlpha" result="shadowOffsetOuter1"></feOffset>
            <feGaussianBlur stdDeviation="9" in="shadowOffsetOuter1" result="shadowBlurOuter1"></feGaussianBlur>
            <feColorMatrix values="0 0 0 0 0   0 0 0 0 0   0 0 0 0 0  0 0 0 0.5 0" type="matrix" in="shadowBlurOuter1" result="shadowMatrixOuter1"></feColorMatrix>
            <feOffset dx="0" dy="1" in="SourceAlpha" result="shadowOffsetOuter2"></feOffset>
            <feGaussianBlur stdDeviation="1" in="shadowOffsetOuter2" result="shadowBlurOuter2"></feGaussianBlur>
            <feColorMatrix values="0 0 0 0 0   0 0 0 0 0   0 0 0 0 0  0 0 0 0.5 0" type="matrix" in="shadowBlurOuter2" result="shadowMatrixOuter2"></feColorMatrix>
            <feMerge>
                <feMergeNode in="shadowMatrixOuter1"></feMergeNode>
                <feMergeNode in="shadowMatrixOuter2"></feMergeNode>
            </feMerge>
        </filter>
        <circle id="path-15" cx="5.40465116" cy="186.074419" r="5.40465116"></circle>
        <filter x="-32.4%" y="-23.1%" width="164.8%" height="164.8%" filterUnits="objectBoundingBox" id="filter-16">
            <feOffset dx="0" dy="1" in="SourceAlpha" result="shadowOffsetOuter1"></feOffset>
            <feGaussianBlur stdDeviation="1" in="shadowOffsetOuter1" result="shadowBlurOuter1"></feGaussianBlur>
            <feColorMatrix values="0 0 0 0 0   0 0 0 0 0   0 0 0 0 0  0 0 0 0.5 0" type="matrix" in="shadowBlurOuter1"></feColorMatrix>
        </filter>
        <circle id="path-17" cx="391.451163" cy="5.40465116" r="5.40465116"></circle>
        <filter x="-32.4%" y="-23.1%" width="164.8%" height="164.8%" filterUnits="objectBoundingBox" id="filter-18">
            <feOffset dx="0" dy="1" in="SourceAlpha" result="shadowOffsetOuter1"></feOffset>
            <feGaussianBlur stdDeviation="1" in="shadowOffsetOuter1" result="shadowBlurOuter1"></feGaussianBlur>
            <feColorMatrix values="0 0 0 0 0   0 0 0 0 0   0 0 0 0 0  0 0 0 0.5 0" type="matrix" in="shadowBlurOuter1"></feColorMatrix>
        </filter>
    </defs>
    <g id="Page-2" stroke="none" stroke-width="1" fill="none" fill-rule="evenodd">
        <g id="Token-Model-Page---Outline-Text-for-svg-output" transform="translate(-158.000000, -3898.000000)">
            <g id="Graph-5:-Capital-Pool-Decrease" transform="translate(165.000000, 3905.000000)">
                <g id="Group-4" transform="translate(0.000000, 60.000000)">
                    <g id="Path">
                        <use fill="black" fill-opacity="1" filter="url(#filter-2)" xlink:href="#path-1"></use>
                        <use fill="#FFFFFF" fill-rule="evenodd" xlink:href="#path-1"></use>
                    </g>
                    <path d="M16.1393062,24.117981 C15.2904022,24.117981 14.6022295,24.8061537 14.6022295,25.6550578 L14.6022295,64.8953126 C14.6022295,65.7442167 15.2904022,66.4323894 16.1393062,66.4323894 L108.556048,66.4323894 C109.404952,66.4323894 110.093125,65.7442167 110.093125,64.8953126 L110.093125,60.4954628 L113.854902,57.5834415 L110.093125,54.9140886 L110.093125,25.6550578 C110.093125,24.8061537 109.404952,24.117981 108.556048,24.117981 L16.1393062,24.117981 Z" id="Path" stroke="#E1E6EE" stroke-width="0.768538392" opacity="0.59609375"></path>
                    <path d="M16.1393062,74.3099079 C15.2904022,74.3099079 14.6022295,74.9980806 14.6022295,75.8469847 L14.6022295,133.402625 C14.6022295,134.251529 15.2904022,134.939702 16.1393062,134.939702 L108.556048,134.939702 C109.404952,134.939702 110.093125,134.251529 110.093125,133.402625 L110.093125,125.118505 L113.440473,121.955803 L110.093125,118.793102 L110.093125,75.8469847 C110.093125,74.9980806 109.404952,74.3099079 108.556048,74.3099079 L16.1393062,74.3099079 Z" id="Path" stroke="#E1E6EE" stroke-width="0.768538392" opacity="0.59609375" transform="translate(64.021352, 104.624805) scale(1, -1) translate(-64.021352, -104.624805) "></path>
                    <path d="M135.175479,47.168 C133.934139,47.168 133.012482,46.7293377 132.410479,45.852 C131.808476,44.9746623 131.507479,43.7286747 131.507479,42.114 C131.507479,40.4993253 131.808476,39.2533377 132.410479,38.376 C133.012482,37.4986623 133.934139,37.06 135.175479,37.06 C135.651481,37.06 136.064477,37.1229994 136.414479,37.249 C136.764481,37.3750006 137.065478,37.5476656 137.317479,37.767 C137.56948,37.9863344 137.781811,38.2429985 137.954479,38.537 C138.127146,38.8310015 138.269478,39.1459983 138.381479,39.482 L136.967479,39.958 C136.892812,39.7339989 136.808813,39.524001 136.715479,39.328 C136.622145,39.131999 136.505479,38.9640007 136.365479,38.824 C136.225478,38.6839993 136.059813,38.5720004 135.868479,38.488 C135.677144,38.4039996 135.44148,38.362 135.161479,38.362 C134.470809,38.362 133.966814,38.625664 133.649479,39.153 C133.332144,39.680336 133.173479,40.3919955 133.173479,41.288 L133.173479,42.94 C133.173479,43.8360045 133.332144,44.547664 133.649479,45.075 C133.966814,45.602336 134.470809,45.866 135.161479,45.866 C135.44148,45.866 135.677144,45.8240004 135.868479,45.74 C136.059813,45.6559996 136.225478,45.5440007 136.365479,45.404 C136.505479,45.2639993 136.622145,45.096001 136.715479,44.9 C136.808813,44.703999 136.892812,44.4940011 136.967479,44.27 L138.381479,44.746 C138.269478,45.0820017 138.127146,45.3969985 137.954479,45.691 C137.781811,45.9850015 137.56948,46.2416656 137.317479,46.461 C137.065478,46.6803344 136.764481,46.8529994 136.414479,46.979 C136.064477,47.1050006 135.651481,47.168 135.175479,47.168 Z M145.983479,47 C145.54481,47 145.215813,46.8880011 144.996479,46.664 C144.777144,46.4399989 144.644146,46.1460018 144.597479,45.782 L144.527479,45.782 C144.387478,46.2206689 144.133147,46.5613321 143.764479,46.804 C143.39581,47.0466679 142.926815,47.168 142.357479,47.168 C141.620142,47.168 141.032148,46.9743353 140.593479,46.587 C140.15481,46.1996647 139.935479,45.6653367 139.935479,44.984 C139.935479,44.2839965 140.194476,43.7496685 140.712479,43.381 C141.230481,43.0123315 142.02614,42.828 143.099479,42.828 L144.485479,42.828 L144.485479,42.268 C144.485479,41.2879951 143.967484,40.798 142.931479,40.798 C142.46481,40.798 142.086814,40.8889991 141.797479,41.071 C141.508144,41.2530009 141.26548,41.4933318 141.069479,41.792 L140.159479,41.05 C140.364813,40.657998 140.710143,40.3196681 141.195479,40.035 C141.680815,39.7503319 142.306142,39.608 143.071479,39.608 C143.98615,39.608 144.704809,39.8273311 145.227479,40.266 C145.750148,40.7046689 146.011479,41.3393292 146.011479,42.17 L146.011479,45.796 L146.921479,45.796 L146.921479,47 L145.983479,47 Z M142.791479,46.048 C143.286148,46.048 143.692144,45.9360011 144.009479,45.712 C144.326814,45.4879989 144.485479,45.1986684 144.485479,44.844 L144.485479,43.794 L143.127479,43.794 C142.02614,43.794 141.475479,44.12533 141.475479,44.788 L141.475479,45.068 C141.475479,45.3946683 141.592144,45.6396659 141.825479,45.803 C142.058813,45.9663342 142.38081,46.048 142.791479,46.048 Z M148.601479,39.776 L150.127479,39.776 L150.127479,41.008 L150.211479,41.008 C150.426147,40.5693311 150.71081,40.2263346 151.065479,39.979 C151.420147,39.7316654 151.863476,39.608 152.395479,39.608 C153.244816,39.608 153.921476,39.9253302 154.425479,40.56 C154.929481,41.1946698 155.181479,42.1373271 155.181479,43.388 C155.181479,44.6386729 154.929481,45.5813302 154.425479,46.216 C153.921476,46.8506698 153.244816,47.168 152.395479,47.168 C151.863476,47.168 151.420147,47.0443346 151.065479,46.797 C150.71081,46.5496654 150.426147,46.2066689 150.211479,45.768 L150.127479,45.768 L150.127479,49.8 L148.601479,49.8 L148.601479,39.776 Z M151.765479,45.922 C152.344148,45.922 152.789811,45.7446684 153.102479,45.39 C153.415147,45.0353316 153.571479,44.5640029 153.571479,43.976 L153.571479,42.8 C153.571479,42.2119971 153.415147,41.7406684 153.102479,41.386 C152.789811,41.0313316 152.344148,40.854 151.765479,40.854 C151.541478,40.854 151.33148,40.8819997 151.135479,40.938 C150.939478,40.9940003 150.766813,41.0779994 150.617479,41.19 C150.468145,41.3020006 150.349146,41.4396659 150.260479,41.603 C150.171812,41.7663342 150.127479,41.9599989 150.127479,42.184 L150.127479,44.592 C150.127479,44.8160011 150.171812,45.0096659 150.260479,45.173 C150.349146,45.3363342 150.468145,45.4739994 150.617479,45.586 C150.766813,45.6980006 150.939478,45.7819997 151.135479,45.838 C151.33148,45.8940003 151.541478,45.922 151.765479,45.922 Z M160.543479,38.46 C160.151477,38.46 159.87848,38.3806675 159.724479,38.222 C159.570478,38.0633325 159.493479,37.8673345 159.493479,37.634 L159.493479,37.34 C159.493479,37.1066655 159.570478,36.9106675 159.724479,36.752 C159.87848,36.5933325 160.14681,36.514 160.529479,36.514 C160.921481,36.514 161.194478,36.5933325 161.348479,36.752 C161.50248,36.9106675 161.579479,37.1066655 161.579479,37.34 L161.579479,37.634 C161.579479,37.8673345 161.50248,38.0633325 161.348479,38.222 C161.194478,38.3806675 160.926147,38.46 160.543479,38.46 Z M157.309479,45.768 L159.773479,45.768 L159.773479,41.008 L157.309479,41.008 L157.309479,39.776 L161.299479,39.776 L161.299479,45.768 L163.609479,45.768 L163.609479,47 L157.309479,47 L157.309479,45.768 Z M168.929479,47 C168.294809,47 167.828147,46.8296684 167.529479,46.489 C167.230811,46.1483316 167.081479,45.707336 167.081479,45.166 L167.081479,41.008 L164.855479,41.008 L164.855479,39.776 L166.437479,39.776 C166.708147,39.776 166.899478,39.7223339 167.011479,39.615 C167.123479,39.5076661 167.179479,39.3140014 167.179479,39.034 L167.179479,37.228 L168.607479,37.228 L168.607479,39.776 L171.687479,39.776 L171.687479,41.008 L168.607479,41.008 L168.607479,45.768 L171.687479,45.768 L171.687479,47 L168.929479,47 Z M179.583479,47 C179.14481,47 178.815813,46.8880011 178.596479,46.664 C178.377144,46.4399989 178.244146,46.1460018 178.197479,45.782 L178.127479,45.782 C177.987478,46.2206689 177.733147,46.5613321 177.364479,46.804 C176.99581,47.0466679 176.526815,47.168 175.957479,47.168 C175.220142,47.168 174.632148,46.9743353 174.193479,46.587 C173.75481,46.1996647 173.535479,45.6653367 173.535479,44.984 C173.535479,44.2839965 173.794476,43.7496685 174.312479,43.381 C174.830481,43.0123315 175.62614,42.828 176.699479,42.828 L178.085479,42.828 L178.085479,42.268 C178.085479,41.2879951 177.567484,40.798 176.531479,40.798 C176.06481,40.798 175.686814,40.8889991 175.397479,41.071 C175.108144,41.2530009 174.86548,41.4933318 174.669479,41.792 L173.759479,41.05 C173.964813,40.657998 174.310143,40.3196681 174.795479,40.035 C175.280815,39.7503319 175.906142,39.608 176.671479,39.608 C177.58615,39.608 178.304809,39.8273311 178.827479,40.266 C179.350148,40.7046689 179.611479,41.3393292 179.611479,42.17 L179.611479,45.796 L180.521479,45.796 L180.521479,47 L179.583479,47 Z M176.391479,46.048 C176.886148,46.048 177.292144,45.9360011 177.609479,45.712 C177.926814,45.4879989 178.085479,45.1986684 178.085479,44.844 L178.085479,43.794 L176.727479,43.794 C175.62614,43.794 175.075479,44.12533 175.075479,44.788 L175.075479,45.068 C175.075479,45.3946683 175.192144,45.6396659 175.425479,45.803 C175.658813,45.9663342 175.98081,46.048 176.391479,46.048 Z M182.145479,45.768 L184.539479,45.768 L184.539479,37.872 L182.145479,37.872 L182.145479,36.64 L186.065479,36.64 L186.065479,45.768 L188.459479,45.768 L188.459479,47 L182.145479,47 L182.145479,45.768 Z M144.471479,65 L144.471479,55.228 L148.125479,55.228 C149.058817,55.228 149.770476,55.4893307 150.260479,56.012 C150.750481,56.5346693 150.995479,57.2533288 150.995479,58.168 C150.995479,59.0826712 150.750481,59.8013307 150.260479,60.324 C149.770476,60.8466693 149.058817,61.108 148.125479,61.108 L146.039479,61.108 L146.039479,65 L144.471479,65 Z M146.039479,59.806 L147.887479,59.806 C148.85815,59.806 149.343479,59.3580045 149.343479,58.462 L149.343479,57.86 C149.343479,56.9733289 148.85815,56.53 147.887479,56.53 L146.039479,56.53 L146.039479,59.806 Z M155.895479,65.168 C155.363476,65.168 154.885148,65.0793342 154.460479,64.902 C154.03581,64.7246658 153.67648,64.4726683 153.382479,64.146 C153.088477,63.8193317 152.862146,63.422669 152.703479,62.956 C152.544811,62.489331 152.465479,61.9666696 152.465479,61.388 C152.465479,60.8093304 152.544811,60.286669 152.703479,59.82 C152.862146,59.353331 153.088477,58.9566683 153.382479,58.63 C153.67648,58.3033317 154.03581,58.0513342 154.460479,57.874 C154.885148,57.6966658 155.363476,57.608 155.895479,57.608 C156.427481,57.608 156.90581,57.6966658 157.330479,57.874 C157.755148,58.0513342 158.114477,58.3033317 158.408479,58.63 C158.70248,58.9566683 158.928811,59.353331 159.087479,59.82 C159.246146,60.286669 159.325479,60.8093304 159.325479,61.388 C159.325479,61.9666696 159.246146,62.489331 159.087479,62.956 C158.928811,63.422669 158.70248,63.8193317 158.408479,64.146 C158.114477,64.4726683 157.755148,64.7246658 157.330479,64.902 C156.90581,65.0793342 156.427481,65.168 155.895479,65.168 Z M155.895479,63.964 C156.455482,63.964 156.901144,63.7936684 157.232479,63.453 C157.563814,63.1123316 157.729479,62.6060034 157.729479,61.934 L157.729479,60.842 C157.729479,60.1699966 157.563814,59.6636684 157.232479,59.323 C156.901144,58.9823316 156.455482,58.812 155.895479,58.812 C155.335476,58.812 154.889814,58.9823316 154.558479,59.323 C154.227144,59.6636684 154.061479,60.1699966 154.061479,60.842 L154.061479,61.934 C154.061479,62.6060034 154.227144,63.1123316 154.558479,63.453 C154.889814,63.7936684 155.335476,63.964 155.895479,63.964 Z M164.295479,65.168 C163.763476,65.168 163.285148,65.0793342 162.860479,64.902 C162.43581,64.7246658 162.07648,64.4726683 161.782479,64.146 C161.488477,63.8193317 161.262146,63.422669 161.103479,62.956 C160.944811,62.489331 160.865479,61.9666696 160.865479,61.388 C160.865479,60.8093304 160.944811,60.286669 161.103479,59.82 C161.262146,59.353331 161.488477,58.9566683 161.782479,58.63 C162.07648,58.3033317 162.43581,58.0513342 162.860479,57.874 C163.285148,57.6966658 163.763476,57.608 164.295479,57.608 C164.827481,57.608 165.30581,57.6966658 165.730479,57.874 C166.155148,58.0513342 166.514477,58.3033317 166.808479,58.63 C167.10248,58.9566683 167.328811,59.353331 167.487479,59.82 C167.646146,60.286669 167.725479,60.8093304 167.725479,61.388 C167.725479,61.9666696 167.646146,62.489331 167.487479,62.956 C167.328811,63.422669 167.10248,63.8193317 166.808479,64.146 C166.514477,64.4726683 166.155148,64.7246658 165.730479,64.902 C165.30581,65.0793342 164.827481,65.168 164.295479,65.168 Z M164.295479,63.964 C164.855482,63.964 165.301144,63.7936684 165.632479,63.453 C165.963814,63.1123316 166.129479,62.6060034 166.129479,61.934 L166.129479,60.842 C166.129479,60.1699966 165.963814,59.6636684 165.632479,59.323 C165.301144,58.9823316 164.855482,58.812 164.295479,58.812 C163.735476,58.812 163.289814,58.9823316 162.958479,59.323 C162.627144,59.6636684 162.461479,60.1699966 162.461479,60.842 L162.461479,61.934 C162.461479,62.6060034 162.627144,63.1123316 162.958479,63.453 C163.289814,63.7936684 163.735476,63.964 164.295479,63.964 Z M169.545479,63.768 L171.939479,63.768 L171.939479,55.872 L169.545479,55.872 L169.545479,54.64 L173.465479,54.64 L173.465479,63.768 L175.859479,63.768 L175.859479,65 L169.545479,65 L169.545479,63.768 Z" id="Capital-Pool" fill-opacity="0.6" fill="#1F2124"></path>
                    <path d="M25.148,43.228 L28.06,43.228 C29.3106729,43.228 30.236997,43.6433292 30.839,44.474 C31.441003,45.3046708 31.742,46.517992 31.742,48.114 C31.742,49.710008 31.441003,50.9233292 30.839,51.754 C30.236997,52.5846708 29.3106729,53 28.06,53 L25.148,53 L25.148,43.228 Z M27.962,51.712 C28.6806703,51.712 29.2149983,51.4716691 29.565,50.991 C29.9150018,50.5103309 30.09,49.8220045 30.09,48.926 L30.09,47.302 C30.09,46.4059955 29.9150018,45.7176691 29.565,45.237 C29.2149983,44.7563309 28.6806703,44.516 27.962,44.516 L26.702,44.516 L26.702,51.712 L27.962,51.712 Z M36.754,53.168 C36.2033306,53.168 35.7086689,53.0793342 35.27,52.902 C34.8313311,52.7246658 34.4626682,52.4726683 34.164,52.146 C33.8653318,51.8193317 33.6366675,51.4250023 33.478,50.963 C33.3193325,50.5009977 33.24,49.9806696 33.24,49.402 C33.24,48.8233304 33.3216659,48.300669 33.485,47.834 C33.6483341,47.367331 33.8769985,46.968335 34.171,46.637 C34.4650015,46.305665 34.8219979,46.0513342 35.242,45.874 C35.6620021,45.6966658 36.1286641,45.608 36.642,45.608 C37.1460025,45.608 37.6033313,45.6943325 38.014,45.867 C38.4246687,46.0396675 38.7746652,46.2846651 39.064,46.602 C39.3533348,46.9193349 39.5749992,47.2973311 39.729,47.736 C39.8830008,48.1746689 39.96,48.6599973 39.96,49.192 L39.96,49.766 L34.78,49.766 L34.78,50.004 C34.78,50.5733362 34.9573316,51.0376649 35.312,51.397 C35.6666684,51.7563351 36.1566635,51.936 36.782,51.936 C37.248669,51.936 37.647665,51.8356677 37.979,51.635 C38.310335,51.4343323 38.5786656,51.1660017 38.784,50.83 L39.736,51.67 C39.4933321,52.0900021 39.1223358,52.4446652 38.623,52.734 C38.1236642,53.0233348 37.5006704,53.168 36.754,53.168 Z M36.642,46.77 C36.371332,46.77 36.1216678,46.8166662 35.893,46.91 C35.6643322,47.0033338 35.4683342,47.1363325 35.305,47.309 C35.1416659,47.4816675 35.0133338,47.6846655 34.92,47.918 C34.8266662,48.1513345 34.78,48.4079986 34.78,48.688 L34.78,48.786 L38.406,48.786 L38.406,48.646 C38.406,48.0766638 38.2450016,47.6216684 37.923,47.281 C37.6009984,46.9403316 37.1740027,46.77 36.642,46.77 Z M45.266,53.168 C44.724664,53.168 44.2416688,53.0793342 43.817,52.902 C43.3923312,52.7246658 43.0330015,52.4726683 42.739,52.146 C42.4449985,51.8193317 42.2210008,51.422669 42.067,50.956 C41.9129992,50.489331 41.836,49.9666696 41.836,49.388 C41.836,48.8093304 41.9129992,48.286669 42.067,47.82 C42.2210008,47.353331 42.4449985,46.9566683 42.739,46.63 C43.0330015,46.3033317 43.3923312,46.0513342 43.817,45.874 C44.2416688,45.6966658 44.7199973,45.608 45.252,45.608 C45.9986704,45.608 46.5983311,45.7666651 47.051,46.084 C47.5036689,46.4013349 47.8419989,46.8119975 48.066,47.316 L46.876,47.96 C46.7453327,47.6239983 46.5470013,47.358001 46.281,47.162 C46.0149987,46.965999 45.6720021,46.868 45.252,46.868 C44.6733304,46.868 44.2253349,47.0429982 43.908,47.393 C43.5906651,47.7430017 43.432,48.2073304 43.432,48.786 L43.432,49.99 C43.432,50.5593362 43.5906651,51.0213316 43.908,51.376 C44.2253349,51.7306684 44.6826637,51.908 45.28,51.908 C45.7280022,51.908 46.0943319,51.8053344 46.379,51.6 C46.6636681,51.3946656 46.8899992,51.1146684 47.058,50.76 L48.178,51.446 C47.9446655,51.9500025 47.5900024,52.3629984 47.114,52.685 C46.6379976,53.0070016 46.0220038,53.168 45.266,53.168 Z M50.264,51.768 L52.182,51.768 L52.182,47.008 L50.264,47.008 L50.264,45.776 L53.708,45.776 L53.708,47.694 L53.792,47.694 C53.8573337,47.4419987 53.9506661,47.1993345 54.072,46.966 C54.1933339,46.7326655 54.3473324,46.5296675 54.534,46.357 C54.7206676,46.1843325 54.949332,46.0443339 55.22,45.937 C55.490668,45.8296661 55.8079982,45.776 56.172,45.776 L57.04,45.776 L57.04,47.232 L55.612,47.232 C55.0519972,47.232 54.5946684,47.397665 54.24,47.729 C53.8853316,48.060335 53.708,48.5059972 53.708,49.066 L53.708,51.768 L56.326,51.768 L56.326,53 L50.264,53 L50.264,51.768 Z M61.954,53.168 C61.4033306,53.168 60.9086689,53.0793342 60.47,52.902 C60.0313311,52.7246658 59.6626682,52.4726683 59.364,52.146 C59.0653318,51.8193317 58.8366675,51.4250023 58.678,50.963 C58.5193325,50.5009977 58.44,49.9806696 58.44,49.402 C58.44,48.8233304 58.5216659,48.300669 58.685,47.834 C58.8483341,47.367331 59.0769985,46.968335 59.371,46.637 C59.6650015,46.305665 60.0219979,46.0513342 60.442,45.874 C60.8620021,45.6966658 61.3286641,45.608 61.842,45.608 C62.3460025,45.608 62.8033313,45.6943325 63.214,45.867 C63.6246687,46.0396675 63.9746652,46.2846651 64.264,46.602 C64.5533348,46.9193349 64.7749992,47.2973311 64.929,47.736 C65.0830008,48.1746689 65.16,48.6599973 65.16,49.192 L65.16,49.766 L59.98,49.766 L59.98,50.004 C59.98,50.5733362 60.1573316,51.0376649 60.512,51.397 C60.8666684,51.7563351 61.3566635,51.936 61.982,51.936 C62.448669,51.936 62.847665,51.8356677 63.179,51.635 C63.510335,51.4343323 63.7786656,51.1660017 63.984,50.83 L64.936,51.67 C64.6933321,52.0900021 64.3223358,52.4446652 63.823,52.734 C63.3236642,53.0233348 62.7006704,53.168 61.954,53.168 Z M61.842,46.77 C61.571332,46.77 61.3216678,46.8166662 61.093,46.91 C60.8643322,47.0033338 60.6683341,47.1363325 60.505,47.309 C60.3416658,47.4816675 60.2133338,47.6846655 60.12,47.918 C60.0266662,48.1513345 59.98,48.4079986 59.98,48.688 L59.98,48.786 L63.606,48.786 L63.606,48.646 C63.606,48.0766638 63.4450016,47.6216684 63.123,47.281 C62.8009984,46.9403316 62.3740027,46.77 61.842,46.77 Z M72.888,53 C72.4493311,53 72.1203344,52.8880011 71.901,52.664 C71.6816656,52.4399989 71.5486669,52.1460018 71.502,51.782 L71.432,51.782 C71.2919993,52.2206689 71.0376685,52.5613321 70.669,52.804 C70.3003315,53.0466679 69.8313362,53.168 69.262,53.168 C68.524663,53.168 67.9366689,52.9743353 67.498,52.587 C67.0593311,52.1996647 66.84,51.6653367 66.84,50.984 C66.84,50.2839965 67.0989974,49.7496685 67.617,49.381 C68.1350026,49.0123315 68.9306613,48.828 70.004,48.828 L71.39,48.828 L71.39,48.268 C71.39,47.2879951 70.8720052,46.798 69.836,46.798 C69.369331,46.798 68.9913348,46.8889991 68.702,47.071 C68.4126652,47.2530009 68.170001,47.4933318 67.974,47.792 L67.064,47.05 C67.2693344,46.657998 67.6146642,46.3196681 68.1,46.035 C68.5853358,45.7503319 69.2106628,45.608 69.976,45.608 C70.8906712,45.608 71.6093307,45.8273311 72.132,46.266 C72.6546693,46.7046689 72.916,47.3393292 72.916,48.17 L72.916,51.796 L73.826,51.796 L73.826,53 L72.888,53 Z M69.696,52.048 C70.1906691,52.048 70.5966651,51.9360011 70.914,51.712 C71.2313349,51.4879989 71.39,51.1986684 71.39,50.844 L71.39,49.794 L70.032,49.794 C68.9306612,49.794 68.38,50.12533 68.38,50.788 L68.38,51.068 C68.38,51.3946683 68.4966655,51.6396659 68.73,51.803 C68.9633345,51.9663342 69.2853313,52.048 69.696,52.048 Z M78.614,53.168 C77.8299961,53.168 77.1556695,53.0420013 76.591,52.79 C76.0263305,52.5379987 75.5713351,52.2020021 75.226,51.782 L76.164,50.942 C76.4813349,51.2873351 76.8383314,51.5509991 77.235,51.733 C77.6316686,51.9150009 78.100664,52.006 78.642,52.006 C79.1366691,52.006 79.5356651,51.9220008 79.839,51.754 C80.1423348,51.5859992 80.294,51.3246684 80.294,50.97 C80.294,50.8206659 80.2660003,50.6946672 80.21,50.592 C80.1539997,50.4893328 80.0746672,50.4053337 79.972,50.34 C79.8693328,50.2746663 79.750334,50.2233335 79.615,50.186 C79.479666,50.1486665 79.3373341,50.1206668 79.188,50.102 L78.04,49.92 C77.7599986,49.8826665 77.4753348,49.8220004 77.186,49.738 C76.8966652,49.6539996 76.6376678,49.5350008 76.409,49.381 C76.1803322,49.2269992 75.9936674,49.0286679 75.849,48.786 C75.7043326,48.5433321 75.632,48.2353352 75.632,47.862 C75.632,47.124663 75.9143305,46.5646686 76.479,46.182 C77.0436695,45.7993314 77.7879954,45.608 78.712,45.608 C79.3840034,45.608 79.9649975,45.7083323 80.455,45.909 C80.9450025,46.1096677 81.3533317,46.3873316 81.68,46.742 L80.826,47.638 C80.6393324,47.4233323 80.3733351,47.2250009 80.028,47.043 C79.6826649,46.8609991 79.2253362,46.77 78.656,46.77 C77.6386616,46.77 77.13,47.0919968 77.13,47.736 C77.13,48.0440015 77.2396656,48.2563327 77.459,48.373 C77.6783344,48.4896672 77.9373318,48.5666665 78.236,48.604 L79.384,48.786 C79.6733348,48.8326669 79.9603319,48.893333 80.245,48.968 C80.5296681,49.042667 80.7863322,49.1569992 81.015,49.311 C81.2436678,49.4650008 81.4303326,49.6633321 81.575,49.906 C81.7196674,50.1486679 81.792,50.4566648 81.792,50.83 C81.792,51.5580036 81.5096695,52.1296646 80.945,52.545 C80.3803305,52.9603354 79.6033383,53.168 78.614,53.168 Z M87.154,53.168 C86.6033306,53.168 86.1086689,53.0793342 85.67,52.902 C85.2313311,52.7246658 84.8626682,52.4726683 84.564,52.146 C84.2653318,51.8193317 84.0366675,51.4250023 83.878,50.963 C83.7193325,50.5009977 83.64,49.9806696 83.64,49.402 C83.64,48.8233304 83.7216658,48.300669 83.885,47.834 C84.0483342,47.367331 84.2769985,46.968335 84.571,46.637 C84.8650015,46.305665 85.2219979,46.0513342 85.642,45.874 C86.0620021,45.6966658 86.5286641,45.608 87.042,45.608 C87.5460025,45.608 88.0033313,45.6943325 88.414,45.867 C88.8246687,46.0396675 89.1746652,46.2846651 89.464,46.602 C89.7533348,46.9193349 89.9749992,47.2973311 90.129,47.736 C90.2830008,48.1746689 90.36,48.6599973 90.36,49.192 L90.36,49.766 L85.18,49.766 L85.18,50.004 C85.18,50.5733362 85.3573316,51.0376649 85.712,51.397 C86.0666684,51.7563351 86.5566635,51.936 87.182,51.936 C87.648669,51.936 88.047665,51.8356677 88.379,51.635 C88.710335,51.4343323 88.9786656,51.1660017 89.184,50.83 L90.136,51.67 C89.8933321,52.0900021 89.5223358,52.4446652 89.023,52.734 C88.5236642,53.0233348 87.9006704,53.168 87.154,53.168 Z M87.042,46.77 C86.771332,46.77 86.5216678,46.8166662 86.293,46.91 C86.0643322,47.0033338 85.8683341,47.1363325 85.705,47.309 C85.5416658,47.4816675 85.4133338,47.6846655 85.32,47.918 C85.2266662,48.1513345 85.18,48.4079986 85.18,48.688 L85.18,48.786 L88.806,48.786 L88.806,48.646 C88.806,48.0766638 88.6450016,47.6216684 88.323,47.281 C88.0009984,46.9403316 87.5740027,46.77 87.042,46.77 Z M95.414,53.168 C94.6299961,53.168 93.9556695,53.0420013 93.391,52.79 C92.8263305,52.5379987 92.3713351,52.2020021 92.026,51.782 L92.964,50.942 C93.2813349,51.2873351 93.6383314,51.5509991 94.035,51.733 C94.4316687,51.9150009 94.900664,52.006 95.442,52.006 C95.9366691,52.006 96.3356652,51.9220008 96.639,51.754 C96.9423349,51.5859992 97.094,51.3246684 97.094,50.97 C97.094,50.8206659 97.0660003,50.6946672 97.01,50.592 C96.9539997,50.4893328 96.8746672,50.4053337 96.772,50.34 C96.6693328,50.2746663 96.550334,50.2233335 96.415,50.186 C96.279666,50.1486665 96.1373341,50.1206668 95.988,50.102 L94.84,49.92 C94.5599986,49.8826665 94.2753348,49.8220004 93.986,49.738 C93.6966652,49.6539996 93.4376678,49.5350008 93.209,49.381 C92.9803322,49.2269992 92.7936674,49.0286679 92.649,48.786 C92.5043326,48.5433321 92.432,48.2353352 92.432,47.862 C92.432,47.124663 92.7143305,46.5646686 93.279,46.182 C93.8436695,45.7993314 94.5879954,45.608 95.512,45.608 C96.1840034,45.608 96.7649976,45.7083323 97.255,45.909 C97.7450025,46.1096677 98.1533317,46.3873316 98.48,46.742 L97.626,47.638 C97.4393324,47.4233323 97.1733351,47.2250009 96.828,47.043 C96.4826649,46.8609991 96.0253362,46.77 95.456,46.77 C94.4386616,46.77 93.93,47.0919968 93.93,47.736 C93.93,48.0440015 94.0396656,48.2563327 94.259,48.373 C94.4783344,48.4896672 94.7373318,48.5666665 95.036,48.604 L96.184,48.786 C96.4733348,48.8326669 96.7603319,48.893333 97.045,48.968 C97.3296681,49.042667 97.5863322,49.1569992 97.815,49.311 C98.0436678,49.4650008 98.2303326,49.6633321 98.375,49.906 C98.5196674,50.1486679 98.592,50.4566648 98.592,50.83 C98.592,51.5580036 98.3096695,52.1296646 97.745,52.545 C97.1803305,52.9603354 96.4033383,53.168 95.414,53.168 Z" id="Decreases" fill-opacity="0.6" fill="#1F2124"></path>
                    <path d="M44.0125129,97.3054075 L43.2705129,94.7014075 L40.1625129,94.7014075 L39.4205129,97.3054075 L37.8245129,97.3054075 L40.6805129,87.5334075 L42.8225129,87.5334075 L45.6785129,97.3054075 L44.0125129,97.3054075 Z M41.7725129,89.1154075 L41.6605129,89.1154075 L40.4565129,93.3994075 L42.9765129,93.3994075 L41.7725129,89.1154075 Z M46.9945129,96.0734075 L49.3885129,96.0734075 L49.3885129,88.1774075 L46.9945129,88.1774075 L46.9945129,86.9454075 L50.9145129,86.9454075 L50.9145129,96.0734075 L53.3085129,96.0734075 L53.3085129,97.3054075 L46.9945129,97.3054075 L46.9945129,96.0734075 Z M54.9605129,97.3054075 L54.9605129,90.0814075 L56.2625129,90.0814075 L56.2625129,91.0194075 L56.3325129,91.0194075 C56.4445135,90.7114059 56.6055119,90.4500752 56.8155129,90.2354075 C57.025514,90.0207397 57.326511,89.9134075 57.7185129,89.9134075 C58.1011815,89.9134075 58.3975119,90.0184064 58.6075129,90.2284075 C58.817514,90.4384085 58.9505126,90.7254056 59.0065129,91.0894075 L59.0625129,91.0894075 C59.1931802,90.7627392 59.3751784,90.4850753 59.6085129,90.2564075 C59.8418474,90.0277397 60.1778441,89.9134075 60.6165129,89.9134075 C61.1765157,89.9134075 61.5661785,90.1094055 61.7855129,90.5014075 C62.0048473,90.8934094 62.1145129,91.4674037 62.1145129,92.2234075 L62.1145129,97.3054075 L60.8125129,97.3054075 L60.8125129,92.4194075 C60.8125129,91.9154049 60.7518469,91.5677418 60.6305129,91.3764075 C60.509179,91.1850732 60.3131809,91.0894075 60.0425129,91.0894075 C59.799845,91.0894075 59.5968471,91.1710733 59.4335129,91.3344075 C59.2701788,91.4977416 59.1885129,91.7427392 59.1885129,92.0694075 L59.1885129,97.3054075 L57.8865129,97.3054075 L57.8865129,92.4194075 C57.8865129,91.9154049 57.8281802,91.5677418 57.7115129,91.3764075 C57.5948457,91.1850732 57.4011809,91.0894075 57.1305129,91.0894075 C56.8785117,91.0894075 56.6708471,91.1710733 56.5075129,91.3344075 C56.3441788,91.4977416 56.2625129,91.7427392 56.2625129,92.0694075 L56.2625129,97.3054075 L54.9605129,97.3054075 Z M66.9445129,97.4734075 C66.4125103,97.4734075 65.9341817,97.3847417 65.5095129,97.2074075 C65.0848441,97.0300732 64.7255144,96.7780758 64.4315129,96.4514075 C64.1375114,96.1247392 63.9111804,95.7280765 63.7525129,95.2614075 C63.5938455,94.7947385 63.5145129,94.272077 63.5145129,93.6934075 C63.5145129,93.1147379 63.5938455,92.5920765 63.7525129,92.1254075 C63.9111804,91.6587385 64.1375114,91.2620758 64.4315129,90.9354075 C64.7255144,90.6087392 65.0848441,90.3567417 65.5095129,90.1794075 C65.9341817,90.0020732 66.4125103,89.9134075 66.9445129,89.9134075 C67.4765156,89.9134075 67.9548441,90.0020732 68.3795129,90.1794075 C68.8041817,90.3567417 69.1635114,90.6087392 69.4575129,90.9354075 C69.7515144,91.2620758 69.9778455,91.6587385 70.1365129,92.1254075 C70.2951804,92.5920765 70.3745129,93.1147379 70.3745129,93.6934075 C70.3745129,94.272077 70.2951804,94.7947385 70.1365129,95.2614075 C69.9778455,95.7280765 69.7515144,96.1247392 69.4575129,96.4514075 C69.1635114,96.7780758 68.8041817,97.0300732 68.3795129,97.2074075 C67.9548441,97.3847417 67.4765156,97.4734075 66.9445129,97.4734075 Z M66.9445129,96.2694075 C67.5045157,96.2694075 67.9501779,96.0990758 68.2815129,95.7584075 C68.6128479,95.4177391 68.7785129,94.9114108 68.7785129,94.2394075 L68.7785129,93.1474075 C68.7785129,92.4754041 68.6128479,91.9690758 68.2815129,91.6284075 C67.9501779,91.2877391 67.5045157,91.1174075 66.9445129,91.1174075 C66.3845101,91.1174075 65.9388479,91.2877391 65.6075129,91.6284075 C65.2761779,91.9690758 65.1105129,92.4754041 65.1105129,93.1474075 L65.1105129,94.2394075 C65.1105129,94.9114108 65.2761779,95.4177391 65.6075129,95.7584075 C65.9388479,96.0990758 66.3845101,96.2694075 66.9445129,96.2694075 Z M75.3585129,97.4734075 C74.574509,97.4734075 73.9001824,97.3474087 73.3355129,97.0954075 C72.7708434,96.8434062 72.315848,96.5074096 71.9705129,96.0874075 L72.9085129,95.2474075 C73.2258478,95.5927425 73.5828443,95.8564066 73.9795129,96.0384075 C74.3761816,96.2204084 74.8451769,96.3114075 75.3865129,96.3114075 C75.8811821,96.3114075 76.2801781,96.2274083 76.5835129,96.0594075 C76.8868478,95.8914066 77.0385129,95.6300759 77.0385129,95.2754075 C77.0385129,95.1260734 77.0105132,95.0000746 76.9545129,94.8974075 C76.8985126,94.7947403 76.8191801,94.7107411 76.7165129,94.6454075 C76.6138457,94.5800738 76.4948469,94.528741 76.3595129,94.4914075 C76.2241789,94.4540739 76.081847,94.4260742 75.9325129,94.4074075 L74.7845129,94.2254075 C74.5045115,94.1880739 74.2198477,94.1274079 73.9305129,94.0434075 C73.6411781,93.959407 73.3821807,93.8404082 73.1535129,93.6864075 C72.9248451,93.5324067 72.7381803,93.3340753 72.5935129,93.0914075 C72.4488455,92.8487396 72.3765129,92.5407427 72.3765129,92.1674075 C72.3765129,91.4300704 72.6588434,90.870076 73.2235129,90.4874075 C73.7881824,90.1047389 74.5325083,89.9134075 75.4565129,89.9134075 C76.1285163,89.9134075 76.7095105,90.0137398 77.1995129,90.2144075 C77.6895154,90.4150751 78.0978446,90.692739 78.4245129,91.0474075 L77.5705129,91.9434075 C77.3838453,91.7287397 77.117848,91.5304084 76.7725129,91.3484075 C76.4271779,91.1664066 75.9698491,91.0754075 75.4005129,91.0754075 C74.3831745,91.0754075 73.8745129,91.3974042 73.8745129,92.0414075 C73.8745129,92.349409 73.9841785,92.5617402 74.2035129,92.6784075 C74.4228473,92.7950747 74.6818448,92.8720739 74.9805129,92.9094075 L76.1285129,93.0914075 C76.4178477,93.1380744 76.7048448,93.1987404 76.9895129,93.2734075 C77.274181,93.3480745 77.5308451,93.4624067 77.7595129,93.6164075 C77.9881807,93.7704082 78.1748455,93.9687396 78.3195129,94.2114075 C78.4641803,94.4540753 78.5365129,94.7620723 78.5365129,95.1354075 C78.5365129,95.8634111 78.2541824,96.4350721 77.6895129,96.8504075 C77.1248434,97.2657429 76.3478512,97.4734075 75.3585129,97.4734075 Z M84.1785129,97.3054075 C83.5438431,97.3054075 83.0771811,97.1350758 82.7785129,96.7944075 C82.4798448,96.4537391 82.3305129,96.0127435 82.3305129,95.4714075 L82.3305129,91.3134075 L80.1045129,91.3134075 L80.1045129,90.0814075 L81.6865129,90.0814075 C81.9571809,90.0814075 82.1485124,90.0277413 82.2605129,89.9204075 C82.3725135,89.8130736 82.4285129,89.6194089 82.4285129,89.3394075 L82.4285129,87.5334075 L83.8565129,87.5334075 L83.8565129,90.0814075 L86.9365129,90.0814075 L86.9365129,91.3134075 L83.8565129,91.3134075 L83.8565129,96.0734075 L86.9365129,96.0734075 L86.9365129,97.3054075 L84.1785129,97.3054075 Z M30.6425129,114.073407 L30.5725129,114.073407 C30.4978459,114.260075 30.4021802,114.43974 30.2855129,114.612407 C30.1688457,114.785075 30.0265138,114.934407 29.8585129,115.060407 C29.6905121,115.186408 29.494514,115.28674 29.2705129,115.361407 C29.0465118,115.436075 28.7851811,115.473407 28.4865129,115.473407 C27.7585093,115.473407 27.1705152,115.23541 26.7225129,114.759407 C26.2745107,114.283405 26.0505129,113.606745 26.0505129,112.729407 L26.0505129,108.081407 L27.5765129,108.081407 L27.5765129,112.505407 C27.5765129,113.653413 28.0758413,114.227407 29.0745129,114.227407 C29.2705139,114.227407 29.4618453,114.201741 29.6485129,114.150407 C29.8351805,114.099074 30.0031788,114.022075 30.1525129,113.919407 C30.301847,113.81674 30.4208458,113.688408 30.5095129,113.534407 C30.59818,113.380407 30.6425129,113.196075 30.6425129,112.981407 L30.6425129,108.081407 L32.1685129,108.081407 L32.1685129,115.305407 L30.6425129,115.305407 L30.6425129,114.073407 Z M34.5205129,115.305407 L34.5205129,108.081407 L36.0465129,108.081407 L36.0465129,109.313407 L36.1165129,109.313407 C36.19118,109.12674 36.2868457,108.947075 36.4035129,108.774407 C36.5201802,108.60174 36.6625121,108.452408 36.8305129,108.326407 C36.9985138,108.200407 37.1945118,108.100075 37.4185129,108.025407 C37.642514,107.95074 37.9038448,107.913407 38.2025129,107.913407 C38.9305166,107.913407 39.5185107,108.151405 39.9665129,108.627407 C40.4145152,109.10341 40.6385129,109.78007 40.6385129,110.657407 L40.6385129,115.305407 L39.1125129,115.305407 L39.1125129,110.881407 C39.1125129,109.733402 38.6131846,109.159407 37.6145129,109.159407 C37.4185119,109.159407 37.2271805,109.185074 37.0405129,109.236407 C36.8538453,109.287741 36.685847,109.36474 36.5365129,109.467407 C36.3871788,109.570075 36.26818,109.70074 36.1795129,109.859407 C36.0908458,110.018075 36.0465129,110.200073 36.0465129,110.405407 L36.0465129,115.305407 L34.5205129,115.305407 Z M46.2105129,115.473407 C45.6691769,115.473407 45.1861817,115.384742 44.7615129,115.207407 C44.3368441,115.030073 43.9775144,114.778076 43.6835129,114.451407 C43.3895114,114.124739 43.1655137,113.728076 43.0115129,113.261407 C42.8575121,112.794738 42.7805129,112.272077 42.7805129,111.693407 C42.7805129,111.114738 42.8575121,110.592076 43.0115129,110.125407 C43.1655137,109.658738 43.3895114,109.262076 43.6835129,108.935407 C43.9775144,108.608739 44.3368441,108.356742 44.7615129,108.179407 C45.1861817,108.002073 45.6645103,107.913407 46.1965129,107.913407 C46.9431833,107.913407 47.542844,108.072073 47.9955129,108.389407 C48.4481818,108.706742 48.7865118,109.117405 49.0105129,109.621407 L47.8205129,110.265407 C47.6898456,109.929406 47.4915142,109.663408 47.2255129,109.467407 C46.9595116,109.271406 46.616515,109.173407 46.1965129,109.173407 C45.6178434,109.173407 45.1698478,109.348406 44.8525129,109.698407 C44.535178,110.048409 44.3765129,110.512738 44.3765129,111.091407 L44.3765129,112.295407 C44.3765129,112.864744 44.535178,113.326739 44.8525129,113.681407 C45.1698478,114.036076 45.6271766,114.213407 46.2245129,114.213407 C46.6725152,114.213407 47.0388448,114.110742 47.3235129,113.905407 C47.608181,113.700073 47.8345121,113.420076 48.0025129,113.065407 L49.1225129,113.751407 C48.8891784,114.25541 48.5345153,114.668406 48.0585129,114.990407 C47.5825105,115.312409 46.9665167,115.473407 46.2105129,115.473407 Z M51.3205129,104.945407 L52.8465129,104.945407 L52.8465129,109.313407 L52.9165129,109.313407 C52.99118,109.12674 53.0868457,108.947075 53.2035129,108.774407 C53.3201802,108.60174 53.4625121,108.452408 53.6305129,108.326407 C53.7985138,108.200407 53.9945118,108.100075 54.2185129,108.025407 C54.442514,107.95074 54.7038448,107.913407 55.0025129,107.913407 C55.7305166,107.913407 56.3185107,108.151405 56.7665129,108.627407 C57.2145152,109.10341 57.4385129,109.78007 57.4385129,110.657407 L57.4385129,115.305407 L55.9125129,115.305407 L55.9125129,110.881407 C55.9125129,109.733402 55.4131846,109.159407 54.4145129,109.159407 C54.2185119,109.159407 54.0271805,109.185074 53.8405129,109.236407 C53.6538453,109.287741 53.485847,109.36474 53.3365129,109.467407 C53.1871788,109.570075 53.06818,109.70074 52.9795129,109.859407 C52.8908458,110.018075 52.8465129,110.200073 52.8465129,110.405407 L52.8465129,115.305407 L51.3205129,115.305407 L51.3205129,104.945407 Z M65.4325129,115.305407 C64.9938441,115.305407 64.6648473,115.193409 64.4455129,114.969407 C64.2261785,114.745406 64.0931798,114.451409 64.0465129,114.087407 L63.9765129,114.087407 C63.8365122,114.526076 63.5821814,114.86674 63.2135129,115.109407 C62.8448444,115.352075 62.3758491,115.473407 61.8065129,115.473407 C61.0691759,115.473407 60.4811818,115.279743 60.0425129,114.892407 C59.6038441,114.505072 59.3845129,113.970744 59.3845129,113.289407 C59.3845129,112.589404 59.6435103,112.055076 60.1615129,111.686407 C60.6795155,111.317739 61.4751742,111.133407 62.5485129,111.133407 L63.9345129,111.133407 L63.9345129,110.573407 C63.9345129,109.593403 63.4165181,109.103407 62.3805129,109.103407 C61.9138439,109.103407 61.5358477,109.194407 61.2465129,109.376407 C60.9571781,109.558408 60.7145139,109.798739 60.5185129,110.097407 L59.6085129,109.355407 C59.8138473,108.963406 60.1591772,108.625076 60.6445129,108.340407 C61.1298487,108.055739 61.7551758,107.913407 62.5205129,107.913407 C63.4351842,107.913407 64.1538436,108.132739 64.6765129,108.571407 C65.1991822,109.010076 65.4605129,109.644737 65.4605129,110.475407 L65.4605129,114.101407 L66.3705129,114.101407 L66.3705129,115.305407 L65.4325129,115.305407 Z M62.2405129,114.353407 C62.7351821,114.353407 63.141178,114.241409 63.4585129,114.017407 C63.7758478,113.793406 63.9345129,113.504076 63.9345129,113.149407 L63.9345129,112.099407 L62.5765129,112.099407 C61.4751741,112.099407 60.9245129,112.430737 60.9245129,113.093407 L60.9245129,113.373407 C60.9245129,113.700076 61.0411784,113.945073 61.2745129,114.108407 C61.5078474,114.271742 61.8298442,114.353407 62.2405129,114.353407 Z M68.1205129,115.305407 L68.1205129,108.081407 L69.6465129,108.081407 L69.6465129,109.313407 L69.7165129,109.313407 C69.79118,109.12674 69.8868457,108.947075 70.0035129,108.774407 C70.1201802,108.60174 70.2625121,108.452408 70.4305129,108.326407 C70.5985138,108.200407 70.7945118,108.100075 71.0185129,108.025407 C71.242514,107.95074 71.5038448,107.913407 71.8025129,107.913407 C72.5305166,107.913407 73.1185107,108.151405 73.5665129,108.627407 C74.0145152,109.10341 74.2385129,109.78007 74.2385129,110.657407 L74.2385129,115.305407 L72.7125129,115.305407 L72.7125129,110.881407 C72.7125129,109.733402 72.2131846,109.159407 71.2145129,109.159407 C71.0185119,109.159407 70.8271805,109.185074 70.6405129,109.236407 C70.4538453,109.287741 70.285847,109.36474 70.1365129,109.467407 C69.9871788,109.570075 69.86818,109.70074 69.7795129,109.859407 C69.6908458,110.018075 69.6465129,110.200073 69.6465129,110.405407 L69.6465129,115.305407 L68.1205129,115.305407 Z M83.3245129,116.089407 C83.3245129,116.836078 83.0118494,117.386739 82.3865129,117.741407 C81.7611765,118.096076 80.809186,118.273407 79.5305129,118.273407 C78.9051765,118.273407 78.3801817,118.233741 77.9555129,118.154407 C77.5308441,118.075074 77.1855142,117.960742 76.9195129,117.811407 C76.6535116,117.662073 76.4621802,117.480075 76.3455129,117.265407 C76.2288457,117.05074 76.1705129,116.808075 76.1705129,116.537407 C76.1705129,116.145406 76.2801785,115.839742 76.4995129,115.620407 C76.7188473,115.401073 77.0291776,115.240075 77.4305129,115.137407 L77.4305129,114.997407 C77.187845,114.904074 76.9941803,114.773408 76.8495129,114.605407 C76.7048455,114.437407 76.6325129,114.218075 76.6325129,113.947407 C76.6325129,113.592739 76.753845,113.324408 76.9965129,113.142407 C77.2391808,112.960407 77.5518443,112.822741 77.9345129,112.729407 L77.9345129,112.659407 C77.4958441,112.454073 77.1551808,112.164743 76.9125129,111.791407 C76.669845,111.418072 76.5485129,110.970077 76.5485129,110.447407 C76.5485129,110.064739 76.6185122,109.717076 76.7585129,109.404407 C76.8985136,109.091739 77.096845,108.825742 77.3535129,108.606407 C77.6101809,108.387073 77.9181778,108.216741 78.2775129,108.095407 C78.636848,107.974074 79.0405107,107.913407 79.4885129,107.913407 C79.9925154,107.913407 80.4451776,107.99274 80.8465129,108.151407 L80.8465129,107.913407 C80.8465129,107.633406 80.9258455,107.400075 81.0845129,107.213407 C81.2431804,107.02674 81.4858446,106.933407 81.8125129,106.933407 L83.1285129,106.933407 L83.1285129,108.137407 L81.4485129,108.137407 L81.4485129,108.473407 C81.7658478,108.688075 82.0085121,108.961072 82.1765129,109.292407 C82.3445138,109.623742 82.4285129,110.008739 82.4285129,110.447407 C82.4285129,110.830076 82.3585136,111.177739 82.2185129,111.490407 C82.0785122,111.803076 81.8801809,112.069073 81.6235129,112.288407 C81.366845,112.507742 81.058848,112.67574 80.6995129,112.792407 C80.3401778,112.909075 79.9365152,112.967407 79.4885129,112.967407 C79.171178,112.967407 78.8725143,112.939408 78.5925129,112.883407 C78.4245121,112.930074 78.2565138,113.009407 78.0885129,113.121407 C77.9205121,113.233408 77.8365129,113.387406 77.8365129,113.583407 C77.8365129,113.807409 77.9438452,113.947407 78.1585129,114.003407 C78.3731807,114.059408 78.639178,114.087407 78.9565129,114.087407 L80.5805129,114.087407 C81.5511844,114.087407 82.2511774,114.271739 82.6805129,114.640407 C83.1098484,115.009076 83.3245129,115.492071 83.3245129,116.089407 Z M81.8965129,116.187407 C81.8965129,115.94474 81.7985139,115.751075 81.6025129,115.606407 C81.4065119,115.46174 81.0518488,115.389407 80.5385129,115.389407 L78.0325129,115.389407 C77.6778445,115.557408 77.5005129,115.828072 77.5005129,116.201407 C77.5005129,116.472075 77.6148451,116.705406 77.8435129,116.901407 C78.0721807,117.097408 78.4525103,117.195407 78.9845129,117.195407 L80.1185129,117.195407 C80.6971825,117.195407 81.1381781,117.109075 81.4415129,116.936407 C81.7448478,116.76374 81.8965129,116.514076 81.8965129,116.187407 Z M79.4885129,111.917407 C79.9831821,111.917407 80.3471784,111.800742 80.5805129,111.567407 C80.8138474,111.334073 80.9305129,111.021409 80.9305129,110.629407 L80.9305129,110.251407 C80.9305129,109.859406 80.8138474,109.546742 80.5805129,109.313407 C80.3471784,109.080073 79.9831821,108.963407 79.4885129,108.963407 C78.9938438,108.963407 78.6298474,109.080073 78.3965129,109.313407 C78.1631784,109.546742 78.0465129,109.859406 78.0465129,110.251407 L78.0465129,110.629407 C78.0465129,111.021409 78.1631784,111.334073 78.3965129,111.567407 C78.6298474,111.800742 78.9938438,111.917407 79.4885129,111.917407 Z M88.0985129,115.473407 C87.5478435,115.473407 87.0531818,115.384742 86.6145129,115.207407 C86.1758441,115.030073 85.8071811,114.778076 85.5085129,114.451407 C85.2098448,114.124739 84.9811804,113.73041 84.8225129,113.268407 C84.6638455,112.806405 84.5845129,112.286077 84.5845129,111.707407 C84.5845129,111.128738 84.6661788,110.606076 84.8295129,110.139407 C84.9928471,109.672738 85.2215114,109.273742 85.5155129,108.942407 C85.8095144,108.611072 86.1665108,108.356742 86.5865129,108.179407 C87.006515,108.002073 87.473177,107.913407 87.9865129,107.913407 C88.4905154,107.913407 88.9478442,107.99974 89.3585129,108.172407 C89.7691816,108.345075 90.1191781,108.590073 90.4085129,108.907407 C90.6978477,109.224742 90.9195121,109.602739 91.0735129,110.041407 C91.2275137,110.480076 91.3045129,110.965405 91.3045129,111.497407 L91.3045129,112.071407 L86.1245129,112.071407 L86.1245129,112.309407 C86.1245129,112.878744 86.3018445,113.343072 86.6565129,113.702407 C87.0111814,114.061743 87.5011765,114.241407 88.1265129,114.241407 C88.5931819,114.241407 88.9921779,114.141075 89.3235129,113.940407 C89.6548479,113.73974 89.9231786,113.471409 90.1285129,113.135407 L91.0805129,113.975407 C90.837845,114.39541 90.4668487,114.750073 89.9675129,115.039407 C89.4681771,115.328742 88.8451833,115.473407 88.0985129,115.473407 Z M87.9865129,109.075407 C87.7158449,109.075407 87.4661807,109.122074 87.2375129,109.215407 C87.0088451,109.308741 86.8128471,109.44174 86.6495129,109.614407 C86.4861788,109.787075 86.3578467,109.990073 86.2645129,110.223407 C86.1711791,110.456742 86.1245129,110.713406 86.1245129,110.993407 L86.1245129,111.091407 L89.7505129,111.091407 L89.7505129,110.951407 C89.7505129,110.382071 89.5895145,109.927076 89.2675129,109.586407 C88.9455113,109.245739 88.5185156,109.075407 87.9865129,109.075407 Z M97.9125129,114.073407 L97.8285129,114.073407 C97.6138452,114.512076 97.3291814,114.855073 96.9745129,115.102407 C96.6198445,115.349742 96.1765156,115.473407 95.6445129,115.473407 C94.7951753,115.473407 94.1185154,115.156077 93.6145129,114.521407 C93.1105104,113.886738 92.8585129,112.94408 92.8585129,111.693407 C92.8585129,110.442735 93.1105104,109.500077 93.6145129,108.865407 C94.1185154,108.230738 94.7951753,107.913407 95.6445129,107.913407 C96.1765156,107.913407 96.6198445,108.037073 96.9745129,108.284407 C97.3291814,108.531742 97.6138452,108.874739 97.8285129,109.313407 L97.9125129,109.313407 L97.9125129,104.945407 L99.4385129,104.945407 L99.4385129,115.305407 L97.9125129,115.305407 L97.9125129,114.073407 Z M96.2745129,114.227407 C96.498514,114.227407 96.7085119,114.199408 96.9045129,114.143407 C97.1005139,114.087407 97.2731788,114.003408 97.4225129,113.891407 C97.571847,113.779407 97.6908458,113.641742 97.7795129,113.478407 C97.86818,113.315073 97.9125129,113.121409 97.9125129,112.897407 L97.9125129,110.489407 C97.9125129,110.265406 97.86818,110.071742 97.7795129,109.908407 C97.6908458,109.745073 97.571847,109.607408 97.4225129,109.495407 C97.2731788,109.383407 97.1005139,109.299408 96.9045129,109.243407 C96.7085119,109.187407 96.498514,109.159407 96.2745129,109.159407 C95.6958434,109.159407 95.2501811,109.336739 94.9375129,109.691407 C94.6248447,110.046076 94.4685129,110.517405 94.4685129,111.105407 L94.4685129,112.281407 C94.4685129,112.86941 94.6248447,113.340739 94.9375129,113.695407 C95.2501811,114.050076 95.6958434,114.227407 96.2745129,114.227407 Z" id="Almost-unchanged" fill-opacity="0.6" fill="#1F2124"></path>
                    <path d="M152.518237,94.4765999 L152.560237,91.5365999 L152.448237,91.5365999 L150.488237,96.5625999 L148.528237,91.5365999 L148.416237,91.5365999 L148.458237,94.4765999 L148.458237,99.1525999 L147.072237,99.1525999 L147.072237,89.3805999 L148.990237,89.3805999 L150.488237,93.2585999 L150.586237,93.2585999 L152.098237,89.3805999 L153.904237,89.3805999 L153.904237,99.1525999 L152.518237,99.1525999 L152.518237,94.4765999 Z M159.168237,99.3205999 C157.926897,99.3205999 157.00524,98.8819376 156.403237,98.0045999 C155.801234,97.1272622 155.500237,95.8812746 155.500237,94.2665999 C155.500237,92.6519251 155.801234,91.4059376 156.403237,90.5285999 C157.00524,89.6512622 157.926897,89.2125999 159.168237,89.2125999 C159.644239,89.2125999 160.057235,89.2755992 160.407237,89.4015999 C160.757238,89.5276005 161.058235,89.7002654 161.310237,89.9195999 C161.562238,90.1389343 161.774569,90.3955984 161.947237,90.6895999 C162.119904,90.9836013 162.262236,91.2985982 162.374237,91.6345999 L160.960237,92.1105999 C160.885569,91.8865988 160.80157,91.6766009 160.708237,91.4805999 C160.614903,91.2845989 160.498237,91.1166006 160.358237,90.9765999 C160.218236,90.8365992 160.052571,90.7246003 159.861237,90.6405999 C159.669902,90.5565995 159.434238,90.5145999 159.154237,90.5145999 C158.463566,90.5145999 157.959571,90.7782639 157.642237,91.3055999 C157.324902,91.8329358 157.166237,92.5445954 157.166237,93.4405999 L157.166237,95.0925999 C157.166237,95.9886044 157.324902,96.7002639 157.642237,97.2275999 C157.959571,97.7549358 158.463566,98.0185999 159.154237,98.0185999 C159.434238,98.0185999 159.669902,97.9766003 159.861237,97.8925999 C160.052571,97.8085995 160.218236,97.6966006 160.358237,97.5565999 C160.498237,97.4165992 160.614903,97.2486009 160.708237,97.0525999 C160.80157,96.8565989 160.885569,96.646601 160.960237,96.4225999 L162.374237,96.8985999 C162.262236,97.2346016 162.119904,97.5495984 161.947237,97.8435999 C161.774569,98.1376013 161.562238,98.3942654 161.310237,98.6135999 C161.058235,98.8329343 160.757238,99.0055992 160.407237,99.1315999 C160.057235,99.2576005 159.644239,99.3205999 159.168237,99.3205999 Z M165.818237,99.1525999 L164.264237,99.1525999 L164.264237,89.3805999 L167.918237,89.3805999 C168.851575,89.3805999 169.563234,89.6419306 170.053237,90.1645999 C170.543239,90.6872692 170.788237,91.4059286 170.788237,92.3205999 C170.788237,93.0672703 170.606238,93.6832641 170.242237,94.1685999 C169.878235,94.6539356 169.355573,94.9525993 168.674237,95.0645999 L170.928237,99.1525999 L169.192237,99.1525999 L167.120237,95.2045999 L165.818237,95.2045999 L165.818237,99.1525999 Z M167.694237,93.9445999 C168.664908,93.9445999 169.150237,93.501271 169.150237,92.6145999 L169.150237,92.0125999 C169.150237,91.1259288 168.664908,90.6825999 167.694237,90.6825999 L165.818237,90.6825999 L165.818237,93.9445999 L167.694237,93.9445999 Z" id="MCR" fill-opacity="0.6" fill="#1F2124"></path>
                    <path d="M127.5,77.6593506 L192.484041,77.6593506" id="Line-2" stroke-opacity="0.6" stroke="#1F2124" stroke-width="1.53707678" stroke-linecap="square"></path>
                </g>
                <g id="Group-4" transform="translate(221.000000, 0.000000)">
                    <g id="Rectangle">
                        <use fill="black" fill-opacity="1" filter="url(#filter-4)" xlink:href="#path-3"></use>
                        <use fill="#FFFFFF" fill-rule="evenodd" xlink:href="#path-3"></use>
                    </g>
                    <path d="M22.9348837,195.502326 L408.981395,195.502326" id="Line-Copy-4" stroke="#E5E5E5" stroke-width="0.5" stroke-linecap="square"></path>
                    <path d="M317.681395,156.125581 L408.981395,156.125581" id="Line-Copy-3" stroke="#E5E5E5" stroke-width="0.5" stroke-linecap="square"></path>
                    <path d="M361.883721,116.748837 L408.981395,116.748837" id="Line-Copy-2" stroke="#E5E5E5" stroke-width="0.5" stroke-linecap="square"></path>
                    <path d="M22.355814,77.372093 L408.981395,77.372093" id="Line-Copy" stroke="#E5E5E5" stroke-width="0.5" stroke-linecap="square"></path>
                    <path d="M22.355814,37.9953488 L408.981395,37.9953488" id="Line" stroke="#E5E5E5" stroke-width="0.5" stroke-linecap="square"></path>
                    <g id="Combined-Shape" transform="translate(300.116279, 157.283721) rotate(11.000000) translate(-300.116279, -157.283721) translate(251.860465, 109.027907)">
                        <mask id="mask-6" fill="white">
                            <use xlink:href="#path-5"></use>
                        </mask>
                        <g id="Mask"></g>
                        <path d="M-267.530233,117.21624 L-267.530233,119.21784 C-268.580555,119.239729 -269.546941,119.266586 -270.425581,119.299408 C-271.840678,119.420382 -271.840678,118.71263 -270.425581,117.176152 C-269.458033,117.190119 -268.492916,117.203471 -267.530229,117.216208 Z M65.2418605,48.2178591 C98.788591,18.7823841 116.160684,-19.8059369 117.35814,-67.5471038 L119.867442,-67.5471038 C117.743648,-18.8576923 99.5351209,20.372293 65.2418605,50.1428521 L65.2418605,48.2178591 Z" fill="#58CD9E" mask="url(#mask-6)"></path>
                    </g>
                    <g id="Group" transform="translate(355.054782, 129.994317) rotate(11.000000) translate(-355.054782, -129.994317) translate(351.001294, 125.940829)">
                        <g id="Oval" transform="translate(4.118214, 3.945032) rotate(11.000000) translate(-4.118214, -3.945032) ">
                            <use fill="black" fill-opacity="1" filter="url(#filter-8)" xlink:href="#path-7"></use>
                            <use fill="#1EAB89" fill-rule="evenodd" xlink:href="#path-7"></use>
                        </g>
                    </g>
                    <g id="Group" transform="translate(317.409315, 159.906990) rotate(-109.000000) translate(-317.409315, -159.906990) translate(312.004664, 154.502339)">
                        <g id="Oval">
                            <use fill="black" fill-opacity="1" filter="url(#filter-10)" xlink:href="#path-9"></use>
                            <use fill="#1EAB89" fill-rule="evenodd" xlink:href="#path-9"></use>
                        </g>
                        <path d="M5.71047302,2.92046805 L8.02870376,6.26902357 C8.27142355,6.61961882 8.18397321,7.10059569 7.83337796,7.34331547 C7.70425501,7.43270829 7.55094207,7.48059964 7.39389491,7.48059964 L3.39224228,7.48059964 C2.96582708,7.48059964 2.62014926,7.13492182 2.62014926,6.70850662 C2.62014926,6.55145946 2.66804062,6.39814652 2.75743343,6.26902357 L5.07566417,2.92046805 C5.19702406,2.74517043 5.4375125,2.70144526 5.61281012,2.82280515 C5.65097058,2.84922393 5.68405425,2.8823076 5.71047302,2.92046805 Z" id="Triangle" fill="#58CD9E" transform="translate(5.393069, 4.971297) rotate(3.000000) translate(-5.393069, -4.971297) "></path>
                    </g>
                    <g id="Group-3" filter="url(#filter-11)" transform="translate(116.358140, 122.153488)">
                        <rect id="Rectangle-3" fill="#1EAB89" x="4.43953488" y="2.70232558" width="3.08837209" height="21.2325581"></rect>
                        <g id="Group" transform="translate(5.919264, 24.841575) rotate(176.000000) translate(-5.919264, -24.841575) translate(0.514613, 19.436924)">
                            <circle id="Oval" fill="#1EAB89" cx="5.40465116" cy="5.40465116" r="5.40465116"></circle>
                            <path d="M5.71047302,2.92046805 L8.02870376,6.26902357 C8.27142355,6.61961882 8.18397321,7.10059569 7.83337796,7.34331547 C7.70425501,7.43270829 7.55094207,7.48059964 7.39389491,7.48059964 L3.39224228,7.48059964 C2.96582708,7.48059964 2.62014926,7.13492182 2.62014926,6.70850662 C2.62014926,6.55145946 2.66804062,6.39814652 2.75743343,6.26902357 L5.07566417,2.92046805 C5.19702406,2.74517043 5.4375125,2.70144526 5.61281012,2.82280515 C5.65097058,2.84922393 5.68405425,2.8823076 5.71047302,2.92046805 Z" id="Triangle" fill="#58CD9E" transform="translate(5.393069, 4.971297) rotate(3.000000) translate(-5.393069, -4.971297) "></path>
                        </g>
                        <circle id="Oval-3" fill="#1EAB89" cx="5.98372093" cy="2.89534884" r="2.89534884"></circle>
                    </g>
                    <text id="MCR" font-family="IBMPlexMono-Medium, IBM Plex Mono" font-size="8.10697674" font-weight="400" fill="#FFFFFF" fill-opacity="0.9">
                        <tspan x="163.108372" y="227.823256">MCR</tspan>
                    </text>
                    <path d="M0.196744186,136.613721 L0.196744186,134.895814 L9.38465116,134.895814 L9.38465116,136.613721 L0.196744186,136.613721 Z M0.196744186,140.705814 L0.196744186,138.987907 L9.38465116,138.987907 L9.38465116,140.705814 L0.196744186,140.705814 Z M53.9151163,137.250698 L53.9730233,133.197209 L53.8186047,133.197209 L51.1162791,140.126744 L48.4139535,133.197209 L48.2595349,133.197209 L48.3174419,137.250698 L48.3174419,143.697674 L46.4065116,143.697674 L46.4065116,130.224651 L49.0509302,130.224651 L51.1162791,135.571395 L51.2513953,135.571395 L53.3360465,130.224651 L55.8260465,130.224651 L55.8260465,143.697674 L53.9151163,143.697674 L53.9151163,137.250698 Z M63.0837209,143.929302 C61.3722395,143.929302 60.1015158,143.324502 59.2715116,142.114884 C58.4415075,140.905265 58.0265116,139.187375 58.0265116,136.961163 C58.0265116,134.73495 58.4415075,133.01706 59.2715116,131.807442 C60.1015158,130.597823 61.3722395,129.993023 63.0837209,129.993023 C63.7400033,129.993023 64.3094162,130.079883 64.7919767,130.253605 C65.2745373,130.427326 65.6895331,130.665386 66.0369767,130.967791 C66.3844203,131.270195 66.6771694,131.624068 66.9152326,132.029419 C67.1532958,132.434769 67.3495341,132.869067 67.5039535,133.332326 L65.5544186,133.988605 C65.4514724,133.679766 65.3356596,133.390234 65.2069767,133.12 C65.0782939,132.849766 64.9174428,132.618141 64.7244186,132.425116 C64.5313944,132.232092 64.3029858,132.077675 64.039186,131.96186 C63.7753863,131.846046 63.450467,131.78814 63.0644186,131.78814 C62.1121658,131.78814 61.417289,132.151663 60.9797674,132.878721 C60.5422459,133.605779 60.3234884,134.586971 60.3234884,135.822326 L60.3234884,138.1 C60.3234884,139.335355 60.5422459,140.316547 60.9797674,141.043605 C61.417289,141.770663 62.1121658,142.134186 63.0644186,142.134186 C63.450467,142.134186 63.7753863,142.07628 64.039186,141.960465 C64.3029858,141.844651 64.5313944,141.690234 64.7244186,141.497209 C64.9174428,141.304185 65.0782939,141.072559 65.2069767,140.802326 C65.3356596,140.532092 65.4514724,140.24256 65.5544186,139.933721 L67.5039535,140.59 C67.3495341,141.053258 67.1532958,141.487556 66.9152326,141.892907 C66.6771694,142.298258 66.3844203,142.65213 66.0369767,142.954535 C65.6895331,143.256939 65.2745373,143.494999 64.7919767,143.668721 C64.3094162,143.842443 63.7400033,143.929302 63.0837209,143.929302 Z M72.2523256,143.697674 L70.1097674,143.697674 L70.1097674,130.224651 L75.1476744,130.224651 C76.4345026,130.224651 77.4156943,130.584958 78.0912791,131.305581 C78.7668638,132.026205 79.1046512,133.017048 79.1046512,134.27814 C79.1046512,135.307602 78.8537234,136.156896 78.3518605,136.826047 C77.8499975,137.495197 77.1293845,137.906976 76.19,138.061395 L79.2976744,143.697674 L76.904186,143.697674 L74.0474419,138.254419 L72.2523256,138.254419 L72.2523256,143.697674 Z M74.8388372,136.517209 C76.1771385,136.517209 76.8462791,135.905975 76.8462791,134.683488 L76.8462791,133.853488 C76.8462791,132.631002 76.1771385,132.019767 74.8388372,132.019767 L72.2523256,132.019767 L72.2523256,136.517209 L74.8388372,136.517209 Z M94.8746512,136.980465 C93.9867397,136.980465 93.2757779,136.681282 92.7417442,136.082907 C92.2077105,135.484532 91.9406977,134.619153 91.9406977,133.486744 C91.9406977,132.354335 92.2077105,131.488956 92.7417442,130.890581 C93.2757779,130.292206 93.9867397,129.993023 94.8746512,129.993023 C95.7625626,129.993023 96.4735245,130.292206 97.0075581,130.890581 C97.5415918,131.488956 97.8086047,132.354335 97.8086047,133.486744 C97.8086047,134.619153 97.5415918,135.484532 97.0075581,136.082907 C96.4735245,136.681282 95.7625626,136.980465 94.8746512,136.980465 Z M94.8746512,135.667907 C95.2993044,135.667907 95.6274407,135.516707 95.8590698,135.214302 C96.0906988,134.911898 96.2065116,134.490468 96.2065116,133.95 L96.2065116,133.023488 C96.2065116,132.483021 96.0906988,132.061591 95.8590698,131.759186 C95.6274407,131.456781 95.2993044,131.305581 94.8746512,131.305581 C94.4499979,131.305581 94.1218616,131.456781 93.8902326,131.759186 C93.6586035,132.061591 93.5427907,132.483021 93.5427907,133.023488 L93.5427907,133.95 C93.5427907,134.490468 93.6586035,134.911898 93.8902326,135.214302 C94.1218616,135.516707 94.4499979,135.667907 94.8746512,135.667907 Z M101.283023,130.224651 L103.020233,130.224651 L99.9897674,136.015349 L98.2718605,136.015349 L101.283023,130.224651 Z M94.8939535,137.906977 L96.6118605,137.906977 L93.6006977,143.697674 L91.8634884,143.697674 L94.8939535,137.906977 Z M100.00907,143.929302 C99.1211584,143.929302 98.4101965,143.630119 97.8761628,143.031744 C97.3421291,142.433369 97.0751163,141.56799 97.0751163,140.435581 C97.0751163,139.303173 97.3421291,138.437794 97.8761628,137.839419 C98.4101965,137.241044 99.1211584,136.94186 100.00907,136.94186 C100.896981,136.94186 101.607943,137.241044 102.141977,137.839419 C102.67601,138.437794 102.943023,139.303173 102.943023,140.435581 C102.943023,141.56799 102.67601,142.433369 102.141977,143.031744 C101.607943,143.630119 100.896981,143.929302 100.00907,143.929302 Z M100.00907,142.616744 C100.433723,142.616744 100.761859,142.465544 100.993488,142.16314 C101.225117,141.860735 101.34093,141.439305 101.34093,140.898837 L101.34093,139.972326 C101.34093,139.431858 101.225117,139.010428 100.993488,138.708023 C100.761859,138.405619 100.433723,138.254419 100.00907,138.254419 C99.5844165,138.254419 99.2562802,138.405619 99.0246512,138.708023 C98.7930221,139.010428 98.6772093,139.431858 98.6772093,139.972326 L98.6772093,140.898837 C98.6772093,141.439305 98.7930221,141.860735 99.0246512,142.16314 C99.2562802,142.465544 99.5844165,142.616744 100.00907,142.616744 Z" id="=-MCR-%" fill-opacity="0.6" fill="#1F2124"></path>
                    <path d="M188.24,143.697674 L188.24,130.224651 L193.277907,130.224651 C194.564735,130.224651 195.545927,130.584958 196.221512,131.305581 C196.897096,132.026205 197.234884,133.017048 197.234884,134.27814 C197.234884,135.539231 196.897096,136.530074 196.221512,137.250698 C195.545927,137.971321 194.564735,138.331628 193.277907,138.331628 L190.40186,138.331628 L190.40186,143.697674 L188.24,143.697674 Z M190.40186,136.536512 L192.949767,136.536512 C194.288069,136.536512 194.957209,135.918843 194.957209,134.683488 L194.957209,133.853488 C194.957209,132.631002 194.288069,132.019767 192.949767,132.019767 L190.40186,132.019767 L190.40186,136.536512 Z M199.666977,141.99907 L202.311395,141.99907 L202.311395,135.436279 L199.666977,135.436279 L199.666977,133.737674 L204.415349,133.737674 L204.415349,136.382093 L204.531163,136.382093 C204.621241,136.034649 204.749922,135.700079 204.917209,135.378372 C205.084497,135.056665 205.29682,134.776784 205.554186,134.538721 C205.811552,134.300658 206.12682,134.107636 206.5,133.959651 C206.87318,133.811666 207.310695,133.737674 207.812558,133.737674 L209.009302,133.737674 L209.009302,135.745116 L207.040465,135.745116 C206.268368,135.745116 205.637832,135.973525 205.148837,136.430349 C204.659843,136.887173 204.415349,137.501624 204.415349,138.273721 L204.415349,141.99907 L208.024884,141.99907 L208.024884,143.697674 L199.666977,143.697674 L199.666977,141.99907 Z M216.189767,131.923256 C215.6493,131.923256 215.272908,131.813877 215.060581,131.595116 C214.848255,131.376355 214.742093,131.106126 214.742093,130.784419 L214.742093,130.37907 C214.742093,130.057363 214.848255,129.787133 215.060581,129.568372 C215.272908,129.349611 215.642866,129.240233 216.170465,129.240233 C216.710933,129.240233 217.087325,129.349611 217.299651,129.568372 C217.511978,129.787133 217.61814,130.057363 217.61814,130.37907 L217.61814,130.784419 C217.61814,131.106126 217.511978,131.376355 217.299651,131.595116 C217.087325,131.813877 216.717367,131.923256 216.189767,131.923256 Z M211.73093,141.99907 L215.12814,141.99907 L215.12814,135.436279 L211.73093,135.436279 L211.73093,133.737674 L217.232093,133.737674 L217.232093,141.99907 L220.416977,141.99907 L220.416977,143.697674 L211.73093,143.697674 L211.73093,141.99907 Z M227.520233,143.929302 C226.773872,143.929302 226.107949,143.807055 225.522442,143.562558 C224.936935,143.318061 224.441514,142.970622 224.036163,142.520233 C223.630812,142.069843 223.321978,141.522949 223.109651,140.879535 C222.897325,140.236121 222.791163,139.515508 222.791163,138.717674 C222.791163,137.919841 222.897325,137.199228 223.109651,136.555814 C223.321978,135.9124 223.630812,135.365506 224.036163,134.915116 C224.441514,134.464726 224.936935,134.117288 225.522442,133.872791 C226.107949,133.628293 226.767438,133.506047 227.50093,133.506047 C228.530393,133.506047 229.357167,133.724804 229.981279,134.162326 C230.605391,134.599847 231.071859,135.166043 231.380698,135.86093 L229.74,136.748837 C229.559844,136.285579 229.286397,135.918839 228.919651,135.648605 C228.552905,135.378371 228.080003,135.243256 227.50093,135.243256 C226.703097,135.243256 226.085429,135.484532 225.647907,135.967093 C225.210385,136.449654 224.991628,137.089841 224.991628,137.887674 L224.991628,139.547674 C224.991628,140.33264 225.210385,140.96961 225.647907,141.458605 C226.085429,141.947599 226.715965,142.192093 227.539535,142.192093 C228.157212,142.192093 228.662285,142.050544 229.054767,141.767442 C229.44725,141.48434 229.759301,141.098297 229.99093,140.609302 L231.535116,141.555116 C231.213409,142.250003 230.724422,142.819416 230.06814,143.263372 C229.411857,143.707328 228.562563,143.929302 227.520233,143.929302 Z M238.947209,143.929302 C238.187981,143.929302 237.505972,143.807055 236.901163,143.562558 C236.296354,143.318061 235.788064,142.970622 235.376279,142.520233 C234.964494,142.069843 234.649226,141.526166 234.430465,140.889186 C234.211704,140.252206 234.102326,139.53481 234.102326,138.736977 C234.102326,137.939143 234.214921,137.21853 234.440116,136.575116 C234.665311,135.931702 234.980579,135.381591 235.38593,134.924767 C235.791281,134.467943 236.283485,134.117288 236.862558,133.872791 C237.441631,133.628293 238.085035,133.506047 238.792791,133.506047 C239.487678,133.506047 240.118214,133.625076 240.684419,133.86314 C241.250623,134.101203 241.733176,134.43899 242.132093,134.876512 C242.53101,135.314033 242.836627,135.835191 243.048953,136.44 C243.26128,137.044809 243.367442,137.71395 243.367442,138.447442 L243.367442,139.238837 L236.225581,139.238837 L236.225581,139.566977 C236.225581,140.351942 236.470075,140.992129 236.95907,141.487558 C237.448064,141.982987 238.123639,142.230698 238.985814,142.230698 C239.629228,142.230698 240.179339,142.092366 240.636163,141.815698 C241.092987,141.53903 241.462944,141.169072 241.746047,140.705814 L243.058605,141.863953 C242.724029,142.443026 242.212523,142.932014 241.52407,143.33093 C240.835617,143.729847 239.976672,143.929302 238.947209,143.929302 Z M238.792791,135.10814 C238.419611,135.10814 238.075389,135.17248 237.760116,135.301163 C237.444843,135.429846 237.174614,135.613216 236.949419,135.851279 C236.724224,136.089342 236.547287,136.369223 236.418605,136.69093 C236.289922,137.012637 236.225581,137.36651 236.225581,137.752558 L236.225581,137.887674 L241.224884,137.887674 L241.224884,137.694651 C241.224884,136.909686 241.002909,136.282367 240.558953,135.812674 C240.114998,135.342982 239.526283,135.10814 238.792791,135.10814 Z" id="Price" fill-opacity="0.6" fill="#1F2124"></path>
                    <path id="Line-3" d="M307.313178,138.174419 L257.651163,138.174419 L256.87907,138.174419 L256.87907,136.630233 L257.651163,136.630233 L307.313178,136.630233 L307.313178,131.54186 L319.313178,137.402326 L307.313178,143.262791 L307.313178,138.174419 Z" fill-opacity="0.6" fill="#1F2124" fill-rule="nonzero"></path>
                    <path id="Line-3" d="M159.071318,137.788372 L140.293023,137.788372 L139.52093,137.788372 L139.52093,136.244186 L140.293023,136.244186 L159.071318,136.244186 L159.071318,131.155814 L171.071318,137.016279 L159.071318,142.876744 L159.071318,137.788372 Z" fill-opacity="0.6" fill="#1F2124" fill-rule="nonzero"></path>
                    <g id="Group-2" transform="translate(17.144186, 29.888372)">
                        <g id="Group" transform="translate(5.404651, 0.386047)">
                            <path d="M0.386046512,186.267442 C54.6061941,185.316617 93.0821631,184.158477 115.813953,182.793023 C148.68459,180.818549 178.160421,179.0407 202.288372,174.493023 C319.646512,149.914729 380.770543,94.324031 385.660465,7.72093023 L386.412912,199.971128 C386.42372,202.732531 384.193922,204.979852 381.43252,204.990659 C381.425997,204.990685 381.419473,204.990698 381.41295,204.990698 L0.386046512,204.990698 L0.386046512,186.267442 Z" id="Path-2" fill="url(#linearGradient-12)"></path>
                            <path d="M9.32587341e-15,184.881909 L147.855814,180.862791 C300.730233,166.836434 379.741085,106.627956 384.888372,0.237356884 L386.046512,0.237356884 L386.046512,15.252635 C373.641136,114.066794 294.244237,169.84925 147.855814,182.6 L0,186.997751 L1.03799197e-14,184.881909 Z" id="Combined-Shape" fill="#1EAB89"></path>
                            <g id="Rectangle-2" transform="translate(147.458403, 181.044450) rotate(-315.000000) translate(-147.458403, -181.044450) ">
                                <use fill="black" fill-opacity="1" filter="url(#filter-14)" xlink:href="#path-13"></use>
                                <use fill="#1EAB89" fill-rule="evenodd" xlink:href="#path-13"></use>
                            </g>
                            <rect id="Rectangle-2" fill="#58CD9E" transform="translate(147.461244, 181.047291) rotate(-315.000000) translate(-147.461244, -181.047291) " x="145.010486" y="178.596533" width="4.90151641" height="4.90151641"></rect>
                        </g>
                        <g id="Oval">
                            <use fill="black" fill-opacity="1" filter="url(#filter-16)" xlink:href="#path-15"></use>
                            <use fill="#1EAB89" fill-rule="evenodd" xlink:href="#path-15"></use>
                        </g>
                        <g id="Oval">
                            <use fill="black" fill-opacity="1" filter="url(#filter-18)" xlink:href="#path-17"></use>
                            <use fill="#1EAB89" fill-rule="evenodd" xlink:href="#path-17"></use>
                        </g>
                        <circle id="Oval-2" fill="#58CD9E" cx="5.40465116" cy="186.074419" r="3.08837209"></circle>
                        <path d="M391.756985,2.92046805 L394.075215,6.26902357 C394.317935,6.61961882 394.230485,7.10059569 393.87989,7.34331547 C393.750767,7.43270829 393.597454,7.48059964 393.440407,7.48059964 L389.438754,7.48059964 C389.012339,7.48059964 388.666661,7.13492182 388.666661,6.70850662 C388.666661,6.55145946 388.714552,6.39814652 388.803945,6.26902357 L391.122176,2.92046805 C391.243536,2.74517043 391.484024,2.70144526 391.659322,2.82280515 C391.697482,2.84922393 391.730566,2.8823076 391.756985,2.92046805 Z" id="Triangle" fill="#58CD9E" transform="translate(391.439580, 4.971297) rotate(3.000000) translate(-391.439580, -4.971297) "></path>
                    </g>
                    <path d="M166.715977,225.115526 L166.740298,223.41306 L166.675442,223.41306 L165.540465,226.323465 L164.405488,223.41306 L164.340633,223.41306 L164.364953,225.115526 L164.364953,227.823256 L163.562363,227.823256 L163.562363,222.164586 L164.673019,222.164586 L165.540465,224.410219 L165.597214,224.410219 L166.472767,222.164586 L167.518567,222.164586 L167.518567,227.823256 L166.715977,227.823256 L166.715977,225.115526 Z M170.566791,227.92054 C169.847968,227.92054 169.314265,227.666523 168.965663,227.158484 C168.617061,226.650444 168.442763,225.92893 168.442763,224.993921 C168.442763,224.058912 168.617061,223.337398 168.965663,222.829358 C169.314265,222.321318 169.847968,222.067302 170.566791,222.067302 C170.842429,222.067302 171.081583,222.103783 171.284258,222.176747 C171.486934,222.24971 171.661232,222.349695 171.807158,222.476705 C171.953084,222.603715 172.076039,222.752341 172.176026,222.922588 C172.276012,223.092836 172.358432,223.275241 172.423288,223.469809 L171.604484,223.745447 C171.561246,223.615734 171.512605,223.494131 171.458558,223.380633 C171.404511,223.267134 171.336954,223.169852 171.255884,223.088781 C171.174814,223.007711 171.078882,222.942856 170.968086,222.894214 C170.85729,222.845572 170.720824,222.821251 170.558684,222.821251 C170.158738,222.821251 169.866889,222.973931 169.68313,223.279295 C169.499371,223.58466 169.407493,223.99676 169.407493,224.515609 L169.407493,225.472233 C169.407493,225.991082 169.499371,226.403182 169.68313,226.708547 C169.866889,227.013911 170.158738,227.166591 170.558684,227.166591 C170.720824,227.166591 170.85729,227.14227 170.968086,227.093628 C171.078882,227.044986 171.174814,226.980131 171.255884,226.89906 C171.336954,226.81799 171.404511,226.720708 171.458558,226.607209 C171.512605,226.493711 171.561246,226.372108 171.604484,226.242395 L172.423288,226.518033 C172.358432,226.712601 172.276012,226.895006 172.176026,227.065253 C172.076039,227.235501 171.953084,227.384127 171.807158,227.511137 C171.661232,227.638147 171.486934,227.738132 171.284258,227.811095 C171.081583,227.884059 170.842429,227.92054 170.566791,227.92054 Z M174.417605,227.823256 L173.51773,227.823256 L173.51773,222.164586 L175.633651,222.164586 C176.174119,222.164586 176.58622,222.315915 176.869965,222.618577 C177.153711,222.921239 177.295581,223.337393 177.295581,223.867051 C177.295581,224.299425 177.190192,224.656129 176.979409,224.937172 C176.768627,225.218215 176.465969,225.391162 176.071428,225.456019 L177.376651,227.823256 L176.371386,227.823256 L175.171553,225.537088 L174.417605,225.537088 L174.417605,227.823256 Z M175.50394,224.80746 C176.066026,224.80746 176.347065,224.550742 176.347065,224.037298 L176.347065,223.688698 C176.347065,223.175253 176.066026,222.918535 175.50394,222.918535 L174.417605,222.918535 L174.417605,224.80746 L175.50394,224.80746 Z" id="MCR" fill-opacity="0.6" fill="#1F2124"></path>
                </g>
            </g>
        </g>
    </g>
</svg>