<?xml version="1.0" encoding="UTF-8" standalone="no"?>
<svg xmlns="http://www.w3.org/2000/svg" height="411px" width="646px" version="1.1" xmlns:xlink="http://www.w3.org/1999/xlink" viewBox="0 0 646 411"><!-- Generator: Sketch 51.2 (57519) - http://www.bohemiancoding.com/sketch -->
 <title>Graph 1: Continuous Token Model</title>
 <desc>Created with Sketch.</desc>
 <defs>
  <rect id="path-1" rx="5" height="383" width="618" y="0" x="9"/>
  <filter id="filter-2" height="113.1%" width="108.1%" y="-5.2%" x="-3.6%" filterUnits="objectBoundingBox">
   <feOffset in="SourceAlpha" result="shadowOffsetOuter1" dx="2" dy="4"/>
   <feGaussianBlur stdDeviation="7" result="shadowBlurOuter1" in="shadowOffsetOuter1"/>
   <feColorMatrix type="matrix" values="0 0 0 0 0.792156863   0 0 0 0 0.823529412   0 0 0 0 0.878431373  0 0 0 0.7 0" result="shadowMatrixOuter1" in="shadowBlurOuter1"/>
   <feOffset in="SourceAlpha" result="shadowOffsetOuter2" dx="1" dy="1"/>
   <feGaussianBlur stdDeviation="1" result="shadowBlurOuter2" in="shadowOffsetOuter2"/>
   <feColorMatrix type="matrix" values="0 0 0 0 0.784313725   0 0 0 0 0.823529412   0 0 0 0 0.882352941  0 0 0 1 0" result="shadowMatrixOuter2" in="shadowBlurOuter2"/>
   <feMerge>
    <feMergeNode in="shadowMatrixOuter1"/>
    <feMergeNode in="shadowMatrixOuter2"/>
   </feMerge>
  </filter>
  <linearGradient id="linearGradient-3" y1="100%" y2="100%">
   <stop stop-color="#1EAB89" stop-opacity="0" offset="0"/>
   <stop stop-color="#1EAB89" stop-opacity=".2" offset="1"/>
  </linearGradient>
  <circle id="path-4" cy="351.5" cx="8.5" r="8.5"/>
  <filter id="filter-5" height="141.2%" width="141.2%" y="-14.7%" x="-14.7%" filterUnits="objectBoundingBox">
   <feOffset in="SourceAlpha" result="shadowOffsetOuter1" dx="1" dy="1"/>
   <feGaussianBlur stdDeviation="1" result="shadowBlurOuter1" in="shadowOffsetOuter1"/>
   <feColorMatrix type="matrix" values="0 0 0 0 0   0 0 0 0 0   0 0 0 0 0  0 0 0 0.5 0" in="shadowBlurOuter1"/>
  </filter>
  <circle id="path-6" cy="62.5" cx="626.5" r="8.5"/>
  <filter id="filter-7" height="141.2%" width="141.2%" y="-14.7%" x="-14.7%" filterUnits="objectBoundingBox">
   <feOffset in="SourceAlpha" result="shadowOffsetOuter1" dx="1" dy="1"/>
   <feGaussianBlur stdDeviation="1" result="shadowBlurOuter1" in="shadowOffsetOuter1"/>
   <feColorMatrix type="matrix" values="0 0 0 0 0   0 0 0 0 0   0 0 0 0 0  0 0 0 0.5 0" in="shadowBlurOuter1"/>
  </filter>
 </defs>
 <g id="Page-2" fill-rule="evenodd" fill="none">
  <g id="Token-Model-Page---Outline-Text-for-svg-output" transform="translate(-637 -1629)">
   <g id="Graph-1:-Continuous-Token-Model" transform="translate(640 1639)">
    <g id="Rectangle">
     <use filter="url(#filter-2)" xlink:href="#path-1" fill="black"/>
     <use xlink:href="#path-1" fill-rule="evenodd" fill="#FFFFFF"/>
    </g>
    <path id="Line-Copy-4" stroke="#E5E5E5" stroke-width=".61770" stroke-linecap="square" d="m9 318.5h618"/>
    <path id="Line-Copy-3" stroke="#E5E5E5" stroke-width=".61770" stroke-linecap="square" d="m9 255.5h618"/>
    <path id="Line-Copy-2" stroke="#E5E5E5" stroke-width=".61770" stroke-linecap="square" d="m9 192.5h618"/>
    <path id="Line-Copy" stroke="#E5E5E5" stroke-width=".61770" stroke-linecap="square" d="m59.309 129.5h567.69"/>
    <path id="Line" stroke="#E5E5E5" stroke-width=".61770" stroke-linecap="square" d="m57.309 66.5h569.69"/>
    <path id="Path-2" fill="url(#linearGradient-3)" d="m9 353.01c127.72 1.85 235.63-4.43 323.74-18.86 188.17-39.37 286.18-128.42 294.02-267.15l1.22 310.98c0.01 2.76-2.22 5.01-4.98 5.02h-0.02-608.98c-2.761 0-5-2.24-5-5v-24.99z"/>
    <path id="Combined-Shape" fill="#1EAB89" d="m9 350.7c154.64 2.05 270.11-5.82 346.39-23.61 176.33-41.81 266.25-132.51 269.76-272.09h1.85v26.03c-15.78 126.9-106.32 209.84-271.61 248.84-127.36 28.99-296.36 22.99-346.39 24.03v-3.2z"/>
    <g id="Oval">
     <use filter="url(#filter-5)" xlink:href="#path-4" fill="black"/>
     <use xlink:href="#path-4" fill-rule="evenodd" fill="#1EAB89"/>
    </g>
    <g id="Oval">
     <use filter="url(#filter-7)" xlink:href="#path-6" fill="black"/>
     <use xlink:href="#path-6" fill-rule="evenodd" fill="#1EAB89"/>
    </g>
    <circle id="Oval-2" cy="352" cx="9" r="5" fill="#58CD9E"/>
    <path id="Triangle" fill="#58CD9E" d="m627.01 58.281l3.85 5.8c0.38 0.569 0.23 1.336-0.34 1.713-0.2 0.134-0.44 0.206-0.68 0.206h-6.68c-0.68 0-1.23-0.553-1.23-1.235 0-0.243 0.07-0.481 0.2-0.684l3.86-5.8c0.18-0.284 0.57-0.362 0.85-0.173 0.07 0.045 0.13 0.104 0.17 0.173z" transform="translate(626.5 62.002) rotate(3) translate(-626.5 -62.002)"/>
    <path id="Total-funds-of-the-m" fill="#1EAB89" d="m389.98 362.54v8.46h-1.56v-8.46h-3.07v-1.31h7.7v1.31h-3.07zm7.62 8.63c-0.53 0-1.01-0.09-1.44-0.27-0.42-0.18-0.78-0.43-1.07-0.75-0.3-0.33-0.52-0.73-0.68-1.19-0.16-0.47-0.24-0.99-0.24-1.57s0.08-1.1 0.24-1.57 0.38-0.86 0.68-1.19c0.29-0.33 0.65-0.58 1.07-0.76 0.43-0.17 0.91-0.26 1.44-0.26s1.01 0.09 1.44 0.26c0.42 0.18 0.78 0.43 1.07 0.76 0.3 0.33 0.52 0.72 0.68 1.19s0.24 0.99 0.24 1.57-0.08 1.1-0.24 1.57c-0.16 0.46-0.38 0.86-0.68 1.19-0.29 0.32-0.65 0.57-1.07 0.75-0.43 0.18-0.91 0.27-1.44 0.27zm0-1.21c0.56 0 1.01-0.17 1.34-0.51s0.49-0.84 0.49-1.52v-1.09c0-0.67-0.16-1.18-0.49-1.52s-0.78-0.51-1.34-0.51-1.01 0.17-1.34 0.51-0.49 0.85-0.49 1.52v1.09c0 0.68 0.16 1.18 0.49 1.52s0.78 0.51 1.34 0.51zm8.83 1.04c-0.63 0-1.1-0.17-1.4-0.51-0.29-0.34-0.44-0.78-0.44-1.32v-4.16h-2.23v-1.23h1.58c0.27 0 0.46-0.06 0.58-0.16 0.11-0.11 0.16-0.31 0.16-0.59v-1.8h1.43v2.55h3.08v1.23h-3.08v4.76h3.08v1.23h-2.76zm10.66 0c-0.44 0-0.77-0.11-0.99-0.34-0.22-0.22-0.35-0.51-0.4-0.88h-0.07c-0.14 0.44-0.39 0.78-0.76 1.02-0.37 0.25-0.84 0.37-1.41 0.37-0.74 0-1.32-0.2-1.76-0.58-0.44-0.39-0.66-0.92-0.66-1.61 0-0.7 0.26-1.23 0.78-1.6s1.31-0.55 2.38-0.55h1.39v-0.56c0-0.98-0.52-1.47-1.55-1.47-0.47 0-0.85 0.09-1.14 0.27s-0.53 0.42-0.73 0.72l-0.91-0.74c0.21-0.39 0.55-0.73 1.04-1.01 0.49-0.29 1.11-0.43 1.88-0.43 0.91 0 1.63 0.22 2.15 0.66 0.52 0.43 0.79 1.07 0.79 1.9v3.63h0.91v1.2h-0.94zm-3.19-0.95c0.49 0 0.9-0.11 1.21-0.34 0.32-0.22 0.48-0.51 0.48-0.87v-1.05h-1.36c-1.1 0-1.65 0.34-1.65 1v0.28c0 0.32 0.12 0.57 0.35 0.73 0.23 0.17 0.56 0.25 0.97 0.25zm5.75-0.28h2.39v-7.9h-2.39v-1.23h3.92v9.13h2.39v1.23h-6.31v-1.23zm16.84 0h2.31v-4.76h-2.45v-1.23h2.45v-1.31c0-0.54 0.15-0.98 0.45-1.32s0.77-0.51 1.4-0.51h2.44v1.23h-2.76v1.91h2.76v1.23h-2.76v4.76h2.43v1.23h-6.27v-1.23zm13.01 0h-0.07c-0.08 0.18-0.17 0.36-0.29 0.54-0.12 0.17-0.26 0.32-0.43 0.45-0.16 0.12-0.36 0.22-0.58 0.3-0.23 0.07-0.49 0.11-0.79 0.11-0.73 0-1.31-0.24-1.76-0.72-0.45-0.47-0.67-1.15-0.67-2.03v-4.64h1.52v4.42c0 1.15 0.5 1.72 1.5 1.72 0.2 0 0.39-0.02 0.57-0.08 0.19-0.05 0.36-0.12 0.51-0.23 0.15-0.1 0.27-0.23 0.35-0.38 0.09-0.16 0.14-0.34 0.14-0.55v-4.9h1.52v7.22h-1.52v-1.23zm3.88 1.23v-7.22h1.52v1.23h0.07c0.08-0.19 0.17-0.37 0.29-0.54s0.26-0.32 0.43-0.45c0.16-0.13 0.36-0.23 0.58-0.3 0.23-0.07 0.49-0.11 0.79-0.11 0.73 0 1.31 0.24 1.76 0.71 0.45 0.48 0.67 1.15 0.67 2.03v4.65h-1.52v-4.42c0-1.15-0.5-1.73-1.5-1.73-0.2 0-0.39 0.03-0.57 0.08-0.19 0.05-0.36 0.13-0.51 0.23s-0.27 0.24-0.35 0.39c-0.09 0.16-0.14 0.34-0.14 0.55v4.9h-1.52zm12.99-1.23h-0.09c-0.21 0.44-0.5 0.78-0.85 1.03-0.35 0.24-0.8 0.37-1.33 0.37-0.85 0-1.53-0.32-2.03-0.95-0.5-0.64-0.76-1.58-0.76-2.83s0.26-2.2 0.76-2.83 1.18-0.95 2.03-0.95c0.53 0 0.98 0.12 1.33 0.37s0.64 0.59 0.85 1.03h0.09v-4.37h1.52v10.36h-1.52v-1.23zm-1.64 0.15c0.22 0 0.43-0.03 0.63-0.08 0.2-0.06 0.37-0.14 0.52-0.25 0.15-0.12 0.27-0.25 0.36-0.42 0.08-0.16 0.13-0.35 0.13-0.58v-2.41c0-0.22-0.05-0.41-0.13-0.58-0.09-0.16-0.21-0.3-0.36-0.41s-0.32-0.2-0.52-0.25c-0.2-0.06-0.41-0.09-0.63-0.09-0.58 0-1.02 0.18-1.34 0.54-0.31 0.35-0.47 0.82-0.47 1.41v1.18c0 0.58 0.16 1.06 0.47 1.41 0.32 0.35 0.76 0.53 1.34 0.53zm8.48 1.25c-0.78 0-1.45-0.13-2.02-0.38-0.56-0.25-1.02-0.59-1.36-1.01l0.93-0.84c0.32 0.35 0.68 0.61 1.08 0.79 0.39 0.19 0.86 0.28 1.4 0.28 0.5 0 0.9-0.09 1.2-0.26 0.3-0.16 0.45-0.43 0.45-0.78 0-0.15-0.02-0.28-0.08-0.38s-0.14-0.18-0.24-0.25-0.22-0.12-0.35-0.15c-0.14-0.04-0.28-0.07-0.43-0.09l-1.15-0.18c-0.28-0.04-0.56-0.1-0.85-0.18-0.29-0.09-0.55-0.2-0.78-0.36-0.23-0.15-0.42-0.35-0.56-0.59-0.15-0.25-0.22-0.55-0.22-0.93 0-0.74 0.28-1.3 0.85-1.68 0.56-0.38 1.31-0.57 2.23-0.57 0.67 0 1.25 0.1 1.75 0.3 0.49 0.2 0.89 0.48 1.22 0.83l-0.85 0.9c-0.19-0.22-0.46-0.41-0.8-0.6-0.35-0.18-0.8-0.27-1.37-0.27-1.02 0-1.53 0.32-1.53 0.97 0 0.3 0.11 0.52 0.33 0.63 0.22 0.12 0.48 0.2 0.78 0.23l1.14 0.19c0.29 0.04 0.58 0.1 0.86 0.18 0.29 0.07 0.55 0.19 0.78 0.34 0.22 0.16 0.41 0.35 0.56 0.6 0.14 0.24 0.21 0.55 0.21 0.92 0 0.73-0.28 1.3-0.85 1.71-0.56 0.42-1.34 0.63-2.33 0.63zm16.79 0c-0.53 0-1.01-0.09-1.44-0.27-0.42-0.18-0.78-0.43-1.07-0.75-0.3-0.33-0.52-0.73-0.68-1.19-0.16-0.47-0.24-0.99-0.24-1.57s0.08-1.1 0.24-1.57 0.38-0.86 0.68-1.19c0.29-0.33 0.65-0.58 1.07-0.76 0.43-0.17 0.91-0.26 1.44-0.26s1.01 0.09 1.44 0.26c0.42 0.18 0.78 0.43 1.07 0.76 0.3 0.33 0.52 0.72 0.68 1.19s0.24 0.99 0.24 1.57-0.08 1.1-0.24 1.57c-0.16 0.46-0.38 0.86-0.68 1.19-0.29 0.32-0.65 0.57-1.07 0.75-0.43 0.18-0.91 0.27-1.44 0.27zm0-1.21c0.56 0 1.01-0.17 1.34-0.51s0.49-0.84 0.49-1.52v-1.09c0-0.67-0.16-1.18-0.49-1.52s-0.78-0.51-1.34-0.51-1.01 0.17-1.34 0.51-0.49 0.85-0.49 1.52v1.09c0 0.68 0.16 1.18 0.49 1.52s0.78 0.51 1.34 0.51zm5.29-0.19h2.31v-4.76h-2.45v-1.23h2.45v-1.31c0-0.54 0.15-0.98 0.45-1.32s0.77-0.51 1.4-0.51h2.44v1.23h-2.76v1.91h2.76v1.23h-2.76v4.76h2.43v1.23h-6.27v-1.23zm20.34 1.23c-0.63 0-1.1-0.17-1.4-0.51-0.29-0.34-0.44-0.78-0.44-1.32v-4.16h-2.23v-1.23h1.58c0.27 0 0.46-0.06 0.58-0.16 0.11-0.11 0.16-0.31 0.16-0.59v-1.8h1.43v2.55h3.08v1.23h-3.08v4.76h3.08v1.23h-2.76zm4.95-10.36h1.52v4.37h0.07c0.08-0.19 0.17-0.37 0.29-0.54s0.26-0.32 0.43-0.45c0.16-0.13 0.36-0.23 0.58-0.3 0.23-0.07 0.49-0.11 0.79-0.11 0.73 0 1.31 0.24 1.76 0.71 0.45 0.48 0.67 1.15 0.67 2.03v4.65h-1.52v-4.42c0-1.15-0.5-1.73-1.5-1.73-0.2 0-0.39 0.03-0.57 0.08-0.19 0.05-0.36 0.13-0.51 0.23s-0.27 0.24-0.35 0.39c-0.09 0.16-0.14 0.34-0.14 0.55v4.9h-1.52v-10.36zm11.57 10.53c-0.55 0-1.04-0.09-1.48-0.27s-0.81-0.43-1.11-0.75c-0.29-0.33-0.52-0.72-0.68-1.19-0.16-0.46-0.24-0.98-0.24-1.56s0.08-1.1 0.24-1.57c0.17-0.46 0.4-0.86 0.69-1.19 0.3-0.33 0.65-0.59 1.07-0.77 0.42-0.17 0.89-0.26 1.4-0.26s0.96 0.08 1.37 0.26c0.41 0.17 0.76 0.41 1.05 0.73s0.51 0.7 0.67 1.14c0.15 0.43 0.23 0.92 0.23 1.45v0.58h-5.18v0.23c0 0.57 0.18 1.04 0.53 1.4 0.36 0.36 0.85 0.54 1.47 0.54 0.47 0 0.87-0.1 1.2-0.3 0.33-0.21 0.6-0.47 0.8-0.81l0.96 0.84c-0.25 0.42-0.62 0.77-1.12 1.06s-1.12 0.44-1.87 0.44zm-0.11-6.4c-0.27 0-0.52 0.05-0.75 0.14s-0.42 0.23-0.59 0.4c-0.16 0.17-0.29 0.37-0.38 0.61-0.09 0.23-0.14 0.49-0.14 0.77v0.1h3.63v-0.14c0-0.57-0.16-1.03-0.49-1.37-0.32-0.34-0.75-0.51-1.28-0.51zm13.18 6.23v-7.22h1.3v0.93h0.07c0.11-0.3 0.27-0.57 0.48-0.78s0.51-0.32 0.9-0.32 0.68 0.1 0.89 0.31 0.35 0.5 0.4 0.86h0.06c0.13-0.32 0.31-0.6 0.54-0.83 0.24-0.23 0.57-0.34 1.01-0.34 0.56 0 0.95 0.19 1.17 0.59 0.22 0.39 0.33 0.96 0.33 1.72v5.08h-1.3v-4.89c0-0.5-0.06-0.85-0.18-1.04-0.13-0.19-0.32-0.29-0.59-0.29-0.24 0-0.45 0.09-0.61 0.25s-0.25 0.41-0.25 0.73v5.24h-1.3v-4.89c0-0.5-0.06-0.85-0.17-1.04-0.12-0.19-0.31-0.29-0.58-0.29-0.26 0-0.46 0.09-0.63 0.25-0.16 0.16-0.24 0.41-0.24 0.73v5.24h-1.3zm13.48-1.23h-0.07c-0.08 0.18-0.17 0.36-0.29 0.54-0.12 0.17-0.26 0.32-0.43 0.45-0.16 0.12-0.36 0.22-0.58 0.3-0.23 0.07-0.49 0.11-0.79 0.11-0.73 0-1.31-0.24-1.76-0.72-0.45-0.47-0.67-1.15-0.67-2.03v-4.64h1.52v4.42c0 1.15 0.5 1.72 1.5 1.72 0.2 0 0.39-0.02 0.57-0.08 0.19-0.05 0.36-0.12 0.51-0.23 0.15-0.1 0.27-0.23 0.35-0.38 0.09-0.16 0.14-0.34 0.14-0.55v-4.9h1.52v7.22h-1.52v-1.23zm7.33 1.23c-0.63 0-1.1-0.17-1.4-0.51-0.29-0.34-0.44-0.78-0.44-1.32v-4.16h-2.23v-1.23h1.58c0.27 0 0.46-0.06 0.58-0.16 0.11-0.11 0.16-0.31 0.16-0.59v-1.8h1.43v2.55h3.08v1.23h-3.08v4.76h3.08v1.23h-2.76zm9.47-1.23h-0.07c-0.08 0.18-0.17 0.36-0.29 0.54-0.12 0.17-0.26 0.32-0.43 0.45-0.16 0.12-0.36 0.22-0.58 0.3-0.23 0.07-0.49 0.11-0.79 0.11-0.73 0-1.31-0.24-1.76-0.72-0.45-0.47-0.67-1.15-0.67-2.03v-4.64h1.52v4.42c0 1.15 0.5 1.72 1.5 1.72 0.2 0 0.39-0.02 0.57-0.08 0.19-0.05 0.36-0.12 0.51-0.23 0.15-0.1 0.27-0.23 0.35-0.38 0.09-0.16 0.14-0.34 0.14-0.55v-4.9h1.52v7.22h-1.52v-1.23zm9.59 1.23c-0.44 0-0.77-0.11-0.99-0.34-0.22-0.22-0.35-0.51-0.4-0.88h-0.07c-0.14 0.44-0.39 0.78-0.76 1.02-0.37 0.25-0.84 0.37-1.41 0.37-0.74 0-1.32-0.2-1.76-0.58-0.44-0.39-0.66-0.92-0.66-1.61 0-0.7 0.26-1.23 0.78-1.6s1.31-0.55 2.38-0.55h1.39v-0.56c0-0.98-0.52-1.47-1.55-1.47-0.47 0-0.85 0.09-1.14 0.27s-0.53 0.42-0.73 0.72l-0.91-0.74c0.21-0.39 0.55-0.73 1.04-1.01 0.49-0.29 1.11-0.43 1.88-0.43 0.91 0 1.63 0.22 2.15 0.66 0.52 0.43 0.79 1.07 0.79 1.9v3.63h0.91v1.2h-0.94zm-3.19-0.95c0.49 0 0.9-0.11 1.21-0.34 0.32-0.22 0.48-0.51 0.48-0.87v-1.05h-1.36c-1.1 0-1.65 0.34-1.65 1v0.28c0 0.32 0.12 0.57 0.35 0.73 0.23 0.17 0.56 0.25 0.97 0.25zm5.75-0.28h2.39v-7.9h-2.39v-1.23h3.92v9.13h2.39v1.23h-6.31v-1.23zm28.31-3.83l-2.95 2.95v-2.44h-8.01v-1.01h8.01v-2.45l2.95 2.95z"/>
    <path id="Price-→" fill="#1EAB89" d="m1.676 101.5v-9.772h3.654c0.9333 0 1.645 0.261 2.135 0.784s0.735 1.241 0.735 2.156-0.245 1.633-0.735 2.156-1.2017 0.784-2.135 0.784h-2.086v3.892h-1.568zm1.568-5.194h1.848c0.9707 0 1.456-0.448 1.456-1.344v-0.602c0-0.887-0.4853-1.33-1.456-1.33h-1.848v3.276zm6.72 3.964h1.918v-4.762h-1.918v-1.232h3.444v1.918h0.084c0.065-0.252 0.159-0.495 0.28-0.728s0.275-0.436 0.462-0.609 0.415-0.313 0.686-0.42 0.588-0.161 0.952-0.161h0.868v1.456h-1.428c-0.56 0-1.017 0.166-1.372 0.497s-0.532 0.777-0.532 1.337v2.704h2.618v1.23h-6.062v-1.23zm11.984-7.31c-0.392 0-0.665-0.079-0.819-0.238s-0.231-0.355-0.231-0.588v-0.294c0-0.233 0.077-0.429 0.231-0.588s0.422-0.238 0.805-0.238c0.392 0 0.665 0.079 0.819 0.238s0.231 0.355 0.231 0.588v0.294c0 0.233-0.077 0.429-0.231 0.588s-0.422 0.238-0.805 0.238zm-3.234 7.31h2.464v-4.762h-2.464v-1.232h3.99v5.994h2.31v1.23h-6.3v-1.23zm11.452 1.4c-0.541 0-1.024-0.09-1.449-0.27s-0.784-0.43-1.078-0.75c-0.294-0.33-0.518-0.727-0.672-1.194s-0.231-0.989-0.231-1.568 0.077-1.101 0.231-1.568 0.378-0.863 0.672-1.19 0.653-0.579 1.078-0.756 0.903-0.266 1.435-0.266c0.747 0 1.346 0.159 1.799 0.476s0.791 0.728 1.015 1.232l-1.19 0.644c-0.131-0.336-0.329-0.602-0.595-0.798s-0.609-0.294-1.029-0.294c-0.579 0-1.027 0.175-1.344 0.525s-0.476 0.814-0.476 1.393v1.204c0 0.569 0.159 1.031 0.476 1.386 0.317 0.354 0.775 0.534 1.372 0.534 0.448 0 0.814-0.1 1.099-0.31 0.285-0.205 0.511-0.485 0.679-0.84l1.12 0.686c-0.233 0.504-0.588 0.914-1.064 1.234-0.476 0.33-1.092 0.49-1.848 0.49zm8.288 0c-0.551 0-1.045-0.09-1.484-0.27s-0.807-0.43-1.106-0.75c-0.299-0.33-0.527-0.725-0.686-1.187s-0.238-0.982-0.238-1.561 0.082-1.101 0.245-1.568 0.392-0.866 0.686-1.197 0.651-0.586 1.071-0.763 0.887-0.266 1.4-0.266c0.504 0 0.961 0.086 1.372 0.259s0.761 0.418 1.05 0.735 0.511 0.695 0.665 1.134 0.231 0.924 0.231 1.456v0.574h-5.18v0.238c0 0.569 0.177 1.034 0.532 1.393 0.355 0.363 0.845 0.543 1.47 0.543 0.467 0 0.866-0.1 1.197-0.3 0.331-0.206 0.6-0.474 0.805-0.81l0.952 0.84c-0.243 0.42-0.614 0.77-1.113 1.06s-1.122 0.44-1.869 0.44zm-0.112-6.4c-0.271 0-0.52 0.047-0.749 0.14s-0.425 0.226-0.588 0.399-0.292 0.376-0.385 0.609-0.14 0.49-0.14 0.77v0.098h3.626v-0.14c0-0.569-0.161-1.024-0.483-1.365s-0.749-0.511-1.281-0.511zm25.122 1.171l-2.953 2.954v-2.448h-8.011v-1.011h8.011v-2.448l2.953 2.953z" transform="translate(32.57 96.341) rotate(-90) translate(-32.57 -96.341)"/>
    <path id="NXM-Token-Price" fill="#1EAB89" d="m511.28 51h-1.92l-4.45-6.09v6.09h-1.99v-9.338h2.05l4.32 5.866v-5.866h1.99v9.338zm10.32 0h-2.38l-2.34-3.416-2.35 3.416h-2.37l3.39-4.788-3.18-4.55h2.37l2.14 3.192 2.12-3.192h2.39l-3.18 4.536 3.39 4.802zm11 0h-2v-6.538l-2.63 6.538h-0.87l-2.63-6.538v6.538h-1.99v-9.338h2.79l2.27 5.642 2.26-5.642h2.8v9.338zm9.59 0h-2v-7.588h-2.73v-1.75h7.45v1.75h-2.72v7.588zm7.09 0.168c-2.23 0-3.57-1.624-3.57-3.556 0-1.918 1.34-3.542 3.57-3.542 2.24 0 3.58 1.624 3.58 3.542 0 1.932-1.34 3.556-3.58 3.556zm0-1.582c1.1 0 1.73-0.91 1.73-1.974 0-1.05-0.63-1.96-1.73-1.96-1.11 0-1.72 0.91-1.72 1.96 0 1.064 0.61 1.974 1.72 1.974zm11.51 1.414h-2.23l-1.79-2.604-0.81 0.868v1.736h-1.78v-9.338h1.78v5.586l2.56-3.01h2.18l-2.67 3.066 2.76 3.696zm4.06 0.168c-2.06 0-3.62-1.386-3.62-3.556 0-1.96 1.45-3.542 3.5-3.542 2.02 0 3.39 1.512 3.39 3.724v0.392h-5.02c0.11 0.854 0.79 1.568 1.94 1.568 0.58 0 1.37-0.252 1.81-0.672l0.78 1.148c-0.67 0.616-1.73 0.938-2.78 0.938zm1.55-4.186c-0.04-0.644-0.49-1.498-1.67-1.498-1.1 0-1.58 0.826-1.66 1.498h3.33zm9.35 4.018h-1.78v-4.088c0-0.938-0.49-1.26-1.24-1.26-0.7 0-1.25 0.392-1.54 0.798v4.55h-1.78v-6.762h1.78v0.882c0.43-0.518 1.26-1.05 2.36-1.05 1.49 0 2.2 0.84 2.2 2.156v4.774zm7.38 0h-1.99v-9.338h4.37c2.03 0 3.14 1.372 3.14 3.01 0 1.624-1.12 3.01-3.14 3.01h-2.38v3.318zm2.11-5.068c0.79 0 1.38-0.49 1.38-1.26 0-0.784-0.59-1.26-1.38-1.26h-2.11v2.52h2.11zm6.37 5.068h-1.77v-6.762h1.77v0.924c0.48-0.602 1.32-1.092 2.16-1.092v1.736c-0.13-0.028-0.29-0.042-0.49-0.042-0.59 0-1.37 0.336-1.67 0.77v4.466zm4.15-7.49c-0.58 0-1.07-0.476-1.07-1.064s0.49-1.05 1.07-1.05c0.59 0 1.06 0.462 1.06 1.05s-0.47 1.064-1.06 1.064zm0.89 7.49h-1.77v-6.762h1.77v6.762zm4.92 0.168c-2.09 0-3.59-1.47-3.59-3.556 0-2.072 1.5-3.542 3.59-3.542 1.38 0 2.22 0.602 2.67 1.218l-1.16 1.092c-0.32-0.476-0.81-0.728-1.43-0.728-1.08 0-1.83 0.784-1.83 1.96s0.75 1.974 1.83 1.974c0.62 0 1.11-0.28 1.43-0.728l1.16 1.078c-0.45 0.63-1.29 1.232-2.67 1.232zm7.01 0c-2.06 0-3.61-1.386-3.61-3.556 0-1.96 1.44-3.542 3.5-3.542 2.02 0 3.39 1.512 3.39 3.724v0.392h-5.03c0.11 0.854 0.8 1.568 1.95 1.568 0.57 0 1.37-0.252 1.8-0.672l0.79 1.148c-0.67 0.616-1.74 0.938-2.79 0.938zm1.56-4.186c-0.05-0.644-0.49-1.498-1.67-1.498-1.11 0-1.58 0.826-1.67 1.498h3.34z"/>
   </g>
  </g>
 </g>
</svg>
