<?xml version="1.0" encoding="UTF-8" standalone="no"?>
<svg xmlns="http://www.w3.org/2000/svg" height="483px" width="645px" version="1.1" xmlns:xlink="http://www.w3.org/1999/xlink" viewBox="0 0 645 483"><!-- Generator: Sketch 51.2 (57519) - http://www.bohemiancoding.com/sketch -->
 <title>Graph 9: Spare NXM</title>
 <desc>Created with Sketch.</desc>
 <defs>
  <rect id="path-1" rx="5" height="455.25" width="617.7" y="0" x="8.6479"/>
  <filter id="filter-2" height="111%" width="108.1%" y="-4.4%" x="-3.6%" filterUnits="objectBoundingBox">
   <feOffset in="SourceAlpha" result="shadowOffsetOuter1" dx="2" dy="4"/>
   <feGaussianBlur stdDeviation="7" result="shadowBlurOuter1" in="shadowOffsetOuter1"/>
   <feColorMatrix type="matrix" values="0 0 0 0 0.792156863   0 0 0 0 0.823529412   0 0 0 0 0.878431373  0 0 0 0.7 0" result="shadowMatrixOuter1" in="shadowBlurOuter1"/>
   <feOffset in="SourceAlpha" result="shadowOffsetOuter2" dx="1" dy="1"/>
   <feGaussianBlur stdDeviation="1" result="shadowBlurOuter2" in="shadowOffsetOuter2"/>
   <feColorMatrix type="matrix" values="0 0 0 0 0.784313725   0 0 0 0 0.823529412   0 0 0 0 0.882352941  0 0 0 1 0" result="shadowMatrixOuter2" in="shadowBlurOuter2"/>
   <feMerge>
    <feMergeNode in="shadowMatrixOuter1"/>
    <feMergeNode in="shadowMatrixOuter2"/>
   </feMerge>
  </filter>
  <linearGradient id="linearGradient-3" y1="100%" y2="100%">
   <stop stop-color="#1EAB89" stop-opacity="0" offset="0"/>
   <stop stop-color="#1EAB89" stop-opacity=".2" offset="1"/>
  </linearGradient>
  <rect id="path-4" y="282.27" x="228.53" height="14.825" width="14.825"/>
  <filter id="filter-5" height="734.1%" width="734.1%" y="-269.8%" x="-283.3%" filterUnits="objectBoundingBox">
   <feOffset in="SourceAlpha" result="shadowOffsetOuter1" dx="4" dy="6"/>
   <feGaussianBlur stdDeviation="14" result="shadowBlurOuter1" in="shadowOffsetOuter1"/>
   <feColorMatrix type="matrix" values="0 0 0 0 0   0 0 0 0 0   0 0 0 0 0  0 0 0 0.5 0" result="shadowMatrixOuter1" in="shadowBlurOuter1"/>
   <feOffset in="SourceAlpha" result="shadowOffsetOuter2" dx="1" dy="1"/>
   <feGaussianBlur stdDeviation="1" result="shadowBlurOuter2" in="shadowOffsetOuter2"/>
   <feColorMatrix type="matrix" values="0 0 0 0 0   0 0 0 0 0   0 0 0 0 0  0 0 0 0.5 0" result="shadowMatrixOuter2" in="shadowBlurOuter2"/>
   <feMerge>
    <feMergeNode in="shadowMatrixOuter1"/>
    <feMergeNode in="shadowMatrixOuter2"/>
   </feMerge>
  </filter>
  <circle id="path-6" cy="297.73" cx="8.6479" r="8.6479"/>
  <filter id="filter-7" height="140.5%" width="140.5%" y="-14.5%" x="-14.5%" filterUnits="objectBoundingBox">
   <feOffset in="SourceAlpha" result="shadowOffsetOuter1" dx="1" dy="1"/>
   <feGaussianBlur stdDeviation="1" result="shadowBlurOuter1" in="shadowOffsetOuter1"/>
   <feColorMatrix type="matrix" values="0 0 0 0 0   0 0 0 0 0   0 0 0 0 0  0 0 0 0.5 0" in="shadowBlurOuter1"/>
  </filter>
  <circle id="path-8" cy="8.6479" cx="626.35" r="8.6479"/>
  <filter id="filter-9" height="140.5%" width="140.5%" y="-14.5%" x="-14.5%" filterUnits="objectBoundingBox">
   <feOffset in="SourceAlpha" result="shadowOffsetOuter1" dx="1" dy="1"/>
   <feGaussianBlur stdDeviation="1" result="shadowBlurOuter1" in="shadowOffsetOuter1"/>
   <feColorMatrix type="matrix" values="0 0 0 0 0   0 0 0 0 0   0 0 0 0 0  0 0 0 0.5 0" in="shadowBlurOuter1"/>
  </filter>
  <rect id="path-10" y="0" x="0" height="154.43" width="154.43"/>
  <circle id="path-12" cy="8.6479" cx="8.6479" r="8.6479"/>
  <filter id="filter-13" height="140.5%" width="140.5%" y="-14.5%" x="-14.5%" filterUnits="objectBoundingBox">
   <feOffset in="SourceAlpha" result="shadowOffsetOuter1" dx="1" dy="1"/>
   <feGaussianBlur stdDeviation="1" result="shadowBlurOuter1" in="shadowOffsetOuter1"/>
   <feColorMatrix type="matrix" values="0 0 0 0 0   0 0 0 0 0   0 0 0 0 0  0 0 0 0.5 0" in="shadowBlurOuter1"/>
  </filter>
  <circle id="path-14" cy="5.2505" cx="5.2505" r="5.2505"/>
  <filter id="filter-15" height="166.7%" width="166.7%" y="-23.8%" x="-23.8%" filterUnits="objectBoundingBox">
   <feOffset in="SourceAlpha" result="shadowOffsetOuter1" dx="1" dy="1"/>
   <feGaussianBlur stdDeviation="1" result="shadowBlurOuter1" in="shadowOffsetOuter1"/>
   <feColorMatrix type="matrix" values="0 0 0 0 0   0 0 0 0 0   0 0 0 0 0  0 0 0 0.5 0" in="shadowBlurOuter1"/>
  </filter>
 </defs>
 <g id="Page-2" fill-rule="evenodd" fill="none">
  <g id="Token-Model-Page---Outline-Text-for-svg-output" transform="translate(-637 -5620)">
   <g id="Graph-9:-Spare-NXM" transform="translate(640 5630)">
    <g id="Rectangle">
     <use filter="url(#filter-2)" xlink:href="#path-1" fill="black"/>
     <use xlink:href="#path-1" fill-rule="evenodd" fill="#FFFFFF"/>
    </g>
    <path id="Line-Copy-4" stroke="#E5E5E5" stroke-width=".61770" stroke-linecap="square" d="m9.2656 301.44h617.7"/>
    <path id="Line-Copy-3" stroke="#E5E5E5" stroke-width=".61770" stroke-linecap="square" d="m10.569 238.12h616.4"/>
    <path id="Line-Copy-2" stroke="#E5E5E5" stroke-width=".61770" stroke-linecap="square" d="m8.339 175.12h618.63"/>
    <path id="Line-Copy" stroke="#E5E5E5" stroke-width=".61770" stroke-linecap="square" d="m8.339 112.42h618.63"/>
    <path id="Line" stroke="#E5E5E5" stroke-width=".61770" stroke-linecap="square" d="m8.339 49.416h618.63"/>
    <rect id="Rectangle-4" height="105.01" width="255.11" y="187.16" x="273.64" fill="#fff"/>
    <path id="MCR" fill="#5B6069" d="m236.54 365.33l0.15-3.62h-0.17l-2.41 6.66-2.41-6.66h-0.17l0.15 3.62v5.76h-2.41v-12.93h3.28l1.6 4.35h0.15l1.59-4.35h3.06v12.93h-2.41v-5.76zm8.99 5.98c-1.73 0-3.02-0.58-3.85-1.75-0.83-1.16-1.25-2.81-1.25-4.94 0-2.12 0.42-3.77 1.25-4.93 0.83-1.17 2.12-1.76 3.85-1.76 0.66 0 1.25 0.09 1.76 0.27 0.52 0.18 0.96 0.43 1.33 0.75s0.68 0.71 0.92 1.17 0.43 0.97 0.56 1.54l-2.59 0.63c-0.08-0.31-0.16-0.59-0.26-0.85s-0.23-0.49-0.38-0.67c-0.16-0.19-0.35-0.33-0.58-0.44-0.22-0.1-0.5-0.15-0.82-0.15-0.75 0-1.29 0.29-1.6 0.88-0.32 0.58-0.48 1.4-0.48 2.43v2.26c0 1.04 0.16 1.85 0.48 2.44 0.31 0.59 0.85 0.88 1.6 0.88 0.64 0 1.11-0.2 1.4-0.59 0.29-0.4 0.5-0.9 0.64-1.52l2.59 0.63c-0.13 0.57-0.32 1.08-0.56 1.54-0.24 0.45-0.55 0.85-0.92 1.17-0.37 0.33-0.81 0.58-1.33 0.75-0.51 0.18-1.1 0.26-1.76 0.26zm9.41-0.22h-2.74v-12.93h5c0.63 0 1.19 0.09 1.69 0.28 0.49 0.2 0.91 0.47 1.25 0.83s0.59 0.79 0.77 1.3c0.17 0.5 0.26 1.07 0.26 1.7 0 0.91-0.2 1.7-0.6 2.35-0.39 0.66-0.96 1.09-1.68 1.3l2.53 5.17h-3.03l-2.17-4.8h-1.28v4.8zm1.59-6.95c0.66 0 1.11-0.12 1.36-0.37 0.26-0.25 0.38-0.65 0.38-1.22v-0.56c0-0.57-0.12-0.97-0.38-1.22-0.25-0.25-0.7-0.37-1.36-0.37h-1.59v3.74h1.59z"/>
    <g id="Group-2" transform="translate(0 36.445)">
     <g id="Group" transform="translate(8.6479 .61770)">
      <path id="Path-2" fill="url(#linearGradient-3)" d="m0.6177 298.04c86.756-1.52 148.32-3.37 184.69-5.56 52.6-3.16 99.76-6 138.37-13.28 187.78-39.32 285.58-128.27 293.41-266.85l1.23 315.65h-617.7l-0.0023-29.96z"/>
      <path id="Combined-Shape" fill="#1EAB89" d="m1.5987e-14 295.83l236.58-6.44c244.61-22.44 371.04-118.78 379.27-289.01l1.85-0.00021v24.025c-19.85 158.12-146.89 247.36-381.12 267.76l-236.58 7.05 1.6272e-14 -3.38z"/>
      <g id="Rectangle-2" transform="translate(235.94 289.69) rotate(45) translate(-235.94 -289.69)">
       <use filter="url(#filter-5)" xlink:href="#path-4" fill="black"/>
       <use xlink:href="#path-4" fill-rule="evenodd" fill="#1EAB89"/>
      </g>
      <rect id="Rectangle-2" transform="translate(235.95 289.69) rotate(45) translate(-235.95 -289.69)" height="7.8428" width="7.8428" y="285.77" x="232.03" fill="#58CD9E"/>
     </g>
     <g id="Oval">
      <use filter="url(#filter-7)" xlink:href="#path-6" fill="black"/>
      <use xlink:href="#path-6" fill-rule="evenodd" fill="#1EAB89"/>
     </g>
     <g id="Oval">
      <use filter="url(#filter-9)" xlink:href="#path-8" fill="black"/>
      <use xlink:href="#path-8" fill-rule="evenodd" fill="#1EAB89"/>
     </g>
     <circle id="Oval-2" cy="297.73" cx="8.6479" r="4.9416" fill="#58CD9E"/>
     <path id="Triangle" fill="#58CD9E" d="m626.84 4.673l3.71 5.358c0.39 0.561 0.25 1.331-0.31 1.719-0.21 0.143-0.45 0.22-0.7 0.22h-6.41c-0.68 0-1.23-0.554-1.23-1.236 0-0.251 0.07-0.496 0.22-0.703l3.71-5.358c0.19-0.2805 0.57-0.3505 0.86-0.1563 0.06 0.0423 0.11 0.0952 0.15 0.1563z" transform="translate(626.33 7.9545) rotate(3) translate(-626.33 -7.9545)"/>
    </g>
    <g id="Combined-Shape" transform="translate(416.95 130.34)">
     <mask id="mask-11" fill="white">
      <use xlink:href="#path-10"/>
     </mask>
     <path mask="url(#mask-11)" d="m-428.07 187.55c154.57 2.05 269.98-5.82 346.22-23.6 79.778-18.92 141.86-47.85 186.24-86.798v3.08c-44.868 38.948-106.95 67.788-186.24 86.498-127.29 28.98-296.21 22.99-346.22 24.03v-3.2z" fill="#58CD9E"/>
    </g>
    <g id="Group" transform="translate(410.74 271.76) rotate(253) translate(-8.65 -8.65)">
     <g id="Oval">
      <use filter="url(#filter-13)" xlink:href="#path-12" fill="black"/>
      <use xlink:href="#path-12" fill-rule="evenodd" fill="#1EAB89"/>
     </g>
     <path id="Triangle" fill="#58CD9E" d="m9.1372 4.673l3.7098 5.358c0.388 0.561 0.248 1.331-0.313 1.719-0.207 0.143-0.452 0.22-0.703 0.22h-6.4031c-0.6823 0-1.2355-0.554-1.2355-1.236 0-0.251 0.0767-0.496 0.2197-0.703l3.7094-5.358c0.1941-0.2805 0.5789-0.3505 0.8594-0.1563 0.0611 0.0423 0.114 0.0952 0.1563 0.1563z" transform="translate(8.6293 7.9545) rotate(3) translate(-8.6293 -7.9545)"/>
    </g>
    <g id="Group" transform="translate(521.35 208.53) rotate(20) translate(-5.56 -5.56)">
     <g id="Oval">
      <use filter="url(#filter-15)" xlink:href="#path-14" fill="black"/>
      <use xlink:href="#path-14" fill-rule="evenodd" fill="#1EAB89"/>
     </g>
    </g>
    <path id="Redemptions-decrease" fill="#1EAB89" d="m320.99 224.25h-1.09v-9.05h3.3c0.84 0 1.48 0.23 1.92 0.69s0.66 1.1 0.66 1.92c0 0.73-0.19 1.32-0.57 1.76s-0.94 0.7-1.66 0.77l2.31 3.91h-1.22l-2.21-3.86h-1.44v3.86zm2.18-4.78c0.46 0 0.82-0.12 1.07-0.35 0.26-0.22 0.38-0.55 0.38-0.97v-0.68c0-0.42-0.12-0.75-0.38-0.98-0.25-0.23-0.61-0.34-1.07-0.34h-2.18v3.32h2.18zm7.36 4.94c-0.49 0-0.92-0.08-1.31-0.25-0.38-0.16-0.71-0.4-0.98-0.7-0.28-0.31-0.48-0.68-0.63-1.11-0.15-0.42-0.22-0.9-0.22-1.43 0-0.54 0.07-1.02 0.22-1.45 0.16-0.43 0.37-0.8 0.63-1.11 0.27-0.31 0.59-0.54 0.97-0.71 0.38-0.16 0.79-0.24 1.25-0.24 0.45 0 0.86 0.08 1.23 0.24 0.37 0.17 0.68 0.39 0.94 0.68s0.46 0.64 0.59 1.03c0.14 0.4 0.21 0.84 0.21 1.31v0.5h-4.95v0.31c0 0.29 0.04 0.57 0.14 0.82s0.23 0.46 0.41 0.64c0.18 0.19 0.39 0.33 0.65 0.43 0.25 0.1 0.54 0.15 0.85 0.15 0.45 0 0.84-0.11 1.16-0.32 0.33-0.2 0.58-0.49 0.76-0.85l0.76 0.52c-0.2 0.45-0.53 0.82-0.99 1.11s-1.03 0.43-1.69 0.43zm-0.07-6.15c-0.28 0-0.55 0.05-0.79 0.16-0.24 0.1-0.45 0.24-0.63 0.43-0.18 0.18-0.31 0.39-0.41 0.64-0.1 0.24-0.15 0.51-0.15 0.81v0.09h3.84v-0.14c0-0.3-0.05-0.57-0.14-0.81s-0.22-0.45-0.38-0.63c-0.16-0.17-0.35-0.31-0.58-0.41-0.23-0.09-0.48-0.14-0.76-0.14zm9.35 4.91h-0.05c-0.43 0.83-1.12 1.24-2.06 1.24-0.82 0-1.46-0.31-1.93-0.92-0.46-0.61-0.69-1.47-0.69-2.58s0.23-1.97 0.69-2.58c0.47-0.62 1.11-0.92 1.93-0.92 0.94 0 1.63 0.41 2.06 1.24h0.05v-3.99h1.04v9.59h-1.04v-1.08zm-1.71 0.32c0.24 0 0.46-0.03 0.66-0.09 0.21-0.06 0.39-0.15 0.55-0.27 0.15-0.11 0.28-0.26 0.37-0.43 0.09-0.16 0.13-0.36 0.13-0.59v-2.41c0-0.22-0.04-0.42-0.13-0.59s-0.22-0.31-0.37-0.43c-0.16-0.11-0.34-0.2-0.55-0.26-0.2-0.06-0.42-0.09-0.66-0.09-0.6 0-1.07 0.18-1.41 0.55-0.33 0.37-0.49 0.85-0.49 1.46v1.14c0 0.6 0.16 1.09 0.49 1.46 0.34 0.37 0.81 0.55 1.41 0.55zm7.99 0.92c-0.48 0-0.92-0.08-1.3-0.25-0.39-0.16-0.71-0.4-0.99-0.7-0.27-0.31-0.48-0.68-0.63-1.11-0.14-0.42-0.22-0.9-0.22-1.43 0-0.54 0.08-1.02 0.23-1.45s0.36-0.8 0.63-1.11 0.59-0.54 0.97-0.71c0.37-0.16 0.79-0.24 1.25-0.24 0.45 0 0.86 0.08 1.22 0.24 0.37 0.17 0.68 0.39 0.94 0.68s0.46 0.64 0.6 1.03c0.14 0.4 0.21 0.84 0.21 1.31v0.5h-4.96v0.31c0 0.29 0.05 0.57 0.15 0.82 0.09 0.25 0.23 0.46 0.4 0.64 0.18 0.19 0.4 0.33 0.65 0.43 0.26 0.1 0.54 0.15 0.85 0.15 0.45 0 0.84-0.11 1.17-0.32 0.33-0.2 0.58-0.49 0.75-0.85l0.77 0.52c-0.2 0.45-0.53 0.82-0.99 1.11-0.47 0.29-1.03 0.43-1.7 0.43zm-0.06-6.15c-0.29 0-0.55 0.05-0.79 0.16-0.25 0.1-0.46 0.24-0.63 0.43-0.18 0.18-0.32 0.39-0.42 0.64-0.1 0.24-0.15 0.51-0.15 0.81v0.09h3.84v-0.14c0-0.3-0.04-0.57-0.13-0.81s-0.22-0.45-0.38-0.63c-0.16-0.17-0.35-0.31-0.58-0.41-0.23-0.09-0.49-0.14-0.76-0.14zm4.54 5.99v-6.69h0.96v0.78h0.05c0.1-0.26 0.25-0.48 0.44-0.66s0.47-0.27 0.84-0.27c0.39 0 0.68 0.09 0.87 0.29 0.19 0.19 0.31 0.45 0.35 0.76h0.04c0.12-0.31 0.3-0.56 0.52-0.76 0.23-0.19 0.54-0.29 0.94-0.29 0.54 0 0.91 0.19 1.09 0.57 0.19 0.38 0.28 0.92 0.28 1.63v4.64h-0.96v-4.47c0-0.57-0.06-0.97-0.17-1.19-0.12-0.22-0.34-0.33-0.65-0.33-0.27 0-0.5 0.09-0.67 0.27s-0.26 0.45-0.26 0.81v4.91h-0.96v-4.47c0-0.57-0.06-0.97-0.18-1.19-0.11-0.22-0.32-0.33-0.62-0.33-0.28 0-0.51 0.09-0.69 0.27-0.17 0.18-0.26 0.45-0.26 0.81v4.91h-0.96zm8.31-6.69h1.04v1.09h0.05c0.44-0.83 1.12-1.24 2.07-1.24 0.82 0 1.46 0.3 1.92 0.92 0.46 0.61 0.7 1.47 0.7 2.58s-0.24 1.97-0.7 2.58-1.1 0.92-1.92 0.92c-0.95 0-1.63-0.41-2.07-1.24h-0.05v3.68h-1.04v-9.29zm2.75 5.93c0.61 0 1.08-0.18 1.41-0.55s0.5-0.86 0.5-1.46v-1.14c0-0.61-0.17-1.09-0.5-1.46s-0.8-0.55-1.41-0.55c-0.23 0-0.45 0.03-0.66 0.09s-0.39 0.15-0.54 0.26c-0.16 0.12-0.28 0.26-0.37 0.43s-0.14 0.37-0.14 0.59v2.41c0 0.23 0.05 0.43 0.14 0.59 0.09 0.17 0.21 0.32 0.37 0.43 0.15 0.12 0.33 0.21 0.54 0.27s0.43 0.09 0.66 0.09zm8.02 0.76c-0.51 0-0.88-0.14-1.12-0.42-0.24-0.29-0.36-0.66-0.36-1.11v-4.28h-2.23v-0.88h1.66c0.22 0 0.38-0.04 0.47-0.13 0.09-0.1 0.14-0.25 0.14-0.48v-1.75h1v2.36h3.05v0.88h-3.05v4.93h3.05v0.88h-2.61zm7.87-8.17c-0.3 0-0.51-0.06-0.63-0.19-0.12-0.12-0.18-0.28-0.18-0.47v-0.21c0-0.19 0.06-0.34 0.18-0.47s0.33-0.19 0.63-0.19c0.31 0 0.52 0.06 0.64 0.19s0.18 0.28 0.18 0.47v0.21c0 0.19-0.06 0.35-0.18 0.47-0.12 0.13-0.33 0.19-0.64 0.19zm-2.93 7.29h2.41v-4.93h-2.41v-0.88h3.45v5.81h2.26v0.88h-5.71v-0.88zm10.3 1.04c-0.47 0-0.89-0.08-1.26-0.25-0.38-0.16-0.7-0.4-0.96-0.7-0.27-0.31-0.47-0.68-0.61-1.11-0.13-0.42-0.2-0.91-0.2-1.44s0.07-1.01 0.2-1.44c0.14-0.43 0.34-0.8 0.61-1.11 0.26-0.31 0.58-0.54 0.96-0.71 0.37-0.16 0.79-0.24 1.26-0.24s0.89 0.08 1.27 0.24c0.37 0.17 0.69 0.4 0.96 0.71 0.26 0.31 0.46 0.68 0.6 1.11s0.21 0.91 0.21 1.44-0.07 1.02-0.21 1.44c-0.14 0.43-0.34 0.8-0.6 1.11-0.27 0.3-0.59 0.54-0.96 0.7-0.38 0.17-0.8 0.25-1.27 0.25zm0-0.89c0.58 0 1.05-0.18 1.4-0.52 0.36-0.35 0.53-0.89 0.53-1.61v-0.96c0-0.73-0.17-1.26-0.53-1.61-0.35-0.35-0.82-0.52-1.4-0.52s-1.04 0.17-1.4 0.52c-0.35 0.35-0.53 0.88-0.53 1.61v0.96c0 0.72 0.18 1.26 0.53 1.61 0.36 0.34 0.82 0.52 1.4 0.52zm5.16 0.73v-6.69h1.04v1.09h0.05c0.07-0.16 0.16-0.32 0.26-0.47 0.11-0.15 0.23-0.29 0.39-0.4 0.15-0.11 0.33-0.2 0.53-0.27 0.21-0.07 0.45-0.1 0.73-0.1 0.7 0 1.26 0.22 1.69 0.66 0.42 0.45 0.63 1.08 0.63 1.89v4.29h-1.03v-4.11c0-0.61-0.14-1.07-0.41-1.37-0.27-0.29-0.66-0.44-1.18-0.44-0.21 0-0.41 0.02-0.61 0.07-0.2 0.06-0.37 0.13-0.53 0.24-0.15 0.1-0.28 0.24-0.38 0.4-0.09 0.16-0.14 0.35-0.14 0.57v4.64h-1.04zm10.49 0.16c-0.7 0-1.31-0.12-1.81-0.36-0.51-0.23-0.94-0.55-1.29-0.95l0.7-0.61c0.32 0.34 0.67 0.6 1.05 0.78s0.84 0.27 1.37 0.27c0.52 0 0.95-0.09 1.28-0.28 0.33-0.18 0.5-0.48 0.5-0.87 0-0.18-0.03-0.32-0.1-0.44-0.06-0.11-0.15-0.21-0.26-0.28-0.12-0.07-0.24-0.12-0.38-0.16s-0.29-0.07-0.44-0.1l-1.05-0.15c-0.24-0.04-0.49-0.08-0.76-0.14s-0.52-0.16-0.75-0.3c-0.22-0.13-0.41-0.31-0.56-0.53-0.15-0.23-0.23-0.52-0.23-0.89 0-0.33 0.07-0.63 0.2-0.87 0.14-0.25 0.32-0.46 0.57-0.62 0.24-0.17 0.52-0.3 0.85-0.38s0.69-0.12 1.08-0.12c0.6 0 1.13 0.09 1.58 0.28 0.44 0.19 0.82 0.46 1.14 0.79l-0.67 0.64c-0.08-0.1-0.18-0.19-0.29-0.29-0.12-0.1-0.26-0.19-0.43-0.28-0.17-0.08-0.37-0.15-0.59-0.2-0.23-0.05-0.49-0.08-0.78-0.08-0.53 0-0.93 0.1-1.21 0.28s-0.42 0.44-0.42 0.79c0 0.17 0.03 0.32 0.09 0.43 0.07 0.12 0.16 0.21 0.27 0.28s0.24 0.13 0.38 0.16c0.14 0.04 0.29 0.08 0.44 0.1l1.05 0.16c0.24 0.03 0.49 0.08 0.76 0.14s0.52 0.16 0.74 0.29c0.23 0.14 0.42 0.32 0.57 0.54s0.22 0.52 0.22 0.88c0 0.67-0.25 1.18-0.77 1.55-0.51 0.36-1.2 0.54-2.05 0.54zm17.11-1.24h-0.06c-0.43 0.83-1.12 1.24-2.06 1.24-0.82 0-1.46-0.31-1.93-0.92-0.46-0.61-0.69-1.47-0.69-2.58s0.23-1.97 0.69-2.58c0.47-0.62 1.11-0.92 1.93-0.92 0.94 0 1.63 0.41 2.06 1.24h0.06v-3.99h1.03v9.59h-1.03v-1.08zm-1.72 0.32c0.24 0 0.46-0.03 0.66-0.09 0.21-0.06 0.39-0.15 0.55-0.27 0.16-0.11 0.28-0.26 0.37-0.43 0.09-0.16 0.14-0.36 0.14-0.59v-2.41c0-0.22-0.05-0.42-0.14-0.59s-0.21-0.31-0.37-0.43c-0.16-0.11-0.34-0.2-0.55-0.26-0.2-0.06-0.42-0.09-0.66-0.09-0.6 0-1.07 0.18-1.4 0.55-0.34 0.37-0.5 0.85-0.5 1.46v1.14c0 0.6 0.16 1.09 0.5 1.46 0.33 0.37 0.8 0.55 1.4 0.55zm7.99 0.92c-0.48 0-0.92-0.08-1.3-0.25-0.38-0.16-0.71-0.4-0.99-0.7-0.27-0.31-0.48-0.68-0.63-1.11-0.14-0.42-0.22-0.9-0.22-1.43 0-0.54 0.08-1.02 0.23-1.45s0.36-0.8 0.63-1.11 0.59-0.54 0.97-0.71c0.37-0.16 0.79-0.24 1.25-0.24 0.45 0 0.86 0.08 1.22 0.24 0.37 0.17 0.69 0.39 0.95 0.68 0.25 0.29 0.45 0.64 0.59 1.03 0.14 0.4 0.21 0.84 0.21 1.31v0.5h-4.96v0.31c0 0.29 0.05 0.57 0.15 0.82 0.09 0.25 0.23 0.46 0.41 0.64 0.17 0.19 0.39 0.33 0.64 0.43 0.26 0.1 0.54 0.15 0.85 0.15 0.45 0 0.84-0.11 1.17-0.32 0.33-0.2 0.58-0.49 0.75-0.85l0.77 0.52c-0.2 0.45-0.53 0.82-0.99 1.11-0.47 0.29-1.03 0.43-1.7 0.43zm-0.06-6.15c-0.29 0-0.55 0.05-0.79 0.16-0.24 0.1-0.45 0.24-0.63 0.43-0.18 0.18-0.32 0.39-0.42 0.64-0.1 0.24-0.15 0.51-0.15 0.81v0.09h3.84v-0.14c0-0.3-0.04-0.57-0.13-0.81s-0.22-0.45-0.38-0.63c-0.16-0.17-0.35-0.31-0.58-0.41-0.23-0.09-0.48-0.14-0.76-0.14zm7.96 6.15c-0.48 0-0.91-0.08-1.29-0.25-0.37-0.17-0.69-0.41-0.95-0.71s-0.46-0.67-0.59-1.1-0.2-0.91-0.2-1.44 0.07-1.01 0.21-1.44c0.13-0.43 0.33-0.8 0.59-1.11s0.58-0.54 0.95-0.71c0.37-0.16 0.79-0.24 1.27-0.24 0.65 0 1.18 0.14 1.58 0.42 0.41 0.29 0.71 0.66 0.9 1.12l-0.83 0.44c-0.12-0.35-0.32-0.61-0.61-0.8-0.28-0.19-0.62-0.29-1.04-0.29-0.3 0-0.57 0.05-0.81 0.15s-0.44 0.24-0.6 0.42c-0.17 0.18-0.29 0.4-0.37 0.65-0.09 0.25-0.13 0.52-0.13 0.82v1.14c0 0.29 0.04 0.57 0.13 0.82 0.08 0.25 0.2 0.46 0.37 0.64 0.16 0.19 0.36 0.33 0.61 0.43 0.24 0.1 0.52 0.15 0.83 0.15 0.45 0 0.82-0.11 1.11-0.32 0.3-0.2 0.53-0.49 0.7-0.85l0.74 0.5c-0.2 0.45-0.51 0.83-0.93 1.12s-0.96 0.44-1.64 0.44zm4.66-1.04h1.96v-4.93h-1.96v-0.88h3v1.69h0.06c0.14-0.53 0.4-0.94 0.79-1.24 0.38-0.3 0.87-0.45 1.47-0.45h0.93v1.04h-1.26c-0.59 0-1.07 0.17-1.44 0.52-0.37 0.34-0.55 0.8-0.55 1.36v2.89h2.59v0.88h-5.59v-0.88zm10.79 1.04c-0.48 0-0.92-0.08-1.3-0.25-0.39-0.16-0.71-0.4-0.99-0.7-0.27-0.31-0.48-0.68-0.63-1.11-0.14-0.42-0.22-0.9-0.22-1.43 0-0.54 0.08-1.02 0.23-1.45s0.36-0.8 0.63-1.11 0.59-0.54 0.97-0.71c0.37-0.16 0.79-0.24 1.25-0.24 0.45 0 0.86 0.08 1.22 0.24 0.37 0.17 0.68 0.39 0.94 0.68s0.46 0.64 0.6 1.03c0.14 0.4 0.21 0.84 0.21 1.31v0.5h-4.96v0.31c0 0.29 0.05 0.57 0.15 0.82 0.09 0.25 0.23 0.46 0.4 0.64 0.18 0.19 0.4 0.33 0.65 0.43 0.26 0.1 0.54 0.15 0.85 0.15 0.45 0 0.84-0.11 1.17-0.32 0.33-0.2 0.58-0.49 0.75-0.85l0.77 0.52c-0.2 0.45-0.53 0.82-0.99 1.11-0.47 0.29-1.03 0.43-1.7 0.43zm-0.06-6.15c-0.29 0-0.55 0.05-0.79 0.16-0.25 0.1-0.46 0.24-0.63 0.43-0.18 0.18-0.32 0.39-0.42 0.64-0.1 0.24-0.15 0.51-0.15 0.81v0.09h3.84v-0.14c0-0.3-0.04-0.57-0.13-0.81s-0.22-0.45-0.38-0.63c-0.16-0.17-0.35-0.31-0.58-0.41-0.23-0.09-0.49-0.14-0.76-0.14zm10.26 5.99c-0.41 0-0.7-0.1-0.87-0.31-0.17-0.2-0.28-0.46-0.32-0.77h-0.07c-0.15 0.38-0.38 0.69-0.71 0.91-0.32 0.22-0.76 0.33-1.3 0.33-0.7 0-1.26-0.18-1.67-0.54-0.42-0.37-0.63-0.86-0.63-1.5 0-0.62 0.23-1.1 0.68-1.44 0.46-0.33 1.19-0.5 2.2-0.5h1.43v-0.66c0-0.5-0.14-0.87-0.41-1.11-0.28-0.25-0.67-0.37-1.19-0.37-0.44 0-0.81 0.09-1.1 0.26-0.28 0.18-0.51 0.42-0.69 0.72l-0.7-0.52c0.09-0.17 0.21-0.34 0.35-0.5 0.15-0.17 0.33-0.31 0.55-0.44 0.22-0.12 0.46-0.22 0.74-0.29 0.28-0.08 0.58-0.11 0.92-0.11 0.79 0 1.41 0.19 1.87 0.59 0.47 0.4 0.7 0.95 0.7 1.66v3.69h0.93v0.9h-0.71zm-3.09-0.71c0.27 0 0.51-0.03 0.73-0.1 0.22-0.06 0.42-0.15 0.58-0.26 0.17-0.1 0.29-0.23 0.38-0.38 0.1-0.16 0.14-0.32 0.14-0.49v-1.1h-1.43c-0.62 0-1.07 0.08-1.36 0.26-0.28 0.17-0.43 0.42-0.43 0.75v0.27c0 0.35 0.13 0.61 0.37 0.79 0.25 0.17 0.59 0.26 1.02 0.26zm8.42 0.87c-0.7 0-1.3-0.12-1.81-0.36-0.51-0.23-0.94-0.55-1.29-0.95l0.7-0.61c0.32 0.34 0.67 0.6 1.05 0.78s0.84 0.27 1.38 0.27c0.51 0 0.94-0.09 1.27-0.28 0.34-0.18 0.5-0.48 0.5-0.87 0-0.18-0.03-0.32-0.09-0.44-0.07-0.11-0.16-0.21-0.27-0.28s-0.24-0.12-0.38-0.16c-0.13-0.04-0.28-0.07-0.44-0.1l-1.05-0.15c-0.23-0.04-0.48-0.08-0.76-0.14-0.27-0.06-0.52-0.16-0.74-0.3-0.23-0.13-0.42-0.31-0.57-0.53-0.15-0.23-0.22-0.52-0.22-0.89 0-0.33 0.06-0.63 0.2-0.87 0.13-0.25 0.32-0.46 0.56-0.62 0.24-0.17 0.53-0.3 0.86-0.38s0.69-0.12 1.07-0.12c0.61 0 1.13 0.09 1.58 0.28s0.83 0.46 1.15 0.79l-0.68 0.64c-0.07-0.1-0.17-0.19-0.29-0.29-0.11-0.1-0.26-0.19-0.43-0.28-0.16-0.08-0.36-0.15-0.59-0.2-0.22-0.05-0.48-0.08-0.77-0.08-0.53 0-0.94 0.1-1.22 0.28s-0.42 0.44-0.42 0.79c0 0.17 0.03 0.32 0.1 0.43 0.06 0.12 0.15 0.21 0.26 0.28 0.12 0.07 0.24 0.13 0.39 0.16 0.14 0.04 0.28 0.08 0.43 0.1l1.05 0.16c0.24 0.03 0.5 0.08 0.77 0.14s0.51 0.16 0.74 0.29c0.22 0.14 0.41 0.32 0.56 0.54s0.23 0.52 0.23 0.88c0 0.67-0.26 1.18-0.77 1.55-0.52 0.36-1.2 0.54-2.06 0.54zm7.82 0c-0.48 0-0.92-0.08-1.3-0.25-0.39-0.16-0.72-0.4-0.99-0.7-0.27-0.31-0.48-0.68-0.63-1.11-0.14-0.42-0.22-0.9-0.22-1.43 0-0.54 0.08-1.02 0.23-1.45s0.36-0.8 0.63-1.11 0.59-0.54 0.97-0.71c0.37-0.16 0.79-0.24 1.25-0.24 0.45 0 0.86 0.08 1.22 0.24 0.37 0.17 0.68 0.39 0.94 0.68s0.46 0.64 0.6 1.03c0.14 0.4 0.21 0.84 0.21 1.31v0.5h-4.96v0.31c0 0.29 0.05 0.57 0.15 0.82 0.09 0.25 0.23 0.46 0.4 0.64 0.18 0.19 0.4 0.33 0.65 0.43 0.26 0.1 0.54 0.15 0.85 0.15 0.45 0 0.84-0.11 1.17-0.32 0.33-0.2 0.58-0.49 0.75-0.85l0.77 0.52c-0.2 0.45-0.53 0.82-1 1.11-0.46 0.29-1.02 0.43-1.69 0.43zm-0.06-6.15c-0.29 0-0.55 0.05-0.79 0.16-0.25 0.1-0.46 0.24-0.63 0.43-0.18 0.18-0.32 0.39-0.42 0.64-0.1 0.24-0.15 0.51-0.15 0.81v0.09h3.84v-0.14c0-0.3-0.04-0.57-0.13-0.81s-0.22-0.45-0.38-0.63c-0.16-0.17-0.35-0.31-0.58-0.41-0.23-0.09-0.49-0.14-0.76-0.14zm-147.61 22.99c-0.51 0-0.88-0.14-1.12-0.42-0.24-0.29-0.36-0.66-0.36-1.11v-4.28h-2.23v-0.88h1.66c0.23 0 0.38-0.04 0.48-0.13 0.09-0.1 0.13-0.25 0.13-0.48v-1.75h1v2.36h3.05v0.88h-3.05v4.93h3.05v0.88h-2.61zm4.84-9.59h1.04v3.99h0.05c0.07-0.16 0.16-0.32 0.26-0.47s0.23-0.29 0.38-0.4 0.33-0.2 0.54-0.27 0.45-0.1 0.73-0.1c0.7 0 1.26 0.22 1.68 0.66 0.43 0.45 0.64 1.08 0.64 1.89v4.29h-1.04v-4.11c0-0.61-0.13-1.07-0.4-1.37-0.27-0.29-0.66-0.44-1.18-0.44-0.21 0-0.41 0.02-0.61 0.07-0.2 0.06-0.38 0.13-0.53 0.24-0.16 0.1-0.28 0.24-0.38 0.4-0.09 0.16-0.14 0.35-0.14 0.57v4.64h-1.04v-9.59zm10.52 9.75c-0.48 0-0.92-0.08-1.3-0.25-0.39-0.16-0.72-0.4-0.99-0.7-0.27-0.31-0.48-0.68-0.63-1.11-0.15-0.42-0.22-0.9-0.22-1.43 0-0.54 0.08-1.02 0.23-1.45s0.36-0.8 0.63-1.11c0.26-0.31 0.59-0.54 0.96-0.71 0.38-0.16 0.8-0.24 1.25-0.24s0.86 0.08 1.23 0.24c0.37 0.17 0.68 0.39 0.94 0.68s0.46 0.64 0.6 1.03c0.14 0.4 0.21 0.84 0.21 1.31v0.5h-4.96v0.31c0 0.29 0.05 0.57 0.14 0.82 0.1 0.25 0.23 0.46 0.41 0.64 0.18 0.19 0.4 0.33 0.65 0.43 0.26 0.1 0.54 0.15 0.85 0.15 0.45 0 0.84-0.11 1.17-0.32 0.33-0.2 0.58-0.49 0.75-0.85l0.77 0.52c-0.2 0.45-0.53 0.82-1 1.11-0.46 0.29-1.02 0.43-1.69 0.43zm-0.07-6.15c-0.28 0-0.54 0.05-0.79 0.16-0.24 0.1-0.45 0.24-0.63 0.43-0.17 0.18-0.31 0.39-0.41 0.64-0.1 0.24-0.15 0.51-0.15 0.81v0.09h3.84v-0.14c0-0.3-0.05-0.57-0.14-0.81s-0.21-0.45-0.37-0.63c-0.16-0.17-0.36-0.31-0.59-0.41-0.23-0.09-0.48-0.14-0.76-0.14zm15.84 5.99c-0.51 0-0.88-0.14-1.12-0.42-0.24-0.29-0.36-0.66-0.36-1.11v-4.28h-2.23v-0.88h1.66c0.23 0 0.39-0.04 0.48-0.13 0.09-0.1 0.13-0.25 0.13-0.48v-1.75h1v2.36h3.05v0.88h-3.05v4.93h3.05v0.88h-2.61zm7.46 0.16c-0.46 0-0.89-0.08-1.26-0.25-0.38-0.16-0.7-0.4-0.96-0.7-0.27-0.31-0.47-0.68-0.61-1.11-0.13-0.42-0.2-0.91-0.2-1.44s0.07-1.01 0.2-1.44c0.14-0.43 0.34-0.8 0.61-1.11 0.26-0.31 0.58-0.54 0.96-0.71 0.37-0.16 0.8-0.24 1.26-0.24 0.47 0 0.89 0.08 1.27 0.24 0.37 0.17 0.69 0.4 0.96 0.71 0.26 0.31 0.46 0.68 0.6 1.11s0.21 0.91 0.21 1.44-0.07 1.02-0.21 1.44c-0.14 0.43-0.34 0.8-0.6 1.11-0.27 0.3-0.59 0.54-0.96 0.7-0.38 0.17-0.8 0.25-1.27 0.25zm0-0.89c0.58 0 1.05-0.18 1.4-0.52 0.36-0.35 0.54-0.89 0.54-1.61v-0.96c0-0.73-0.18-1.26-0.54-1.61-0.35-0.35-0.82-0.52-1.4-0.52s-1.04 0.17-1.4 0.52c-0.35 0.35-0.53 0.88-0.53 1.61v0.96c0 0.72 0.18 1.26 0.53 1.61 0.36 0.34 0.82 0.52 1.4 0.52zm5.26-8.86h1.03v6.05h0.06l1.16-1.1 2.23-2.05h1.28l-2.78 2.62 3.1 4.07h-1.28l-2.61-3.47-1.16 1.05v2.42h-1.03v-9.59zm10.43 9.75c-0.49 0-0.92-0.08-1.31-0.25-0.38-0.16-0.71-0.4-0.98-0.7-0.28-0.31-0.49-0.68-0.63-1.11-0.15-0.42-0.22-0.9-0.22-1.43 0-0.54 0.07-1.02 0.22-1.45s0.36-0.8 0.63-1.11 0.59-0.54 0.97-0.71c0.37-0.16 0.79-0.24 1.25-0.24 0.45 0 0.86 0.08 1.23 0.24 0.36 0.17 0.68 0.39 0.94 0.68s0.45 0.64 0.59 1.03c0.14 0.4 0.21 0.84 0.21 1.31v0.5h-4.95v0.31c0 0.29 0.04 0.57 0.14 0.82 0.09 0.25 0.23 0.46 0.41 0.64 0.17 0.19 0.39 0.33 0.65 0.43 0.25 0.1 0.53 0.15 0.85 0.15 0.44 0 0.83-0.11 1.16-0.32 0.33-0.2 0.58-0.49 0.76-0.85l0.76 0.52c-0.2 0.45-0.53 0.82-0.99 1.11s-1.03 0.43-1.69 0.43zm-0.07-6.15c-0.29 0-0.55 0.05-0.79 0.16-0.24 0.1-0.45 0.24-0.63 0.43-0.18 0.18-0.32 0.39-0.42 0.64-0.09 0.24-0.14 0.51-0.14 0.81v0.09h3.84v-0.14c0-0.3-0.05-0.57-0.14-0.81s-0.22-0.45-0.38-0.63c-0.16-0.17-0.35-0.31-0.58-0.41-0.23-0.09-0.48-0.14-0.76-0.14zm5.11 5.99v-6.69h1.04v1.09h0.05c0.07-0.16 0.16-0.32 0.26-0.47s0.23-0.29 0.38-0.4 0.33-0.2 0.54-0.27 0.45-0.1 0.73-0.1c0.7 0 1.26 0.22 1.68 0.66 0.43 0.45 0.64 1.08 0.64 1.89v4.29h-1.04v-4.11c0-0.61-0.13-1.07-0.4-1.37-0.27-0.29-0.66-0.44-1.18-0.44-0.21 0-0.41 0.02-0.61 0.07-0.2 0.06-0.38 0.13-0.53 0.24-0.16 0.1-0.28 0.24-0.38 0.4-0.09 0.16-0.14 0.35-0.14 0.57v4.64h-1.04zm15.53-6.69h1.04v1.09h0.05c0.43-0.83 1.12-1.24 2.06-1.24 0.82 0 1.46 0.3 1.93 0.92 0.46 0.61 0.69 1.47 0.69 2.58s-0.23 1.97-0.69 2.58c-0.47 0.61-1.11 0.92-1.93 0.92-0.94 0-1.63-0.41-2.06-1.24h-0.05v3.68h-1.04v-9.29zm2.75 5.93c0.6 0 1.07-0.18 1.41-0.55 0.33-0.37 0.5-0.86 0.5-1.46v-1.14c0-0.61-0.17-1.09-0.5-1.46-0.34-0.37-0.81-0.55-1.41-0.55-0.24 0-0.46 0.03-0.66 0.09-0.21 0.06-0.39 0.15-0.55 0.26-0.15 0.12-0.28 0.26-0.37 0.43s-0.13 0.37-0.13 0.59v2.41c0 0.23 0.04 0.43 0.13 0.59 0.09 0.17 0.22 0.32 0.37 0.43 0.16 0.12 0.34 0.21 0.55 0.27 0.2 0.06 0.42 0.09 0.66 0.09zm4.8-0.12h1.96v-4.93h-1.96v-0.88h2.99v1.69h0.07c0.14-0.53 0.4-0.94 0.78-1.24 0.39-0.3 0.88-0.45 1.48-0.45h0.93v1.04h-1.26c-0.59 0-1.08 0.17-1.44 0.52-0.37 0.34-0.56 0.8-0.56 1.36v2.89h2.6v0.88h-5.59v-0.88zm11.09-7.29c-0.3 0-0.52-0.06-0.64-0.19-0.12-0.12-0.18-0.28-0.18-0.47v-0.21c0-0.19 0.06-0.34 0.18-0.47s0.34-0.19 0.64-0.19 0.51 0.06 0.63 0.19c0.13 0.13 0.19 0.28 0.19 0.47v0.21c0 0.19-0.06 0.35-0.19 0.47-0.12 0.13-0.33 0.19-0.63 0.19zm-2.93 7.29h2.41v-4.93h-2.41v-0.88h3.45v5.81h2.25v0.88h-5.7v-0.88zm10.53 1.04c-0.48 0-0.91-0.08-1.29-0.25s-0.69-0.41-0.95-0.71-0.46-0.67-0.59-1.1c-0.14-0.43-0.21-0.91-0.21-1.44s0.07-1.01 0.21-1.44 0.34-0.8 0.6-1.11 0.57-0.54 0.95-0.71c0.37-0.16 0.79-0.24 1.27-0.24 0.65 0 1.17 0.14 1.58 0.42 0.41 0.29 0.7 0.66 0.9 1.12l-0.84 0.44c-0.12-0.35-0.32-0.61-0.6-0.8s-0.63-0.29-1.04-0.29c-0.31 0-0.58 0.05-0.81 0.15-0.24 0.1-0.44 0.24-0.61 0.42-0.16 0.18-0.28 0.4-0.37 0.65-0.08 0.25-0.12 0.52-0.12 0.82v1.14c0 0.29 0.04 0.57 0.12 0.82 0.09 0.25 0.21 0.46 0.37 0.64 0.17 0.19 0.37 0.33 0.61 0.43 0.25 0.1 0.52 0.15 0.83 0.15 0.45 0 0.82-0.11 1.12-0.32 0.29-0.2 0.53-0.49 0.7-0.85l0.74 0.5c-0.2 0.45-0.51 0.83-0.93 1.12s-0.97 0.44-1.64 0.44zm7.67 0c-0.49 0-0.92-0.08-1.31-0.25-0.38-0.16-0.71-0.4-0.98-0.7-0.28-0.31-0.48-0.68-0.63-1.11-0.15-0.42-0.22-0.9-0.22-1.43 0-0.54 0.07-1.02 0.22-1.45 0.16-0.43 0.37-0.8 0.63-1.11 0.27-0.31 0.59-0.54 0.97-0.71 0.38-0.16 0.79-0.24 1.25-0.24 0.45 0 0.86 0.08 1.23 0.24 0.37 0.17 0.68 0.39 0.94 0.68s0.46 0.64 0.59 1.03c0.14 0.4 0.21 0.84 0.21 1.31v0.5h-4.95v0.31c0 0.29 0.04 0.57 0.14 0.82s0.23 0.46 0.41 0.64c0.18 0.19 0.39 0.33 0.65 0.43 0.25 0.1 0.54 0.15 0.85 0.15 0.45 0 0.84-0.11 1.16-0.32 0.33-0.2 0.58-0.49 0.76-0.85l0.76 0.52c-0.2 0.45-0.53 0.82-0.99 1.11s-1.03 0.43-1.69 0.43zm-0.07-6.15c-0.28 0-0.55 0.05-0.79 0.16-0.24 0.1-0.45 0.24-0.63 0.43-0.18 0.18-0.31 0.39-0.41 0.64-0.1 0.24-0.15 0.51-0.15 0.81v0.09h3.84v-0.14c0-0.3-0.05-0.57-0.14-0.81s-0.22-0.45-0.38-0.63c-0.16-0.17-0.35-0.31-0.58-0.41-0.23-0.09-0.48-0.14-0.76-0.14zm7.73 6.11c-0.35 0-0.6-0.07-0.74-0.22-0.15-0.15-0.22-0.33-0.22-0.56v-0.23c0-0.23 0.07-0.41 0.22-0.56 0.14-0.14 0.39-0.22 0.74-0.22 0.36 0 0.61 0.08 0.75 0.22 0.14 0.15 0.21 0.33 0.21 0.56v0.23c0 0.23-0.07 0.41-0.21 0.56s-0.39 0.22-0.75 0.22z"/>
    <path id="Redemptions-Closed-C" fill-opacity=".9" fill="#1F2124" d="m40.925 394.12h-1.089v-9.05h3.295c0.838 0 1.478 0.23 1.919 0.69s0.662 1.1 0.662 1.92c0 0.73-0.19 1.32-0.571 1.76-0.38 0.44-0.934 0.7-1.66 0.77l2.309 3.91h-1.22l-2.205-3.86h-1.44v3.86zm2.18-4.78c0.458 0 0.815-0.12 1.07-0.35s0.382-0.55 0.382-0.98v-0.67c0-0.42-0.127-0.75-0.382-0.98s-0.612-0.34-1.07-0.34h-2.18v3.32h2.18zm7.355 4.94c-0.485 0-0.919-0.08-1.304-0.25-0.385-0.16-0.713-0.4-0.986-0.7-0.272-0.31-0.482-0.68-0.629-1.11-0.147-0.42-0.221-0.9-0.221-1.43 0-0.54 0.076-1.02 0.227-1.45 0.152-0.44 0.362-0.81 0.63-1.11 0.268-0.31 0.59-0.54 0.966-0.71 0.376-0.16 0.793-0.25 1.252-0.25 0.449 0 0.858 0.09 1.226 0.25 0.367 0.17 0.681 0.39 0.94 0.68 0.26 0.29 0.458 0.64 0.597 1.03 0.138 0.4 0.207 0.84 0.207 1.31v0.5h-4.955v0.31c0 0.29 0.048 0.56 0.143 0.81 0.095 0.26 0.231 0.47 0.408 0.65 0.178 0.18 0.394 0.33 0.649 0.42 0.255 0.1 0.538 0.15 0.85 0.15 0.449 0 0.838-0.1 1.167-0.31 0.329-0.2 0.58-0.49 0.752-0.85l0.766 0.52c-0.199 0.45-0.53 0.81-0.993 1.1-0.462 0.29-1.026 0.44-1.692 0.44zm-0.065-6.15c-0.286 0-0.549 0.05-0.791 0.16-0.243 0.1-0.452 0.24-0.63 0.42-0.177 0.19-0.315 0.4-0.415 0.65-0.099 0.24-0.149 0.51-0.149 0.81v0.09h3.84v-0.14c0-0.3-0.046-0.57-0.136-0.81-0.091-0.24-0.217-0.45-0.377-0.63s-0.354-0.31-0.583-0.41c-0.23-0.09-0.482-0.14-0.759-0.14zm9.352 4.9h-0.051c-0.433 0.83-1.12 1.25-2.063 1.25-0.822 0-1.464-0.31-1.926-0.92-0.463-0.62-0.694-1.48-0.694-2.58 0-1.11 0.231-1.97 0.694-2.58 0.462-0.62 1.104-0.93 1.926-0.93 0.943 0 1.63 0.42 2.063 1.25h0.051v-4h1.038v9.6h-1.038v-1.09zm-1.712 0.33c0.234 0 0.454-0.03 0.662-0.09 0.207-0.06 0.389-0.15 0.545-0.27 0.155-0.12 0.278-0.26 0.369-0.43s0.136-0.36 0.136-0.59v-2.41c0-0.22-0.045-0.42-0.136-0.59s-0.214-0.31-0.369-0.43c-0.156-0.11-0.338-0.2-0.545-0.26-0.208-0.06-0.428-0.09-0.662-0.09-0.605 0-1.074 0.18-1.407 0.55-0.333 0.36-0.5 0.85-0.5 1.46v1.14c0 0.6 0.167 1.09 0.5 1.46 0.333 0.36 0.802 0.55 1.407 0.55zm7.991 0.92c-0.484 0-0.919-0.08-1.304-0.25-0.385-0.16-0.713-0.4-0.986-0.7-0.272-0.31-0.482-0.68-0.629-1.11-0.147-0.42-0.22-0.9-0.22-1.43 0-0.54 0.075-1.02 0.227-1.45 0.151-0.44 0.361-0.81 0.629-1.11 0.268-0.31 0.59-0.54 0.966-0.71 0.376-0.16 0.794-0.25 1.252-0.25 0.45 0 0.858 0.09 1.226 0.25 0.367 0.17 0.681 0.39 0.94 0.68 0.26 0.29 0.459 0.64 0.597 1.03 0.138 0.4 0.207 0.84 0.207 1.31v0.5h-4.955v0.31c0 0.29 0.048 0.56 0.143 0.81 0.095 0.26 0.231 0.47 0.409 0.65 0.177 0.18 0.393 0.33 0.648 0.42 0.255 0.1 0.538 0.15 0.85 0.15 0.449 0 0.839-0.1 1.167-0.31 0.329-0.2 0.58-0.49 0.753-0.85l0.765 0.52c-0.199 0.45-0.53 0.81-0.992 1.1-0.463 0.29-1.027 0.44-1.693 0.44zm-0.065-6.15c-0.285 0-0.549 0.05-0.791 0.16-0.242 0.1-0.452 0.24-0.629 0.42-0.178 0.19-0.316 0.4-0.416 0.65-0.099 0.24-0.149 0.51-0.149 0.81v0.09h3.84v-0.14c0-0.3-0.046-0.57-0.136-0.81-0.091-0.24-0.216-0.45-0.376-0.63s-0.355-0.31-0.584-0.41c-0.229-0.09-0.482-0.14-0.759-0.14zm4.54 5.99v-6.69h0.96v0.78h0.052c0.104-0.26 0.251-0.48 0.441-0.66s0.471-0.28 0.843-0.28c0.389 0 0.679 0.1 0.869 0.3 0.19 0.19 0.307 0.44 0.35 0.76h0.039c0.121-0.31 0.294-0.56 0.519-0.76s0.536-0.3 0.934-0.3c0.545 0 0.91 0.19 1.096 0.58 0.186 0.38 0.279 0.92 0.279 1.63v4.64h-0.96v-4.47c0-0.57-0.058-0.97-0.175-1.19s-0.331-0.33-0.642-0.33c-0.277 0-0.502 0.09-0.674 0.27-0.173 0.17-0.26 0.44-0.26 0.81v4.91h-0.96v-4.47c0-0.57-0.058-0.97-0.175-1.19s-0.326-0.33-0.629-0.33c-0.277 0-0.504 0.09-0.681 0.27-0.177 0.17-0.266 0.44-0.266 0.81v4.91h-0.96zm8.315-6.69h1.038v1.09h0.052c0.432-0.83 1.12-1.25 2.062-1.25 0.822 0 1.464 0.31 1.926 0.93 0.463 0.61 0.694 1.47 0.694 2.58 0 1.1-0.231 1.96-0.694 2.58-0.462 0.61-1.104 0.92-1.926 0.92-0.942 0-1.63-0.42-2.062-1.25h-0.052v3.69h-1.038v-9.29zm2.75 5.93c0.605 0 1.074-0.19 1.407-0.55 0.333-0.37 0.5-0.86 0.5-1.46v-1.14c0-0.61-0.167-1.1-0.5-1.46-0.333-0.37-0.802-0.55-1.407-0.55-0.233 0-0.454 0.03-0.662 0.09-0.207 0.06-0.389 0.15-0.544 0.26-0.156 0.12-0.279 0.26-0.37 0.43s-0.136 0.37-0.136 0.59v2.41c0 0.23 0.045 0.42 0.136 0.59s0.214 0.31 0.37 0.43c0.155 0.12 0.337 0.21 0.544 0.27 0.208 0.06 0.429 0.09 0.662 0.09zm8.017 0.76c-0.511 0-0.885-0.14-1.122-0.42-0.238-0.29-0.357-0.66-0.357-1.11v-4.28h-2.231v-0.88h1.66c0.225 0 0.383-0.05 0.473-0.14 0.091-0.09 0.137-0.24 0.137-0.47v-1.75h0.999v2.36h3.048v0.88h-3.048v4.93h3.048v0.88h-2.607zm7.873-8.17c-0.302 0-0.514-0.06-0.635-0.19-0.121-0.12-0.182-0.28-0.182-0.47v-0.21c0-0.19 0.061-0.35 0.182-0.47 0.121-0.13 0.333-0.19 0.635-0.19 0.303 0 0.515 0.06 0.636 0.19 0.121 0.12 0.182 0.28 0.182 0.47v0.21c0 0.19-0.061 0.35-0.182 0.47-0.121 0.13-0.333 0.19-0.636 0.19zm-2.931 7.29h2.413v-4.93h-2.413v-0.88h3.45v5.81h2.255v0.88h-5.705v-0.88zm10.295 1.04c-0.46 0-0.88-0.08-1.26-0.25-0.38-0.16-0.7-0.4-0.96-0.7-0.26-0.31-0.47-0.68-0.6-1.11-0.14-0.42-0.21-0.91-0.21-1.44s0.07-1.01 0.21-1.44c0.13-0.44 0.34-0.81 0.6-1.11 0.26-0.31 0.58-0.54 0.96-0.71 0.38-0.16 0.8-0.25 1.26-0.25 0.47 0 0.89 0.09 1.27 0.25 0.38 0.17 0.7 0.4 0.96 0.71 0.26 0.3 0.46 0.67 0.6 1.11 0.14 0.43 0.21 0.91 0.21 1.44s-0.07 1.02-0.21 1.44c-0.14 0.43-0.34 0.8-0.6 1.11-0.26 0.3-0.58 0.54-0.96 0.7-0.38 0.17-0.8 0.25-1.27 0.25zm0-0.9c0.58 0 1.05-0.17 1.41-0.51 0.35-0.35 0.53-0.89 0.53-1.61v-0.96c0-0.73-0.18-1.27-0.53-1.61-0.36-0.35-0.83-0.52-1.41-0.52-0.57 0-1.04 0.17-1.4 0.52-0.35 0.34-0.53 0.88-0.53 1.61v0.96c0 0.72 0.18 1.26 0.53 1.61 0.36 0.34 0.83 0.51 1.4 0.51zm5.17 0.74v-6.69h1.03v1.09h0.06c0.07-0.16 0.15-0.32 0.26-0.47 0.1-0.16 0.23-0.29 0.38-0.4s0.33-0.2 0.54-0.27c0.2-0.07 0.45-0.11 0.72-0.11 0.7 0 1.27 0.23 1.69 0.67 0.42 0.45 0.64 1.08 0.64 1.89v4.29h-1.04v-4.11c0-0.61-0.14-1.07-0.4-1.37-0.27-0.3-0.67-0.44-1.18-0.44-0.21 0-0.42 0.02-0.61 0.07-0.2 0.06-0.38 0.13-0.54 0.24-0.15 0.1-0.28 0.23-0.37 0.4-0.1 0.16-0.15 0.35-0.15 0.57v4.64h-1.03zm10.48 0.16c-0.7 0-1.31-0.12-1.81-0.36-0.51-0.24-0.94-0.55-1.29-0.95l0.7-0.61c0.32 0.34 0.67 0.6 1.05 0.78s0.84 0.27 1.37 0.27c0.52 0 0.95-0.09 1.28-0.28 0.34-0.18 0.5-0.48 0.5-0.87 0-0.18-0.03-0.32-0.1-0.44-0.06-0.12-0.15-0.21-0.26-0.28s-0.24-0.12-0.38-0.16-0.28-0.07-0.44-0.1l-1.05-0.15c-0.23-0.04-0.49-0.09-0.76-0.15s-0.52-0.15-0.74-0.29c-0.23-0.13-0.42-0.31-0.57-0.54-0.15-0.22-0.23-0.51-0.23-0.88 0-0.34 0.07-0.63 0.21-0.87 0.13-0.25 0.32-0.46 0.56-0.63 0.24-0.16 0.53-0.29 0.86-0.37 0.32-0.08 0.68-0.13 1.07-0.13 0.61 0 1.13 0.1 1.58 0.29 0.44 0.19 0.83 0.45 1.15 0.79l-0.68 0.64c-0.08-0.1-0.17-0.2-0.29-0.3-0.12-0.09-0.26-0.19-0.43-0.27s-0.36-0.15-0.59-0.2c-0.22-0.05-0.48-0.08-0.78-0.08-0.52 0-0.93 0.09-1.21 0.28-0.28 0.18-0.42 0.44-0.42 0.79 0 0.17 0.03 0.32 0.1 0.43 0.06 0.12 0.15 0.21 0.26 0.28s0.24 0.12 0.38 0.16c0.15 0.04 0.29 0.07 0.44 0.1l1.05 0.16c0.24 0.03 0.5 0.08 0.77 0.14 0.26 0.06 0.51 0.16 0.73 0.29 0.23 0.13 0.42 0.31 0.57 0.54 0.15 0.22 0.23 0.52 0.23 0.88 0 0.67-0.26 1.18-0.78 1.54-0.51 0.37-1.2 0.55-2.05 0.55zm15.79 0c-1.11 0-1.94-0.4-2.48-1.21-0.54-0.8-0.81-1.96-0.81-3.47 0-1.52 0.27-2.68 0.81-3.48s1.37-1.21 2.48-1.21c0.41 0 0.77 0.06 1.07 0.17s0.56 0.27 0.78 0.46 0.4 0.4 0.54 0.64c0.15 0.24 0.28 0.48 0.39 0.72l-0.93 0.43c-0.08-0.2-0.17-0.39-0.27-0.57-0.11-0.18-0.23-0.33-0.37-0.46-0.14-0.14-0.31-0.24-0.51-0.32-0.19-0.08-0.43-0.12-0.7-0.12-0.72 0-1.26 0.27-1.61 0.82-0.35 0.54-0.52 1.27-0.52 2.18v1.48c0 0.9 0.17 1.63 0.52 2.18 0.35 0.54 0.89 0.81 1.61 0.81 0.27 0 0.51-0.04 0.7-0.11 0.2-0.08 0.37-0.19 0.51-0.32 0.14-0.14 0.26-0.29 0.37-0.47 0.1-0.18 0.19-0.36 0.27-0.56l0.93 0.42c-0.11 0.26-0.24 0.5-0.39 0.73-0.14 0.23-0.32 0.45-0.54 0.64s-0.48 0.34-0.78 0.45-0.66 0.17-1.07 0.17zm4.63-1.04h2.33v-7.83h-2.33v-0.89h3.37v8.72h2.33v0.88h-5.7v-0.88zm10.63 1.04c-0.46 0-0.89-0.08-1.26-0.25-0.38-0.16-0.7-0.4-0.96-0.7-0.27-0.31-0.47-0.68-0.6-1.11-0.14-0.42-0.21-0.91-0.21-1.44s0.07-1.01 0.21-1.44c0.13-0.44 0.33-0.81 0.6-1.11 0.26-0.31 0.58-0.54 0.96-0.71 0.37-0.16 0.8-0.25 1.26-0.25 0.47 0 0.89 0.09 1.27 0.25 0.37 0.17 0.69 0.4 0.96 0.71 0.26 0.3 0.46 0.67 0.6 1.11 0.14 0.43 0.21 0.91 0.21 1.44s-0.07 1.02-0.21 1.44c-0.14 0.43-0.34 0.8-0.6 1.11-0.27 0.3-0.59 0.54-0.96 0.7-0.38 0.17-0.8 0.25-1.27 0.25zm0-0.9c0.58 0 1.05-0.17 1.4-0.51 0.36-0.35 0.54-0.89 0.54-1.61v-0.96c0-0.73-0.18-1.27-0.54-1.61-0.35-0.35-0.82-0.52-1.4-0.52s-1.04 0.17-1.4 0.52c-0.35 0.34-0.53 0.88-0.53 1.61v0.96c0 0.72 0.18 1.26 0.53 1.61 0.36 0.34 0.82 0.51 1.4 0.51zm7.86 0.9c-0.7 0-1.3-0.12-1.81-0.36-0.5-0.24-0.93-0.55-1.29-0.95l0.7-0.61c0.32 0.34 0.67 0.6 1.05 0.78 0.39 0.18 0.84 0.27 1.38 0.27 0.52 0 0.94-0.09 1.28-0.28 0.33-0.18 0.5-0.48 0.5-0.87 0-0.18-0.04-0.32-0.1-0.44-0.07-0.12-0.15-0.21-0.27-0.28-0.11-0.07-0.23-0.12-0.37-0.16s-0.29-0.07-0.44-0.1l-1.05-0.15c-0.24-0.04-0.49-0.09-0.76-0.15-0.28-0.06-0.52-0.15-0.75-0.29-0.22-0.13-0.41-0.31-0.56-0.54-0.15-0.22-0.23-0.51-0.23-0.88 0-0.34 0.07-0.63 0.2-0.87 0.13-0.25 0.32-0.46 0.57-0.63 0.24-0.16 0.52-0.29 0.85-0.37s0.69-0.13 1.08-0.13c0.6 0 1.13 0.1 1.57 0.29 0.45 0.19 0.83 0.45 1.15 0.79l-0.67 0.64c-0.08-0.1-0.18-0.2-0.29-0.3-0.12-0.09-0.26-0.19-0.43-0.27s-0.37-0.15-0.59-0.2c-0.23-0.05-0.49-0.08-0.78-0.08-0.53 0-0.93 0.09-1.21 0.28-0.29 0.18-0.43 0.44-0.43 0.79 0 0.17 0.04 0.32 0.1 0.43 0.07 0.12 0.16 0.21 0.27 0.28s0.24 0.12 0.38 0.16 0.29 0.07 0.43 0.1l1.06 0.16c0.24 0.03 0.49 0.08 0.76 0.14s0.52 0.16 0.74 0.29c0.23 0.13 0.41 0.31 0.56 0.54 0.16 0.22 0.23 0.52 0.23 0.88 0 0.67-0.26 1.18-0.77 1.54-0.51 0.37-1.2 0.55-2.06 0.55zm7.83 0c-0.49 0-0.92-0.08-1.31-0.25-0.38-0.16-0.71-0.4-0.98-0.7-0.28-0.31-0.49-0.68-0.63-1.11-0.15-0.42-0.22-0.9-0.22-1.43 0-0.54 0.07-1.02 0.22-1.45 0.15-0.44 0.36-0.81 0.63-1.11 0.27-0.31 0.59-0.54 0.97-0.71 0.38-0.16 0.79-0.25 1.25-0.25 0.45 0 0.86 0.09 1.23 0.25 0.36 0.17 0.68 0.39 0.94 0.68s0.46 0.64 0.59 1.03c0.14 0.4 0.21 0.84 0.21 1.31v0.5h-4.95v0.31c0 0.29 0.04 0.56 0.14 0.81 0.09 0.26 0.23 0.47 0.41 0.65 0.17 0.18 0.39 0.33 0.65 0.42 0.25 0.1 0.53 0.15 0.85 0.15 0.45 0 0.83-0.1 1.16-0.31 0.33-0.2 0.58-0.49 0.76-0.85l0.76 0.52c-0.2 0.45-0.53 0.81-0.99 1.1s-1.03 0.44-1.69 0.44zm-0.07-6.15c-0.28 0-0.55 0.05-0.79 0.16-0.24 0.1-0.45 0.24-0.63 0.42-0.18 0.19-0.32 0.4-0.41 0.65-0.1 0.24-0.15 0.51-0.15 0.81v0.09h3.84v-0.14c0-0.3-0.05-0.57-0.14-0.81s-0.22-0.45-0.38-0.63-0.35-0.31-0.58-0.41c-0.23-0.09-0.48-0.14-0.76-0.14zm9.35 4.9h-0.05c-0.43 0.83-1.12 1.25-2.06 1.25-0.82 0-1.46-0.31-1.93-0.92-0.46-0.62-0.69-1.48-0.69-2.58 0-1.11 0.23-1.97 0.69-2.58 0.47-0.62 1.11-0.93 1.93-0.93 0.94 0 1.63 0.42 2.06 1.25h0.05v-4h1.04v9.6h-1.04v-1.09zm-1.71 0.33c0.23 0 0.46-0.03 0.66-0.09 0.21-0.06 0.39-0.15 0.55-0.27 0.15-0.12 0.28-0.26 0.37-0.43s0.13-0.36 0.13-0.59v-2.41c0-0.22-0.04-0.42-0.13-0.59s-0.22-0.31-0.37-0.43c-0.16-0.11-0.34-0.2-0.55-0.26-0.2-0.06-0.43-0.09-0.66-0.09-0.6 0-1.07 0.18-1.41 0.55-0.33 0.36-0.5 0.85-0.5 1.46v1.14c0 0.6 0.17 1.09 0.5 1.46 0.34 0.36 0.81 0.55 1.41 0.55zm-147.49 24.41c-1.107 0-1.931-0.41-2.471-1.21-0.541-0.81-0.811-1.96-0.811-3.48 0-1.51 0.27-2.67 0.811-3.47 0.54-0.81 1.364-1.21 2.471-1.21 0.415 0 0.774 0.06 1.077 0.17 0.302 0.11 0.562 0.26 0.778 0.45s0.398 0.41 0.545 0.64c0.147 0.24 0.277 0.48 0.389 0.72l-0.934 0.43c-0.078-0.2-0.169-0.38-0.272-0.56-0.104-0.18-0.227-0.33-0.37-0.47-0.143-0.13-0.311-0.24-0.506-0.32-0.195-0.07-0.43-0.11-0.707-0.11-0.718 0-1.252 0.27-1.602 0.81-0.35 0.55-0.525 1.27-0.525 2.18v1.48c0 0.91 0.175 1.64 0.525 2.18 0.35 0.55 0.884 0.82 1.602 0.82 0.277 0 0.512-0.04 0.707-0.12s0.363-0.18 0.506-0.32c0.143-0.13 0.266-0.29 0.37-0.46 0.103-0.18 0.194-0.37 0.272-0.57l0.934 0.43c-0.112 0.25-0.242 0.49-0.389 0.73-0.147 0.23-0.329 0.44-0.545 0.63s-0.476 0.34-0.778 0.46c-0.303 0.11-0.662 0.17-1.077 0.17zm10.014-0.16c-0.406 0-0.696-0.1-0.869-0.31s-0.281-0.47-0.324-0.78h-0.065c-0.147 0.39-0.383 0.69-0.707 0.91s-0.759 0.34-1.304 0.34c-0.7 0-1.258-0.19-1.673-0.55s-0.623-0.86-0.623-1.49c0-0.62 0.227-1.1 0.681-1.44s1.187-0.51 2.199-0.51h1.427v-0.66c0-0.49-0.138-0.86-0.415-1.11-0.277-0.24-0.67-0.37-1.181-0.37-0.449 0-0.817 0.09-1.102 0.27-0.286 0.18-0.515 0.42-0.688 0.72l-0.7-0.52c0.086-0.17 0.203-0.34 0.35-0.51 0.147-0.16 0.329-0.31 0.545-0.43 0.216-0.13 0.463-0.23 0.739-0.3 0.277-0.07 0.584-0.11 0.921-0.11 0.787 0 1.412 0.2 1.875 0.6 0.462 0.39 0.694 0.95 0.694 1.66v3.68h0.934v0.91h-0.714zm-3.087-0.71c0.268 0 0.512-0.04 0.733-0.1 0.22-0.07 0.413-0.15 0.577-0.26s0.292-0.24 0.383-0.39 0.136-0.31 0.136-0.49v-1.1h-1.427c-0.623 0-1.077 0.09-1.362 0.26s-0.428 0.42-0.428 0.75v0.28c0 0.34 0.123 0.6 0.37 0.78 0.246 0.18 0.586 0.27 1.018 0.27zm5.682-5.98h1.037v1.09h0.052c0.433-0.83 1.12-1.25 2.063-1.25 0.821 0 1.463 0.31 1.926 0.92 0.463 0.62 0.694 1.48 0.694 2.58 0 1.11-0.231 1.97-0.694 2.58-0.463 0.62-1.105 0.93-1.926 0.93-0.943 0-1.63-0.42-2.063-1.25h-0.052v3.68h-1.037v-9.28zm2.75 5.92c0.605 0 1.074-0.18 1.407-0.55 0.333-0.36 0.499-0.85 0.499-1.46v-1.14c0-0.6-0.166-1.09-0.499-1.46-0.333-0.36-0.802-0.55-1.407-0.55-0.234 0-0.454 0.03-0.662 0.09-0.207 0.06-0.389 0.15-0.545 0.27-0.155 0.11-0.279 0.26-0.369 0.43-0.091 0.16-0.137 0.36-0.137 0.59v2.41c0 0.22 0.046 0.42 0.137 0.59 0.09 0.17 0.214 0.31 0.369 0.43 0.156 0.11 0.338 0.2 0.545 0.26 0.208 0.06 0.428 0.09 0.662 0.09zm8.107-7.4c-0.303 0-0.515-0.07-0.636-0.19-0.121-0.13-0.181-0.28-0.181-0.47v-0.21c0-0.19 0.06-0.35 0.181-0.48 0.121-0.12 0.333-0.18 0.636-0.18s0.515 0.06 0.636 0.18c0.121 0.13 0.181 0.29 0.181 0.48v0.21c0 0.19-0.06 0.34-0.181 0.47-0.121 0.12-0.333 0.19-0.636 0.19zm-2.932 7.29h2.413v-4.93h-2.413v-0.88h3.451v5.81h2.257v0.88h-5.708v-0.88zm10.624 0.88c-0.51 0-0.884-0.14-1.122-0.43-0.238-0.28-0.357-0.65-0.357-1.1v-4.28h-2.231v-0.88h1.661c0.225 0 0.382-0.05 0.473-0.14s0.136-0.25 0.136-0.47v-1.75h0.999v2.36h3.049v0.88h-3.049v4.93h3.049v0.88h-2.608zm9.989 0c-0.407 0-0.697-0.1-0.87-0.31s-0.281-0.47-0.324-0.78h-0.065c-0.147 0.39-0.382 0.69-0.707 0.91-0.324 0.22-0.759 0.34-1.303 0.34-0.701 0-1.259-0.19-1.674-0.55s-0.622-0.86-0.622-1.49c0-0.62 0.227-1.1 0.681-1.44s1.187-0.51 2.198-0.51h1.427v-0.66c0-0.49-0.138-0.86-0.415-1.11-0.277-0.24-0.67-0.37-1.18-0.37-0.45 0-0.817 0.09-1.103 0.27-0.285 0.18-0.514 0.42-0.687 0.72l-0.701-0.52c0.087-0.17 0.203-0.34 0.35-0.51 0.147-0.16 0.329-0.31 0.545-0.43 0.216-0.13 0.463-0.23 0.74-0.3 0.276-0.07 0.583-0.11 0.921-0.11 0.787 0 1.411 0.2 1.874 0.6 0.463 0.39 0.694 0.95 0.694 1.66v3.68h0.934v0.91h-0.713zm-3.088-0.71c0.268 0 0.513-0.04 0.733-0.1 0.221-0.07 0.413-0.15 0.577-0.26 0.165-0.11 0.292-0.24 0.383-0.39s0.136-0.31 0.136-0.49v-1.1h-1.427c-0.622 0-1.076 0.09-1.362 0.26-0.285 0.17-0.428 0.42-0.428 0.75v0.28c0 0.34 0.124 0.6 0.37 0.78s0.586 0.27 1.018 0.27zm5.487-0.17h2.335v-7.84h-2.335v-0.88h3.373v8.72h2.335v0.88h-5.708v-0.88zm15.696 0.88v-9.05h3.295c0.839 0 1.479 0.22 1.92 0.68s0.661 1.1 0.661 1.92-0.22 1.46-0.661 1.92-1.081 0.69-1.92 0.69h-2.205v3.84h-1.09zm1.09-4.79h2.179c0.458 0 0.815-0.11 1.07-0.34s0.383-0.56 0.383-0.98v-0.67c0-0.43-0.128-0.76-0.383-0.98-0.255-0.23-0.612-0.35-1.07-0.35h-2.179v3.32zm9.417 4.95c-0.467 0-0.888-0.09-1.264-0.25-0.377-0.17-0.697-0.4-0.96-0.71-0.264-0.31-0.465-0.67-0.604-1.1-0.138-0.43-0.207-0.91-0.207-1.45 0-0.52 0.069-1 0.207-1.44 0.139-0.43 0.34-0.8 0.604-1.11 0.263-0.3 0.583-0.54 0.96-0.7 0.376-0.17 0.797-0.25 1.264-0.25s0.889 0.08 1.265 0.25c0.376 0.16 0.696 0.4 0.96 0.7 0.264 0.31 0.465 0.68 0.603 1.11 0.141 0.44 0.211 0.92 0.211 1.44 0 0.54-0.07 1.02-0.211 1.45-0.138 0.43-0.339 0.79-0.603 1.1s-0.584 0.54-0.96 0.71c-0.376 0.16-0.798 0.25-1.265 0.25zm0-0.9c0.58 0 1.047-0.17 1.401-0.52 0.355-0.34 0.532-0.88 0.532-1.61v-0.96c0-0.72-0.177-1.26-0.532-1.61-0.354-0.34-0.821-0.51-1.401-0.51-0.579 0-1.046 0.17-1.401 0.51-0.354 0.35-0.531 0.89-0.531 1.61v0.96c0 0.73 0.177 1.27 0.531 1.61 0.355 0.35 0.822 0.52 1.401 0.52zm7.779 0.9c-0.46 0-0.88-0.09-1.26-0.25-0.38-0.17-0.7-0.4-0.96-0.71s-0.47-0.67-0.6-1.1c-0.14-0.43-0.21-0.91-0.21-1.45 0-0.52 0.07-1 0.21-1.44 0.13-0.43 0.34-0.8 0.6-1.11 0.26-0.3 0.58-0.54 0.96-0.7 0.38-0.17 0.8-0.25 1.26-0.25 0.47 0 0.89 0.08 1.27 0.25 0.38 0.16 0.7 0.4 0.96 0.7 0.26 0.31 0.46 0.68 0.6 1.11 0.14 0.44 0.21 0.92 0.21 1.44 0 0.54-0.07 1.02-0.21 1.45s-0.34 0.79-0.6 1.1-0.58 0.54-0.96 0.71c-0.38 0.16-0.8 0.25-1.27 0.25zm0-0.9c0.58 0 1.05-0.17 1.41-0.52 0.35-0.34 0.53-0.88 0.53-1.61v-0.96c0-0.72-0.18-1.26-0.53-1.61-0.36-0.34-0.83-0.51-1.41-0.51-0.57 0-1.04 0.17-1.4 0.51-0.35 0.35-0.53 0.89-0.53 1.61v0.96c0 0.73 0.18 1.27 0.53 1.61 0.36 0.35 0.83 0.52 1.4 0.52zm4.93-0.14h2.34v-7.84h-2.34v-0.88h3.38v8.72h2.33v0.88h-5.71v-0.88zm15.76-8.72h1.04v4h0.05c0.44-0.83 1.12-1.25 2.07-1.25 0.82 0 1.46 0.31 1.92 0.92 0.47 0.62 0.7 1.48 0.7 2.58 0 1.11-0.23 1.97-0.7 2.58-0.46 0.62-1.1 0.93-1.92 0.93-0.95 0-1.63-0.42-2.07-1.25h-0.05v1.09h-1.04v-9.6zm2.75 8.83c0.61 0 1.08-0.18 1.41-0.55 0.33-0.36 0.5-0.85 0.5-1.46v-1.14c0-0.6-0.17-1.09-0.5-1.46-0.33-0.36-0.8-0.55-1.41-0.55-0.23 0-0.45 0.03-0.66 0.09-0.2 0.06-0.39 0.15-0.54 0.27-0.16 0.11-0.28 0.26-0.37 0.43-0.09 0.16-0.14 0.36-0.14 0.59v2.41c0 0.22 0.05 0.42 0.14 0.59s0.21 0.31 0.37 0.43c0.15 0.11 0.34 0.2 0.54 0.26 0.21 0.06 0.43 0.09 0.66 0.09zm7.81 0.93c-0.48 0-0.92-0.09-1.3-0.25-0.39-0.17-0.71-0.4-0.99-0.71-0.27-0.31-0.48-0.67-0.63-1.1-0.14-0.43-0.22-0.91-0.22-1.43 0-0.54 0.08-1.02 0.23-1.46 0.15-0.43 0.36-0.8 0.63-1.11 0.27-0.3 0.59-0.54 0.97-0.7 0.37-0.17 0.79-0.25 1.25-0.25 0.45 0 0.86 0.08 1.22 0.25 0.37 0.16 0.69 0.39 0.94 0.68 0.26 0.29 0.46 0.63 0.6 1.03s0.21 0.83 0.21 1.31v0.49h-4.96v0.31c0 0.3 0.05 0.57 0.15 0.82 0.09 0.25 0.23 0.47 0.41 0.65 0.17 0.18 0.39 0.32 0.64 0.42 0.26 0.1 0.54 0.15 0.85 0.15 0.45 0 0.84-0.1 1.17-0.31s0.58-0.49 0.75-0.86l0.77 0.52c-0.2 0.45-0.53 0.82-0.99 1.11-0.47 0.29-1.03 0.44-1.7 0.44zm-0.06-6.15c-0.29 0-0.55 0.05-0.79 0.15-0.24 0.11-0.45 0.25-0.63 0.43s-0.32 0.4-0.42 0.64c-0.1 0.25-0.15 0.52-0.15 0.81v0.09h3.84v-0.14c0-0.29-0.04-0.56-0.13-0.8-0.09-0.25-0.22-0.45-0.38-0.63s-0.35-0.32-0.58-0.41c-0.23-0.1-0.48-0.14-0.76-0.14zm4.88 5.11h2.33v-7.84h-2.33v-0.88h3.37v8.72h2.33v0.88h-5.7v-0.88zm10.63 1.04c-0.46 0-0.89-0.09-1.26-0.25-0.38-0.17-0.7-0.4-0.96-0.71-0.27-0.31-0.47-0.67-0.6-1.1-0.14-0.43-0.21-0.91-0.21-1.45 0-0.52 0.07-1 0.21-1.44 0.13-0.43 0.33-0.8 0.6-1.11 0.26-0.3 0.58-0.54 0.96-0.7 0.37-0.17 0.8-0.25 1.26-0.25 0.47 0 0.89 0.08 1.27 0.25 0.37 0.16 0.69 0.4 0.96 0.7 0.26 0.31 0.46 0.68 0.6 1.11 0.14 0.44 0.21 0.92 0.21 1.44 0 0.54-0.07 1.02-0.21 1.45s-0.34 0.79-0.6 1.1c-0.27 0.31-0.59 0.54-0.96 0.71-0.38 0.16-0.8 0.25-1.27 0.25zm0-0.9c0.58 0 1.05-0.17 1.4-0.52 0.36-0.34 0.54-0.88 0.54-1.61v-0.96c0-0.72-0.18-1.26-0.54-1.61-0.35-0.34-0.82-0.51-1.4-0.51s-1.04 0.17-1.4 0.51c-0.35 0.35-0.53 0.89-0.53 1.61v0.96c0 0.73 0.18 1.27 0.53 1.61 0.36 0.35 0.82 0.52 1.4 0.52zm4.28-5.95h0.92l0.77 5.78h0.12l1.14-5.78h1.14l1.14 5.78h0.12l0.76-5.78h0.9l-1.03 6.69h-1.35l-1.06-5.6h-0.1l-1.09 5.6h-1.35l-1.03-6.69zm21.08 6.69v-7.41h-0.1l-1.91 4.66-1.9-4.66h-0.11v7.41h-1v-9.05h1.4l1.6 3.99h0.08l1.59-3.99h1.35v9.05h-1zm6.07 0.16c-1.1 0-1.93-0.41-2.47-1.21-0.54-0.81-0.81-1.96-0.81-3.48 0-1.51 0.27-2.67 0.81-3.47 0.54-0.81 1.37-1.21 2.47-1.21 0.42 0 0.78 0.06 1.08 0.17s0.56 0.26 0.78 0.45c0.21 0.19 0.4 0.41 0.54 0.64 0.15 0.24 0.28 0.48 0.39 0.72l-0.93 0.43c-0.08-0.2-0.17-0.38-0.27-0.56-0.11-0.18-0.23-0.33-0.37-0.47-0.15-0.13-0.31-0.24-0.51-0.32-0.19-0.07-0.43-0.11-0.71-0.11-0.71 0-1.25 0.27-1.6 0.81-0.35 0.55-0.52 1.27-0.52 2.18v1.48c0 0.91 0.17 1.64 0.52 2.18 0.35 0.55 0.89 0.82 1.6 0.82 0.28 0 0.52-0.04 0.71-0.12 0.2-0.08 0.36-0.18 0.51-0.32 0.14-0.13 0.26-0.29 0.37-0.46 0.1-0.18 0.19-0.37 0.27-0.57l0.93 0.43c-0.11 0.25-0.24 0.49-0.39 0.73-0.14 0.23-0.33 0.44-0.54 0.63-0.22 0.19-0.48 0.34-0.78 0.46-0.3 0.11-0.66 0.17-1.08 0.17zm5.85-0.16h-1.09v-9.05h3.3c0.84 0 1.48 0.22 1.92 0.68s0.66 1.1 0.66 1.92c0 0.74-0.19 1.33-0.57 1.77s-0.93 0.69-1.66 0.76l2.31 3.92h-1.22l-2.21-3.87h-1.44v3.87zm2.18-4.79c0.46 0 0.82-0.11 1.07-0.34 0.26-0.23 0.39-0.56 0.39-0.98v-0.67c0-0.43-0.13-0.76-0.39-0.98-0.25-0.23-0.61-0.35-1.07-0.35h-2.18v3.32h2.18z"/>
    <path id="Redemptions-Open-Cap" fill-opacity=".9" fill="#1F2124" d="m400.18 394.12h-1.09v-9.05h3.3c0.84 0 1.48 0.23 1.92 0.69s0.66 1.1 0.66 1.92c0 0.73-0.19 1.32-0.57 1.76s-0.94 0.7-1.66 0.77l2.31 3.91h-1.22l-2.21-3.86h-1.44v3.86zm2.18-4.78c0.46 0 0.82-0.12 1.07-0.35 0.26-0.23 0.38-0.55 0.38-0.98v-0.67c0-0.42-0.12-0.75-0.38-0.98-0.25-0.23-0.61-0.34-1.07-0.34h-2.18v3.32h2.18zm7.36 4.94c-0.49 0-0.92-0.08-1.31-0.25-0.38-0.16-0.71-0.4-0.98-0.7-0.28-0.31-0.49-0.68-0.63-1.11-0.15-0.42-0.22-0.9-0.22-1.43 0-0.54 0.07-1.02 0.22-1.45 0.16-0.44 0.37-0.81 0.63-1.11 0.27-0.31 0.59-0.54 0.97-0.71 0.38-0.16 0.79-0.25 1.25-0.25 0.45 0 0.86 0.09 1.23 0.25 0.36 0.17 0.68 0.39 0.94 0.68s0.46 0.64 0.59 1.03c0.14 0.4 0.21 0.84 0.21 1.31v0.5h-4.95v0.31c0 0.29 0.04 0.56 0.14 0.81 0.09 0.26 0.23 0.47 0.41 0.65s0.39 0.33 0.65 0.42c0.25 0.1 0.54 0.15 0.85 0.15 0.45 0 0.84-0.1 1.16-0.31 0.33-0.2 0.58-0.49 0.76-0.85l0.76 0.52c-0.2 0.45-0.53 0.81-0.99 1.1s-1.03 0.44-1.69 0.44zm-0.07-6.15c-0.28 0-0.55 0.05-0.79 0.16-0.24 0.1-0.45 0.24-0.63 0.42-0.18 0.19-0.31 0.4-0.41 0.65-0.1 0.24-0.15 0.51-0.15 0.81v0.09h3.84v-0.14c0-0.3-0.05-0.57-0.14-0.81s-0.22-0.45-0.38-0.63-0.35-0.31-0.58-0.41c-0.23-0.09-0.48-0.14-0.76-0.14zm9.35 4.9h-0.05c-0.43 0.83-1.12 1.25-2.06 1.25-0.82 0-1.46-0.31-1.93-0.92-0.46-0.62-0.69-1.48-0.69-2.58 0-1.11 0.23-1.97 0.69-2.58 0.47-0.62 1.11-0.93 1.93-0.93 0.94 0 1.63 0.42 2.06 1.25h0.05v-4h1.04v9.6h-1.04v-1.09zm-1.71 0.33c0.24 0 0.46-0.03 0.66-0.09 0.21-0.06 0.39-0.15 0.55-0.27 0.15-0.12 0.28-0.26 0.37-0.43s0.13-0.36 0.13-0.59v-2.41c0-0.22-0.04-0.42-0.13-0.59s-0.22-0.31-0.37-0.43c-0.16-0.11-0.34-0.2-0.55-0.26-0.2-0.06-0.42-0.09-0.66-0.09-0.6 0-1.07 0.18-1.41 0.55-0.33 0.36-0.49 0.85-0.49 1.46v1.14c0 0.6 0.16 1.09 0.49 1.46 0.34 0.36 0.81 0.55 1.41 0.55zm7.99 0.92c-0.48 0-0.92-0.08-1.3-0.25-0.39-0.16-0.71-0.4-0.99-0.7-0.27-0.31-0.48-0.68-0.63-1.11-0.14-0.42-0.22-0.9-0.22-1.43 0-0.54 0.08-1.02 0.23-1.45 0.15-0.44 0.36-0.81 0.63-1.11 0.27-0.31 0.59-0.54 0.97-0.71 0.37-0.16 0.79-0.25 1.25-0.25 0.45 0 0.86 0.09 1.22 0.25 0.37 0.17 0.68 0.39 0.94 0.68s0.46 0.64 0.6 1.03c0.14 0.4 0.21 0.84 0.21 1.31v0.5h-4.96v0.31c0 0.29 0.05 0.56 0.15 0.81 0.09 0.26 0.23 0.47 0.4 0.65 0.18 0.18 0.4 0.33 0.65 0.42 0.26 0.1 0.54 0.15 0.85 0.15 0.45 0 0.84-0.1 1.17-0.31 0.33-0.2 0.58-0.49 0.75-0.85l0.77 0.52c-0.2 0.45-0.53 0.81-0.99 1.1-0.47 0.29-1.03 0.44-1.7 0.44zm-0.06-6.15c-0.29 0-0.55 0.05-0.79 0.16-0.25 0.1-0.46 0.24-0.63 0.42-0.18 0.19-0.32 0.4-0.42 0.65-0.1 0.24-0.15 0.51-0.15 0.81v0.09h3.84v-0.14c0-0.3-0.04-0.57-0.13-0.81s-0.22-0.45-0.38-0.63-0.35-0.31-0.58-0.41c-0.23-0.09-0.49-0.14-0.76-0.14zm4.54 5.99v-6.69h0.96v0.78h0.05c0.1-0.26 0.25-0.48 0.44-0.66s0.47-0.28 0.84-0.28c0.39 0 0.68 0.1 0.87 0.3 0.19 0.19 0.31 0.44 0.35 0.76h0.04c0.12-0.31 0.3-0.56 0.52-0.76 0.23-0.2 0.54-0.3 0.93-0.3 0.55 0 0.92 0.19 1.1 0.58 0.19 0.38 0.28 0.92 0.28 1.63v4.64h-0.96v-4.47c0-0.57-0.06-0.97-0.18-1.19-0.11-0.22-0.33-0.33-0.64-0.33-0.27 0-0.5 0.09-0.67 0.27-0.17 0.17-0.26 0.44-0.26 0.81v4.91h-0.96v-4.47c0-0.57-0.06-0.97-0.18-1.19-0.11-0.22-0.32-0.33-0.63-0.33-0.27 0-0.5 0.09-0.68 0.27-0.17 0.17-0.26 0.44-0.26 0.81v4.91h-0.96zm8.31-6.69h1.04v1.09h0.05c0.43-0.83 1.12-1.25 2.06-1.25 0.83 0 1.47 0.31 1.93 0.93 0.46 0.61 0.7 1.47 0.7 2.58 0 1.1-0.24 1.96-0.7 2.58-0.46 0.61-1.1 0.92-1.93 0.92-0.94 0-1.63-0.42-2.06-1.25h-0.05v3.69h-1.04v-9.29zm2.75 5.93c0.61 0 1.08-0.19 1.41-0.55 0.33-0.37 0.5-0.86 0.5-1.46v-1.14c0-0.61-0.17-1.1-0.5-1.46-0.33-0.37-0.8-0.55-1.41-0.55-0.23 0-0.45 0.03-0.66 0.09s-0.39 0.15-0.54 0.26c-0.16 0.12-0.28 0.26-0.37 0.43s-0.14 0.37-0.14 0.59v2.41c0 0.23 0.05 0.42 0.14 0.59s0.21 0.31 0.37 0.43c0.15 0.12 0.33 0.21 0.54 0.27s0.43 0.09 0.66 0.09zm8.02 0.76c-0.51 0-0.88-0.14-1.12-0.42-0.24-0.29-0.36-0.66-0.36-1.11v-4.28h-2.23v-0.88h1.66c0.22 0 0.38-0.05 0.47-0.14s0.14-0.24 0.14-0.47v-1.75h1v2.36h3.05v0.88h-3.05v4.93h3.05v0.88h-2.61zm7.87-8.17c-0.3 0-0.51-0.06-0.63-0.19-0.12-0.12-0.18-0.28-0.18-0.47v-0.21c0-0.19 0.06-0.35 0.18-0.47 0.12-0.13 0.33-0.19 0.63-0.19 0.31 0 0.52 0.06 0.64 0.19 0.12 0.12 0.18 0.28 0.18 0.47v0.21c0 0.19-0.06 0.35-0.18 0.47-0.12 0.13-0.33 0.19-0.64 0.19zm-2.93 7.29h2.41v-4.93h-2.41v-0.88h3.45v5.81h2.26v0.88h-5.71v-0.88zm10.3 1.04c-0.47 0-0.89-0.08-1.26-0.25-0.38-0.16-0.7-0.4-0.96-0.7-0.27-0.31-0.47-0.68-0.61-1.11-0.13-0.42-0.2-0.91-0.2-1.44s0.07-1.01 0.2-1.44c0.14-0.44 0.34-0.81 0.61-1.11 0.26-0.31 0.58-0.54 0.96-0.71 0.37-0.16 0.79-0.25 1.26-0.25s0.89 0.09 1.27 0.25c0.37 0.17 0.69 0.4 0.96 0.71 0.26 0.3 0.46 0.67 0.6 1.11 0.14 0.43 0.21 0.91 0.21 1.44s-0.07 1.02-0.21 1.44c-0.14 0.43-0.34 0.8-0.6 1.11-0.27 0.3-0.59 0.54-0.96 0.7-0.38 0.17-0.8 0.25-1.27 0.25zm0-0.9c0.58 0 1.05-0.17 1.4-0.51 0.36-0.35 0.53-0.89 0.53-1.61v-0.96c0-0.73-0.17-1.27-0.53-1.61-0.35-0.35-0.82-0.52-1.4-0.52s-1.05 0.17-1.4 0.52c-0.35 0.34-0.53 0.88-0.53 1.61v0.96c0 0.72 0.18 1.26 0.53 1.61 0.35 0.34 0.82 0.51 1.4 0.51zm5.16 0.74v-6.69h1.04v1.09h0.05c0.07-0.16 0.16-0.32 0.26-0.47 0.11-0.16 0.23-0.29 0.39-0.4 0.15-0.11 0.33-0.2 0.53-0.27 0.21-0.07 0.45-0.11 0.73-0.11 0.7 0 1.26 0.23 1.69 0.67 0.42 0.45 0.63 1.08 0.63 1.89v4.29h-1.04v-4.11c0-0.61-0.13-1.07-0.4-1.37s-0.66-0.44-1.18-0.44c-0.21 0-0.41 0.02-0.61 0.07-0.2 0.06-0.37 0.13-0.53 0.24-0.16 0.1-0.28 0.23-0.38 0.4-0.09 0.16-0.14 0.35-0.14 0.57v4.64h-1.04zm10.49 0.16c-0.71 0-1.31-0.12-1.81-0.36-0.51-0.24-0.94-0.55-1.3-0.95l0.71-0.61c0.32 0.34 0.67 0.6 1.05 0.78s0.83 0.27 1.37 0.27c0.52 0 0.95-0.09 1.28-0.28 0.33-0.18 0.5-0.48 0.5-0.87 0-0.18-0.03-0.32-0.1-0.44-0.06-0.12-0.15-0.21-0.26-0.28-0.12-0.07-0.24-0.12-0.38-0.16s-0.29-0.07-0.44-0.1l-1.05-0.15c-0.24-0.04-0.49-0.09-0.76-0.15s-0.52-0.15-0.75-0.29c-0.22-0.13-0.41-0.31-0.56-0.54-0.15-0.22-0.23-0.51-0.23-0.88 0-0.34 0.07-0.63 0.2-0.87 0.14-0.25 0.32-0.46 0.57-0.63 0.24-0.16 0.52-0.29 0.85-0.37s0.69-0.13 1.08-0.13c0.6 0 1.13 0.1 1.58 0.29 0.44 0.19 0.82 0.45 1.14 0.79l-0.67 0.64c-0.08-0.1-0.18-0.2-0.29-0.3-0.12-0.09-0.26-0.19-0.43-0.27s-0.37-0.15-0.59-0.2c-0.23-0.05-0.49-0.08-0.78-0.08-0.53 0-0.93 0.09-1.21 0.28-0.28 0.18-0.42 0.44-0.42 0.79 0 0.17 0.03 0.32 0.09 0.43 0.07 0.12 0.16 0.21 0.27 0.28s0.24 0.12 0.38 0.16 0.29 0.07 0.44 0.1l1.05 0.16c0.24 0.03 0.49 0.08 0.76 0.14s0.52 0.16 0.74 0.29c0.23 0.13 0.41 0.31 0.57 0.54 0.15 0.22 0.22 0.52 0.22 0.88 0 0.67-0.25 1.18-0.77 1.54-0.51 0.37-1.2 0.55-2.05 0.55zm15.48 0c-0.55 0-1.03-0.11-1.42-0.32-0.4-0.21-0.73-0.52-0.99-0.91-0.26-0.4-0.45-0.89-0.57-1.47s-0.18-1.24-0.18-1.98 0.06-1.4 0.18-1.98c0.12-0.59 0.31-1.08 0.57-1.47 0.26-0.4 0.59-0.71 0.99-0.92 0.39-0.21 0.87-0.32 1.42-0.32 0.56 0 1.03 0.11 1.43 0.32s0.73 0.52 0.99 0.92c0.26 0.39 0.45 0.88 0.57 1.47 0.12 0.58 0.18 1.24 0.18 1.98s-0.06 1.4-0.18 1.98-0.31 1.07-0.57 1.47c-0.26 0.39-0.59 0.7-0.99 0.91s-0.87 0.32-1.43 0.32zm0-0.95c0.37 0 0.67-0.07 0.92-0.21 0.26-0.14 0.46-0.35 0.63-0.6 0.16-0.26 0.28-0.58 0.35-0.95 0.08-0.36 0.11-0.78 0.11-1.23v-1.48c0-0.45-0.03-0.86-0.11-1.24-0.07-0.37-0.19-0.68-0.35-0.94-0.17-0.26-0.37-0.46-0.63-0.61-0.25-0.14-0.55-0.21-0.92-0.21-0.36 0-0.67 0.07-0.92 0.21-0.25 0.15-0.46 0.35-0.62 0.61s-0.28 0.57-0.36 0.94c-0.07 0.38-0.11 0.79-0.11 1.24v1.48c0 0.45 0.04 0.87 0.11 1.23 0.08 0.37 0.2 0.69 0.36 0.95 0.16 0.25 0.37 0.46 0.62 0.6s0.56 0.21 0.92 0.21zm5.13-5.9h1.04v1.09h0.05c0.43-0.83 1.12-1.25 2.06-1.25 0.82 0 1.46 0.31 1.93 0.93 0.46 0.61 0.69 1.47 0.69 2.58 0 1.1-0.23 1.96-0.69 2.58-0.47 0.61-1.11 0.92-1.93 0.92-0.94 0-1.63-0.42-2.06-1.25h-0.05v3.69h-1.04v-9.29zm2.75 5.93c0.6 0 1.07-0.19 1.4-0.55 0.34-0.37 0.5-0.86 0.5-1.46v-1.14c0-0.61-0.16-1.1-0.5-1.46-0.33-0.37-0.8-0.55-1.4-0.55-0.24 0-0.46 0.03-0.66 0.09-0.21 0.06-0.39 0.15-0.55 0.26-0.15 0.12-0.28 0.26-0.37 0.43s-0.13 0.37-0.13 0.59v2.41c0 0.23 0.04 0.42 0.13 0.59s0.22 0.31 0.37 0.43c0.16 0.12 0.34 0.21 0.55 0.27 0.2 0.06 0.42 0.09 0.66 0.09zm7.81 0.92c-0.49 0-0.92-0.08-1.31-0.25-0.38-0.16-0.71-0.4-0.98-0.7-0.28-0.31-0.49-0.68-0.63-1.11-0.15-0.42-0.22-0.9-0.22-1.43 0-0.54 0.07-1.02 0.22-1.45 0.16-0.44 0.37-0.81 0.63-1.11 0.27-0.31 0.59-0.54 0.97-0.71 0.38-0.16 0.79-0.25 1.25-0.25 0.45 0 0.86 0.09 1.23 0.25 0.36 0.17 0.68 0.39 0.94 0.68s0.46 0.64 0.59 1.03c0.14 0.4 0.21 0.84 0.21 1.31v0.5h-4.95v0.31c0 0.29 0.04 0.56 0.14 0.81 0.09 0.26 0.23 0.47 0.41 0.65s0.39 0.33 0.65 0.42c0.25 0.1 0.54 0.15 0.85 0.15 0.45 0 0.84-0.1 1.16-0.31 0.33-0.2 0.58-0.49 0.76-0.85l0.76 0.52c-0.2 0.45-0.53 0.81-0.99 1.1s-1.03 0.44-1.69 0.44zm-0.07-6.15c-0.28 0-0.55 0.05-0.79 0.16-0.24 0.1-0.45 0.24-0.63 0.42-0.18 0.19-0.31 0.4-0.41 0.65-0.1 0.24-0.15 0.51-0.15 0.81v0.09h3.84v-0.14c0-0.3-0.05-0.57-0.14-0.81s-0.22-0.45-0.38-0.63-0.35-0.31-0.58-0.41c-0.23-0.09-0.48-0.14-0.76-0.14zm5.11 5.99v-6.69h1.04v1.09h0.05c0.07-0.16 0.16-0.32 0.26-0.47 0.11-0.16 0.23-0.29 0.38-0.4 0.16-0.11 0.33-0.2 0.54-0.27s0.45-0.11 0.73-0.11c0.7 0 1.26 0.23 1.69 0.67 0.42 0.45 0.63 1.08 0.63 1.89v4.29h-1.04v-4.11c0-0.61-0.13-1.07-0.4-1.37s-0.66-0.44-1.18-0.44c-0.21 0-0.41 0.02-0.61 0.07-0.2 0.06-0.38 0.13-0.53 0.24-0.16 0.1-0.28 0.23-0.38 0.4-0.09 0.16-0.14 0.35-0.14 0.57v4.64h-1.04zm-137.17 23.65c-1.11 0-1.93-0.41-2.48-1.21-0.54-0.81-0.81-1.96-0.81-3.48 0-1.51 0.27-2.67 0.81-3.47 0.55-0.81 1.37-1.21 2.48-1.21 0.41 0 0.77 0.06 1.07 0.17 0.31 0.11 0.56 0.26 0.78 0.45s0.4 0.41 0.55 0.64c0.14 0.24 0.27 0.48 0.38 0.72l-0.93 0.43c-0.08-0.2-0.17-0.38-0.27-0.56-0.11-0.18-0.23-0.33-0.37-0.47-0.14-0.13-0.31-0.24-0.51-0.32-0.19-0.07-0.43-0.11-0.7-0.11-0.72 0-1.26 0.27-1.61 0.81-0.35 0.55-0.52 1.27-0.52 2.18v1.48c0 0.91 0.17 1.64 0.52 2.18 0.35 0.55 0.89 0.82 1.61 0.82 0.27 0 0.51-0.04 0.7-0.12 0.2-0.08 0.37-0.18 0.51-0.32 0.14-0.13 0.26-0.29 0.37-0.46 0.1-0.18 0.19-0.37 0.27-0.57l0.93 0.43c-0.11 0.25-0.24 0.49-0.38 0.73-0.15 0.23-0.33 0.44-0.55 0.63s-0.47 0.34-0.78 0.46c-0.3 0.11-0.66 0.17-1.07 0.17zm10.01-0.16c-0.41 0-0.7-0.1-0.87-0.31s-0.28-0.47-0.32-0.78h-0.07c-0.15 0.39-0.38 0.69-0.71 0.91-0.32 0.22-0.75 0.34-1.3 0.34-0.7 0-1.26-0.19-1.67-0.55-0.42-0.36-0.62-0.86-0.62-1.49 0-0.62 0.22-1.1 0.68-1.44 0.45-0.34 1.18-0.51 2.19-0.51h1.43v-0.66c0-0.49-0.14-0.86-0.41-1.11-0.28-0.24-0.67-0.37-1.18-0.37-0.45 0-0.82 0.09-1.11 0.27-0.28 0.18-0.51 0.42-0.68 0.72l-0.7-0.52c0.08-0.17 0.2-0.34 0.35-0.51 0.14-0.16 0.32-0.31 0.54-0.43 0.22-0.13 0.46-0.23 0.74-0.3s0.58-0.11 0.92-0.11c0.79 0 1.41 0.2 1.88 0.6 0.46 0.39 0.69 0.95 0.69 1.66v3.68h0.93v0.91h-0.71zm-3.09-0.71c0.27 0 0.52-0.04 0.74-0.1 0.22-0.07 0.41-0.15 0.57-0.26 0.17-0.11 0.29-0.24 0.39-0.39 0.09-0.15 0.13-0.31 0.13-0.49v-1.1h-1.43c-0.62 0-1.07 0.09-1.36 0.26-0.28 0.17-0.43 0.42-0.43 0.75v0.28c0 0.34 0.13 0.6 0.37 0.78 0.25 0.18 0.59 0.27 1.02 0.27zm5.68-5.98h1.04v1.09h0.05c0.44-0.83 1.12-1.25 2.07-1.25 0.82 0 1.46 0.31 1.92 0.92 0.47 0.62 0.7 1.48 0.7 2.58 0 1.11-0.23 1.97-0.7 2.58-0.46 0.62-1.1 0.93-1.92 0.93-0.95 0-1.63-0.42-2.07-1.25h-0.05v3.68h-1.04v-9.28zm2.75 5.92c0.61 0 1.08-0.18 1.41-0.55 0.33-0.36 0.5-0.85 0.5-1.46v-1.14c0-0.6-0.17-1.09-0.5-1.46-0.33-0.36-0.8-0.55-1.41-0.55-0.23 0-0.45 0.03-0.66 0.09-0.2 0.06-0.39 0.15-0.54 0.27-0.16 0.11-0.28 0.26-0.37 0.43-0.09 0.16-0.14 0.36-0.14 0.59v2.41c0 0.22 0.05 0.42 0.14 0.59s0.21 0.31 0.37 0.43c0.15 0.11 0.34 0.2 0.54 0.26 0.21 0.06 0.43 0.09 0.66 0.09zm8.11-7.4c-0.3 0-0.51-0.07-0.63-0.19-0.12-0.13-0.19-0.28-0.19-0.47v-0.21c0-0.19 0.07-0.35 0.19-0.48 0.12-0.12 0.33-0.18 0.63-0.18s0.52 0.06 0.64 0.18c0.12 0.13 0.18 0.29 0.18 0.48v0.21c0 0.19-0.06 0.34-0.18 0.47-0.12 0.12-0.34 0.19-0.64 0.19zm-2.93 7.29h2.41v-4.93h-2.41v-0.88h3.45v5.81h2.26v0.88h-5.71v-0.88zm10.62 0.88c-0.51 0-0.88-0.14-1.12-0.43-0.24-0.28-0.35-0.65-0.35-1.1v-4.28h-2.24v-0.88h1.66c0.23 0 0.39-0.05 0.48-0.14s0.13-0.25 0.13-0.47v-1.75h1v2.36h3.05v0.88h-3.05v4.93h3.05v0.88h-2.61zm9.99 0c-0.4 0-0.69-0.1-0.87-0.31-0.17-0.21-0.28-0.47-0.32-0.78h-0.07c-0.14 0.39-0.38 0.69-0.7 0.91-0.33 0.22-0.76 0.34-1.31 0.34-0.7 0-1.25-0.19-1.67-0.55s-0.62-0.86-0.62-1.49c0-0.62 0.22-1.1 0.68-1.44 0.45-0.34 1.19-0.51 2.2-0.51h1.42v-0.66c0-0.49-0.13-0.86-0.41-1.11-0.28-0.24-0.67-0.37-1.18-0.37-0.45 0-0.82 0.09-1.1 0.27-0.29 0.18-0.52 0.42-0.69 0.72l-0.7-0.52c0.08-0.17 0.2-0.34 0.35-0.51 0.15-0.16 0.33-0.31 0.54-0.43 0.22-0.13 0.47-0.23 0.74-0.3 0.28-0.07 0.59-0.11 0.92-0.11 0.79 0 1.42 0.2 1.88 0.6 0.46 0.39 0.69 0.95 0.69 1.66v3.68h0.94v0.91h-0.72zm-3.09-0.71c0.27 0 0.52-0.04 0.74-0.1 0.22-0.07 0.41-0.15 0.58-0.26 0.16-0.11 0.29-0.24 0.38-0.39s0.13-0.31 0.13-0.49v-1.1h-1.42c-0.63 0-1.08 0.09-1.36 0.26-0.29 0.17-0.43 0.42-0.43 0.75v0.28c0 0.34 0.12 0.6 0.37 0.78 0.24 0.18 0.58 0.27 1.01 0.27zm5.49-0.17h2.34v-7.84h-2.34v-0.88h3.37v8.72h2.34v0.88h-5.71v-0.88zm15.7 0.88v-9.05h3.29c0.84 0 1.48 0.22 1.92 0.68s0.66 1.1 0.66 1.92-0.22 1.46-0.66 1.92-1.08 0.69-1.92 0.69h-2.2v3.84h-1.09zm1.09-4.79h2.18c0.46 0 0.81-0.11 1.07-0.34 0.25-0.23 0.38-0.56 0.38-0.98v-0.67c0-0.43-0.13-0.76-0.38-0.98-0.26-0.23-0.61-0.35-1.07-0.35h-2.18v3.32zm9.42 4.95c-0.47 0-0.89-0.09-1.27-0.25-0.38-0.17-0.7-0.4-0.96-0.71s-0.46-0.67-0.6-1.1-0.21-0.91-0.21-1.45c0-0.52 0.07-1 0.21-1.44 0.14-0.43 0.34-0.8 0.6-1.11 0.26-0.3 0.58-0.54 0.96-0.7 0.38-0.17 0.8-0.25 1.27-0.25 0.46 0 0.88 0.08 1.26 0.25 0.38 0.16 0.7 0.4 0.96 0.7 0.26 0.31 0.46 0.68 0.6 1.11 0.14 0.44 0.21 0.92 0.21 1.44 0 0.54-0.07 1.02-0.21 1.45s-0.34 0.79-0.6 1.1-0.58 0.54-0.96 0.71c-0.38 0.16-0.8 0.25-1.26 0.25zm0-0.9c0.57 0 1.04-0.17 1.4-0.52 0.35-0.34 0.53-0.88 0.53-1.61v-0.96c0-0.72-0.18-1.26-0.53-1.61-0.36-0.34-0.83-0.51-1.4-0.51-0.58 0-1.05 0.17-1.41 0.51-0.35 0.35-0.53 0.89-0.53 1.61v0.96c0 0.73 0.18 1.27 0.53 1.61 0.36 0.35 0.83 0.52 1.41 0.52zm7.78 0.9c-0.47 0-0.89-0.09-1.27-0.25-0.37-0.17-0.69-0.4-0.96-0.71-0.26-0.31-0.46-0.67-0.6-1.1s-0.21-0.91-0.21-1.45c0-0.52 0.07-1 0.21-1.44 0.14-0.43 0.34-0.8 0.6-1.11 0.27-0.3 0.59-0.54 0.96-0.7 0.38-0.17 0.8-0.25 1.27-0.25s0.89 0.08 1.26 0.25c0.38 0.16 0.7 0.4 0.96 0.7 0.27 0.31 0.47 0.68 0.61 1.11 0.13 0.44 0.2 0.92 0.2 1.44 0 0.54-0.07 1.02-0.2 1.45-0.14 0.43-0.34 0.79-0.61 1.1-0.26 0.31-0.58 0.54-0.96 0.71-0.37 0.16-0.79 0.25-1.26 0.25zm0-0.9c0.58 0 1.04-0.17 1.4-0.52 0.35-0.34 0.53-0.88 0.53-1.61v-0.96c0-0.72-0.18-1.26-0.53-1.61-0.36-0.34-0.82-0.51-1.4-0.51s-1.05 0.17-1.4 0.51c-0.36 0.35-0.53 0.89-0.53 1.61v0.96c0 0.73 0.17 1.27 0.53 1.61 0.35 0.35 0.82 0.52 1.4 0.52zm4.93-0.14h2.33v-7.84h-2.33v-0.88h3.37v8.72h2.34v0.88h-5.71v-0.88zm20.95 0.88c-0.41 0-0.7-0.1-0.87-0.31-0.18-0.21-0.28-0.47-0.33-0.78h-0.06c-0.15 0.39-0.38 0.69-0.71 0.91-0.32 0.22-0.76 0.34-1.3 0.34-0.7 0-1.26-0.19-1.68-0.55-0.41-0.36-0.62-0.86-0.62-1.49 0-0.62 0.23-1.1 0.68-1.44 0.46-0.34 1.19-0.51 2.2-0.51h1.43v-0.66c0-0.49-0.14-0.86-0.42-1.11-0.27-0.24-0.67-0.37-1.18-0.37-0.45 0-0.81 0.09-1.1 0.27-0.28 0.18-0.51 0.42-0.69 0.72l-0.7-0.52c0.09-0.17 0.21-0.34 0.35-0.51 0.15-0.16 0.33-0.31 0.55-0.43 0.21-0.13 0.46-0.23 0.74-0.3 0.27-0.07 0.58-0.11 0.92-0.11 0.78 0 1.41 0.2 1.87 0.6 0.47 0.39 0.7 0.95 0.7 1.66v3.68h0.93v0.91h-0.71zm-3.09-0.71c0.27 0 0.51-0.04 0.73-0.1 0.22-0.07 0.42-0.15 0.58-0.26s0.29-0.24 0.38-0.39 0.14-0.31 0.14-0.49v-1.1h-1.43c-0.62 0-1.07 0.09-1.36 0.26s-0.43 0.42-0.43 0.75v0.28c0 0.34 0.12 0.6 0.37 0.78s0.59 0.27 1.02 0.27zm5.68-8.89h1.04v4h0.05c0.43-0.83 1.12-1.25 2.06-1.25 0.82 0 1.47 0.31 1.93 0.92 0.46 0.62 0.69 1.48 0.69 2.58 0 1.11-0.23 1.97-0.69 2.58-0.46 0.62-1.11 0.93-1.93 0.93-0.94 0-1.63-0.42-2.06-1.25h-0.05v1.09h-1.04v-9.6zm2.75 8.83c0.61 0 1.08-0.18 1.41-0.55 0.33-0.36 0.5-0.85 0.5-1.46v-1.14c0-0.6-0.17-1.09-0.5-1.46-0.33-0.36-0.8-0.55-1.41-0.55-0.23 0-0.45 0.03-0.66 0.09s-0.39 0.15-0.55 0.27c-0.15 0.11-0.27 0.26-0.36 0.43-0.1 0.16-0.14 0.36-0.14 0.59v2.41c0 0.22 0.04 0.42 0.14 0.59 0.09 0.17 0.21 0.31 0.36 0.43 0.16 0.11 0.34 0.2 0.55 0.26s0.43 0.09 0.66 0.09zm7.69 0.93c-0.46 0-0.89-0.09-1.26-0.25-0.38-0.17-0.7-0.4-0.96-0.71s-0.47-0.67-0.6-1.1c-0.14-0.43-0.21-0.91-0.21-1.45 0-0.52 0.07-1 0.21-1.44 0.13-0.43 0.34-0.8 0.6-1.11 0.26-0.3 0.58-0.54 0.96-0.7 0.37-0.17 0.8-0.25 1.26-0.25 0.47 0 0.89 0.08 1.27 0.25 0.37 0.16 0.69 0.4 0.96 0.7 0.26 0.31 0.46 0.68 0.6 1.11 0.14 0.44 0.21 0.92 0.21 1.44 0 0.54-0.07 1.02-0.21 1.45s-0.34 0.79-0.6 1.1c-0.27 0.31-0.59 0.54-0.96 0.71-0.38 0.16-0.8 0.25-1.27 0.25zm0-0.9c0.58 0 1.05-0.17 1.4-0.52 0.36-0.34 0.54-0.88 0.54-1.61v-0.96c0-0.72-0.18-1.26-0.54-1.61-0.35-0.34-0.82-0.51-1.4-0.51s-1.04 0.17-1.4 0.51c-0.35 0.35-0.53 0.89-0.53 1.61v0.96c0 0.73 0.18 1.27 0.53 1.61 0.36 0.35 0.82 0.52 1.4 0.52zm7.13 0.74l-2.4-6.69h1.05l0.96 2.8 1.03 3.02h0.06l1.03-3.02 0.96-2.8h1.03l-2.4 6.69h-1.32zm8.56 0.16c-0.49 0-0.92-0.09-1.31-0.25-0.38-0.17-0.71-0.4-0.98-0.71-0.28-0.31-0.49-0.67-0.63-1.1-0.15-0.43-0.22-0.91-0.22-1.43 0-0.54 0.07-1.02 0.22-1.46 0.16-0.43 0.37-0.8 0.63-1.11 0.27-0.3 0.59-0.54 0.97-0.7 0.38-0.17 0.79-0.25 1.25-0.25 0.45 0 0.86 0.08 1.23 0.25 0.36 0.16 0.68 0.39 0.94 0.68s0.46 0.63 0.59 1.03c0.14 0.4 0.21 0.83 0.21 1.31v0.49h-4.95v0.31c0 0.3 0.04 0.57 0.14 0.82 0.09 0.25 0.23 0.47 0.41 0.65s0.39 0.32 0.65 0.42c0.25 0.1 0.54 0.15 0.85 0.15 0.45 0 0.84-0.1 1.16-0.31 0.33-0.21 0.58-0.49 0.76-0.86l0.76 0.52c-0.2 0.45-0.53 0.82-0.99 1.11s-1.03 0.44-1.69 0.44zm-0.07-6.15c-0.28 0-0.55 0.05-0.79 0.15-0.24 0.11-0.45 0.25-0.63 0.43s-0.31 0.4-0.41 0.64c-0.1 0.25-0.15 0.52-0.15 0.81v0.09h3.84v-0.14c0-0.29-0.05-0.56-0.14-0.8-0.09-0.25-0.22-0.45-0.38-0.63s-0.35-0.32-0.58-0.41c-0.23-0.1-0.48-0.14-0.76-0.14zm17.53 5.99v-7.41h-0.11l-1.9 4.66-1.91-4.66h-0.1v7.41h-1v-9.05h1.4l1.59 3.99h0.08l1.6-3.99h1.35v9.05h-1zm6.07 0.16c-1.11 0-1.93-0.41-2.47-1.21-0.54-0.81-0.81-1.96-0.81-3.48 0-1.51 0.27-2.67 0.81-3.47 0.54-0.81 1.36-1.21 2.47-1.21 0.41 0 0.77 0.06 1.07 0.17 0.31 0.11 0.57 0.26 0.78 0.45 0.22 0.19 0.4 0.41 0.55 0.64 0.14 0.24 0.27 0.48 0.39 0.72l-0.94 0.43c-0.08-0.2-0.17-0.38-0.27-0.56s-0.23-0.33-0.37-0.47c-0.14-0.13-0.31-0.24-0.51-0.32-0.19-0.07-0.43-0.11-0.7-0.11-0.72 0-1.25 0.27-1.6 0.81-0.36 0.55-0.53 1.27-0.53 2.18v1.48c0 0.91 0.17 1.64 0.53 2.18 0.35 0.55 0.88 0.82 1.6 0.82 0.27 0 0.51-0.04 0.7-0.12 0.2-0.08 0.37-0.18 0.51-0.32 0.14-0.13 0.27-0.29 0.37-0.46 0.1-0.18 0.19-0.37 0.27-0.57l0.94 0.43c-0.12 0.25-0.25 0.49-0.39 0.73-0.15 0.23-0.33 0.44-0.55 0.63-0.21 0.19-0.47 0.34-0.78 0.46-0.3 0.11-0.66 0.17-1.07 0.17zm5.85-0.16h-1.09v-9.05h3.29c0.84 0 1.48 0.22 1.92 0.68s0.66 1.1 0.66 1.92c0 0.74-0.19 1.33-0.57 1.77s-0.93 0.69-1.66 0.76l2.31 3.92h-1.22l-2.2-3.87h-1.44v3.87zm2.18-4.79c0.46 0 0.81-0.11 1.07-0.34 0.25-0.23 0.38-0.56 0.38-0.98v-0.67c0-0.43-0.13-0.76-0.38-0.98-0.26-0.23-0.61-0.35-1.07-0.35h-2.18v3.32h2.18z"/>
    <path id="Line-4" fill-rule="nonzero" fill="#5B6069" d="m9.1111 364.45l16 8.17v-16.35l-16 8.18zm104.55-1.24h-89.784-1.236v2.47h1.236 89.784 1.23v-2.47h-1.23z"/>
    <path id="Line-4" fill-rule="nonzero" fill="#5B6069" d="m209.67 364.45l-16-8.18v16.35l16-8.17zm-107.13 1.23h92.37 1.23v-2.47h-1.23-92.37-1.24v2.47h1.24z"/>
    <path id="Line-4" fill-rule="nonzero" fill="#5B6069" d="m280.78 364.45l16 8.17v-16.35l-16 8.18zm122.58-1.24h-107.81-1.24v2.47h1.24 107.81 1.24v-2.47h-1.24z"/>
    <path id="Line-4" fill-rule="nonzero" fill="#5B6069" d="m625.89 364.45l-16-8.18v16.35l16-8.17zm-233.96 1.23h219.19 1.24v-2.47h-1.24-219.19-1.23v2.47h1.23z"/>
   </g>
  </g>
 </g>
</svg>
