<svg xmlns="http://www.w3.org/2000/svg" width="540" height="174" viewBox="0 0 540 174">
  <g fill="none" fill-rule="evenodd">
    <g transform="translate(230.692)">
      <polygon fill="#9CF3C5" points="100.588 79.483 208.594 79.483 208.594 69.946 100.588 69.965"/>
      <polygon fill="#B3F2D1" points="100.599 79.485 0 43.771 0 35.016 100.599 69.978"/>
      <path fill="#616161" d="M107.976709,35.0164884 L208.576127,69.9781721 L107.976709,35.0164884 Z"/>
      <polygon fill="#60D3A2" points="208.576 79.485 309.176 43.468 309.176 35.016 208.576 69.978"/>
      <path fill="#242933" d="M100.603536,0.0562358905 L208.572009,0.0562358905 L309.175546,35.0164884 L208.578675,69.9772865 L100.599418,69.9821339 L0,35.0164884 L100.599418,0.0548047085 Z"/>
      <polygon fill="#60D3A2" points="175.274 19.533 184.618 16.304 184.618 9.793 175.274 13.022"/>
      <polygon fill="#9CF3C5" points="175.274 19.533 153.043 11.85 153.043 5.339 175.274 13.022"/>
      <polygon fill="#20252E" points="162.387 2.11 153.043 5.339 175.274 13.022 184.618 9.793"/>
      <polygon fill="#60D3A2" points="215.871 44.274 225.215 41.045 225.215 34.534 215.871 37.763"/>
      <polygon fill="#9CF3C5" points="215.871 44.274 145.632 20.001 145.632 13.49 215.871 37.763"/>
      <polygon fill="#20252E" points="154.976 10.261 145.632 13.49 215.871 37.763 225.215 34.534"/>
      <polygon fill="#60D3A2" points="201.695 50.133 211.038 46.905 211.038 40.394 201.695 43.623"/>
      <polygon fill="#9CF3C5" points="201.695 50.133 125.012 23.634 125.012 17.123 201.695 43.623"/>
      <polygon fill="#20252E" points="134.356 13.894 125.012 17.123 201.695 43.623 211.038 40.394"/>
      <polygon fill="#60D3A2" points="195.251 58.598 204.594 55.369 204.594 48.858 195.251 52.087"/>
      <polygon fill="#9CF3C5" points="195.251 58.598 125.012 34.325 125.012 27.814 195.251 52.087"/>
      <polygon fill="#20252E" points="134.356 24.585 125.012 27.814 195.251 52.087 204.594 48.858"/>
      <polygon fill="#60D3A2" points="172.053 61.202 181.396 57.973 181.396 51.462 172.053 54.691"/>
      <polygon fill="#9CF3C5" points="172.053 61.202 84.415 30.917 84.415 24.406 172.053 54.691"/>
      <polygon fill="#20252E" points="93.759 21.177 84.415 24.406 172.053 54.691 181.396 51.462"/>
      <polygon fill="#60D3A2" points="74.749 41.669 84.093 38.44 84.093 31.93 74.749 35.159"/>
      <polygon fill="#9CF3C5" points="74.749 41.669 68.305 39.443 68.305 32.932 74.749 35.159"/>
      <polygon fill="#20252E" points="77.649 29.703 68.305 32.932 74.749 35.159 84.093 31.93"/>
    </g>
    <g transform="translate(0 47.792)">
      <polygon fill="#9CF3C5" points="100.588 79.483 208.594 79.483 208.594 69.946 100.588 69.965"/>
      <polygon fill="#B3F2D1" points="100.599 79.485 0 43.771 0 35.016 100.599 69.978"/>
      <path fill="#616161" d="M107.976709,35.0164884 L208.576127,69.9781721 L107.976709,35.0164884 Z"/>
      <polygon fill="#60D3A2" points="208.576 79.485 309.176 43.468 309.176 35.016 208.576 69.978"/>
      <path fill="#242933" d="M100.603536,0.0562358905 L208.572009,0.0562358905 L309.175546,35.0164884 L208.578675,69.9772865 L100.599418,69.9821339 L0,35.0164884 L100.599418,0.0548047085 Z"/>
      <polygon fill="#60D3A2" points="175.274 19.533 184.618 16.304 184.618 9.793 175.274 13.022"/>
      <polygon fill="#9CF3C5" points="175.274 19.533 153.043 11.85 153.043 5.339 175.274 13.022"/>
      <polygon fill="#20252E" points="162.387 2.11 153.043 5.339 175.274 13.022 184.618 9.793"/>
      <polygon fill="#60D3A2" points="215.871 44.274 225.215 41.045 225.215 34.534 215.871 37.763"/>
      <polygon fill="#9CF3C5" points="215.871 44.274 145.632 20.001 145.632 13.49 215.871 37.763"/>
      <polygon fill="#20252E" points="154.976 10.261 145.632 13.49 215.871 37.763 225.215 34.534"/>
      <polygon fill="#60D3A2" points="201.695 50.133 211.038 46.905 211.038 40.394 201.695 43.623"/>
      <polygon fill="#9CF3C5" points="201.695 50.133 125.012 23.634 125.012 17.123 201.695 43.623"/>
      <polygon fill="#20252E" points="134.356 13.894 125.012 17.123 201.695 43.623 211.038 40.394"/>
      <polygon fill="#60D3A2" points="195.251 58.598 204.594 55.369 204.594 48.858 195.251 52.087"/>
      <polygon fill="#9CF3C5" points="195.251 58.598 125.012 34.325 125.012 27.814 195.251 52.087"/>
      <polygon fill="#20252E" points="134.356 24.585 125.012 27.814 195.251 52.087 204.594 48.858"/>
      <polygon fill="#60D3A2" points="172.053 61.202 181.396 57.973 181.396 51.462 172.053 54.691"/>
      <polygon fill="#9CF3C5" points="172.053 61.202 84.415 30.917 84.415 24.406 172.053 54.691"/>
      <polygon fill="#20252E" points="93.759 21.177 84.415 24.406 172.053 54.691 181.396 51.462"/>
      <polygon fill="#60D3A2" points="74.749 41.669 84.093 38.44 84.093 31.93 74.749 35.159"/>
      <polygon fill="#9CF3C5" points="74.749 41.669 68.305 39.443 68.305 32.932 74.749 35.159"/>
      <polygon fill="#20252E" points="77.649 29.703 68.305 32.932 74.749 35.159 84.093 31.93"/>
    </g>
    <g transform="translate(230.692 94.292)">
      <polygon fill="#9CF3C5" points="100.588 79.483 208.594 79.483 208.594 69.946 100.588 69.965"/>
      <polygon fill="#B3F2D1" points="100.599 79.485 0 43.771 0 35.016 100.599 69.978"/>
      <path fill="#616161" d="M107.976709,35.0164884 L208.576127,69.9781721 L107.976709,35.0164884 Z"/>
      <polygon fill="#60D3A2" points="208.576 79.485 309.176 43.468 309.176 35.016 208.576 69.978"/>
      <path fill="#242933" d="M100.603536,0.0562358905 L208.572009,0.0562358905 L309.175546,35.0164884 L208.578675,69.9772865 L100.599418,69.9821339 L0,35.0164884 L100.599418,0.0548047085 Z"/>
      <polygon fill="#60D3A2" points="175.274 19.533 184.618 16.304 184.618 9.793 175.274 13.022"/>
      <polygon fill="#9CF3C5" points="175.274 19.533 153.043 11.85 153.043 5.339 175.274 13.022"/>
      <polygon fill="#20252E" points="162.387 2.11 153.043 5.339 175.274 13.022 184.618 9.793"/>
      <polygon fill="#60D3A2" points="215.871 44.274 225.215 41.045 225.215 34.534 215.871 37.763"/>
      <polygon fill="#9CF3C5" points="215.871 44.274 145.632 20.001 145.632 13.49 215.871 37.763"/>
      <polygon fill="#20252E" points="154.976 10.261 145.632 13.49 215.871 37.763 225.215 34.534"/>
      <polygon fill="#60D3A2" points="201.695 50.133 211.038 46.905 211.038 40.394 201.695 43.623"/>
      <polygon fill="#9CF3C5" points="201.695 50.133 125.012 23.634 125.012 17.123 201.695 43.623"/>
      <polygon fill="#20252E" points="134.356 13.894 125.012 17.123 201.695 43.623 211.038 40.394"/>
      <polygon fill="#60D3A2" points="195.251 58.598 204.594 55.369 204.594 48.858 195.251 52.087"/>
      <polygon fill="#9CF3C5" points="195.251 58.598 125.012 34.325 125.012 27.814 195.251 52.087"/>
      <polygon fill="#20252E" points="134.356 24.585 125.012 27.814 195.251 52.087 204.594 48.858"/>
      <polygon fill="#60D3A2" points="172.053 61.202 181.396 57.973 181.396 51.462 172.053 54.691"/>
      <polygon fill="#9CF3C5" points="172.053 61.202 84.415 30.917 84.415 24.406 172.053 54.691"/>
      <polygon fill="#20252E" points="93.759 21.177 84.415 24.406 172.053 54.691 181.396 51.462"/>
      <polygon fill="#60D3A2" points="74.749 41.669 84.093 38.44 84.093 31.93 74.749 35.159"/>
      <polygon fill="#9CF3C5" points="74.749 41.669 68.305 39.443 68.305 32.932 74.749 35.159"/>
      <polygon fill="#20252E" points="77.649 29.703 68.305 32.932 74.749 35.159 84.093 31.93"/>
    </g>
  </g>
</svg>
