<?xml version="1.0" encoding="UTF-8" standalone="no"?>
<svg width="540" xmlns="http://www.w3.org/2000/svg" viewBox="0 0 540 174" height="174">
 <g fill-rule="evenodd" fill="none">
  <g transform="translate(230.69)">
   <polygon points="100.59 79.483 208.59 79.483 208.59 69.946 100.59 69.965" fill="#9CF3C5"/>
   <polygon points="100.6 79.485 0 43.771 0 35.016 100.6 69.978" fill="#B3F2D1"/>
   <path d="m107.98 35.016l100.6 34.962-100.6-34.962z" fill="#616161"/>
   <polygon points="208.58 79.485 309.18 43.468 309.18 35.016 208.58 69.978" fill="#60D3A2"/>
   <path d="m100.6 0.056236h107.97l100.61 34.96-100.6 34.961-107.98 0.005-100.6-34.966 100.6-34.961z" fill="#242933"/>
   <polygon points="175.27 19.533 184.62 16.304 184.62 9.793 175.27 13.022" fill="#60D3A2"/>
   <polygon points="175.27 19.533 153.04 11.85 153.04 5.339 175.27 13.022" fill="#9CF3C5"/>
   <polygon points="162.39 2.11 153.04 5.339 175.27 13.022 184.62 9.793" fill="#20252E"/>
   <polygon points="215.87 44.274 225.22 41.045 225.22 34.534 215.87 37.763" fill="#60D3A2"/>
   <polygon points="215.87 44.274 145.63 20.001 145.63 13.49 215.87 37.763" fill="#9CF3C5"/>
   <polygon points="154.98 10.261 145.63 13.49 215.87 37.763 225.22 34.534" fill="#20252E"/>
   <polygon points="201.7 50.133 211.04 46.905 211.04 40.394 201.7 43.623" fill="#60D3A2"/>
   <polygon points="201.7 50.133 125.01 23.634 125.01 17.123 201.7 43.623" fill="#9CF3C5"/>
   <polygon points="134.36 13.894 125.01 17.123 201.7 43.623 211.04 40.394" fill="#20252E"/>
   <polygon points="195.25 58.598 204.59 55.369 204.59 48.858 195.25 52.087" fill="#60D3A2"/>
   <polygon points="195.25 58.598 125.01 34.325 125.01 27.814 195.25 52.087" fill="#9CF3C5"/>
   <polygon points="134.36 24.585 125.01 27.814 195.25 52.087 204.59 48.858" fill="#20252E"/>
   <polygon points="172.05 61.202 181.4 57.973 181.4 51.462 172.05 54.691" fill="#60D3A2"/>
   <polygon points="172.05 61.202 84.415 30.917 84.415 24.406 172.05 54.691" fill="#9CF3C5"/>
   <polygon points="93.759 21.177 84.415 24.406 172.05 54.691 181.4 51.462" fill="#20252E"/>
   <polygon points="74.749 41.669 84.093 38.44 84.093 31.93 74.749 35.159" fill="#60D3A2"/>
   <polygon points="74.749 41.669 68.305 39.443 68.305 32.932 74.749 35.159" fill="#9CF3C5"/>
   <polygon points="77.649 29.703 68.305 32.932 74.749 35.159 84.093 31.93" fill="#20252E"/>
  </g>
  <g transform="translate(0 47.792)">
   <polygon points="100.59 79.483 208.59 79.483 208.59 69.946 100.59 69.965" fill="#9CF3C5"/>
   <polygon points="100.6 79.485 0 43.771 0 35.016 100.6 69.978" fill="#B3F2D1"/>
   <path d="m107.98 35.016l100.6 34.962-100.6-34.962z" fill="#616161"/>
   <polygon points="208.58 79.485 309.18 43.468 309.18 35.016 208.58 69.978" fill="#60D3A2"/>
   <path d="m100.6 0.056236h107.97l100.61 34.96-100.6 34.961-107.98 0.005-100.6-34.966 100.6-34.961z" fill="#242933"/>
   <polygon points="175.27 19.533 184.62 16.304 184.62 9.793 175.27 13.022" fill="#60D3A2"/>
   <polygon points="175.27 19.533 153.04 11.85 153.04 5.339 175.27 13.022" fill="#9CF3C5"/>
   <polygon points="162.39 2.11 153.04 5.339 175.27 13.022 184.62 9.793" fill="#20252E"/>
   <polygon points="215.87 44.274 225.22 41.045 225.22 34.534 215.87 37.763" fill="#60D3A2"/>
   <polygon points="215.87 44.274 145.63 20.001 145.63 13.49 215.87 37.763" fill="#9CF3C5"/>
   <polygon points="154.98 10.261 145.63 13.49 215.87 37.763 225.22 34.534" fill="#20252E"/>
   <polygon points="201.7 50.133 211.04 46.905 211.04 40.394 201.7 43.623" fill="#60D3A2"/>
   <polygon points="201.7 50.133 125.01 23.634 125.01 17.123 201.7 43.623" fill="#9CF3C5"/>
   <polygon points="134.36 13.894 125.01 17.123 201.7 43.623 211.04 40.394" fill="#20252E"/>
   <polygon points="195.25 58.598 204.59 55.369 204.59 48.858 195.25 52.087" fill="#60D3A2"/>
   <polygon points="195.25 58.598 125.01 34.325 125.01 27.814 195.25 52.087" fill="#9CF3C5"/>
   <polygon points="134.36 24.585 125.01 27.814 195.25 52.087 204.59 48.858" fill="#20252E"/>
   <polygon points="172.05 61.202 181.4 57.973 181.4 51.462 172.05 54.691" fill="#60D3A2"/>
   <polygon points="172.05 61.202 84.415 30.917 84.415 24.406 172.05 54.691" fill="#9CF3C5"/>
   <polygon points="93.759 21.177 84.415 24.406 172.05 54.691 181.4 51.462" fill="#20252E"/>
   <polygon points="74.749 41.669 84.093 38.44 84.093 31.93 74.749 35.159" fill="#60D3A2"/>
   <polygon points="74.749 41.669 68.305 39.443 68.305 32.932 74.749 35.159" fill="#9CF3C5"/>
   <polygon points="77.649 29.703 68.305 32.932 74.749 35.159 84.093 31.93" fill="#20252E"/>
  </g>
  <g transform="translate(230.69 94.292)">
   <polygon points="100.59 79.483 208.59 79.483 208.59 69.946 100.59 69.965" fill="#9CF3C5"/>
   <polygon points="100.6 79.485 0 43.771 0 35.016 100.6 69.978" fill="#B3F2D1"/>
   <path d="m107.98 35.016l100.6 34.962-100.6-34.962z" fill="#616161"/>
   <polygon points="208.58 79.485 309.18 43.468 309.18 35.016 208.58 69.978" fill="#60D3A2"/>
   <path d="m100.6 0.056236h107.97l100.61 34.96-100.6 34.961-107.98 0.005-100.6-34.966 100.6-34.961z" fill="#242933"/>
   <polygon points="175.27 19.533 184.62 16.304 184.62 9.793 175.27 13.022" fill="#60D3A2"/>
   <polygon points="175.27 19.533 153.04 11.85 153.04 5.339 175.27 13.022" fill="#9CF3C5"/>
   <polygon points="162.39 2.11 153.04 5.339 175.27 13.022 184.62 9.793" fill="#20252E"/>
   <polygon points="215.87 44.274 225.22 41.045 225.22 34.534 215.87 37.763" fill="#60D3A2"/>
   <polygon points="215.87 44.274 145.63 20.001 145.63 13.49 215.87 37.763" fill="#9CF3C5"/>
   <polygon points="154.98 10.261 145.63 13.49 215.87 37.763 225.22 34.534" fill="#20252E"/>
   <polygon points="201.7 50.133 211.04 46.905 211.04 40.394 201.7 43.623" fill="#60D3A2"/>
   <polygon points="201.7 50.133 125.01 23.634 125.01 17.123 201.7 43.623" fill="#9CF3C5"/>
   <polygon points="134.36 13.894 125.01 17.123 201.7 43.623 211.04 40.394" fill="#20252E"/>
   <polygon points="195.25 58.598 204.59 55.369 204.59 48.858 195.25 52.087" fill="#60D3A2"/>
   <polygon points="195.25 58.598 125.01 34.325 125.01 27.814 195.25 52.087" fill="#9CF3C5"/>
   <polygon points="134.36 24.585 125.01 27.814 195.25 52.087 204.59 48.858" fill="#20252E"/>
   <polygon points="172.05 61.202 181.4 57.973 181.4 51.462 172.05 54.691" fill="#60D3A2"/>
   <polygon points="172.05 61.202 84.415 30.917 84.415 24.406 172.05 54.691" fill="#9CF3C5"/>
   <polygon points="93.759 21.177 84.415 24.406 172.05 54.691 181.4 51.462" fill="#20252E"/>
   <polygon points="74.749 41.669 84.093 38.44 84.093 31.93 74.749 35.159" fill="#60D3A2"/>
   <polygon points="74.749 41.669 68.305 39.443 68.305 32.932 74.749 35.159" fill="#9CF3C5"/>
   <polygon points="77.649 29.703 68.305 32.932 74.749 35.159 84.093 31.93" fill="#20252E"/>
  </g>
 </g>
</svg>
