<?xml version="1.0" encoding="UTF-8" standalone="no"?>
<svg width="39" xmlns="http://www.w3.org/2000/svg" viewBox="0 0 39 39" height="39">
 <g fill-rule="evenodd">
  <rect width="38" fill="#1EAB89" rx="2" x=".88" height="39"/>
  <path transform="matrix(1 0 0 -1 0 39)" d="m29 24.726h-0.721c-0.268 0-0.647-0.397-0.647-0.65v-9.201c0-0.255 0.379-0.601 0.647-0.601h0.721v-2.184h-6.536v2.184h1.368v9.672h-0.067l-3.195-11.856h-2.473l-3.153 11.856h-0.08v-9.672h1.368v-2.184h-5.472v2.184h0.701c0.288 0 0.667 0.346 0.667 0.601v9.201c0 0.253-0.379 0.65-0.667 0.65h-0.701v2.184h6.842l2.247-8.58h0.062l2.267 8.58h6.822v-2.184" fill="#20252E"/>
 </g>
</svg>
