<?xml version="1.0" encoding="UTF-8" standalone="no"?>
<svg width="30" xmlns="http://www.w3.org/2000/svg" viewBox="0 0 30 30" height="30">
 <path fill-rule="evenodd" d="m668 353h26c1.1 0 2 0.9 2 2v26c0 1.1-0.9 2-2 2h-26c-1.1 0-2-0.9-2-2v-26c0-1.1 0.9-2 2-2zm6.77 15.28c-0.03 0 0.3 0.69 0.31 0.69 0.7 1.26 2.06 2.04 4.35 2.25-0.32 0.25-0.72 0.71-0.77 1.25-0.41 0.26-1.24 0.34-1.88 0.15-0.9-0.28-1.25-2.04-2.6-1.79-0.29 0.06-0.23 0.25 0.02 0.41 0.41 0.26 0.8 0.59 1.1 1.28 0.23 0.54 0.71 1.49 2.23 1.49 0.61 0 1.03-0.07 1.03-0.07s0.01 1.37 0.01 1.9c0 0.61-0.84 0.78-0.84 1.08 0 0.11 0.28 0.12 0.5 0.12 0.45 0 1.37-0.36 1.37-0.99v-2.51c0-0.65 0.36-0.85 0.36-0.85s0.04 3.47-0.09 3.93c-0.15 0.55-0.42 0.47-0.42 0.72 0 0.36 1.11 0.09 1.47-0.71 0.29-0.62 0.16-4.03 0.16-4.03h0.31s0.01 1.56 0 2.27c-0.01 0.74-0.06 1.67 0.39 2.11 0.29 0.29 1.24 0.8 1.24 0.33 0-0.27-0.52-0.49-0.52-1.22v-3.36c0.42 0 0.35 1.11 0.35 1.11l0.03 2.05s-0.09 0.75 0.83 1.06c0.32 0.11 1.01 0.14 1.04-0.05 0.03-0.18-0.83-0.46-0.84-1.04 0-0.35 0.02-0.56 0.02-2.09s-0.21-2.1-0.94-2.55c2.25-0.23 3.65-0.78 4.33-2.25 0.05 0 0.27-0.68 0.25-0.68 0.15-0.56 0.23-1.21 0.25-1.99-0.01-2.1-1.03-2.85-1.23-3.2 0.29-1.59-0.05-2.32-0.21-2.57-0.58-0.2-2.02 0.53-2.8 1.04-1.29-0.37-4-0.33-5.01 0.09-1.88-1.32-2.87-1.11-2.87-1.11s-0.64 1.13-0.17 2.78c-0.62 0.77-1.08 1.32-1.08 2.77 0 0.81 0.1 1.55 0.32 2.18z" transform="translate(-666 -353)" fill="#333"/>
</svg>
