<?xml version="1.0" encoding="UTF-8" standalone="no"?>
<svg width="30" xmlns="http://www.w3.org/2000/svg" viewBox="0 0 30 30" height="30">
 <path fill-rule="evenodd" d="m707 353h26c1.1 0 2 0.9 2 2v26c0 1.1-0.9 2-2 2h-26c-1.1 0-2-0.9-2-2v-26c0-1.1 0.9-2 2-2zm15.08 9.14c-1.31 0.48-2.13 1.71-2.04 3.05l0.03 0.52-0.52-0.06c-1.91-0.25-3.57-1.07-4.99-2.46l-0.69-0.69-0.18 0.51c-0.38 1.13-0.13 2.33 0.65 3.14 0.42 0.44 0.33 0.5-0.4 0.24-0.25-0.09-0.47-0.15-0.49-0.12-0.07 0.08 0.18 1.04 0.38 1.42 0.27 0.53 0.83 1.05 1.43 1.36l0.52 0.24-0.61 0.01c-0.59 0-0.61 0.01-0.55 0.24 0.21 0.68 1.04 1.41 1.96 1.73l0.65 0.22-0.56 0.34c-0.84 0.49-1.83 0.77-2.81 0.79-0.47 0.01-0.86 0.05-0.86 0.08 0 0.11 1.28 0.7 2.02 0.93 2.23 0.69 4.88 0.4 6.88-0.78 1.41-0.84 2.82-2.5 3.48-4.11 0.36-0.86 0.72-2.43 0.72-3.18 0-0.48 0.03-0.55 0.61-1.13 0.35-0.34 0.67-0.71 0.74-0.82 0.1-0.2 0.09-0.2-0.44-0.02-0.89 0.32-1.02 0.28-0.58-0.2 0.33-0.34 0.71-0.95 0.71-1.13 0-0.03-0.15 0.02-0.33 0.11-0.19 0.11-0.61 0.27-0.92 0.36l-0.57 0.18-0.51-0.34c-0.29-0.2-0.68-0.41-0.89-0.47-0.54-0.15-1.35-0.13-1.84 0.04z" transform="translate(-705 -353)" fill="#333"/>
</svg>
