<?xml version="1.0" encoding="UTF-8" standalone="no"?>
<svg width="30" xmlns="http://www.w3.org/2000/svg" viewBox="0 0 30 30" height="30">
 <path fill-rule="evenodd" d="m747 353h26c1.1 0 2 0.9 2 2v26c0 1.1-0.9 2-2 2h-26c-1.1 0-2-0.9-2-2v-26c0-1.1 0.9-2 2-2zm9.18 22.07v-10.22h-3.4v10.22h3.4zm-1.7-11.61c1.18 0 1.92-0.78 1.92-1.76-0.02-1.01-0.74-1.77-1.9-1.77s-1.92 0.76-1.92 1.77c0 0.98 0.74 1.76 1.88 1.76h0.02zm13.94 11.61v-5.86c0-3.13-1.68-4.59-3.91-4.59-1.8 0-2.61 0.99-3.06 1.68v-1.44h-3.39c0.04 0.95 0 10.21 0 10.21h3.39v-5.71c0-0.3 0.02-0.61 0.11-0.82 0.25-0.61 0.81-1.24 1.74-1.24 1.23 0 1.72 0.93 1.72 2.3v5.47h3.4z" transform="translate(-745 -353)" fill="#333"/>
</svg>
