<?xml version="1.0" encoding="UTF-8" standalone="no"?>
<svg width="39" xmlns="http://www.w3.org/2000/svg" viewBox="0 0 39 39" height="39">
 <path fill-rule="evenodd" d="m100 0h35c1.1-2.0291e-16 2 0.89543 2 2v35c0 1.105-0.9 2-2 2h-35c-1.105 0-2-0.895-2-2v-35c0-1.1046 0.895-2 2-2zm20.21 11.884c-1.7 0.62-2.78 2.217-2.66 3.966l0.04 0.675-0.68-0.083c-2.48-0.317-4.64-1.391-6.48-3.195l-0.9-0.895-0.23 0.661c-0.49 1.474-0.18 3.03 0.84 4.076 0.55 0.579 0.43 0.661-0.51 0.317-0.33-0.11-0.62-0.193-0.64-0.152-0.1 0.097 0.23 1.35 0.49 1.846 0.35 0.688 1.07 1.363 1.86 1.762l0.67 0.317-0.79 0.014c-0.76 0-0.79 0.013-0.71 0.303 0.27 0.895 1.35 1.845 2.55 2.258l0.84 0.289-0.73 0.441c-1.09 0.633-2.37 0.991-3.65 1.019-0.62 0.014-1.12 0.069-1.12 0.11 0 0.138 1.66 0.909 2.63 1.212 2.9 0.895 6.35 0.509 8.93-1.019 1.84-1.088 3.68-3.25 4.54-5.343 0.46-1.116 0.93-3.154 0.93-4.131 0-0.634 0.04-0.716 0.8-1.474 0.45-0.44 0.87-0.922 0.95-1.06 0.14-0.262 0.12-0.262-0.57-0.027-1.16 0.413-1.32 0.358-0.75-0.262 0.42-0.441 0.93-1.239 0.93-1.474 0-0.041-0.21 0.028-0.44 0.152-0.24 0.138-0.79 0.344-1.2 0.468l-0.73 0.234-0.67-0.454c-0.37-0.248-0.89-0.523-1.16-0.606-0.69-0.193-1.75-0.165-2.38 0.055z" transform="translate(-98)" fill="#1EAB89"/>
</svg>
